G04*
G04 #@! TF.GenerationSoftware,Altium Limited,Altium Designer,20.2.7 (254)*
G04*
G04 Layer_Color=16711935*
%FSLAX42Y42*%
%MOMM*%
G71*
G04*
G04 #@! TF.SameCoordinates,A3C6821A-A7B5-4D3C-B142-2EE2455FBD40*
G04*
G04*
G04 #@! TF.FilePolarity,Negative*
G04*
G01*
G75*
%ADD13R,1.35X1.10*%
%ADD14R,1.10X1.35*%
%ADD15C,2.60*%
%ADD16C,2.10*%
%ADD17R,2.10X6.60*%
%ADD18C,0.10*%
%ADD19C,6.60*%
%ADD32C,0.60*%
%ADD53O,1.55X0.70*%
%ADD54R,2.50X3.20*%
%ADD55C,1.60*%
G04:AMPARAMS|DCode=56|XSize=0.8mm|YSize=1.1mm|CornerRadius=0.23mm|HoleSize=0mm|Usage=FLASHONLY|Rotation=0.000|XOffset=0mm|YOffset=0mm|HoleType=Round|Shape=RoundedRectangle|*
%AMROUNDEDRECTD56*
21,1,0.80,0.65,0,0,0.0*
21,1,0.35,1.10,0,0,0.0*
1,1,0.45,0.18,-0.33*
1,1,0.45,-0.18,-0.33*
1,1,0.45,-0.18,0.33*
1,1,0.45,0.18,0.33*
%
%ADD56ROUNDEDRECTD56*%
G04:AMPARAMS|DCode=57|XSize=0.8mm|YSize=1.1mm|CornerRadius=0.23mm|HoleSize=0mm|Usage=FLASHONLY|Rotation=270.000|XOffset=0mm|YOffset=0mm|HoleType=Round|Shape=RoundedRectangle|*
%AMROUNDEDRECTD57*
21,1,0.80,0.65,0,0,270.0*
21,1,0.35,1.10,0,0,270.0*
1,1,0.45,-0.33,-0.18*
1,1,0.45,-0.33,0.18*
1,1,0.45,0.33,0.18*
1,1,0.45,0.33,-0.18*
%
%ADD57ROUNDEDRECTD57*%
%ADD58R,2.13X2.38*%
%ADD59O,0.70X1.55*%
%ADD60R,1.32X1.01*%
%ADD61O,0.55X1.10*%
%ADD62R,2.38X2.13*%
%ADD63O,1.60X0.65*%
%ADD64O,0.65X1.60*%
%ADD65R,5.60X6.30*%
%ADD66R,1.10X2.70*%
%ADD67R,1.20X1.40*%
D13*
X2430Y4375D02*
D03*
Y4175D02*
D03*
X-690Y0D02*
D03*
Y-200D02*
D03*
X-880Y0D02*
D03*
X1110Y-560D02*
D03*
Y-360D02*
D03*
X-880Y-200D02*
D03*
D14*
X2150Y-3900D02*
D03*
X1950D02*
D03*
X-1925Y-3725D02*
D03*
X-1725D02*
D03*
X-2460Y3880D02*
D03*
X-2660D02*
D03*
X950Y-100D02*
D03*
X750D02*
D03*
X950Y75D02*
D03*
X750D02*
D03*
X950Y-775D02*
D03*
X750D02*
D03*
D15*
X-2750Y-750D02*
D03*
Y-250D02*
D03*
X-2750Y250D02*
D03*
Y750D02*
D03*
X2750D02*
D03*
Y250D02*
D03*
Y-250D02*
D03*
Y-750D02*
D03*
D16*
X275Y-5873D02*
D03*
X-275Y-6127D02*
D03*
X275D02*
D03*
X-1627Y-5625D02*
D03*
X-1373Y-6175D02*
D03*
Y-5625D02*
D03*
X-2627D02*
D03*
X-2373Y-6175D02*
D03*
Y-5625D02*
D03*
X-275Y5873D02*
D03*
X275Y6127D02*
D03*
X-275D02*
D03*
X-1373Y5625D02*
D03*
X-1627Y6175D02*
D03*
Y5625D02*
D03*
X-2373D02*
D03*
X-2627Y6175D02*
D03*
Y5625D02*
D03*
X-275Y-5873D02*
D03*
X-1627Y-6175D02*
D03*
X-2627D02*
D03*
X275Y5873D02*
D03*
X-1373Y6175D02*
D03*
X-2373D02*
D03*
D17*
X-900Y6125D02*
D03*
X900D02*
D03*
D18*
X465Y-6245D02*
D03*
X0Y-6160D02*
D03*
Y-5840D02*
D03*
X-1255Y-5435D02*
D03*
X-1340Y-5900D02*
D03*
X-1660D02*
D03*
X-2255Y-5435D02*
D03*
X-2340Y-5900D02*
D03*
X-2660D02*
D03*
X-465Y6245D02*
D03*
X0Y6160D02*
D03*
Y5840D02*
D03*
X-1745Y5435D02*
D03*
X-1660Y5900D02*
D03*
X-1340D02*
D03*
X-2745Y5435D02*
D03*
X-2660Y5900D02*
D03*
X-2340D02*
D03*
D19*
X4450Y3806D02*
D03*
Y1706D02*
D03*
Y-1706D02*
D03*
Y-3806D02*
D03*
X-4450D02*
D03*
Y-1706D02*
D03*
Y1706D02*
D03*
Y3806D02*
D03*
D32*
X2025Y1190D02*
D03*
X2135D02*
D03*
X2025Y1300D02*
D03*
X2135D02*
D03*
X2025Y1410D02*
D03*
X2135D02*
D03*
X-1895Y-1190D02*
D03*
X-2005D02*
D03*
X-1895Y-1300D02*
D03*
X-2005D02*
D03*
X-1895Y-1410D02*
D03*
X-2005D02*
D03*
D53*
X1808Y1110D02*
D03*
Y1236D02*
D03*
Y1364D02*
D03*
Y1490D02*
D03*
X2352Y1110D02*
D03*
Y1236D02*
D03*
Y1364D02*
D03*
Y1490D02*
D03*
X-1677Y-1110D02*
D03*
Y-1236D02*
D03*
Y-1364D02*
D03*
Y-1490D02*
D03*
X-2223Y-1110D02*
D03*
Y-1236D02*
D03*
Y-1364D02*
D03*
Y-1490D02*
D03*
D54*
X2080Y1300D02*
D03*
X-1950Y-1300D02*
D03*
D55*
X-508Y1300D02*
D03*
X-254D02*
D03*
X508D02*
D03*
X0D02*
D03*
X254D02*
D03*
D56*
X1480Y1380D02*
D03*
X1630D02*
D03*
X1480Y1230D02*
D03*
X1630D02*
D03*
X2100Y-3725D02*
D03*
X1950D02*
D03*
X-1875Y-3900D02*
D03*
X-1725D02*
D03*
X-2225Y4450D02*
D03*
Y4150D02*
D03*
X-2610Y3705D02*
D03*
X-2460D02*
D03*
X-500Y-5225D02*
D03*
X-1825D02*
D03*
X-350Y-5075D02*
D03*
X-500D02*
D03*
X-1675Y-5075D02*
D03*
X-1825D02*
D03*
X-1225Y5150D02*
D03*
X-1925D02*
D03*
X-1375Y5000D02*
D03*
X-1225D02*
D03*
X-2075D02*
D03*
X-1925D02*
D03*
X-350Y-5225D02*
D03*
X-1675D02*
D03*
X-1375Y5150D02*
D03*
X-2075D02*
D03*
Y4450D02*
D03*
Y4150D02*
D03*
X-1555Y1185D02*
D03*
X-1405Y1335D02*
D03*
X-1555D02*
D03*
X-1405Y1185D02*
D03*
D57*
X-975Y-975D02*
D03*
Y-1125D02*
D03*
Y-1625D02*
D03*
Y-1475D02*
D03*
X1800Y4850D02*
D03*
X2260Y4175D02*
D03*
Y4325D02*
D03*
X-2600Y-5100D02*
D03*
X-2450Y-5250D02*
D03*
Y-5100D02*
D03*
X75Y5225D02*
D03*
X-75Y5375D02*
D03*
Y5225D02*
D03*
X-2600Y-5250D02*
D03*
X75Y5375D02*
D03*
X1800Y4700D02*
D03*
X375Y-925D02*
D03*
X225D02*
D03*
X-150D02*
D03*
X-300D02*
D03*
X850Y1628D02*
D03*
Y1477D02*
D03*
X-300Y-775D02*
D03*
X375D02*
D03*
X-150D02*
D03*
X225D02*
D03*
D58*
X-2204Y-1750D02*
D03*
X-1696D02*
D03*
X2334Y1750D02*
D03*
X1826D02*
D03*
D59*
X-444Y-3272D02*
D03*
X-317Y-2728D02*
D03*
X-190D02*
D03*
X-63D02*
D03*
X64D02*
D03*
X191D02*
D03*
X445D02*
D03*
Y-3272D02*
D03*
X318D02*
D03*
X191D02*
D03*
X64D02*
D03*
X-63D02*
D03*
X-190D02*
D03*
X-317D02*
D03*
X318Y-2728D02*
D03*
X-444D02*
D03*
D60*
X1050Y1628D02*
D03*
Y1300D02*
D03*
D61*
X840Y-3765D02*
D03*
X760D02*
D03*
X680D02*
D03*
X-680D02*
D03*
X-760D02*
D03*
X-840D02*
D03*
X-920D02*
D03*
X920D02*
D03*
Y-3935D02*
D03*
X840D02*
D03*
X760D02*
D03*
X680D02*
D03*
X-680D02*
D03*
X-760D02*
D03*
X-840D02*
D03*
X-920D02*
D03*
D62*
X-600Y4407D02*
D03*
X600Y4915D02*
D03*
Y4407D02*
D03*
X-600Y4915D02*
D03*
D63*
X425Y280D02*
D03*
Y200D02*
D03*
Y120D02*
D03*
Y40D02*
D03*
Y-40D02*
D03*
Y-120D02*
D03*
X-425Y-200D02*
D03*
Y40D02*
D03*
Y120D02*
D03*
Y200D02*
D03*
Y280D02*
D03*
X425Y-200D02*
D03*
Y-280D02*
D03*
X-425D02*
D03*
Y-120D02*
D03*
Y-40D02*
D03*
D64*
X120Y-425D02*
D03*
X40D02*
D03*
X-40D02*
D03*
X-280D02*
D03*
X-200Y425D02*
D03*
X-120D02*
D03*
X-40D02*
D03*
X40D02*
D03*
X120D02*
D03*
X200D02*
D03*
X280D02*
D03*
Y-425D02*
D03*
X200D02*
D03*
X-120D02*
D03*
X-200D02*
D03*
X-280Y425D02*
D03*
D65*
X0Y4265D02*
D03*
D66*
X228Y4915D02*
D03*
X-228D02*
D03*
D67*
X940Y-590D02*
D03*
X760D02*
D03*
Y-360D02*
D03*
X940D02*
D03*
M02*
