G04*
G04 #@! TF.GenerationSoftware,Altium Limited,Altium Designer,20.2.7 (254)*
G04*
G04 Layer_Color=32896*
%FSLAX42Y42*%
%MOMM*%
G71*
G04*
G04 #@! TF.SameCoordinates,A3C6821A-A7B5-4D3C-B142-2EE2455FBD40*
G04*
G04*
G04 #@! TF.FilePolarity,Positive*
G04*
G01*
G75*
%ADD10C,0.20*%
%ADD24C,0.60*%
%ADD68C,0.25*%
%ADD69C,0.10*%
%ADD70C,0.15*%
G36*
X-3195Y10D02*
Y-1010D01*
X-3445D01*
Y-10D01*
Y10D01*
D01*
Y1010D01*
X-3195D01*
Y10D01*
D02*
G37*
G36*
X645Y975D02*
X-645D01*
Y1175D01*
X645D01*
Y975D01*
D02*
G37*
G36*
X137Y2227D02*
X645D01*
Y1427D01*
X123D01*
Y1427D01*
X-113D01*
Y1427D01*
X-645D01*
Y2227D01*
X-137D01*
Y2227D01*
X137D01*
Y2227D01*
D02*
G37*
G36*
X-315Y-1861D02*
X-313Y-1862D01*
X-312Y-1863D01*
X-311Y-1864D01*
X-311Y-1865D01*
X-310Y-1866D01*
X-310Y-1867D01*
Y-1867D01*
X-310Y-1868D01*
X-311Y-1870D01*
X-311Y-1870D01*
X-311Y-1870D01*
X-341Y-1926D01*
Y-1981D01*
X-341Y-1983D01*
X-342Y-1985D01*
X-343Y-1986D01*
X-344Y-1987D01*
X-345Y-1987D01*
X-346Y-1987D01*
X-347Y-1987D01*
X-347D01*
X-349Y-1987D01*
X-351Y-1987D01*
X-352Y-1986D01*
X-353Y-1984D01*
X-353Y-1983D01*
X-353Y-1982D01*
Y-1982D01*
Y-1981D01*
Y-1926D01*
X-383Y-1871D01*
X-384Y-1869D01*
X-384Y-1868D01*
X-384Y-1868D01*
Y-1867D01*
X-384Y-1865D01*
X-383Y-1864D01*
X-382Y-1863D01*
X-381Y-1862D01*
X-380Y-1862D01*
X-379Y-1861D01*
X-378D01*
X-376Y-1861D01*
X-375Y-1862D01*
X-374Y-1863D01*
X-373Y-1864D01*
X-372Y-1864D01*
Y-1865D01*
X-347Y-1913D01*
X-322Y-1865D01*
X-321Y-1864D01*
X-321Y-1863D01*
X-320Y-1862D01*
X-319Y-1862D01*
X-318Y-1861D01*
X-317Y-1861D01*
X-317D01*
X-315Y-1861D01*
D02*
G37*
G36*
X46Y-1862D02*
X48Y-1862D01*
X49Y-1863D01*
X49Y-1864D01*
X50Y-1866D01*
X50Y-1867D01*
X50Y-1867D01*
Y-1867D01*
Y-1981D01*
X50Y-1983D01*
X49Y-1985D01*
X48Y-1986D01*
X47Y-1987D01*
X46Y-1987D01*
X45Y-1987D01*
X44Y-1987D01*
X44D01*
X42Y-1987D01*
X40Y-1987D01*
X39Y-1986D01*
X39Y-1984D01*
X38Y-1983D01*
X38Y-1982D01*
Y-1982D01*
Y-1981D01*
Y-1889D01*
X-3Y-1983D01*
X-4Y-1985D01*
X-5Y-1986D01*
X-6Y-1986D01*
X-6Y-1987D01*
X-7Y-1987D01*
X-8Y-1987D01*
X-9D01*
X-11Y-1987D01*
X-12Y-1987D01*
X-14Y-1986D01*
X-14Y-1984D01*
X-15Y-1983D01*
X-15Y-1982D01*
Y-1982D01*
Y-1981D01*
Y-1867D01*
X-15Y-1865D01*
X-14Y-1864D01*
X-13Y-1863D01*
X-12Y-1862D01*
X-11Y-1862D01*
X-10Y-1861D01*
X-9D01*
X-7Y-1862D01*
X-5Y-1862D01*
X-4Y-1863D01*
X-3Y-1864D01*
X-3Y-1866D01*
X-3Y-1867D01*
X-3Y-1867D01*
Y-1867D01*
Y-1960D01*
X38Y-1865D01*
X39Y-1864D01*
X40Y-1863D01*
X41Y-1862D01*
X42Y-1862D01*
X43Y-1862D01*
X43Y-1861D01*
X44D01*
X46Y-1862D01*
D02*
G37*
G36*
X105Y-1862D02*
X109Y-1863D01*
X113Y-1864D01*
X116Y-1865D01*
X118Y-1867D01*
X120Y-1868D01*
X121Y-1869D01*
X121Y-1870D01*
X121Y-1870D01*
X123Y-1871D01*
X124Y-1873D01*
X126Y-1876D01*
X127Y-1880D01*
X128Y-1882D01*
X129Y-1885D01*
X129Y-1887D01*
X129Y-1888D01*
Y-1889D01*
Y-1889D01*
Y-1889D01*
Y-1960D01*
X129Y-1962D01*
X129Y-1964D01*
X128Y-1967D01*
X127Y-1971D01*
X125Y-1974D01*
X124Y-1976D01*
X122Y-1978D01*
X121Y-1979D01*
X121Y-1979D01*
Y-1979D01*
X119Y-1981D01*
X118Y-1982D01*
X114Y-1984D01*
X111Y-1985D01*
X108Y-1986D01*
X105Y-1987D01*
X104Y-1987D01*
X103D01*
X102Y-1987D01*
X70D01*
X68Y-1987D01*
X67Y-1987D01*
X66Y-1986D01*
X65Y-1984D01*
X64Y-1983D01*
X64Y-1982D01*
Y-1982D01*
Y-1981D01*
Y-1920D01*
X64Y-1918D01*
X65Y-1917D01*
X66Y-1915D01*
X67Y-1915D01*
X68Y-1914D01*
X69Y-1914D01*
X88D01*
X90Y-1914D01*
X91Y-1915D01*
X93Y-1916D01*
X93Y-1917D01*
X94Y-1918D01*
X94Y-1919D01*
X94Y-1920D01*
Y-1920D01*
X94Y-1922D01*
X93Y-1924D01*
X92Y-1925D01*
X91Y-1925D01*
X90Y-1926D01*
X89Y-1926D01*
X88Y-1926D01*
X76D01*
Y-1975D01*
X101D01*
X104Y-1975D01*
X106Y-1975D01*
X107Y-1974D01*
X109Y-1973D01*
X110Y-1972D01*
X111Y-1971D01*
X112Y-1971D01*
X112Y-1971D01*
X114Y-1969D01*
X115Y-1967D01*
X116Y-1965D01*
X116Y-1963D01*
X117Y-1962D01*
X117Y-1961D01*
Y-1960D01*
Y-1960D01*
Y-1889D01*
X117Y-1887D01*
X116Y-1885D01*
X115Y-1883D01*
X114Y-1882D01*
X114Y-1880D01*
X113Y-1879D01*
X112Y-1879D01*
X112Y-1878D01*
X110Y-1877D01*
X109Y-1876D01*
X107Y-1875D01*
X105Y-1874D01*
X103Y-1874D01*
X102Y-1874D01*
X70D01*
X68Y-1873D01*
X67Y-1873D01*
X66Y-1872D01*
X65Y-1870D01*
X64Y-1869D01*
X64Y-1868D01*
Y-1868D01*
Y-1867D01*
X64Y-1865D01*
X65Y-1864D01*
X66Y-1863D01*
X67Y-1862D01*
X68Y-1862D01*
X69Y-1861D01*
X103D01*
X105Y-1862D01*
D02*
G37*
G36*
X380Y-1862D02*
X382Y-1862D01*
X383Y-1863D01*
X383Y-1864D01*
X384Y-1866D01*
X384Y-1867D01*
X384Y-1867D01*
Y-1867D01*
Y-1981D01*
X384Y-1983D01*
X383Y-1985D01*
X382Y-1986D01*
X381Y-1987D01*
X380Y-1987D01*
X379Y-1987D01*
X378Y-1987D01*
X347D01*
X345Y-1987D01*
X343Y-1987D01*
X339Y-1986D01*
X336Y-1985D01*
X333Y-1983D01*
X331Y-1982D01*
X329Y-1981D01*
X328Y-1980D01*
X327Y-1979D01*
X326Y-1978D01*
X325Y-1976D01*
X323Y-1973D01*
X321Y-1970D01*
X320Y-1966D01*
X319Y-1964D01*
X319Y-1961D01*
X319Y-1961D01*
Y-1960D01*
Y-1960D01*
Y-1960D01*
Y-1889D01*
Y-1887D01*
X319Y-1885D01*
X320Y-1881D01*
X322Y-1878D01*
X323Y-1875D01*
X325Y-1873D01*
X326Y-1871D01*
X327Y-1870D01*
X327Y-1870D01*
X327D01*
X329Y-1868D01*
X331Y-1867D01*
X334Y-1865D01*
X337Y-1863D01*
X341Y-1862D01*
X343Y-1862D01*
X344Y-1862D01*
X345D01*
X346Y-1861D01*
X378D01*
X380Y-1862D01*
D02*
G37*
G36*
X301D02*
X302Y-1862D01*
X303Y-1863D01*
X304Y-1864D01*
X305Y-1866D01*
X305Y-1867D01*
X305Y-1867D01*
Y-1867D01*
Y-1981D01*
X305Y-1983D01*
X304Y-1985D01*
X303Y-1986D01*
X302Y-1987D01*
X301Y-1987D01*
X300Y-1987D01*
X299Y-1987D01*
X255D01*
X253Y-1987D01*
X251Y-1987D01*
X250Y-1986D01*
X250Y-1984D01*
X249Y-1983D01*
X249Y-1982D01*
Y-1982D01*
Y-1981D01*
X249Y-1979D01*
X250Y-1978D01*
X251Y-1977D01*
X252Y-1976D01*
X253Y-1976D01*
X254Y-1975D01*
X293D01*
Y-1926D01*
X273D01*
X271Y-1926D01*
X269Y-1925D01*
X268Y-1924D01*
X267Y-1923D01*
X267Y-1922D01*
X266Y-1921D01*
Y-1920D01*
Y-1920D01*
X267Y-1918D01*
X267Y-1917D01*
X268Y-1915D01*
X269Y-1915D01*
X271Y-1914D01*
X272Y-1914D01*
X293D01*
Y-1874D01*
X255D01*
X253Y-1873D01*
X251Y-1873D01*
X250Y-1872D01*
X250Y-1870D01*
X249Y-1869D01*
X249Y-1868D01*
Y-1868D01*
Y-1867D01*
X249Y-1865D01*
X250Y-1864D01*
X251Y-1863D01*
X252Y-1862D01*
X253Y-1862D01*
X254Y-1861D01*
X299D01*
X301Y-1862D01*
D02*
G37*
G36*
X211Y-1862D02*
X215Y-1863D01*
X218Y-1864D01*
X221Y-1865D01*
X223Y-1867D01*
X225Y-1868D01*
X226Y-1869D01*
X226Y-1870D01*
X226Y-1870D01*
X228Y-1871D01*
X229Y-1873D01*
X231Y-1876D01*
X233Y-1880D01*
X233Y-1883D01*
X234Y-1885D01*
X234Y-1887D01*
X235Y-1888D01*
Y-1889D01*
Y-1889D01*
Y-1890D01*
X234Y-1892D01*
X234Y-1894D01*
X233Y-1897D01*
X232Y-1901D01*
X230Y-1904D01*
X229Y-1906D01*
X228Y-1908D01*
X227Y-1909D01*
X226Y-1909D01*
Y-1909D01*
X187Y-1948D01*
X186Y-1950D01*
X184Y-1952D01*
X184Y-1954D01*
X183Y-1956D01*
X183Y-1957D01*
X182Y-1958D01*
Y-1959D01*
Y-1959D01*
X183Y-1962D01*
X183Y-1964D01*
X184Y-1966D01*
X185Y-1967D01*
X186Y-1969D01*
X186Y-1970D01*
X187Y-1970D01*
X187Y-1971D01*
X189Y-1972D01*
X191Y-1973D01*
X193Y-1974D01*
X194Y-1975D01*
X196Y-1975D01*
X197Y-1975D01*
X211D01*
X214Y-1975D01*
X216Y-1975D01*
X218Y-1974D01*
X221Y-1973D01*
X222Y-1972D01*
X224Y-1972D01*
X224Y-1971D01*
X225Y-1971D01*
X226Y-1970D01*
X228Y-1970D01*
X228Y-1970D01*
X230D01*
X231Y-1970D01*
X232Y-1971D01*
X233Y-1972D01*
X233Y-1972D01*
Y-1972D01*
X234Y-1973D01*
X235Y-1975D01*
X235Y-1976D01*
Y-1976D01*
Y-1976D01*
X235Y-1977D01*
X234Y-1978D01*
X233Y-1980D01*
X233Y-1981D01*
X233Y-1981D01*
X232Y-1981D01*
X229Y-1983D01*
X226Y-1985D01*
X222Y-1986D01*
X219Y-1987D01*
X216Y-1987D01*
X214Y-1987D01*
X213D01*
X212Y-1987D01*
X198D01*
X196Y-1987D01*
X194Y-1987D01*
X190Y-1986D01*
X187Y-1985D01*
X184Y-1983D01*
X181Y-1982D01*
X180Y-1981D01*
X179Y-1980D01*
X178Y-1979D01*
X177Y-1978D01*
X176Y-1976D01*
X174Y-1973D01*
X172Y-1969D01*
X171Y-1966D01*
X170Y-1964D01*
X170Y-1962D01*
Y-1961D01*
X170Y-1960D01*
Y-1960D01*
Y-1960D01*
Y-1959D01*
Y-1957D01*
X170Y-1955D01*
X171Y-1952D01*
X173Y-1948D01*
X174Y-1945D01*
X176Y-1943D01*
X177Y-1941D01*
X178Y-1940D01*
X178Y-1940D01*
X178D01*
X217Y-1901D01*
X219Y-1899D01*
X220Y-1897D01*
X221Y-1895D01*
X221Y-1893D01*
X222Y-1892D01*
X222Y-1891D01*
Y-1890D01*
Y-1890D01*
X222Y-1887D01*
X221Y-1885D01*
X221Y-1883D01*
X220Y-1881D01*
X219Y-1880D01*
X218Y-1879D01*
X218Y-1878D01*
X218Y-1878D01*
X216Y-1877D01*
X214Y-1876D01*
X212Y-1875D01*
X210Y-1874D01*
X209Y-1874D01*
X208Y-1874D01*
X193D01*
X191Y-1874D01*
X188Y-1874D01*
X186Y-1875D01*
X184Y-1876D01*
X182Y-1877D01*
X181Y-1877D01*
X180Y-1878D01*
X179Y-1878D01*
X178Y-1879D01*
X177Y-1879D01*
X176Y-1879D01*
X176D01*
X174Y-1879D01*
X173Y-1878D01*
X172Y-1878D01*
X171Y-1877D01*
X171Y-1877D01*
X170Y-1876D01*
X170Y-1874D01*
X169Y-1873D01*
Y-1873D01*
Y-1873D01*
X170Y-1872D01*
X170Y-1871D01*
X171Y-1869D01*
X172Y-1868D01*
X172Y-1868D01*
X172Y-1868D01*
X176Y-1866D01*
X179Y-1864D01*
X183Y-1863D01*
X186Y-1862D01*
X189Y-1862D01*
X190Y-1862D01*
X191D01*
X192Y-1861D01*
X209D01*
X211Y-1862D01*
D02*
G37*
G36*
X152Y-1862D02*
X153Y-1862D01*
X154Y-1863D01*
X155Y-1864D01*
X155Y-1866D01*
X156Y-1867D01*
X156Y-1867D01*
Y-1867D01*
Y-1981D01*
X156Y-1983D01*
X155Y-1985D01*
X154Y-1986D01*
X153Y-1987D01*
X151Y-1987D01*
X151Y-1987D01*
X150Y-1987D01*
X150D01*
X148Y-1987D01*
X146Y-1987D01*
X145Y-1986D01*
X144Y-1984D01*
X144Y-1983D01*
X143Y-1982D01*
Y-1982D01*
Y-1981D01*
Y-1867D01*
X144Y-1865D01*
X144Y-1864D01*
X145Y-1863D01*
X146Y-1862D01*
X148Y-1862D01*
X149Y-1861D01*
X150D01*
X152Y-1862D01*
D02*
G37*
G36*
X-33D02*
X-32Y-1862D01*
X-31Y-1863D01*
X-30Y-1864D01*
X-29Y-1866D01*
X-29Y-1867D01*
X-29Y-1867D01*
Y-1867D01*
Y-1981D01*
X-29Y-1983D01*
X-30Y-1985D01*
X-31Y-1986D01*
X-32Y-1987D01*
X-33Y-1987D01*
X-34Y-1987D01*
X-35Y-1987D01*
X-79D01*
X-81Y-1987D01*
X-83Y-1987D01*
X-84Y-1986D01*
X-84Y-1984D01*
X-85Y-1983D01*
X-85Y-1982D01*
Y-1982D01*
Y-1981D01*
X-85Y-1979D01*
X-84Y-1978D01*
X-83Y-1977D01*
X-82Y-1976D01*
X-81Y-1976D01*
X-80Y-1975D01*
X-41D01*
Y-1926D01*
X-61D01*
X-64Y-1926D01*
X-65Y-1925D01*
X-66Y-1924D01*
X-67Y-1923D01*
X-67Y-1922D01*
X-68Y-1921D01*
Y-1920D01*
Y-1920D01*
X-67Y-1918D01*
X-67Y-1917D01*
X-66Y-1915D01*
X-65Y-1915D01*
X-63Y-1914D01*
X-62Y-1914D01*
X-41D01*
Y-1874D01*
X-79D01*
X-81Y-1873D01*
X-83Y-1873D01*
X-84Y-1872D01*
X-84Y-1870D01*
X-85Y-1869D01*
X-85Y-1868D01*
Y-1868D01*
Y-1867D01*
X-85Y-1865D01*
X-84Y-1864D01*
X-83Y-1863D01*
X-82Y-1862D01*
X-81Y-1862D01*
X-80Y-1861D01*
X-35D01*
X-33Y-1862D01*
D02*
G37*
G36*
X-103D02*
X-102Y-1862D01*
X-101Y-1863D01*
X-100Y-1864D01*
X-100Y-1866D01*
X-99Y-1867D01*
X-99Y-1867D01*
Y-1867D01*
Y-1981D01*
X-99Y-1983D01*
X-100Y-1985D01*
X-101Y-1986D01*
X-102Y-1987D01*
X-104Y-1987D01*
X-104Y-1987D01*
X-105Y-1987D01*
X-136D01*
X-138Y-1987D01*
X-140Y-1987D01*
X-144Y-1986D01*
X-148Y-1985D01*
X-151Y-1983D01*
X-153Y-1982D01*
X-155Y-1981D01*
X-156Y-1980D01*
X-156Y-1979D01*
X-158Y-1978D01*
X-159Y-1976D01*
X-161Y-1973D01*
X-162Y-1970D01*
X-163Y-1966D01*
X-164Y-1964D01*
X-164Y-1961D01*
X-164Y-1961D01*
Y-1960D01*
Y-1960D01*
Y-1960D01*
Y-1889D01*
Y-1887D01*
X-164Y-1885D01*
X-163Y-1881D01*
X-162Y-1878D01*
X-160Y-1875D01*
X-159Y-1873D01*
X-157Y-1871D01*
X-156Y-1870D01*
X-156Y-1870D01*
X-156D01*
X-154Y-1868D01*
X-153Y-1867D01*
X-149Y-1865D01*
X-146Y-1863D01*
X-143Y-1862D01*
X-140Y-1862D01*
X-139Y-1862D01*
X-138D01*
X-137Y-1861D01*
X-105D01*
X-103Y-1862D01*
D02*
G37*
G36*
X-235D02*
X-234Y-1862D01*
X-233Y-1863D01*
X-232Y-1864D01*
X-231Y-1866D01*
X-231Y-1867D01*
X-231Y-1867D01*
Y-1867D01*
Y-1981D01*
X-231Y-1983D01*
X-232Y-1985D01*
X-233Y-1986D01*
X-234Y-1987D01*
X-235Y-1987D01*
X-236Y-1987D01*
X-237Y-1987D01*
X-268D01*
X-270Y-1987D01*
X-272Y-1987D01*
X-276Y-1986D01*
X-279Y-1985D01*
X-282Y-1983D01*
X-284Y-1982D01*
X-286Y-1980D01*
X-287Y-1980D01*
X-288Y-1979D01*
X-288D01*
X-289Y-1977D01*
X-291Y-1976D01*
X-293Y-1972D01*
X-294Y-1969D01*
X-295Y-1966D01*
X-296Y-1963D01*
X-296Y-1961D01*
X-296Y-1961D01*
Y-1960D01*
Y-1960D01*
Y-1960D01*
Y-1942D01*
X-296Y-1939D01*
X-296Y-1936D01*
X-295Y-1934D01*
X-294Y-1932D01*
X-293Y-1930D01*
X-293Y-1929D01*
X-292Y-1928D01*
X-292Y-1927D01*
X-290Y-1925D01*
X-289Y-1923D01*
X-287Y-1922D01*
X-285Y-1920D01*
X-284Y-1920D01*
X-283Y-1919D01*
X-282Y-1919D01*
X-282Y-1918D01*
X-284Y-1917D01*
X-285Y-1915D01*
X-286Y-1914D01*
X-288Y-1912D01*
X-289Y-1909D01*
X-291Y-1906D01*
X-291Y-1903D01*
X-291Y-1901D01*
X-292Y-1900D01*
X-292Y-1899D01*
Y-1899D01*
Y-1898D01*
Y-1898D01*
Y-1889D01*
Y-1887D01*
X-291Y-1885D01*
X-291Y-1881D01*
X-289Y-1878D01*
X-288Y-1875D01*
X-286Y-1873D01*
X-285Y-1871D01*
X-284Y-1870D01*
X-284Y-1870D01*
X-283D01*
X-282Y-1868D01*
X-280Y-1867D01*
X-277Y-1865D01*
X-273Y-1863D01*
X-270Y-1862D01*
X-268Y-1862D01*
X-266Y-1862D01*
X-266D01*
X-265Y-1861D01*
X-237D01*
X-235Y-1862D01*
D02*
G37*
G36*
X64Y-2013D02*
X65Y-2014D01*
X66Y-2015D01*
X67Y-2016D01*
X67Y-2017D01*
X67Y-2018D01*
X68Y-2019D01*
Y-2019D01*
Y-2111D01*
X67Y-2113D01*
X67Y-2115D01*
X66Y-2119D01*
X65Y-2122D01*
X64Y-2125D01*
X62Y-2128D01*
X61Y-2129D01*
X60Y-2130D01*
X59Y-2130D01*
Y-2131D01*
X58Y-2132D01*
X56Y-2133D01*
X53Y-2135D01*
X49Y-2137D01*
X46Y-2138D01*
X44Y-2138D01*
X42Y-2139D01*
X41D01*
X41Y-2139D01*
X31D01*
X29Y-2139D01*
X26Y-2138D01*
X23Y-2138D01*
X19Y-2136D01*
X16Y-2135D01*
X14Y-2133D01*
X12Y-2132D01*
X11Y-2131D01*
X11Y-2131D01*
X9Y-2129D01*
X8Y-2128D01*
X6Y-2124D01*
X4Y-2121D01*
X4Y-2118D01*
X3Y-2115D01*
X3Y-2113D01*
X2Y-2112D01*
Y-2111D01*
Y-2111D01*
Y-2111D01*
Y-2019D01*
X3Y-2017D01*
X3Y-2015D01*
X4Y-2014D01*
X6Y-2013D01*
X7Y-2013D01*
X8Y-2013D01*
X9D01*
X11Y-2013D01*
X12Y-2014D01*
X13Y-2015D01*
X14Y-2016D01*
X14Y-2017D01*
X15Y-2018D01*
X15Y-2019D01*
Y-2019D01*
Y-2111D01*
X15Y-2113D01*
X16Y-2115D01*
X16Y-2117D01*
X17Y-2119D01*
X18Y-2120D01*
X19Y-2121D01*
X19Y-2122D01*
X20Y-2122D01*
X21Y-2124D01*
X23Y-2125D01*
X25Y-2125D01*
X27Y-2126D01*
X29Y-2126D01*
X30Y-2127D01*
X39D01*
X42Y-2126D01*
X44Y-2126D01*
X46Y-2125D01*
X47Y-2124D01*
X49Y-2123D01*
X50Y-2123D01*
X50Y-2122D01*
X51Y-2122D01*
X52Y-2120D01*
X53Y-2118D01*
X54Y-2116D01*
X55Y-2115D01*
X55Y-2113D01*
X55Y-2112D01*
Y-2111D01*
Y-2111D01*
Y-2019D01*
X55Y-2017D01*
X56Y-2015D01*
X57Y-2014D01*
X58Y-2013D01*
X59Y-2013D01*
X61Y-2013D01*
X61D01*
X64Y-2013D01*
D02*
G37*
G36*
X151D02*
X153Y-2014D01*
X154Y-2015D01*
X155Y-2016D01*
X155Y-2017D01*
X155Y-2018D01*
X156Y-2019D01*
Y-2019D01*
Y-2133D01*
X155Y-2135D01*
X155Y-2136D01*
X154Y-2137D01*
X152Y-2138D01*
X151Y-2138D01*
X150Y-2139D01*
X150Y-2139D01*
X149D01*
X147Y-2139D01*
X146Y-2138D01*
X145Y-2137D01*
X144Y-2136D01*
X144Y-2135D01*
X143Y-2134D01*
Y-2133D01*
Y-2133D01*
Y-2019D01*
X143Y-2017D01*
X144Y-2015D01*
X145Y-2014D01*
X146Y-2013D01*
X147Y-2013D01*
X149Y-2013D01*
X149D01*
X151Y-2013D01*
D02*
G37*
G36*
X125D02*
X126Y-2014D01*
X128Y-2015D01*
X128Y-2016D01*
X129Y-2017D01*
X129Y-2018D01*
X129Y-2019D01*
Y-2019D01*
Y-2133D01*
X129Y-2135D01*
X128Y-2136D01*
X127Y-2137D01*
X126Y-2138D01*
X125Y-2138D01*
X124Y-2139D01*
X123Y-2139D01*
X88D01*
X86Y-2139D01*
X84Y-2138D01*
X83Y-2137D01*
X82Y-2136D01*
X82Y-2135D01*
X82Y-2134D01*
Y-2133D01*
Y-2133D01*
X82Y-2131D01*
X83Y-2129D01*
X84Y-2128D01*
X85Y-2127D01*
X86Y-2127D01*
X87Y-2127D01*
X117D01*
Y-2019D01*
X117Y-2017D01*
X118Y-2015D01*
X119Y-2014D01*
X120Y-2013D01*
X121Y-2013D01*
X122Y-2013D01*
X123D01*
X125Y-2013D01*
D02*
G37*
G36*
X-36Y-2013D02*
X-32Y-2014D01*
X-28Y-2015D01*
X-25Y-2017D01*
X-23Y-2018D01*
X-21Y-2020D01*
X-20Y-2021D01*
X-20Y-2021D01*
X-20Y-2021D01*
X-18Y-2023D01*
X-17Y-2024D01*
X-15Y-2028D01*
X-14Y-2031D01*
X-13Y-2034D01*
X-12Y-2037D01*
X-12Y-2039D01*
X-12Y-2040D01*
Y-2040D01*
Y-2041D01*
Y-2041D01*
X-12Y-2043D01*
X-12Y-2045D01*
X-13Y-2049D01*
X-14Y-2052D01*
X-16Y-2055D01*
X-17Y-2057D01*
X-19Y-2059D01*
X-20Y-2060D01*
X-20Y-2060D01*
Y-2060D01*
X-59Y-2100D01*
X-61Y-2102D01*
X-62Y-2103D01*
X-63Y-2105D01*
X-63Y-2107D01*
X-64Y-2108D01*
X-64Y-2110D01*
Y-2110D01*
Y-2111D01*
X-64Y-2113D01*
X-63Y-2115D01*
X-62Y-2117D01*
X-62Y-2119D01*
X-61Y-2120D01*
X-60Y-2121D01*
X-59Y-2122D01*
X-59Y-2122D01*
X-57Y-2123D01*
X-56Y-2125D01*
X-54Y-2125D01*
X-52Y-2126D01*
X-50Y-2126D01*
X-49Y-2127D01*
X-35D01*
X-33Y-2126D01*
X-30Y-2126D01*
X-28Y-2125D01*
X-26Y-2125D01*
X-24Y-2124D01*
X-23Y-2123D01*
X-22Y-2123D01*
X-21Y-2123D01*
X-20Y-2122D01*
X-19Y-2121D01*
X-18Y-2121D01*
X-17D01*
X-16Y-2122D01*
X-14Y-2122D01*
X-14Y-2123D01*
X-13Y-2123D01*
Y-2123D01*
X-12Y-2125D01*
X-12Y-2126D01*
X-11Y-2127D01*
Y-2127D01*
Y-2127D01*
X-12Y-2128D01*
X-12Y-2129D01*
X-13Y-2131D01*
X-14Y-2132D01*
X-14Y-2132D01*
X-14Y-2132D01*
X-17Y-2135D01*
X-21Y-2136D01*
X-24Y-2137D01*
X-28Y-2138D01*
X-31Y-2138D01*
X-32Y-2139D01*
X-33D01*
X-34Y-2139D01*
X-48D01*
X-50Y-2139D01*
X-52Y-2138D01*
X-56Y-2138D01*
X-59Y-2136D01*
X-62Y-2135D01*
X-65Y-2133D01*
X-66Y-2132D01*
X-68Y-2131D01*
X-68Y-2131D01*
X-69Y-2129D01*
X-71Y-2128D01*
X-73Y-2124D01*
X-74Y-2121D01*
X-75Y-2118D01*
X-76Y-2115D01*
X-76Y-2114D01*
Y-2113D01*
X-76Y-2112D01*
Y-2111D01*
Y-2111D01*
Y-2111D01*
Y-2109D01*
X-76Y-2107D01*
X-75Y-2103D01*
X-74Y-2100D01*
X-72Y-2097D01*
X-71Y-2094D01*
X-69Y-2093D01*
X-68Y-2091D01*
X-68Y-2091D01*
X-68D01*
X-29Y-2052D01*
X-27Y-2050D01*
X-26Y-2048D01*
X-25Y-2046D01*
X-25Y-2045D01*
X-24Y-2043D01*
X-24Y-2042D01*
Y-2041D01*
Y-2041D01*
X-24Y-2038D01*
X-25Y-2036D01*
X-26Y-2034D01*
X-26Y-2033D01*
X-27Y-2031D01*
X-28Y-2030D01*
X-29Y-2030D01*
X-29Y-2030D01*
X-31Y-2028D01*
X-32Y-2027D01*
X-34Y-2026D01*
X-36Y-2025D01*
X-37Y-2025D01*
X-39Y-2025D01*
X-53D01*
X-55Y-2025D01*
X-58Y-2026D01*
X-60Y-2026D01*
X-62Y-2027D01*
X-64Y-2028D01*
X-66Y-2029D01*
X-66Y-2029D01*
X-67Y-2030D01*
X-68Y-2030D01*
X-69Y-2030D01*
X-70Y-2030D01*
X-71D01*
X-72Y-2030D01*
X-74Y-2030D01*
X-74Y-2029D01*
X-75Y-2029D01*
X-76Y-2028D01*
X-76Y-2027D01*
X-77Y-2025D01*
X-77Y-2024D01*
Y-2024D01*
Y-2024D01*
X-77Y-2023D01*
X-76Y-2022D01*
X-75Y-2021D01*
X-74Y-2020D01*
X-74Y-2019D01*
X-74Y-2019D01*
X-71Y-2017D01*
X-67Y-2015D01*
X-63Y-2014D01*
X-60Y-2013D01*
X-57Y-2013D01*
X-56Y-2013D01*
X-55D01*
X-54Y-2013D01*
X-38D01*
X-36Y-2013D01*
D02*
G37*
G36*
X-95Y-2013D02*
X-93Y-2014D01*
X-92Y-2015D01*
X-91Y-2016D01*
X-91Y-2017D01*
X-91Y-2018D01*
X-91Y-2019D01*
Y-2019D01*
X-91Y-2021D01*
X-91Y-2022D01*
X-92Y-2023D01*
X-94Y-2024D01*
X-95Y-2025D01*
X-96Y-2025D01*
X-96Y-2025D01*
X-117D01*
Y-2133D01*
X-117Y-2135D01*
X-118Y-2136D01*
X-119Y-2137D01*
X-120Y-2138D01*
X-121Y-2138D01*
X-122Y-2139D01*
X-123Y-2139D01*
X-123D01*
X-125Y-2139D01*
X-127Y-2138D01*
X-128Y-2137D01*
X-129Y-2136D01*
X-129Y-2135D01*
X-129Y-2134D01*
Y-2133D01*
Y-2133D01*
Y-2025D01*
X-149D01*
X-151Y-2025D01*
X-153Y-2024D01*
X-154Y-2023D01*
X-155Y-2022D01*
X-155Y-2021D01*
X-156Y-2020D01*
Y-2019D01*
Y-2019D01*
X-155Y-2017D01*
X-155Y-2015D01*
X-154Y-2014D01*
X-152Y-2013D01*
X-151Y-2013D01*
X-150Y-2013D01*
X-97D01*
X-95Y-2013D01*
D02*
G37*
G36*
X3445Y-10D02*
Y-1010D01*
X3195D01*
Y-10D01*
Y1010D01*
X3445D01*
Y-10D01*
D02*
G37*
G36*
X-424Y-1537D02*
X-423Y-1538D01*
X-422Y-1539D01*
X-421Y-1539D01*
X-395Y-1566D01*
X-394Y-1567D01*
X-394Y-1568D01*
X-393Y-1569D01*
Y-1569D01*
Y-1569D01*
X-394Y-1571D01*
X-394Y-1572D01*
X-395Y-1573D01*
X-395Y-1574D01*
X-397Y-1575D01*
X-398Y-1575D01*
X-399Y-1576D01*
X-400D01*
X-401Y-1575D01*
X-403Y-1575D01*
X-404Y-1574D01*
X-404Y-1574D01*
X-420Y-1555D01*
Y-1657D01*
X-420Y-1659D01*
X-421Y-1661D01*
X-422Y-1662D01*
X-423Y-1662D01*
X-424Y-1663D01*
X-425Y-1663D01*
X-426Y-1663D01*
X-426D01*
X-428Y-1663D01*
X-429Y-1662D01*
X-431Y-1661D01*
X-431Y-1660D01*
X-432Y-1659D01*
X-432Y-1658D01*
Y-1657D01*
Y-1657D01*
Y-1543D01*
X-432Y-1541D01*
X-431Y-1539D01*
X-430Y-1539D01*
X-429Y-1538D01*
X-428Y-1537D01*
X-427Y-1537D01*
X-426D01*
X-424Y-1537D01*
D02*
G37*
G36*
X-99D02*
X-97Y-1538D01*
X-96Y-1539D01*
X-95Y-1540D01*
X-95Y-1541D01*
X-95Y-1542D01*
X-95Y-1543D01*
Y-1543D01*
Y-1657D01*
X-95Y-1659D01*
X-96Y-1661D01*
X-97Y-1662D01*
X-98Y-1662D01*
X-99Y-1663D01*
X-100Y-1663D01*
X-101Y-1663D01*
X-101D01*
X-103Y-1663D01*
X-105Y-1662D01*
X-106Y-1661D01*
X-106Y-1660D01*
X-107Y-1659D01*
X-107Y-1658D01*
Y-1657D01*
Y-1657D01*
Y-1602D01*
X-147D01*
Y-1657D01*
X-148Y-1659D01*
X-148Y-1661D01*
X-149Y-1662D01*
X-151Y-1662D01*
X-152Y-1663D01*
X-153Y-1663D01*
X-153Y-1663D01*
X-154D01*
X-156Y-1663D01*
X-157Y-1662D01*
X-158Y-1661D01*
X-159Y-1660D01*
X-160Y-1659D01*
X-160Y-1658D01*
Y-1657D01*
Y-1657D01*
Y-1543D01*
X-160Y-1541D01*
X-159Y-1540D01*
X-158Y-1539D01*
X-157Y-1538D01*
X-156Y-1537D01*
X-155Y-1537D01*
X-154D01*
X-152Y-1537D01*
X-150Y-1538D01*
X-149Y-1539D01*
X-148Y-1540D01*
X-148Y-1541D01*
X-148Y-1542D01*
X-147Y-1543D01*
Y-1543D01*
Y-1590D01*
X-107D01*
Y-1543D01*
X-107Y-1541D01*
X-106Y-1540D01*
X-105Y-1539D01*
X-104Y-1538D01*
X-103Y-1537D01*
X-102Y-1537D01*
X-101D01*
X-99Y-1537D01*
D02*
G37*
G36*
X139Y-1617D02*
X140Y-1618D01*
X141Y-1619D01*
X142Y-1620D01*
X142Y-1621D01*
X142Y-1622D01*
X142Y-1623D01*
Y-1623D01*
X142Y-1625D01*
X142Y-1626D01*
X141Y-1627D01*
X140Y-1628D01*
X139Y-1628D01*
X138Y-1628D01*
X137Y-1629D01*
X91D01*
X89Y-1628D01*
X87Y-1628D01*
X86Y-1627D01*
X86Y-1626D01*
X85Y-1625D01*
X85Y-1624D01*
Y-1623D01*
Y-1623D01*
X85Y-1621D01*
X86Y-1620D01*
X87Y-1619D01*
X88Y-1618D01*
X89Y-1618D01*
X90Y-1617D01*
X137D01*
X139Y-1617D01*
D02*
G37*
G36*
X534Y-1537D02*
X535Y-1538D01*
X536Y-1539D01*
X537Y-1540D01*
X537Y-1541D01*
X538Y-1542D01*
X538Y-1543D01*
Y-1543D01*
Y-1657D01*
X538Y-1659D01*
X537Y-1661D01*
X536Y-1662D01*
X535Y-1662D01*
X534Y-1663D01*
X533Y-1663D01*
X532Y-1663D01*
X532D01*
X530Y-1663D01*
X528Y-1662D01*
X527Y-1661D01*
X526Y-1660D01*
X526Y-1659D01*
X525Y-1658D01*
Y-1657D01*
Y-1657D01*
Y-1610D01*
X501D01*
X499Y-1610D01*
X497Y-1610D01*
X493Y-1609D01*
X489Y-1608D01*
X487Y-1606D01*
X484Y-1605D01*
X482Y-1604D01*
X481Y-1603D01*
X481Y-1602D01*
X479Y-1601D01*
X478Y-1599D01*
X476Y-1596D01*
X475Y-1592D01*
X474Y-1589D01*
X473Y-1587D01*
X473Y-1584D01*
X473Y-1584D01*
Y-1583D01*
Y-1583D01*
Y-1583D01*
Y-1565D01*
Y-1563D01*
X473Y-1561D01*
X474Y-1557D01*
X475Y-1554D01*
X477Y-1551D01*
X478Y-1549D01*
X480Y-1547D01*
X481Y-1546D01*
X481Y-1545D01*
X481D01*
X483Y-1544D01*
X484Y-1543D01*
X488Y-1541D01*
X491Y-1539D01*
X494Y-1538D01*
X497Y-1537D01*
X498Y-1537D01*
X499D01*
X500Y-1537D01*
X532D01*
X534Y-1537D01*
D02*
G37*
G36*
X435Y-1537D02*
X439Y-1538D01*
X442Y-1540D01*
X445Y-1541D01*
X447Y-1543D01*
X449Y-1544D01*
X450Y-1545D01*
X450Y-1545D01*
X451Y-1545D01*
X452Y-1547D01*
X453Y-1549D01*
X455Y-1552D01*
X457Y-1555D01*
X458Y-1558D01*
X458Y-1561D01*
X459Y-1563D01*
X459Y-1564D01*
Y-1564D01*
Y-1565D01*
Y-1565D01*
Y-1635D01*
X459Y-1637D01*
X458Y-1639D01*
X457Y-1643D01*
X456Y-1647D01*
X455Y-1649D01*
X453Y-1652D01*
X452Y-1654D01*
X451Y-1655D01*
X451Y-1655D01*
Y-1655D01*
X449Y-1656D01*
X447Y-1658D01*
X444Y-1660D01*
X441Y-1661D01*
X437Y-1662D01*
X435Y-1663D01*
X434Y-1663D01*
X433D01*
X432Y-1663D01*
X422D01*
X420Y-1663D01*
X418Y-1663D01*
X414Y-1662D01*
X410Y-1661D01*
X407Y-1659D01*
X405Y-1658D01*
X403Y-1656D01*
X402Y-1655D01*
X402Y-1655D01*
X400Y-1654D01*
X399Y-1652D01*
X397Y-1649D01*
X396Y-1645D01*
X395Y-1642D01*
X394Y-1639D01*
X394Y-1637D01*
X394Y-1636D01*
Y-1636D01*
Y-1635D01*
Y-1635D01*
Y-1565D01*
Y-1563D01*
X394Y-1561D01*
X395Y-1557D01*
X396Y-1554D01*
X398Y-1551D01*
X399Y-1549D01*
X401Y-1547D01*
X402Y-1546D01*
X402Y-1545D01*
X402D01*
X404Y-1544D01*
X405Y-1543D01*
X409Y-1541D01*
X412Y-1539D01*
X415Y-1538D01*
X418Y-1537D01*
X419Y-1537D01*
X420D01*
X421Y-1537D01*
X433D01*
X435Y-1537D01*
D02*
G37*
G36*
X376Y-1537D02*
X377Y-1538D01*
X378Y-1539D01*
X379Y-1540D01*
X379Y-1541D01*
X379Y-1542D01*
X380Y-1543D01*
Y-1543D01*
Y-1657D01*
X379Y-1659D01*
X379Y-1661D01*
X378Y-1662D01*
X377Y-1662D01*
X375Y-1663D01*
X374Y-1663D01*
X374Y-1663D01*
X343D01*
X341Y-1663D01*
X339Y-1663D01*
X335Y-1662D01*
X331Y-1661D01*
X328Y-1659D01*
X326Y-1658D01*
X324Y-1656D01*
X323Y-1655D01*
X323Y-1655D01*
X321Y-1654D01*
X320Y-1652D01*
X318Y-1649D01*
X317Y-1645D01*
X316Y-1642D01*
X315Y-1639D01*
X315Y-1637D01*
X315Y-1636D01*
Y-1636D01*
Y-1635D01*
Y-1635D01*
Y-1618D01*
Y-1616D01*
X315Y-1614D01*
X316Y-1610D01*
X317Y-1606D01*
X319Y-1604D01*
X320Y-1601D01*
X322Y-1599D01*
X322Y-1598D01*
X323Y-1598D01*
X323D01*
X325Y-1596D01*
X326Y-1595D01*
X330Y-1593D01*
X333Y-1592D01*
X336Y-1591D01*
X339Y-1590D01*
X340Y-1590D01*
X341D01*
X342Y-1590D01*
X367D01*
Y-1549D01*
X325D01*
X323Y-1549D01*
X322Y-1548D01*
X320Y-1547D01*
X320Y-1546D01*
X319Y-1545D01*
X319Y-1544D01*
Y-1543D01*
Y-1543D01*
X319Y-1541D01*
X320Y-1540D01*
X321Y-1539D01*
X322Y-1538D01*
X323Y-1537D01*
X324Y-1537D01*
X374D01*
X376Y-1537D01*
D02*
G37*
G36*
X277Y-1537D02*
X281Y-1538D01*
X284Y-1540D01*
X287Y-1541D01*
X289Y-1543D01*
X291Y-1544D01*
X292Y-1545D01*
X292Y-1545D01*
X292Y-1545D01*
X294Y-1547D01*
X295Y-1549D01*
X297Y-1552D01*
X299Y-1555D01*
X300Y-1558D01*
X300Y-1561D01*
X300Y-1563D01*
X301Y-1564D01*
Y-1564D01*
Y-1565D01*
Y-1565D01*
Y-1635D01*
X300Y-1637D01*
X300Y-1639D01*
X299Y-1643D01*
X298Y-1647D01*
X297Y-1649D01*
X295Y-1652D01*
X294Y-1654D01*
X293Y-1655D01*
X292Y-1655D01*
Y-1655D01*
X291Y-1656D01*
X289Y-1658D01*
X286Y-1660D01*
X282Y-1661D01*
X279Y-1662D01*
X277Y-1663D01*
X275Y-1663D01*
X275D01*
X274Y-1663D01*
X264D01*
X262Y-1663D01*
X260Y-1663D01*
X256Y-1662D01*
X252Y-1661D01*
X249Y-1659D01*
X247Y-1658D01*
X245Y-1656D01*
X244Y-1655D01*
X244Y-1655D01*
X242Y-1654D01*
X241Y-1652D01*
X239Y-1649D01*
X237Y-1645D01*
X237Y-1642D01*
X236Y-1639D01*
X236Y-1637D01*
X235Y-1636D01*
Y-1636D01*
Y-1635D01*
Y-1635D01*
Y-1565D01*
Y-1563D01*
X236Y-1561D01*
X237Y-1557D01*
X238Y-1554D01*
X240Y-1551D01*
X241Y-1549D01*
X242Y-1547D01*
X243Y-1546D01*
X244Y-1545D01*
X244D01*
X245Y-1544D01*
X247Y-1543D01*
X250Y-1541D01*
X254Y-1539D01*
X257Y-1538D01*
X260Y-1537D01*
X261Y-1537D01*
X262D01*
X263Y-1537D01*
X275D01*
X277Y-1537D01*
D02*
G37*
G36*
X217Y-1537D02*
X219Y-1538D01*
X220Y-1539D01*
X221Y-1540D01*
X221Y-1541D01*
X221Y-1542D01*
X222Y-1543D01*
Y-1543D01*
X221Y-1545D01*
X221Y-1547D01*
X220Y-1548D01*
X218Y-1549D01*
X217Y-1549D01*
X216Y-1549D01*
X216Y-1549D01*
X195D01*
Y-1657D01*
X195Y-1659D01*
X194Y-1661D01*
X193Y-1662D01*
X192Y-1662D01*
X191Y-1663D01*
X190Y-1663D01*
X189Y-1663D01*
X189D01*
X187Y-1663D01*
X185Y-1662D01*
X184Y-1661D01*
X184Y-1660D01*
X183Y-1659D01*
X183Y-1658D01*
Y-1657D01*
Y-1657D01*
Y-1549D01*
X163D01*
X161Y-1549D01*
X159Y-1548D01*
X158Y-1547D01*
X157Y-1546D01*
X157Y-1545D01*
X157Y-1544D01*
Y-1543D01*
Y-1543D01*
X157Y-1541D01*
X157Y-1540D01*
X159Y-1539D01*
X160Y-1538D01*
X161Y-1537D01*
X162Y-1537D01*
X215D01*
X217Y-1537D01*
D02*
G37*
G36*
X68D02*
X70Y-1538D01*
X71Y-1539D01*
X71Y-1540D01*
X72Y-1541D01*
X72Y-1542D01*
X72Y-1543D01*
Y-1543D01*
Y-1657D01*
X72Y-1659D01*
X71Y-1661D01*
X70Y-1662D01*
X69Y-1662D01*
X68Y-1663D01*
X67Y-1663D01*
X66Y-1663D01*
X35D01*
X33Y-1663D01*
X31Y-1663D01*
X27Y-1662D01*
X24Y-1661D01*
X21Y-1659D01*
X19Y-1658D01*
X17Y-1656D01*
X16Y-1655D01*
X15Y-1655D01*
X14Y-1654D01*
X12Y-1652D01*
X10Y-1649D01*
X9Y-1645D01*
X8Y-1642D01*
X7Y-1639D01*
X7Y-1637D01*
X7Y-1636D01*
Y-1636D01*
Y-1635D01*
Y-1635D01*
Y-1618D01*
Y-1616D01*
X7Y-1614D01*
X8Y-1610D01*
X10Y-1606D01*
X11Y-1604D01*
X13Y-1601D01*
X14Y-1599D01*
X15Y-1598D01*
X15Y-1598D01*
X15D01*
X17Y-1596D01*
X19Y-1595D01*
X22Y-1593D01*
X25Y-1592D01*
X28Y-1591D01*
X31Y-1590D01*
X32Y-1590D01*
X33D01*
X34Y-1590D01*
X60D01*
Y-1549D01*
X17D01*
X15Y-1549D01*
X14Y-1548D01*
X13Y-1547D01*
X12Y-1546D01*
X12Y-1545D01*
X11Y-1544D01*
Y-1543D01*
Y-1543D01*
X12Y-1541D01*
X12Y-1540D01*
X13Y-1539D01*
X14Y-1538D01*
X16Y-1537D01*
X17Y-1537D01*
X66D01*
X68Y-1537D01*
D02*
G37*
G36*
X-42D02*
X-41Y-1538D01*
X-40Y-1539D01*
X-39Y-1540D01*
X-38Y-1541D01*
X-38Y-1541D01*
X-38Y-1542D01*
Y-1542D01*
X-7Y-1656D01*
X-7D01*
Y-1657D01*
Y-1657D01*
Y-1657D01*
X-7Y-1659D01*
X-8Y-1661D01*
X-9Y-1662D01*
X-10Y-1662D01*
X-11Y-1663D01*
X-12Y-1663D01*
X-13Y-1663D01*
X-13D01*
X-15Y-1663D01*
X-16Y-1662D01*
X-17Y-1662D01*
X-18Y-1661D01*
X-18Y-1660D01*
X-19Y-1659D01*
X-19Y-1659D01*
Y-1659D01*
X-27Y-1628D01*
X-60D01*
X-68Y-1659D01*
X-69Y-1660D01*
X-70Y-1661D01*
X-71Y-1662D01*
X-72Y-1663D01*
X-73Y-1663D01*
X-73Y-1663D01*
X-74D01*
X-76Y-1663D01*
X-78Y-1662D01*
X-79Y-1661D01*
X-80Y-1660D01*
X-80Y-1659D01*
X-80Y-1658D01*
Y-1657D01*
Y-1657D01*
Y-1656D01*
X-80Y-1656D01*
Y-1655D01*
X-50Y-1542D01*
X-49Y-1541D01*
X-48Y-1539D01*
X-47Y-1538D01*
X-46Y-1538D01*
X-45Y-1537D01*
X-44Y-1537D01*
X-44D01*
X-42Y-1537D01*
D02*
G37*
G36*
X-231Y-1537D02*
X-230Y-1537D01*
X-229Y-1538D01*
X-228Y-1539D01*
X-227Y-1539D01*
X-227Y-1540D01*
X-186Y-1598D01*
Y-1543D01*
X-186Y-1541D01*
X-185Y-1540D01*
X-184Y-1539D01*
X-183Y-1538D01*
X-182Y-1537D01*
X-181Y-1537D01*
X-180D01*
X-178Y-1537D01*
X-176Y-1538D01*
X-175Y-1539D01*
X-175Y-1540D01*
X-174Y-1541D01*
X-174Y-1542D01*
X-174Y-1543D01*
Y-1543D01*
Y-1657D01*
X-174Y-1659D01*
X-175Y-1661D01*
X-176Y-1662D01*
X-177Y-1662D01*
X-178Y-1663D01*
X-179Y-1663D01*
X-180Y-1663D01*
X-180D01*
X-182Y-1663D01*
X-184Y-1662D01*
X-185Y-1661D01*
X-185Y-1660D01*
X-186Y-1659D01*
X-186Y-1658D01*
Y-1657D01*
Y-1657D01*
Y-1615D01*
X-198Y-1597D01*
X-227Y-1658D01*
X-227Y-1660D01*
X-228Y-1661D01*
X-229Y-1662D01*
X-230Y-1662D01*
X-231Y-1663D01*
X-232Y-1663D01*
X-232D01*
X-235Y-1663D01*
X-236Y-1662D01*
X-237Y-1661D01*
X-238Y-1660D01*
X-238Y-1659D01*
X-239Y-1658D01*
X-239Y-1657D01*
Y-1657D01*
Y-1656D01*
X-239Y-1655D01*
X-238Y-1655D01*
X-238Y-1654D01*
X-207Y-1587D01*
X-238Y-1547D01*
X-238Y-1546D01*
X-239Y-1544D01*
X-239Y-1544D01*
Y-1543D01*
Y-1542D01*
X-238Y-1541D01*
X-238Y-1540D01*
X-237Y-1539D01*
X-237Y-1539D01*
X-237D01*
X-236Y-1538D01*
X-235Y-1538D01*
X-234Y-1537D01*
X-233Y-1537D01*
X-232D01*
X-231Y-1537D01*
D02*
G37*
G36*
X-288Y-1537D02*
X-287Y-1538D01*
X-286Y-1539D01*
X-285Y-1540D01*
X-284Y-1541D01*
X-284Y-1541D01*
X-284Y-1542D01*
Y-1542D01*
X-253Y-1656D01*
X-253D01*
Y-1657D01*
Y-1657D01*
Y-1657D01*
X-253Y-1659D01*
X-254Y-1661D01*
X-255Y-1662D01*
X-256Y-1662D01*
X-257Y-1663D01*
X-258Y-1663D01*
X-259Y-1663D01*
X-259D01*
X-261Y-1663D01*
X-262Y-1662D01*
X-263Y-1662D01*
X-264Y-1661D01*
X-264Y-1660D01*
X-265Y-1659D01*
X-265Y-1659D01*
Y-1659D01*
X-273Y-1628D01*
X-306D01*
X-314Y-1659D01*
X-315Y-1660D01*
X-316Y-1661D01*
X-317Y-1662D01*
X-318Y-1663D01*
X-319Y-1663D01*
X-319Y-1663D01*
X-320D01*
X-322Y-1663D01*
X-324Y-1662D01*
X-325Y-1661D01*
X-326Y-1660D01*
X-326Y-1659D01*
X-326Y-1658D01*
Y-1657D01*
Y-1657D01*
Y-1656D01*
X-326Y-1656D01*
Y-1655D01*
X-295Y-1542D01*
X-295Y-1541D01*
X-294Y-1539D01*
X-293Y-1538D01*
X-292Y-1538D01*
X-291Y-1537D01*
X-290Y-1537D01*
X-290D01*
X-288Y-1537D01*
D02*
G37*
G36*
X-450Y-1651D02*
X-449Y-1652D01*
X-448Y-1653D01*
X-447Y-1654D01*
X-447Y-1655D01*
X-446Y-1656D01*
X-446Y-1657D01*
Y-1657D01*
X-446Y-1659D01*
X-447Y-1661D01*
X-448Y-1662D01*
X-449Y-1662D01*
X-450Y-1663D01*
X-451Y-1663D01*
X-452Y-1663D01*
X-452D01*
X-454Y-1663D01*
X-456Y-1662D01*
X-457Y-1661D01*
X-458Y-1660D01*
X-458Y-1659D01*
X-459Y-1658D01*
Y-1657D01*
Y-1657D01*
X-458Y-1655D01*
X-458Y-1654D01*
X-457Y-1652D01*
X-455Y-1652D01*
X-454Y-1651D01*
X-453Y-1651D01*
X-452D01*
X-450Y-1651D01*
D02*
G37*
G36*
X-497Y-1537D02*
X-493Y-1538D01*
X-489Y-1540D01*
X-486Y-1541D01*
X-484Y-1543D01*
X-482Y-1544D01*
X-481Y-1545D01*
X-481Y-1545D01*
X-481Y-1545D01*
X-479Y-1547D01*
X-478Y-1549D01*
X-476Y-1552D01*
X-475Y-1555D01*
X-474Y-1558D01*
X-473Y-1561D01*
X-473Y-1563D01*
X-473Y-1564D01*
Y-1564D01*
Y-1565D01*
Y-1565D01*
Y-1635D01*
X-473Y-1637D01*
X-473Y-1639D01*
X-474Y-1643D01*
X-475Y-1647D01*
X-477Y-1649D01*
X-478Y-1652D01*
X-479Y-1654D01*
X-480Y-1655D01*
X-481Y-1655D01*
Y-1655D01*
X-482Y-1656D01*
X-484Y-1658D01*
X-487Y-1660D01*
X-491Y-1661D01*
X-494Y-1662D01*
X-497Y-1663D01*
X-498Y-1663D01*
X-499D01*
X-500Y-1663D01*
X-509D01*
X-512Y-1663D01*
X-514Y-1663D01*
X-517Y-1662D01*
X-521Y-1661D01*
X-524Y-1659D01*
X-526Y-1658D01*
X-528Y-1656D01*
X-529Y-1655D01*
X-529Y-1655D01*
X-531Y-1654D01*
X-532Y-1652D01*
X-534Y-1649D01*
X-536Y-1645D01*
X-537Y-1642D01*
X-537Y-1639D01*
X-538Y-1637D01*
X-538Y-1636D01*
Y-1636D01*
Y-1635D01*
Y-1635D01*
Y-1565D01*
Y-1563D01*
X-537Y-1561D01*
X-537Y-1557D01*
X-535Y-1554D01*
X-534Y-1551D01*
X-532Y-1549D01*
X-531Y-1547D01*
X-530Y-1546D01*
X-530Y-1545D01*
X-529D01*
X-528Y-1544D01*
X-526Y-1543D01*
X-523Y-1541D01*
X-519Y-1539D01*
X-516Y-1538D01*
X-514Y-1537D01*
X-512Y-1537D01*
X-512D01*
X-511Y-1537D01*
X-499D01*
X-497Y-1537D01*
D02*
G37*
%LPC*%
G36*
X-3257Y792D02*
D01*
Y786D01*
X-3258Y787D01*
X-3258Y788D01*
X-3259Y790D01*
X-3260Y791D01*
X-3261Y791D01*
X-3263Y792D01*
X-3378D01*
X-3379Y791D01*
X-3380Y791D01*
X-3382Y790D01*
X-3382Y789D01*
X-3383Y787D01*
X-3383Y785D01*
Y785D01*
X-3383Y784D01*
X-3383Y783D01*
X-3383Y782D01*
X-3382Y781D01*
X-3381Y780D01*
X-3379Y779D01*
X-3377Y779D01*
X-3276D01*
X-3294Y763D01*
X-3294Y763D01*
X-3295Y762D01*
X-3295Y761D01*
X-3296Y759D01*
Y759D01*
X-3296Y758D01*
X-3295Y756D01*
X-3294Y755D01*
X-3294Y754D01*
X-3293Y754D01*
X-3291Y753D01*
X-3290Y753D01*
X-3383D01*
X-3257D01*
Y792D01*
D02*
G37*
G36*
X-3257Y740D02*
D01*
Y706D01*
X-3257Y707D01*
Y708D01*
X-3258Y709D01*
X-3258Y713D01*
X-3259Y716D01*
X-3261Y720D01*
X-3262Y722D01*
X-3263Y724D01*
X-3265Y726D01*
X-3266Y728D01*
X-3267Y729D01*
X-3267Y729D01*
X-3267Y730D01*
X-3268Y730D01*
X-3269Y731D01*
X-3270Y732D01*
X-3273Y734D01*
X-3276Y736D01*
X-3280Y738D01*
X-3282Y738D01*
X-3284Y739D01*
X-3287Y739D01*
X-3289Y740D01*
X-3291D01*
X-3293Y739D01*
X-3295Y739D01*
X-3298Y738D01*
X-3301Y737D01*
X-3305Y735D01*
X-3308Y733D01*
X-3371Y690D01*
Y733D01*
X-3372Y734D01*
X-3372Y736D01*
X-3373Y737D01*
X-3374Y738D01*
X-3375Y738D01*
X-3377Y739D01*
X-3377D01*
X-3378D01*
X-3379Y738D01*
X-3380Y738D01*
X-3382Y737D01*
X-3382Y736D01*
X-3383Y734D01*
X-3383Y732D01*
Y680D01*
X-3383Y679D01*
X-3383Y678D01*
X-3383Y677D01*
X-3382Y676D01*
X-3381Y675D01*
X-3379Y674D01*
X-3377Y674D01*
X-3383D01*
X-3377D01*
X-3376Y674D01*
X-3375Y674D01*
X-3374Y675D01*
X-3301Y723D01*
X-3301Y723D01*
X-3300Y723D01*
X-3299Y724D01*
X-3297Y725D01*
X-3295Y726D01*
X-3293Y726D01*
X-3291Y727D01*
X-3289Y727D01*
X-3289D01*
X-3289D01*
X-3288Y727D01*
X-3286Y726D01*
X-3284Y726D01*
X-3282Y725D01*
X-3280Y724D01*
X-3278Y722D01*
X-3275Y720D01*
X-3275Y720D01*
X-3274Y719D01*
X-3273Y718D01*
X-3272Y716D01*
X-3271Y713D01*
X-3270Y711D01*
X-3270Y708D01*
X-3270Y705D01*
Y704D01*
X-3270Y703D01*
X-3270Y701D01*
X-3271Y698D01*
X-3272Y697D01*
X-3273Y696D01*
X-3274Y694D01*
X-3275Y693D01*
X-3277Y691D01*
X-3279Y690D01*
X-3281Y688D01*
X-3283Y687D01*
X-3284D01*
X-3284Y687D01*
X-3285Y686D01*
X-3286Y685D01*
X-3287Y684D01*
X-3287Y683D01*
X-3287Y682D01*
Y681D01*
X-3287Y681D01*
X-3287Y680D01*
X-3287Y678D01*
X-3286Y677D01*
X-3285Y676D01*
X-3283Y676D01*
X-3281Y675D01*
X-3281D01*
X-3280D01*
X-3279Y676D01*
X-3279Y676D01*
X-3278Y676D01*
X-3277Y677D01*
X-3276Y677D01*
X-3274Y678D01*
X-3272Y679D01*
X-3270Y681D01*
X-3268Y682D01*
X-3266Y684D01*
X-3264Y686D01*
X-3262Y688D01*
X-3261Y691D01*
X-3259Y694D01*
X-3258Y697D01*
X-3257Y701D01*
X-3257Y705D01*
Y674D01*
D01*
Y740D01*
D02*
G37*
G36*
X-3257Y607D02*
D01*
Y580D01*
X-3258Y581D01*
Y582D01*
X-3258Y583D01*
X-3258Y586D01*
X-3259Y589D01*
X-3261Y592D01*
X-3263Y596D01*
X-3264Y597D01*
X-3266Y599D01*
Y599D01*
X-3266Y599D01*
X-3267Y600D01*
X-3269Y601D01*
X-3271Y603D01*
X-3274Y605D01*
X-3277Y606D01*
X-3281Y607D01*
X-3283Y607D01*
X-3304D01*
X-3305Y607D01*
X-3307Y607D01*
X-3310Y606D01*
X-3313Y605D01*
X-3316Y604D01*
X-3319Y602D01*
X-3321Y600D01*
X-3322Y599D01*
X-3323Y599D01*
X-3324Y597D01*
X-3325Y596D01*
X-3327Y593D01*
X-3328Y590D01*
X-3329Y587D01*
X-3330Y583D01*
X-3330Y581D01*
X-3331Y579D01*
Y554D01*
X-3377D01*
X-3377D01*
X-3378D01*
X-3379Y554D01*
X-3380Y554D01*
X-3382Y553D01*
X-3382Y552D01*
X-3383Y550D01*
X-3383Y548D01*
Y548D01*
X-3383Y547D01*
X-3383Y546D01*
X-3383Y545D01*
X-3382Y544D01*
X-3381Y543D01*
X-3379Y542D01*
X-3377Y542D01*
X-3383D01*
X-3257D01*
Y607D01*
D02*
G37*
G36*
Y528D02*
D01*
Y501D01*
X-3258Y502D01*
Y503D01*
X-3258Y504D01*
X-3258Y507D01*
X-3259Y510D01*
X-3261Y513D01*
X-3263Y516D01*
X-3264Y518D01*
X-3266Y520D01*
Y520D01*
X-3266Y520D01*
X-3267Y521D01*
X-3269Y522D01*
X-3271Y524D01*
X-3274Y526D01*
X-3277Y527D01*
X-3281Y528D01*
X-3283Y528D01*
X-3357D01*
X-3357Y528D01*
X-3360Y528D01*
X-3362Y527D01*
X-3365Y526D01*
X-3369Y525D01*
X-3372Y523D01*
X-3374Y521D01*
X-3375Y520D01*
X-3376Y519D01*
X-3377Y518D01*
X-3378Y516D01*
X-3379Y514D01*
X-3381Y511D01*
X-3382Y508D01*
X-3383Y504D01*
X-3383Y502D01*
X-3383Y500D01*
Y490D01*
X-3383Y489D01*
Y488D01*
X-3383Y487D01*
X-3382Y484D01*
X-3381Y481D01*
X-3380Y478D01*
X-3378Y474D01*
X-3377Y473D01*
X-3375Y471D01*
X-3375D01*
X-3375Y471D01*
X-3374Y470D01*
X-3372Y469D01*
X-3370Y467D01*
X-3367Y466D01*
X-3363Y464D01*
X-3360Y463D01*
X-3358Y463D01*
X-3355Y463D01*
X-3257D01*
Y528D01*
D02*
G37*
G36*
Y449D02*
D01*
Y444D01*
X-3258Y445D01*
X-3258Y446D01*
X-3259Y447D01*
X-3260Y448D01*
X-3261Y449D01*
X-3263Y449D01*
X-3264D01*
X-3265Y449D01*
X-3266Y448D01*
X-3268Y447D01*
X-3269Y446D01*
X-3269Y445D01*
X-3270Y443D01*
Y423D01*
X-3377D01*
X-3377D01*
X-3378D01*
X-3379Y422D01*
X-3380Y422D01*
X-3382Y421D01*
X-3382Y420D01*
X-3383Y418D01*
X-3383Y416D01*
Y416D01*
X-3383Y415D01*
X-3383Y414D01*
X-3383Y413D01*
X-3382Y412D01*
X-3381Y411D01*
X-3379Y410D01*
X-3377Y410D01*
X-3270D01*
Y390D01*
X-3269Y389D01*
X-3269Y388D01*
X-3269Y387D01*
X-3268Y386D01*
X-3267Y385D01*
X-3265Y384D01*
X-3263Y384D01*
X-3383D01*
X-3257D01*
Y449D01*
D02*
G37*
G36*
Y370D02*
D01*
Y343D01*
X-3258Y344D01*
Y345D01*
X-3258Y346D01*
X-3258Y349D01*
X-3259Y352D01*
X-3261Y355D01*
X-3263Y358D01*
X-3264Y360D01*
X-3266Y362D01*
Y362D01*
X-3266Y362D01*
X-3267Y363D01*
X-3269Y364D01*
X-3271Y366D01*
X-3274Y367D01*
X-3277Y369D01*
X-3281Y370D01*
X-3283Y370D01*
X-3357D01*
X-3357Y370D01*
X-3360Y370D01*
X-3362Y369D01*
X-3365Y368D01*
X-3369Y366D01*
X-3372Y364D01*
X-3374Y363D01*
X-3375Y362D01*
X-3376Y361D01*
X-3377Y360D01*
X-3378Y358D01*
X-3379Y356D01*
X-3381Y353D01*
X-3382Y350D01*
X-3383Y346D01*
X-3383Y344D01*
X-3383Y342D01*
Y332D01*
X-3383Y331D01*
Y330D01*
X-3383Y329D01*
X-3382Y326D01*
X-3381Y323D01*
X-3380Y319D01*
X-3378Y316D01*
X-3377Y314D01*
X-3375Y313D01*
X-3375D01*
X-3375Y313D01*
X-3374Y312D01*
X-3372Y310D01*
X-3370Y309D01*
X-3367Y307D01*
X-3363Y306D01*
X-3360Y305D01*
X-3358Y305D01*
X-3355Y305D01*
X-3257D01*
Y370D01*
D02*
G37*
G36*
X-3257Y291D02*
D01*
Y285D01*
X-3257Y286D01*
X-3257Y287D01*
X-3258Y288D01*
X-3258Y289D01*
X-3260Y290D01*
X-3261Y291D01*
X-3263Y291D01*
X-3378D01*
X-3379Y290D01*
X-3380Y290D01*
X-3382Y289D01*
X-3382Y288D01*
X-3383Y287D01*
X-3383Y284D01*
Y284D01*
X-3383Y284D01*
X-3383Y283D01*
X-3383Y282D01*
X-3382Y280D01*
X-3381Y279D01*
X-3379Y279D01*
X-3377Y278D01*
X-3281D01*
X-3324Y255D01*
X-3324Y255D01*
X-3324Y254D01*
X-3325Y253D01*
X-3327Y252D01*
X-3327Y251D01*
X-3327Y249D01*
Y249D01*
X-3327Y248D01*
X-3327Y248D01*
X-3326Y247D01*
X-3326Y246D01*
X-3325Y245D01*
X-3324Y244D01*
X-3281Y221D01*
X-3377D01*
X-3377D01*
X-3378D01*
X-3379Y220D01*
X-3380Y220D01*
X-3382Y219D01*
X-3382Y218D01*
X-3383Y217D01*
X-3383Y214D01*
Y214D01*
X-3383Y214D01*
X-3383Y213D01*
X-3383Y212D01*
X-3382Y210D01*
X-3381Y209D01*
X-3379Y209D01*
X-3377Y208D01*
X-3383D01*
D01*
X-3257D01*
Y291D01*
D02*
G37*
G36*
X-3289Y-195D02*
X-3291D01*
X-3293Y-195D01*
X-3295Y-196D01*
X-3298Y-196D01*
X-3301Y-197D01*
X-3305Y-199D01*
X-3308Y-201D01*
X-3371Y-244D01*
Y-201D01*
X-3372Y-200D01*
X-3372Y-199D01*
X-3373Y-198D01*
X-3374Y-197D01*
X-3375Y-196D01*
X-3377Y-196D01*
X-3377D01*
X-3378D01*
X-3379Y-196D01*
X-3380Y-197D01*
X-3382Y-197D01*
X-3382Y-198D01*
X-3383Y-200D01*
X-3383Y-202D01*
Y-195D01*
D01*
Y-260D01*
D01*
Y-254D01*
X-3383Y-255D01*
X-3383Y-256D01*
X-3383Y-257D01*
X-3382Y-259D01*
X-3381Y-259D01*
X-3379Y-260D01*
X-3377Y-260D01*
X-3383D01*
X-3377D01*
X-3376Y-260D01*
X-3375Y-260D01*
X-3374Y-260D01*
X-3301Y-212D01*
X-3301Y-212D01*
X-3300Y-211D01*
X-3299Y-210D01*
X-3297Y-210D01*
X-3295Y-209D01*
X-3293Y-208D01*
X-3291Y-208D01*
X-3289Y-208D01*
X-3289D01*
X-3289D01*
X-3288Y-208D01*
X-3286Y-208D01*
X-3284Y-209D01*
X-3282Y-209D01*
X-3280Y-211D01*
X-3278Y-212D01*
X-3275Y-214D01*
X-3275Y-215D01*
X-3274Y-216D01*
X-3273Y-217D01*
X-3272Y-219D01*
X-3271Y-221D01*
X-3270Y-223D01*
X-3270Y-226D01*
X-3270Y-229D01*
Y-230D01*
X-3270Y-231D01*
X-3270Y-233D01*
X-3271Y-236D01*
X-3272Y-237D01*
X-3273Y-239D01*
X-3274Y-240D01*
X-3275Y-242D01*
X-3277Y-243D01*
X-3279Y-245D01*
X-3281Y-246D01*
X-3283Y-247D01*
X-3284D01*
X-3284Y-247D01*
X-3285Y-249D01*
X-3286Y-249D01*
X-3287Y-250D01*
X-3287Y-252D01*
X-3287Y-253D01*
Y-253D01*
X-3287Y-254D01*
X-3287Y-255D01*
X-3287Y-256D01*
X-3286Y-257D01*
X-3285Y-258D01*
X-3283Y-259D01*
X-3281Y-259D01*
X-3281D01*
X-3280D01*
X-3279Y-259D01*
X-3279Y-259D01*
X-3278Y-258D01*
X-3277Y-258D01*
X-3276Y-257D01*
X-3274Y-256D01*
X-3272Y-255D01*
X-3270Y-254D01*
X-3268Y-252D01*
X-3266Y-250D01*
X-3264Y-248D01*
X-3262Y-246D01*
X-3261Y-243D01*
X-3259Y-240D01*
X-3258Y-237D01*
X-3257Y-234D01*
X-3257Y-230D01*
Y-229D01*
X-3257Y-228D01*
Y-226D01*
X-3258Y-225D01*
X-3258Y-222D01*
X-3259Y-218D01*
X-3261Y-214D01*
X-3262Y-212D01*
X-3263Y-210D01*
X-3265Y-208D01*
X-3266Y-206D01*
X-3267Y-206D01*
X-3267Y-205D01*
X-3267Y-205D01*
X-3268Y-204D01*
X-3269Y-203D01*
X-3270Y-202D01*
X-3273Y-200D01*
X-3276Y-198D01*
X-3280Y-197D01*
X-3282Y-196D01*
X-3284Y-195D01*
X-3287Y-195D01*
X-3289Y-195D01*
D02*
G37*
G36*
Y-274D02*
X-3291D01*
X-3293Y-274D01*
X-3295Y-275D01*
X-3298Y-275D01*
X-3301Y-277D01*
X-3305Y-278D01*
X-3308Y-280D01*
X-3371Y-323D01*
Y-280D01*
X-3372Y-279D01*
X-3372Y-278D01*
X-3373Y-277D01*
X-3374Y-276D01*
X-3375Y-275D01*
X-3377Y-275D01*
X-3377D01*
X-3378D01*
X-3379Y-275D01*
X-3380Y-276D01*
X-3382Y-276D01*
X-3382Y-277D01*
X-3383Y-279D01*
X-3383Y-281D01*
Y-274D01*
D01*
Y-339D01*
D01*
Y-334D01*
X-3383Y-334D01*
X-3383Y-335D01*
X-3383Y-336D01*
X-3382Y-338D01*
X-3381Y-339D01*
X-3379Y-339D01*
X-3377Y-339D01*
X-3383D01*
X-3377D01*
X-3376Y-339D01*
X-3375Y-339D01*
X-3374Y-339D01*
X-3301Y-291D01*
X-3301Y-291D01*
X-3300Y-290D01*
X-3299Y-289D01*
X-3297Y-289D01*
X-3295Y-288D01*
X-3293Y-287D01*
X-3291Y-287D01*
X-3289Y-287D01*
X-3289D01*
X-3289D01*
X-3288Y-287D01*
X-3286Y-287D01*
X-3284Y-288D01*
X-3282Y-288D01*
X-3280Y-290D01*
X-3278Y-291D01*
X-3275Y-294D01*
X-3275Y-294D01*
X-3274Y-295D01*
X-3273Y-296D01*
X-3272Y-298D01*
X-3271Y-300D01*
X-3270Y-302D01*
X-3270Y-305D01*
X-3270Y-308D01*
Y-309D01*
X-3270Y-310D01*
X-3270Y-312D01*
X-3271Y-315D01*
X-3272Y-317D01*
X-3273Y-318D01*
X-3274Y-319D01*
X-3275Y-321D01*
X-3277Y-322D01*
X-3279Y-324D01*
X-3281Y-325D01*
X-3283Y-326D01*
X-3284D01*
X-3284Y-326D01*
X-3285Y-328D01*
X-3286Y-328D01*
X-3287Y-329D01*
X-3287Y-331D01*
X-3287Y-332D01*
Y-332D01*
X-3287Y-333D01*
X-3287Y-334D01*
X-3287Y-335D01*
X-3286Y-336D01*
X-3285Y-337D01*
X-3283Y-338D01*
X-3281Y-338D01*
X-3281D01*
X-3280D01*
X-3279Y-338D01*
X-3279Y-338D01*
X-3278Y-337D01*
X-3277Y-337D01*
X-3276Y-336D01*
X-3274Y-335D01*
X-3272Y-334D01*
X-3270Y-333D01*
X-3268Y-331D01*
X-3266Y-329D01*
X-3264Y-327D01*
X-3262Y-325D01*
X-3261Y-322D01*
X-3259Y-319D01*
X-3258Y-316D01*
X-3257Y-313D01*
X-3257Y-309D01*
Y-308D01*
X-3257Y-307D01*
Y-305D01*
X-3258Y-304D01*
X-3258Y-301D01*
X-3259Y-297D01*
X-3261Y-293D01*
X-3262Y-291D01*
X-3263Y-289D01*
X-3265Y-287D01*
X-3266Y-285D01*
X-3267Y-285D01*
X-3267Y-284D01*
X-3267Y-284D01*
X-3268Y-283D01*
X-3269Y-282D01*
X-3270Y-282D01*
X-3273Y-279D01*
X-3276Y-277D01*
X-3280Y-276D01*
X-3282Y-275D01*
X-3284Y-274D01*
X-3287Y-274D01*
X-3289Y-274D01*
D02*
G37*
G36*
X-3283Y-406D02*
X-3304D01*
X-3305Y-406D01*
X-3307Y-407D01*
X-3310Y-407D01*
X-3313Y-408D01*
X-3316Y-410D01*
X-3319Y-412D01*
X-3321Y-413D01*
X-3322Y-415D01*
X-3323Y-415D01*
X-3324Y-416D01*
X-3325Y-418D01*
X-3327Y-420D01*
X-3328Y-423D01*
X-3329Y-427D01*
X-3330Y-430D01*
X-3330Y-432D01*
X-3331Y-435D01*
Y-459D01*
X-3377D01*
X-3377D01*
X-3378D01*
X-3379Y-459D01*
X-3380Y-460D01*
X-3382Y-461D01*
X-3382Y-462D01*
X-3383Y-463D01*
X-3383Y-465D01*
Y-406D01*
D01*
Y-471D01*
D01*
Y-466D01*
X-3383Y-466D01*
X-3383Y-467D01*
X-3383Y-468D01*
X-3382Y-470D01*
X-3381Y-471D01*
X-3379Y-471D01*
X-3377Y-471D01*
X-3383D01*
X-3257D01*
D01*
X-3263D01*
X-3263Y-471D01*
X-3262Y-471D01*
X-3260Y-471D01*
X-3259Y-470D01*
X-3258Y-469D01*
X-3258Y-467D01*
X-3257Y-465D01*
Y-434D01*
X-3258Y-433D01*
Y-432D01*
X-3258Y-431D01*
X-3258Y-428D01*
X-3259Y-425D01*
X-3261Y-421D01*
X-3263Y-418D01*
X-3264Y-416D01*
X-3266Y-415D01*
Y-414D01*
X-3266Y-414D01*
X-3267Y-413D01*
X-3269Y-412D01*
X-3271Y-410D01*
X-3274Y-409D01*
X-3277Y-408D01*
X-3281Y-407D01*
X-3283Y-406D01*
D02*
G37*
G36*
Y-485D02*
X-3357D01*
X-3357Y-486D01*
X-3360Y-486D01*
X-3362Y-486D01*
X-3365Y-487D01*
X-3369Y-489D01*
X-3372Y-491D01*
X-3374Y-492D01*
X-3375Y-494D01*
X-3376Y-494D01*
X-3377Y-495D01*
X-3378Y-497D01*
X-3379Y-499D01*
X-3381Y-502D01*
X-3382Y-506D01*
X-3383Y-509D01*
X-3383Y-511D01*
X-3383Y-514D01*
Y-485D01*
D01*
Y-551D01*
D01*
Y-524D01*
X-3383Y-524D01*
Y-525D01*
X-3383Y-527D01*
X-3382Y-529D01*
X-3381Y-532D01*
X-3380Y-536D01*
X-3378Y-539D01*
X-3377Y-541D01*
X-3375Y-542D01*
X-3375D01*
X-3375Y-543D01*
X-3374Y-544D01*
X-3372Y-545D01*
X-3370Y-546D01*
X-3367Y-548D01*
X-3363Y-549D01*
X-3360Y-550D01*
X-3358Y-550D01*
X-3355Y-551D01*
X-3257D01*
D01*
X-3284D01*
X-3283Y-550D01*
X-3281Y-550D01*
X-3278Y-549D01*
X-3275Y-549D01*
X-3272Y-547D01*
X-3269Y-545D01*
X-3267Y-544D01*
X-3266Y-542D01*
X-3265Y-542D01*
X-3265Y-542D01*
X-3264Y-541D01*
X-3263Y-539D01*
X-3261Y-537D01*
X-3260Y-534D01*
X-3259Y-531D01*
X-3258Y-527D01*
X-3257Y-525D01*
Y-513D01*
X-3258Y-512D01*
Y-511D01*
X-3258Y-510D01*
X-3258Y-507D01*
X-3259Y-504D01*
X-3261Y-500D01*
X-3263Y-497D01*
X-3264Y-495D01*
X-3266Y-494D01*
Y-494D01*
X-3266Y-493D01*
X-3267Y-492D01*
X-3269Y-491D01*
X-3271Y-489D01*
X-3274Y-488D01*
X-3277Y-487D01*
X-3281Y-486D01*
X-3283Y-485D01*
D02*
G37*
G36*
X-3263Y-565D02*
X-3264D01*
X-3265Y-565D01*
X-3266Y-565D01*
X-3268Y-566D01*
X-3269Y-567D01*
X-3269Y-569D01*
X-3270Y-571D01*
Y-591D01*
X-3377D01*
X-3377D01*
X-3378D01*
X-3379Y-591D01*
X-3380Y-592D01*
X-3382Y-592D01*
X-3382Y-594D01*
X-3383Y-595D01*
X-3383Y-597D01*
Y-565D01*
D01*
Y-630D01*
D01*
Y-597D01*
X-3383Y-598D01*
X-3383Y-599D01*
X-3383Y-600D01*
X-3382Y-601D01*
X-3381Y-602D01*
X-3379Y-603D01*
X-3377Y-603D01*
X-3270D01*
Y-624D01*
X-3269Y-624D01*
X-3269Y-625D01*
X-3269Y-626D01*
X-3268Y-628D01*
X-3267Y-629D01*
X-3265Y-629D01*
X-3263Y-630D01*
X-3383D01*
X-3257D01*
D01*
X-3263D01*
X-3263Y-629D01*
X-3262Y-629D01*
X-3260Y-629D01*
X-3259Y-628D01*
X-3258Y-627D01*
X-3258Y-626D01*
X-3257Y-624D01*
Y-570D01*
X-3258Y-569D01*
X-3258Y-568D01*
X-3259Y-567D01*
X-3260Y-566D01*
X-3261Y-565D01*
X-3263Y-565D01*
D02*
G37*
G36*
X-3283Y-644D02*
X-3357D01*
X-3357Y-644D01*
X-3360Y-644D01*
X-3362Y-645D01*
X-3365Y-646D01*
X-3369Y-647D01*
X-3372Y-649D01*
X-3374Y-650D01*
X-3375Y-652D01*
X-3376Y-652D01*
X-3377Y-653D01*
X-3378Y-655D01*
X-3379Y-657D01*
X-3381Y-660D01*
X-3382Y-664D01*
X-3383Y-668D01*
X-3383Y-670D01*
X-3383Y-672D01*
Y-644D01*
D01*
Y-709D01*
D01*
Y-682D01*
X-3383Y-683D01*
Y-684D01*
X-3383Y-685D01*
X-3382Y-687D01*
X-3381Y-691D01*
X-3380Y-694D01*
X-3378Y-697D01*
X-3377Y-699D01*
X-3375Y-701D01*
X-3375D01*
X-3375Y-701D01*
X-3374Y-702D01*
X-3372Y-703D01*
X-3370Y-705D01*
X-3367Y-706D01*
X-3363Y-707D01*
X-3360Y-708D01*
X-3358Y-708D01*
X-3355Y-709D01*
X-3257D01*
D01*
X-3284D01*
X-3283Y-708D01*
X-3281Y-708D01*
X-3278Y-708D01*
X-3275Y-707D01*
X-3272Y-705D01*
X-3269Y-703D01*
X-3267Y-702D01*
X-3266Y-701D01*
X-3265Y-700D01*
X-3265Y-700D01*
X-3264Y-699D01*
X-3263Y-697D01*
X-3261Y-695D01*
X-3260Y-692D01*
X-3259Y-689D01*
X-3258Y-685D01*
X-3257Y-683D01*
Y-671D01*
X-3258Y-670D01*
Y-669D01*
X-3258Y-668D01*
X-3258Y-665D01*
X-3259Y-662D01*
X-3261Y-659D01*
X-3263Y-655D01*
X-3264Y-654D01*
X-3266Y-652D01*
Y-652D01*
X-3266Y-651D01*
X-3267Y-651D01*
X-3269Y-649D01*
X-3271Y-648D01*
X-3274Y-646D01*
X-3277Y-645D01*
X-3281Y-644D01*
X-3283Y-644D01*
D02*
G37*
G36*
X-3263Y-723D02*
X-3378D01*
X-3379Y-723D01*
X-3380Y-723D01*
X-3382Y-724D01*
X-3382Y-725D01*
X-3383Y-727D01*
X-3383Y-729D01*
Y-805D01*
X-3257D01*
X-3263D01*
X-3262Y-805D01*
X-3261Y-805D01*
X-3260Y-804D01*
X-3259Y-804D01*
X-3258Y-803D01*
X-3257Y-801D01*
X-3257Y-799D01*
Y-799D01*
X-3257Y-798D01*
X-3257Y-797D01*
X-3258Y-796D01*
X-3258Y-796D01*
X-3259Y-795D01*
X-3260Y-794D01*
X-3310Y-764D01*
X-3260Y-734D01*
X-3260Y-734D01*
X-3260Y-734D01*
X-3259Y-733D01*
X-3258Y-733D01*
X-3257Y-731D01*
X-3257Y-730D01*
X-3257Y-729D01*
Y-795D01*
Y-729D01*
Y-728D01*
X-3257Y-728D01*
X-3257Y-727D01*
X-3258Y-726D01*
X-3258Y-725D01*
X-3260Y-724D01*
X-3261Y-723D01*
X-3263Y-723D01*
D02*
G37*
%LPD*%
G36*
X-3257Y753D02*
X-3289D01*
X-3288Y753D01*
X-3287Y753D01*
X-3286Y754D01*
X-3259Y781D01*
X-3259Y781D01*
X-3258Y782D01*
X-3258Y783D01*
X-3257Y785D01*
Y753D01*
D02*
G37*
G36*
X-3283Y595D02*
X-3281Y594D01*
X-3280Y594D01*
X-3278Y593D01*
X-3276Y592D01*
X-3274Y590D01*
X-3274Y590D01*
X-3273Y589D01*
X-3273Y588D01*
X-3272Y587D01*
X-3271Y585D01*
X-3270Y583D01*
X-3270Y581D01*
X-3270Y579D01*
Y554D01*
X-3318D01*
Y580D01*
X-3318Y581D01*
X-3318Y583D01*
X-3317Y584D01*
X-3317Y586D01*
X-3315Y588D01*
X-3314Y590D01*
X-3314Y590D01*
X-3313Y591D01*
X-3312Y591D01*
X-3311Y592D01*
X-3309Y593D01*
X-3307Y594D01*
X-3305Y595D01*
X-3303Y595D01*
X-3285D01*
X-3285D01*
X-3284D01*
X-3283Y595D01*
D02*
G37*
G36*
X-3257Y542D02*
X-3263D01*
X-3263Y542D01*
X-3262Y542D01*
X-3260Y543D01*
X-3259Y544D01*
X-3258Y545D01*
X-3258Y546D01*
X-3257Y548D01*
Y542D01*
D02*
G37*
G36*
X-3283Y516D02*
X-3281Y515D01*
X-3280Y515D01*
X-3278Y514D01*
X-3276Y513D01*
X-3274Y511D01*
X-3274Y511D01*
X-3273Y510D01*
X-3273Y509D01*
X-3272Y508D01*
X-3271Y506D01*
X-3270Y504D01*
X-3270Y502D01*
X-3270Y500D01*
Y490D01*
X-3270Y489D01*
X-3270Y487D01*
X-3271Y486D01*
X-3272Y484D01*
X-3273Y482D01*
X-3274Y480D01*
X-3275Y480D01*
X-3275Y479D01*
X-3276Y479D01*
X-3278Y478D01*
X-3279Y477D01*
X-3281Y476D01*
X-3283Y476D01*
X-3285Y475D01*
X-3355D01*
X-3356D01*
X-3357D01*
X-3358Y476D01*
X-3359Y476D01*
X-3361Y476D01*
X-3363Y477D01*
X-3365Y479D01*
X-3367Y480D01*
X-3367Y480D01*
X-3367Y481D01*
X-3368Y482D01*
X-3369Y483D01*
X-3370Y485D01*
X-3370Y487D01*
X-3371Y489D01*
X-3371Y491D01*
Y501D01*
X-3371Y502D01*
X-3371Y504D01*
X-3370Y505D01*
X-3369Y507D01*
X-3368Y509D01*
X-3367Y511D01*
X-3367Y511D01*
X-3366Y512D01*
X-3365Y512D01*
X-3364Y513D01*
X-3362Y514D01*
X-3360Y515D01*
X-3358Y516D01*
X-3355Y516D01*
X-3285D01*
X-3285D01*
X-3284D01*
X-3283Y516D01*
D02*
G37*
G36*
X-3257Y463D02*
X-3284D01*
X-3283Y463D01*
X-3281Y463D01*
X-3278Y464D01*
X-3275Y465D01*
X-3272Y466D01*
X-3269Y469D01*
X-3267Y470D01*
X-3266Y471D01*
X-3265Y471D01*
X-3265Y471D01*
X-3264Y473D01*
X-3263Y474D01*
X-3261Y477D01*
X-3260Y480D01*
X-3259Y483D01*
X-3258Y487D01*
X-3257Y489D01*
Y463D01*
D02*
G37*
G36*
Y384D02*
X-3263D01*
X-3263Y384D01*
X-3262Y384D01*
X-3260Y385D01*
X-3259Y385D01*
X-3258Y386D01*
X-3258Y388D01*
X-3257Y390D01*
Y384D01*
D02*
G37*
G36*
X-3283Y357D02*
X-3281Y357D01*
X-3280Y356D01*
X-3278Y356D01*
X-3276Y354D01*
X-3274Y353D01*
X-3274Y353D01*
X-3273Y352D01*
X-3273Y351D01*
X-3272Y350D01*
X-3271Y348D01*
X-3270Y346D01*
X-3270Y344D01*
X-3270Y342D01*
Y332D01*
X-3270Y331D01*
X-3270Y329D01*
X-3271Y327D01*
X-3272Y326D01*
X-3273Y324D01*
X-3274Y322D01*
X-3275Y322D01*
X-3275Y321D01*
X-3276Y320D01*
X-3278Y320D01*
X-3279Y319D01*
X-3281Y318D01*
X-3283Y317D01*
X-3285Y317D01*
X-3355D01*
X-3356D01*
X-3357D01*
X-3358Y317D01*
X-3359Y318D01*
X-3361Y318D01*
X-3363Y319D01*
X-3365Y320D01*
X-3367Y322D01*
X-3367Y322D01*
X-3367Y323D01*
X-3368Y324D01*
X-3369Y325D01*
X-3370Y327D01*
X-3370Y329D01*
X-3371Y331D01*
X-3371Y333D01*
Y343D01*
X-3371Y344D01*
X-3371Y346D01*
X-3370Y347D01*
X-3369Y349D01*
X-3368Y351D01*
X-3367Y353D01*
X-3367Y353D01*
X-3366Y354D01*
X-3365Y354D01*
X-3364Y355D01*
X-3362Y356D01*
X-3360Y357D01*
X-3358Y357D01*
X-3355Y358D01*
X-3285D01*
X-3285D01*
X-3284D01*
X-3283Y357D01*
D02*
G37*
G36*
X-3257Y305D02*
X-3284D01*
X-3283Y305D01*
X-3281Y305D01*
X-3278Y306D01*
X-3275Y307D01*
X-3272Y308D01*
X-3269Y310D01*
X-3267Y312D01*
X-3266Y313D01*
X-3265Y313D01*
X-3265Y313D01*
X-3264Y314D01*
X-3263Y316D01*
X-3261Y319D01*
X-3260Y321D01*
X-3259Y325D01*
X-3258Y329D01*
X-3257Y331D01*
Y305D01*
D02*
G37*
G36*
X-3257Y215D02*
X-3257Y215D01*
X-3257Y216D01*
X-3258Y217D01*
X-3258Y218D01*
X-3259Y219D01*
X-3260Y220D01*
X-3310Y249D01*
X-3260Y279D01*
X-3260Y279D01*
X-3260Y279D01*
X-3259Y280D01*
X-3258Y281D01*
X-3257Y282D01*
X-3257Y284D01*
X-3257Y285D01*
Y215D01*
D02*
G37*
G36*
Y208D02*
X-3263D01*
X-3262Y209D01*
X-3261Y209D01*
X-3260Y209D01*
X-3259Y210D01*
X-3258Y211D01*
X-3257Y212D01*
X-3257Y214D01*
Y208D01*
D02*
G37*
G36*
X-3283Y-419D02*
X-3281Y-419D01*
X-3280Y-420D01*
X-3278Y-421D01*
X-3276Y-422D01*
X-3274Y-424D01*
X-3274Y-424D01*
X-3273Y-424D01*
X-3273Y-425D01*
X-3272Y-427D01*
X-3271Y-428D01*
X-3270Y-430D01*
X-3270Y-432D01*
X-3270Y-435D01*
Y-459D01*
X-3318D01*
Y-434D01*
X-3318Y-432D01*
X-3318Y-431D01*
X-3317Y-429D01*
X-3317Y-427D01*
X-3315Y-425D01*
X-3314Y-424D01*
X-3314Y-423D01*
X-3313Y-423D01*
X-3312Y-422D01*
X-3311Y-421D01*
X-3309Y-420D01*
X-3307Y-419D01*
X-3305Y-419D01*
X-3303Y-419D01*
X-3285D01*
X-3285D01*
X-3284D01*
X-3283Y-419D01*
D02*
G37*
G36*
Y-498D02*
X-3281Y-498D01*
X-3280Y-499D01*
X-3278Y-500D01*
X-3276Y-501D01*
X-3274Y-503D01*
X-3274Y-503D01*
X-3273Y-503D01*
X-3273Y-504D01*
X-3272Y-506D01*
X-3271Y-507D01*
X-3270Y-509D01*
X-3270Y-511D01*
X-3270Y-514D01*
Y-524D01*
X-3270Y-525D01*
X-3270Y-526D01*
X-3271Y-528D01*
X-3272Y-530D01*
X-3273Y-532D01*
X-3274Y-534D01*
X-3275Y-534D01*
X-3275Y-534D01*
X-3276Y-535D01*
X-3278Y-536D01*
X-3279Y-537D01*
X-3281Y-537D01*
X-3283Y-538D01*
X-3285Y-538D01*
X-3355D01*
X-3356D01*
X-3357D01*
X-3358Y-538D01*
X-3359Y-538D01*
X-3361Y-537D01*
X-3363Y-536D01*
X-3365Y-535D01*
X-3367Y-534D01*
X-3367Y-533D01*
X-3367Y-533D01*
X-3368Y-532D01*
X-3369Y-530D01*
X-3370Y-529D01*
X-3370Y-527D01*
X-3371Y-525D01*
X-3371Y-522D01*
Y-513D01*
X-3371Y-511D01*
X-3371Y-510D01*
X-3370Y-508D01*
X-3369Y-506D01*
X-3368Y-504D01*
X-3367Y-503D01*
X-3367Y-502D01*
X-3366Y-502D01*
X-3365Y-501D01*
X-3364Y-500D01*
X-3362Y-499D01*
X-3360Y-499D01*
X-3358Y-498D01*
X-3355Y-498D01*
X-3285D01*
X-3285D01*
X-3284D01*
X-3283Y-498D01*
D02*
G37*
G36*
Y-656D02*
X-3281Y-656D01*
X-3280Y-657D01*
X-3278Y-658D01*
X-3276Y-659D01*
X-3274Y-661D01*
X-3274Y-661D01*
X-3273Y-661D01*
X-3273Y-663D01*
X-3272Y-664D01*
X-3271Y-666D01*
X-3270Y-667D01*
X-3270Y-669D01*
X-3270Y-672D01*
Y-682D01*
X-3270Y-683D01*
X-3270Y-684D01*
X-3271Y-686D01*
X-3272Y-688D01*
X-3273Y-690D01*
X-3274Y-692D01*
X-3275Y-692D01*
X-3275Y-692D01*
X-3276Y-693D01*
X-3278Y-694D01*
X-3279Y-695D01*
X-3281Y-696D01*
X-3283Y-696D01*
X-3285Y-696D01*
X-3355D01*
X-3356D01*
X-3357D01*
X-3358Y-696D01*
X-3359Y-696D01*
X-3361Y-695D01*
X-3363Y-694D01*
X-3365Y-693D01*
X-3367Y-692D01*
X-3367Y-691D01*
X-3367Y-691D01*
X-3368Y-690D01*
X-3369Y-688D01*
X-3370Y-687D01*
X-3370Y-685D01*
X-3371Y-683D01*
X-3371Y-681D01*
Y-671D01*
X-3371Y-670D01*
X-3371Y-668D01*
X-3370Y-666D01*
X-3369Y-664D01*
X-3368Y-663D01*
X-3367Y-661D01*
X-3367Y-661D01*
X-3366Y-660D01*
X-3365Y-659D01*
X-3364Y-658D01*
X-3362Y-657D01*
X-3360Y-657D01*
X-3358Y-656D01*
X-3355Y-656D01*
X-3285D01*
X-3285D01*
X-3284D01*
X-3283Y-656D01*
D02*
G37*
G36*
X-3383Y-730D02*
X-3383Y-731D01*
X-3383Y-732D01*
X-3382Y-733D01*
X-3381Y-734D01*
X-3379Y-735D01*
X-3377Y-735D01*
X-3281D01*
X-3324Y-759D01*
X-3324Y-759D01*
X-3324Y-759D01*
X-3325Y-760D01*
X-3327Y-762D01*
X-3327Y-763D01*
X-3327Y-764D01*
Y-765D01*
X-3327Y-765D01*
X-3327Y-766D01*
X-3326Y-767D01*
X-3326Y-768D01*
X-3325Y-768D01*
X-3324Y-769D01*
X-3281Y-793D01*
X-3377D01*
X-3377D01*
X-3378D01*
X-3379Y-793D01*
X-3380Y-793D01*
X-3382Y-794D01*
X-3382Y-795D01*
X-3383Y-797D01*
X-3383Y-799D01*
Y-729D01*
X-3383Y-730D01*
D02*
G37*
G36*
Y-800D02*
X-3383Y-801D01*
X-3383Y-802D01*
X-3382Y-803D01*
X-3381Y-804D01*
X-3379Y-805D01*
X-3377Y-805D01*
X-3383D01*
Y-799D01*
X-3383Y-800D01*
D02*
G37*
%LPC*%
G36*
X261Y1142D02*
X222D01*
X249D01*
X248Y1142D01*
X247D01*
X246Y1142D01*
X243Y1141D01*
X240Y1140D01*
X237Y1139D01*
X233Y1137D01*
X232Y1135D01*
X230Y1134D01*
X230D01*
X230Y1134D01*
X229Y1132D01*
X228Y1131D01*
X226Y1128D01*
X224Y1126D01*
X223Y1122D01*
X222Y1118D01*
X222Y1116D01*
Y1117D01*
Y1116D01*
Y1016D01*
Y1043D01*
X222Y1042D01*
X222Y1040D01*
X223Y1037D01*
X224Y1034D01*
X225Y1031D01*
X227Y1028D01*
X229Y1026D01*
X230Y1024D01*
X231Y1024D01*
X232Y1023D01*
X233Y1022D01*
X236Y1020D01*
X239Y1019D01*
X242Y1018D01*
X246Y1017D01*
X248Y1016D01*
X250Y1016D01*
X287D01*
X260D01*
X261Y1016D01*
X262D01*
X263Y1017D01*
X266Y1017D01*
X269Y1018D01*
X272Y1020D01*
X276Y1022D01*
X277Y1023D01*
X279Y1024D01*
Y1025D01*
X279Y1025D01*
X280Y1026D01*
X281Y1028D01*
X283Y1030D01*
X284Y1033D01*
X286Y1036D01*
X287Y1040D01*
X287Y1042D01*
X287Y1044D01*
Y1115D01*
X287Y1116D01*
X287Y1118D01*
X286Y1121D01*
X285Y1124D01*
X283Y1127D01*
X281Y1131D01*
X280Y1132D01*
X279Y1134D01*
X279Y1134D01*
X278Y1134D01*
X277Y1135D01*
X276Y1137D01*
X273Y1138D01*
X270Y1140D01*
X267Y1141D01*
X263Y1142D01*
X261Y1142D01*
D02*
G37*
G36*
X41D02*
Y1023D01*
X41D01*
X10Y1137D01*
Y1137D01*
X10Y1138D01*
X10Y1139D01*
X9Y1140D01*
X8Y1141D01*
X7Y1142D01*
X6Y1142D01*
X4Y1142D01*
X41D01*
X-32D01*
D01*
X4D01*
X3Y1142D01*
X2Y1142D01*
X1Y1141D01*
X0Y1140D01*
X-1Y1139D01*
X-1Y1137D01*
X-32Y1024D01*
Y1024D01*
X-32Y1023D01*
Y1021D01*
X-32Y1020D01*
X-32Y1019D01*
X-31Y1018D01*
X-30Y1017D01*
X-28Y1016D01*
X-26Y1016D01*
X-25D01*
X-25Y1016D01*
X-24Y1017D01*
X-23Y1017D01*
X-22Y1018D01*
X-21Y1019D01*
X-20Y1021D01*
X-12Y1051D01*
X21D01*
X29Y1021D01*
Y1020D01*
X29Y1020D01*
X30Y1019D01*
X30Y1018D01*
X31Y1018D01*
X32Y1017D01*
X33Y1016D01*
X35Y1016D01*
X35D01*
X36Y1016D01*
X37Y1017D01*
X38Y1017D01*
X39Y1018D01*
X40Y1019D01*
X41Y1020D01*
X41Y1022D01*
Y1142D01*
D02*
G37*
G36*
X-213Y1142D02*
Y1023D01*
X-213D01*
X-244Y1137D01*
Y1137D01*
X-245Y1138D01*
X-245Y1139D01*
X-246Y1140D01*
X-246Y1141D01*
X-247Y1142D01*
X-248Y1142D01*
X-250Y1142D01*
X-213D01*
X-287D01*
D01*
X-251D01*
X-252Y1142D01*
X-253Y1142D01*
X-254Y1141D01*
X-255Y1140D01*
X-256Y1139D01*
X-256Y1137D01*
X-287Y1024D01*
Y1024D01*
X-287Y1023D01*
Y1021D01*
X-287Y1020D01*
X-286Y1019D01*
X-286Y1018D01*
X-284Y1017D01*
X-283Y1016D01*
X-281Y1016D01*
X-280D01*
X-279Y1016D01*
X-278Y1017D01*
X-277Y1017D01*
X-276Y1018D01*
X-275Y1019D01*
X-275Y1021D01*
X-267Y1051D01*
X-234D01*
X-226Y1021D01*
Y1020D01*
X-225Y1020D01*
X-225Y1019D01*
X-224Y1018D01*
X-223Y1018D01*
X-223Y1017D01*
X-221Y1016D01*
X-220Y1016D01*
X-219D01*
X-219Y1016D01*
X-218Y1017D01*
X-216Y1017D01*
X-215Y1018D01*
X-214Y1019D01*
X-213Y1020D01*
X-213Y1022D01*
Y1142D01*
D02*
G37*
G36*
X208Y1142D02*
X143D01*
D01*
X148D01*
X147Y1142D01*
X146Y1142D01*
X145Y1141D01*
X144Y1140D01*
X143Y1138D01*
X143Y1136D01*
Y1016D01*
Y1135D01*
X143Y1134D01*
X144Y1133D01*
X144Y1132D01*
X146Y1131D01*
X147Y1130D01*
X149Y1130D01*
X169D01*
Y1022D01*
Y1022D01*
Y1021D01*
X170Y1020D01*
X170Y1019D01*
X171Y1018D01*
X172Y1017D01*
X174Y1016D01*
X176Y1016D01*
X176D01*
X176Y1016D01*
X177Y1017D01*
X178Y1017D01*
X180Y1018D01*
X181Y1019D01*
X181Y1020D01*
X182Y1022D01*
Y1130D01*
X202D01*
X203Y1130D01*
X204Y1130D01*
X205Y1131D01*
X206Y1132D01*
X207Y1133D01*
X208Y1134D01*
X208Y1136D01*
Y1018D01*
Y1136D01*
Y1136D01*
X208Y1137D01*
X208Y1138D01*
X207Y1139D01*
X206Y1140D01*
X205Y1141D01*
X204Y1142D01*
X202Y1142D01*
X208D01*
D01*
D02*
G37*
G36*
X87D02*
X55D01*
X60D01*
X59Y1142D01*
X58Y1142D01*
X57Y1141D01*
X56Y1140D01*
X55Y1138D01*
X55Y1136D01*
Y1016D01*
Y1021D01*
X55Y1020D01*
X56Y1019D01*
X56Y1018D01*
X58Y1017D01*
X59Y1016D01*
X61Y1016D01*
X61D01*
X62Y1016D01*
X63Y1017D01*
X64Y1017D01*
X66Y1018D01*
X66Y1019D01*
X67Y1020D01*
X67Y1022D01*
Y1130D01*
X83D01*
X117Y1021D01*
Y1020D01*
X117Y1020D01*
X117Y1019D01*
X118Y1018D01*
X119Y1018D01*
X120Y1017D01*
X121Y1016D01*
X122Y1016D01*
X129D01*
X123D01*
X123Y1016D01*
X124Y1017D01*
X126Y1017D01*
X127Y1018D01*
X128Y1019D01*
X129Y1020D01*
X129Y1022D01*
Y1023D01*
X129Y1024D01*
X94Y1138D01*
Y1138D01*
X93Y1139D01*
X93Y1139D01*
X92Y1140D01*
X91Y1141D01*
X90Y1142D01*
X89Y1142D01*
X87Y1142D01*
D02*
G37*
G36*
X-134Y1142D02*
X-199D01*
X-193D01*
X-195Y1142D01*
X-196Y1142D01*
X-197Y1141D01*
X-197Y1140D01*
X-198D01*
X-198Y1140D01*
X-198Y1139D01*
X-199Y1138D01*
X-199Y1137D01*
Y1136D01*
X-199Y1135D01*
X-199Y1134D01*
X-198Y1133D01*
X-167Y1092D01*
X-199Y1025D01*
X-199Y1025D01*
X-199Y1024D01*
X-199Y1023D01*
Y1022D01*
X-199Y1021D01*
X-199Y1020D01*
X-199Y1019D01*
X-198Y1018D01*
X-197Y1017D01*
X-195Y1016D01*
X-193Y1016D01*
X-192D01*
X-192Y1017D01*
X-191Y1017D01*
X-190Y1018D01*
X-189Y1018D01*
X-188Y1020D01*
X-187Y1021D01*
X-159Y1082D01*
X-147Y1064D01*
Y1022D01*
Y1022D01*
Y1021D01*
X-146Y1020D01*
X-146Y1019D01*
X-145Y1018D01*
X-144Y1017D01*
X-143Y1016D01*
X-141Y1016D01*
X-140D01*
X-140Y1016D01*
X-139Y1017D01*
X-138Y1017D01*
X-136Y1018D01*
X-135Y1019D01*
X-135Y1020D01*
X-134Y1022D01*
Y1136D01*
X-135Y1137D01*
X-135Y1138D01*
X-135Y1139D01*
X-136Y1140D01*
X-137Y1141D01*
X-139Y1142D01*
X-141Y1142D01*
X-141D01*
X-143Y1142D01*
X-144Y1142D01*
X-145Y1141D01*
X-146Y1140D01*
X-147Y1138D01*
X-147Y1136D01*
Y1081D01*
X-188Y1140D01*
X-188Y1140D01*
X-188Y1140D01*
X-189Y1141D01*
X-191Y1142D01*
X-192Y1142D01*
X-193Y1142D01*
X-134D01*
D02*
G37*
G36*
X-47Y1142D02*
X-120Y1142D01*
Y1013D01*
X-120Y1012D01*
X-120Y1011D01*
X-119Y1010D01*
X-118Y1008D01*
X-116Y1008D01*
X-114Y1008D01*
X-114D01*
X-113Y1008D01*
X-112Y1008D01*
X-111Y1008D01*
X-110Y1009D01*
X-109Y1010D01*
X-108Y1012D01*
X-108Y1014D01*
Y1016D01*
X-59Y1016D01*
Y1014D01*
Y1014D01*
Y1013D01*
X-59Y1012D01*
X-59Y1011D01*
X-58Y1010D01*
X-57Y1008D01*
X-55Y1008D01*
X-53Y1008D01*
X-53D01*
X-52Y1008D01*
X-51Y1008D01*
X-50Y1008D01*
X-49Y1009D01*
X-48Y1010D01*
X-47Y1012D01*
X-47Y1014D01*
Y1023D01*
X-47Y1023D01*
X-47Y1024D01*
X-47Y1025D01*
X-48Y1027D01*
X-49Y1028D01*
X-51Y1028D01*
X-53Y1028D01*
X-56D01*
X-64Y1137D01*
Y1137D01*
X-64Y1138D01*
X-65Y1139D01*
X-65Y1140D01*
X-66Y1141D01*
X-67Y1142D01*
X-69Y1142D01*
X-71Y1142D01*
X-47D01*
D01*
D02*
G37*
%LPD*%
G36*
X261Y1130D02*
X263Y1130D01*
X264Y1129D01*
X266Y1128D01*
X268Y1127D01*
X270Y1125D01*
X270Y1125D01*
X271Y1125D01*
X271Y1123D01*
X272Y1122D01*
X273Y1121D01*
X274Y1119D01*
X274Y1117D01*
X275Y1114D01*
Y1044D01*
Y1044D01*
Y1043D01*
X274Y1042D01*
X274Y1040D01*
X273Y1039D01*
X273Y1037D01*
X271Y1035D01*
X270Y1033D01*
X270Y1033D01*
X269Y1032D01*
X268Y1032D01*
X267Y1031D01*
X265Y1030D01*
X263Y1029D01*
X261Y1029D01*
X259Y1028D01*
X249D01*
X248Y1029D01*
X246Y1029D01*
X245Y1030D01*
X243Y1030D01*
X241Y1031D01*
X239Y1033D01*
X239Y1033D01*
X238Y1034D01*
X238Y1035D01*
X237Y1036D01*
X236Y1038D01*
X235Y1040D01*
X234Y1042D01*
X234Y1044D01*
Y1114D01*
Y1115D01*
Y1115D01*
X234Y1117D01*
X235Y1118D01*
X235Y1120D01*
X236Y1122D01*
X237Y1124D01*
X239Y1125D01*
X239Y1126D01*
X240Y1126D01*
X241Y1127D01*
X242Y1128D01*
X244Y1129D01*
X246Y1129D01*
X248Y1130D01*
X250Y1130D01*
X260D01*
X261Y1130D01*
D02*
G37*
G36*
X18Y1064D02*
X-9D01*
X4Y1118D01*
X18Y1064D01*
D02*
G37*
G36*
X-236Y1064D02*
X-264D01*
X-250Y1118D01*
X-236Y1064D01*
D02*
G37*
G36*
X-68Y1028D02*
X-99Y1028D01*
Y1130D01*
X-76Y1130D01*
X-68Y1028D01*
D02*
G37*
G36*
X-108Y1142D02*
X-109Y1142D01*
X-110Y1141D01*
X-111Y1140D01*
X-112Y1138D01*
X-112Y1136D01*
Y1028D01*
X-115D01*
X-116Y1028D01*
X-117Y1028D01*
X-119Y1027D01*
X-119Y1026D01*
X-120Y1024D01*
X-120Y1022D01*
Y1142D01*
X-106D01*
X-108Y1142D01*
D02*
G37*
%LPC*%
G36*
X-187Y1905D02*
X-313D01*
Y1840D01*
D01*
Y1872D01*
X-313Y1872D01*
X-313Y1871D01*
X-312Y1870D01*
X-311Y1868D01*
X-310Y1867D01*
X-309Y1867D01*
X-307Y1866D01*
X-199D01*
Y1846D01*
X-199Y1845D01*
X-199Y1844D01*
X-198Y1843D01*
X-198Y1842D01*
X-196Y1841D01*
X-195Y1840D01*
X-193Y1840D01*
X-193D01*
X-192Y1840D01*
X-191Y1840D01*
X-190Y1841D01*
X-189Y1842D01*
X-188Y1843D01*
X-187Y1844D01*
X-187Y1846D01*
Y1900D01*
X-187Y1901D01*
X-188Y1902D01*
X-188Y1903D01*
X-189Y1904D01*
X-191Y1905D01*
X-193Y1905D01*
X-187D01*
D02*
G37*
G36*
Y1826D02*
X-281D01*
X-194D01*
X-195Y1826D01*
X-196Y1825D01*
X-197Y1825D01*
X-198Y1823D01*
X-199Y1822D01*
X-199Y1820D01*
Y1782D01*
X-239D01*
Y1803D01*
X-240Y1804D01*
X-240Y1805D01*
X-241Y1807D01*
X-242Y1808D01*
X-243Y1808D01*
X-245Y1808D01*
X-246D01*
X-246D01*
X-247Y1808D01*
X-248Y1808D01*
X-250Y1807D01*
X-251Y1806D01*
X-251Y1804D01*
X-252Y1802D01*
Y1782D01*
X-301D01*
Y1821D01*
X-301Y1822D01*
X-301Y1823D01*
X-302Y1824D01*
X-303Y1825D01*
X-305Y1826D01*
X-307Y1826D01*
X-313D01*
X-308D01*
X-309Y1826D01*
X-310Y1825D01*
X-311Y1825D01*
X-312Y1823D01*
X-313Y1822D01*
X-313Y1820D01*
Y1822D01*
Y1776D01*
X-313Y1775D01*
X-313Y1774D01*
X-312Y1773D01*
X-311Y1772D01*
X-310Y1771D01*
X-309Y1770D01*
X-307Y1770D01*
X-313D01*
X-193D01*
X-192Y1770D01*
X-191Y1770D01*
X-190Y1771D01*
X-189Y1771D01*
X-188Y1773D01*
X-187Y1774D01*
X-187Y1776D01*
Y1770D01*
D01*
Y1821D01*
X-187Y1822D01*
X-188Y1823D01*
X-188Y1824D01*
X-189Y1825D01*
X-191Y1826D01*
X-193Y1826D01*
X-187D01*
D02*
G37*
G36*
X-198Y1756D02*
X-313D01*
X-198D01*
X-200Y1756D01*
X-201Y1755D01*
X-202Y1755D01*
X-203Y1754D01*
X-203Y1754D01*
X-204Y1753D01*
X-204Y1751D01*
X-205Y1750D01*
Y1749D01*
X-204Y1749D01*
X-204Y1748D01*
X-204Y1746D01*
X-203Y1746D01*
X-203Y1745D01*
X-202Y1743D01*
X-201Y1742D01*
X-200Y1739D01*
X-200Y1737D01*
X-199Y1735D01*
X-199Y1732D01*
Y1718D01*
X-199Y1717D01*
X-200Y1715D01*
X-200Y1713D01*
X-201Y1712D01*
X-202Y1710D01*
X-204Y1708D01*
X-204Y1708D01*
X-204Y1707D01*
X-205Y1706D01*
X-207Y1706D01*
X-208Y1705D01*
X-210Y1704D01*
X-213Y1704D01*
X-215Y1703D01*
X-215D01*
X-216D01*
X-217Y1704D01*
X-219Y1704D01*
X-220Y1705D01*
X-222Y1705D01*
X-224Y1707D01*
X-226Y1708D01*
X-265Y1747D01*
Y1747D01*
X-265Y1748D01*
X-267Y1748D01*
X-268Y1750D01*
X-271Y1751D01*
X-274Y1753D01*
X-277Y1754D01*
X-281Y1755D01*
X-283Y1755D01*
X-285D01*
X-285D01*
X-285D01*
X-286D01*
X-287Y1755D01*
X-288D01*
X-289Y1755D01*
X-292Y1754D01*
X-295Y1753D01*
X-298Y1752D01*
X-302Y1750D01*
X-303Y1749D01*
X-305Y1747D01*
X-305Y1747D01*
X-306Y1746D01*
X-307Y1744D01*
X-309Y1742D01*
X-310Y1739D01*
X-312Y1735D01*
X-313Y1731D01*
X-313Y1729D01*
X-313Y1727D01*
Y1728D01*
Y1713D01*
X-313Y1712D01*
Y1711D01*
X-313Y1710D01*
X-312Y1707D01*
X-311Y1703D01*
X-310Y1700D01*
X-309Y1696D01*
X-306Y1693D01*
X-306Y1693D01*
X-306Y1693D01*
X-305Y1692D01*
X-303Y1691D01*
X-303Y1691D01*
X-301Y1691D01*
X-301D01*
X-300Y1691D01*
X-299Y1691D01*
X-297Y1692D01*
X-297D01*
X-297Y1693D01*
X-296Y1694D01*
X-296Y1695D01*
X-295Y1696D01*
Y1697D01*
X-295Y1698D01*
X-296Y1699D01*
X-297Y1701D01*
X-297Y1701D01*
X-297Y1702D01*
X-298Y1703D01*
X-299Y1705D01*
X-299Y1707D01*
X-300Y1709D01*
X-300Y1712D01*
X-301Y1714D01*
Y1728D01*
X-300Y1730D01*
X-300Y1731D01*
X-300Y1733D01*
X-299Y1735D01*
X-298Y1737D01*
X-296Y1738D01*
X-296Y1739D01*
X-295Y1739D01*
X-294Y1740D01*
X-293Y1741D01*
X-291Y1742D01*
X-289Y1742D01*
X-287Y1743D01*
X-285Y1743D01*
X-284D01*
X-284D01*
X-283Y1743D01*
X-281Y1743D01*
X-279Y1742D01*
X-278Y1741D01*
X-276Y1740D01*
X-274Y1738D01*
X-235Y1699D01*
X-234D01*
X-234Y1699D01*
X-233Y1698D01*
X-231Y1697D01*
X-229Y1695D01*
X-226Y1693D01*
X-223Y1692D01*
X-219Y1691D01*
X-217Y1691D01*
X-215Y1691D01*
X-215D01*
X-214D01*
X-214D01*
X-213Y1691D01*
X-211Y1691D01*
X-208Y1692D01*
X-205Y1693D01*
X-202Y1694D01*
X-198Y1696D01*
X-197Y1698D01*
X-195Y1699D01*
X-195Y1699D01*
X-195Y1699D01*
X-194Y1700D01*
X-193Y1702D01*
X-191Y1705D01*
X-189Y1708D01*
X-188Y1711D01*
X-187Y1715D01*
X-187Y1717D01*
Y1695D01*
Y1733D01*
X-187Y1734D01*
Y1735D01*
X-187Y1736D01*
X-188Y1739D01*
X-188Y1743D01*
X-190Y1746D01*
X-191Y1750D01*
X-193Y1753D01*
X-193Y1753D01*
X-194Y1754D01*
X-195Y1755D01*
X-196Y1756D01*
X-197Y1756D01*
X-198Y1756D01*
D02*
G37*
G36*
X-471Y1765D02*
X-571D01*
X-544D01*
X-545Y1764D01*
X-547Y1764D01*
X-550Y1763D01*
X-553Y1763D01*
X-556Y1761D01*
X-560Y1759D01*
X-561Y1758D01*
X-563Y1756D01*
X-563Y1756D01*
X-564Y1755D01*
X-565Y1753D01*
X-567Y1751D01*
X-568Y1748D01*
X-570Y1744D01*
X-571Y1740D01*
X-571Y1738D01*
X-571Y1736D01*
Y1699D01*
D01*
Y1705D01*
X-571Y1705D01*
X-571Y1704D01*
X-570Y1703D01*
X-570Y1701D01*
X-568Y1700D01*
X-567Y1700D01*
X-565Y1699D01*
X-571D01*
X-451D01*
X-450Y1700D01*
X-449Y1700D01*
X-448Y1700D01*
X-447Y1701D01*
X-446Y1702D01*
X-445Y1703D01*
X-445Y1705D01*
Y1738D01*
Y1737D01*
X-445Y1738D01*
Y1739D01*
X-445Y1740D01*
X-446Y1743D01*
X-447Y1746D01*
X-448Y1750D01*
X-451Y1753D01*
X-452Y1755D01*
X-453Y1756D01*
Y1756D01*
X-454Y1757D01*
X-455Y1758D01*
X-456Y1759D01*
X-459Y1760D01*
X-462Y1762D01*
X-465Y1763D01*
X-469Y1764D01*
X-471Y1765D01*
D02*
G37*
G36*
X571Y1685D02*
D01*
Y1680D01*
X570Y1681D01*
X570Y1682D01*
X569Y1683D01*
X568Y1684D01*
X567Y1685D01*
X565Y1685D01*
X564D01*
Y1685D01*
X450Y1654D01*
X450D01*
X449Y1654D01*
X448Y1653D01*
X448Y1653D01*
X447Y1652D01*
X446Y1651D01*
X445Y1650D01*
X445Y1648D01*
Y1648D01*
X445Y1647D01*
X446Y1646D01*
X446Y1645D01*
X447Y1644D01*
X448Y1643D01*
X450Y1642D01*
X563Y1612D01*
X563D01*
X564D01*
X565Y1611D01*
X445D01*
X571D01*
Y1685D01*
D02*
G37*
G36*
X-445Y1685D02*
X-571D01*
X-566D01*
X-567Y1685D01*
X-568Y1685D01*
X-569Y1684D01*
X-570Y1683D01*
X-571Y1681D01*
X-571Y1679D01*
Y1681D01*
Y1620D01*
D01*
Y1626D01*
X-571Y1625D01*
X-571Y1625D01*
X-570Y1623D01*
X-570Y1622D01*
X-568Y1621D01*
X-567Y1620D01*
X-565Y1620D01*
X-571D01*
X-451D01*
X-450Y1620D01*
X-449Y1621D01*
X-448Y1621D01*
X-447Y1622D01*
X-446Y1623D01*
X-445Y1624D01*
X-445Y1626D01*
Y1627D01*
X-445Y1628D01*
X-445Y1629D01*
X-446Y1630D01*
X-446Y1630D01*
X-447Y1631D01*
X-449Y1632D01*
X-543Y1673D01*
X-451D01*
X-451D01*
X-450Y1673D01*
X-449Y1673D01*
X-448Y1674D01*
X-447Y1675D01*
X-446Y1676D01*
X-445Y1677D01*
X-445Y1679D01*
Y1680D01*
X-445Y1681D01*
X-446Y1682D01*
X-446Y1683D01*
X-448Y1685D01*
X-449Y1685D01*
X-451Y1685D01*
X-445D01*
D02*
G37*
G36*
X63Y1694D02*
X-20D01*
X56D01*
X55Y1694D01*
X54Y1693D01*
X0Y1664D01*
X-54Y1693D01*
X-54Y1694D01*
X-55Y1694D01*
X-56Y1694D01*
X-57Y1694D01*
X-57D01*
X-58Y1694D01*
X-59Y1694D01*
X-60Y1693D01*
X-61Y1693D01*
X-62Y1691D01*
X-63Y1690D01*
X-63Y1688D01*
Y1694D01*
D01*
Y1620D01*
D01*
Y1627D01*
X-63Y1626D01*
X-63Y1625D01*
X-62Y1624D01*
X-62Y1622D01*
X-61Y1621D01*
X-59Y1621D01*
X-57Y1620D01*
X-63D01*
X-57D01*
X-56Y1620D01*
X-55Y1621D01*
X-54Y1621D01*
X0Y1650D01*
X54Y1621D01*
X54Y1621D01*
X55Y1621D01*
X56Y1620D01*
X57Y1620D01*
X63D01*
X57D01*
X58Y1620D01*
X59Y1621D01*
X60Y1621D01*
X61Y1622D01*
X62Y1623D01*
X63Y1625D01*
X63Y1627D01*
Y1627D01*
X63Y1628D01*
X63Y1629D01*
X62Y1630D01*
X61Y1631D01*
X60Y1632D01*
X59Y1632D01*
X11Y1657D01*
X60Y1683D01*
X60D01*
X60Y1683D01*
X61Y1684D01*
X63Y1685D01*
X63Y1686D01*
X63Y1688D01*
Y1689D01*
X63Y1690D01*
X62Y1691D01*
X62Y1692D01*
X61Y1693D01*
X59Y1694D01*
X57Y1694D01*
X63D01*
D02*
G37*
G36*
X323Y1694D02*
X240D01*
X316D01*
X315Y1694D01*
X314Y1693D01*
X260Y1664D01*
X206Y1693D01*
X206Y1694D01*
X205Y1694D01*
X204Y1694D01*
X203Y1694D01*
X203D01*
X202Y1694D01*
X201Y1694D01*
X200Y1693D01*
X199Y1693D01*
X198Y1691D01*
X197Y1690D01*
X197Y1688D01*
Y1694D01*
D01*
Y1620D01*
D01*
Y1627D01*
X197Y1626D01*
X197Y1625D01*
X198Y1624D01*
X198Y1622D01*
X199Y1621D01*
X201Y1621D01*
X203Y1620D01*
X197D01*
X203D01*
X204Y1620D01*
X205Y1621D01*
X206Y1621D01*
X260Y1650D01*
X314Y1621D01*
X314Y1621D01*
X315Y1621D01*
X316Y1620D01*
X317Y1620D01*
X323D01*
X317D01*
X318Y1620D01*
X319Y1621D01*
X320Y1621D01*
X321Y1622D01*
X322Y1623D01*
X323Y1625D01*
X323Y1627D01*
Y1627D01*
X323Y1628D01*
X323Y1629D01*
X322Y1630D01*
X321Y1631D01*
X320Y1632D01*
X319Y1632D01*
X271Y1657D01*
X320Y1683D01*
X320D01*
X320Y1683D01*
X321Y1684D01*
X323Y1685D01*
X323Y1686D01*
X323Y1688D01*
Y1689D01*
X323Y1690D01*
X322Y1691D01*
X322Y1692D01*
X321Y1693D01*
X319Y1694D01*
X317Y1694D01*
X323D01*
D02*
G37*
G36*
X-187Y1677D02*
X-281D01*
X-194D01*
X-195Y1676D01*
X-196Y1676D01*
X-197Y1675D01*
X-198Y1674D01*
X-199Y1672D01*
X-199Y1670D01*
Y1633D01*
X-239D01*
Y1654D01*
X-240Y1655D01*
X-240Y1656D01*
X-241Y1657D01*
X-242Y1658D01*
X-243Y1659D01*
X-245Y1659D01*
X-246D01*
X-246D01*
X-247Y1659D01*
X-248Y1658D01*
X-250Y1658D01*
X-251Y1656D01*
X-251Y1655D01*
X-252Y1653D01*
Y1633D01*
X-301D01*
Y1671D01*
X-301Y1672D01*
X-301Y1673D01*
X-302Y1675D01*
X-303Y1676D01*
X-305Y1676D01*
X-307Y1677D01*
X-313D01*
X-308D01*
X-309Y1676D01*
X-310Y1676D01*
X-311Y1675D01*
X-312Y1674D01*
X-313Y1672D01*
X-313Y1670D01*
Y1672D01*
Y1620D01*
Y1626D01*
X-313Y1626D01*
X-313Y1625D01*
X-312Y1624D01*
X-311Y1622D01*
X-310Y1621D01*
X-309Y1621D01*
X-307Y1620D01*
X-313D01*
X-193D01*
X-192Y1621D01*
X-191Y1621D01*
X-190Y1621D01*
X-189Y1622D01*
X-188Y1623D01*
X-187Y1625D01*
X-187Y1627D01*
Y1671D01*
X-187Y1672D01*
X-188Y1673D01*
X-188Y1675D01*
X-189Y1676D01*
X-191Y1676D01*
X-193Y1677D01*
X-187D01*
D02*
G37*
G36*
X-445Y1606D02*
X-571D01*
X-566D01*
X-567Y1606D01*
X-568Y1606D01*
X-569Y1605D01*
X-570Y1604D01*
X-571Y1602D01*
X-571Y1600D01*
Y1601D01*
Y1541D01*
D01*
Y1568D01*
X-571Y1567D01*
Y1566D01*
X-571Y1565D01*
X-570Y1563D01*
X-569Y1559D01*
X-568Y1556D01*
X-565Y1553D01*
X-564Y1551D01*
X-563Y1549D01*
X-563D01*
X-563Y1549D01*
X-561Y1548D01*
X-560Y1547D01*
X-557Y1545D01*
X-555Y1544D01*
X-551Y1543D01*
X-547Y1542D01*
X-545Y1541D01*
X-543Y1541D01*
X-445D01*
X-472D01*
X-471Y1541D01*
X-469Y1542D01*
X-466Y1542D01*
X-463Y1543D01*
X-460Y1545D01*
X-456Y1547D01*
X-455Y1548D01*
X-453Y1549D01*
X-453Y1550D01*
X-453Y1550D01*
X-452Y1551D01*
X-451Y1553D01*
X-449Y1555D01*
X-448Y1558D01*
X-446Y1561D01*
X-445Y1565D01*
X-445Y1567D01*
Y1566D01*
Y1601D01*
X-445Y1602D01*
X-446Y1603D01*
X-446Y1604D01*
X-448Y1605D01*
X-449Y1606D01*
X-451Y1606D01*
X-445D01*
D02*
G37*
G36*
X37Y1606D02*
X-53D01*
X16D01*
X16Y1606D01*
X14D01*
X13Y1606D01*
X10Y1605D01*
X7Y1604D01*
X4Y1603D01*
X1Y1601D01*
X-1Y1599D01*
X-3Y1598D01*
X-3Y1598D01*
X-4Y1596D01*
X-5Y1595D01*
X-6Y1592D01*
X-8Y1590D01*
X-9Y1586D01*
X-10Y1583D01*
X-10Y1579D01*
X-54Y1606D01*
X-54Y1606D01*
X-55Y1606D01*
X-56Y1606D01*
X-57Y1606D01*
X-63D01*
X-57D01*
X-59Y1606D01*
X-60Y1606D01*
X-61Y1605D01*
X-61Y1604D01*
X-62Y1604D01*
X-62Y1603D01*
X-63Y1602D01*
X-63Y1600D01*
Y1599D01*
X-63Y1599D01*
X-63Y1598D01*
X-62Y1597D01*
X-61Y1596D01*
X-60Y1595D01*
X-58Y1595D01*
X-10Y1566D01*
Y1554D01*
X-57D01*
X-57D01*
X-58D01*
X-59Y1553D01*
X-60Y1553D01*
X-61Y1552D01*
X-62Y1551D01*
X-63Y1549D01*
X-63Y1547D01*
Y1594D01*
Y1541D01*
D01*
Y1547D01*
X-63Y1546D01*
X-63Y1546D01*
X-62Y1544D01*
X-62Y1543D01*
X-61Y1542D01*
X-59Y1541D01*
X-57Y1541D01*
X-63D01*
X57D01*
X58Y1541D01*
X59Y1542D01*
X60Y1542D01*
X61Y1543D01*
X62Y1544D01*
X63Y1545D01*
X63Y1547D01*
Y1580D01*
Y1579D01*
X63Y1580D01*
Y1581D01*
X63Y1582D01*
X62Y1585D01*
X61Y1588D01*
X59Y1591D01*
X57Y1595D01*
X56Y1596D01*
X55Y1598D01*
Y1598D01*
X54Y1598D01*
X53Y1599D01*
X51Y1601D01*
X49Y1602D01*
X46Y1604D01*
X43Y1605D01*
X39Y1606D01*
X37Y1606D01*
D02*
G37*
G36*
X-213Y1606D02*
X-303D01*
X-233D01*
X-234Y1606D01*
X-235D01*
X-236Y1606D01*
X-239Y1605D01*
X-243Y1604D01*
X-246Y1603D01*
X-249Y1601D01*
X-251Y1599D01*
X-252Y1598D01*
X-253Y1598D01*
X-254Y1596D01*
X-255Y1595D01*
X-256Y1592D01*
X-258Y1590D01*
X-259Y1586D01*
X-260Y1583D01*
X-260Y1579D01*
X-304Y1606D01*
X-304Y1606D01*
X-305Y1606D01*
X-306Y1606D01*
X-307Y1606D01*
X-313D01*
X-307D01*
X-308Y1606D01*
X-310Y1606D01*
X-310Y1605D01*
X-311Y1604D01*
X-311Y1604D01*
X-312Y1603D01*
X-313Y1602D01*
X-313Y1600D01*
Y1599D01*
X-313Y1599D01*
X-312Y1598D01*
X-312Y1597D01*
X-311Y1596D01*
X-310Y1595D01*
X-308Y1595D01*
X-260Y1566D01*
Y1554D01*
X-307D01*
X-307D01*
X-308D01*
X-309Y1553D01*
X-310Y1553D01*
X-311Y1552D01*
X-312Y1551D01*
X-313Y1549D01*
X-313Y1547D01*
Y1594D01*
Y1541D01*
D01*
Y1547D01*
X-313Y1546D01*
X-313Y1546D01*
X-312Y1544D01*
X-311Y1543D01*
X-310Y1542D01*
X-309Y1541D01*
X-307Y1541D01*
X-313D01*
X-193D01*
X-192Y1541D01*
X-191Y1542D01*
X-190Y1542D01*
X-189Y1543D01*
X-188Y1544D01*
X-187Y1545D01*
X-187Y1547D01*
Y1580D01*
Y1579D01*
X-187Y1580D01*
Y1581D01*
X-187Y1582D01*
X-188Y1585D01*
X-189Y1588D01*
X-190Y1591D01*
X-192Y1595D01*
X-194Y1596D01*
X-195Y1598D01*
Y1598D01*
X-195Y1598D01*
X-197Y1599D01*
X-198Y1601D01*
X-201Y1602D01*
X-203Y1604D01*
X-207Y1605D01*
X-211Y1606D01*
X-213Y1606D01*
D02*
G37*
G36*
X323Y1606D02*
X197D01*
Y1541D01*
D01*
Y1573D01*
X197Y1573D01*
X197Y1572D01*
X198Y1571D01*
X198Y1569D01*
X199Y1568D01*
X201Y1568D01*
X203Y1568D01*
X311D01*
Y1547D01*
X311Y1546D01*
X311Y1546D01*
X311Y1544D01*
X312Y1543D01*
X313Y1542D01*
X315Y1541D01*
X317Y1541D01*
X317D01*
X318Y1541D01*
X319Y1542D01*
X320Y1542D01*
X321Y1543D01*
X322Y1544D01*
X323Y1545D01*
X323Y1547D01*
Y1601D01*
X323Y1602D01*
X322Y1603D01*
X321Y1604D01*
X320Y1605D01*
X319Y1606D01*
X317Y1606D01*
X323D01*
D02*
G37*
G36*
X571Y1598D02*
X445D01*
Y1541D01*
D01*
Y1547D01*
X445Y1546D01*
X445Y1546D01*
X446Y1544D01*
X446Y1543D01*
X448Y1542D01*
X449Y1541D01*
X451Y1541D01*
X445D01*
X451D01*
X452Y1541D01*
X453Y1542D01*
X454Y1542D01*
X455Y1543D01*
X456Y1544D01*
X457Y1546D01*
X457Y1548D01*
Y1571D01*
X457Y1572D01*
X458Y1573D01*
X458Y1575D01*
X459Y1577D01*
X460Y1579D01*
X462Y1581D01*
X462Y1581D01*
X463Y1581D01*
X464Y1582D01*
X465Y1583D01*
X467Y1584D01*
X468Y1584D01*
X471Y1585D01*
X473Y1585D01*
X491D01*
X491D01*
X492D01*
X493Y1585D01*
X494Y1585D01*
X496Y1584D01*
X498Y1583D01*
X500Y1582D01*
X502Y1581D01*
X502Y1580D01*
X502Y1580D01*
X503Y1579D01*
X504Y1577D01*
X505Y1576D01*
X505Y1574D01*
X506Y1572D01*
X506Y1569D01*
Y1547D01*
X506Y1546D01*
X507Y1546D01*
X507Y1544D01*
X508Y1543D01*
X509Y1542D01*
X510Y1541D01*
X512Y1541D01*
X565D01*
X566Y1541D01*
X567Y1542D01*
X568Y1542D01*
X569Y1543D01*
X570Y1544D01*
X571Y1545D01*
X571Y1547D01*
Y1592D01*
X571Y1593D01*
X570Y1594D01*
X570Y1595D01*
X568Y1597D01*
X567Y1597D01*
X565Y1598D01*
X571D01*
D02*
G37*
%LPD*%
G36*
X-195Y1905D02*
X-196Y1904D01*
X-197Y1904D01*
X-198Y1903D01*
X-199Y1901D01*
X-199Y1899D01*
Y1879D01*
X-307D01*
X-307D01*
X-308D01*
X-309Y1878D01*
X-310Y1878D01*
X-311Y1877D01*
X-312Y1876D01*
X-313Y1875D01*
X-313Y1873D01*
Y1905D01*
X-194D01*
X-195Y1905D01*
D02*
G37*
G36*
X-471Y1752D02*
X-469Y1752D01*
X-467Y1751D01*
X-466Y1750D01*
X-464Y1749D01*
X-462Y1747D01*
X-462Y1747D01*
X-461Y1747D01*
X-460Y1745D01*
X-459Y1744D01*
X-459Y1743D01*
X-458Y1741D01*
X-457Y1739D01*
X-457Y1736D01*
Y1712D01*
X-559D01*
Y1737D01*
X-559Y1738D01*
X-558Y1740D01*
X-558Y1742D01*
X-557Y1744D01*
X-556Y1745D01*
X-554Y1747D01*
X-554Y1748D01*
X-553Y1748D01*
X-553Y1749D01*
X-551Y1750D01*
X-550Y1751D01*
X-548Y1751D01*
X-545Y1752D01*
X-543Y1752D01*
X-473D01*
X-473D01*
X-472D01*
X-471Y1752D01*
D02*
G37*
G36*
X571Y1618D02*
X571Y1619D01*
X570Y1620D01*
X570Y1621D01*
X569Y1622D01*
X568Y1623D01*
X566Y1624D01*
X470Y1648D01*
X566Y1673D01*
X566D01*
X567Y1673D01*
X568Y1674D01*
X569Y1674D01*
X569Y1675D01*
X570Y1676D01*
X571Y1677D01*
X571Y1679D01*
Y1618D01*
D02*
G37*
G36*
Y1611D02*
X565D01*
X566Y1612D01*
X567Y1612D01*
X568Y1612D01*
X569Y1613D01*
X570Y1614D01*
X571Y1616D01*
X571Y1618D01*
Y1611D01*
D02*
G37*
G36*
X-571Y1678D02*
X-570Y1677D01*
X-570Y1676D01*
X-569Y1675D01*
X-568Y1674D01*
X-567Y1673D01*
X-473Y1633D01*
X-565D01*
X-565D01*
X-566D01*
X-567Y1632D01*
X-568Y1632D01*
X-569Y1631D01*
X-570Y1630D01*
X-571Y1628D01*
X-571Y1626D01*
Y1679D01*
X-571Y1678D01*
D02*
G37*
G36*
X-63Y1686D02*
X-63Y1686D01*
X-62Y1685D01*
X-61Y1684D01*
X-61Y1683D01*
X-59Y1682D01*
X-11Y1657D01*
X-60Y1632D01*
X-60D01*
X-61Y1632D01*
X-61Y1631D01*
X-63Y1629D01*
X-63Y1628D01*
X-63Y1627D01*
Y1687D01*
X-63Y1686D01*
D02*
G37*
G36*
X197Y1686D02*
X197Y1686D01*
X198Y1685D01*
X199Y1684D01*
X199Y1683D01*
X201Y1682D01*
X249Y1657D01*
X200Y1632D01*
X200D01*
X199Y1632D01*
X199Y1631D01*
X197Y1629D01*
X197Y1628D01*
X197Y1627D01*
Y1687D01*
X197Y1686D01*
D02*
G37*
G36*
X-453Y1606D02*
X-454Y1606D01*
X-455Y1605D01*
X-456Y1604D01*
X-457Y1602D01*
X-457Y1600D01*
Y1568D01*
X-457Y1567D01*
X-458Y1566D01*
X-458Y1564D01*
X-459Y1562D01*
X-460Y1560D01*
X-462Y1558D01*
X-462Y1558D01*
X-463Y1558D01*
X-464Y1557D01*
X-465Y1556D01*
X-467Y1555D01*
X-468Y1554D01*
X-471Y1554D01*
X-473Y1554D01*
X-543D01*
X-543D01*
X-544D01*
X-545Y1554D01*
X-547Y1554D01*
X-549Y1555D01*
X-550Y1556D01*
X-552Y1557D01*
X-554Y1558D01*
X-554Y1558D01*
X-555Y1559D01*
X-556Y1560D01*
X-556Y1561D01*
X-557Y1563D01*
X-558Y1565D01*
X-559Y1567D01*
X-559Y1569D01*
Y1594D01*
X-510D01*
Y1583D01*
X-510Y1582D01*
X-509Y1581D01*
X-509Y1580D01*
X-508Y1578D01*
X-507Y1577D01*
X-506Y1577D01*
X-504Y1576D01*
X-503D01*
X-503Y1577D01*
X-502Y1577D01*
X-501Y1577D01*
X-499Y1578D01*
X-498Y1579D01*
X-498Y1581D01*
X-498Y1583D01*
Y1601D01*
X-498Y1602D01*
X-498Y1603D01*
X-499Y1604D01*
X-500Y1605D01*
X-502Y1606D01*
X-504Y1606D01*
X-452D01*
X-453Y1606D01*
D02*
G37*
G36*
X37Y1594D02*
X39Y1593D01*
X41Y1593D01*
X42Y1592D01*
X44Y1591D01*
X46Y1589D01*
X46Y1589D01*
X47Y1588D01*
X48Y1587D01*
X49Y1586D01*
X49Y1584D01*
X50Y1583D01*
X51Y1581D01*
X51Y1578D01*
Y1554D01*
X2D01*
Y1579D01*
X2Y1580D01*
X2Y1582D01*
X3Y1584D01*
X4Y1586D01*
X5Y1587D01*
X6Y1589D01*
X6Y1589D01*
X7Y1590D01*
X8Y1591D01*
X9Y1592D01*
X11Y1593D01*
X13Y1593D01*
X15Y1594D01*
X18Y1594D01*
X35D01*
X35D01*
X36D01*
X37Y1594D01*
D02*
G37*
G36*
X-213Y1594D02*
X-211Y1593D01*
X-209Y1593D01*
X-207Y1592D01*
X-205Y1591D01*
X-204Y1589D01*
X-203Y1589D01*
X-203Y1588D01*
X-202Y1587D01*
X-201Y1586D01*
X-200Y1584D01*
X-200Y1583D01*
X-199Y1581D01*
X-199Y1578D01*
Y1554D01*
X-248D01*
Y1579D01*
X-248Y1580D01*
X-247Y1582D01*
X-247Y1584D01*
X-246Y1586D01*
X-245Y1587D01*
X-243Y1589D01*
X-243Y1589D01*
X-243Y1590D01*
X-242Y1591D01*
X-240Y1592D01*
X-239Y1593D01*
X-237Y1593D01*
X-235Y1594D01*
X-232Y1594D01*
X-215D01*
X-214D01*
X-214D01*
X-213Y1594D01*
D02*
G37*
G36*
X315Y1606D02*
X314Y1605D01*
X313Y1605D01*
X312Y1604D01*
X311Y1602D01*
X311Y1600D01*
Y1580D01*
X203D01*
X203D01*
X202D01*
X201Y1580D01*
X200Y1579D01*
X199Y1578D01*
X198Y1577D01*
X197Y1576D01*
X197Y1574D01*
Y1606D01*
X316D01*
X315Y1606D01*
D02*
G37*
G36*
X471Y1597D02*
X469Y1597D01*
X466Y1596D01*
X463Y1595D01*
X460Y1594D01*
X456Y1592D01*
X455Y1591D01*
X453Y1589D01*
X453Y1589D01*
X452Y1588D01*
X451Y1586D01*
X449Y1584D01*
X448Y1581D01*
X446Y1577D01*
X445Y1574D01*
X445Y1572D01*
X445Y1569D01*
Y1598D01*
X472D01*
X471Y1597D01*
D02*
G37*
G36*
X563Y1597D02*
X562Y1597D01*
X561Y1596D01*
X560Y1595D01*
X559Y1593D01*
X559Y1591D01*
Y1554D01*
X518D01*
Y1571D01*
X518Y1571D01*
X518Y1573D01*
X517Y1576D01*
X516Y1579D01*
X515Y1583D01*
X513Y1586D01*
X512Y1588D01*
X510Y1589D01*
Y1589D01*
X510Y1590D01*
X509Y1591D01*
X507Y1592D01*
X505Y1593D01*
X502Y1595D01*
X498Y1596D01*
X495Y1597D01*
X493Y1598D01*
X564D01*
X563Y1597D01*
D02*
G37*
%LPC*%
G36*
X372Y-1874D02*
X347D01*
X345Y-1874D01*
X343Y-1874D01*
X341Y-1875D01*
X339Y-1876D01*
X338Y-1877D01*
X337Y-1877D01*
X336Y-1878D01*
X336Y-1878D01*
X335Y-1880D01*
X333Y-1882D01*
X333Y-1884D01*
X332Y-1885D01*
X332Y-1887D01*
X331Y-1888D01*
Y-1889D01*
Y-1889D01*
Y-1960D01*
X332Y-1962D01*
X332Y-1964D01*
X333Y-1966D01*
X334Y-1968D01*
X335Y-1969D01*
X336Y-1970D01*
X336Y-1971D01*
X336Y-1971D01*
X338Y-1972D01*
X340Y-1973D01*
X342Y-1974D01*
X343Y-1975D01*
X345Y-1975D01*
X346Y-1975D01*
X372D01*
Y-1874D01*
D02*
G37*
G36*
X-112D02*
X-136D01*
X-139Y-1874D01*
X-141Y-1874D01*
X-142Y-1875D01*
X-144Y-1876D01*
X-145Y-1877D01*
X-146Y-1877D01*
X-147Y-1878D01*
X-147Y-1878D01*
X-149Y-1880D01*
X-150Y-1882D01*
X-151Y-1884D01*
X-151Y-1885D01*
X-152Y-1887D01*
X-152Y-1888D01*
Y-1889D01*
Y-1889D01*
Y-1960D01*
X-152Y-1962D01*
X-151Y-1964D01*
X-151Y-1966D01*
X-150Y-1968D01*
X-149Y-1969D01*
X-148Y-1970D01*
X-147Y-1971D01*
X-147Y-1971D01*
X-145Y-1972D01*
X-144Y-1973D01*
X-142Y-1974D01*
X-140Y-1975D01*
X-138Y-1975D01*
X-137Y-1975D01*
X-112D01*
Y-1874D01*
D02*
G37*
G36*
X-243D02*
X-263D01*
X-266Y-1874D01*
X-268Y-1874D01*
X-270Y-1875D01*
X-271Y-1876D01*
X-273Y-1877D01*
X-274Y-1878D01*
X-274Y-1878D01*
X-275Y-1878D01*
X-276Y-1880D01*
X-277Y-1882D01*
X-278Y-1884D01*
X-279Y-1886D01*
X-279Y-1887D01*
X-279Y-1888D01*
Y-1889D01*
Y-1889D01*
Y-1898D01*
X-279Y-1900D01*
X-279Y-1903D01*
X-278Y-1905D01*
X-277Y-1906D01*
X-276Y-1907D01*
X-275Y-1908D01*
X-275Y-1909D01*
X-275Y-1909D01*
X-273Y-1911D01*
X-271Y-1912D01*
X-269Y-1913D01*
X-267Y-1913D01*
X-266Y-1914D01*
X-265Y-1914D01*
X-243D01*
Y-1874D01*
D02*
G37*
G36*
Y-1926D02*
X-268D01*
X-270Y-1926D01*
X-272Y-1927D01*
X-274Y-1928D01*
X-276Y-1928D01*
X-277Y-1929D01*
X-278Y-1930D01*
X-279Y-1931D01*
X-279Y-1931D01*
X-281Y-1933D01*
X-282Y-1935D01*
X-283Y-1936D01*
X-283Y-1938D01*
X-284Y-1940D01*
X-284Y-1941D01*
Y-1942D01*
Y-1942D01*
Y-1960D01*
X-284Y-1962D01*
X-283Y-1964D01*
X-282Y-1966D01*
X-281Y-1967D01*
X-281Y-1969D01*
X-280Y-1970D01*
X-279Y-1970D01*
X-279Y-1971D01*
X-277Y-1972D01*
X-275Y-1973D01*
X-273Y-1974D01*
X-272Y-1975D01*
X-270Y-1975D01*
X-269Y-1975D01*
X-243D01*
Y-1926D01*
D02*
G37*
G36*
X3383Y792D02*
X3257D01*
X3263D01*
X3262Y792D01*
X3261Y792D01*
X3260Y791D01*
X3259Y791D01*
X3258Y790D01*
X3257Y788D01*
X3257Y786D01*
Y787D01*
Y710D01*
Y715D01*
X3257Y715D01*
X3257Y714D01*
X3258Y713D01*
X3258Y711D01*
X3260Y711D01*
X3261Y710D01*
X3263Y710D01*
X3378D01*
X3379Y710D01*
X3380Y710D01*
X3382Y711D01*
X3382Y712D01*
X3383Y714D01*
X3383Y716D01*
Y721D01*
Y716D01*
X3383Y717D01*
X3383Y718D01*
X3383Y719D01*
X3382Y720D01*
X3381Y721D01*
X3379Y722D01*
X3377Y722D01*
X3281D01*
X3324Y746D01*
X3324Y746D01*
X3324Y746D01*
X3325Y747D01*
X3327Y749D01*
X3327Y750D01*
X3327Y751D01*
Y751D01*
X3327Y752D01*
X3327Y753D01*
X3326Y754D01*
X3326Y754D01*
X3325Y755D01*
X3324Y756D01*
X3281Y780D01*
X3377D01*
X3377D01*
X3378D01*
X3379Y780D01*
X3380Y780D01*
X3382Y781D01*
X3382Y782D01*
X3383Y784D01*
X3383Y786D01*
Y781D01*
Y786D01*
X3383Y787D01*
X3383Y788D01*
X3383Y789D01*
X3382Y790D01*
X3381Y791D01*
X3379Y792D01*
X3377Y792D01*
X3383D01*
D01*
D02*
G37*
G36*
Y696D02*
X3257D01*
X3284D01*
X3283Y695D01*
X3281Y695D01*
X3278Y694D01*
X3275Y693D01*
X3272Y692D01*
X3269Y690D01*
X3267Y689D01*
X3266Y687D01*
X3265Y687D01*
X3265Y687D01*
X3264Y686D01*
X3263Y684D01*
X3261Y682D01*
X3260Y679D01*
X3259Y676D01*
X3258Y672D01*
X3257Y670D01*
Y658D01*
X3258Y657D01*
Y656D01*
X3258Y655D01*
X3258Y652D01*
X3259Y649D01*
X3261Y645D01*
X3263Y642D01*
X3264Y640D01*
X3266Y639D01*
Y639D01*
X3266Y638D01*
X3267Y637D01*
X3269Y636D01*
X3271Y634D01*
X3274Y633D01*
X3277Y632D01*
X3281Y631D01*
X3283Y630D01*
X3357D01*
X3357Y631D01*
X3360Y631D01*
X3362Y631D01*
X3365Y632D01*
X3369Y634D01*
X3372Y636D01*
X3374Y637D01*
X3375Y639D01*
X3376Y639D01*
X3377Y640D01*
X3378Y642D01*
X3379Y644D01*
X3381Y647D01*
X3382Y651D01*
X3383Y654D01*
X3383Y656D01*
X3383Y659D01*
Y643D01*
Y669D01*
X3383Y669D01*
Y670D01*
X3383Y672D01*
X3382Y674D01*
X3381Y677D01*
X3380Y681D01*
X3378Y684D01*
X3377Y686D01*
X3375Y687D01*
X3375D01*
X3375Y688D01*
X3374Y689D01*
X3372Y690D01*
X3370Y691D01*
X3367Y693D01*
X3363Y694D01*
X3360Y695D01*
X3358Y695D01*
X3355Y696D01*
X3383D01*
D01*
D02*
G37*
G36*
Y616D02*
X3263D01*
X3263Y616D01*
X3262Y616D01*
X3260Y616D01*
X3259Y615D01*
X3258Y614D01*
X3258Y612D01*
X3257Y610D01*
Y611D01*
Y557D01*
X3258Y556D01*
X3258Y555D01*
X3259Y554D01*
X3260Y552D01*
X3261Y552D01*
X3263Y551D01*
X3264D01*
X3265Y552D01*
X3266Y552D01*
X3268Y553D01*
X3269Y554D01*
X3269Y556D01*
X3270Y558D01*
Y578D01*
X3377D01*
X3377D01*
X3378D01*
X3379Y578D01*
X3380Y579D01*
X3382Y579D01*
X3382Y580D01*
X3383Y582D01*
X3383Y584D01*
Y579D01*
Y584D01*
Y584D01*
D01*
Y589D01*
Y584D01*
X3383Y585D01*
X3383Y586D01*
X3383Y587D01*
X3382Y588D01*
X3381Y589D01*
X3379Y590D01*
X3377Y590D01*
X3270D01*
Y611D01*
X3269Y611D01*
X3269Y612D01*
X3269Y613D01*
X3268Y615D01*
X3267Y616D01*
X3265Y616D01*
X3263Y616D01*
X3383D01*
D01*
D02*
G37*
G36*
Y537D02*
X3257D01*
X3284D01*
X3283Y537D01*
X3281Y537D01*
X3278Y536D01*
X3275Y535D01*
X3272Y534D01*
X3269Y532D01*
X3267Y531D01*
X3266Y529D01*
X3265Y529D01*
X3265Y529D01*
X3264Y528D01*
X3263Y526D01*
X3261Y524D01*
X3260Y521D01*
X3259Y517D01*
X3258Y514D01*
X3257Y511D01*
D01*
Y499D01*
X3258Y499D01*
Y498D01*
X3258Y496D01*
X3258Y494D01*
X3259Y491D01*
X3261Y487D01*
X3263Y484D01*
X3264Y482D01*
X3266Y481D01*
Y480D01*
X3266Y480D01*
X3267Y479D01*
X3269Y478D01*
X3271Y476D01*
X3274Y475D01*
X3277Y474D01*
X3281Y473D01*
X3283Y472D01*
X3357D01*
X3357Y472D01*
X3360Y473D01*
X3362Y473D01*
X3365Y474D01*
X3369Y476D01*
X3372Y478D01*
X3374Y479D01*
X3375Y481D01*
X3376Y481D01*
X3377Y482D01*
X3378Y484D01*
X3379Y486D01*
X3381Y489D01*
X3382Y493D01*
X3383Y496D01*
X3383Y498D01*
X3383Y501D01*
Y472D01*
D01*
Y510D01*
X3383Y511D01*
Y512D01*
X3383Y514D01*
X3382Y516D01*
X3381Y519D01*
X3380Y523D01*
X3378Y526D01*
X3377Y528D01*
X3375Y529D01*
X3375D01*
X3375Y530D01*
X3374Y531D01*
X3372Y532D01*
X3370Y533D01*
X3367Y535D01*
X3363Y536D01*
X3360Y537D01*
X3358Y537D01*
X3355Y537D01*
X3383D01*
D01*
D02*
G37*
G36*
Y458D02*
X3263D01*
X3263Y458D01*
X3262Y458D01*
X3260Y458D01*
X3259Y457D01*
X3258Y456D01*
X3258Y454D01*
X3257Y452D01*
Y458D01*
D01*
Y393D01*
Y420D01*
X3258Y419D01*
Y419D01*
X3258Y417D01*
X3258Y415D01*
X3259Y411D01*
X3261Y408D01*
X3263Y405D01*
X3264Y403D01*
X3266Y401D01*
Y401D01*
X3266Y401D01*
X3267Y400D01*
X3269Y399D01*
X3271Y397D01*
X3274Y396D01*
X3277Y394D01*
X3281Y394D01*
X3283Y393D01*
X3304D01*
X3305Y393D01*
X3307Y394D01*
X3310Y394D01*
X3313Y395D01*
X3316Y397D01*
X3319Y399D01*
X3321Y400D01*
X3322Y401D01*
X3323Y402D01*
X3324Y403D01*
X3325Y405D01*
X3327Y407D01*
X3328Y410D01*
X3329Y414D01*
X3330Y417D01*
X3330Y419D01*
X3331Y421D01*
Y446D01*
X3377D01*
X3377D01*
X3378D01*
X3379Y446D01*
X3380Y447D01*
X3382Y447D01*
X3382Y449D01*
X3383Y450D01*
X3383Y452D01*
Y452D01*
X3383Y453D01*
X3383Y454D01*
X3383Y455D01*
X3382Y456D01*
X3381Y457D01*
X3379Y458D01*
X3377Y458D01*
X3383D01*
D01*
D02*
G37*
G36*
Y326D02*
X3290D01*
X3383D01*
D01*
D02*
G37*
G36*
X3290D02*
X3257D01*
X3289D01*
X3288Y326D01*
X3287Y326D01*
X3286Y325D01*
X3259Y299D01*
X3259Y298D01*
X3258Y297D01*
X3258Y296D01*
X3257Y294D01*
D01*
Y293D01*
X3258Y292D01*
X3258Y291D01*
X3259Y290D01*
X3260Y289D01*
X3261Y288D01*
X3263Y288D01*
X3257D01*
X3378D01*
X3379Y288D01*
X3380Y289D01*
X3382Y289D01*
X3382Y290D01*
X3383Y292D01*
X3383Y294D01*
Y290D01*
Y297D01*
Y294D01*
X3383Y295D01*
X3383Y296D01*
X3383Y297D01*
X3382Y298D01*
X3381Y299D01*
X3379Y300D01*
X3377Y300D01*
X3276D01*
X3294Y316D01*
X3294Y316D01*
X3295Y317D01*
X3295Y319D01*
X3296Y320D01*
Y321D01*
X3296Y322D01*
X3295Y323D01*
X3294Y325D01*
X3294Y325D01*
X3293Y326D01*
X3291Y326D01*
X3290Y326D01*
D02*
G37*
G36*
X3383Y274D02*
X3257D01*
Y208D01*
D01*
Y242D01*
X3257Y241D01*
Y239D01*
X3258Y238D01*
X3258Y235D01*
X3259Y231D01*
X3261Y227D01*
X3262Y225D01*
X3263Y223D01*
X3265Y221D01*
X3266Y219D01*
X3267Y219D01*
X3267Y219D01*
X3267Y218D01*
X3268Y217D01*
X3269Y217D01*
X3270Y216D01*
X3273Y214D01*
X3276Y212D01*
X3280Y210D01*
X3282Y209D01*
X3284Y209D01*
X3287Y208D01*
X3289Y208D01*
X3291D01*
X3293Y208D01*
X3295Y209D01*
X3298Y209D01*
X3301Y211D01*
X3305Y212D01*
X3308Y214D01*
X3371Y257D01*
Y214D01*
X3372Y213D01*
X3372Y212D01*
X3373Y211D01*
X3374Y210D01*
X3375Y209D01*
X3377Y209D01*
X3377D01*
X3378D01*
X3379Y209D01*
X3380Y210D01*
X3382Y210D01*
X3382Y212D01*
X3383Y213D01*
X3383Y215D01*
Y274D01*
D02*
G37*
G36*
Y-222D02*
X3257D01*
X3263D01*
X3262Y-222D01*
X3261Y-222D01*
X3260Y-222D01*
X3259Y-223D01*
X3258Y-224D01*
X3257Y-225D01*
X3257Y-227D01*
Y-227D01*
Y-304D01*
Y-298D01*
X3257Y-299D01*
X3257Y-300D01*
X3258Y-301D01*
X3258Y-302D01*
X3260Y-303D01*
X3261Y-304D01*
X3263Y-304D01*
X3378D01*
X3379Y-304D01*
X3380Y-303D01*
X3382Y-302D01*
X3382Y-301D01*
X3383Y-300D01*
X3383Y-298D01*
Y-293D01*
Y-297D01*
X3383Y-297D01*
X3383Y-296D01*
X3383Y-295D01*
X3382Y-293D01*
X3381Y-292D01*
X3379Y-292D01*
X3377Y-292D01*
X3281D01*
X3324Y-268D01*
X3324Y-268D01*
X3324Y-268D01*
X3325Y-267D01*
X3327Y-265D01*
X3327Y-264D01*
X3327Y-263D01*
Y-262D01*
X3327Y-262D01*
X3327Y-261D01*
X3326Y-260D01*
X3326Y-259D01*
X3325Y-258D01*
X3324Y-257D01*
X3281Y-234D01*
X3377D01*
X3377D01*
X3378D01*
X3379Y-234D01*
X3380Y-233D01*
X3382Y-232D01*
X3382Y-231D01*
X3383Y-230D01*
X3383Y-228D01*
Y-232D01*
Y-227D01*
X3383Y-227D01*
X3383Y-226D01*
X3383Y-225D01*
X3382Y-223D01*
X3381Y-222D01*
X3379Y-222D01*
X3377Y-222D01*
X3383D01*
D01*
D02*
G37*
G36*
Y-318D02*
X3257D01*
X3284D01*
X3283Y-318D01*
X3281Y-318D01*
X3278Y-319D01*
X3275Y-320D01*
X3272Y-321D01*
X3269Y-324D01*
X3267Y-325D01*
X3266Y-326D01*
X3265Y-326D01*
X3265Y-326D01*
X3264Y-328D01*
X3263Y-329D01*
X3261Y-332D01*
X3260Y-335D01*
X3259Y-338D01*
X3258Y-342D01*
X3257Y-344D01*
Y-356D01*
X3258Y-357D01*
Y-358D01*
X3258Y-359D01*
X3258Y-362D01*
X3259Y-365D01*
X3261Y-368D01*
X3263Y-371D01*
X3264Y-373D01*
X3266Y-375D01*
Y-375D01*
X3266Y-375D01*
X3267Y-376D01*
X3269Y-377D01*
X3271Y-379D01*
X3274Y-381D01*
X3277Y-382D01*
X3281Y-383D01*
X3283Y-383D01*
X3357D01*
X3357Y-383D01*
X3360Y-383D01*
X3362Y-382D01*
X3365Y-381D01*
X3369Y-380D01*
X3372Y-378D01*
X3374Y-376D01*
X3375Y-375D01*
X3376Y-374D01*
X3377Y-373D01*
X3378Y-371D01*
X3379Y-369D01*
X3381Y-366D01*
X3382Y-363D01*
X3383Y-359D01*
X3383Y-357D01*
X3383Y-355D01*
Y-371D01*
Y-345D01*
X3383Y-344D01*
Y-343D01*
X3383Y-342D01*
X3382Y-339D01*
X3381Y-336D01*
X3380Y-333D01*
X3378Y-329D01*
X3377Y-328D01*
X3375Y-326D01*
X3375D01*
X3375Y-326D01*
X3374Y-325D01*
X3372Y-324D01*
X3370Y-322D01*
X3367Y-321D01*
X3363Y-319D01*
X3360Y-318D01*
X3358Y-318D01*
X3355Y-318D01*
X3383D01*
D01*
D02*
G37*
G36*
Y-397D02*
X3263D01*
X3263Y-397D01*
X3262Y-397D01*
X3260Y-398D01*
X3259Y-399D01*
X3258Y-400D01*
X3258Y-401D01*
X3257Y-403D01*
Y-402D01*
Y-457D01*
X3258Y-458D01*
X3258Y-459D01*
X3259Y-460D01*
X3260Y-461D01*
X3261Y-462D01*
X3263Y-462D01*
X3264D01*
X3265Y-462D01*
X3266Y-461D01*
X3268Y-461D01*
X3269Y-459D01*
X3269Y-458D01*
X3270Y-456D01*
Y-436D01*
X3377D01*
X3377D01*
X3378D01*
X3379Y-435D01*
X3380Y-435D01*
X3382Y-434D01*
X3382Y-433D01*
X3383Y-431D01*
X3383Y-429D01*
Y-429D01*
X3383Y-429D01*
X3383Y-428D01*
X3383Y-426D01*
X3382Y-425D01*
X3381Y-424D01*
X3379Y-424D01*
X3377Y-423D01*
X3270D01*
Y-403D01*
X3269Y-402D01*
X3269Y-401D01*
X3269Y-400D01*
X3268Y-399D01*
X3267Y-398D01*
X3265Y-397D01*
X3263Y-397D01*
X3383D01*
D01*
D02*
G37*
G36*
Y-424D02*
Y-429D01*
D01*
Y-424D01*
D02*
G37*
G36*
Y-476D02*
X3257D01*
X3284D01*
X3283Y-476D01*
X3281Y-476D01*
X3278Y-477D01*
X3275Y-478D01*
X3272Y-480D01*
X3269Y-482D01*
X3267Y-483D01*
X3266Y-484D01*
X3265Y-484D01*
X3265Y-485D01*
X3264Y-486D01*
X3263Y-487D01*
X3261Y-490D01*
X3260Y-493D01*
X3259Y-496D01*
X3258Y-500D01*
X3257Y-502D01*
D01*
Y-514D01*
X3258Y-515D01*
Y-516D01*
X3258Y-517D01*
X3258Y-520D01*
X3259Y-523D01*
X3261Y-526D01*
X3263Y-530D01*
X3264Y-531D01*
X3266Y-533D01*
Y-533D01*
X3266Y-533D01*
X3267Y-534D01*
X3269Y-536D01*
X3271Y-537D01*
X3274Y-539D01*
X3277Y-540D01*
X3281Y-541D01*
X3283Y-541D01*
X3357D01*
X3357Y-541D01*
X3360Y-541D01*
X3362Y-540D01*
X3365Y-539D01*
X3369Y-538D01*
X3372Y-536D01*
X3374Y-534D01*
X3375Y-533D01*
X3376Y-533D01*
X3377Y-531D01*
X3378Y-530D01*
X3379Y-527D01*
X3381Y-524D01*
X3382Y-521D01*
X3383Y-517D01*
X3383Y-515D01*
X3383Y-513D01*
Y-541D01*
D01*
Y-503D01*
X3383Y-502D01*
Y-501D01*
X3383Y-500D01*
X3382Y-497D01*
X3381Y-494D01*
X3380Y-491D01*
X3378Y-487D01*
X3377Y-486D01*
X3375Y-484D01*
X3375D01*
X3375Y-484D01*
X3374Y-483D01*
X3372Y-482D01*
X3370Y-480D01*
X3367Y-479D01*
X3363Y-477D01*
X3360Y-476D01*
X3358Y-476D01*
X3355Y-476D01*
X3383D01*
D01*
D02*
G37*
G36*
Y-555D02*
X3263D01*
X3263Y-555D01*
X3262Y-556D01*
X3260Y-556D01*
X3259Y-557D01*
X3258Y-558D01*
X3258Y-559D01*
X3257Y-561D01*
Y-555D01*
D01*
Y-620D01*
Y-593D01*
X3258Y-594D01*
Y-595D01*
X3258Y-596D01*
X3258Y-599D01*
X3259Y-602D01*
X3261Y-605D01*
X3263Y-609D01*
X3264Y-610D01*
X3266Y-612D01*
Y-612D01*
X3266Y-612D01*
X3267Y-613D01*
X3269Y-615D01*
X3271Y-616D01*
X3274Y-618D01*
X3277Y-619D01*
X3281Y-620D01*
X3283Y-620D01*
X3304D01*
X3305Y-620D01*
X3307Y-620D01*
X3310Y-619D01*
X3313Y-618D01*
X3316Y-617D01*
X3319Y-615D01*
X3321Y-614D01*
X3322Y-612D01*
X3323Y-612D01*
X3324Y-611D01*
X3325Y-609D01*
X3327Y-606D01*
X3328Y-604D01*
X3329Y-600D01*
X3330Y-596D01*
X3330Y-594D01*
X3331Y-592D01*
Y-568D01*
X3377D01*
X3377D01*
X3378D01*
X3379Y-567D01*
X3380Y-567D01*
X3382Y-566D01*
X3382Y-565D01*
X3383Y-563D01*
X3383Y-561D01*
Y-561D01*
X3383Y-560D01*
X3383Y-559D01*
X3383Y-558D01*
X3382Y-557D01*
X3381Y-556D01*
X3379Y-555D01*
X3377Y-555D01*
X3383D01*
D01*
D02*
G37*
G36*
Y-687D02*
X3290D01*
X3383D01*
D01*
D02*
G37*
G36*
X3290D02*
X3257D01*
X3289D01*
X3288Y-687D01*
X3287Y-688D01*
X3286Y-688D01*
X3259Y-715D01*
X3259Y-715D01*
X3258Y-716D01*
X3258Y-718D01*
X3257Y-719D01*
D01*
Y-720D01*
X3258Y-721D01*
X3258Y-723D01*
X3259Y-724D01*
X3260Y-725D01*
X3261Y-726D01*
X3263Y-726D01*
X3257D01*
X3378D01*
X3379Y-725D01*
X3380Y-725D01*
X3382Y-724D01*
X3382Y-723D01*
X3383Y-721D01*
X3383Y-719D01*
Y-724D01*
Y-716D01*
Y-719D01*
X3383Y-718D01*
X3383Y-718D01*
X3383Y-716D01*
X3382Y-715D01*
X3381Y-714D01*
X3379Y-713D01*
X3377Y-713D01*
X3276D01*
X3294Y-698D01*
X3294Y-697D01*
X3295Y-696D01*
X3295Y-695D01*
X3296Y-693D01*
Y-693D01*
X3296Y-692D01*
X3295Y-690D01*
X3294Y-689D01*
X3294Y-688D01*
X3293Y-688D01*
X3291Y-687D01*
X3290Y-687D01*
D02*
G37*
G36*
X3383Y-740D02*
X3290D01*
X3383D01*
D01*
D02*
G37*
G36*
X3290D02*
X3257D01*
Y-778D01*
D01*
Y-773D01*
X3258Y-774D01*
X3258Y-775D01*
X3259Y-776D01*
X3260Y-778D01*
X3261Y-778D01*
X3263Y-778D01*
X3257D01*
X3378D01*
X3379Y-778D01*
X3380Y-778D01*
X3382Y-777D01*
X3382Y-776D01*
X3383Y-774D01*
X3383Y-772D01*
Y-772D01*
X3383Y-771D01*
X3383Y-770D01*
X3383Y-769D01*
X3382Y-768D01*
X3381Y-767D01*
X3379Y-766D01*
X3377Y-766D01*
X3276D01*
X3294Y-750D01*
X3294Y-750D01*
X3295Y-749D01*
X3295Y-748D01*
X3296Y-746D01*
Y-746D01*
X3296Y-745D01*
X3295Y-743D01*
X3294Y-742D01*
X3294Y-741D01*
X3293Y-741D01*
X3291Y-740D01*
X3290Y-740D01*
D02*
G37*
%LPD*%
G36*
X3257Y785D02*
X3257Y784D01*
X3258Y783D01*
X3258Y782D01*
X3259Y781D01*
X3260Y781D01*
X3310Y751D01*
X3260Y721D01*
X3260Y721D01*
X3260Y721D01*
X3259Y720D01*
X3258Y720D01*
X3257Y718D01*
X3257Y717D01*
X3257Y716D01*
Y786D01*
X3257Y785D01*
D02*
G37*
G36*
X3358Y683D02*
X3359Y683D01*
X3361Y682D01*
X3363Y681D01*
X3365Y680D01*
X3367Y678D01*
X3367Y678D01*
X3367Y678D01*
X3368Y677D01*
X3369Y675D01*
X3370Y674D01*
X3370Y672D01*
X3371Y670D01*
X3371Y667D01*
Y658D01*
X3371Y656D01*
X3371Y655D01*
X3370Y653D01*
X3369Y651D01*
X3368Y649D01*
X3367Y648D01*
X3367Y647D01*
X3366Y647D01*
X3365Y646D01*
X3364Y645D01*
X3362Y644D01*
X3360Y644D01*
X3358Y643D01*
X3355Y643D01*
X3285D01*
X3285D01*
X3284D01*
X3283Y643D01*
X3281Y643D01*
X3280Y644D01*
X3278Y645D01*
X3276Y646D01*
X3274Y648D01*
X3274Y648D01*
X3273Y648D01*
X3273Y649D01*
X3272Y651D01*
X3271Y652D01*
X3270Y654D01*
X3270Y656D01*
X3270Y659D01*
Y669D01*
X3270Y670D01*
X3270Y671D01*
X3271Y673D01*
X3272Y675D01*
X3273Y677D01*
X3274Y678D01*
X3275Y679D01*
X3275Y679D01*
X3276Y680D01*
X3278Y681D01*
X3279Y682D01*
X3281Y682D01*
X3283Y683D01*
X3285Y683D01*
X3355D01*
X3356D01*
X3357D01*
X3358Y683D01*
D02*
G37*
G36*
Y525D02*
X3359Y524D01*
X3361Y524D01*
X3363Y523D01*
X3365Y522D01*
X3367Y520D01*
X3367Y520D01*
X3367Y520D01*
X3368Y519D01*
X3369Y517D01*
X3370Y516D01*
X3370Y514D01*
X3371Y512D01*
X3371Y509D01*
Y499D01*
X3371Y498D01*
X3371Y497D01*
X3370Y495D01*
X3369Y493D01*
X3368Y491D01*
X3367Y489D01*
X3367Y489D01*
X3366Y489D01*
X3365Y488D01*
X3364Y487D01*
X3362Y486D01*
X3360Y485D01*
X3358Y485D01*
X3355Y485D01*
X3285D01*
X3285D01*
X3284D01*
X3283Y485D01*
X3281Y485D01*
X3280Y486D01*
X3278Y487D01*
X3276Y488D01*
X3274Y489D01*
X3274Y490D01*
X3273Y490D01*
X3273Y491D01*
X3272Y493D01*
X3271Y494D01*
X3270Y496D01*
X3270Y498D01*
X3270Y501D01*
Y510D01*
X3270Y511D01*
X3270Y513D01*
X3271Y515D01*
X3272Y517D01*
X3273Y519D01*
X3274Y520D01*
X3275Y521D01*
X3275Y521D01*
X3276Y522D01*
X3278Y523D01*
X3279Y524D01*
X3281Y524D01*
X3283Y525D01*
X3285Y525D01*
X3355D01*
X3356D01*
X3357D01*
X3358Y525D01*
D02*
G37*
G36*
X3318Y420D02*
X3318Y419D01*
X3318Y418D01*
X3317Y416D01*
X3317Y414D01*
X3315Y412D01*
X3314Y410D01*
X3314Y410D01*
X3313Y410D01*
X3312Y409D01*
X3311Y408D01*
X3309Y407D01*
X3307Y406D01*
X3305Y406D01*
X3303Y406D01*
X3285D01*
X3285D01*
X3284D01*
X3283Y406D01*
X3281Y406D01*
X3280Y407D01*
X3278Y408D01*
X3276Y409D01*
X3274Y410D01*
X3274Y411D01*
X3273Y411D01*
X3273Y412D01*
X3272Y414D01*
X3271Y415D01*
X3270Y417D01*
X3270Y419D01*
X3270Y421D01*
Y446D01*
X3318D01*
Y420D01*
D02*
G37*
G36*
X3383Y268D02*
X3383Y268D01*
X3383Y269D01*
X3383Y270D01*
X3382Y272D01*
X3381Y273D01*
X3379Y273D01*
X3377Y274D01*
X3383D01*
Y268D01*
D02*
G37*
G36*
X3376Y273D02*
X3375Y273D01*
X3374Y273D01*
X3301Y225D01*
X3301Y225D01*
X3300Y224D01*
X3299Y224D01*
X3297Y223D01*
X3295Y222D01*
X3293Y221D01*
X3291Y221D01*
X3289Y221D01*
X3289D01*
X3289D01*
X3288Y221D01*
X3286Y221D01*
X3284Y222D01*
X3282Y222D01*
X3280Y224D01*
X3278Y225D01*
X3275Y228D01*
X3275Y228D01*
X3274Y229D01*
X3273Y230D01*
X3272Y232D01*
X3271Y234D01*
X3270Y237D01*
X3270Y239D01*
X3270Y242D01*
Y244D01*
X3270Y244D01*
X3270Y247D01*
X3271Y249D01*
X3272Y251D01*
X3273Y252D01*
X3274Y254D01*
X3275Y255D01*
X3277Y256D01*
X3279Y258D01*
X3281Y259D01*
X3283Y260D01*
X3284D01*
X3284Y261D01*
X3285Y262D01*
X3286Y262D01*
X3287Y263D01*
X3287Y265D01*
X3287Y266D01*
Y266D01*
X3287Y267D01*
X3287Y268D01*
X3287Y269D01*
X3286Y270D01*
X3285Y271D01*
X3283Y272D01*
X3281Y272D01*
X3281D01*
X3280D01*
X3279Y272D01*
X3279Y272D01*
X3278Y272D01*
X3277Y271D01*
X3276Y270D01*
X3274Y269D01*
X3272Y268D01*
X3270Y267D01*
X3268Y265D01*
X3266Y264D01*
X3264Y261D01*
X3262Y259D01*
X3261Y256D01*
X3259Y254D01*
X3258Y250D01*
X3257Y247D01*
X3257Y243D01*
Y274D01*
X3377D01*
X3376Y273D01*
D02*
G37*
G36*
X3257Y-229D02*
X3257Y-229D01*
X3258Y-230D01*
X3258Y-231D01*
X3259Y-232D01*
X3260Y-233D01*
X3310Y-263D01*
X3260Y-292D01*
X3260Y-292D01*
X3260Y-293D01*
X3259Y-293D01*
X3258Y-294D01*
X3257Y-296D01*
X3257Y-297D01*
X3257Y-298D01*
Y-228D01*
X3257Y-229D01*
D02*
G37*
G36*
X3358Y-331D02*
X3359Y-331D01*
X3361Y-331D01*
X3363Y-332D01*
X3365Y-334D01*
X3367Y-335D01*
X3367Y-335D01*
X3367Y-336D01*
X3368Y-337D01*
X3369Y-338D01*
X3370Y-340D01*
X3370Y-342D01*
X3371Y-344D01*
X3371Y-346D01*
Y-356D01*
X3371Y-357D01*
X3371Y-359D01*
X3370Y-360D01*
X3369Y-362D01*
X3368Y-364D01*
X3367Y-366D01*
X3367Y-366D01*
X3366Y-367D01*
X3365Y-367D01*
X3364Y-368D01*
X3362Y-369D01*
X3360Y-370D01*
X3358Y-371D01*
X3355Y-371D01*
X3285D01*
X3285D01*
X3284D01*
X3283Y-371D01*
X3281Y-370D01*
X3280Y-370D01*
X3278Y-369D01*
X3276Y-368D01*
X3274Y-366D01*
X3274Y-366D01*
X3273Y-365D01*
X3273Y-364D01*
X3272Y-363D01*
X3271Y-361D01*
X3270Y-359D01*
X3270Y-357D01*
X3270Y-355D01*
Y-345D01*
X3270Y-344D01*
X3270Y-342D01*
X3271Y-341D01*
X3272Y-339D01*
X3273Y-337D01*
X3274Y-335D01*
X3275Y-335D01*
X3275Y-334D01*
X3276Y-334D01*
X3278Y-333D01*
X3279Y-332D01*
X3281Y-331D01*
X3283Y-331D01*
X3285Y-330D01*
X3355D01*
X3356D01*
X3357D01*
X3358Y-331D01*
D02*
G37*
G36*
Y-489D02*
X3359Y-489D01*
X3361Y-490D01*
X3363Y-491D01*
X3365Y-492D01*
X3367Y-493D01*
X3367Y-493D01*
X3367Y-494D01*
X3368Y-495D01*
X3369Y-496D01*
X3370Y-498D01*
X3370Y-500D01*
X3371Y-502D01*
X3371Y-504D01*
Y-514D01*
X3371Y-515D01*
X3371Y-517D01*
X3370Y-519D01*
X3369Y-520D01*
X3368Y-522D01*
X3367Y-524D01*
X3367Y-524D01*
X3366Y-525D01*
X3365Y-526D01*
X3364Y-526D01*
X3362Y-527D01*
X3360Y-528D01*
X3358Y-529D01*
X3355Y-529D01*
X3285D01*
X3285D01*
X3284D01*
X3283Y-529D01*
X3281Y-528D01*
X3280Y-528D01*
X3278Y-527D01*
X3276Y-526D01*
X3274Y-524D01*
X3274Y-524D01*
X3273Y-523D01*
X3273Y-522D01*
X3272Y-521D01*
X3271Y-519D01*
X3270Y-517D01*
X3270Y-515D01*
X3270Y-513D01*
Y-503D01*
X3270Y-502D01*
X3270Y-500D01*
X3271Y-499D01*
X3272Y-497D01*
X3273Y-495D01*
X3274Y-493D01*
X3275Y-493D01*
X3275Y-492D01*
X3276Y-492D01*
X3278Y-491D01*
X3279Y-490D01*
X3281Y-489D01*
X3283Y-489D01*
X3285Y-489D01*
X3355D01*
X3356D01*
X3357D01*
X3358Y-489D01*
D02*
G37*
G36*
X3318Y-593D02*
X3318Y-594D01*
X3318Y-596D01*
X3317Y-598D01*
X3317Y-599D01*
X3315Y-601D01*
X3314Y-603D01*
X3314Y-603D01*
X3313Y-604D01*
X3312Y-605D01*
X3311Y-606D01*
X3309Y-606D01*
X3307Y-607D01*
X3305Y-608D01*
X3303Y-608D01*
X3285D01*
X3285D01*
X3284D01*
X3283Y-608D01*
X3281Y-607D01*
X3280Y-607D01*
X3278Y-606D01*
X3276Y-605D01*
X3274Y-603D01*
X3274Y-603D01*
X3273Y-602D01*
X3273Y-601D01*
X3272Y-600D01*
X3271Y-598D01*
X3270Y-596D01*
X3270Y-594D01*
X3270Y-592D01*
Y-568D01*
X3318D01*
Y-593D01*
D02*
G37*
G36*
X3288Y-740D02*
X3287Y-740D01*
X3286Y-741D01*
X3259Y-768D01*
X3259Y-768D01*
X3258Y-769D01*
X3258Y-770D01*
X3257Y-772D01*
Y-740D01*
X3289D01*
X3288Y-740D01*
D02*
G37*
%LPC*%
G36*
X525Y-1549D02*
X501D01*
X499Y-1549D01*
X497Y-1550D01*
X495Y-1551D01*
X493Y-1551D01*
X492Y-1552D01*
X491Y-1553D01*
X490Y-1554D01*
X490Y-1554D01*
X488Y-1556D01*
X487Y-1558D01*
X486Y-1559D01*
X486Y-1561D01*
X485Y-1563D01*
X485Y-1564D01*
Y-1565D01*
Y-1565D01*
Y-1583D01*
X485Y-1585D01*
X486Y-1587D01*
X487Y-1589D01*
X487Y-1591D01*
X488Y-1592D01*
X489Y-1593D01*
X490Y-1594D01*
X490Y-1594D01*
X492Y-1595D01*
X494Y-1596D01*
X495Y-1597D01*
X497Y-1598D01*
X499Y-1598D01*
X500Y-1598D01*
X525D01*
Y-1549D01*
D02*
G37*
G36*
X432D02*
X422D01*
X419Y-1549D01*
X417Y-1550D01*
X416Y-1551D01*
X414Y-1551D01*
X413Y-1552D01*
X412Y-1553D01*
X411Y-1554D01*
X411Y-1554D01*
X409Y-1556D01*
X408Y-1558D01*
X407Y-1559D01*
X407Y-1561D01*
X406Y-1563D01*
X406Y-1564D01*
Y-1565D01*
Y-1565D01*
Y-1635D01*
X406Y-1638D01*
X407Y-1640D01*
X407Y-1642D01*
X408Y-1643D01*
X409Y-1645D01*
X410Y-1646D01*
X411Y-1646D01*
X411Y-1646D01*
X413Y-1648D01*
X414Y-1649D01*
X416Y-1650D01*
X418Y-1650D01*
X420Y-1651D01*
X421Y-1651D01*
X431D01*
X433Y-1651D01*
X435Y-1650D01*
X437Y-1649D01*
X439Y-1649D01*
X440Y-1648D01*
X441Y-1647D01*
X442Y-1646D01*
X442Y-1646D01*
X443Y-1644D01*
X444Y-1643D01*
X445Y-1641D01*
X446Y-1639D01*
X446Y-1637D01*
X446Y-1636D01*
Y-1636D01*
Y-1635D01*
Y-1565D01*
X446Y-1563D01*
X446Y-1561D01*
X445Y-1559D01*
X444Y-1557D01*
X443Y-1556D01*
X442Y-1555D01*
X442Y-1554D01*
X442Y-1554D01*
X440Y-1552D01*
X438Y-1551D01*
X436Y-1550D01*
X434Y-1550D01*
X433Y-1549D01*
X432Y-1549D01*
D02*
G37*
G36*
X367Y-1602D02*
X343D01*
X340Y-1602D01*
X338Y-1603D01*
X337Y-1603D01*
X335Y-1604D01*
X334Y-1605D01*
X332Y-1606D01*
X332Y-1606D01*
X332Y-1606D01*
X330Y-1608D01*
X329Y-1610D01*
X328Y-1612D01*
X327Y-1614D01*
X327Y-1615D01*
X327Y-1616D01*
Y-1617D01*
Y-1618D01*
Y-1635D01*
X327Y-1638D01*
X328Y-1640D01*
X328Y-1641D01*
X329Y-1643D01*
X330Y-1644D01*
X331Y-1646D01*
X332Y-1646D01*
X332Y-1646D01*
X334Y-1648D01*
X335Y-1649D01*
X337Y-1650D01*
X339Y-1650D01*
X341Y-1651D01*
X342Y-1651D01*
X367D01*
Y-1602D01*
D02*
G37*
G36*
X274Y-1549D02*
X264D01*
X261Y-1549D01*
X259Y-1550D01*
X257Y-1551D01*
X256Y-1551D01*
X255Y-1552D01*
X253Y-1553D01*
X253Y-1554D01*
X253Y-1554D01*
X251Y-1556D01*
X250Y-1558D01*
X249Y-1559D01*
X248Y-1561D01*
X248Y-1563D01*
X248Y-1564D01*
Y-1565D01*
Y-1565D01*
Y-1635D01*
X248Y-1638D01*
X249Y-1640D01*
X249Y-1642D01*
X250Y-1643D01*
X251Y-1645D01*
X252Y-1646D01*
X252Y-1646D01*
X253Y-1646D01*
X255Y-1648D01*
X256Y-1649D01*
X258Y-1650D01*
X260Y-1650D01*
X262Y-1651D01*
X263Y-1651D01*
X272D01*
X275Y-1651D01*
X277Y-1650D01*
X279Y-1649D01*
X280Y-1649D01*
X282Y-1648D01*
X283Y-1647D01*
X283Y-1646D01*
X284Y-1646D01*
X285Y-1644D01*
X286Y-1643D01*
X287Y-1641D01*
X288Y-1639D01*
X288Y-1637D01*
X288Y-1636D01*
Y-1636D01*
Y-1635D01*
Y-1565D01*
X288Y-1563D01*
X287Y-1561D01*
X287Y-1559D01*
X286Y-1557D01*
X285Y-1556D01*
X284Y-1555D01*
X284Y-1554D01*
X284Y-1554D01*
X282Y-1552D01*
X280Y-1551D01*
X278Y-1550D01*
X276Y-1550D01*
X275Y-1549D01*
X274Y-1549D01*
D02*
G37*
G36*
X60Y-1602D02*
X35D01*
X33Y-1602D01*
X31Y-1603D01*
X29Y-1603D01*
X27Y-1604D01*
X26Y-1605D01*
X25Y-1606D01*
X24Y-1606D01*
X24Y-1606D01*
X22Y-1608D01*
X21Y-1610D01*
X20Y-1612D01*
X20Y-1614D01*
X20Y-1615D01*
X19Y-1616D01*
Y-1617D01*
Y-1618D01*
Y-1635D01*
X20Y-1638D01*
X20Y-1640D01*
X21Y-1641D01*
X22Y-1643D01*
X23Y-1644D01*
X23Y-1646D01*
X24Y-1646D01*
X24Y-1646D01*
X26Y-1648D01*
X28Y-1649D01*
X30Y-1650D01*
X31Y-1650D01*
X33Y-1651D01*
X34Y-1651D01*
X60D01*
Y-1602D01*
D02*
G37*
G36*
X-44Y-1562D02*
X-57Y-1616D01*
X-30D01*
X-44Y-1562D01*
D02*
G37*
G36*
X-290D02*
X-303Y-1616D01*
X-276D01*
X-290Y-1562D01*
D02*
G37*
G36*
X-500Y-1549D02*
X-509D01*
X-512Y-1549D01*
X-514Y-1550D01*
X-516Y-1551D01*
X-517Y-1551D01*
X-519Y-1552D01*
X-520Y-1553D01*
X-520Y-1554D01*
X-521Y-1554D01*
X-522Y-1556D01*
X-523Y-1558D01*
X-524Y-1559D01*
X-525Y-1561D01*
X-525Y-1563D01*
X-525Y-1564D01*
Y-1565D01*
Y-1565D01*
Y-1635D01*
X-525Y-1638D01*
X-525Y-1640D01*
X-524Y-1642D01*
X-523Y-1643D01*
X-522Y-1645D01*
X-521Y-1646D01*
X-521Y-1646D01*
X-521Y-1646D01*
X-519Y-1648D01*
X-517Y-1649D01*
X-515Y-1650D01*
X-513Y-1650D01*
X-512Y-1651D01*
X-511Y-1651D01*
X-501D01*
X-498Y-1651D01*
X-496Y-1650D01*
X-494Y-1649D01*
X-493Y-1649D01*
X-492Y-1648D01*
X-490Y-1647D01*
X-490Y-1646D01*
X-490Y-1646D01*
X-488Y-1644D01*
X-487Y-1643D01*
X-486Y-1641D01*
X-486Y-1639D01*
X-485Y-1637D01*
X-485Y-1636D01*
Y-1636D01*
Y-1635D01*
Y-1565D01*
X-485Y-1563D01*
X-486Y-1561D01*
X-487Y-1559D01*
X-487Y-1557D01*
X-488Y-1556D01*
X-489Y-1555D01*
X-489Y-1554D01*
X-490Y-1554D01*
X-492Y-1552D01*
X-493Y-1551D01*
X-495Y-1550D01*
X-497Y-1550D01*
X-499Y-1549D01*
X-500Y-1549D01*
D02*
G37*
%LPD*%
D10*
X1920Y1050D02*
Y1550D01*
X2240Y1050D02*
Y1550D01*
X1920Y1050D02*
X2240D01*
X1920Y1550D02*
X2240D01*
X-1790Y-1550D02*
Y-1050D01*
X-2110Y-1550D02*
Y-1050D01*
X-1790D01*
X-2110Y-1550D02*
X-1790D01*
X-3200Y-1000D02*
Y0D01*
X-2440Y-1000D02*
Y0D01*
X-3200D02*
X-2440D01*
X-3200Y-1000D02*
X-2440D01*
X-3200Y0D02*
Y1000D01*
X-2440Y0D02*
Y1000D01*
X-3200D02*
X-2440D01*
X-3200Y0D02*
X-2440D01*
X3200D02*
Y1000D01*
X2440Y0D02*
Y1000D01*
Y0D02*
X3200D01*
X2440Y1000D02*
X3200D01*
Y-1000D02*
Y0D01*
X2440Y-1000D02*
Y0D01*
Y-1000D02*
X3200D01*
X2440Y0D02*
X3200D01*
X-635Y1427D02*
X635D01*
X-635Y1173D02*
Y1427D01*
Y1173D02*
X635D01*
Y1427D01*
X-2075Y-1910D02*
Y-1590D01*
X-2333Y-1910D02*
Y-1590D01*
X-1568D01*
Y-1910D02*
Y-1590D01*
X-2333Y-1910D02*
X-1568D01*
X2205Y1590D02*
Y1910D01*
X2462Y1590D02*
Y1910D01*
X1698Y1590D02*
X2462D01*
X1698D02*
Y1910D01*
X2462D01*
X1870Y-3810D02*
X2230D01*
X1870Y-3990D02*
X2230D01*
Y-3810D01*
X1870Y-3990D02*
Y-3810D01*
X-2005Y-3815D02*
X-1645D01*
X-2005Y-3635D02*
X-1645D01*
X-2005Y-3815D02*
Y-3635D01*
X-1645Y-3815D02*
Y-3635D01*
X2340Y4455D02*
X2520D01*
X2340Y4095D02*
X2520D01*
X2340D02*
Y4455D01*
X2520Y4095D02*
Y4455D01*
X-2380Y3790D02*
Y3970D01*
X-2740Y3790D02*
Y3970D01*
X-2380D01*
X-2740Y3790D02*
X-2380D01*
X-500Y-3160D02*
Y-2840D01*
X500Y-3160D02*
Y-2840D01*
X-500D02*
X500D01*
X-500Y-3160D02*
X500D01*
X-550Y-6160D02*
X-360Y-6350D01*
X550D01*
X-550Y-6160D02*
Y-5840D01*
X-360Y-5650D01*
X550D01*
Y-6350D02*
Y-5650D01*
X-1340Y-6450D02*
X-1150Y-6260D01*
Y-5350D01*
X-1660Y-6450D02*
X-1340D01*
X-1850Y-6260D02*
X-1660Y-6450D01*
X-1850Y-6260D02*
Y-5350D01*
X-1150D01*
X-2340Y-6450D02*
X-2150Y-6260D01*
Y-5350D01*
X-2660Y-6450D02*
X-2340D01*
X-2850Y-6260D02*
X-2660Y-6450D01*
X-2850Y-6260D02*
Y-5350D01*
X-2150D01*
X360Y6350D02*
X550Y6160D01*
X-550Y6350D02*
X360D01*
X550Y5840D02*
Y6160D01*
X360Y5650D02*
X550Y5840D01*
X-550Y5650D02*
X360D01*
X-550D02*
Y6350D01*
X-1850Y6260D02*
X-1660Y6450D01*
X-1850Y5350D02*
Y6260D01*
X-1660Y6450D02*
X-1340D01*
X-1150Y6260D01*
Y5350D02*
Y6260D01*
X-1850Y5350D02*
X-1150D01*
X-2850Y6260D02*
X-2660Y6450D01*
X-2850Y5350D02*
Y6260D01*
X-2660Y6450D02*
X-2340D01*
X-2150Y6260D01*
Y5350D02*
Y6260D01*
X-2850Y5350D02*
X-2150D01*
X960Y1697D02*
X1140D01*
X960Y1228D02*
Y1697D01*
Y1228D02*
X1140D01*
Y1697D01*
X960Y1388D02*
X1140D01*
X1200Y-640D02*
Y-280D01*
X1020Y-640D02*
Y-280D01*
Y-640D02*
X1200D01*
X1020Y-280D02*
X1200D01*
X-790D02*
Y80D01*
X-970Y-280D02*
Y80D01*
Y-280D02*
X-790D01*
X-970Y80D02*
X-790D01*
X670Y-685D02*
X1030D01*
X670Y-865D02*
X1030D01*
Y-685D01*
X670Y-865D02*
Y-685D01*
X-600Y-280D02*
Y80D01*
X-780Y-280D02*
Y80D01*
Y-280D02*
X-600D01*
X-780Y80D02*
X-600D01*
X670Y-15D02*
X1030D01*
X670Y165D02*
X1030D01*
X670Y-15D02*
Y165D01*
X1030Y-15D02*
Y165D01*
X670Y-190D02*
X1030D01*
X670Y-10D02*
X1030D01*
X670Y-190D02*
Y-10D01*
X1030Y-190D02*
Y-10D01*
X440Y4278D02*
Y5044D01*
Y4278D02*
X760D01*
Y5044D01*
X440D02*
X760D01*
X440Y4786D02*
X760D01*
X-760Y4278D02*
Y5044D01*
Y4278D02*
X-440D01*
Y5044D01*
X-760D02*
X-440D01*
X-760Y4786D02*
X-440D01*
X-330Y4615D02*
Y4710D01*
X330D01*
Y4615D02*
Y4710D01*
X310Y-310D02*
Y310D01*
X-310Y-310D02*
Y310D01*
X310D01*
X-310Y-310D02*
X310D01*
D24*
X430Y-3060D02*
G03*
X430Y-3060I-30J0D01*
G01*
X240Y210D02*
G03*
X240Y210I-30J0D01*
G01*
D68*
X1820Y1024D02*
G03*
X1820Y1024I-12J0D01*
G01*
X-1665Y-1024D02*
G03*
X-1665Y-1024I-12J0D01*
G01*
X542Y-3272D02*
G03*
X542Y-3272I-12J0D01*
G01*
X-320Y4915D02*
G03*
X-320Y4915I-12J0D01*
G01*
X438Y362D02*
G03*
X438Y362I-12J0D01*
G01*
D69*
X645Y-3710D02*
G03*
X645Y-3710I-5J0D01*
G01*
X-955D02*
G03*
X-955Y-3710I-5J0D01*
G01*
D70*
X1422Y1307D02*
X1688D01*
X1422Y1453D02*
X1688D01*
Y1307D02*
Y1453D01*
X1422Y1307D02*
Y1453D01*
X-1048Y-1183D02*
Y-917D01*
X-902Y-1183D02*
Y-917D01*
X-1048Y-1183D02*
X-902D01*
X-1048Y-917D02*
X-902D01*
X1422Y1157D02*
X1688D01*
X1422Y1303D02*
X1688D01*
Y1157D02*
Y1303D01*
X1422Y1157D02*
Y1303D01*
X-902Y-1683D02*
Y-1417D01*
X-1048Y-1683D02*
Y-1417D01*
X-902D01*
X-1048Y-1683D02*
X-902D01*
X1892Y-3652D02*
X2158D01*
X1892Y-3798D02*
X2158D01*
X1892D02*
Y-3652D01*
X2158Y-3798D02*
Y-3652D01*
X-1933Y-3973D02*
X-1667D01*
X-1933Y-3827D02*
X-1667D01*
Y-3973D02*
Y-3827D01*
X-1933Y-3973D02*
Y-3827D01*
X1727Y4908D02*
X1873D01*
X1727Y4642D02*
X1873D01*
Y4908D01*
X1727Y4642D02*
Y4908D01*
X-2283Y4377D02*
Y4523D01*
X-2017Y4377D02*
Y4523D01*
X-2283D02*
X-2017D01*
X-2283Y4377D02*
X-2017D01*
X-2283Y4077D02*
Y4223D01*
X-2017Y4077D02*
Y4223D01*
X-2283D02*
X-2017D01*
X-2283Y4077D02*
X-2017D01*
X2187Y4117D02*
X2333D01*
X2187Y4383D02*
X2333D01*
X2187Y4117D02*
Y4383D01*
X2333Y4117D02*
Y4383D01*
X-2668Y3632D02*
Y3778D01*
X-2402Y3632D02*
Y3778D01*
X-2668D02*
X-2402D01*
X-2668Y3632D02*
X-2402D01*
X-292Y-5298D02*
Y-5152D01*
X-558Y-5298D02*
Y-5152D01*
Y-5298D02*
X-292D01*
X-558Y-5152D02*
X-292D01*
X-1617Y-5298D02*
Y-5152D01*
X-1883Y-5298D02*
Y-5152D01*
Y-5298D02*
X-1617D01*
X-1883Y-5152D02*
X-1617D01*
X-2673Y-5308D02*
X-2527D01*
X-2673Y-5042D02*
X-2527D01*
X-2673Y-5308D02*
Y-5042D01*
X-2527Y-5308D02*
Y-5042D01*
X-292Y-5148D02*
Y-5002D01*
X-558Y-5148D02*
Y-5002D01*
Y-5148D02*
X-292D01*
X-558Y-5002D02*
X-292D01*
X-1617Y-5148D02*
Y-5002D01*
X-1883Y-5148D02*
Y-5002D01*
Y-5148D02*
X-1617D01*
X-1883Y-5002D02*
X-1617D01*
X-2523Y-5308D02*
X-2377D01*
X-2523Y-5042D02*
X-2377D01*
X-2523Y-5308D02*
Y-5042D01*
X-2377Y-5308D02*
Y-5042D01*
X2Y5433D02*
X148D01*
X2Y5167D02*
X148D01*
Y5433D01*
X2Y5167D02*
Y5433D01*
X-1433Y5077D02*
Y5223D01*
X-1167Y5077D02*
Y5223D01*
X-1433D02*
X-1167D01*
X-1433Y5077D02*
X-1167D01*
X-2133D02*
Y5223D01*
X-1867Y5077D02*
Y5223D01*
X-2133D02*
X-1867D01*
X-2133Y5077D02*
X-1867D01*
X-148Y5433D02*
X-2D01*
X-148Y5167D02*
X-2D01*
Y5433D01*
X-148Y5167D02*
Y5433D01*
X-1433Y4927D02*
Y5073D01*
X-1167Y4927D02*
Y5073D01*
X-1433D02*
X-1167D01*
X-1433Y4927D02*
X-1167D01*
X-2133D02*
Y5073D01*
X-1867Y4927D02*
Y5073D01*
X-2133D02*
X-1867D01*
X-2133Y4927D02*
X-1867D01*
X-373Y-983D02*
Y-717D01*
X-227Y-983D02*
Y-717D01*
X-373Y-983D02*
X-227D01*
X-373Y-717D02*
X-227D01*
X448Y-983D02*
Y-717D01*
X302Y-983D02*
Y-717D01*
X448D01*
X302Y-983D02*
X448D01*
X690Y-675D02*
X1010D01*
X690D02*
Y-275D01*
X1010D01*
Y-675D02*
Y-275D01*
X-223Y-983D02*
Y-717D01*
X-77Y-983D02*
Y-717D01*
X-223Y-983D02*
X-77D01*
X-223Y-717D02*
X-77D01*
X298Y-983D02*
Y-717D01*
X152Y-983D02*
Y-717D01*
X298D01*
X152Y-983D02*
X298D01*
X777Y1419D02*
Y1685D01*
X923Y1419D02*
Y1685D01*
X777Y1419D02*
X923D01*
X777Y1685D02*
X923D01*
X-1613Y1408D02*
X-1347D01*
X-1613Y1262D02*
X-1347D01*
X-1613D02*
Y1408D01*
X-1347Y1262D02*
Y1408D01*
X-1613Y1112D02*
X-1347D01*
X-1613Y1258D02*
X-1347D01*
Y1112D02*
Y1258D01*
X-1613Y1112D02*
Y1258D01*
M02*
