G04*
G04 #@! TF.GenerationSoftware,Altium Limited,Altium Designer,20.2.7 (254)*
G04*
G04 Layer_Color=8388736*
%FSLAX42Y42*%
%MOMM*%
G71*
G04*
G04 #@! TF.SameCoordinates,A3C6821A-A7B5-4D3C-B142-2EE2455FBD40*
G04*
G04*
G04 #@! TF.FilePolarity,Negative*
G04*
G01*
G75*
G04:AMPARAMS|DCode=11|XSize=1.7mm|YSize=1.5mm|CornerRadius=0.4mm|HoleSize=0mm|Usage=FLASHONLY|Rotation=180.000|XOffset=0mm|YOffset=0mm|HoleType=Round|Shape=RoundedRectangle|*
%AMROUNDEDRECTD11*
21,1,1.70,0.70,0,0,180.0*
21,1,0.90,1.50,0,0,180.0*
1,1,0.80,-0.45,0.35*
1,1,0.80,0.45,0.35*
1,1,0.80,0.45,-0.35*
1,1,0.80,-0.45,-0.35*
%
%ADD11ROUNDEDRECTD11*%
%ADD12R,1.80X1.60*%
%ADD13R,1.35X1.10*%
%ADD14R,1.10X1.35*%
%ADD15C,2.60*%
%ADD16C,2.10*%
%ADD17R,2.10X6.60*%
%ADD18C,0.10*%
%ADD19C,6.60*%
D11*
X-2620Y-4400D02*
D03*
X1780D02*
D03*
X2780Y4400D02*
D03*
X-3620D02*
D03*
D12*
X-2620Y-4175D02*
D03*
Y-4625D02*
D03*
X-1780Y-4175D02*
D03*
Y-4625D02*
D03*
X1780Y-4175D02*
D03*
Y-4625D02*
D03*
X2620Y-4175D02*
D03*
Y-4625D02*
D03*
X3620Y4625D02*
D03*
X2780D02*
D03*
X3620Y4175D02*
D03*
X2780D02*
D03*
X-2780Y4625D02*
D03*
X-3620D02*
D03*
X-2780Y4175D02*
D03*
X-3620D02*
D03*
D13*
X1800Y4200D02*
D03*
X-1800Y4650D02*
D03*
X-1800Y3950D02*
D03*
X1800Y4400D02*
D03*
X-1800Y4450D02*
D03*
X-1800Y4150D02*
D03*
D14*
X300Y-4400D02*
D03*
X700Y-4400D02*
D03*
X1100Y-4400D02*
D03*
X1500Y-4400D02*
D03*
X-1300Y-4400D02*
D03*
X-900D02*
D03*
X-500D02*
D03*
X-100D02*
D03*
X1300Y-4400D02*
D03*
X900Y-4400D02*
D03*
X500Y-4400D02*
D03*
X100Y-4400D02*
D03*
X-300D02*
D03*
X-700D02*
D03*
X-1100D02*
D03*
X-1500D02*
D03*
D15*
X-2750Y-750D02*
D03*
Y-250D02*
D03*
X-2750Y250D02*
D03*
Y750D02*
D03*
X2750D02*
D03*
Y250D02*
D03*
Y-250D02*
D03*
Y-750D02*
D03*
D16*
X275Y-5873D02*
D03*
X-275Y-6127D02*
D03*
X275D02*
D03*
X-1627Y-5625D02*
D03*
X-1373Y-6175D02*
D03*
Y-5625D02*
D03*
X-2627D02*
D03*
X-2373Y-6175D02*
D03*
Y-5625D02*
D03*
X-275Y5873D02*
D03*
X275Y6127D02*
D03*
X-275D02*
D03*
X-1373Y5625D02*
D03*
X-1627Y6175D02*
D03*
Y5625D02*
D03*
X-2373D02*
D03*
X-2627Y6175D02*
D03*
Y5625D02*
D03*
X-275Y-5873D02*
D03*
X-1627Y-6175D02*
D03*
X-2627D02*
D03*
X275Y5873D02*
D03*
X-1373Y6175D02*
D03*
X-2373D02*
D03*
D17*
X-900Y6125D02*
D03*
X900D02*
D03*
D18*
X465Y-6245D02*
D03*
X0Y-6160D02*
D03*
Y-5840D02*
D03*
X-1255Y-5435D02*
D03*
X-1340Y-5900D02*
D03*
X-1660D02*
D03*
X-2255Y-5435D02*
D03*
X-2340Y-5900D02*
D03*
X-2660D02*
D03*
X-465Y6245D02*
D03*
X0Y6160D02*
D03*
Y5840D02*
D03*
X-1745Y5435D02*
D03*
X-1660Y5900D02*
D03*
X-1340D02*
D03*
X-2745Y5435D02*
D03*
X-2660Y5900D02*
D03*
X-2340D02*
D03*
D19*
X4450Y3806D02*
D03*
Y1706D02*
D03*
Y-1706D02*
D03*
Y-3806D02*
D03*
X-4450D02*
D03*
Y-1706D02*
D03*
Y1706D02*
D03*
Y3806D02*
D03*
M02*
