G04*
G04 #@! TF.GenerationSoftware,Altium Limited,Altium Designer,21.8.1 (53)*
G04*
G04 Layer_Color=8388736*
%FSLAX42Y42*%
%MOMM*%
G71*
G04*
G04 #@! TF.SameCoordinates,ECD59B7C-F3D5-4042-AA40-CB62378B2820*
G04*
G04*
G04 #@! TF.FilePolarity,Negative*
G04*
G01*
G75*
%ADD11R,0.37X1.40*%
%ADD12R,1.35X1.10*%
G04:AMPARAMS|DCode=13|XSize=1.7mm|YSize=1.5mm|CornerRadius=0.4mm|HoleSize=0mm|Usage=FLASHONLY|Rotation=180.000|XOffset=0mm|YOffset=0mm|HoleType=Round|Shape=RoundedRectangle|*
%AMROUNDEDRECTD13*
21,1,1.70,0.70,0,0,180.0*
21,1,0.90,1.50,0,0,180.0*
1,1,0.80,-0.45,0.35*
1,1,0.80,0.45,0.35*
1,1,0.80,0.45,-0.35*
1,1,0.80,-0.45,-0.35*
%
%ADD13ROUNDEDRECTD13*%
%ADD14R,1.80X1.60*%
%ADD15R,1.10X1.35*%
G04:AMPARAMS|DCode=16|XSize=1.9mm|YSize=1.4mm|CornerRadius=0.7mm|HoleSize=0mm|Usage=FLASHONLY|Rotation=180.000|XOffset=0mm|YOffset=0mm|HoleType=Round|Shape=RoundedRectangle|*
%AMROUNDEDRECTD16*
21,1,1.90,0.00,0,0,180.0*
21,1,0.50,1.40,0,0,180.0*
1,1,1.40,-0.25,0.00*
1,1,1.40,0.25,0.00*
1,1,1.40,0.25,0.00*
1,1,1.40,-0.25,0.00*
%
%ADD16ROUNDEDRECTD16*%
%ADD17C,0.10*%
%ADD18C,2.60*%
%ADD19C,2.10*%
%ADD20C,6.60*%
D11*
X1245Y4465D02*
D03*
X1195D02*
D03*
X1145D02*
D03*
X1095D02*
D03*
X1045D02*
D03*
X995D02*
D03*
X945D02*
D03*
X895D02*
D03*
X845D02*
D03*
X795D02*
D03*
X745D02*
D03*
X695D02*
D03*
X1245Y4135D02*
D03*
X1195D02*
D03*
X1145D02*
D03*
X1095D02*
D03*
X1045D02*
D03*
X995D02*
D03*
X945D02*
D03*
X895D02*
D03*
X845D02*
D03*
X795D02*
D03*
X745D02*
D03*
X695D02*
D03*
D12*
X2500Y4200D02*
D03*
Y4400D02*
D03*
X-1800Y4650D02*
D03*
X-1800Y3950D02*
D03*
X-1800Y4450D02*
D03*
X-1800Y4150D02*
D03*
D13*
X-2620Y-4400D02*
D03*
X1780D02*
D03*
X-3620Y4400D02*
D03*
D14*
X-2620Y-4175D02*
D03*
Y-4625D02*
D03*
X-1780Y-4175D02*
D03*
Y-4625D02*
D03*
X1780Y-4175D02*
D03*
Y-4625D02*
D03*
X2620Y-4175D02*
D03*
Y-4625D02*
D03*
X-2780Y4625D02*
D03*
X-3620D02*
D03*
X-2780Y4175D02*
D03*
X-3620D02*
D03*
D15*
X300Y-4400D02*
D03*
X700Y-4400D02*
D03*
X1100Y-4400D02*
D03*
X1500Y-4400D02*
D03*
X-1300Y-4400D02*
D03*
X-900D02*
D03*
X-500D02*
D03*
X-100D02*
D03*
X1300Y-4400D02*
D03*
X900Y-4400D02*
D03*
X500Y-4400D02*
D03*
X100Y-4400D02*
D03*
X-300D02*
D03*
X-700D02*
D03*
X-1100D02*
D03*
X-1500D02*
D03*
D16*
X560Y4447D02*
D03*
X1380D02*
D03*
Y4153D02*
D03*
X560D02*
D03*
D17*
X1520Y4170D02*
D03*
X420D02*
D03*
X465Y-6245D02*
D03*
X0Y-6160D02*
D03*
Y-5840D02*
D03*
X-1255Y-5435D02*
D03*
X-1340Y-5900D02*
D03*
X-1660D02*
D03*
X-2255Y-5435D02*
D03*
X-2340Y-5900D02*
D03*
X-2660D02*
D03*
X-465Y6245D02*
D03*
X0Y6160D02*
D03*
Y5840D02*
D03*
X-1745Y5435D02*
D03*
X-1660Y5900D02*
D03*
X-1340D02*
D03*
X-2745Y5435D02*
D03*
X-2660Y5900D02*
D03*
X-2340D02*
D03*
D18*
X-2750Y-750D02*
D03*
Y-250D02*
D03*
X-2750Y250D02*
D03*
Y750D02*
D03*
X2750D02*
D03*
Y250D02*
D03*
Y-250D02*
D03*
Y-750D02*
D03*
D19*
X275Y-5873D02*
D03*
X-275Y-6127D02*
D03*
X275D02*
D03*
X-1627Y-5625D02*
D03*
X-1373Y-6175D02*
D03*
Y-5625D02*
D03*
X-2627D02*
D03*
X-2373Y-6175D02*
D03*
Y-5625D02*
D03*
X-275Y5873D02*
D03*
X275Y6127D02*
D03*
X-275D02*
D03*
X-1373Y5625D02*
D03*
X-1627Y6175D02*
D03*
Y5625D02*
D03*
X-2373D02*
D03*
X-2627Y6175D02*
D03*
Y5625D02*
D03*
X-275Y-5873D02*
D03*
X-1627Y-6175D02*
D03*
X-2627D02*
D03*
X275Y5873D02*
D03*
X-1373Y6175D02*
D03*
X-2373D02*
D03*
D20*
X4450Y3806D02*
D03*
Y1706D02*
D03*
Y-1706D02*
D03*
Y-3806D02*
D03*
X-4450D02*
D03*
Y-1706D02*
D03*
Y1706D02*
D03*
Y3806D02*
D03*
M02*
