G04*
G04 #@! TF.GenerationSoftware,Altium Limited,Altium Designer,21.8.1 (53)*
G04*
G04 Layer_Color=32896*
%FSLAX42Y42*%
%MOMM*%
G71*
G04*
G04 #@! TF.SameCoordinates,ECD59B7C-F3D5-4042-AA40-CB62378B2820*
G04*
G04*
G04 #@! TF.FilePolarity,Positive*
G04*
G01*
G75*
%ADD10C,0.20*%
%ADD26C,0.60*%
%ADD31C,0.25*%
%ADD77C,0.10*%
%ADD78C,0.50*%
%ADD79C,0.15*%
G36*
X-1065Y-1801D02*
X-1063Y-1802D01*
X-1062Y-1803D01*
X-1061Y-1804D01*
X-1061Y-1805D01*
X-1060Y-1806D01*
X-1060Y-1807D01*
Y-1807D01*
X-1060Y-1808D01*
X-1061Y-1810D01*
X-1061Y-1810D01*
X-1061Y-1810D01*
X-1091Y-1866D01*
Y-1921D01*
X-1091Y-1923D01*
X-1092Y-1925D01*
X-1093Y-1926D01*
X-1094Y-1927D01*
X-1095Y-1927D01*
X-1096Y-1927D01*
X-1097Y-1927D01*
X-1097D01*
X-1099Y-1927D01*
X-1101Y-1927D01*
X-1102Y-1926D01*
X-1103Y-1924D01*
X-1103Y-1923D01*
X-1103Y-1922D01*
Y-1922D01*
Y-1921D01*
Y-1866D01*
X-1133Y-1811D01*
X-1134Y-1809D01*
X-1134Y-1808D01*
X-1134Y-1808D01*
Y-1807D01*
X-1134Y-1805D01*
X-1133Y-1804D01*
X-1132Y-1803D01*
X-1131Y-1802D01*
X-1130Y-1802D01*
X-1129Y-1801D01*
X-1128D01*
X-1126Y-1801D01*
X-1125Y-1802D01*
X-1124Y-1803D01*
X-1123Y-1804D01*
X-1122Y-1804D01*
Y-1805D01*
X-1097Y-1853D01*
X-1072Y-1805D01*
X-1071Y-1804D01*
X-1071Y-1803D01*
X-1070Y-1802D01*
X-1069Y-1802D01*
X-1068Y-1801D01*
X-1067Y-1801D01*
X-1067D01*
X-1065Y-1801D01*
D02*
G37*
G36*
X-704Y-1802D02*
X-702Y-1802D01*
X-701Y-1803D01*
X-701Y-1804D01*
X-700Y-1806D01*
X-700Y-1807D01*
X-700Y-1807D01*
Y-1807D01*
Y-1921D01*
X-700Y-1923D01*
X-701Y-1925D01*
X-702Y-1926D01*
X-703Y-1927D01*
X-704Y-1927D01*
X-705Y-1927D01*
X-706Y-1927D01*
X-706D01*
X-708Y-1927D01*
X-710Y-1927D01*
X-711Y-1926D01*
X-711Y-1924D01*
X-712Y-1923D01*
X-712Y-1922D01*
Y-1922D01*
Y-1921D01*
Y-1829D01*
X-753Y-1923D01*
X-754Y-1925D01*
X-755Y-1926D01*
X-756Y-1926D01*
X-756Y-1927D01*
X-757Y-1927D01*
X-758Y-1927D01*
X-759D01*
X-761Y-1927D01*
X-762Y-1927D01*
X-764Y-1926D01*
X-764Y-1924D01*
X-765Y-1923D01*
X-765Y-1922D01*
Y-1922D01*
Y-1921D01*
Y-1807D01*
X-765Y-1805D01*
X-764Y-1804D01*
X-763Y-1803D01*
X-762Y-1802D01*
X-761Y-1802D01*
X-760Y-1801D01*
X-759D01*
X-757Y-1802D01*
X-755Y-1802D01*
X-754Y-1803D01*
X-753Y-1804D01*
X-753Y-1806D01*
X-753Y-1807D01*
X-753Y-1807D01*
Y-1807D01*
Y-1900D01*
X-712Y-1805D01*
X-711Y-1804D01*
X-710Y-1803D01*
X-709Y-1802D01*
X-708Y-1802D01*
X-707Y-1802D01*
X-707Y-1801D01*
X-706D01*
X-704Y-1802D01*
D02*
G37*
G36*
X-645Y-1802D02*
X-641Y-1803D01*
X-637Y-1804D01*
X-634Y-1805D01*
X-632Y-1807D01*
X-630Y-1808D01*
X-629Y-1809D01*
X-629Y-1810D01*
X-629Y-1810D01*
X-627Y-1811D01*
X-626Y-1813D01*
X-624Y-1816D01*
X-623Y-1820D01*
X-622Y-1822D01*
X-621Y-1825D01*
X-621Y-1827D01*
X-621Y-1828D01*
Y-1829D01*
Y-1829D01*
Y-1829D01*
Y-1900D01*
X-621Y-1902D01*
X-621Y-1904D01*
X-622Y-1907D01*
X-623Y-1911D01*
X-625Y-1914D01*
X-626Y-1916D01*
X-628Y-1918D01*
X-629Y-1919D01*
X-629Y-1919D01*
Y-1919D01*
X-631Y-1921D01*
X-632Y-1922D01*
X-636Y-1924D01*
X-639Y-1925D01*
X-642Y-1926D01*
X-645Y-1927D01*
X-646Y-1927D01*
X-647D01*
X-648Y-1927D01*
X-680D01*
X-682Y-1927D01*
X-683Y-1927D01*
X-684Y-1926D01*
X-685Y-1924D01*
X-686Y-1923D01*
X-686Y-1922D01*
Y-1922D01*
Y-1921D01*
Y-1860D01*
X-686Y-1858D01*
X-685Y-1857D01*
X-684Y-1855D01*
X-683Y-1855D01*
X-682Y-1854D01*
X-681Y-1854D01*
X-662D01*
X-660Y-1854D01*
X-659Y-1855D01*
X-657Y-1856D01*
X-657Y-1857D01*
X-656Y-1858D01*
X-656Y-1859D01*
X-656Y-1860D01*
Y-1860D01*
X-656Y-1862D01*
X-657Y-1864D01*
X-658Y-1865D01*
X-659Y-1865D01*
X-660Y-1866D01*
X-661Y-1866D01*
X-662Y-1866D01*
X-674D01*
Y-1915D01*
X-649D01*
X-646Y-1915D01*
X-644Y-1915D01*
X-643Y-1914D01*
X-641Y-1913D01*
X-640Y-1912D01*
X-639Y-1911D01*
X-638Y-1911D01*
X-638Y-1911D01*
X-636Y-1909D01*
X-635Y-1907D01*
X-634Y-1905D01*
X-634Y-1903D01*
X-633Y-1902D01*
X-633Y-1901D01*
Y-1900D01*
Y-1900D01*
Y-1829D01*
X-633Y-1827D01*
X-634Y-1825D01*
X-635Y-1823D01*
X-636Y-1822D01*
X-636Y-1820D01*
X-637Y-1819D01*
X-638Y-1819D01*
X-638Y-1818D01*
X-640Y-1817D01*
X-641Y-1816D01*
X-643Y-1815D01*
X-645Y-1814D01*
X-647Y-1814D01*
X-648Y-1814D01*
X-680D01*
X-682Y-1813D01*
X-683Y-1813D01*
X-684Y-1812D01*
X-685Y-1810D01*
X-686Y-1809D01*
X-686Y-1808D01*
Y-1808D01*
Y-1807D01*
X-686Y-1805D01*
X-685Y-1804D01*
X-684Y-1803D01*
X-683Y-1802D01*
X-682Y-1802D01*
X-681Y-1801D01*
X-647D01*
X-645Y-1802D01*
D02*
G37*
G36*
X-370Y-1802D02*
X-368Y-1802D01*
X-367Y-1803D01*
X-367Y-1804D01*
X-366Y-1806D01*
X-366Y-1807D01*
X-366Y-1807D01*
Y-1807D01*
Y-1921D01*
X-366Y-1923D01*
X-367Y-1925D01*
X-368Y-1926D01*
X-369Y-1927D01*
X-370Y-1927D01*
X-371Y-1927D01*
X-372Y-1927D01*
X-403D01*
X-405Y-1927D01*
X-407Y-1927D01*
X-411Y-1926D01*
X-414Y-1925D01*
X-417Y-1923D01*
X-419Y-1922D01*
X-421Y-1921D01*
X-422Y-1920D01*
X-423Y-1919D01*
X-424Y-1918D01*
X-425Y-1916D01*
X-427Y-1913D01*
X-429Y-1910D01*
X-430Y-1906D01*
X-431Y-1904D01*
X-431Y-1901D01*
X-431Y-1901D01*
Y-1900D01*
Y-1900D01*
Y-1900D01*
Y-1829D01*
Y-1827D01*
X-431Y-1825D01*
X-430Y-1821D01*
X-428Y-1818D01*
X-427Y-1815D01*
X-425Y-1813D01*
X-424Y-1811D01*
X-423Y-1810D01*
X-423Y-1810D01*
X-423D01*
X-421Y-1808D01*
X-419Y-1807D01*
X-416Y-1805D01*
X-413Y-1803D01*
X-409Y-1802D01*
X-407Y-1802D01*
X-406Y-1802D01*
X-405D01*
X-404Y-1801D01*
X-372D01*
X-370Y-1802D01*
D02*
G37*
G36*
X-449D02*
X-448Y-1802D01*
X-447Y-1803D01*
X-446Y-1804D01*
X-445Y-1806D01*
X-445Y-1807D01*
X-445Y-1807D01*
Y-1807D01*
Y-1921D01*
X-445Y-1923D01*
X-446Y-1925D01*
X-447Y-1926D01*
X-448Y-1927D01*
X-449Y-1927D01*
X-450Y-1927D01*
X-451Y-1927D01*
X-495D01*
X-497Y-1927D01*
X-499Y-1927D01*
X-500Y-1926D01*
X-500Y-1924D01*
X-501Y-1923D01*
X-501Y-1922D01*
Y-1922D01*
Y-1921D01*
X-501Y-1919D01*
X-500Y-1918D01*
X-499Y-1917D01*
X-498Y-1916D01*
X-497Y-1916D01*
X-496Y-1915D01*
X-457D01*
Y-1866D01*
X-477D01*
X-479Y-1866D01*
X-481Y-1865D01*
X-482Y-1864D01*
X-483Y-1863D01*
X-483Y-1862D01*
X-484Y-1861D01*
Y-1860D01*
Y-1860D01*
X-483Y-1858D01*
X-483Y-1857D01*
X-482Y-1855D01*
X-481Y-1855D01*
X-479Y-1854D01*
X-478Y-1854D01*
X-457D01*
Y-1814D01*
X-495D01*
X-497Y-1813D01*
X-499Y-1813D01*
X-500Y-1812D01*
X-500Y-1810D01*
X-501Y-1809D01*
X-501Y-1808D01*
Y-1808D01*
Y-1807D01*
X-501Y-1805D01*
X-500Y-1804D01*
X-499Y-1803D01*
X-498Y-1802D01*
X-497Y-1802D01*
X-496Y-1801D01*
X-451D01*
X-449Y-1802D01*
D02*
G37*
G36*
X-539Y-1802D02*
X-535Y-1803D01*
X-532Y-1804D01*
X-529Y-1805D01*
X-527Y-1807D01*
X-525Y-1808D01*
X-524Y-1809D01*
X-524Y-1810D01*
X-524Y-1810D01*
X-522Y-1811D01*
X-521Y-1813D01*
X-519Y-1816D01*
X-517Y-1820D01*
X-517Y-1823D01*
X-516Y-1825D01*
X-516Y-1827D01*
X-515Y-1828D01*
Y-1829D01*
Y-1829D01*
Y-1830D01*
X-516Y-1832D01*
X-516Y-1834D01*
X-517Y-1837D01*
X-518Y-1841D01*
X-520Y-1844D01*
X-521Y-1846D01*
X-522Y-1848D01*
X-523Y-1849D01*
X-524Y-1849D01*
Y-1849D01*
X-563Y-1888D01*
X-564Y-1890D01*
X-566Y-1892D01*
X-567Y-1894D01*
X-567Y-1896D01*
X-567Y-1897D01*
X-568Y-1898D01*
Y-1899D01*
Y-1899D01*
X-567Y-1902D01*
X-567Y-1904D01*
X-566Y-1906D01*
X-565Y-1907D01*
X-564Y-1909D01*
X-564Y-1910D01*
X-563Y-1910D01*
X-563Y-1911D01*
X-561Y-1912D01*
X-559Y-1913D01*
X-557Y-1914D01*
X-556Y-1915D01*
X-554Y-1915D01*
X-553Y-1915D01*
X-539D01*
X-536Y-1915D01*
X-534Y-1915D01*
X-532Y-1914D01*
X-529Y-1913D01*
X-528Y-1912D01*
X-526Y-1912D01*
X-526Y-1911D01*
X-525Y-1911D01*
X-524Y-1910D01*
X-522Y-1910D01*
X-522Y-1910D01*
X-520D01*
X-519Y-1910D01*
X-518Y-1911D01*
X-517Y-1912D01*
X-517Y-1912D01*
Y-1912D01*
X-516Y-1913D01*
X-515Y-1915D01*
X-515Y-1916D01*
Y-1916D01*
Y-1916D01*
X-515Y-1917D01*
X-516Y-1918D01*
X-517Y-1920D01*
X-517Y-1921D01*
X-517Y-1921D01*
X-518Y-1921D01*
X-521Y-1923D01*
X-524Y-1925D01*
X-528Y-1926D01*
X-531Y-1927D01*
X-534Y-1927D01*
X-536Y-1927D01*
X-537D01*
X-538Y-1927D01*
X-552D01*
X-554Y-1927D01*
X-556Y-1927D01*
X-560Y-1926D01*
X-563Y-1925D01*
X-566Y-1923D01*
X-569Y-1922D01*
X-570Y-1921D01*
X-571Y-1920D01*
X-572Y-1919D01*
X-573Y-1918D01*
X-574Y-1916D01*
X-576Y-1913D01*
X-578Y-1909D01*
X-579Y-1906D01*
X-580Y-1904D01*
X-580Y-1902D01*
Y-1901D01*
X-580Y-1900D01*
Y-1900D01*
Y-1900D01*
Y-1899D01*
Y-1897D01*
X-580Y-1895D01*
X-579Y-1892D01*
X-577Y-1888D01*
X-576Y-1885D01*
X-574Y-1883D01*
X-573Y-1881D01*
X-572Y-1880D01*
X-572Y-1880D01*
X-572D01*
X-533Y-1841D01*
X-531Y-1839D01*
X-530Y-1837D01*
X-529Y-1835D01*
X-529Y-1833D01*
X-528Y-1832D01*
X-528Y-1831D01*
Y-1830D01*
Y-1830D01*
X-528Y-1827D01*
X-529Y-1825D01*
X-529Y-1823D01*
X-530Y-1821D01*
X-531Y-1820D01*
X-532Y-1819D01*
X-532Y-1818D01*
X-532Y-1818D01*
X-534Y-1817D01*
X-536Y-1816D01*
X-538Y-1815D01*
X-540Y-1814D01*
X-541Y-1814D01*
X-542Y-1814D01*
X-557D01*
X-559Y-1814D01*
X-562Y-1814D01*
X-564Y-1815D01*
X-566Y-1816D01*
X-568Y-1817D01*
X-569Y-1817D01*
X-570Y-1818D01*
X-571Y-1818D01*
X-572Y-1819D01*
X-573Y-1819D01*
X-574Y-1819D01*
X-574D01*
X-576Y-1819D01*
X-577Y-1818D01*
X-578Y-1818D01*
X-579Y-1817D01*
X-579Y-1817D01*
X-580Y-1816D01*
X-580Y-1814D01*
X-581Y-1813D01*
Y-1813D01*
Y-1813D01*
X-580Y-1812D01*
X-580Y-1811D01*
X-579Y-1809D01*
X-578Y-1808D01*
X-578Y-1808D01*
X-578Y-1808D01*
X-574Y-1806D01*
X-571Y-1804D01*
X-567Y-1803D01*
X-564Y-1802D01*
X-561Y-1802D01*
X-560Y-1802D01*
X-559D01*
X-558Y-1801D01*
X-541D01*
X-539Y-1802D01*
D02*
G37*
G36*
X-598Y-1802D02*
X-597Y-1802D01*
X-596Y-1803D01*
X-595Y-1804D01*
X-595Y-1806D01*
X-594Y-1807D01*
X-594Y-1807D01*
Y-1807D01*
Y-1921D01*
X-594Y-1923D01*
X-595Y-1925D01*
X-596Y-1926D01*
X-597Y-1927D01*
X-599Y-1927D01*
X-599Y-1927D01*
X-600Y-1927D01*
X-600D01*
X-602Y-1927D01*
X-604Y-1927D01*
X-605Y-1926D01*
X-606Y-1924D01*
X-606Y-1923D01*
X-607Y-1922D01*
Y-1922D01*
Y-1921D01*
Y-1807D01*
X-606Y-1805D01*
X-606Y-1804D01*
X-605Y-1803D01*
X-604Y-1802D01*
X-602Y-1802D01*
X-601Y-1801D01*
X-600D01*
X-598Y-1802D01*
D02*
G37*
G36*
X-783D02*
X-782Y-1802D01*
X-781Y-1803D01*
X-780Y-1804D01*
X-779Y-1806D01*
X-779Y-1807D01*
X-779Y-1807D01*
Y-1807D01*
Y-1921D01*
X-779Y-1923D01*
X-780Y-1925D01*
X-781Y-1926D01*
X-782Y-1927D01*
X-783Y-1927D01*
X-784Y-1927D01*
X-785Y-1927D01*
X-829D01*
X-831Y-1927D01*
X-833Y-1927D01*
X-834Y-1926D01*
X-834Y-1924D01*
X-835Y-1923D01*
X-835Y-1922D01*
Y-1922D01*
Y-1921D01*
X-835Y-1919D01*
X-834Y-1918D01*
X-833Y-1917D01*
X-832Y-1916D01*
X-831Y-1916D01*
X-830Y-1915D01*
X-791D01*
Y-1866D01*
X-811D01*
X-814Y-1866D01*
X-815Y-1865D01*
X-816Y-1864D01*
X-817Y-1863D01*
X-817Y-1862D01*
X-818Y-1861D01*
Y-1860D01*
Y-1860D01*
X-817Y-1858D01*
X-817Y-1857D01*
X-816Y-1855D01*
X-815Y-1855D01*
X-813Y-1854D01*
X-812Y-1854D01*
X-791D01*
Y-1814D01*
X-829D01*
X-831Y-1813D01*
X-833Y-1813D01*
X-834Y-1812D01*
X-834Y-1810D01*
X-835Y-1809D01*
X-835Y-1808D01*
Y-1808D01*
Y-1807D01*
X-835Y-1805D01*
X-834Y-1804D01*
X-833Y-1803D01*
X-832Y-1802D01*
X-831Y-1802D01*
X-830Y-1801D01*
X-785D01*
X-783Y-1802D01*
D02*
G37*
G36*
X-853D02*
X-852Y-1802D01*
X-851Y-1803D01*
X-850Y-1804D01*
X-850Y-1806D01*
X-849Y-1807D01*
X-849Y-1807D01*
Y-1807D01*
Y-1921D01*
X-849Y-1923D01*
X-850Y-1925D01*
X-851Y-1926D01*
X-852Y-1927D01*
X-854Y-1927D01*
X-854Y-1927D01*
X-855Y-1927D01*
X-886D01*
X-888Y-1927D01*
X-890Y-1927D01*
X-894Y-1926D01*
X-898Y-1925D01*
X-901Y-1923D01*
X-903Y-1922D01*
X-905Y-1921D01*
X-906Y-1920D01*
X-906Y-1919D01*
X-908Y-1918D01*
X-909Y-1916D01*
X-911Y-1913D01*
X-912Y-1910D01*
X-913Y-1906D01*
X-914Y-1904D01*
X-914Y-1901D01*
X-914Y-1901D01*
Y-1900D01*
Y-1900D01*
Y-1900D01*
Y-1829D01*
Y-1827D01*
X-914Y-1825D01*
X-913Y-1821D01*
X-912Y-1818D01*
X-910Y-1815D01*
X-909Y-1813D01*
X-907Y-1811D01*
X-906Y-1810D01*
X-906Y-1810D01*
X-906D01*
X-904Y-1808D01*
X-903Y-1807D01*
X-899Y-1805D01*
X-896Y-1803D01*
X-893Y-1802D01*
X-890Y-1802D01*
X-889Y-1802D01*
X-888D01*
X-887Y-1801D01*
X-855D01*
X-853Y-1802D01*
D02*
G37*
G36*
X-985D02*
X-984Y-1802D01*
X-983Y-1803D01*
X-982Y-1804D01*
X-981Y-1806D01*
X-981Y-1807D01*
X-981Y-1807D01*
Y-1807D01*
Y-1921D01*
X-981Y-1923D01*
X-982Y-1925D01*
X-983Y-1926D01*
X-984Y-1927D01*
X-985Y-1927D01*
X-986Y-1927D01*
X-987Y-1927D01*
X-1018D01*
X-1020Y-1927D01*
X-1022Y-1927D01*
X-1026Y-1926D01*
X-1029Y-1925D01*
X-1032Y-1923D01*
X-1034Y-1922D01*
X-1036Y-1920D01*
X-1037Y-1920D01*
X-1038Y-1919D01*
X-1038D01*
X-1039Y-1917D01*
X-1041Y-1916D01*
X-1043Y-1912D01*
X-1044Y-1909D01*
X-1045Y-1906D01*
X-1046Y-1903D01*
X-1046Y-1901D01*
X-1046Y-1901D01*
Y-1900D01*
Y-1900D01*
Y-1900D01*
Y-1882D01*
X-1046Y-1879D01*
X-1046Y-1876D01*
X-1045Y-1874D01*
X-1044Y-1872D01*
X-1043Y-1870D01*
X-1043Y-1869D01*
X-1042Y-1868D01*
X-1042Y-1867D01*
X-1040Y-1865D01*
X-1039Y-1863D01*
X-1037Y-1862D01*
X-1035Y-1860D01*
X-1034Y-1860D01*
X-1033Y-1859D01*
X-1032Y-1859D01*
X-1032Y-1858D01*
X-1034Y-1857D01*
X-1035Y-1855D01*
X-1036Y-1854D01*
X-1038Y-1852D01*
X-1039Y-1849D01*
X-1041Y-1846D01*
X-1041Y-1843D01*
X-1041Y-1841D01*
X-1042Y-1840D01*
X-1042Y-1839D01*
Y-1839D01*
Y-1838D01*
Y-1838D01*
Y-1829D01*
Y-1827D01*
X-1041Y-1825D01*
X-1041Y-1821D01*
X-1039Y-1818D01*
X-1038Y-1815D01*
X-1036Y-1813D01*
X-1035Y-1811D01*
X-1034Y-1810D01*
X-1034Y-1810D01*
X-1033D01*
X-1032Y-1808D01*
X-1030Y-1807D01*
X-1027Y-1805D01*
X-1023Y-1803D01*
X-1020Y-1802D01*
X-1018Y-1802D01*
X-1016Y-1802D01*
X-1016D01*
X-1015Y-1801D01*
X-987D01*
X-985Y-1802D01*
D02*
G37*
G36*
X-686Y-1953D02*
X-685Y-1954D01*
X-684Y-1955D01*
X-683Y-1956D01*
X-683Y-1957D01*
X-683Y-1958D01*
X-682Y-1959D01*
Y-1959D01*
Y-2051D01*
X-683Y-2053D01*
X-683Y-2055D01*
X-684Y-2059D01*
X-685Y-2062D01*
X-686Y-2065D01*
X-688Y-2068D01*
X-689Y-2069D01*
X-690Y-2070D01*
X-691Y-2070D01*
Y-2071D01*
X-692Y-2072D01*
X-694Y-2073D01*
X-697Y-2075D01*
X-701Y-2077D01*
X-704Y-2078D01*
X-706Y-2078D01*
X-708Y-2079D01*
X-709D01*
X-709Y-2079D01*
X-719D01*
X-721Y-2079D01*
X-724Y-2078D01*
X-727Y-2078D01*
X-731Y-2076D01*
X-734Y-2075D01*
X-736Y-2073D01*
X-738Y-2072D01*
X-739Y-2071D01*
X-739Y-2071D01*
X-741Y-2069D01*
X-742Y-2068D01*
X-744Y-2064D01*
X-746Y-2061D01*
X-746Y-2058D01*
X-747Y-2055D01*
X-747Y-2053D01*
X-748Y-2052D01*
Y-2051D01*
Y-2051D01*
Y-2051D01*
Y-1959D01*
X-747Y-1957D01*
X-747Y-1955D01*
X-746Y-1954D01*
X-744Y-1953D01*
X-743Y-1953D01*
X-742Y-1953D01*
X-741D01*
X-739Y-1953D01*
X-738Y-1954D01*
X-737Y-1955D01*
X-736Y-1956D01*
X-736Y-1957D01*
X-735Y-1958D01*
X-735Y-1959D01*
Y-1959D01*
Y-2051D01*
X-735Y-2053D01*
X-734Y-2055D01*
X-734Y-2057D01*
X-733Y-2059D01*
X-732Y-2060D01*
X-731Y-2061D01*
X-731Y-2062D01*
X-730Y-2062D01*
X-729Y-2064D01*
X-727Y-2065D01*
X-725Y-2065D01*
X-723Y-2066D01*
X-721Y-2066D01*
X-720Y-2067D01*
X-711D01*
X-708Y-2066D01*
X-706Y-2066D01*
X-704Y-2065D01*
X-703Y-2064D01*
X-701Y-2063D01*
X-700Y-2063D01*
X-700Y-2062D01*
X-699Y-2062D01*
X-698Y-2060D01*
X-697Y-2058D01*
X-696Y-2056D01*
X-695Y-2055D01*
X-695Y-2053D01*
X-695Y-2052D01*
Y-2051D01*
Y-2051D01*
Y-1959D01*
X-695Y-1957D01*
X-694Y-1955D01*
X-693Y-1954D01*
X-692Y-1953D01*
X-691Y-1953D01*
X-689Y-1953D01*
X-689D01*
X-686Y-1953D01*
D02*
G37*
G36*
X-599D02*
X-597Y-1954D01*
X-596Y-1955D01*
X-595Y-1956D01*
X-595Y-1957D01*
X-595Y-1958D01*
X-594Y-1959D01*
Y-1959D01*
Y-2073D01*
X-595Y-2075D01*
X-595Y-2076D01*
X-596Y-2077D01*
X-598Y-2078D01*
X-599Y-2078D01*
X-600Y-2079D01*
X-600Y-2079D01*
X-601D01*
X-603Y-2079D01*
X-604Y-2078D01*
X-605Y-2077D01*
X-606Y-2076D01*
X-606Y-2075D01*
X-607Y-2074D01*
Y-2073D01*
Y-2073D01*
Y-1959D01*
X-607Y-1957D01*
X-606Y-1955D01*
X-605Y-1954D01*
X-604Y-1953D01*
X-603Y-1953D01*
X-601Y-1953D01*
X-601D01*
X-599Y-1953D01*
D02*
G37*
G36*
X-625D02*
X-624Y-1954D01*
X-622Y-1955D01*
X-622Y-1956D01*
X-621Y-1957D01*
X-621Y-1958D01*
X-621Y-1959D01*
Y-1959D01*
Y-2073D01*
X-621Y-2075D01*
X-622Y-2076D01*
X-623Y-2077D01*
X-624Y-2078D01*
X-625Y-2078D01*
X-626Y-2079D01*
X-627Y-2079D01*
X-662D01*
X-664Y-2079D01*
X-666Y-2078D01*
X-667Y-2077D01*
X-668Y-2076D01*
X-668Y-2075D01*
X-668Y-2074D01*
Y-2073D01*
Y-2073D01*
X-668Y-2071D01*
X-667Y-2069D01*
X-666Y-2068D01*
X-665Y-2067D01*
X-664Y-2067D01*
X-663Y-2067D01*
X-633D01*
Y-1959D01*
X-633Y-1957D01*
X-632Y-1955D01*
X-631Y-1954D01*
X-630Y-1953D01*
X-629Y-1953D01*
X-628Y-1953D01*
X-627D01*
X-625Y-1953D01*
D02*
G37*
G36*
X-786Y-1953D02*
X-782Y-1954D01*
X-778Y-1955D01*
X-775Y-1957D01*
X-773Y-1958D01*
X-771Y-1960D01*
X-770Y-1961D01*
X-770Y-1961D01*
X-770Y-1961D01*
X-768Y-1963D01*
X-767Y-1964D01*
X-765Y-1968D01*
X-764Y-1971D01*
X-763Y-1974D01*
X-762Y-1977D01*
X-762Y-1979D01*
X-762Y-1980D01*
Y-1980D01*
Y-1981D01*
Y-1981D01*
X-762Y-1983D01*
X-762Y-1985D01*
X-763Y-1989D01*
X-764Y-1992D01*
X-766Y-1995D01*
X-767Y-1997D01*
X-769Y-1999D01*
X-770Y-2000D01*
X-770Y-2000D01*
Y-2000D01*
X-809Y-2040D01*
X-811Y-2042D01*
X-812Y-2043D01*
X-813Y-2045D01*
X-813Y-2047D01*
X-814Y-2048D01*
X-814Y-2050D01*
Y-2050D01*
Y-2051D01*
X-814Y-2053D01*
X-813Y-2055D01*
X-812Y-2057D01*
X-812Y-2059D01*
X-811Y-2060D01*
X-810Y-2061D01*
X-809Y-2062D01*
X-809Y-2062D01*
X-807Y-2063D01*
X-806Y-2065D01*
X-804Y-2065D01*
X-802Y-2066D01*
X-800Y-2066D01*
X-799Y-2067D01*
X-785D01*
X-783Y-2066D01*
X-780Y-2066D01*
X-778Y-2065D01*
X-776Y-2065D01*
X-774Y-2064D01*
X-773Y-2063D01*
X-772Y-2063D01*
X-771Y-2063D01*
X-770Y-2062D01*
X-769Y-2061D01*
X-768Y-2061D01*
X-767D01*
X-766Y-2062D01*
X-764Y-2062D01*
X-764Y-2063D01*
X-763Y-2063D01*
Y-2063D01*
X-762Y-2065D01*
X-762Y-2066D01*
X-761Y-2067D01*
Y-2067D01*
Y-2067D01*
X-762Y-2068D01*
X-762Y-2069D01*
X-763Y-2071D01*
X-764Y-2072D01*
X-764Y-2072D01*
X-764Y-2072D01*
X-767Y-2075D01*
X-771Y-2076D01*
X-774Y-2077D01*
X-778Y-2078D01*
X-781Y-2078D01*
X-782Y-2079D01*
X-783D01*
X-784Y-2079D01*
X-798D01*
X-800Y-2079D01*
X-802Y-2078D01*
X-806Y-2078D01*
X-809Y-2076D01*
X-812Y-2075D01*
X-815Y-2073D01*
X-816Y-2072D01*
X-818Y-2071D01*
X-818Y-2071D01*
X-819Y-2069D01*
X-821Y-2068D01*
X-823Y-2064D01*
X-824Y-2061D01*
X-825Y-2058D01*
X-826Y-2055D01*
X-826Y-2054D01*
Y-2053D01*
X-826Y-2052D01*
Y-2051D01*
Y-2051D01*
Y-2051D01*
Y-2049D01*
X-826Y-2047D01*
X-825Y-2043D01*
X-824Y-2040D01*
X-822Y-2037D01*
X-821Y-2034D01*
X-819Y-2033D01*
X-818Y-2031D01*
X-818Y-2031D01*
X-818D01*
X-779Y-1992D01*
X-777Y-1990D01*
X-776Y-1988D01*
X-775Y-1986D01*
X-775Y-1985D01*
X-774Y-1983D01*
X-774Y-1982D01*
Y-1981D01*
Y-1981D01*
X-774Y-1978D01*
X-775Y-1976D01*
X-776Y-1974D01*
X-776Y-1973D01*
X-777Y-1971D01*
X-778Y-1970D01*
X-779Y-1970D01*
X-779Y-1970D01*
X-781Y-1968D01*
X-782Y-1967D01*
X-784Y-1966D01*
X-786Y-1965D01*
X-787Y-1965D01*
X-789Y-1965D01*
X-803D01*
X-805Y-1965D01*
X-808Y-1966D01*
X-810Y-1966D01*
X-812Y-1967D01*
X-814Y-1968D01*
X-816Y-1969D01*
X-816Y-1969D01*
X-817Y-1970D01*
X-818Y-1970D01*
X-819Y-1970D01*
X-820Y-1970D01*
X-821D01*
X-822Y-1970D01*
X-824Y-1970D01*
X-824Y-1969D01*
X-825Y-1969D01*
X-826Y-1968D01*
X-826Y-1967D01*
X-827Y-1965D01*
X-827Y-1964D01*
Y-1964D01*
Y-1964D01*
X-827Y-1963D01*
X-826Y-1962D01*
X-825Y-1961D01*
X-824Y-1960D01*
X-824Y-1959D01*
X-824Y-1959D01*
X-821Y-1957D01*
X-817Y-1955D01*
X-813Y-1954D01*
X-810Y-1953D01*
X-807Y-1953D01*
X-806Y-1953D01*
X-805D01*
X-804Y-1953D01*
X-788D01*
X-786Y-1953D01*
D02*
G37*
G36*
X-845Y-1953D02*
X-843Y-1954D01*
X-842Y-1955D01*
X-841Y-1956D01*
X-841Y-1957D01*
X-841Y-1958D01*
X-841Y-1959D01*
Y-1959D01*
X-841Y-1961D01*
X-841Y-1962D01*
X-842Y-1963D01*
X-844Y-1964D01*
X-845Y-1965D01*
X-846Y-1965D01*
X-846Y-1965D01*
X-867D01*
Y-2073D01*
X-867Y-2075D01*
X-868Y-2076D01*
X-869Y-2077D01*
X-870Y-2078D01*
X-871Y-2078D01*
X-872Y-2079D01*
X-873Y-2079D01*
X-873D01*
X-875Y-2079D01*
X-877Y-2078D01*
X-878Y-2077D01*
X-879Y-2076D01*
X-879Y-2075D01*
X-879Y-2074D01*
Y-2073D01*
Y-2073D01*
Y-1965D01*
X-899D01*
X-901Y-1965D01*
X-903Y-1964D01*
X-904Y-1963D01*
X-905Y-1962D01*
X-905Y-1961D01*
X-906Y-1960D01*
Y-1959D01*
Y-1959D01*
X-905Y-1957D01*
X-905Y-1955D01*
X-904Y-1954D01*
X-902Y-1953D01*
X-901Y-1953D01*
X-900Y-1953D01*
X-847D01*
X-845Y-1953D01*
D02*
G37*
G36*
X-3195Y10D02*
Y-1010D01*
X-3445D01*
Y-10D01*
Y10D01*
D01*
Y1010D01*
X-3195D01*
Y10D01*
D02*
G37*
G36*
X-1167Y-1487D02*
X-1164Y-1488D01*
X-1160Y-1489D01*
X-1158Y-1490D01*
X-1155Y-1492D01*
X-1153Y-1494D01*
X-1150Y-1496D01*
X-1149Y-1498D01*
X-1147Y-1500D01*
X-1146Y-1502D01*
X-1144Y-1504D01*
X-1144Y-1505D01*
X-1143Y-1507D01*
X-1142Y-1508D01*
X-1142Y-1509D01*
X-1142Y-1509D01*
X-1142Y-1510D01*
Y-1511D01*
Y-1511D01*
X-1142Y-1513D01*
X-1143Y-1514D01*
X-1144Y-1516D01*
X-1145Y-1516D01*
X-1146Y-1517D01*
X-1147Y-1517D01*
X-1148Y-1517D01*
X-1148D01*
X-1149Y-1517D01*
X-1151Y-1516D01*
X-1152Y-1516D01*
X-1152Y-1515D01*
X-1153Y-1514D01*
X-1154Y-1513D01*
Y-1513D01*
X-1155Y-1511D01*
X-1156Y-1509D01*
X-1158Y-1507D01*
X-1159Y-1505D01*
X-1160Y-1504D01*
X-1162Y-1503D01*
X-1163Y-1502D01*
X-1165Y-1501D01*
X-1167Y-1500D01*
X-1170Y-1499D01*
X-1170Y-1499D01*
X-1172D01*
X-1174Y-1499D01*
X-1177Y-1500D01*
X-1180Y-1501D01*
X-1182Y-1502D01*
X-1184Y-1503D01*
X-1185Y-1504D01*
X-1186Y-1505D01*
X-1186Y-1505D01*
X-1189Y-1507D01*
X-1190Y-1510D01*
X-1192Y-1512D01*
X-1192Y-1514D01*
X-1193Y-1516D01*
X-1193Y-1518D01*
X-1193Y-1519D01*
Y-1519D01*
Y-1519D01*
X-1193Y-1521D01*
X-1193Y-1523D01*
X-1192Y-1525D01*
X-1191Y-1527D01*
X-1190Y-1529D01*
X-1190Y-1530D01*
X-1189Y-1531D01*
X-1189Y-1531D01*
X-1141Y-1604D01*
X-1141Y-1605D01*
X-1141Y-1606D01*
X-1140Y-1606D01*
Y-1607D01*
X-1141Y-1609D01*
X-1141Y-1610D01*
X-1142Y-1611D01*
X-1144Y-1612D01*
X-1145Y-1613D01*
X-1146Y-1613D01*
X-1146Y-1613D01*
X-1199D01*
X-1201Y-1613D01*
X-1202Y-1612D01*
X-1204Y-1611D01*
X-1204Y-1610D01*
X-1205Y-1609D01*
X-1205Y-1608D01*
Y-1607D01*
Y-1607D01*
X-1205Y-1605D01*
X-1204Y-1604D01*
X-1203Y-1602D01*
X-1202Y-1602D01*
X-1201Y-1601D01*
X-1200Y-1601D01*
X-1157D01*
X-1200Y-1538D01*
X-1202Y-1534D01*
X-1203Y-1531D01*
X-1204Y-1528D01*
X-1205Y-1525D01*
X-1206Y-1522D01*
X-1206Y-1520D01*
Y-1520D01*
Y-1519D01*
Y-1519D01*
Y-1519D01*
X-1206Y-1516D01*
X-1205Y-1514D01*
X-1205Y-1512D01*
X-1204Y-1510D01*
X-1202Y-1506D01*
X-1200Y-1502D01*
X-1198Y-1500D01*
X-1197Y-1499D01*
X-1197Y-1498D01*
X-1196Y-1497D01*
X-1195Y-1496D01*
X-1195Y-1496D01*
X-1195Y-1496D01*
X-1193Y-1494D01*
X-1191Y-1493D01*
X-1189Y-1492D01*
X-1187Y-1491D01*
X-1183Y-1489D01*
X-1179Y-1488D01*
X-1176Y-1487D01*
X-1174Y-1487D01*
X-1173D01*
X-1172Y-1487D01*
X-1171D01*
X-1167Y-1487D01*
D02*
G37*
G36*
X-846Y-1487D02*
X-844Y-1488D01*
X-843Y-1489D01*
X-842Y-1490D01*
X-842Y-1491D01*
X-842Y-1492D01*
X-842Y-1493D01*
Y-1493D01*
Y-1607D01*
X-842Y-1609D01*
X-842Y-1611D01*
X-843Y-1612D01*
X-845Y-1612D01*
X-846Y-1613D01*
X-847Y-1613D01*
X-847Y-1613D01*
X-848D01*
X-850Y-1613D01*
X-851Y-1612D01*
X-852Y-1611D01*
X-853Y-1610D01*
X-854Y-1609D01*
X-854Y-1608D01*
Y-1607D01*
Y-1607D01*
Y-1552D01*
X-894D01*
Y-1607D01*
X-895Y-1609D01*
X-895Y-1611D01*
X-896Y-1612D01*
X-897Y-1612D01*
X-899Y-1613D01*
X-900Y-1613D01*
X-900Y-1613D01*
X-900D01*
X-902Y-1613D01*
X-904Y-1612D01*
X-905Y-1611D01*
X-906Y-1610D01*
X-906Y-1609D01*
X-907Y-1608D01*
Y-1607D01*
Y-1607D01*
Y-1493D01*
X-907Y-1491D01*
X-906Y-1490D01*
X-905Y-1489D01*
X-904Y-1488D01*
X-902Y-1487D01*
X-901Y-1487D01*
X-900D01*
X-898Y-1487D01*
X-897Y-1488D01*
X-896Y-1489D01*
X-895Y-1490D01*
X-895Y-1491D01*
X-895Y-1492D01*
X-894Y-1493D01*
Y-1493D01*
Y-1540D01*
X-854D01*
Y-1493D01*
X-854Y-1491D01*
X-853Y-1490D01*
X-852Y-1489D01*
X-851Y-1488D01*
X-850Y-1487D01*
X-849Y-1487D01*
X-848D01*
X-846Y-1487D01*
D02*
G37*
G36*
X-608Y-1567D02*
X-607Y-1568D01*
X-606Y-1569D01*
X-605Y-1570D01*
X-605Y-1571D01*
X-605Y-1572D01*
X-604Y-1573D01*
Y-1573D01*
X-605Y-1575D01*
X-605Y-1576D01*
X-606Y-1577D01*
X-607Y-1578D01*
X-608Y-1578D01*
X-609Y-1578D01*
X-610Y-1579D01*
X-656D01*
X-658Y-1578D01*
X-660Y-1578D01*
X-660Y-1577D01*
X-661Y-1576D01*
X-662Y-1575D01*
X-662Y-1574D01*
Y-1573D01*
Y-1573D01*
X-662Y-1571D01*
X-661Y-1570D01*
X-660Y-1569D01*
X-659Y-1568D01*
X-658Y-1568D01*
X-657Y-1567D01*
X-610D01*
X-608Y-1567D01*
D02*
G37*
G36*
X-213Y-1487D02*
X-212Y-1488D01*
X-211Y-1489D01*
X-210Y-1490D01*
X-209Y-1491D01*
X-209Y-1492D01*
X-209Y-1493D01*
Y-1493D01*
Y-1607D01*
X-209Y-1609D01*
X-210Y-1611D01*
X-211Y-1612D01*
X-212Y-1612D01*
X-213Y-1613D01*
X-214Y-1613D01*
X-215Y-1613D01*
X-215D01*
X-217Y-1613D01*
X-219Y-1612D01*
X-220Y-1611D01*
X-221Y-1610D01*
X-221Y-1609D01*
X-221Y-1608D01*
Y-1607D01*
Y-1607D01*
Y-1560D01*
X-246D01*
X-248Y-1560D01*
X-250Y-1560D01*
X-254Y-1559D01*
X-257Y-1558D01*
X-260Y-1556D01*
X-263Y-1555D01*
X-264Y-1554D01*
X-266Y-1553D01*
X-266Y-1552D01*
X-267Y-1551D01*
X-269Y-1549D01*
X-271Y-1546D01*
X-272Y-1542D01*
X-273Y-1539D01*
X-274Y-1537D01*
X-274Y-1534D01*
X-274Y-1534D01*
Y-1533D01*
Y-1533D01*
Y-1533D01*
Y-1515D01*
Y-1513D01*
X-274Y-1511D01*
X-273Y-1507D01*
X-272Y-1504D01*
X-270Y-1501D01*
X-268Y-1499D01*
X-267Y-1497D01*
X-266Y-1496D01*
X-266Y-1495D01*
X-266D01*
X-264Y-1494D01*
X-263Y-1493D01*
X-259Y-1491D01*
X-256Y-1489D01*
X-253Y-1488D01*
X-250Y-1487D01*
X-249Y-1487D01*
X-248D01*
X-247Y-1487D01*
X-215D01*
X-213Y-1487D01*
D02*
G37*
G36*
X-312Y-1487D02*
X-308Y-1488D01*
X-305Y-1490D01*
X-302Y-1491D01*
X-299Y-1493D01*
X-298Y-1494D01*
X-297Y-1495D01*
X-296Y-1495D01*
X-296Y-1495D01*
X-295Y-1497D01*
X-294Y-1499D01*
X-292Y-1502D01*
X-290Y-1505D01*
X-289Y-1508D01*
X-288Y-1511D01*
X-288Y-1513D01*
X-288Y-1514D01*
Y-1514D01*
Y-1515D01*
Y-1515D01*
Y-1585D01*
X-288Y-1587D01*
X-288Y-1589D01*
X-289Y-1593D01*
X-291Y-1597D01*
X-292Y-1599D01*
X-294Y-1602D01*
X-295Y-1604D01*
X-296Y-1605D01*
X-296Y-1605D01*
Y-1605D01*
X-298Y-1606D01*
X-299Y-1608D01*
X-303Y-1610D01*
X-306Y-1611D01*
X-309Y-1612D01*
X-312Y-1613D01*
X-313Y-1613D01*
X-314D01*
X-315Y-1613D01*
X-325D01*
X-327Y-1613D01*
X-329Y-1613D01*
X-333Y-1612D01*
X-336Y-1611D01*
X-339Y-1609D01*
X-342Y-1608D01*
X-343Y-1606D01*
X-345Y-1605D01*
X-345Y-1605D01*
X-346Y-1604D01*
X-348Y-1602D01*
X-350Y-1599D01*
X-351Y-1595D01*
X-352Y-1592D01*
X-353Y-1589D01*
X-353Y-1587D01*
X-353Y-1586D01*
Y-1586D01*
Y-1585D01*
Y-1585D01*
Y-1515D01*
Y-1513D01*
X-353Y-1511D01*
X-352Y-1507D01*
X-351Y-1504D01*
X-349Y-1501D01*
X-348Y-1499D01*
X-346Y-1497D01*
X-345Y-1496D01*
X-345Y-1495D01*
X-345D01*
X-343Y-1494D01*
X-342Y-1493D01*
X-338Y-1491D01*
X-335Y-1489D01*
X-332Y-1488D01*
X-329Y-1487D01*
X-328Y-1487D01*
X-327D01*
X-326Y-1487D01*
X-314D01*
X-312Y-1487D01*
D02*
G37*
G36*
X-371Y-1487D02*
X-370Y-1488D01*
X-369Y-1489D01*
X-368Y-1490D01*
X-368Y-1491D01*
X-367Y-1492D01*
X-367Y-1493D01*
Y-1493D01*
Y-1607D01*
X-367Y-1609D01*
X-368Y-1611D01*
X-369Y-1612D01*
X-370Y-1612D01*
X-371Y-1613D01*
X-372Y-1613D01*
X-373Y-1613D01*
X-404D01*
X-406Y-1613D01*
X-408Y-1613D01*
X-412Y-1612D01*
X-415Y-1611D01*
X-418Y-1609D01*
X-421Y-1608D01*
X-423Y-1606D01*
X-424Y-1605D01*
X-424Y-1605D01*
X-425Y-1604D01*
X-427Y-1602D01*
X-429Y-1599D01*
X-430Y-1595D01*
X-431Y-1592D01*
X-432Y-1589D01*
X-432Y-1587D01*
X-432Y-1586D01*
Y-1586D01*
Y-1585D01*
Y-1585D01*
Y-1568D01*
Y-1566D01*
X-432Y-1564D01*
X-431Y-1560D01*
X-430Y-1556D01*
X-428Y-1554D01*
X-427Y-1551D01*
X-425Y-1549D01*
X-424Y-1548D01*
X-424Y-1548D01*
X-424D01*
X-422Y-1546D01*
X-421Y-1545D01*
X-417Y-1543D01*
X-414Y-1542D01*
X-411Y-1541D01*
X-408Y-1540D01*
X-407Y-1540D01*
X-406D01*
X-405Y-1540D01*
X-380D01*
Y-1499D01*
X-422D01*
X-424Y-1499D01*
X-425Y-1498D01*
X-426Y-1497D01*
X-427Y-1496D01*
X-428Y-1495D01*
X-428Y-1494D01*
Y-1493D01*
Y-1493D01*
X-428Y-1491D01*
X-427Y-1490D01*
X-426Y-1489D01*
X-425Y-1488D01*
X-424Y-1487D01*
X-423Y-1487D01*
X-373D01*
X-371Y-1487D01*
D02*
G37*
G36*
X-470Y-1487D02*
X-466Y-1488D01*
X-463Y-1490D01*
X-460Y-1491D01*
X-458Y-1493D01*
X-456Y-1494D01*
X-455Y-1495D01*
X-455Y-1495D01*
X-454Y-1495D01*
X-453Y-1497D01*
X-452Y-1499D01*
X-450Y-1502D01*
X-448Y-1505D01*
X-447Y-1508D01*
X-447Y-1511D01*
X-446Y-1513D01*
X-446Y-1514D01*
Y-1514D01*
Y-1515D01*
Y-1515D01*
Y-1585D01*
X-446Y-1587D01*
X-447Y-1589D01*
X-448Y-1593D01*
X-449Y-1597D01*
X-450Y-1599D01*
X-452Y-1602D01*
X-453Y-1604D01*
X-454Y-1605D01*
X-454Y-1605D01*
Y-1605D01*
X-456Y-1606D01*
X-458Y-1608D01*
X-461Y-1610D01*
X-464Y-1611D01*
X-468Y-1612D01*
X-470Y-1613D01*
X-471Y-1613D01*
X-472D01*
X-473Y-1613D01*
X-483D01*
X-485Y-1613D01*
X-487Y-1613D01*
X-491Y-1612D01*
X-495Y-1611D01*
X-498Y-1609D01*
X-500Y-1608D01*
X-502Y-1606D01*
X-503Y-1605D01*
X-503Y-1605D01*
X-505Y-1604D01*
X-506Y-1602D01*
X-508Y-1599D01*
X-509Y-1595D01*
X-510Y-1592D01*
X-511Y-1589D01*
X-511Y-1587D01*
X-511Y-1586D01*
Y-1586D01*
Y-1585D01*
Y-1585D01*
Y-1515D01*
Y-1513D01*
X-511Y-1511D01*
X-510Y-1507D01*
X-509Y-1504D01*
X-507Y-1501D01*
X-506Y-1499D01*
X-504Y-1497D01*
X-503Y-1496D01*
X-503Y-1495D01*
X-503D01*
X-501Y-1494D01*
X-500Y-1493D01*
X-496Y-1491D01*
X-493Y-1489D01*
X-490Y-1488D01*
X-487Y-1487D01*
X-486Y-1487D01*
X-485D01*
X-484Y-1487D01*
X-472D01*
X-470Y-1487D01*
D02*
G37*
G36*
X-529Y-1487D02*
X-528Y-1488D01*
X-527Y-1489D01*
X-526Y-1490D01*
X-526Y-1491D01*
X-525Y-1492D01*
X-525Y-1493D01*
Y-1493D01*
X-525Y-1495D01*
X-526Y-1497D01*
X-527Y-1498D01*
X-528Y-1499D01*
X-530Y-1499D01*
X-530Y-1499D01*
X-531Y-1499D01*
X-552D01*
Y-1607D01*
X-552Y-1609D01*
X-553Y-1611D01*
X-553Y-1612D01*
X-555Y-1612D01*
X-556Y-1613D01*
X-557Y-1613D01*
X-558Y-1613D01*
X-558D01*
X-560Y-1613D01*
X-561Y-1612D01*
X-563Y-1611D01*
X-563Y-1610D01*
X-564Y-1609D01*
X-564Y-1608D01*
Y-1607D01*
Y-1607D01*
Y-1499D01*
X-584D01*
X-586Y-1499D01*
X-588Y-1498D01*
X-589Y-1497D01*
X-590Y-1496D01*
X-590Y-1495D01*
X-590Y-1494D01*
Y-1493D01*
Y-1493D01*
X-590Y-1491D01*
X-589Y-1490D01*
X-588Y-1489D01*
X-587Y-1488D01*
X-586Y-1487D01*
X-585Y-1487D01*
X-531D01*
X-529Y-1487D01*
D02*
G37*
G36*
X-679D02*
X-677Y-1488D01*
X-676Y-1489D01*
X-675Y-1490D01*
X-675Y-1491D01*
X-675Y-1492D01*
X-675Y-1493D01*
Y-1493D01*
Y-1607D01*
X-675Y-1609D01*
X-676Y-1611D01*
X-677Y-1612D01*
X-678Y-1612D01*
X-679Y-1613D01*
X-680Y-1613D01*
X-681Y-1613D01*
X-712D01*
X-714Y-1613D01*
X-716Y-1613D01*
X-720Y-1612D01*
X-723Y-1611D01*
X-726Y-1609D01*
X-728Y-1608D01*
X-730Y-1606D01*
X-731Y-1605D01*
X-732Y-1605D01*
X-733Y-1604D01*
X-734Y-1602D01*
X-736Y-1599D01*
X-738Y-1595D01*
X-739Y-1592D01*
X-740Y-1589D01*
X-740Y-1587D01*
X-740Y-1586D01*
Y-1586D01*
Y-1585D01*
Y-1585D01*
Y-1568D01*
Y-1566D01*
X-740Y-1564D01*
X-739Y-1560D01*
X-737Y-1556D01*
X-736Y-1554D01*
X-734Y-1551D01*
X-733Y-1549D01*
X-732Y-1548D01*
X-732Y-1548D01*
X-732D01*
X-730Y-1546D01*
X-728Y-1545D01*
X-725Y-1543D01*
X-722Y-1542D01*
X-718Y-1541D01*
X-716Y-1540D01*
X-715Y-1540D01*
X-714D01*
X-713Y-1540D01*
X-687D01*
Y-1499D01*
X-729D01*
X-731Y-1499D01*
X-733Y-1498D01*
X-734Y-1497D01*
X-735Y-1496D01*
X-735Y-1495D01*
X-735Y-1494D01*
Y-1493D01*
Y-1493D01*
X-735Y-1491D01*
X-735Y-1490D01*
X-734Y-1489D01*
X-733Y-1488D01*
X-731Y-1487D01*
X-730Y-1487D01*
X-681D01*
X-679Y-1487D01*
D02*
G37*
G36*
X-789D02*
X-787Y-1488D01*
X-787Y-1489D01*
X-786Y-1490D01*
X-785Y-1491D01*
X-785Y-1491D01*
X-785Y-1492D01*
Y-1492D01*
X-754Y-1606D01*
X-754D01*
Y-1607D01*
Y-1607D01*
Y-1607D01*
X-754Y-1609D01*
X-755Y-1611D01*
X-756Y-1612D01*
X-757Y-1612D01*
X-758Y-1613D01*
X-759Y-1613D01*
X-760Y-1613D01*
X-760D01*
X-762Y-1613D01*
X-763Y-1612D01*
X-764Y-1612D01*
X-765Y-1611D01*
X-765Y-1610D01*
X-766Y-1609D01*
X-766Y-1609D01*
Y-1609D01*
X-774Y-1578D01*
X-807D01*
X-815Y-1609D01*
X-816Y-1610D01*
X-817Y-1611D01*
X-817Y-1612D01*
X-819Y-1613D01*
X-820Y-1613D01*
X-820Y-1613D01*
X-821D01*
X-823Y-1613D01*
X-825Y-1612D01*
X-826Y-1611D01*
X-827Y-1610D01*
X-827Y-1609D01*
X-827Y-1608D01*
Y-1607D01*
Y-1607D01*
Y-1606D01*
X-827Y-1606D01*
Y-1605D01*
X-796Y-1492D01*
X-796Y-1491D01*
X-795Y-1489D01*
X-794Y-1488D01*
X-793Y-1488D01*
X-792Y-1487D01*
X-791Y-1487D01*
X-790D01*
X-789Y-1487D01*
D02*
G37*
G36*
X-978Y-1487D02*
X-977Y-1487D01*
X-976Y-1488D01*
X-975Y-1489D01*
X-974Y-1489D01*
X-974Y-1490D01*
X-933Y-1548D01*
Y-1493D01*
X-933Y-1491D01*
X-932Y-1490D01*
X-931Y-1489D01*
X-930Y-1488D01*
X-929Y-1487D01*
X-928Y-1487D01*
X-927D01*
X-925Y-1487D01*
X-923Y-1488D01*
X-922Y-1489D01*
X-921Y-1490D01*
X-921Y-1491D01*
X-921Y-1492D01*
X-921Y-1493D01*
Y-1493D01*
Y-1607D01*
X-921Y-1609D01*
X-922Y-1611D01*
X-922Y-1612D01*
X-924Y-1612D01*
X-925Y-1613D01*
X-926Y-1613D01*
X-927Y-1613D01*
X-927D01*
X-929Y-1613D01*
X-930Y-1612D01*
X-932Y-1611D01*
X-932Y-1610D01*
X-933Y-1609D01*
X-933Y-1608D01*
Y-1607D01*
Y-1607D01*
Y-1565D01*
X-945Y-1547D01*
X-974Y-1608D01*
X-974Y-1610D01*
X-975Y-1611D01*
X-976Y-1612D01*
X-977Y-1612D01*
X-978Y-1613D01*
X-979Y-1613D01*
X-979D01*
X-981Y-1613D01*
X-983Y-1612D01*
X-984Y-1611D01*
X-985Y-1610D01*
X-985Y-1609D01*
X-985Y-1608D01*
X-986Y-1607D01*
Y-1607D01*
Y-1606D01*
X-985Y-1605D01*
X-985Y-1605D01*
X-985Y-1604D01*
X-954Y-1537D01*
X-985Y-1497D01*
X-985Y-1496D01*
X-985Y-1494D01*
X-986Y-1494D01*
Y-1493D01*
Y-1492D01*
X-985Y-1491D01*
X-985Y-1490D01*
X-984Y-1489D01*
X-984Y-1489D01*
X-984D01*
X-983Y-1488D01*
X-982Y-1488D01*
X-981Y-1487D01*
X-980Y-1487D01*
X-979D01*
X-978Y-1487D01*
D02*
G37*
G36*
X-1035Y-1487D02*
X-1033Y-1488D01*
X-1032Y-1489D01*
X-1032Y-1490D01*
X-1031Y-1491D01*
X-1031Y-1491D01*
X-1030Y-1492D01*
Y-1492D01*
X-1000Y-1606D01*
X-1000D01*
Y-1607D01*
Y-1607D01*
Y-1607D01*
X-1000Y-1609D01*
X-1000Y-1611D01*
X-1002Y-1612D01*
X-1003Y-1612D01*
X-1004Y-1613D01*
X-1005Y-1613D01*
X-1006Y-1613D01*
X-1006D01*
X-1007Y-1613D01*
X-1009Y-1612D01*
X-1010Y-1612D01*
X-1010Y-1611D01*
X-1011Y-1610D01*
X-1012Y-1609D01*
X-1012Y-1609D01*
Y-1609D01*
X-1020Y-1578D01*
X-1053D01*
X-1061Y-1609D01*
X-1062Y-1610D01*
X-1062Y-1611D01*
X-1063Y-1612D01*
X-1065Y-1613D01*
X-1065Y-1613D01*
X-1066Y-1613D01*
X-1067D01*
X-1069Y-1613D01*
X-1071Y-1612D01*
X-1072Y-1611D01*
X-1072Y-1610D01*
X-1073Y-1609D01*
X-1073Y-1608D01*
Y-1607D01*
Y-1607D01*
Y-1606D01*
X-1073Y-1606D01*
Y-1605D01*
X-1042Y-1492D01*
X-1042Y-1491D01*
X-1041Y-1489D01*
X-1040Y-1488D01*
X-1039Y-1488D01*
X-1038Y-1487D01*
X-1037Y-1487D01*
X-1036D01*
X-1035Y-1487D01*
D02*
G37*
G36*
X-1223Y-1601D02*
X-1222Y-1602D01*
X-1221Y-1603D01*
X-1220Y-1604D01*
X-1220Y-1605D01*
X-1219Y-1606D01*
X-1219Y-1607D01*
Y-1607D01*
X-1219Y-1609D01*
X-1220Y-1611D01*
X-1221Y-1612D01*
X-1222Y-1612D01*
X-1224Y-1613D01*
X-1224Y-1613D01*
X-1225Y-1613D01*
X-1225D01*
X-1227Y-1613D01*
X-1229Y-1612D01*
X-1230Y-1611D01*
X-1231Y-1610D01*
X-1231Y-1609D01*
X-1232Y-1608D01*
Y-1607D01*
Y-1607D01*
X-1232Y-1605D01*
X-1231Y-1604D01*
X-1230Y-1602D01*
X-1229Y-1602D01*
X-1227Y-1601D01*
X-1226Y-1601D01*
X-1225D01*
X-1223Y-1601D01*
D02*
G37*
G36*
X-1270Y-1487D02*
X-1266Y-1488D01*
X-1262Y-1490D01*
X-1259Y-1491D01*
X-1257Y-1493D01*
X-1255Y-1494D01*
X-1254Y-1495D01*
X-1254Y-1495D01*
X-1254Y-1495D01*
X-1252Y-1497D01*
X-1251Y-1499D01*
X-1249Y-1502D01*
X-1248Y-1505D01*
X-1247Y-1508D01*
X-1246Y-1511D01*
X-1246Y-1513D01*
X-1246Y-1514D01*
Y-1514D01*
Y-1515D01*
Y-1515D01*
Y-1585D01*
X-1246Y-1587D01*
X-1246Y-1589D01*
X-1247Y-1593D01*
X-1248Y-1597D01*
X-1250Y-1599D01*
X-1251Y-1602D01*
X-1253Y-1604D01*
X-1254Y-1605D01*
X-1254Y-1605D01*
Y-1605D01*
X-1255Y-1606D01*
X-1257Y-1608D01*
X-1260Y-1610D01*
X-1264Y-1611D01*
X-1267Y-1612D01*
X-1270Y-1613D01*
X-1271Y-1613D01*
X-1272D01*
X-1273Y-1613D01*
X-1283D01*
X-1285Y-1613D01*
X-1287Y-1613D01*
X-1291Y-1612D01*
X-1294Y-1611D01*
X-1297Y-1609D01*
X-1299Y-1608D01*
X-1301Y-1606D01*
X-1302Y-1605D01*
X-1303Y-1605D01*
X-1304Y-1604D01*
X-1305Y-1602D01*
X-1307Y-1599D01*
X-1309Y-1595D01*
X-1310Y-1592D01*
X-1311Y-1589D01*
X-1311Y-1587D01*
X-1311Y-1586D01*
Y-1586D01*
Y-1585D01*
Y-1585D01*
Y-1515D01*
Y-1513D01*
X-1311Y-1511D01*
X-1310Y-1507D01*
X-1308Y-1504D01*
X-1307Y-1501D01*
X-1305Y-1499D01*
X-1304Y-1497D01*
X-1303Y-1496D01*
X-1303Y-1495D01*
X-1303D01*
X-1301Y-1494D01*
X-1299Y-1493D01*
X-1296Y-1491D01*
X-1293Y-1489D01*
X-1289Y-1488D01*
X-1287Y-1487D01*
X-1286Y-1487D01*
X-1285D01*
X-1284Y-1487D01*
X-1272D01*
X-1270Y-1487D01*
D02*
G37*
G36*
X3445Y-10D02*
Y-1010D01*
X3195D01*
Y-10D01*
Y1010D01*
X3445D01*
Y-10D01*
D02*
G37*
G36*
X535Y2555D02*
X-535D01*
Y2805D01*
X535D01*
Y2555D01*
D02*
G37*
%LPC*%
G36*
X-378Y-1814D02*
X-403D01*
X-405Y-1814D01*
X-407Y-1814D01*
X-409Y-1815D01*
X-411Y-1816D01*
X-412Y-1817D01*
X-413Y-1817D01*
X-414Y-1818D01*
X-414Y-1818D01*
X-415Y-1820D01*
X-417Y-1822D01*
X-417Y-1824D01*
X-418Y-1825D01*
X-418Y-1827D01*
X-419Y-1828D01*
Y-1829D01*
Y-1829D01*
Y-1900D01*
X-418Y-1902D01*
X-418Y-1904D01*
X-417Y-1906D01*
X-416Y-1908D01*
X-415Y-1909D01*
X-414Y-1910D01*
X-414Y-1911D01*
X-414Y-1911D01*
X-412Y-1912D01*
X-410Y-1913D01*
X-408Y-1914D01*
X-407Y-1915D01*
X-405Y-1915D01*
X-404Y-1915D01*
X-378D01*
Y-1814D01*
D02*
G37*
G36*
X-862D02*
X-886D01*
X-889Y-1814D01*
X-891Y-1814D01*
X-892Y-1815D01*
X-894Y-1816D01*
X-895Y-1817D01*
X-896Y-1817D01*
X-897Y-1818D01*
X-897Y-1818D01*
X-899Y-1820D01*
X-900Y-1822D01*
X-901Y-1824D01*
X-901Y-1825D01*
X-902Y-1827D01*
X-902Y-1828D01*
Y-1829D01*
Y-1829D01*
Y-1900D01*
X-902Y-1902D01*
X-901Y-1904D01*
X-901Y-1906D01*
X-900Y-1908D01*
X-899Y-1909D01*
X-898Y-1910D01*
X-897Y-1911D01*
X-897Y-1911D01*
X-895Y-1912D01*
X-894Y-1913D01*
X-892Y-1914D01*
X-890Y-1915D01*
X-888Y-1915D01*
X-887Y-1915D01*
X-862D01*
Y-1814D01*
D02*
G37*
G36*
X-993D02*
X-1013D01*
X-1016Y-1814D01*
X-1018Y-1814D01*
X-1020Y-1815D01*
X-1021Y-1816D01*
X-1023Y-1817D01*
X-1024Y-1818D01*
X-1024Y-1818D01*
X-1025Y-1818D01*
X-1026Y-1820D01*
X-1027Y-1822D01*
X-1028Y-1824D01*
X-1029Y-1826D01*
X-1029Y-1827D01*
X-1029Y-1828D01*
Y-1829D01*
Y-1829D01*
Y-1838D01*
X-1029Y-1840D01*
X-1029Y-1843D01*
X-1028Y-1845D01*
X-1027Y-1846D01*
X-1026Y-1847D01*
X-1025Y-1848D01*
X-1025Y-1849D01*
X-1025Y-1849D01*
X-1023Y-1851D01*
X-1021Y-1852D01*
X-1019Y-1853D01*
X-1017Y-1853D01*
X-1016Y-1854D01*
X-1015Y-1854D01*
X-993D01*
Y-1814D01*
D02*
G37*
G36*
Y-1866D02*
X-1018D01*
X-1020Y-1866D01*
X-1022Y-1867D01*
X-1024Y-1868D01*
X-1026Y-1868D01*
X-1027Y-1869D01*
X-1028Y-1870D01*
X-1029Y-1871D01*
X-1029Y-1871D01*
X-1031Y-1873D01*
X-1032Y-1875D01*
X-1033Y-1876D01*
X-1033Y-1878D01*
X-1034Y-1880D01*
X-1034Y-1881D01*
Y-1882D01*
Y-1882D01*
Y-1900D01*
X-1034Y-1902D01*
X-1033Y-1904D01*
X-1032Y-1906D01*
X-1031Y-1907D01*
X-1031Y-1909D01*
X-1030Y-1910D01*
X-1029Y-1910D01*
X-1029Y-1911D01*
X-1027Y-1912D01*
X-1025Y-1913D01*
X-1023Y-1914D01*
X-1022Y-1915D01*
X-1020Y-1915D01*
X-1019Y-1915D01*
X-993D01*
Y-1866D01*
D02*
G37*
G36*
X-3257Y792D02*
D01*
Y786D01*
X-3258Y787D01*
X-3258Y788D01*
X-3259Y790D01*
X-3260Y791D01*
X-3261Y791D01*
X-3263Y792D01*
X-3378D01*
X-3379Y791D01*
X-3380Y791D01*
X-3382Y790D01*
X-3382Y789D01*
X-3383Y787D01*
X-3383Y785D01*
Y785D01*
X-3383Y784D01*
X-3383Y783D01*
X-3383Y782D01*
X-3382Y781D01*
X-3381Y780D01*
X-3379Y779D01*
X-3377Y779D01*
X-3276D01*
X-3294Y763D01*
X-3294Y763D01*
X-3295Y762D01*
X-3295Y761D01*
X-3296Y759D01*
Y759D01*
X-3296Y758D01*
X-3295Y756D01*
X-3294Y755D01*
X-3294Y754D01*
X-3293Y754D01*
X-3291Y753D01*
X-3290Y753D01*
X-3383D01*
X-3257D01*
Y792D01*
D02*
G37*
G36*
X-3257Y740D02*
D01*
Y706D01*
X-3257Y707D01*
Y708D01*
X-3258Y709D01*
X-3258Y713D01*
X-3259Y716D01*
X-3261Y720D01*
X-3262Y722D01*
X-3263Y724D01*
X-3265Y726D01*
X-3266Y728D01*
X-3267Y729D01*
X-3267Y729D01*
X-3267Y730D01*
X-3268Y730D01*
X-3269Y731D01*
X-3270Y732D01*
X-3273Y734D01*
X-3276Y736D01*
X-3280Y738D01*
X-3282Y738D01*
X-3284Y739D01*
X-3287Y739D01*
X-3289Y740D01*
X-3291D01*
X-3293Y739D01*
X-3295Y739D01*
X-3298Y738D01*
X-3301Y737D01*
X-3305Y735D01*
X-3308Y733D01*
X-3371Y690D01*
Y733D01*
X-3372Y734D01*
X-3372Y736D01*
X-3373Y737D01*
X-3374Y738D01*
X-3375Y738D01*
X-3377Y739D01*
X-3377D01*
X-3378D01*
X-3379Y738D01*
X-3380Y738D01*
X-3382Y737D01*
X-3382Y736D01*
X-3383Y734D01*
X-3383Y732D01*
Y680D01*
X-3383Y679D01*
X-3383Y678D01*
X-3383Y677D01*
X-3382Y676D01*
X-3381Y675D01*
X-3379Y674D01*
X-3377Y674D01*
X-3383D01*
X-3377D01*
X-3376Y674D01*
X-3375Y674D01*
X-3374Y675D01*
X-3301Y723D01*
X-3301Y723D01*
X-3300Y723D01*
X-3299Y724D01*
X-3297Y725D01*
X-3295Y726D01*
X-3293Y726D01*
X-3291Y727D01*
X-3289Y727D01*
X-3289D01*
X-3289D01*
X-3288Y727D01*
X-3286Y726D01*
X-3284Y726D01*
X-3282Y725D01*
X-3280Y724D01*
X-3278Y722D01*
X-3275Y720D01*
X-3275Y720D01*
X-3274Y719D01*
X-3273Y718D01*
X-3272Y716D01*
X-3271Y713D01*
X-3270Y711D01*
X-3270Y708D01*
X-3270Y705D01*
Y704D01*
X-3270Y703D01*
X-3270Y701D01*
X-3271Y698D01*
X-3272Y697D01*
X-3273Y696D01*
X-3274Y694D01*
X-3275Y693D01*
X-3277Y691D01*
X-3279Y690D01*
X-3281Y688D01*
X-3283Y687D01*
X-3284D01*
X-3284Y687D01*
X-3285Y686D01*
X-3286Y685D01*
X-3287Y684D01*
X-3287Y683D01*
X-3287Y682D01*
Y681D01*
X-3287Y681D01*
X-3287Y680D01*
X-3287Y678D01*
X-3286Y677D01*
X-3285Y676D01*
X-3283Y676D01*
X-3281Y675D01*
X-3281D01*
X-3280D01*
X-3279Y676D01*
X-3279Y676D01*
X-3278Y676D01*
X-3277Y677D01*
X-3276Y677D01*
X-3274Y678D01*
X-3272Y679D01*
X-3270Y681D01*
X-3268Y682D01*
X-3266Y684D01*
X-3264Y686D01*
X-3262Y688D01*
X-3261Y691D01*
X-3259Y694D01*
X-3258Y697D01*
X-3257Y701D01*
X-3257Y705D01*
Y674D01*
D01*
Y740D01*
D02*
G37*
G36*
X-3257Y607D02*
D01*
Y580D01*
X-3258Y581D01*
Y582D01*
X-3258Y583D01*
X-3258Y586D01*
X-3259Y589D01*
X-3261Y592D01*
X-3263Y596D01*
X-3264Y597D01*
X-3266Y599D01*
Y599D01*
X-3266Y599D01*
X-3267Y600D01*
X-3269Y601D01*
X-3271Y603D01*
X-3274Y605D01*
X-3277Y606D01*
X-3281Y607D01*
X-3283Y607D01*
X-3304D01*
X-3305Y607D01*
X-3307Y607D01*
X-3310Y606D01*
X-3313Y605D01*
X-3316Y604D01*
X-3319Y602D01*
X-3321Y600D01*
X-3322Y599D01*
X-3323Y599D01*
X-3324Y597D01*
X-3325Y596D01*
X-3327Y593D01*
X-3328Y590D01*
X-3329Y587D01*
X-3330Y583D01*
X-3330Y581D01*
X-3331Y579D01*
Y554D01*
X-3377D01*
X-3377D01*
X-3378D01*
X-3379Y554D01*
X-3380Y554D01*
X-3382Y553D01*
X-3382Y552D01*
X-3383Y550D01*
X-3383Y548D01*
Y548D01*
X-3383Y547D01*
X-3383Y546D01*
X-3383Y545D01*
X-3382Y544D01*
X-3381Y543D01*
X-3379Y542D01*
X-3377Y542D01*
X-3383D01*
X-3257D01*
Y607D01*
D02*
G37*
G36*
Y528D02*
D01*
Y501D01*
X-3258Y502D01*
Y503D01*
X-3258Y504D01*
X-3258Y507D01*
X-3259Y510D01*
X-3261Y513D01*
X-3263Y516D01*
X-3264Y518D01*
X-3266Y520D01*
Y520D01*
X-3266Y520D01*
X-3267Y521D01*
X-3269Y522D01*
X-3271Y524D01*
X-3274Y526D01*
X-3277Y527D01*
X-3281Y528D01*
X-3283Y528D01*
X-3357D01*
X-3357Y528D01*
X-3360Y528D01*
X-3362Y527D01*
X-3365Y526D01*
X-3369Y525D01*
X-3372Y523D01*
X-3374Y521D01*
X-3375Y520D01*
X-3376Y519D01*
X-3377Y518D01*
X-3378Y516D01*
X-3379Y514D01*
X-3381Y511D01*
X-3382Y508D01*
X-3383Y504D01*
X-3383Y502D01*
X-3383Y500D01*
Y490D01*
X-3383Y489D01*
Y488D01*
X-3383Y487D01*
X-3382Y484D01*
X-3381Y481D01*
X-3380Y478D01*
X-3378Y474D01*
X-3377Y473D01*
X-3375Y471D01*
X-3375D01*
X-3375Y471D01*
X-3374Y470D01*
X-3372Y469D01*
X-3370Y467D01*
X-3367Y466D01*
X-3363Y464D01*
X-3360Y463D01*
X-3358Y463D01*
X-3355Y463D01*
X-3257D01*
Y528D01*
D02*
G37*
G36*
Y449D02*
D01*
Y444D01*
X-3258Y445D01*
X-3258Y446D01*
X-3259Y447D01*
X-3260Y448D01*
X-3261Y449D01*
X-3263Y449D01*
X-3264D01*
X-3265Y449D01*
X-3266Y448D01*
X-3268Y447D01*
X-3269Y446D01*
X-3269Y445D01*
X-3270Y443D01*
Y423D01*
X-3377D01*
X-3377D01*
X-3378D01*
X-3379Y422D01*
X-3380Y422D01*
X-3382Y421D01*
X-3382Y420D01*
X-3383Y418D01*
X-3383Y416D01*
Y416D01*
X-3383Y415D01*
X-3383Y414D01*
X-3383Y413D01*
X-3382Y412D01*
X-3381Y411D01*
X-3379Y410D01*
X-3377Y410D01*
X-3270D01*
Y390D01*
X-3269Y389D01*
X-3269Y388D01*
X-3269Y387D01*
X-3268Y386D01*
X-3267Y385D01*
X-3265Y384D01*
X-3263Y384D01*
X-3383D01*
X-3257D01*
Y449D01*
D02*
G37*
G36*
Y370D02*
D01*
Y343D01*
X-3258Y344D01*
Y345D01*
X-3258Y346D01*
X-3258Y349D01*
X-3259Y352D01*
X-3261Y355D01*
X-3263Y358D01*
X-3264Y360D01*
X-3266Y362D01*
Y362D01*
X-3266Y362D01*
X-3267Y363D01*
X-3269Y364D01*
X-3271Y366D01*
X-3274Y367D01*
X-3277Y369D01*
X-3281Y370D01*
X-3283Y370D01*
X-3357D01*
X-3357Y370D01*
X-3360Y370D01*
X-3362Y369D01*
X-3365Y368D01*
X-3369Y366D01*
X-3372Y364D01*
X-3374Y363D01*
X-3375Y362D01*
X-3376Y361D01*
X-3377Y360D01*
X-3378Y358D01*
X-3379Y356D01*
X-3381Y353D01*
X-3382Y350D01*
X-3383Y346D01*
X-3383Y344D01*
X-3383Y342D01*
Y332D01*
X-3383Y331D01*
Y330D01*
X-3383Y329D01*
X-3382Y326D01*
X-3381Y323D01*
X-3380Y319D01*
X-3378Y316D01*
X-3377Y314D01*
X-3375Y313D01*
X-3375D01*
X-3375Y313D01*
X-3374Y312D01*
X-3372Y310D01*
X-3370Y309D01*
X-3367Y307D01*
X-3363Y306D01*
X-3360Y305D01*
X-3358Y305D01*
X-3355Y305D01*
X-3257D01*
Y370D01*
D02*
G37*
G36*
X-3257Y291D02*
D01*
Y285D01*
X-3257Y286D01*
X-3257Y287D01*
X-3258Y288D01*
X-3258Y289D01*
X-3260Y290D01*
X-3261Y291D01*
X-3263Y291D01*
X-3378D01*
X-3379Y290D01*
X-3380Y290D01*
X-3382Y289D01*
X-3382Y288D01*
X-3383Y287D01*
X-3383Y284D01*
Y284D01*
X-3383Y284D01*
X-3383Y283D01*
X-3383Y282D01*
X-3382Y280D01*
X-3381Y279D01*
X-3379Y279D01*
X-3377Y278D01*
X-3281D01*
X-3324Y255D01*
X-3324Y255D01*
X-3324Y254D01*
X-3325Y253D01*
X-3327Y252D01*
X-3327Y251D01*
X-3327Y249D01*
Y249D01*
X-3327Y248D01*
X-3327Y248D01*
X-3326Y247D01*
X-3326Y246D01*
X-3325Y245D01*
X-3324Y244D01*
X-3281Y221D01*
X-3377D01*
X-3377D01*
X-3378D01*
X-3379Y220D01*
X-3380Y220D01*
X-3382Y219D01*
X-3382Y218D01*
X-3383Y217D01*
X-3383Y214D01*
Y214D01*
X-3383Y214D01*
X-3383Y213D01*
X-3383Y212D01*
X-3382Y210D01*
X-3381Y209D01*
X-3379Y209D01*
X-3377Y208D01*
X-3383D01*
D01*
X-3257D01*
Y291D01*
D02*
G37*
G36*
X-3289Y-195D02*
X-3291D01*
X-3293Y-195D01*
X-3295Y-196D01*
X-3298Y-196D01*
X-3301Y-197D01*
X-3305Y-199D01*
X-3308Y-201D01*
X-3371Y-244D01*
Y-201D01*
X-3372Y-200D01*
X-3372Y-199D01*
X-3373Y-198D01*
X-3374Y-197D01*
X-3375Y-196D01*
X-3377Y-196D01*
X-3377D01*
X-3378D01*
X-3379Y-196D01*
X-3380Y-197D01*
X-3382Y-197D01*
X-3382Y-198D01*
X-3383Y-200D01*
X-3383Y-202D01*
Y-195D01*
D01*
Y-260D01*
D01*
Y-254D01*
X-3383Y-255D01*
X-3383Y-256D01*
X-3383Y-257D01*
X-3382Y-259D01*
X-3381Y-259D01*
X-3379Y-260D01*
X-3377Y-260D01*
X-3383D01*
X-3377D01*
X-3376Y-260D01*
X-3375Y-260D01*
X-3374Y-260D01*
X-3301Y-212D01*
X-3301Y-212D01*
X-3300Y-211D01*
X-3299Y-210D01*
X-3297Y-210D01*
X-3295Y-209D01*
X-3293Y-208D01*
X-3291Y-208D01*
X-3289Y-208D01*
X-3289D01*
X-3289D01*
X-3288Y-208D01*
X-3286Y-208D01*
X-3284Y-209D01*
X-3282Y-209D01*
X-3280Y-211D01*
X-3278Y-212D01*
X-3275Y-214D01*
X-3275Y-215D01*
X-3274Y-216D01*
X-3273Y-217D01*
X-3272Y-219D01*
X-3271Y-221D01*
X-3270Y-223D01*
X-3270Y-226D01*
X-3270Y-229D01*
Y-230D01*
X-3270Y-231D01*
X-3270Y-233D01*
X-3271Y-236D01*
X-3272Y-237D01*
X-3273Y-239D01*
X-3274Y-240D01*
X-3275Y-242D01*
X-3277Y-243D01*
X-3279Y-245D01*
X-3281Y-246D01*
X-3283Y-247D01*
X-3284D01*
X-3284Y-247D01*
X-3285Y-249D01*
X-3286Y-249D01*
X-3287Y-250D01*
X-3287Y-252D01*
X-3287Y-253D01*
Y-253D01*
X-3287Y-254D01*
X-3287Y-255D01*
X-3287Y-256D01*
X-3286Y-257D01*
X-3285Y-258D01*
X-3283Y-259D01*
X-3281Y-259D01*
X-3281D01*
X-3280D01*
X-3279Y-259D01*
X-3279Y-259D01*
X-3278Y-258D01*
X-3277Y-258D01*
X-3276Y-257D01*
X-3274Y-256D01*
X-3272Y-255D01*
X-3270Y-254D01*
X-3268Y-252D01*
X-3266Y-250D01*
X-3264Y-248D01*
X-3262Y-246D01*
X-3261Y-243D01*
X-3259Y-240D01*
X-3258Y-237D01*
X-3257Y-234D01*
X-3257Y-230D01*
Y-229D01*
X-3257Y-228D01*
Y-226D01*
X-3258Y-225D01*
X-3258Y-222D01*
X-3259Y-218D01*
X-3261Y-214D01*
X-3262Y-212D01*
X-3263Y-210D01*
X-3265Y-208D01*
X-3266Y-206D01*
X-3267Y-206D01*
X-3267Y-205D01*
X-3267Y-205D01*
X-3268Y-204D01*
X-3269Y-203D01*
X-3270Y-202D01*
X-3273Y-200D01*
X-3276Y-198D01*
X-3280Y-197D01*
X-3282Y-196D01*
X-3284Y-195D01*
X-3287Y-195D01*
X-3289Y-195D01*
D02*
G37*
G36*
Y-274D02*
X-3291D01*
X-3293Y-274D01*
X-3295Y-275D01*
X-3298Y-275D01*
X-3301Y-277D01*
X-3305Y-278D01*
X-3308Y-280D01*
X-3371Y-323D01*
Y-280D01*
X-3372Y-279D01*
X-3372Y-278D01*
X-3373Y-277D01*
X-3374Y-276D01*
X-3375Y-275D01*
X-3377Y-275D01*
X-3377D01*
X-3378D01*
X-3379Y-275D01*
X-3380Y-276D01*
X-3382Y-276D01*
X-3382Y-277D01*
X-3383Y-279D01*
X-3383Y-281D01*
Y-274D01*
D01*
Y-339D01*
D01*
Y-334D01*
X-3383Y-334D01*
X-3383Y-335D01*
X-3383Y-336D01*
X-3382Y-338D01*
X-3381Y-339D01*
X-3379Y-339D01*
X-3377Y-339D01*
X-3383D01*
X-3377D01*
X-3376Y-339D01*
X-3375Y-339D01*
X-3374Y-339D01*
X-3301Y-291D01*
X-3301Y-291D01*
X-3300Y-290D01*
X-3299Y-289D01*
X-3297Y-289D01*
X-3295Y-288D01*
X-3293Y-287D01*
X-3291Y-287D01*
X-3289Y-287D01*
X-3289D01*
X-3289D01*
X-3288Y-287D01*
X-3286Y-287D01*
X-3284Y-288D01*
X-3282Y-288D01*
X-3280Y-290D01*
X-3278Y-291D01*
X-3275Y-294D01*
X-3275Y-294D01*
X-3274Y-295D01*
X-3273Y-296D01*
X-3272Y-298D01*
X-3271Y-300D01*
X-3270Y-302D01*
X-3270Y-305D01*
X-3270Y-308D01*
Y-309D01*
X-3270Y-310D01*
X-3270Y-312D01*
X-3271Y-315D01*
X-3272Y-317D01*
X-3273Y-318D01*
X-3274Y-319D01*
X-3275Y-321D01*
X-3277Y-322D01*
X-3279Y-324D01*
X-3281Y-325D01*
X-3283Y-326D01*
X-3284D01*
X-3284Y-326D01*
X-3285Y-328D01*
X-3286Y-328D01*
X-3287Y-329D01*
X-3287Y-331D01*
X-3287Y-332D01*
Y-332D01*
X-3287Y-333D01*
X-3287Y-334D01*
X-3287Y-335D01*
X-3286Y-336D01*
X-3285Y-337D01*
X-3283Y-338D01*
X-3281Y-338D01*
X-3281D01*
X-3280D01*
X-3279Y-338D01*
X-3279Y-338D01*
X-3278Y-337D01*
X-3277Y-337D01*
X-3276Y-336D01*
X-3274Y-335D01*
X-3272Y-334D01*
X-3270Y-333D01*
X-3268Y-331D01*
X-3266Y-329D01*
X-3264Y-327D01*
X-3262Y-325D01*
X-3261Y-322D01*
X-3259Y-319D01*
X-3258Y-316D01*
X-3257Y-313D01*
X-3257Y-309D01*
Y-308D01*
X-3257Y-307D01*
Y-305D01*
X-3258Y-304D01*
X-3258Y-301D01*
X-3259Y-297D01*
X-3261Y-293D01*
X-3262Y-291D01*
X-3263Y-289D01*
X-3265Y-287D01*
X-3266Y-285D01*
X-3267Y-285D01*
X-3267Y-284D01*
X-3267Y-284D01*
X-3268Y-283D01*
X-3269Y-282D01*
X-3270Y-282D01*
X-3273Y-279D01*
X-3276Y-277D01*
X-3280Y-276D01*
X-3282Y-275D01*
X-3284Y-274D01*
X-3287Y-274D01*
X-3289Y-274D01*
D02*
G37*
G36*
X-3283Y-406D02*
X-3304D01*
X-3305Y-406D01*
X-3307Y-407D01*
X-3310Y-407D01*
X-3313Y-408D01*
X-3316Y-410D01*
X-3319Y-412D01*
X-3321Y-413D01*
X-3322Y-415D01*
X-3323Y-415D01*
X-3324Y-416D01*
X-3325Y-418D01*
X-3327Y-420D01*
X-3328Y-423D01*
X-3329Y-427D01*
X-3330Y-430D01*
X-3330Y-432D01*
X-3331Y-435D01*
Y-459D01*
X-3377D01*
X-3377D01*
X-3378D01*
X-3379Y-459D01*
X-3380Y-460D01*
X-3382Y-461D01*
X-3382Y-462D01*
X-3383Y-463D01*
X-3383Y-465D01*
Y-406D01*
D01*
Y-471D01*
D01*
Y-466D01*
X-3383Y-466D01*
X-3383Y-467D01*
X-3383Y-468D01*
X-3382Y-470D01*
X-3381Y-471D01*
X-3379Y-471D01*
X-3377Y-471D01*
X-3383D01*
X-3257D01*
D01*
X-3263D01*
X-3263Y-471D01*
X-3262Y-471D01*
X-3260Y-471D01*
X-3259Y-470D01*
X-3258Y-469D01*
X-3258Y-467D01*
X-3257Y-465D01*
Y-434D01*
X-3258Y-433D01*
Y-432D01*
X-3258Y-431D01*
X-3258Y-428D01*
X-3259Y-425D01*
X-3261Y-421D01*
X-3263Y-418D01*
X-3264Y-416D01*
X-3266Y-415D01*
Y-414D01*
X-3266Y-414D01*
X-3267Y-413D01*
X-3269Y-412D01*
X-3271Y-410D01*
X-3274Y-409D01*
X-3277Y-408D01*
X-3281Y-407D01*
X-3283Y-406D01*
D02*
G37*
G36*
Y-485D02*
X-3357D01*
X-3357Y-486D01*
X-3360Y-486D01*
X-3362Y-486D01*
X-3365Y-487D01*
X-3369Y-489D01*
X-3372Y-491D01*
X-3374Y-492D01*
X-3375Y-494D01*
X-3376Y-494D01*
X-3377Y-495D01*
X-3378Y-497D01*
X-3379Y-499D01*
X-3381Y-502D01*
X-3382Y-506D01*
X-3383Y-509D01*
X-3383Y-511D01*
X-3383Y-514D01*
Y-485D01*
D01*
Y-551D01*
D01*
Y-524D01*
X-3383Y-524D01*
Y-525D01*
X-3383Y-527D01*
X-3382Y-529D01*
X-3381Y-532D01*
X-3380Y-536D01*
X-3378Y-539D01*
X-3377Y-541D01*
X-3375Y-542D01*
X-3375D01*
X-3375Y-543D01*
X-3374Y-544D01*
X-3372Y-545D01*
X-3370Y-546D01*
X-3367Y-548D01*
X-3363Y-549D01*
X-3360Y-550D01*
X-3358Y-550D01*
X-3355Y-551D01*
X-3257D01*
D01*
X-3284D01*
X-3283Y-550D01*
X-3281Y-550D01*
X-3278Y-549D01*
X-3275Y-549D01*
X-3272Y-547D01*
X-3269Y-545D01*
X-3267Y-544D01*
X-3266Y-542D01*
X-3265Y-542D01*
X-3265Y-542D01*
X-3264Y-541D01*
X-3263Y-539D01*
X-3261Y-537D01*
X-3260Y-534D01*
X-3259Y-531D01*
X-3258Y-527D01*
X-3257Y-525D01*
Y-513D01*
X-3258Y-512D01*
Y-511D01*
X-3258Y-510D01*
X-3258Y-507D01*
X-3259Y-504D01*
X-3261Y-500D01*
X-3263Y-497D01*
X-3264Y-495D01*
X-3266Y-494D01*
Y-494D01*
X-3266Y-493D01*
X-3267Y-492D01*
X-3269Y-491D01*
X-3271Y-489D01*
X-3274Y-488D01*
X-3277Y-487D01*
X-3281Y-486D01*
X-3283Y-485D01*
D02*
G37*
G36*
X-3263Y-565D02*
X-3264D01*
X-3265Y-565D01*
X-3266Y-565D01*
X-3268Y-566D01*
X-3269Y-567D01*
X-3269Y-569D01*
X-3270Y-571D01*
Y-591D01*
X-3377D01*
X-3377D01*
X-3378D01*
X-3379Y-591D01*
X-3380Y-592D01*
X-3382Y-592D01*
X-3382Y-594D01*
X-3383Y-595D01*
X-3383Y-597D01*
Y-565D01*
D01*
Y-630D01*
D01*
Y-597D01*
X-3383Y-598D01*
X-3383Y-599D01*
X-3383Y-600D01*
X-3382Y-601D01*
X-3381Y-602D01*
X-3379Y-603D01*
X-3377Y-603D01*
X-3270D01*
Y-624D01*
X-3269Y-624D01*
X-3269Y-625D01*
X-3269Y-626D01*
X-3268Y-628D01*
X-3267Y-629D01*
X-3265Y-629D01*
X-3263Y-630D01*
X-3383D01*
X-3257D01*
D01*
X-3263D01*
X-3263Y-629D01*
X-3262Y-629D01*
X-3260Y-629D01*
X-3259Y-628D01*
X-3258Y-627D01*
X-3258Y-626D01*
X-3257Y-624D01*
Y-570D01*
X-3258Y-569D01*
X-3258Y-568D01*
X-3259Y-567D01*
X-3260Y-566D01*
X-3261Y-565D01*
X-3263Y-565D01*
D02*
G37*
G36*
X-3283Y-644D02*
X-3357D01*
X-3357Y-644D01*
X-3360Y-644D01*
X-3362Y-645D01*
X-3365Y-646D01*
X-3369Y-647D01*
X-3372Y-649D01*
X-3374Y-650D01*
X-3375Y-652D01*
X-3376Y-652D01*
X-3377Y-653D01*
X-3378Y-655D01*
X-3379Y-657D01*
X-3381Y-660D01*
X-3382Y-664D01*
X-3383Y-668D01*
X-3383Y-670D01*
X-3383Y-672D01*
Y-644D01*
D01*
Y-709D01*
D01*
Y-682D01*
X-3383Y-683D01*
Y-684D01*
X-3383Y-685D01*
X-3382Y-687D01*
X-3381Y-691D01*
X-3380Y-694D01*
X-3378Y-697D01*
X-3377Y-699D01*
X-3375Y-701D01*
X-3375D01*
X-3375Y-701D01*
X-3374Y-702D01*
X-3372Y-703D01*
X-3370Y-705D01*
X-3367Y-706D01*
X-3363Y-707D01*
X-3360Y-708D01*
X-3358Y-708D01*
X-3355Y-709D01*
X-3257D01*
D01*
X-3284D01*
X-3283Y-708D01*
X-3281Y-708D01*
X-3278Y-708D01*
X-3275Y-707D01*
X-3272Y-705D01*
X-3269Y-703D01*
X-3267Y-702D01*
X-3266Y-701D01*
X-3265Y-700D01*
X-3265Y-700D01*
X-3264Y-699D01*
X-3263Y-697D01*
X-3261Y-695D01*
X-3260Y-692D01*
X-3259Y-689D01*
X-3258Y-685D01*
X-3257Y-683D01*
Y-671D01*
X-3258Y-670D01*
Y-669D01*
X-3258Y-668D01*
X-3258Y-665D01*
X-3259Y-662D01*
X-3261Y-659D01*
X-3263Y-655D01*
X-3264Y-654D01*
X-3266Y-652D01*
Y-652D01*
X-3266Y-651D01*
X-3267Y-651D01*
X-3269Y-649D01*
X-3271Y-648D01*
X-3274Y-646D01*
X-3277Y-645D01*
X-3281Y-644D01*
X-3283Y-644D01*
D02*
G37*
G36*
X-3263Y-723D02*
X-3378D01*
X-3379Y-723D01*
X-3380Y-723D01*
X-3382Y-724D01*
X-3382Y-725D01*
X-3383Y-727D01*
X-3383Y-729D01*
Y-805D01*
X-3257D01*
X-3263D01*
X-3262Y-805D01*
X-3261Y-805D01*
X-3260Y-804D01*
X-3259Y-804D01*
X-3258Y-803D01*
X-3257Y-801D01*
X-3257Y-799D01*
Y-799D01*
X-3257Y-798D01*
X-3257Y-797D01*
X-3258Y-796D01*
X-3258Y-796D01*
X-3259Y-795D01*
X-3260Y-794D01*
X-3310Y-764D01*
X-3260Y-734D01*
X-3260Y-734D01*
X-3260Y-734D01*
X-3259Y-733D01*
X-3258Y-733D01*
X-3257Y-731D01*
X-3257Y-730D01*
X-3257Y-729D01*
Y-728D01*
X-3257Y-728D01*
X-3257Y-727D01*
X-3258Y-726D01*
X-3258Y-725D01*
X-3260Y-724D01*
X-3261Y-723D01*
X-3263Y-723D01*
D02*
G37*
%LPD*%
G36*
X-3257Y753D02*
X-3289D01*
X-3288Y753D01*
X-3287Y753D01*
X-3286Y754D01*
X-3259Y781D01*
X-3259Y781D01*
X-3258Y782D01*
X-3258Y783D01*
X-3257Y785D01*
Y753D01*
D02*
G37*
G36*
X-3283Y595D02*
X-3281Y594D01*
X-3280Y594D01*
X-3278Y593D01*
X-3276Y592D01*
X-3274Y590D01*
X-3274Y590D01*
X-3273Y589D01*
X-3273Y588D01*
X-3272Y587D01*
X-3271Y585D01*
X-3270Y583D01*
X-3270Y581D01*
X-3270Y579D01*
Y554D01*
X-3318D01*
Y580D01*
X-3318Y581D01*
X-3318Y583D01*
X-3317Y584D01*
X-3317Y586D01*
X-3315Y588D01*
X-3314Y590D01*
X-3314Y590D01*
X-3313Y591D01*
X-3312Y591D01*
X-3311Y592D01*
X-3309Y593D01*
X-3307Y594D01*
X-3305Y595D01*
X-3303Y595D01*
X-3285D01*
X-3285D01*
X-3284D01*
X-3283Y595D01*
D02*
G37*
G36*
X-3257Y542D02*
X-3263D01*
X-3263Y542D01*
X-3262Y542D01*
X-3260Y543D01*
X-3259Y544D01*
X-3258Y545D01*
X-3258Y546D01*
X-3257Y548D01*
Y542D01*
D02*
G37*
G36*
X-3283Y516D02*
X-3281Y515D01*
X-3280Y515D01*
X-3278Y514D01*
X-3276Y513D01*
X-3274Y511D01*
X-3274Y511D01*
X-3273Y510D01*
X-3273Y509D01*
X-3272Y508D01*
X-3271Y506D01*
X-3270Y504D01*
X-3270Y502D01*
X-3270Y500D01*
Y490D01*
X-3270Y489D01*
X-3270Y487D01*
X-3271Y486D01*
X-3272Y484D01*
X-3273Y482D01*
X-3274Y480D01*
X-3275Y480D01*
X-3275Y479D01*
X-3276Y479D01*
X-3278Y478D01*
X-3279Y477D01*
X-3281Y476D01*
X-3283Y476D01*
X-3285Y475D01*
X-3355D01*
X-3356D01*
X-3357D01*
X-3358Y476D01*
X-3359Y476D01*
X-3361Y476D01*
X-3363Y477D01*
X-3365Y479D01*
X-3367Y480D01*
X-3367Y480D01*
X-3367Y481D01*
X-3368Y482D01*
X-3369Y483D01*
X-3370Y485D01*
X-3370Y487D01*
X-3371Y489D01*
X-3371Y491D01*
Y501D01*
X-3371Y502D01*
X-3371Y504D01*
X-3370Y505D01*
X-3369Y507D01*
X-3368Y509D01*
X-3367Y511D01*
X-3367Y511D01*
X-3366Y512D01*
X-3365Y512D01*
X-3364Y513D01*
X-3362Y514D01*
X-3360Y515D01*
X-3358Y516D01*
X-3355Y516D01*
X-3285D01*
X-3285D01*
X-3284D01*
X-3283Y516D01*
D02*
G37*
G36*
X-3257Y463D02*
X-3284D01*
X-3283Y463D01*
X-3281Y463D01*
X-3278Y464D01*
X-3275Y465D01*
X-3272Y466D01*
X-3269Y469D01*
X-3267Y470D01*
X-3266Y471D01*
X-3265Y471D01*
X-3265Y471D01*
X-3264Y473D01*
X-3263Y474D01*
X-3261Y477D01*
X-3260Y480D01*
X-3259Y483D01*
X-3258Y487D01*
X-3257Y489D01*
Y463D01*
D02*
G37*
G36*
Y384D02*
X-3263D01*
X-3263Y384D01*
X-3262Y384D01*
X-3260Y385D01*
X-3259Y385D01*
X-3258Y386D01*
X-3258Y388D01*
X-3257Y390D01*
Y384D01*
D02*
G37*
G36*
X-3283Y357D02*
X-3281Y357D01*
X-3280Y356D01*
X-3278Y356D01*
X-3276Y354D01*
X-3274Y353D01*
X-3274Y353D01*
X-3273Y352D01*
X-3273Y351D01*
X-3272Y350D01*
X-3271Y348D01*
X-3270Y346D01*
X-3270Y344D01*
X-3270Y342D01*
Y332D01*
X-3270Y331D01*
X-3270Y329D01*
X-3271Y327D01*
X-3272Y326D01*
X-3273Y324D01*
X-3274Y322D01*
X-3275Y322D01*
X-3275Y321D01*
X-3276Y320D01*
X-3278Y320D01*
X-3279Y319D01*
X-3281Y318D01*
X-3283Y317D01*
X-3285Y317D01*
X-3355D01*
X-3356D01*
X-3357D01*
X-3358Y317D01*
X-3359Y318D01*
X-3361Y318D01*
X-3363Y319D01*
X-3365Y320D01*
X-3367Y322D01*
X-3367Y322D01*
X-3367Y323D01*
X-3368Y324D01*
X-3369Y325D01*
X-3370Y327D01*
X-3370Y329D01*
X-3371Y331D01*
X-3371Y333D01*
Y343D01*
X-3371Y344D01*
X-3371Y346D01*
X-3370Y347D01*
X-3369Y349D01*
X-3368Y351D01*
X-3367Y353D01*
X-3367Y353D01*
X-3366Y354D01*
X-3365Y354D01*
X-3364Y355D01*
X-3362Y356D01*
X-3360Y357D01*
X-3358Y357D01*
X-3355Y358D01*
X-3285D01*
X-3285D01*
X-3284D01*
X-3283Y357D01*
D02*
G37*
G36*
X-3257Y305D02*
X-3284D01*
X-3283Y305D01*
X-3281Y305D01*
X-3278Y306D01*
X-3275Y307D01*
X-3272Y308D01*
X-3269Y310D01*
X-3267Y312D01*
X-3266Y313D01*
X-3265Y313D01*
X-3265Y313D01*
X-3264Y314D01*
X-3263Y316D01*
X-3261Y319D01*
X-3260Y321D01*
X-3259Y325D01*
X-3258Y329D01*
X-3257Y331D01*
Y305D01*
D02*
G37*
G36*
X-3257Y215D02*
X-3257Y215D01*
X-3257Y216D01*
X-3258Y217D01*
X-3258Y218D01*
X-3259Y219D01*
X-3260Y220D01*
X-3310Y249D01*
X-3260Y279D01*
X-3260Y279D01*
X-3260Y279D01*
X-3259Y280D01*
X-3258Y281D01*
X-3257Y282D01*
X-3257Y284D01*
X-3257Y285D01*
Y215D01*
D02*
G37*
G36*
Y208D02*
X-3263D01*
X-3262Y209D01*
X-3261Y209D01*
X-3260Y209D01*
X-3259Y210D01*
X-3258Y211D01*
X-3257Y212D01*
X-3257Y214D01*
Y208D01*
D02*
G37*
G36*
X-3283Y-419D02*
X-3281Y-419D01*
X-3280Y-420D01*
X-3278Y-421D01*
X-3276Y-422D01*
X-3274Y-424D01*
X-3274Y-424D01*
X-3273Y-424D01*
X-3273Y-425D01*
X-3272Y-427D01*
X-3271Y-428D01*
X-3270Y-430D01*
X-3270Y-432D01*
X-3270Y-435D01*
Y-459D01*
X-3318D01*
Y-434D01*
X-3318Y-432D01*
X-3318Y-431D01*
X-3317Y-429D01*
X-3317Y-427D01*
X-3315Y-425D01*
X-3314Y-424D01*
X-3314Y-423D01*
X-3313Y-423D01*
X-3312Y-422D01*
X-3311Y-421D01*
X-3309Y-420D01*
X-3307Y-419D01*
X-3305Y-419D01*
X-3303Y-419D01*
X-3285D01*
X-3285D01*
X-3284D01*
X-3283Y-419D01*
D02*
G37*
G36*
Y-498D02*
X-3281Y-498D01*
X-3280Y-499D01*
X-3278Y-500D01*
X-3276Y-501D01*
X-3274Y-503D01*
X-3274Y-503D01*
X-3273Y-503D01*
X-3273Y-504D01*
X-3272Y-506D01*
X-3271Y-507D01*
X-3270Y-509D01*
X-3270Y-511D01*
X-3270Y-514D01*
Y-524D01*
X-3270Y-525D01*
X-3270Y-526D01*
X-3271Y-528D01*
X-3272Y-530D01*
X-3273Y-532D01*
X-3274Y-534D01*
X-3275Y-534D01*
X-3275Y-534D01*
X-3276Y-535D01*
X-3278Y-536D01*
X-3279Y-537D01*
X-3281Y-537D01*
X-3283Y-538D01*
X-3285Y-538D01*
X-3355D01*
X-3356D01*
X-3357D01*
X-3358Y-538D01*
X-3359Y-538D01*
X-3361Y-537D01*
X-3363Y-536D01*
X-3365Y-535D01*
X-3367Y-534D01*
X-3367Y-533D01*
X-3367Y-533D01*
X-3368Y-532D01*
X-3369Y-530D01*
X-3370Y-529D01*
X-3370Y-527D01*
X-3371Y-525D01*
X-3371Y-522D01*
Y-513D01*
X-3371Y-511D01*
X-3371Y-510D01*
X-3370Y-508D01*
X-3369Y-506D01*
X-3368Y-504D01*
X-3367Y-503D01*
X-3367Y-502D01*
X-3366Y-502D01*
X-3365Y-501D01*
X-3364Y-500D01*
X-3362Y-499D01*
X-3360Y-499D01*
X-3358Y-498D01*
X-3355Y-498D01*
X-3285D01*
X-3285D01*
X-3284D01*
X-3283Y-498D01*
D02*
G37*
G36*
Y-656D02*
X-3281Y-656D01*
X-3280Y-657D01*
X-3278Y-658D01*
X-3276Y-659D01*
X-3274Y-661D01*
X-3274Y-661D01*
X-3273Y-661D01*
X-3273Y-663D01*
X-3272Y-664D01*
X-3271Y-666D01*
X-3270Y-667D01*
X-3270Y-669D01*
X-3270Y-672D01*
Y-682D01*
X-3270Y-683D01*
X-3270Y-684D01*
X-3271Y-686D01*
X-3272Y-688D01*
X-3273Y-690D01*
X-3274Y-692D01*
X-3275Y-692D01*
X-3275Y-692D01*
X-3276Y-693D01*
X-3278Y-694D01*
X-3279Y-695D01*
X-3281Y-696D01*
X-3283Y-696D01*
X-3285Y-696D01*
X-3355D01*
X-3356D01*
X-3357D01*
X-3358Y-696D01*
X-3359Y-696D01*
X-3361Y-695D01*
X-3363Y-694D01*
X-3365Y-693D01*
X-3367Y-692D01*
X-3367Y-691D01*
X-3367Y-691D01*
X-3368Y-690D01*
X-3369Y-688D01*
X-3370Y-687D01*
X-3370Y-685D01*
X-3371Y-683D01*
X-3371Y-681D01*
Y-671D01*
X-3371Y-670D01*
X-3371Y-668D01*
X-3370Y-666D01*
X-3369Y-664D01*
X-3368Y-663D01*
X-3367Y-661D01*
X-3367Y-661D01*
X-3366Y-660D01*
X-3365Y-659D01*
X-3364Y-658D01*
X-3362Y-657D01*
X-3360Y-657D01*
X-3358Y-656D01*
X-3355Y-656D01*
X-3285D01*
X-3285D01*
X-3284D01*
X-3283Y-656D01*
D02*
G37*
G36*
X-3383Y-730D02*
X-3383Y-731D01*
X-3383Y-732D01*
X-3382Y-733D01*
X-3381Y-734D01*
X-3379Y-735D01*
X-3377Y-735D01*
X-3281D01*
X-3324Y-759D01*
X-3324Y-759D01*
X-3324Y-759D01*
X-3325Y-760D01*
X-3327Y-762D01*
X-3327Y-763D01*
X-3327Y-764D01*
Y-765D01*
X-3327Y-765D01*
X-3327Y-766D01*
X-3326Y-767D01*
X-3326Y-768D01*
X-3325Y-768D01*
X-3324Y-769D01*
X-3281Y-793D01*
X-3377D01*
X-3377D01*
X-3378D01*
X-3379Y-793D01*
X-3380Y-793D01*
X-3382Y-794D01*
X-3382Y-795D01*
X-3383Y-797D01*
X-3383Y-799D01*
Y-729D01*
X-3383Y-730D01*
D02*
G37*
G36*
Y-800D02*
X-3383Y-801D01*
X-3383Y-802D01*
X-3382Y-803D01*
X-3381Y-804D01*
X-3379Y-805D01*
X-3377Y-805D01*
X-3383D01*
Y-799D01*
X-3383Y-800D01*
D02*
G37*
%LPC*%
G36*
X-221Y-1499D02*
X-246D01*
X-248Y-1499D01*
X-250Y-1500D01*
X-252Y-1501D01*
X-254Y-1501D01*
X-255Y-1502D01*
X-256Y-1503D01*
X-257Y-1504D01*
X-257Y-1504D01*
X-259Y-1506D01*
X-260Y-1508D01*
X-261Y-1509D01*
X-261Y-1511D01*
X-262Y-1513D01*
X-262Y-1514D01*
Y-1515D01*
Y-1515D01*
Y-1533D01*
X-262Y-1535D01*
X-261Y-1537D01*
X-260Y-1539D01*
X-259Y-1541D01*
X-258Y-1542D01*
X-258Y-1543D01*
X-257Y-1544D01*
X-257Y-1544D01*
X-255Y-1545D01*
X-253Y-1546D01*
X-251Y-1547D01*
X-250Y-1548D01*
X-248Y-1548D01*
X-247Y-1548D01*
X-221D01*
Y-1499D01*
D02*
G37*
G36*
X-315D02*
X-325D01*
X-327Y-1499D01*
X-329Y-1500D01*
X-331Y-1501D01*
X-333Y-1501D01*
X-334Y-1502D01*
X-335Y-1503D01*
X-336Y-1504D01*
X-336Y-1504D01*
X-338Y-1506D01*
X-339Y-1508D01*
X-340Y-1509D01*
X-340Y-1511D01*
X-341Y-1513D01*
X-341Y-1514D01*
Y-1515D01*
Y-1515D01*
Y-1585D01*
X-341Y-1588D01*
X-340Y-1590D01*
X-339Y-1592D01*
X-338Y-1593D01*
X-338Y-1595D01*
X-337Y-1596D01*
X-336Y-1596D01*
X-336Y-1596D01*
X-334Y-1598D01*
X-332Y-1599D01*
X-331Y-1600D01*
X-329Y-1600D01*
X-327Y-1601D01*
X-326Y-1601D01*
X-316D01*
X-314Y-1601D01*
X-312Y-1600D01*
X-310Y-1599D01*
X-308Y-1599D01*
X-307Y-1598D01*
X-306Y-1597D01*
X-305Y-1596D01*
X-305Y-1596D01*
X-304Y-1594D01*
X-303Y-1593D01*
X-302Y-1591D01*
X-301Y-1589D01*
X-301Y-1587D01*
X-301Y-1586D01*
Y-1586D01*
Y-1585D01*
Y-1515D01*
X-301Y-1513D01*
X-301Y-1511D01*
X-302Y-1509D01*
X-303Y-1507D01*
X-304Y-1506D01*
X-304Y-1505D01*
X-305Y-1504D01*
X-305Y-1504D01*
X-307Y-1502D01*
X-309Y-1501D01*
X-311Y-1500D01*
X-312Y-1500D01*
X-314Y-1499D01*
X-315Y-1499D01*
D02*
G37*
G36*
X-380Y-1552D02*
X-404D01*
X-406Y-1552D01*
X-408Y-1553D01*
X-410Y-1553D01*
X-412Y-1554D01*
X-413Y-1555D01*
X-414Y-1556D01*
X-415Y-1556D01*
X-415Y-1556D01*
X-417Y-1558D01*
X-418Y-1560D01*
X-419Y-1562D01*
X-419Y-1564D01*
X-420Y-1565D01*
X-420Y-1566D01*
Y-1567D01*
Y-1568D01*
Y-1585D01*
X-420Y-1588D01*
X-419Y-1590D01*
X-418Y-1591D01*
X-418Y-1593D01*
X-417Y-1594D01*
X-416Y-1596D01*
X-415Y-1596D01*
X-415Y-1596D01*
X-413Y-1598D01*
X-411Y-1599D01*
X-410Y-1600D01*
X-408Y-1600D01*
X-406Y-1601D01*
X-405Y-1601D01*
X-380D01*
Y-1552D01*
D02*
G37*
G36*
X-473Y-1499D02*
X-483D01*
X-485Y-1499D01*
X-488Y-1500D01*
X-489Y-1501D01*
X-491Y-1501D01*
X-492Y-1502D01*
X-493Y-1503D01*
X-494Y-1504D01*
X-494Y-1504D01*
X-496Y-1506D01*
X-497Y-1508D01*
X-498Y-1509D01*
X-498Y-1511D01*
X-499Y-1513D01*
X-499Y-1514D01*
Y-1515D01*
Y-1515D01*
Y-1585D01*
X-499Y-1588D01*
X-498Y-1590D01*
X-498Y-1592D01*
X-497Y-1593D01*
X-496Y-1595D01*
X-495Y-1596D01*
X-494Y-1596D01*
X-494Y-1596D01*
X-492Y-1598D01*
X-490Y-1599D01*
X-489Y-1600D01*
X-487Y-1600D01*
X-485Y-1601D01*
X-484Y-1601D01*
X-474D01*
X-472Y-1601D01*
X-470Y-1600D01*
X-468Y-1599D01*
X-466Y-1599D01*
X-465Y-1598D01*
X-464Y-1597D01*
X-463Y-1596D01*
X-463Y-1596D01*
X-462Y-1594D01*
X-461Y-1593D01*
X-460Y-1591D01*
X-459Y-1589D01*
X-459Y-1587D01*
X-459Y-1586D01*
Y-1586D01*
Y-1585D01*
Y-1515D01*
X-459Y-1513D01*
X-459Y-1511D01*
X-460Y-1509D01*
X-461Y-1507D01*
X-462Y-1506D01*
X-463Y-1505D01*
X-463Y-1504D01*
X-463Y-1504D01*
X-465Y-1502D01*
X-467Y-1501D01*
X-469Y-1500D01*
X-470Y-1500D01*
X-472Y-1499D01*
X-473Y-1499D01*
D02*
G37*
G36*
X-687Y-1552D02*
X-712D01*
X-714Y-1552D01*
X-716Y-1553D01*
X-718Y-1553D01*
X-720Y-1554D01*
X-721Y-1555D01*
X-722Y-1556D01*
X-723Y-1556D01*
X-723Y-1556D01*
X-724Y-1558D01*
X-725Y-1560D01*
X-726Y-1562D01*
X-727Y-1564D01*
X-727Y-1565D01*
X-728Y-1566D01*
Y-1567D01*
Y-1568D01*
Y-1585D01*
X-727Y-1588D01*
X-727Y-1590D01*
X-726Y-1591D01*
X-725Y-1593D01*
X-724Y-1594D01*
X-723Y-1596D01*
X-723Y-1596D01*
X-723Y-1596D01*
X-721Y-1598D01*
X-719Y-1599D01*
X-717Y-1600D01*
X-715Y-1600D01*
X-714Y-1601D01*
X-713Y-1601D01*
X-687D01*
Y-1552D01*
D02*
G37*
G36*
X-790Y-1512D02*
X-804Y-1566D01*
X-777D01*
X-790Y-1512D01*
D02*
G37*
G36*
X-1036D02*
X-1050Y-1566D01*
X-1023D01*
X-1036Y-1512D01*
D02*
G37*
G36*
X-1273Y-1499D02*
X-1283D01*
X-1285Y-1499D01*
X-1287Y-1500D01*
X-1289Y-1501D01*
X-1291Y-1501D01*
X-1292Y-1502D01*
X-1293Y-1503D01*
X-1294Y-1504D01*
X-1294Y-1504D01*
X-1295Y-1506D01*
X-1297Y-1508D01*
X-1297Y-1509D01*
X-1298Y-1511D01*
X-1298Y-1513D01*
X-1299Y-1514D01*
Y-1515D01*
Y-1515D01*
Y-1585D01*
X-1298Y-1588D01*
X-1298Y-1590D01*
X-1297Y-1592D01*
X-1296Y-1593D01*
X-1295Y-1595D01*
X-1294Y-1596D01*
X-1294Y-1596D01*
X-1294Y-1596D01*
X-1292Y-1598D01*
X-1290Y-1599D01*
X-1288Y-1600D01*
X-1287Y-1600D01*
X-1285Y-1601D01*
X-1284Y-1601D01*
X-1274D01*
X-1272Y-1601D01*
X-1269Y-1600D01*
X-1268Y-1599D01*
X-1266Y-1599D01*
X-1265Y-1598D01*
X-1264Y-1597D01*
X-1263Y-1596D01*
X-1263Y-1596D01*
X-1261Y-1594D01*
X-1260Y-1593D01*
X-1259Y-1591D01*
X-1259Y-1589D01*
X-1258Y-1587D01*
X-1258Y-1586D01*
Y-1586D01*
Y-1585D01*
Y-1515D01*
X-1258Y-1513D01*
X-1259Y-1511D01*
X-1260Y-1509D01*
X-1261Y-1507D01*
X-1261Y-1506D01*
X-1262Y-1505D01*
X-1263Y-1504D01*
X-1263Y-1504D01*
X-1265Y-1502D01*
X-1267Y-1501D01*
X-1268Y-1500D01*
X-1270Y-1500D01*
X-1272Y-1499D01*
X-1273Y-1499D01*
D02*
G37*
G36*
X3383Y792D02*
X3257D01*
X3263D01*
X3262Y792D01*
X3261Y792D01*
X3260Y791D01*
X3259Y791D01*
X3258Y790D01*
X3257Y788D01*
X3257Y786D01*
Y787D01*
Y710D01*
Y715D01*
X3257Y715D01*
X3257Y714D01*
X3258Y713D01*
X3258Y711D01*
X3260Y711D01*
X3261Y710D01*
X3263Y710D01*
X3378D01*
X3379Y710D01*
X3380Y710D01*
X3382Y711D01*
X3382Y712D01*
X3383Y714D01*
X3383Y716D01*
Y721D01*
Y716D01*
X3383Y717D01*
X3383Y718D01*
X3383Y719D01*
X3382Y720D01*
X3381Y721D01*
X3379Y722D01*
X3377Y722D01*
X3281D01*
X3324Y746D01*
X3324Y746D01*
X3324Y746D01*
X3325Y747D01*
X3327Y749D01*
X3327Y750D01*
X3327Y751D01*
Y751D01*
X3327Y752D01*
X3327Y753D01*
X3326Y754D01*
X3326Y754D01*
X3325Y755D01*
X3324Y756D01*
X3281Y780D01*
X3377D01*
X3377D01*
X3378D01*
X3379Y780D01*
X3380Y780D01*
X3382Y781D01*
X3382Y782D01*
X3383Y784D01*
X3383Y786D01*
Y781D01*
Y786D01*
X3383Y787D01*
X3383Y788D01*
X3383Y789D01*
X3382Y790D01*
X3381Y791D01*
X3379Y792D01*
X3377Y792D01*
X3383D01*
D01*
D02*
G37*
G36*
Y696D02*
X3257D01*
X3284D01*
X3283Y695D01*
X3281Y695D01*
X3278Y694D01*
X3275Y693D01*
X3272Y692D01*
X3269Y690D01*
X3267Y689D01*
X3266Y687D01*
X3265Y687D01*
X3265Y687D01*
X3264Y686D01*
X3263Y684D01*
X3261Y682D01*
X3260Y679D01*
X3259Y676D01*
X3258Y672D01*
X3257Y670D01*
Y658D01*
X3258Y657D01*
Y656D01*
X3258Y655D01*
X3258Y652D01*
X3259Y649D01*
X3261Y645D01*
X3263Y642D01*
X3264Y640D01*
X3266Y639D01*
Y639D01*
X3266Y638D01*
X3267Y637D01*
X3269Y636D01*
X3271Y634D01*
X3274Y633D01*
X3277Y632D01*
X3281Y631D01*
X3283Y630D01*
X3357D01*
X3357Y631D01*
X3360Y631D01*
X3362Y631D01*
X3365Y632D01*
X3369Y634D01*
X3372Y636D01*
X3374Y637D01*
X3375Y639D01*
X3376Y639D01*
X3377Y640D01*
X3378Y642D01*
X3379Y644D01*
X3381Y647D01*
X3382Y651D01*
X3383Y654D01*
X3383Y656D01*
X3383Y659D01*
Y643D01*
Y669D01*
X3383Y669D01*
Y670D01*
X3383Y672D01*
X3382Y674D01*
X3381Y677D01*
X3380Y681D01*
X3378Y684D01*
X3377Y686D01*
X3375Y687D01*
X3375D01*
X3375Y688D01*
X3374Y689D01*
X3372Y690D01*
X3370Y691D01*
X3367Y693D01*
X3363Y694D01*
X3360Y695D01*
X3358Y695D01*
X3355Y696D01*
X3383D01*
D01*
D02*
G37*
G36*
Y616D02*
X3263D01*
X3263Y616D01*
X3262Y616D01*
X3260Y616D01*
X3259Y615D01*
X3258Y614D01*
X3258Y612D01*
X3257Y610D01*
Y611D01*
Y557D01*
X3258Y556D01*
X3258Y555D01*
X3259Y554D01*
X3260Y552D01*
X3261Y552D01*
X3263Y551D01*
X3264D01*
X3265Y552D01*
X3266Y552D01*
X3268Y553D01*
X3269Y554D01*
X3269Y556D01*
X3270Y558D01*
Y578D01*
X3377D01*
X3377D01*
X3378D01*
X3379Y578D01*
X3380Y579D01*
X3382Y579D01*
X3382Y580D01*
X3383Y582D01*
X3383Y584D01*
Y579D01*
Y584D01*
Y584D01*
D01*
Y589D01*
Y584D01*
X3383Y585D01*
X3383Y586D01*
X3383Y587D01*
X3382Y588D01*
X3381Y589D01*
X3379Y590D01*
X3377Y590D01*
X3270D01*
Y611D01*
X3269Y611D01*
X3269Y612D01*
X3269Y613D01*
X3268Y615D01*
X3267Y616D01*
X3265Y616D01*
X3263Y616D01*
X3383D01*
D01*
D02*
G37*
G36*
Y537D02*
X3257D01*
X3284D01*
X3283Y537D01*
X3281Y537D01*
X3278Y536D01*
X3275Y535D01*
X3272Y534D01*
X3269Y532D01*
X3267Y531D01*
X3266Y529D01*
X3265Y529D01*
X3265Y529D01*
X3264Y528D01*
X3263Y526D01*
X3261Y524D01*
X3260Y521D01*
X3259Y517D01*
X3258Y514D01*
X3257Y511D01*
D01*
Y499D01*
X3258Y499D01*
Y498D01*
X3258Y496D01*
X3258Y494D01*
X3259Y491D01*
X3261Y487D01*
X3263Y484D01*
X3264Y482D01*
X3266Y481D01*
Y480D01*
X3266Y480D01*
X3267Y479D01*
X3269Y478D01*
X3271Y476D01*
X3274Y475D01*
X3277Y474D01*
X3281Y473D01*
X3283Y472D01*
X3357D01*
X3357Y472D01*
X3360Y473D01*
X3362Y473D01*
X3365Y474D01*
X3369Y476D01*
X3372Y478D01*
X3374Y479D01*
X3375Y481D01*
X3376Y481D01*
X3377Y482D01*
X3378Y484D01*
X3379Y486D01*
X3381Y489D01*
X3382Y493D01*
X3383Y496D01*
X3383Y498D01*
X3383Y501D01*
Y472D01*
D01*
Y510D01*
X3383Y511D01*
Y512D01*
X3383Y514D01*
X3382Y516D01*
X3381Y519D01*
X3380Y523D01*
X3378Y526D01*
X3377Y528D01*
X3375Y529D01*
X3375D01*
X3375Y530D01*
X3374Y531D01*
X3372Y532D01*
X3370Y533D01*
X3367Y535D01*
X3363Y536D01*
X3360Y537D01*
X3358Y537D01*
X3355Y537D01*
X3383D01*
D01*
D02*
G37*
G36*
Y458D02*
X3263D01*
X3263Y458D01*
X3262Y458D01*
X3260Y458D01*
X3259Y457D01*
X3258Y456D01*
X3258Y454D01*
X3257Y452D01*
Y458D01*
D01*
Y393D01*
Y420D01*
X3258Y419D01*
Y419D01*
X3258Y417D01*
X3258Y415D01*
X3259Y411D01*
X3261Y408D01*
X3263Y405D01*
X3264Y403D01*
X3266Y401D01*
Y401D01*
X3266Y401D01*
X3267Y400D01*
X3269Y399D01*
X3271Y397D01*
X3274Y396D01*
X3277Y394D01*
X3281Y394D01*
X3283Y393D01*
X3304D01*
X3305Y393D01*
X3307Y394D01*
X3310Y394D01*
X3313Y395D01*
X3316Y397D01*
X3319Y399D01*
X3321Y400D01*
X3322Y401D01*
X3323Y402D01*
X3324Y403D01*
X3325Y405D01*
X3327Y407D01*
X3328Y410D01*
X3329Y414D01*
X3330Y417D01*
X3330Y419D01*
X3331Y421D01*
Y446D01*
X3377D01*
X3377D01*
X3378D01*
X3379Y446D01*
X3380Y447D01*
X3382Y447D01*
X3382Y449D01*
X3383Y450D01*
X3383Y452D01*
Y452D01*
X3383Y453D01*
X3383Y454D01*
X3383Y455D01*
X3382Y456D01*
X3381Y457D01*
X3379Y458D01*
X3377Y458D01*
X3383D01*
D01*
D02*
G37*
G36*
Y326D02*
X3290D01*
X3383D01*
D01*
D02*
G37*
G36*
X3290D02*
X3257D01*
X3289D01*
X3288Y326D01*
X3287Y326D01*
X3286Y325D01*
X3259Y299D01*
X3259Y298D01*
X3258Y297D01*
X3258Y296D01*
X3257Y294D01*
D01*
Y293D01*
X3258Y292D01*
X3258Y291D01*
X3259Y290D01*
X3260Y289D01*
X3261Y288D01*
X3263Y288D01*
X3257D01*
X3378D01*
X3379Y288D01*
X3380Y289D01*
X3382Y289D01*
X3382Y290D01*
X3383Y292D01*
X3383Y294D01*
Y290D01*
Y297D01*
Y294D01*
X3383Y295D01*
X3383Y296D01*
X3383Y297D01*
X3382Y298D01*
X3381Y299D01*
X3379Y300D01*
X3377Y300D01*
X3276D01*
X3294Y316D01*
X3294Y316D01*
X3295Y317D01*
X3295Y319D01*
X3296Y320D01*
Y321D01*
X3296Y322D01*
X3295Y323D01*
X3294Y325D01*
X3294Y325D01*
X3293Y326D01*
X3291Y326D01*
X3290Y326D01*
D02*
G37*
G36*
X3383Y274D02*
X3257D01*
Y208D01*
D01*
Y242D01*
X3257Y241D01*
Y239D01*
X3258Y238D01*
X3258Y235D01*
X3259Y231D01*
X3261Y227D01*
X3262Y225D01*
X3263Y223D01*
X3265Y221D01*
X3266Y219D01*
X3267Y219D01*
X3267Y219D01*
X3267Y218D01*
X3268Y217D01*
X3269Y217D01*
X3270Y216D01*
X3273Y214D01*
X3276Y212D01*
X3280Y210D01*
X3282Y209D01*
X3284Y209D01*
X3287Y208D01*
X3289Y208D01*
X3291D01*
X3293Y208D01*
X3295Y209D01*
X3298Y209D01*
X3301Y211D01*
X3305Y212D01*
X3308Y214D01*
X3371Y257D01*
Y214D01*
X3372Y213D01*
X3372Y212D01*
X3373Y211D01*
X3374Y210D01*
X3375Y209D01*
X3377Y209D01*
X3377D01*
X3378D01*
X3379Y209D01*
X3380Y210D01*
X3382Y210D01*
X3382Y212D01*
X3383Y213D01*
X3383Y215D01*
Y274D01*
D02*
G37*
G36*
Y-222D02*
X3257D01*
X3263D01*
X3262Y-222D01*
X3261Y-222D01*
X3260Y-222D01*
X3259Y-223D01*
X3258Y-224D01*
X3257Y-225D01*
X3257Y-227D01*
Y-227D01*
Y-304D01*
Y-298D01*
X3257Y-299D01*
X3257Y-300D01*
X3258Y-301D01*
X3258Y-302D01*
X3260Y-303D01*
X3261Y-304D01*
X3263Y-304D01*
X3378D01*
X3379Y-304D01*
X3380Y-303D01*
X3382Y-302D01*
X3382Y-301D01*
X3383Y-300D01*
X3383Y-298D01*
Y-293D01*
Y-297D01*
X3383Y-297D01*
X3383Y-296D01*
X3383Y-295D01*
X3382Y-293D01*
X3381Y-292D01*
X3379Y-292D01*
X3377Y-292D01*
X3281D01*
X3324Y-268D01*
X3324Y-268D01*
X3324Y-268D01*
X3325Y-267D01*
X3327Y-265D01*
X3327Y-264D01*
X3327Y-263D01*
Y-262D01*
X3327Y-262D01*
X3327Y-261D01*
X3326Y-260D01*
X3326Y-259D01*
X3325Y-258D01*
X3324Y-257D01*
X3281Y-234D01*
X3377D01*
X3377D01*
X3378D01*
X3379Y-234D01*
X3380Y-233D01*
X3382Y-232D01*
X3382Y-231D01*
X3383Y-230D01*
X3383Y-228D01*
Y-232D01*
Y-227D01*
X3383Y-227D01*
X3383Y-226D01*
X3383Y-225D01*
X3382Y-223D01*
X3381Y-222D01*
X3379Y-222D01*
X3377Y-222D01*
X3383D01*
D01*
D02*
G37*
G36*
Y-318D02*
X3257D01*
X3284D01*
X3283Y-318D01*
X3281Y-318D01*
X3278Y-319D01*
X3275Y-320D01*
X3272Y-321D01*
X3269Y-324D01*
X3267Y-325D01*
X3266Y-326D01*
X3265Y-326D01*
X3265Y-326D01*
X3264Y-328D01*
X3263Y-329D01*
X3261Y-332D01*
X3260Y-335D01*
X3259Y-338D01*
X3258Y-342D01*
X3257Y-344D01*
Y-356D01*
X3258Y-357D01*
Y-358D01*
X3258Y-359D01*
X3258Y-362D01*
X3259Y-365D01*
X3261Y-368D01*
X3263Y-371D01*
X3264Y-373D01*
X3266Y-375D01*
Y-375D01*
X3266Y-375D01*
X3267Y-376D01*
X3269Y-377D01*
X3271Y-379D01*
X3274Y-381D01*
X3277Y-382D01*
X3281Y-383D01*
X3283Y-383D01*
X3357D01*
X3357Y-383D01*
X3360Y-383D01*
X3362Y-382D01*
X3365Y-381D01*
X3369Y-380D01*
X3372Y-378D01*
X3374Y-376D01*
X3375Y-375D01*
X3376Y-374D01*
X3377Y-373D01*
X3378Y-371D01*
X3379Y-369D01*
X3381Y-366D01*
X3382Y-363D01*
X3383Y-359D01*
X3383Y-357D01*
X3383Y-355D01*
Y-371D01*
Y-345D01*
X3383Y-344D01*
Y-343D01*
X3383Y-342D01*
X3382Y-339D01*
X3381Y-336D01*
X3380Y-333D01*
X3378Y-329D01*
X3377Y-328D01*
X3375Y-326D01*
X3375D01*
X3375Y-326D01*
X3374Y-325D01*
X3372Y-324D01*
X3370Y-322D01*
X3367Y-321D01*
X3363Y-319D01*
X3360Y-318D01*
X3358Y-318D01*
X3355Y-318D01*
X3383D01*
D01*
D02*
G37*
G36*
Y-397D02*
X3263D01*
X3263Y-397D01*
X3262Y-397D01*
X3260Y-398D01*
X3259Y-399D01*
X3258Y-400D01*
X3258Y-401D01*
X3257Y-403D01*
Y-402D01*
Y-457D01*
X3258Y-458D01*
X3258Y-459D01*
X3259Y-460D01*
X3260Y-461D01*
X3261Y-462D01*
X3263Y-462D01*
X3264D01*
X3265Y-462D01*
X3266Y-461D01*
X3268Y-461D01*
X3269Y-459D01*
X3269Y-458D01*
X3270Y-456D01*
Y-436D01*
X3377D01*
X3377D01*
X3378D01*
X3379Y-435D01*
X3380Y-435D01*
X3382Y-434D01*
X3382Y-433D01*
X3383Y-431D01*
X3383Y-429D01*
Y-429D01*
X3383Y-429D01*
X3383Y-428D01*
X3383Y-426D01*
X3382Y-425D01*
X3381Y-424D01*
X3379Y-424D01*
X3377Y-423D01*
X3270D01*
Y-403D01*
X3269Y-402D01*
X3269Y-401D01*
X3269Y-400D01*
X3268Y-399D01*
X3267Y-398D01*
X3265Y-397D01*
X3263Y-397D01*
X3383D01*
D01*
D02*
G37*
G36*
Y-424D02*
Y-429D01*
D01*
Y-424D01*
D02*
G37*
G36*
Y-476D02*
X3257D01*
X3284D01*
X3283Y-476D01*
X3281Y-476D01*
X3278Y-477D01*
X3275Y-478D01*
X3272Y-480D01*
X3269Y-482D01*
X3267Y-483D01*
X3266Y-484D01*
X3265Y-484D01*
X3265Y-485D01*
X3264Y-486D01*
X3263Y-487D01*
X3261Y-490D01*
X3260Y-493D01*
X3259Y-496D01*
X3258Y-500D01*
X3257Y-502D01*
D01*
Y-514D01*
X3258Y-515D01*
Y-516D01*
X3258Y-517D01*
X3258Y-520D01*
X3259Y-523D01*
X3261Y-526D01*
X3263Y-530D01*
X3264Y-531D01*
X3266Y-533D01*
Y-533D01*
X3266Y-533D01*
X3267Y-534D01*
X3269Y-536D01*
X3271Y-537D01*
X3274Y-539D01*
X3277Y-540D01*
X3281Y-541D01*
X3283Y-541D01*
X3357D01*
X3357Y-541D01*
X3360Y-541D01*
X3362Y-540D01*
X3365Y-539D01*
X3369Y-538D01*
X3372Y-536D01*
X3374Y-534D01*
X3375Y-533D01*
X3376Y-533D01*
X3377Y-531D01*
X3378Y-530D01*
X3379Y-527D01*
X3381Y-524D01*
X3382Y-521D01*
X3383Y-517D01*
X3383Y-515D01*
X3383Y-513D01*
Y-541D01*
D01*
Y-503D01*
X3383Y-502D01*
Y-501D01*
X3383Y-500D01*
X3382Y-497D01*
X3381Y-494D01*
X3380Y-491D01*
X3378Y-487D01*
X3377Y-486D01*
X3375Y-484D01*
X3375D01*
X3375Y-484D01*
X3374Y-483D01*
X3372Y-482D01*
X3370Y-480D01*
X3367Y-479D01*
X3363Y-477D01*
X3360Y-476D01*
X3358Y-476D01*
X3355Y-476D01*
X3383D01*
D01*
D02*
G37*
G36*
Y-555D02*
X3263D01*
X3263Y-555D01*
X3262Y-556D01*
X3260Y-556D01*
X3259Y-557D01*
X3258Y-558D01*
X3258Y-559D01*
X3257Y-561D01*
Y-555D01*
D01*
Y-620D01*
Y-593D01*
X3258Y-594D01*
Y-595D01*
X3258Y-596D01*
X3258Y-599D01*
X3259Y-602D01*
X3261Y-605D01*
X3263Y-609D01*
X3264Y-610D01*
X3266Y-612D01*
Y-612D01*
X3266Y-612D01*
X3267Y-613D01*
X3269Y-615D01*
X3271Y-616D01*
X3274Y-618D01*
X3277Y-619D01*
X3281Y-620D01*
X3283Y-620D01*
X3304D01*
X3305Y-620D01*
X3307Y-620D01*
X3310Y-619D01*
X3313Y-618D01*
X3316Y-617D01*
X3319Y-615D01*
X3321Y-614D01*
X3322Y-612D01*
X3323Y-612D01*
X3324Y-611D01*
X3325Y-609D01*
X3327Y-606D01*
X3328Y-604D01*
X3329Y-600D01*
X3330Y-596D01*
X3330Y-594D01*
X3331Y-592D01*
Y-568D01*
X3377D01*
X3377D01*
X3378D01*
X3379Y-567D01*
X3380Y-567D01*
X3382Y-566D01*
X3382Y-565D01*
X3383Y-563D01*
X3383Y-561D01*
Y-561D01*
X3383Y-560D01*
X3383Y-559D01*
X3383Y-558D01*
X3382Y-557D01*
X3381Y-556D01*
X3379Y-555D01*
X3377Y-555D01*
X3383D01*
D01*
D02*
G37*
G36*
Y-687D02*
X3290D01*
X3383D01*
D01*
D02*
G37*
G36*
X3290D02*
X3257D01*
X3289D01*
X3288Y-687D01*
X3287Y-688D01*
X3286Y-688D01*
X3259Y-715D01*
X3259Y-715D01*
X3258Y-716D01*
X3258Y-718D01*
X3257Y-719D01*
D01*
Y-720D01*
X3258Y-721D01*
X3258Y-723D01*
X3259Y-724D01*
X3260Y-725D01*
X3261Y-726D01*
X3263Y-726D01*
X3257D01*
X3378D01*
X3379Y-725D01*
X3380Y-725D01*
X3382Y-724D01*
X3382Y-723D01*
X3383Y-721D01*
X3383Y-719D01*
Y-724D01*
Y-716D01*
Y-719D01*
X3383Y-718D01*
X3383Y-718D01*
X3383Y-716D01*
X3382Y-715D01*
X3381Y-714D01*
X3379Y-713D01*
X3377Y-713D01*
X3276D01*
X3294Y-698D01*
X3294Y-697D01*
X3295Y-696D01*
X3295Y-695D01*
X3296Y-693D01*
Y-693D01*
X3296Y-692D01*
X3295Y-690D01*
X3294Y-689D01*
X3294Y-688D01*
X3293Y-688D01*
X3291Y-687D01*
X3290Y-687D01*
D02*
G37*
G36*
X3383Y-740D02*
X3290D01*
X3383D01*
D01*
D02*
G37*
G36*
X3290D02*
X3257D01*
Y-778D01*
D01*
Y-773D01*
X3258Y-774D01*
X3258Y-775D01*
X3259Y-776D01*
X3260Y-778D01*
X3261Y-778D01*
X3263Y-778D01*
X3257D01*
X3378D01*
X3379Y-778D01*
X3380Y-778D01*
X3382Y-777D01*
X3382Y-776D01*
X3383Y-774D01*
X3383Y-772D01*
Y-772D01*
X3383Y-771D01*
X3383Y-770D01*
X3383Y-769D01*
X3382Y-768D01*
X3381Y-767D01*
X3379Y-766D01*
X3377Y-766D01*
X3276D01*
X3294Y-750D01*
X3294Y-750D01*
X3295Y-749D01*
X3295Y-748D01*
X3296Y-746D01*
Y-746D01*
X3296Y-745D01*
X3295Y-743D01*
X3294Y-742D01*
X3294Y-741D01*
X3293Y-741D01*
X3291Y-740D01*
X3290Y-740D01*
D02*
G37*
%LPD*%
G36*
X3257Y785D02*
X3257Y784D01*
X3258Y783D01*
X3258Y782D01*
X3259Y781D01*
X3260Y781D01*
X3310Y751D01*
X3260Y721D01*
X3260Y721D01*
X3260Y721D01*
X3259Y720D01*
X3258Y720D01*
X3257Y718D01*
X3257Y717D01*
X3257Y716D01*
Y786D01*
X3257Y785D01*
D02*
G37*
G36*
X3358Y683D02*
X3359Y683D01*
X3361Y682D01*
X3363Y681D01*
X3365Y680D01*
X3367Y678D01*
X3367Y678D01*
X3367Y678D01*
X3368Y677D01*
X3369Y675D01*
X3370Y674D01*
X3370Y672D01*
X3371Y670D01*
X3371Y667D01*
Y658D01*
X3371Y656D01*
X3371Y655D01*
X3370Y653D01*
X3369Y651D01*
X3368Y649D01*
X3367Y648D01*
X3367Y647D01*
X3366Y647D01*
X3365Y646D01*
X3364Y645D01*
X3362Y644D01*
X3360Y644D01*
X3358Y643D01*
X3355Y643D01*
X3285D01*
X3285D01*
X3284D01*
X3283Y643D01*
X3281Y643D01*
X3280Y644D01*
X3278Y645D01*
X3276Y646D01*
X3274Y648D01*
X3274Y648D01*
X3273Y648D01*
X3273Y649D01*
X3272Y651D01*
X3271Y652D01*
X3270Y654D01*
X3270Y656D01*
X3270Y659D01*
Y669D01*
X3270Y670D01*
X3270Y671D01*
X3271Y673D01*
X3272Y675D01*
X3273Y677D01*
X3274Y678D01*
X3275Y679D01*
X3275Y679D01*
X3276Y680D01*
X3278Y681D01*
X3279Y682D01*
X3281Y682D01*
X3283Y683D01*
X3285Y683D01*
X3355D01*
X3356D01*
X3357D01*
X3358Y683D01*
D02*
G37*
G36*
Y525D02*
X3359Y524D01*
X3361Y524D01*
X3363Y523D01*
X3365Y522D01*
X3367Y520D01*
X3367Y520D01*
X3367Y520D01*
X3368Y519D01*
X3369Y517D01*
X3370Y516D01*
X3370Y514D01*
X3371Y512D01*
X3371Y509D01*
Y499D01*
X3371Y498D01*
X3371Y497D01*
X3370Y495D01*
X3369Y493D01*
X3368Y491D01*
X3367Y489D01*
X3367Y489D01*
X3366Y489D01*
X3365Y488D01*
X3364Y487D01*
X3362Y486D01*
X3360Y485D01*
X3358Y485D01*
X3355Y485D01*
X3285D01*
X3285D01*
X3284D01*
X3283Y485D01*
X3281Y485D01*
X3280Y486D01*
X3278Y487D01*
X3276Y488D01*
X3274Y489D01*
X3274Y490D01*
X3273Y490D01*
X3273Y491D01*
X3272Y493D01*
X3271Y494D01*
X3270Y496D01*
X3270Y498D01*
X3270Y501D01*
Y510D01*
X3270Y511D01*
X3270Y513D01*
X3271Y515D01*
X3272Y517D01*
X3273Y519D01*
X3274Y520D01*
X3275Y521D01*
X3275Y521D01*
X3276Y522D01*
X3278Y523D01*
X3279Y524D01*
X3281Y524D01*
X3283Y525D01*
X3285Y525D01*
X3355D01*
X3356D01*
X3357D01*
X3358Y525D01*
D02*
G37*
G36*
X3318Y420D02*
X3318Y419D01*
X3318Y418D01*
X3317Y416D01*
X3317Y414D01*
X3315Y412D01*
X3314Y410D01*
X3314Y410D01*
X3313Y410D01*
X3312Y409D01*
X3311Y408D01*
X3309Y407D01*
X3307Y406D01*
X3305Y406D01*
X3303Y406D01*
X3285D01*
X3285D01*
X3284D01*
X3283Y406D01*
X3281Y406D01*
X3280Y407D01*
X3278Y408D01*
X3276Y409D01*
X3274Y410D01*
X3274Y411D01*
X3273Y411D01*
X3273Y412D01*
X3272Y414D01*
X3271Y415D01*
X3270Y417D01*
X3270Y419D01*
X3270Y421D01*
Y446D01*
X3318D01*
Y420D01*
D02*
G37*
G36*
X3383Y268D02*
X3383Y268D01*
X3383Y269D01*
X3383Y270D01*
X3382Y272D01*
X3381Y273D01*
X3379Y273D01*
X3377Y274D01*
X3383D01*
Y268D01*
D02*
G37*
G36*
X3376Y273D02*
X3375Y273D01*
X3374Y273D01*
X3301Y225D01*
X3301Y225D01*
X3300Y224D01*
X3299Y224D01*
X3297Y223D01*
X3295Y222D01*
X3293Y221D01*
X3291Y221D01*
X3289Y221D01*
X3289D01*
X3289D01*
X3288Y221D01*
X3286Y221D01*
X3284Y222D01*
X3282Y222D01*
X3280Y224D01*
X3278Y225D01*
X3275Y228D01*
X3275Y228D01*
X3274Y229D01*
X3273Y230D01*
X3272Y232D01*
X3271Y234D01*
X3270Y237D01*
X3270Y239D01*
X3270Y242D01*
Y244D01*
X3270Y244D01*
X3270Y247D01*
X3271Y249D01*
X3272Y251D01*
X3273Y252D01*
X3274Y254D01*
X3275Y255D01*
X3277Y256D01*
X3279Y258D01*
X3281Y259D01*
X3283Y260D01*
X3284D01*
X3284Y261D01*
X3285Y262D01*
X3286Y262D01*
X3287Y263D01*
X3287Y265D01*
X3287Y266D01*
Y266D01*
X3287Y267D01*
X3287Y268D01*
X3287Y269D01*
X3286Y270D01*
X3285Y271D01*
X3283Y272D01*
X3281Y272D01*
X3281D01*
X3280D01*
X3279Y272D01*
X3279Y272D01*
X3278Y272D01*
X3277Y271D01*
X3276Y270D01*
X3274Y269D01*
X3272Y268D01*
X3270Y267D01*
X3268Y265D01*
X3266Y264D01*
X3264Y261D01*
X3262Y259D01*
X3261Y256D01*
X3259Y254D01*
X3258Y250D01*
X3257Y247D01*
X3257Y243D01*
Y274D01*
X3377D01*
X3376Y273D01*
D02*
G37*
G36*
X3257Y-229D02*
X3257Y-229D01*
X3258Y-230D01*
X3258Y-231D01*
X3259Y-232D01*
X3260Y-233D01*
X3310Y-263D01*
X3260Y-292D01*
X3260Y-292D01*
X3260Y-293D01*
X3259Y-293D01*
X3258Y-294D01*
X3257Y-296D01*
X3257Y-297D01*
X3257Y-298D01*
Y-228D01*
X3257Y-229D01*
D02*
G37*
G36*
X3358Y-331D02*
X3359Y-331D01*
X3361Y-331D01*
X3363Y-332D01*
X3365Y-334D01*
X3367Y-335D01*
X3367Y-335D01*
X3367Y-336D01*
X3368Y-337D01*
X3369Y-338D01*
X3370Y-340D01*
X3370Y-342D01*
X3371Y-344D01*
X3371Y-346D01*
Y-356D01*
X3371Y-357D01*
X3371Y-359D01*
X3370Y-360D01*
X3369Y-362D01*
X3368Y-364D01*
X3367Y-366D01*
X3367Y-366D01*
X3366Y-367D01*
X3365Y-367D01*
X3364Y-368D01*
X3362Y-369D01*
X3360Y-370D01*
X3358Y-371D01*
X3355Y-371D01*
X3285D01*
X3285D01*
X3284D01*
X3283Y-371D01*
X3281Y-370D01*
X3280Y-370D01*
X3278Y-369D01*
X3276Y-368D01*
X3274Y-366D01*
X3274Y-366D01*
X3273Y-365D01*
X3273Y-364D01*
X3272Y-363D01*
X3271Y-361D01*
X3270Y-359D01*
X3270Y-357D01*
X3270Y-355D01*
Y-345D01*
X3270Y-344D01*
X3270Y-342D01*
X3271Y-341D01*
X3272Y-339D01*
X3273Y-337D01*
X3274Y-335D01*
X3275Y-335D01*
X3275Y-334D01*
X3276Y-334D01*
X3278Y-333D01*
X3279Y-332D01*
X3281Y-331D01*
X3283Y-331D01*
X3285Y-330D01*
X3355D01*
X3356D01*
X3357D01*
X3358Y-331D01*
D02*
G37*
G36*
Y-489D02*
X3359Y-489D01*
X3361Y-490D01*
X3363Y-491D01*
X3365Y-492D01*
X3367Y-493D01*
X3367Y-493D01*
X3367Y-494D01*
X3368Y-495D01*
X3369Y-496D01*
X3370Y-498D01*
X3370Y-500D01*
X3371Y-502D01*
X3371Y-504D01*
Y-514D01*
X3371Y-515D01*
X3371Y-517D01*
X3370Y-519D01*
X3369Y-520D01*
X3368Y-522D01*
X3367Y-524D01*
X3367Y-524D01*
X3366Y-525D01*
X3365Y-526D01*
X3364Y-526D01*
X3362Y-527D01*
X3360Y-528D01*
X3358Y-529D01*
X3355Y-529D01*
X3285D01*
X3285D01*
X3284D01*
X3283Y-529D01*
X3281Y-528D01*
X3280Y-528D01*
X3278Y-527D01*
X3276Y-526D01*
X3274Y-524D01*
X3274Y-524D01*
X3273Y-523D01*
X3273Y-522D01*
X3272Y-521D01*
X3271Y-519D01*
X3270Y-517D01*
X3270Y-515D01*
X3270Y-513D01*
Y-503D01*
X3270Y-502D01*
X3270Y-500D01*
X3271Y-499D01*
X3272Y-497D01*
X3273Y-495D01*
X3274Y-493D01*
X3275Y-493D01*
X3275Y-492D01*
X3276Y-492D01*
X3278Y-491D01*
X3279Y-490D01*
X3281Y-489D01*
X3283Y-489D01*
X3285Y-489D01*
X3355D01*
X3356D01*
X3357D01*
X3358Y-489D01*
D02*
G37*
G36*
X3318Y-593D02*
X3318Y-594D01*
X3318Y-596D01*
X3317Y-598D01*
X3317Y-599D01*
X3315Y-601D01*
X3314Y-603D01*
X3314Y-603D01*
X3313Y-604D01*
X3312Y-605D01*
X3311Y-606D01*
X3309Y-606D01*
X3307Y-607D01*
X3305Y-608D01*
X3303Y-608D01*
X3285D01*
X3285D01*
X3284D01*
X3283Y-608D01*
X3281Y-607D01*
X3280Y-607D01*
X3278Y-606D01*
X3276Y-605D01*
X3274Y-603D01*
X3274Y-603D01*
X3273Y-602D01*
X3273Y-601D01*
X3272Y-600D01*
X3271Y-598D01*
X3270Y-596D01*
X3270Y-594D01*
X3270Y-592D01*
Y-568D01*
X3318D01*
Y-593D01*
D02*
G37*
G36*
X3288Y-740D02*
X3287Y-740D01*
X3286Y-741D01*
X3259Y-768D01*
X3259Y-768D01*
X3258Y-769D01*
X3258Y-770D01*
X3257Y-772D01*
Y-740D01*
X3289D01*
X3288Y-740D01*
D02*
G37*
%LPC*%
G36*
X-271Y2735D02*
X-328D01*
D01*
X-323D01*
X-324Y2735D01*
X-325Y2734D01*
X-326Y2734D01*
X-326Y2733D01*
X-326D01*
X-327Y2733D01*
X-327Y2732D01*
X-328Y2731D01*
X-328Y2730D01*
Y2730D01*
Y2632D01*
Y2729D01*
X-328Y2729D01*
X-328Y2728D01*
X-327Y2727D01*
X-300Y2691D01*
X-327Y2632D01*
X-328Y2632D01*
X-328Y2632D01*
X-328Y2631D01*
Y2630D01*
X-328Y2629D01*
X-328Y2628D01*
X-327Y2627D01*
X-327Y2626D01*
X-326Y2626D01*
X-324Y2625D01*
X-322Y2625D01*
X-322D01*
X-321Y2625D01*
X-321Y2625D01*
X-320Y2626D01*
X-319Y2627D01*
X-318Y2628D01*
X-317Y2629D01*
X-293Y2683D01*
X-282Y2667D01*
Y2630D01*
Y2630D01*
Y2629D01*
X-282Y2629D01*
X-281Y2628D01*
X-281Y2626D01*
X-280Y2626D01*
X-278Y2625D01*
X-277Y2625D01*
X-276D01*
X-276Y2625D01*
X-275Y2625D01*
X-274Y2625D01*
X-273Y2626D01*
X-272Y2627D01*
X-271Y2628D01*
X-271Y2630D01*
Y2627D01*
Y2735D01*
D02*
G37*
G36*
X117Y2735D02*
X111D01*
X110Y2735D01*
X109D01*
X108Y2735D01*
X105Y2734D01*
X103Y2733D01*
X100Y2732D01*
X97Y2730D01*
X95Y2729D01*
X94Y2728D01*
X94D01*
X94Y2727D01*
X93Y2726D01*
X92Y2725D01*
X90Y2723D01*
X89Y2720D01*
X88Y2718D01*
X87Y2714D01*
X87Y2712D01*
D01*
Y2648D01*
X87Y2648D01*
X87Y2646D01*
X88Y2643D01*
X89Y2641D01*
X90Y2638D01*
X92Y2635D01*
X93Y2633D01*
X94Y2632D01*
X94Y2632D01*
X95Y2631D01*
X97Y2630D01*
X99Y2628D01*
X102Y2627D01*
X105Y2626D01*
X108Y2625D01*
X110Y2625D01*
X112Y2625D01*
X87D01*
X143D01*
X120D01*
X121Y2625D01*
X122Y2625D01*
X124Y2625D01*
X127Y2626D01*
X129Y2627D01*
X132Y2629D01*
X135Y2630D01*
X135Y2631D01*
X136Y2631D01*
X137Y2633D01*
X138Y2634D01*
X140Y2636D01*
X141Y2639D01*
X142Y2641D01*
X143Y2645D01*
Y2645D01*
Y2645D01*
X143Y2646D01*
Y2646D01*
X143Y2647D01*
X143Y2647D01*
X143Y2648D01*
X142Y2649D01*
X141Y2650D01*
X140Y2651D01*
X138Y2651D01*
X137D01*
X136Y2651D01*
X136Y2651D01*
X135Y2650D01*
X134Y2649D01*
X133Y2648D01*
X133Y2647D01*
Y2647D01*
X132Y2646D01*
X132Y2645D01*
X132Y2644D01*
X131Y2643D01*
X130Y2641D01*
X129Y2640D01*
X128Y2639D01*
X128Y2638D01*
X127Y2638D01*
X126Y2638D01*
X125Y2637D01*
X124Y2636D01*
X123Y2636D01*
X121Y2636D01*
X119Y2636D01*
X111D01*
X110Y2636D01*
X108Y2636D01*
X107Y2636D01*
X105Y2637D01*
X104Y2638D01*
X102Y2640D01*
X102Y2640D01*
X101Y2640D01*
X101Y2641D01*
X100Y2642D01*
X99Y2644D01*
X98Y2645D01*
X98Y2647D01*
X98Y2649D01*
Y2665D01*
Y2665D01*
Y2666D01*
X98Y2667D01*
X98Y2668D01*
X99Y2669D01*
X100Y2671D01*
X100Y2673D01*
X102Y2674D01*
X102Y2674D01*
X103Y2675D01*
X104Y2676D01*
X105Y2676D01*
X106Y2677D01*
X108Y2678D01*
X110Y2678D01*
X112Y2678D01*
X123D01*
X124Y2679D01*
X125Y2679D01*
X126Y2679D01*
X127Y2680D01*
X128Y2681D01*
X128Y2682D01*
X128Y2684D01*
Y2684D01*
X128Y2685D01*
X128Y2685D01*
X128Y2686D01*
X127Y2687D01*
X126Y2688D01*
X125Y2689D01*
X123Y2689D01*
X111D01*
X110Y2689D01*
X108Y2690D01*
X107Y2690D01*
X105Y2691D01*
X104Y2692D01*
X102Y2693D01*
X102Y2693D01*
X101Y2694D01*
X101Y2695D01*
X100Y2696D01*
X99Y2697D01*
X98Y2699D01*
X98Y2701D01*
X98Y2703D01*
Y2711D01*
Y2711D01*
Y2712D01*
X98Y2713D01*
X98Y2714D01*
X99Y2715D01*
X100Y2717D01*
X100Y2719D01*
X102Y2720D01*
X102Y2720D01*
X103Y2721D01*
X104Y2721D01*
X105Y2722D01*
X106Y2723D01*
X108Y2724D01*
X110Y2724D01*
X112Y2724D01*
X118D01*
X118Y2724D01*
X120Y2724D01*
X122Y2723D01*
X124Y2722D01*
X126Y2721D01*
X127Y2720D01*
X128Y2719D01*
X129Y2718D01*
X129Y2716D01*
Y2716D01*
X130Y2716D01*
X130Y2715D01*
X131Y2714D01*
X131Y2714D01*
X132Y2713D01*
X133Y2713D01*
X134Y2713D01*
X134D01*
X135Y2713D01*
X136Y2713D01*
X137Y2713D01*
X138Y2714D01*
X139Y2715D01*
X140Y2716D01*
X140Y2718D01*
Y2718D01*
X140Y2719D01*
X140Y2720D01*
X139Y2721D01*
X139Y2721D01*
X139Y2722D01*
X138Y2723D01*
X137Y2725D01*
X136Y2726D01*
X134Y2728D01*
X133Y2730D01*
X130Y2731D01*
X130Y2731D01*
X129Y2732D01*
X128Y2732D01*
X126Y2733D01*
X124Y2734D01*
X122Y2734D01*
X120Y2735D01*
X117Y2735D01*
D02*
G37*
G36*
X-228Y2735D02*
X-235D01*
X-236Y2735D01*
X-236D01*
X-238Y2735D01*
X-240Y2734D01*
X-243Y2733D01*
X-246Y2732D01*
X-249Y2730D01*
X-250Y2729D01*
X-251Y2728D01*
X-251D01*
X-252Y2727D01*
X-252Y2726D01*
X-254Y2725D01*
X-255Y2723D01*
X-256Y2720D01*
X-257Y2718D01*
X-258Y2714D01*
X-259Y2712D01*
Y2712D01*
Y2702D01*
X-258Y2701D01*
X-258Y2700D01*
X-258Y2698D01*
X-257Y2696D01*
X-256Y2692D01*
X-255Y2691D01*
X-254Y2689D01*
X-253Y2688D01*
X-252Y2686D01*
X-250Y2685D01*
X-248Y2684D01*
X-248D01*
X-249Y2683D01*
X-249Y2683D01*
X-250Y2683D01*
X-251Y2681D01*
X-253Y2679D01*
X-255Y2676D01*
X-257Y2673D01*
X-258Y2671D01*
X-258Y2669D01*
X-258Y2667D01*
X-259Y2665D01*
Y2648D01*
X-258Y2648D01*
X-258Y2646D01*
X-258Y2643D01*
X-257Y2641D01*
X-255Y2638D01*
X-254Y2635D01*
X-253Y2633D01*
X-251Y2632D01*
X-251Y2632D01*
X-250Y2631D01*
X-249Y2630D01*
X-246Y2628D01*
X-244Y2627D01*
X-241Y2626D01*
X-238Y2625D01*
X-236Y2625D01*
X-234Y2625D01*
X-259D01*
X-202D01*
X-225D01*
X-225Y2625D01*
X-223Y2625D01*
X-221Y2625D01*
X-219Y2626D01*
X-216Y2627D01*
X-213Y2629D01*
X-211Y2630D01*
X-210Y2631D01*
X-210Y2631D01*
X-208Y2633D01*
X-207Y2634D01*
X-206Y2636D01*
X-204Y2639D01*
X-203Y2641D01*
X-202Y2645D01*
Y2645D01*
Y2645D01*
X-202Y2646D01*
Y2646D01*
X-202Y2647D01*
X-202Y2647D01*
X-203Y2648D01*
X-203Y2649D01*
X-204Y2650D01*
X-206Y2651D01*
X-208Y2651D01*
X-208D01*
X-209Y2651D01*
X-210Y2651D01*
X-211Y2650D01*
X-212Y2649D01*
X-212Y2648D01*
X-213Y2647D01*
Y2647D01*
X-213Y2646D01*
X-213Y2645D01*
X-214Y2644D01*
X-215Y2643D01*
X-215Y2641D01*
X-216Y2640D01*
X-218Y2639D01*
X-218Y2638D01*
X-218Y2638D01*
X-219Y2638D01*
X-220Y2637D01*
X-221Y2636D01*
X-223Y2636D01*
X-224Y2636D01*
X-226Y2636D01*
X-235D01*
X-236Y2636D01*
X-237Y2636D01*
X-239Y2636D01*
X-240Y2637D01*
X-242Y2638D01*
X-244Y2640D01*
X-244Y2640D01*
X-244Y2640D01*
X-245Y2641D01*
X-246Y2642D01*
X-246Y2644D01*
X-247Y2645D01*
X-248Y2647D01*
X-248Y2649D01*
Y2665D01*
Y2665D01*
Y2666D01*
X-248Y2667D01*
X-247Y2668D01*
X-247Y2669D01*
X-246Y2671D01*
X-245Y2673D01*
X-244Y2674D01*
X-243Y2674D01*
X-243Y2675D01*
X-242Y2676D01*
X-241Y2676D01*
X-239Y2677D01*
X-238Y2678D01*
X-236Y2678D01*
X-234Y2678D01*
X-222D01*
X-222Y2679D01*
X-221Y2679D01*
X-220Y2679D01*
X-219Y2680D01*
X-218Y2681D01*
X-217Y2682D01*
X-217Y2684D01*
Y2684D01*
X-217Y2685D01*
X-217Y2685D01*
X-218Y2686D01*
X-218Y2687D01*
X-219Y2688D01*
X-221Y2689D01*
X-222Y2689D01*
X-235D01*
X-236Y2689D01*
X-237Y2690D01*
X-239Y2690D01*
X-240Y2691D01*
X-242Y2692D01*
X-244Y2693D01*
X-244Y2693D01*
X-244Y2694D01*
X-245Y2695D01*
X-246Y2696D01*
X-246Y2697D01*
X-247Y2699D01*
X-248Y2701D01*
X-248Y2703D01*
Y2711D01*
Y2711D01*
Y2712D01*
X-248Y2713D01*
X-247Y2714D01*
X-247Y2715D01*
X-246Y2717D01*
X-245Y2719D01*
X-244Y2720D01*
X-243Y2720D01*
X-243Y2721D01*
X-242Y2721D01*
X-241Y2722D01*
X-239Y2723D01*
X-238Y2724D01*
X-236Y2724D01*
X-234Y2724D01*
X-228D01*
X-227Y2724D01*
X-225Y2724D01*
X-224Y2723D01*
X-222Y2722D01*
X-219Y2721D01*
X-218Y2720D01*
X-218Y2719D01*
X-217Y2718D01*
X-216Y2716D01*
Y2716D01*
X-216Y2716D01*
X-215Y2715D01*
X-215Y2714D01*
X-214Y2714D01*
X-213Y2713D01*
X-212Y2713D01*
X-211Y2713D01*
X-211D01*
X-210Y2713D01*
X-209Y2713D01*
X-208Y2713D01*
X-207Y2714D01*
X-206Y2715D01*
X-206Y2716D01*
X-205Y2718D01*
Y2718D01*
X-206Y2719D01*
X-206Y2720D01*
X-206Y2721D01*
X-206Y2721D01*
X-207Y2722D01*
X-207Y2723D01*
X-208Y2725D01*
X-210Y2726D01*
X-211Y2728D01*
X-213Y2730D01*
X-215Y2731D01*
X-215Y2731D01*
X-216Y2732D01*
X-217Y2732D01*
X-219Y2733D01*
X-221Y2734D01*
X-223Y2734D01*
X-226Y2735D01*
X-228Y2735D01*
D02*
G37*
G36*
X-64Y2735D02*
X-97D01*
X-98Y2735D01*
X-99D01*
X-100Y2735D01*
X-102Y2734D01*
X-105Y2733D01*
X-108Y2732D01*
X-111Y2730D01*
X-112Y2729D01*
X-114Y2728D01*
X-114D01*
X-114Y2727D01*
X-115Y2726D01*
X-116Y2725D01*
X-117Y2723D01*
X-119Y2720D01*
X-120Y2718D01*
X-121Y2714D01*
X-121Y2712D01*
Y2730D01*
Y2694D01*
X-121Y2694D01*
X-121Y2692D01*
X-120Y2689D01*
X-119Y2687D01*
X-118Y2684D01*
X-116Y2681D01*
X-115Y2679D01*
X-114Y2678D01*
X-113Y2678D01*
X-112Y2677D01*
X-111Y2676D01*
X-109Y2674D01*
X-106Y2673D01*
X-103Y2672D01*
X-100Y2671D01*
X-98Y2671D01*
X-96Y2671D01*
X-75D01*
Y2630D01*
Y2630D01*
Y2629D01*
X-74Y2629D01*
X-74Y2628D01*
X-73Y2626D01*
X-72Y2626D01*
X-71Y2625D01*
X-69Y2625D01*
X-64D01*
Y2730D01*
X-64Y2730D01*
X-64Y2731D01*
X-65Y2732D01*
X-65Y2733D01*
X-66Y2734D01*
X-67Y2735D01*
X-69Y2735D01*
X-64D01*
D02*
G37*
G36*
X-133D02*
X-138D01*
D01*
X-139D01*
X-140Y2735D01*
X-141Y2734D01*
X-142Y2734D01*
X-143Y2733D01*
X-144Y2731D01*
X-144Y2730D01*
Y2695D01*
Y2695D01*
Y2694D01*
X-144Y2693D01*
X-144Y2692D01*
X-145Y2690D01*
X-145Y2689D01*
X-146Y2687D01*
X-148Y2686D01*
X-148Y2685D01*
X-149Y2685D01*
X-149Y2684D01*
X-150Y2684D01*
X-152Y2683D01*
X-154Y2682D01*
X-155Y2682D01*
X-158Y2682D01*
X-179D01*
Y2730D01*
Y2730D01*
X-179Y2730D01*
X-179Y2731D01*
X-180Y2732D01*
X-180Y2733D01*
X-181Y2734D01*
X-183Y2735D01*
X-184Y2735D01*
X-174D01*
X-190D01*
X-185D01*
X-186Y2735D01*
X-187Y2734D01*
X-188Y2734D01*
X-189Y2733D01*
X-190Y2731D01*
X-190Y2730D01*
Y2648D01*
X-190Y2648D01*
X-190Y2646D01*
X-189Y2643D01*
X-188Y2641D01*
X-187Y2638D01*
X-185Y2635D01*
X-184Y2633D01*
X-183Y2632D01*
X-182Y2632D01*
X-181Y2631D01*
X-180Y2630D01*
X-178Y2628D01*
X-175Y2627D01*
X-172Y2626D01*
X-169Y2625D01*
X-167Y2625D01*
X-165Y2625D01*
X-190D01*
X-133D01*
X-146D01*
X-145Y2625D01*
X-144Y2625D01*
X-143Y2625D01*
X-142Y2626D01*
X-141Y2627D01*
X-141Y2628D01*
X-141Y2630D01*
Y2630D01*
X-141Y2631D01*
X-141Y2632D01*
X-141Y2633D01*
X-142Y2634D01*
X-143Y2635D01*
X-144Y2635D01*
X-146Y2636D01*
X-166D01*
X-167Y2636D01*
X-169Y2636D01*
X-170Y2636D01*
X-172Y2637D01*
X-173Y2638D01*
X-175Y2640D01*
X-175Y2640D01*
X-176Y2640D01*
X-176Y2641D01*
X-177Y2642D01*
X-178Y2644D01*
X-178Y2645D01*
X-179Y2647D01*
X-179Y2649D01*
Y2671D01*
X-157D01*
X-156Y2671D01*
X-155D01*
X-154Y2671D01*
X-152Y2672D01*
X-149Y2673D01*
X-146Y2674D01*
X-143Y2676D01*
X-141Y2677D01*
X-140Y2678D01*
Y2678D01*
X-140Y2678D01*
X-139Y2679D01*
X-138Y2681D01*
X-137Y2683D01*
X-135Y2685D01*
X-134Y2688D01*
X-133Y2692D01*
X-133Y2693D01*
X-133Y2695D01*
Y2730D01*
X-133Y2730D01*
X-133Y2731D01*
X-134Y2732D01*
X-134Y2733D01*
X-135Y2734D01*
X-137Y2735D01*
X-138Y2735D01*
X-133D01*
D02*
G37*
G36*
X74D02*
Y2631D01*
X74D01*
X47Y2730D01*
Y2730D01*
X47Y2731D01*
X47Y2732D01*
X46Y2733D01*
X46Y2734D01*
X45Y2734D01*
X44Y2735D01*
X42Y2735D01*
X74D01*
X10D01*
X42D01*
X41Y2735D01*
X40Y2734D01*
X39Y2734D01*
X38Y2733D01*
X38Y2732D01*
X37Y2730D01*
X10Y2632D01*
Y2631D01*
X10Y2631D01*
Y2632D01*
Y2631D01*
Y2629D01*
X10Y2628D01*
X11Y2627D01*
X11Y2626D01*
X12Y2626D01*
X14Y2625D01*
X16Y2625D01*
X32D01*
X16D01*
X17Y2625D01*
X18Y2625D01*
X19Y2626D01*
X19Y2626D01*
X20Y2627D01*
X21Y2629D01*
X28Y2656D01*
X57D01*
X64Y2629D01*
Y2629D01*
X64Y2628D01*
X64Y2627D01*
X65Y2627D01*
X66Y2626D01*
X66Y2625D01*
X67Y2625D01*
X69Y2625D01*
X69D01*
X70Y2625D01*
X71Y2625D01*
X72Y2625D01*
X73Y2626D01*
X74Y2627D01*
X74Y2628D01*
X74Y2630D01*
Y2735D01*
D02*
G37*
G36*
X-340Y2735D02*
Y2631D01*
X-340D01*
X-367Y2730D01*
Y2730D01*
X-367Y2731D01*
X-368Y2732D01*
X-368Y2733D01*
X-369Y2734D01*
X-370Y2734D01*
X-371Y2735D01*
X-372Y2735D01*
X-340D01*
X-404D01*
X-373D01*
X-374Y2735D01*
X-374Y2734D01*
X-375Y2734D01*
X-376Y2733D01*
X-377Y2732D01*
X-377Y2730D01*
X-404Y2632D01*
Y2631D01*
X-404Y2631D01*
Y2629D01*
X-404Y2628D01*
X-404Y2627D01*
X-403Y2626D01*
X-402Y2626D01*
X-401Y2625D01*
X-399Y2625D01*
X-382D01*
X-398D01*
X-398Y2625D01*
X-397Y2625D01*
X-396Y2626D01*
X-395Y2626D01*
X-394Y2627D01*
X-394Y2629D01*
X-387Y2656D01*
X-358D01*
X-351Y2629D01*
Y2629D01*
X-351Y2628D01*
X-350Y2627D01*
X-350Y2627D01*
X-349Y2626D01*
X-348Y2625D01*
X-347Y2625D01*
X-346Y2625D01*
X-345D01*
X-345Y2625D01*
X-344Y2625D01*
X-343Y2625D01*
X-342Y2626D01*
X-341Y2627D01*
X-340Y2628D01*
X-340Y2630D01*
Y2735D01*
D02*
G37*
G36*
X205Y2735D02*
X156D01*
D01*
X160D01*
X159Y2735D01*
X158Y2734D01*
X157Y2734D01*
X156Y2733D01*
X156Y2731D01*
X156Y2730D01*
Y2672D01*
Y2729D01*
X156Y2728D01*
X156Y2727D01*
X157Y2726D01*
X158Y2725D01*
X159Y2724D01*
X161Y2724D01*
X194D01*
Y2689D01*
X176D01*
X175Y2689D01*
X174Y2688D01*
X173Y2688D01*
X172Y2687D01*
X171Y2686D01*
X171Y2684D01*
Y2684D01*
Y2683D01*
X171Y2682D01*
X172Y2681D01*
X172Y2680D01*
X173Y2679D01*
X175Y2679D01*
X176Y2678D01*
X194D01*
Y2636D01*
X160D01*
X159Y2635D01*
X158Y2635D01*
X157Y2634D01*
X156Y2633D01*
X156Y2632D01*
X156Y2630D01*
D01*
Y2629D01*
X156Y2629D01*
X156Y2628D01*
X157Y2626D01*
X158Y2626D01*
X159Y2625D01*
X161Y2625D01*
X199D01*
X200Y2625D01*
X201Y2625D01*
X202Y2625D01*
X203Y2626D01*
X204Y2627D01*
X205Y2628D01*
X205Y2630D01*
Y2626D01*
Y2730D01*
X205Y2730D01*
X204Y2731D01*
X204Y2732D01*
X203Y2733D01*
X202Y2734D01*
X201Y2735D01*
X199Y2735D01*
X205D01*
D02*
G37*
G36*
X-2D02*
X-51D01*
X-47D01*
X-48Y2735D01*
X-49Y2734D01*
X-50Y2734D01*
X-51Y2733D01*
X-51Y2731D01*
X-51Y2730D01*
Y2625D01*
Y2729D01*
X-51Y2728D01*
X-51Y2727D01*
X-50Y2726D01*
X-49Y2725D01*
X-48Y2724D01*
X-46Y2724D01*
X-13D01*
Y2630D01*
Y2630D01*
Y2629D01*
X-13Y2629D01*
X-13Y2628D01*
X-12Y2626D01*
X-11Y2626D01*
X-10Y2625D01*
X-8Y2625D01*
X-8D01*
X-7Y2625D01*
X-6Y2625D01*
X-5Y2625D01*
X-4Y2626D01*
X-3Y2627D01*
X-3Y2628D01*
X-2Y2630D01*
Y2628D01*
Y2730D01*
X-3Y2730D01*
X-3Y2731D01*
X-3Y2732D01*
X-4Y2733D01*
X-5Y2734D01*
X-6Y2735D01*
X-8Y2735D01*
X-2D01*
D01*
D02*
G37*
G36*
X404D02*
X348D01*
D01*
X352D01*
X351Y2735D01*
X350Y2734D01*
X349Y2734D01*
X348Y2733D01*
X348Y2731D01*
X348Y2730D01*
Y2625D01*
Y2629D01*
X348Y2629D01*
X348Y2628D01*
X349Y2626D01*
X350Y2626D01*
X351Y2625D01*
X353Y2625D01*
X353D01*
X354Y2625D01*
X355Y2625D01*
X356Y2625D01*
X357Y2626D01*
X358Y2627D01*
X358Y2628D01*
X358Y2630D01*
Y2724D01*
X394D01*
Y2630D01*
Y2630D01*
Y2629D01*
X394Y2629D01*
X394Y2628D01*
X395Y2626D01*
X396Y2626D01*
X397Y2625D01*
X399Y2625D01*
X399D01*
X400Y2625D01*
X401Y2625D01*
X402Y2625D01*
X403Y2626D01*
X404Y2627D01*
X404Y2628D01*
X404Y2630D01*
Y2626D01*
Y2730D01*
X404Y2730D01*
X404Y2731D01*
X404Y2732D01*
X403Y2733D01*
X402Y2734D01*
X401Y2735D01*
X399Y2735D01*
X404D01*
D01*
D02*
G37*
G36*
X335D02*
X286D01*
D01*
X291D01*
X290Y2735D01*
X289Y2734D01*
X288Y2734D01*
X287Y2733D01*
X286Y2731D01*
X286Y2730D01*
Y2666D01*
Y2729D01*
X287Y2728D01*
X287Y2727D01*
X288Y2726D01*
X288Y2725D01*
X290Y2724D01*
X292Y2724D01*
X324D01*
Y2689D01*
X306D01*
X305Y2689D01*
X304Y2688D01*
X303Y2688D01*
X302Y2687D01*
X302Y2686D01*
X302Y2684D01*
Y2684D01*
Y2683D01*
X302Y2682D01*
X302Y2681D01*
X303Y2680D01*
X304Y2679D01*
X305Y2679D01*
X307Y2678D01*
X324D01*
Y2636D01*
X291D01*
X290Y2635D01*
X289Y2635D01*
X288Y2634D01*
X287Y2633D01*
X286Y2632D01*
X286Y2630D01*
D01*
Y2629D01*
X287Y2629D01*
X287Y2628D01*
X288Y2626D01*
X288Y2626D01*
X290Y2625D01*
X292Y2625D01*
X330D01*
X331Y2625D01*
X332Y2625D01*
X332Y2625D01*
X334Y2626D01*
X334Y2627D01*
X335Y2628D01*
X335Y2630D01*
Y2626D01*
Y2630D01*
Y2730D01*
X335Y2730D01*
X335Y2731D01*
X335Y2732D01*
X334Y2733D01*
X333Y2734D01*
X332Y2735D01*
X330Y2735D01*
X335D01*
D02*
G37*
G36*
X274D02*
X217D01*
X241D01*
X240Y2735D01*
X239D01*
X238Y2735D01*
X236Y2734D01*
X233Y2733D01*
X230Y2732D01*
X227Y2730D01*
X226Y2729D01*
X224Y2728D01*
X224D01*
X224Y2727D01*
X223Y2726D01*
X222Y2725D01*
X221Y2723D01*
X219Y2720D01*
X218Y2718D01*
X217Y2714D01*
X217Y2712D01*
Y2694D01*
X217Y2694D01*
X217Y2692D01*
X218Y2689D01*
X219Y2687D01*
X220Y2684D01*
X222Y2681D01*
X223Y2679D01*
X224Y2678D01*
X225Y2678D01*
X226Y2677D01*
X227Y2676D01*
X229Y2674D01*
X232Y2673D01*
X235Y2672D01*
X238Y2671D01*
X240Y2671D01*
X242Y2671D01*
X263D01*
Y2630D01*
Y2630D01*
Y2629D01*
X263Y2629D01*
X264Y2628D01*
X264Y2626D01*
X265Y2626D01*
X267Y2625D01*
X269Y2625D01*
X269D01*
X269Y2625D01*
X270Y2625D01*
X271Y2625D01*
X272Y2626D01*
X273Y2627D01*
X274Y2628D01*
X274Y2630D01*
Y2625D01*
Y2730D01*
X274Y2730D01*
X274Y2731D01*
X273Y2732D01*
X273Y2733D01*
X272Y2734D01*
X270Y2735D01*
X269Y2735D01*
X274D01*
D01*
D02*
G37*
%LPD*%
G36*
X-271Y2730D02*
X-271Y2730D01*
X-271Y2731D01*
X-272Y2732D01*
X-272Y2733D01*
X-273Y2734D01*
X-275Y2735D01*
X-277Y2735D01*
X-277D01*
X-278Y2735D01*
X-279Y2734D01*
X-280Y2734D01*
X-281Y2733D01*
X-282Y2731D01*
X-282Y2730D01*
Y2682D01*
X-318Y2733D01*
X-318Y2733D01*
X-318Y2733D01*
X-319Y2734D01*
X-321Y2735D01*
X-321Y2735D01*
X-322Y2735D01*
X-271D01*
Y2730D01*
D02*
G37*
G36*
X87Y2701D02*
X87Y2700D01*
X87Y2698D01*
X88Y2696D01*
X89Y2692D01*
X90Y2691D01*
X91Y2689D01*
X92Y2688D01*
X94Y2686D01*
X95Y2685D01*
X97Y2684D01*
X97D01*
X97Y2683D01*
X96Y2683D01*
X96Y2683D01*
X94Y2681D01*
X92Y2679D01*
X90Y2676D01*
X89Y2673D01*
X88Y2671D01*
X87Y2669D01*
X87Y2667D01*
X87Y2665D01*
Y2702D01*
X87Y2701D01*
D02*
G37*
G36*
X-75Y2682D02*
X-97D01*
X-98Y2682D01*
X-100Y2682D01*
X-101Y2683D01*
X-103Y2683D01*
X-104Y2684D01*
X-106Y2686D01*
X-106Y2686D01*
X-106Y2686D01*
X-107Y2687D01*
X-108Y2688D01*
X-109Y2690D01*
X-109Y2691D01*
X-110Y2693D01*
X-110Y2695D01*
Y2711D01*
Y2711D01*
Y2712D01*
X-110Y2713D01*
X-110Y2714D01*
X-109Y2715D01*
X-108Y2717D01*
X-107Y2719D01*
X-106Y2720D01*
X-106Y2720D01*
X-105Y2721D01*
X-104Y2722D01*
X-103Y2722D01*
X-102Y2723D01*
X-100Y2724D01*
X-98Y2724D01*
X-96Y2724D01*
X-75D01*
Y2682D01*
D02*
G37*
G36*
X-64Y2625D02*
X-69D01*
X-68Y2625D01*
X-68Y2625D01*
X-67Y2625D01*
X-66Y2626D01*
X-65Y2627D01*
X-64Y2628D01*
X-64Y2630D01*
Y2625D01*
D02*
G37*
G36*
X54Y2666D02*
X30D01*
X42Y2713D01*
X54Y2666D01*
D02*
G37*
G36*
X-360Y2666D02*
X-384D01*
X-372Y2713D01*
X-360Y2666D01*
D02*
G37*
G36*
X263Y2682D02*
X241D01*
X240Y2682D01*
X238Y2682D01*
X237Y2683D01*
X235Y2683D01*
X234Y2684D01*
X232Y2686D01*
X232Y2686D01*
X231Y2686D01*
X231Y2687D01*
X230Y2688D01*
X229Y2690D01*
X228Y2691D01*
X228Y2693D01*
X228Y2695D01*
Y2711D01*
Y2711D01*
Y2712D01*
X228Y2713D01*
X228Y2714D01*
X229Y2715D01*
X230Y2717D01*
X231Y2719D01*
X232Y2720D01*
X232Y2720D01*
X233Y2721D01*
X234Y2722D01*
X235Y2722D01*
X236Y2723D01*
X238Y2724D01*
X240Y2724D01*
X242Y2724D01*
X263D01*
Y2682D01*
D02*
G37*
D10*
X755Y-745D02*
X1285D01*
X755Y-375D02*
X1285D01*
Y-745D02*
Y-375D01*
X755Y-745D02*
Y-375D01*
X-610Y-380D02*
Y240D01*
X-1230Y-380D02*
Y240D01*
Y-380D02*
X-610D01*
X-1230Y240D02*
X-610D01*
X-1000Y-1040D02*
Y-860D01*
X-640Y-1040D02*
Y-860D01*
X-1000Y-1040D02*
X-640D01*
X-1000Y-860D02*
X-640D01*
X-1000Y-850D02*
Y-670D01*
X-640Y-850D02*
Y-670D01*
X-1000Y-850D02*
X-640D01*
X-1000Y-670D02*
X-640D01*
X-1085Y960D02*
X-905D01*
X-1085Y600D02*
X-905D01*
X-1085D02*
Y960D01*
X-905Y600D02*
Y960D01*
X-910D02*
X-730D01*
X-910Y600D02*
X-730D01*
X-910D02*
Y960D01*
X-730Y600D02*
Y960D01*
X-210Y960D02*
X-30D01*
X-210Y600D02*
X-30D01*
X-210D02*
Y960D01*
X-30Y600D02*
Y960D01*
X-260Y970D02*
Y1150D01*
X-620Y970D02*
Y1150D01*
X-260D01*
X-620Y970D02*
X-260D01*
X660Y-110D02*
X1020D01*
X660Y70D02*
X1020D01*
X660Y-110D02*
Y70D01*
X1020Y-110D02*
Y70D01*
X895Y440D02*
Y760D01*
X638Y440D02*
Y760D01*
X1402D01*
Y440D02*
Y760D01*
X638Y440D02*
X1402D01*
X1020Y70D02*
X1380D01*
X1020Y-110D02*
X1380D01*
Y70D01*
X1020Y-110D02*
Y70D01*
X895Y100D02*
Y420D01*
X637Y100D02*
Y420D01*
X1402D01*
Y100D02*
Y420D01*
X637Y100D02*
X1402D01*
X525Y2800D02*
Y3440D01*
X-525Y2800D02*
X525Y2800D01*
X-525Y2800D02*
Y3440D01*
X525D01*
X-290Y2350D02*
X70D01*
X-290Y2170D02*
X70D01*
Y2350D01*
X-290Y2170D02*
Y2350D01*
X-250Y1780D02*
X-208D01*
X-250Y1738D02*
Y1780D01*
Y1280D02*
Y1323D01*
Y1280D02*
X-208D01*
X208D02*
X250D01*
Y1323D01*
X208Y1780D02*
X250D01*
Y1738D02*
Y1780D01*
X-290Y2160D02*
X70D01*
X-290Y1980D02*
X70D01*
Y2160D01*
X-290Y1980D02*
Y2160D01*
X100Y2350D02*
X460D01*
X100Y2170D02*
X460D01*
Y2350D01*
X100Y2170D02*
Y2350D01*
X-440Y1600D02*
Y1960D01*
X-620Y1600D02*
Y1960D01*
Y1600D02*
X-440D01*
X-620Y1960D02*
X-440D01*
X920Y3610D02*
X1020D01*
X920Y3910D02*
X1020D01*
X900Y3765D02*
Y3795D01*
X1040Y3725D02*
Y3795D01*
X-3200Y-1000D02*
Y0D01*
X-2440Y-1000D02*
Y0D01*
X-3200D02*
X-2440D01*
X-3200Y-1000D02*
X-2440D01*
X-3200Y0D02*
Y1000D01*
X-2440Y0D02*
Y1000D01*
X-3200D02*
X-2440D01*
X-3200Y0D02*
X-2440D01*
X3200D02*
Y1000D01*
X2440Y0D02*
Y1000D01*
Y0D02*
X3200D01*
X2440Y1000D02*
X3200D01*
Y-1000D02*
Y0D01*
X2440Y-1000D02*
Y0D01*
Y-1000D02*
X3200D01*
X2440Y0D02*
X3200D01*
X1650Y-4705D02*
Y-4345D01*
X1470Y-4705D02*
Y-4345D01*
Y-4705D02*
X1650D01*
X1470Y-4345D02*
X1650D01*
X-2710Y-4590D02*
X-2350D01*
X-2710Y-4410D02*
X-2350D01*
X-2710Y-4590D02*
Y-4410D01*
X-2350Y-4590D02*
Y-4410D01*
X100Y1980D02*
Y2160D01*
X460Y1980D02*
Y2160D01*
X100Y1980D02*
X460D01*
X100Y2160D02*
X460D01*
X-2380Y3790D02*
Y3970D01*
X-2740Y3790D02*
Y3970D01*
X-2380D01*
X-2740Y3790D02*
X-2380D01*
X-500Y-3160D02*
Y-2840D01*
X500Y-3160D02*
Y-2840D01*
X-500D02*
X500D01*
X-500Y-3160D02*
X500D01*
X-550Y-6160D02*
X-360Y-6350D01*
X550D01*
X-550Y-6160D02*
Y-5840D01*
X-360Y-5650D01*
X550D01*
Y-6350D02*
Y-5650D01*
X-1340Y-6450D02*
X-1150Y-6260D01*
Y-5350D01*
X-1660Y-6450D02*
X-1340D01*
X-1850Y-6260D02*
X-1660Y-6450D01*
X-1850Y-6260D02*
Y-5350D01*
X-1150D01*
X-2340Y-6450D02*
X-2150Y-6260D01*
Y-5350D01*
X-2660Y-6450D02*
X-2340D01*
X-2850Y-6260D02*
X-2660Y-6450D01*
X-2850Y-6260D02*
Y-5350D01*
X-2150D01*
X360Y6350D02*
X550Y6160D01*
X-550Y6350D02*
X360D01*
X550Y5840D02*
Y6160D01*
X360Y5650D02*
X550Y5840D01*
X-550Y5650D02*
X360D01*
X-550D02*
Y6350D01*
X-1850Y6260D02*
X-1660Y6450D01*
X-1850Y5350D02*
Y6260D01*
X-1660Y6450D02*
X-1340D01*
X-1150Y6260D01*
Y5350D02*
Y6260D01*
X-1850Y5350D02*
X-1150D01*
X-2850Y6260D02*
X-2660Y6450D01*
X-2850Y5350D02*
Y6260D01*
X-2660Y6450D02*
X-2340D01*
X-2150Y6260D01*
Y5350D02*
Y6260D01*
X-2850Y5350D02*
X-2150D01*
X-43Y3920D02*
X723D01*
X-43Y3600D02*
Y3920D01*
Y3600D02*
X723D01*
Y3920D01*
X465Y3600D02*
Y3920D01*
D26*
X-1100Y140D02*
G03*
X-1100Y140I-30J0D01*
G01*
X430Y-3060D02*
G03*
X430Y-3060I-30J0D01*
G01*
D31*
X1338Y-855D02*
G03*
X1338Y-855I-12J0D01*
G01*
X-1270Y355D02*
G03*
X-1270Y355I-12J0D01*
G01*
X542Y-3272D02*
G03*
X542Y-3272I-12J0D01*
G01*
D77*
X495Y-145D02*
G03*
X495Y-145I-5J0D01*
G01*
X175Y-245D02*
G03*
X175Y-245I-5J0D01*
G01*
X855Y3605D02*
G03*
X855Y3605I-5J0D01*
G01*
X645Y-3710D02*
G03*
X645Y-3710I-5J0D01*
G01*
X-955D02*
G03*
X-955Y-3710I-5J0D01*
G01*
D78*
X-250Y1830D02*
D03*
D79*
X-645Y620D02*
X-245D01*
Y940D01*
X-645D02*
X-245D01*
X-645Y620D02*
Y940D01*
X1410Y-1870D02*
Y-1470D01*
X1730Y-1870D02*
Y-1470D01*
X1578Y-928D02*
Y-582D01*
X1382Y-928D02*
X1578D01*
X1382Y-582D02*
X1578D01*
X1382Y-928D02*
Y-582D01*
X277Y-757D02*
X623D01*
Y-953D02*
Y-757D01*
X277Y-953D02*
Y-757D01*
Y-953D02*
X623D01*
X310Y-1870D02*
Y-1470D01*
X630Y-1870D02*
Y-1470D01*
X1060Y-1870D02*
Y-1470D01*
X1380Y-1870D02*
Y-1470D01*
X660Y-1870D02*
Y-1470D01*
X980Y-1870D02*
Y-1470D01*
X1072Y4127D02*
Y4473D01*
X1268D01*
X1072Y4127D02*
X1268D01*
Y4473D01*
X868Y4127D02*
Y4473D01*
X672Y4127D02*
X868D01*
X672Y4473D02*
X868D01*
X672Y4127D02*
Y4473D01*
X-603Y-5323D02*
X-257D01*
X-603D02*
Y-5127D01*
X-257Y-5323D02*
Y-5127D01*
X-603D02*
X-257D01*
X-603Y-5128D02*
X-257D01*
X-603D02*
Y-4932D01*
X-257Y-5128D02*
Y-4932D01*
X-603D02*
X-257D01*
X-2508Y-5323D02*
Y-4977D01*
X-2312D01*
X-2508Y-5323D02*
X-2312D01*
Y-4977D01*
X-2173Y4852D02*
X-1827D01*
X-2173D02*
Y5048D01*
X-1827Y4852D02*
Y5048D01*
X-2173D02*
X-1827D01*
X-1473Y4852D02*
X-1127D01*
X-1473D02*
Y5048D01*
X-1127Y4852D02*
Y5048D01*
X-1473D02*
X-1127D01*
X-198Y5127D02*
Y5473D01*
X-2D01*
X-198Y5127D02*
X-2D01*
Y5473D01*
X-2173Y5052D02*
X-1827D01*
X-2173D02*
Y5248D01*
X-1827Y5052D02*
Y5248D01*
X-2173D02*
X-1827D01*
X-1473Y5052D02*
X-1127D01*
X-1473D02*
Y5248D01*
X-1127Y5052D02*
Y5248D01*
X-1473D02*
X-1127D01*
X2Y5127D02*
Y5473D01*
X198D01*
X2Y5127D02*
X198D01*
Y5473D01*
X-1923Y-4932D02*
X-1577D01*
Y-5128D02*
Y-4932D01*
X-1923Y-5128D02*
Y-4932D01*
Y-5128D02*
X-1577D01*
X-2512Y-5323D02*
Y-4977D01*
X-2708Y-5323D02*
X-2512D01*
X-2708Y-4977D02*
X-2512D01*
X-2708Y-5323D02*
Y-4977D01*
X-1923Y-5127D02*
X-1577D01*
Y-5323D02*
Y-5127D01*
X-1923Y-5323D02*
Y-5127D01*
Y-5323D02*
X-1577D01*
X-2703Y-4398D02*
X-2357D01*
X-2703D02*
Y-4202D01*
X-2357Y-4398D02*
Y-4202D01*
X-2703D02*
X-2357D01*
X1458Y-4698D02*
Y-4352D01*
X1262Y-4698D02*
X1458D01*
X1262Y-4352D02*
X1458D01*
X1262Y-4698D02*
Y-4352D01*
X-2733Y3592D02*
X-2387D01*
X-2733D02*
Y3788D01*
X-2387Y3592D02*
Y3788D01*
X-2733D02*
X-2387D01*
X-2323Y4052D02*
X-1977D01*
X-2323D02*
Y4248D01*
X-1977Y4052D02*
Y4248D01*
X-2323D02*
X-1977D01*
X-2323Y4352D02*
X-1977D01*
X-2323D02*
Y4548D01*
X-1977Y4352D02*
Y4548D01*
X-2323D02*
X-1977D01*
X2402Y4634D02*
Y4980D01*
X2598D01*
X2402Y4634D02*
X2598D01*
Y4980D01*
X232Y267D02*
Y613D01*
X428D01*
X232Y267D02*
X428D01*
Y613D01*
X228Y267D02*
Y613D01*
X32Y267D02*
X228D01*
X32Y613D02*
X228D01*
X32Y267D02*
Y613D01*
X582Y2822D02*
Y3168D01*
X778D01*
X582Y2822D02*
X778D01*
Y3168D01*
X457Y1292D02*
X803D01*
X457D02*
Y1488D01*
X803Y1292D02*
Y1488D01*
X457D02*
X803D01*
X457Y1888D02*
X803D01*
Y1692D02*
Y1888D01*
X457Y1692D02*
Y1888D01*
Y1692D02*
X803D01*
X457Y1492D02*
X803D01*
X457D02*
Y1688D01*
X803Y1492D02*
Y1688D01*
X457D02*
X803D01*
M02*
