G04*
G04 #@! TF.GenerationSoftware,Altium Limited,Altium Designer,21.8.1 (53)*
G04*
G04 Layer_Physical_Order=2*
G04 Layer_Color=16711680*
%FSLAX42Y42*%
%MOMM*%
G71*
G04*
G04 #@! TF.SameCoordinates,ECD59B7C-F3D5-4042-AA40-CB62378B2820*
G04*
G04*
G04 #@! TF.FilePolarity,Positive*
G04*
G01*
G75*
%ADD10C,0.20*%
%ADD22R,1.25X1.00*%
G04:AMPARAMS|DCode=23|XSize=1.6mm|YSize=1.4mm|CornerRadius=0.35mm|HoleSize=0mm|Usage=FLASHONLY|Rotation=180.000|XOffset=0mm|YOffset=0mm|HoleType=Round|Shape=RoundedRectangle|*
%AMROUNDEDRECTD23*
21,1,1.60,0.70,0,0,180.0*
21,1,0.90,1.40,0,0,180.0*
1,1,0.70,-0.45,0.35*
1,1,0.70,0.45,0.35*
1,1,0.70,0.45,-0.35*
1,1,0.70,-0.45,-0.35*
%
%ADD23ROUNDEDRECTD23*%
%ADD24R,1.60X1.40*%
%ADD25R,1.00X1.25*%
%ADD26C,0.60*%
%ADD27C,0.50*%
%ADD28C,1.00*%
%ADD29C,0.40*%
%ADD30C,0.30*%
%ADD31C,0.25*%
%ADD32C,1.50*%
G04:AMPARAMS|DCode=33|XSize=1.8mm|YSize=1.3mm|CornerRadius=0.65mm|HoleSize=0mm|Usage=FLASHONLY|Rotation=180.000|XOffset=0mm|YOffset=0mm|HoleType=Round|Shape=RoundedRectangle|*
%AMROUNDEDRECTD33*
21,1,1.80,0.00,0,0,180.0*
21,1,0.50,1.30,0,0,180.0*
1,1,1.30,-0.25,0.00*
1,1,1.30,0.25,0.00*
1,1,1.30,0.25,0.00*
1,1,1.30,-0.25,0.00*
%
%ADD33ROUNDEDRECTD33*%
%ADD34C,2.50*%
%ADD35C,2.00*%
%ADD36C,6.50*%
%ADD37C,0.60*%
%ADD38C,0.80*%
%ADD39O,0.45X1.40*%
%ADD40R,2.31X2.46*%
%ADD41O,0.45X1.00*%
%ADD42O,0.55X1.50*%
%ADD43O,1.50X0.55*%
%ADD44R,1.30X1.10*%
%ADD45R,3.40X1.50*%
G04:AMPARAMS|DCode=46|XSize=1mm|YSize=1.5mm|CornerRadius=0.25mm|HoleSize=0mm|Usage=FLASHONLY|Rotation=90.000|XOffset=0mm|YOffset=0mm|HoleType=Round|Shape=RoundedRectangle|*
%AMROUNDEDRECTD46*
21,1,1.00,1.00,0,0,90.0*
21,1,0.50,1.50,0,0,90.0*
1,1,0.50,0.50,0.25*
1,1,0.50,0.50,-0.25*
1,1,0.50,-0.50,-0.25*
1,1,0.50,-0.50,0.25*
%
%ADD46ROUNDEDRECTD46*%
G04:AMPARAMS|DCode=47|XSize=1mm|YSize=1.5mm|CornerRadius=0.25mm|HoleSize=0mm|Usage=FLASHONLY|Rotation=180.000|XOffset=0mm|YOffset=0mm|HoleType=Round|Shape=RoundedRectangle|*
%AMROUNDEDRECTD47*
21,1,1.00,1.00,0,0,180.0*
21,1,0.50,1.50,0,0,180.0*
1,1,0.50,-0.25,0.50*
1,1,0.50,0.25,0.50*
1,1,0.50,0.25,-0.50*
1,1,0.50,-0.25,-0.50*
%
%ADD47ROUNDEDRECTD47*%
%ADD48R,2.03X2.28*%
%ADD49R,0.30X0.95*%
%ADD50R,0.95X0.30*%
%ADD51R,3.35X3.35*%
%ADD52R,1.00X1.00*%
%ADD53R,1.00X0.60*%
%ADD54O,0.60X1.45*%
%ADD55C,2.00*%
%ADD56C,0.45*%
%ADD57C,0.35*%
%ADD58C,0.80*%
%ADD59C,0.56*%
G36*
X3176Y6497D02*
X3211Y6492D01*
X3246Y6484D01*
X3280Y6473D01*
X3314Y6460D01*
X3346Y6444D01*
X3377Y6426D01*
X3391Y6416D01*
X3391Y6416D01*
X4694Y5519D01*
X4718Y5503D01*
X4761Y5465D01*
X4799Y5422D01*
X4832Y5375D01*
X4859Y5324D01*
X4879Y5270D01*
X4893Y5214D01*
X4900Y5157D01*
Y5128D01*
Y-5128D01*
Y-5157D01*
X4893Y-5214D01*
X4879Y-5270D01*
X4859Y-5324D01*
X4832Y-5375D01*
X4799Y-5422D01*
X4761Y-5465D01*
X4718Y-5503D01*
X4694Y-5519D01*
X4694Y-5519D01*
Y-5519D01*
X3391Y-6416D01*
X3377Y-6426D01*
X3346Y-6444D01*
X3314Y-6460D01*
X3280Y-6473D01*
X3246Y-6484D01*
X3211Y-6492D01*
X3176Y-6497D01*
X3140Y-6500D01*
X-3140D01*
X-3176Y-6497D01*
X-3211Y-6492D01*
X-3246Y-6484D01*
X-3280Y-6473D01*
X-3314Y-6460D01*
X-3346Y-6444D01*
X-3377Y-6426D01*
X-3391Y-6416D01*
X-4694Y-5519D01*
X-4718Y-5503D01*
X-4761Y-5465D01*
X-4799Y-5422D01*
X-4832Y-5375D01*
X-4859Y-5324D01*
X-4879Y-5270D01*
X-4893Y-5214D01*
X-4900Y-5157D01*
Y-5128D01*
Y5128D01*
Y5157D01*
X-4893Y5214D01*
X-4879Y5270D01*
X-4859Y5324D01*
X-4832Y5375D01*
X-4799Y5422D01*
X-4761Y5465D01*
X-4718Y5503D01*
X-4694Y5519D01*
X-4694D01*
X-3391Y6416D01*
X-3377Y6426D01*
X-3346Y6444D01*
X-3314Y6460D01*
X-3280Y6473D01*
X-3246Y6484D01*
X-3211Y6492D01*
X-3176Y6497D01*
X-3140Y6500D01*
X3140D01*
X3176Y6497D01*
D02*
G37*
%LPC*%
G36*
X0Y6306D02*
X-38Y6301D01*
X-73Y6287D01*
X-103Y6263D01*
X-127Y6233D01*
X-141Y6198D01*
X-141Y6197D01*
X-160Y6192D01*
X-167Y6192D01*
X-186Y6216D01*
X-212Y6236D01*
X-242Y6249D01*
X-260Y6251D01*
Y6127D01*
X-275D01*
Y6112D01*
X-399D01*
X-397Y6094D01*
X-384Y6064D01*
X-364Y6038D01*
X-338Y6018D01*
X-321Y6011D01*
X-321Y5984D01*
X-336Y5978D01*
X-361Y5959D01*
X-380Y5934D01*
X-392Y5904D01*
X-396Y5873D01*
X-392Y5842D01*
X-380Y5812D01*
X-361Y5787D01*
X-336Y5768D01*
X-326Y5764D01*
Y5421D01*
X-1664Y4083D01*
X-1689Y4093D01*
Y4359D01*
X-1364Y4684D01*
X-1353Y4700D01*
X-1349Y4720D01*
Y4863D01*
X-1343Y4868D01*
X-1333Y4882D01*
X-1329Y4900D01*
Y5000D01*
X-1333Y5018D01*
X-1343Y5032D01*
X-1348Y5036D01*
Y5064D01*
X-1343Y5068D01*
X-1333Y5082D01*
X-1329Y5100D01*
Y5200D01*
X-1333Y5218D01*
X-1343Y5232D01*
X-1343Y5235D01*
X-1260Y5318D01*
X-1258Y5318D01*
X-1236Y5307D01*
Y5244D01*
X-1243Y5242D01*
X-1257Y5232D01*
X-1267Y5218D01*
X-1271Y5200D01*
Y5100D01*
X-1267Y5082D01*
X-1257Y5068D01*
X-1251Y5063D01*
Y5037D01*
X-1257Y5032D01*
X-1267Y5018D01*
X-1271Y5000D01*
Y4900D01*
X-1267Y4882D01*
X-1257Y4868D01*
X-1243Y4858D01*
X-1225Y4854D01*
X-1175D01*
X-1157Y4858D01*
X-1143Y4868D01*
X-1133Y4882D01*
X-1129Y4900D01*
Y5000D01*
X-1133Y5018D01*
X-1143Y5032D01*
X-1149Y5037D01*
Y5063D01*
X-1143Y5068D01*
X-1133Y5082D01*
X-1129Y5100D01*
Y5200D01*
X-1133Y5218D01*
X-1134Y5220D01*
Y5294D01*
X-1084Y5344D01*
X-1073Y5360D01*
X-1069Y5380D01*
X-1073Y5400D01*
X-1084Y5416D01*
X-1100Y5427D01*
X-1113Y5430D01*
X-1122Y5449D01*
X-1123Y5455D01*
X-1114Y5464D01*
X-1103Y5480D01*
X-1099Y5500D01*
Y5957D01*
X-1103Y5977D01*
X-1103Y5977D01*
X-1114Y5994D01*
X-1231Y6111D01*
X-1232Y6112D01*
X-1241Y6120D01*
X-1243Y6122D01*
X-1246Y6127D01*
X-1250Y6132D01*
X-1252Y6137D01*
X-1254Y6140D01*
X-1255Y6144D01*
X-1255Y6147D01*
X-1255Y6149D01*
X-1255Y6153D01*
X-1255Y6154D01*
X-1252Y6175D01*
X-1256Y6206D01*
X-1268Y6236D01*
X-1287Y6261D01*
X-1312Y6280D01*
X-1342Y6292D01*
X-1373Y6296D01*
X-1404Y6292D01*
X-1434Y6280D01*
X-1459Y6261D01*
X-1478Y6236D01*
X-1484Y6221D01*
X-1511Y6221D01*
X-1518Y6238D01*
X-1538Y6264D01*
X-1564Y6284D01*
X-1594Y6297D01*
X-1612Y6299D01*
Y6175D01*
X-1627D01*
Y6160D01*
X-1751D01*
X-1749Y6142D01*
X-1736Y6112D01*
X-1716Y6086D01*
X-1692Y6067D01*
X-1692Y6060D01*
X-1697Y6041D01*
X-1698Y6041D01*
X-1733Y6027D01*
X-1763Y6003D01*
X-1787Y5973D01*
X-1801Y5938D01*
X-1806Y5900D01*
X-1801Y5862D01*
X-1787Y5827D01*
X-1763Y5797D01*
X-1733Y5773D01*
X-1698Y5759D01*
X-1697Y5759D01*
X-1692Y5740D01*
X-1692Y5733D01*
X-1716Y5714D01*
X-1736Y5688D01*
X-1749Y5658D01*
X-1751Y5640D01*
X-1627D01*
Y5625D01*
X-1612D01*
Y5501D01*
X-1594Y5503D01*
X-1564Y5516D01*
X-1538Y5536D01*
X-1518Y5562D01*
X-1511Y5579D01*
X-1484Y5579D01*
X-1478Y5564D01*
X-1459Y5539D01*
X-1455Y5537D01*
X-1451Y5532D01*
X-1445Y5525D01*
X-1439Y5518D01*
X-1435Y5511D01*
X-1431Y5504D01*
X-1429Y5497D01*
X-1426Y5490D01*
X-1425Y5484D01*
X-1424Y5478D01*
Y5448D01*
X-1546Y5326D01*
X-1557Y5310D01*
X-1561Y5290D01*
Y5030D01*
X-1557Y5011D01*
X-1546Y4994D01*
X-1511Y4959D01*
X-1494Y4948D01*
X-1475Y4944D01*
X-1471D01*
Y4900D01*
X-1467Y4882D01*
X-1457Y4868D01*
X-1451Y4863D01*
Y4741D01*
X-1764Y4428D01*
X-1789Y4438D01*
Y4590D01*
X-1793Y4610D01*
X-1804Y4626D01*
X-2040Y4862D01*
Y4871D01*
X-2033Y4882D01*
X-2029Y4900D01*
Y5000D01*
X-2033Y5018D01*
X-2043Y5032D01*
X-2048Y5036D01*
Y5064D01*
X-2043Y5068D01*
X-2033Y5082D01*
X-2029Y5100D01*
Y5200D01*
X-2033Y5218D01*
X-2043Y5232D01*
X-2049Y5237D01*
Y5907D01*
X-2053Y5927D01*
X-2064Y5944D01*
X-2231Y6111D01*
X-2232Y6112D01*
X-2259Y6138D01*
X-2256Y6144D01*
X-2252Y6175D01*
X-2256Y6206D01*
X-2268Y6236D01*
X-2287Y6261D01*
X-2312Y6280D01*
X-2342Y6292D01*
X-2373Y6296D01*
X-2404Y6292D01*
X-2434Y6280D01*
X-2459Y6261D01*
X-2478Y6236D01*
X-2484Y6221D01*
X-2511Y6221D01*
X-2518Y6238D01*
X-2538Y6264D01*
X-2564Y6284D01*
X-2594Y6297D01*
X-2612Y6299D01*
Y6175D01*
X-2627D01*
Y6160D01*
X-2751D01*
X-2749Y6142D01*
X-2736Y6112D01*
X-2716Y6086D01*
X-2692Y6067D01*
X-2692Y6060D01*
X-2697Y6041D01*
X-2698Y6041D01*
X-2733Y6027D01*
X-2763Y6003D01*
X-2787Y5973D01*
X-2801Y5938D01*
X-2806Y5900D01*
X-2801Y5862D01*
X-2787Y5827D01*
X-2763Y5797D01*
X-2733Y5773D01*
X-2698Y5759D01*
X-2697Y5759D01*
X-2692Y5740D01*
X-2692Y5733D01*
X-2716Y5714D01*
X-2736Y5688D01*
X-2749Y5658D01*
X-2751Y5640D01*
X-2627D01*
Y5625D01*
X-2612D01*
Y5501D01*
X-2594Y5503D01*
X-2564Y5516D01*
X-2538Y5536D01*
X-2518Y5562D01*
X-2511Y5579D01*
X-2484Y5579D01*
X-2478Y5564D01*
X-2459Y5539D01*
X-2434Y5520D01*
X-2424Y5516D01*
Y5183D01*
X-2420Y5163D01*
X-2409Y5147D01*
X-2215Y4953D01*
X-2198Y4942D01*
X-2179Y4938D01*
X-2171D01*
Y4900D01*
X-2167Y4882D01*
X-2157Y4868D01*
X-2143Y4858D01*
X-2142Y4858D01*
Y4841D01*
X-2138Y4822D01*
X-2127Y4805D01*
X-1891Y4569D01*
Y4131D01*
X-1910Y4112D01*
X-1930Y4128D01*
X-1928Y4130D01*
X-1924Y4150D01*
X-1928Y4169D01*
X-1939Y4186D01*
X-1955Y4197D01*
X-1975Y4201D01*
X-1983Y4218D01*
X-1993Y4232D01*
X-2007Y4242D01*
X-2025Y4246D01*
X-2075D01*
X-2093Y4242D01*
X-2107Y4232D01*
X-2117Y4218D01*
X-2121Y4200D01*
Y4171D01*
X-2122Y4170D01*
X-2126Y4150D01*
X-2122Y4130D01*
X-2121Y4129D01*
Y4100D01*
X-2117Y4082D01*
X-2107Y4068D01*
X-2093Y4058D01*
X-2075Y4054D01*
X-2025D01*
X-2007Y4058D01*
X-1993Y4068D01*
X-1983Y4082D01*
X-1979Y4099D01*
X-1975D01*
X-1955Y4103D01*
X-1953Y4105D01*
X-1937Y4085D01*
X-2036Y3986D01*
X-2047Y3970D01*
X-2051Y3950D01*
X-2051Y-3D01*
X-2047Y-22D01*
X-2036Y-39D01*
X-1689Y-386D01*
X-1672Y-397D01*
X-1653Y-401D01*
X-1633Y-397D01*
X-1632Y-396D01*
X-1405D01*
X-1392Y-398D01*
X-1297D01*
X-1279Y-395D01*
X-1263Y-384D01*
X-1253Y-369D01*
X-1249Y-350D01*
X-1253Y-331D01*
X-1263Y-316D01*
Y-304D01*
X-1253Y-289D01*
X-1249Y-270D01*
X-1253Y-251D01*
X-1263Y-236D01*
Y-224D01*
X-1253Y-209D01*
X-1249Y-190D01*
X-1253Y-171D01*
X-1263Y-156D01*
Y-144D01*
X-1253Y-129D01*
X-1249Y-110D01*
X-1253Y-91D01*
X-1263Y-76D01*
Y-64D01*
X-1253Y-49D01*
X-1249Y-30D01*
X-1253Y-11D01*
X-1263Y4D01*
Y16D01*
X-1253Y31D01*
X-1249Y50D01*
X-1253Y69D01*
X-1263Y84D01*
Y96D01*
X-1253Y111D01*
X-1249Y130D01*
X-1253Y149D01*
X-1263Y164D01*
Y176D01*
X-1253Y191D01*
X-1249Y210D01*
X-1253Y229D01*
X-1263Y244D01*
X-1279Y255D01*
X-1297Y258D01*
X-1299D01*
Y334D01*
X-1298Y335D01*
X-1294Y355D01*
X-1296Y365D01*
X-1295Y369D01*
X-1283Y388D01*
X-1279Y391D01*
X-1274Y392D01*
X-1256D01*
X-1248Y385D01*
Y307D01*
X-1245Y289D01*
X-1234Y273D01*
X-1219Y263D01*
X-1200Y259D01*
X-1181Y263D01*
X-1166Y273D01*
X-1154D01*
X-1139Y263D01*
X-1120Y259D01*
X-1101Y263D01*
X-1086Y273D01*
X-1064Y260D01*
X-1061Y258D01*
X-1053Y256D01*
Y355D01*
Y454D01*
X-1061Y452D01*
X-1089Y463D01*
X-1172Y547D01*
X-1173Y550D01*
X-1184Y566D01*
X-1200Y577D01*
X-1220Y581D01*
X-1240Y577D01*
X-1256Y566D01*
X-1267Y550D01*
X-1271Y530D01*
X-1267Y510D01*
X-1283Y490D01*
X-1290Y491D01*
X-1310Y487D01*
X-1326Y476D01*
X-1337Y460D01*
X-1341Y440D01*
X-1339Y430D01*
X-1343Y416D01*
X-1356Y404D01*
X-1365Y402D01*
X-1381Y391D01*
X-1392Y375D01*
X-1396Y355D01*
X-1392Y335D01*
X-1391Y334D01*
Y258D01*
X-1392D01*
X-1411Y255D01*
X-1427Y244D01*
X-1455Y244D01*
X-1463Y249D01*
X-1464Y253D01*
Y741D01*
X-728Y1478D01*
X-718Y1492D01*
X-717Y1494D01*
X-308D01*
Y1445D01*
Y1345D01*
X-193D01*
Y1337D01*
X-185D01*
Y1223D01*
X185D01*
Y1337D01*
X193D01*
Y1345D01*
X308D01*
Y1445D01*
Y1539D01*
X330Y1552D01*
X459Y1422D01*
Y1340D01*
X463Y1322D01*
X473Y1308D01*
X487Y1298D01*
X505Y1294D01*
X555D01*
X573Y1298D01*
X587Y1308D01*
X597Y1322D01*
X601Y1340D01*
Y1440D01*
X597Y1458D01*
X587Y1472D01*
X582Y1476D01*
Y1504D01*
X587Y1508D01*
X597Y1522D01*
X601Y1540D01*
Y1640D01*
X597Y1658D01*
X587Y1672D01*
X580Y1677D01*
Y1703D01*
X587Y1708D01*
X597Y1722D01*
X601Y1740D01*
Y1840D01*
X597Y1858D01*
X587Y1872D01*
X573Y1882D01*
X555Y1886D01*
X505D01*
X487Y1882D01*
X473Y1872D01*
X463Y1858D01*
X459Y1840D01*
Y1740D01*
X463Y1722D01*
X473Y1708D01*
X480Y1703D01*
Y1677D01*
X473Y1672D01*
X463Y1658D01*
X462Y1653D01*
X427D01*
X375Y1705D01*
X364Y1713D01*
X350Y1716D01*
X240D01*
X237Y1715D01*
X193D01*
Y1723D01*
X185D01*
Y1767D01*
X186Y1770D01*
Y1813D01*
X360Y1987D01*
X450D01*
Y2152D01*
X426D01*
Y2177D01*
X450D01*
Y2214D01*
X809D01*
Y1892D01*
X807Y1891D01*
X784Y1881D01*
X775Y1887D01*
X755Y1891D01*
X743D01*
Y1790D01*
X730D01*
Y1777D01*
X654D01*
Y1740D01*
X658Y1720D01*
X669Y1704D01*
X671Y1702D01*
X673Y1672D01*
X672Y1672D01*
X663Y1658D01*
X661Y1650D01*
X659Y1640D01*
Y1540D01*
X663Y1522D01*
X673Y1508D01*
X680Y1503D01*
Y1477D01*
X673Y1472D01*
X663Y1458D01*
X659Y1440D01*
Y1340D01*
X663Y1322D01*
X673Y1308D01*
X687Y1298D01*
X705Y1294D01*
X755D01*
X773Y1298D01*
X784Y1305D01*
X798Y1301D01*
X809Y1295D01*
Y1071D01*
X320D01*
X302Y1068D01*
X285Y1061D01*
X270Y1050D01*
X80Y860D01*
X69Y845D01*
X62Y828D01*
X59Y810D01*
Y611D01*
X20D01*
X2Y608D01*
X-15Y601D01*
X-17Y600D01*
X-38Y616D01*
Y750D01*
X-203D01*
Y726D01*
X-245D01*
Y765D01*
X-245Y765D01*
X-244Y790D01*
X-240D01*
Y857D01*
X-330D01*
X-420D01*
Y790D01*
X-416D01*
X-415Y765D01*
X-415Y765D01*
Y659D01*
X-416Y655D01*
X-416Y655D01*
Y637D01*
X-446Y607D01*
X-470Y618D01*
Y677D01*
X-560D01*
Y703D01*
X-470D01*
Y770D01*
X-474D01*
X-475Y795D01*
X-475D01*
Y945D01*
X-499D01*
Y977D01*
X-470D01*
Y1142D01*
X-610D01*
Y977D01*
X-581D01*
Y945D01*
X-645D01*
Y853D01*
X-719Y779D01*
X-728Y766D01*
X-738Y750D01*
X-754Y750D01*
X-799D01*
Y780D01*
X-779Y805D01*
X-732D01*
Y867D01*
X-820D01*
Y880D01*
X-833D01*
Y955D01*
X-982D01*
Y880D01*
Y805D01*
X-921D01*
X-901Y780D01*
Y770D01*
X-913Y750D01*
X-1078D01*
Y610D01*
X-1006D01*
Y471D01*
X-1027Y457D01*
Y355D01*
Y256D01*
X-1019Y258D01*
X-1016Y260D01*
X-994Y273D01*
X-979Y263D01*
X-960Y259D01*
X-941Y263D01*
X-926Y273D01*
X-904Y260D01*
X-901Y258D01*
X-893Y256D01*
Y355D01*
X-867D01*
Y256D01*
X-859Y258D01*
X-856Y260D01*
X-834Y273D01*
X-819Y263D01*
X-800Y259D01*
X-781Y263D01*
X-766Y273D01*
X-754D01*
X-739Y263D01*
X-720Y259D01*
X-701Y263D01*
X-696Y266D01*
X-680Y260D01*
X-675Y233D01*
X-829Y79D01*
X-838Y66D01*
X-841Y50D01*
X-841Y50D01*
Y-387D01*
X-850Y-393D01*
X-866Y-402D01*
X-880Y-399D01*
X-899Y-403D01*
X-914Y-413D01*
X-936Y-400D01*
X-939Y-398D01*
X-947Y-396D01*
Y-495D01*
X-973D01*
Y-396D01*
X-981Y-398D01*
X-984Y-400D01*
X-1006Y-413D01*
X-1021Y-403D01*
X-1040Y-399D01*
X-1059Y-403D01*
X-1074Y-413D01*
X-1086D01*
X-1101Y-403D01*
X-1120Y-399D01*
X-1139Y-403D01*
X-1154Y-413D01*
X-1166D01*
X-1181Y-403D01*
X-1200Y-399D01*
X-1219Y-403D01*
X-1234Y-413D01*
X-1245Y-429D01*
X-1248Y-448D01*
Y-543D01*
X-1246Y-555D01*
Y-679D01*
X-1247Y-680D01*
X-1251Y-700D01*
Y-1504D01*
X-2316Y-2569D01*
X-2327Y-2586D01*
X-2331Y-2605D01*
X-2331Y-4520D01*
X-2327Y-4540D01*
X-2316Y-4556D01*
X-2291Y-4581D01*
Y-5013D01*
X-2316Y-5016D01*
X-2318Y-5007D01*
X-2328Y-4993D01*
X-2342Y-4983D01*
X-2359Y-4979D01*
Y-4625D01*
X-2363Y-4608D01*
X-2362Y-4607D01*
X-2360Y-4582D01*
X-2360D01*
Y-4417D01*
X-2384D01*
Y-4390D01*
X-2373Y-4382D01*
X-2363Y-4368D01*
X-2359Y-4350D01*
Y-4250D01*
X-2363Y-4232D01*
X-2373Y-4218D01*
X-2383Y-4200D01*
X-2379Y-4180D01*
X-2383Y-4160D01*
X-2384Y-4159D01*
Y-1589D01*
X-1498Y-702D01*
X-1488Y-688D01*
X-1484Y-670D01*
Y-516D01*
X-1483Y-515D01*
X-1479Y-495D01*
X-1483Y-475D01*
X-1494Y-459D01*
X-1510Y-448D01*
X-1530Y-444D01*
X-1550Y-448D01*
X-1566Y-459D01*
X-1577Y-475D01*
X-1581Y-495D01*
X-1577Y-515D01*
X-1576Y-516D01*
Y-651D01*
X-2462Y-1538D01*
X-2472Y-1552D01*
X-2476Y-1570D01*
Y-4159D01*
X-2477Y-4160D01*
X-2481Y-4180D01*
X-2477Y-4200D01*
X-2487Y-4218D01*
X-2497Y-4232D01*
X-2501Y-4250D01*
Y-4350D01*
X-2497Y-4368D01*
X-2487Y-4382D01*
X-2476Y-4390D01*
Y-4417D01*
X-2500D01*
Y-4538D01*
X-2523Y-4547D01*
X-2560Y-4510D01*
Y-4417D01*
X-2570D01*
X-2578Y-4392D01*
X-2569Y-4386D01*
X-2558Y-4370D01*
X-2554Y-4350D01*
Y-4313D01*
X-2706D01*
Y-4350D01*
X-2702Y-4370D01*
X-2691Y-4386D01*
X-2682Y-4392D01*
X-2690Y-4417D01*
X-2700D01*
Y-4583D01*
X-2632D01*
X-2554Y-4661D01*
X-2537Y-4672D01*
X-2518Y-4676D01*
X-2461D01*
Y-4979D01*
X-2478Y-4983D01*
X-2492Y-4993D01*
X-2497Y-4999D01*
X-2523D01*
X-2528Y-4993D01*
X-2542Y-4983D01*
X-2560Y-4979D01*
X-2660D01*
X-2678Y-4983D01*
X-2692Y-4993D01*
X-2702Y-5007D01*
X-2706Y-5025D01*
Y-5075D01*
X-2702Y-5093D01*
X-2692Y-5107D01*
X-2678Y-5117D01*
X-2660Y-5121D01*
X-2560D01*
X-2542Y-5117D01*
X-2528Y-5107D01*
X-2523Y-5101D01*
X-2497D01*
X-2492Y-5107D01*
X-2478Y-5117D01*
X-2460Y-5121D01*
X-2368D01*
X-2357Y-5143D01*
X-2357Y-5145D01*
X-2391Y-5179D01*
X-2460D01*
X-2478Y-5183D01*
X-2492Y-5193D01*
X-2496Y-5198D01*
X-2524D01*
X-2528Y-5193D01*
X-2542Y-5183D01*
X-2560Y-5179D01*
X-2660D01*
X-2678Y-5183D01*
X-2692Y-5193D01*
X-2702Y-5207D01*
X-2706Y-5225D01*
Y-5270D01*
X-2706Y-5270D01*
Y-5274D01*
X-2886Y-5454D01*
X-2897Y-5470D01*
X-2901Y-5490D01*
Y-5957D01*
X-2897Y-5977D01*
X-2897Y-5977D01*
X-2886Y-5994D01*
X-2769Y-6111D01*
X-2768Y-6112D01*
X-2759Y-6120D01*
X-2757Y-6122D01*
X-2754Y-6127D01*
X-2750Y-6132D01*
X-2748Y-6136D01*
X-2746Y-6140D01*
X-2745Y-6144D01*
X-2745Y-6147D01*
X-2745Y-6149D01*
X-2745Y-6153D01*
X-2745Y-6154D01*
X-2748Y-6175D01*
X-2744Y-6206D01*
X-2732Y-6236D01*
X-2713Y-6261D01*
X-2688Y-6280D01*
X-2658Y-6292D01*
X-2627Y-6296D01*
X-2596Y-6292D01*
X-2566Y-6280D01*
X-2541Y-6261D01*
X-2522Y-6236D01*
X-2516Y-6221D01*
X-2489Y-6221D01*
X-2482Y-6238D01*
X-2462Y-6264D01*
X-2436Y-6284D01*
X-2406Y-6297D01*
X-2388Y-6299D01*
Y-6175D01*
X-2373D01*
Y-6160D01*
X-2249D01*
X-2251Y-6142D01*
X-2264Y-6112D01*
X-2284Y-6086D01*
X-2308Y-6067D01*
X-2308Y-6060D01*
X-2303Y-6041D01*
X-2302Y-6041D01*
X-2267Y-6027D01*
X-2237Y-6003D01*
X-2213Y-5973D01*
X-2199Y-5938D01*
X-2194Y-5900D01*
X-2199Y-5862D01*
X-2213Y-5827D01*
X-2237Y-5797D01*
X-2267Y-5773D01*
X-2302Y-5759D01*
X-2303Y-5759D01*
X-2308Y-5740D01*
X-2308Y-5733D01*
X-2284Y-5714D01*
X-2264Y-5688D01*
X-2251Y-5658D01*
X-2249Y-5640D01*
X-2373D01*
Y-5625D01*
X-2388D01*
Y-5501D01*
X-2397Y-5502D01*
X-2408Y-5478D01*
X-2374Y-5444D01*
X-2363Y-5428D01*
X-2359Y-5408D01*
Y-5321D01*
X-2342Y-5317D01*
X-2328Y-5307D01*
X-2318Y-5293D01*
X-2314Y-5275D01*
Y-5246D01*
X-2204Y-5136D01*
X-2193Y-5120D01*
X-2189Y-5100D01*
Y-4560D01*
X-2193Y-4540D01*
X-2204Y-4524D01*
X-2226Y-4502D01*
X-2224Y-4480D01*
X-2201Y-4471D01*
X-2120Y-4552D01*
X-2120Y-4560D01*
X-2126Y-4582D01*
X-2136Y-4589D01*
X-2147Y-4605D01*
X-2151Y-4625D01*
X-2147Y-4645D01*
X-2136Y-4661D01*
X-1901Y-4896D01*
Y-4943D01*
X-1907Y-4948D01*
X-1917Y-4962D01*
X-1921Y-4980D01*
Y-5080D01*
X-1917Y-5098D01*
X-1907Y-5112D01*
X-1903Y-5115D01*
Y-5140D01*
X-1907Y-5143D01*
X-1917Y-5157D01*
X-1921Y-5175D01*
Y-5275D01*
X-1917Y-5293D01*
X-1907Y-5307D01*
X-1893Y-5317D01*
X-1875Y-5321D01*
X-1825D01*
X-1807Y-5317D01*
X-1793Y-5307D01*
X-1783Y-5293D01*
X-1779Y-5275D01*
Y-5175D01*
X-1783Y-5157D01*
X-1793Y-5143D01*
X-1797Y-5140D01*
Y-5115D01*
X-1793Y-5112D01*
X-1783Y-5098D01*
X-1779Y-5080D01*
Y-4980D01*
X-1783Y-4962D01*
X-1793Y-4948D01*
X-1799Y-4943D01*
Y-4908D01*
X-1774Y-4898D01*
X-1720Y-4952D01*
Y-4975D01*
X-1721Y-4980D01*
Y-5080D01*
X-1717Y-5098D01*
X-1707Y-5112D01*
X-1707Y-5112D01*
Y-5143D01*
X-1707Y-5143D01*
X-1717Y-5157D01*
X-1721Y-5175D01*
Y-5275D01*
X-1717Y-5293D01*
X-1707Y-5307D01*
X-1707Y-5310D01*
X-1886Y-5489D01*
X-1897Y-5505D01*
X-1901Y-5525D01*
Y-5957D01*
X-1897Y-5977D01*
X-1886Y-5994D01*
X-1769Y-6111D01*
X-1768Y-6112D01*
X-1759Y-6120D01*
X-1757Y-6122D01*
X-1754Y-6127D01*
X-1750Y-6132D01*
X-1748Y-6136D01*
X-1746Y-6140D01*
X-1745Y-6144D01*
X-1745Y-6147D01*
X-1745Y-6149D01*
X-1745Y-6153D01*
X-1745Y-6154D01*
X-1748Y-6175D01*
X-1744Y-6206D01*
X-1732Y-6236D01*
X-1713Y-6261D01*
X-1688Y-6280D01*
X-1658Y-6292D01*
X-1627Y-6296D01*
X-1596Y-6292D01*
X-1566Y-6280D01*
X-1541Y-6261D01*
X-1522Y-6236D01*
X-1516Y-6221D01*
X-1489Y-6221D01*
X-1482Y-6238D01*
X-1462Y-6264D01*
X-1436Y-6284D01*
X-1406Y-6297D01*
X-1388Y-6299D01*
Y-6175D01*
X-1373D01*
Y-6160D01*
X-1249D01*
X-1251Y-6142D01*
X-1264Y-6112D01*
X-1284Y-6086D01*
X-1308Y-6067D01*
X-1308Y-6060D01*
X-1303Y-6041D01*
X-1302Y-6041D01*
X-1267Y-6027D01*
X-1237Y-6003D01*
X-1213Y-5973D01*
X-1199Y-5938D01*
X-1194Y-5900D01*
X-1199Y-5862D01*
X-1213Y-5827D01*
X-1237Y-5797D01*
X-1267Y-5773D01*
X-1302Y-5759D01*
X-1303Y-5759D01*
X-1308Y-5740D01*
X-1308Y-5733D01*
X-1284Y-5714D01*
X-1264Y-5688D01*
X-1251Y-5658D01*
X-1249Y-5640D01*
X-1373D01*
Y-5625D01*
X-1388D01*
Y-5501D01*
X-1406Y-5503D01*
X-1436Y-5516D01*
X-1462Y-5536D01*
X-1482Y-5562D01*
X-1489Y-5579D01*
X-1515Y-5579D01*
X-1525Y-5558D01*
X-1489Y-5521D01*
X-1478Y-5505D01*
X-1474Y-5485D01*
X-1474Y-5155D01*
X-1478Y-5136D01*
X-1489Y-5119D01*
X-1579Y-5029D01*
Y-4980D01*
X-1583Y-4962D01*
X-1593Y-4948D01*
X-1607Y-4938D01*
X-1618Y-4936D01*
Y-4931D01*
X-1622Y-4912D01*
X-1633Y-4895D01*
X-2028Y-4499D01*
X-2020Y-4480D01*
X-2017Y-4476D01*
X-1716D01*
X-1276Y-4916D01*
X-1260Y-4927D01*
X-1240Y-4931D01*
X-604D01*
X-593Y-4956D01*
X-597Y-4962D01*
X-601Y-4980D01*
Y-5080D01*
X-597Y-5098D01*
X-587Y-5112D01*
X-583Y-5115D01*
Y-5140D01*
X-587Y-5143D01*
X-597Y-5157D01*
X-601Y-5174D01*
X-1149D01*
X-1609Y-4714D01*
X-1625Y-4703D01*
X-1645Y-4699D01*
X-1664Y-4703D01*
X-1681Y-4714D01*
X-1692Y-4730D01*
X-1696Y-4750D01*
X-1692Y-4770D01*
X-1681Y-4786D01*
X-1206Y-5261D01*
X-1189Y-5272D01*
X-1170Y-5276D01*
X-601D01*
X-597Y-5293D01*
X-587Y-5307D01*
X-581Y-5312D01*
Y-5420D01*
X-577Y-5440D01*
X-566Y-5456D01*
X-550Y-5467D01*
X-530Y-5471D01*
X-510Y-5467D01*
X-494Y-5456D01*
X-483Y-5440D01*
X-479Y-5420D01*
Y-5312D01*
X-473Y-5307D01*
X-463Y-5293D01*
X-459Y-5275D01*
Y-5175D01*
X-463Y-5157D01*
X-473Y-5143D01*
X-477Y-5140D01*
Y-5115D01*
X-473Y-5112D01*
X-463Y-5098D01*
X-459Y-5080D01*
Y-5008D01*
X-434Y-4998D01*
X-401Y-5031D01*
Y-5080D01*
X-397Y-5098D01*
X-387Y-5112D01*
X-387Y-5112D01*
Y-5143D01*
X-387Y-5143D01*
X-397Y-5157D01*
X-401Y-5175D01*
Y-5275D01*
X-397Y-5293D01*
X-387Y-5307D01*
X-373Y-5317D01*
X-355Y-5321D01*
X-331D01*
X-326Y-5326D01*
Y-5764D01*
X-336Y-5768D01*
X-361Y-5787D01*
X-380Y-5812D01*
X-392Y-5842D01*
X-396Y-5873D01*
X-392Y-5904D01*
X-380Y-5934D01*
X-361Y-5959D01*
X-336Y-5978D01*
X-321Y-5984D01*
X-321Y-6011D01*
X-338Y-6018D01*
X-364Y-6038D01*
X-384Y-6064D01*
X-397Y-6094D01*
X-399Y-6112D01*
X-275D01*
Y-6127D01*
X-260D01*
Y-6251D01*
X-242Y-6249D01*
X-212Y-6236D01*
X-186Y-6216D01*
X-167Y-6192D01*
X-160Y-6192D01*
X-141Y-6197D01*
X-141Y-6198D01*
X-127Y-6233D01*
X-103Y-6263D01*
X-73Y-6287D01*
X-38Y-6301D01*
X0Y-6306D01*
X38Y-6301D01*
X73Y-6287D01*
X103Y-6263D01*
X127Y-6233D01*
X141Y-6198D01*
X141Y-6197D01*
X160Y-6192D01*
X167Y-6192D01*
X186Y-6216D01*
X212Y-6236D01*
X242Y-6249D01*
X260Y-6251D01*
Y-6127D01*
X275D01*
Y-6112D01*
X399D01*
X397Y-6094D01*
X384Y-6064D01*
X364Y-6038D01*
X338Y-6018D01*
X321Y-6011D01*
X321Y-5984D01*
X336Y-5978D01*
X361Y-5959D01*
X380Y-5934D01*
X392Y-5904D01*
X396Y-5873D01*
X392Y-5842D01*
X380Y-5812D01*
X361Y-5787D01*
X336Y-5768D01*
X326Y-5764D01*
Y-5635D01*
X322Y-5615D01*
X311Y-5599D01*
X-259Y-5029D01*
Y-4980D01*
X-263Y-4962D01*
X-273Y-4948D01*
X-287Y-4938D01*
X-305Y-4934D01*
X-354D01*
X-444Y-4844D01*
X-460Y-4833D01*
X-480Y-4829D01*
X-1219D01*
X-1659Y-4389D01*
X-1675Y-4378D01*
X-1695Y-4374D01*
X-1966D01*
X-1968Y-4349D01*
X-1962Y-4348D01*
X-1945Y-4341D01*
X-1930Y-4330D01*
X-1671Y-4071D01*
X-1668Y-4071D01*
X-1646Y-4079D01*
Y-4300D01*
X-1642Y-4318D01*
X-1642Y-4318D01*
X-1632Y-4332D01*
X-1507Y-4457D01*
X-1493Y-4467D01*
X-1475Y-4471D01*
X1270D01*
X1278Y-4482D01*
X1292Y-4492D01*
X1310Y-4496D01*
X1410D01*
X1428Y-4492D01*
X1442Y-4482D01*
X1450Y-4471D01*
X1477D01*
Y-4495D01*
X1642D01*
Y-4471D01*
X1700D01*
X1718Y-4467D01*
X1733Y-4457D01*
X1967Y-4223D01*
X1970Y-4222D01*
X1986Y-4211D01*
X1997Y-4195D01*
X2001Y-4175D01*
X1997Y-4156D01*
X1986Y-4139D01*
X1970Y-4128D01*
X1950Y-4124D01*
X1930Y-4128D01*
X1914Y-4139D01*
X1903Y-4156D01*
X1902Y-4158D01*
X1681Y-4379D01*
X1642D01*
Y-4355D01*
X1477D01*
Y-4379D01*
X1450D01*
X1442Y-4368D01*
X1428Y-4358D01*
X1410Y-4354D01*
X1310D01*
X1292Y-4358D01*
X1278Y-4368D01*
X1270Y-4379D01*
X-1456D01*
X-1539Y-4296D01*
X-1537Y-4290D01*
X-1520Y-4272D01*
X-1500Y-4276D01*
X-1480Y-4272D01*
X-1464Y-4261D01*
X-1453Y-4245D01*
X-1451Y-4234D01*
X-1447Y-4230D01*
X-1358Y-4141D01*
X-1019D01*
X-1012Y-4150D01*
X-1007Y-4165D01*
X-1027Y-4184D01*
X-1071D01*
X-1080Y-4178D01*
X-1100Y-4174D01*
X-1120Y-4178D01*
X-1136Y-4189D01*
X-1147Y-4205D01*
X-1151Y-4225D01*
X-1147Y-4245D01*
X-1136Y-4261D01*
X-1120Y-4272D01*
X-1100Y-4276D01*
X-1080Y-4272D01*
X-1071Y-4266D01*
X-1067Y-4266D01*
X-1010D01*
X-1010Y-4266D01*
X-994Y-4263D01*
X-981Y-4254D01*
X-826Y-4098D01*
X-801Y-4109D01*
Y-4165D01*
X-801Y-4165D01*
X-798Y-4181D01*
X-789Y-4194D01*
X-749Y-4233D01*
X-747Y-4245D01*
X-736Y-4261D01*
X-720Y-4272D01*
X-700Y-4276D01*
X-680Y-4272D01*
X-664Y-4261D01*
X-653Y-4245D01*
X-649Y-4225D01*
X-653Y-4205D01*
X-664Y-4189D01*
X-680Y-4178D01*
X-691Y-4176D01*
X-695Y-4172D01*
X-719Y-4148D01*
Y-4119D01*
X-694Y-4108D01*
X-549Y-4254D01*
X-549Y-4254D01*
X-536Y-4263D01*
X-520Y-4266D01*
X-329D01*
X-320Y-4272D01*
X-300Y-4276D01*
X-280Y-4272D01*
X-264Y-4261D01*
X-253Y-4245D01*
X-249Y-4225D01*
X-253Y-4205D01*
X-264Y-4189D01*
X-280Y-4178D01*
X-300Y-4174D01*
X-320Y-4178D01*
X-329Y-4184D01*
X-333Y-4184D01*
X-503D01*
X-639Y-4048D01*
Y-3978D01*
X-639Y-3975D01*
X-639Y-3974D01*
X-637Y-3962D01*
Y-3907D01*
X-640Y-3891D01*
X-649Y-3877D01*
X-663Y-3867D01*
X-680Y-3864D01*
X-697Y-3867D01*
X-703Y-3872D01*
X-720Y-3875D01*
X-737Y-3872D01*
X-743Y-3867D01*
X-760Y-3864D01*
X-777Y-3867D01*
X-783Y-3872D01*
X-800Y-3875D01*
X-817Y-3872D01*
X-823Y-3867D01*
X-840Y-3864D01*
X-857Y-3867D01*
X-863Y-3872D01*
X-880Y-3875D01*
X-897Y-3872D01*
X-903Y-3867D01*
X-920Y-3864D01*
X-937Y-3867D01*
X-951Y-3877D01*
X-960Y-3891D01*
X-963Y-3907D01*
Y-3962D01*
X-961Y-3975D01*
Y-3988D01*
X-1032Y-4059D01*
X-1375D01*
X-1375Y-4059D01*
X-1391Y-4062D01*
X-1391Y-4062D01*
X-1404Y-4071D01*
X-1404Y-4071D01*
X-1508Y-4176D01*
X-1520Y-4178D01*
X-1529Y-4184D01*
X-1552Y-4175D01*
X-1554Y-4173D01*
Y-3559D01*
X-438Y-2442D01*
X-428Y-2428D01*
X-424Y-2410D01*
Y-666D01*
X-428Y-648D01*
X-438Y-633D01*
X-562Y-509D01*
X-577Y-499D01*
X-592Y-496D01*
Y-448D01*
X-595Y-429D01*
X-606Y-413D01*
X-621Y-403D01*
X-640Y-399D01*
X-659Y-403D01*
X-674Y-413D01*
X-686D01*
X-701Y-403D01*
X-720Y-399D01*
X-734Y-402D01*
X-750Y-393D01*
X-759Y-387D01*
Y33D01*
X-617Y175D01*
X-590Y170D01*
X-584Y154D01*
X-587Y149D01*
X-591Y130D01*
X-587Y111D01*
X-577Y96D01*
Y84D01*
X-587Y69D01*
X-591Y50D01*
X-587Y31D01*
X-577Y16D01*
Y4D01*
X-587Y-11D01*
X-591Y-30D01*
X-587Y-49D01*
X-577Y-64D01*
Y-76D01*
X-587Y-91D01*
X-591Y-110D01*
X-587Y-129D01*
X-577Y-144D01*
Y-156D01*
X-587Y-171D01*
X-591Y-190D01*
X-587Y-209D01*
X-577Y-224D01*
Y-236D01*
X-587Y-251D01*
X-591Y-270D01*
X-587Y-289D01*
X-577Y-304D01*
Y-316D01*
X-587Y-331D01*
X-591Y-350D01*
X-587Y-369D01*
X-577Y-384D01*
X-561Y-395D01*
X-542Y-398D01*
X-447D01*
X-435Y-396D01*
X-399D01*
X-316Y-479D01*
Y-669D01*
X-317Y-670D01*
X-321Y-690D01*
X-317Y-710D01*
X-306Y-726D01*
X-290Y-737D01*
X-270Y-741D01*
X-261Y-739D01*
X-236Y-755D01*
Y-2663D01*
X-238Y-2665D01*
X-241Y-2685D01*
Y-2770D01*
X-238Y-2790D01*
X-227Y-2806D01*
X-210Y-2817D01*
X-190Y-2821D01*
X-171Y-2817D01*
X-154Y-2806D01*
X-143Y-2790D01*
X-140Y-2770D01*
Y-2685D01*
X-143Y-2665D01*
X-144Y-2664D01*
Y-2644D01*
X-119Y-2631D01*
X-109Y-2639D01*
Y-2664D01*
X-111Y-2665D01*
X-114Y-2685D01*
Y-2770D01*
X-111Y-2790D01*
X-100Y-2806D01*
X-83Y-2817D01*
X-63Y-2821D01*
X-44Y-2817D01*
X-27Y-2806D01*
X-16Y-2790D01*
X-15Y-2785D01*
X10D01*
X11Y-2792D01*
X24Y-2810D01*
X42Y-2822D01*
X51Y-2824D01*
Y-2728D01*
Y-2631D01*
X42Y-2633D01*
X24Y-2645D01*
X11Y-2663D01*
X10Y-2670D01*
X-15D01*
X-16Y-2665D01*
X-18Y-2664D01*
Y-2607D01*
X-21Y-2589D01*
X-31Y-2574D01*
X-64Y-2541D01*
Y-2316D01*
X-39Y-2306D01*
X145Y-2490D01*
Y-2664D01*
X143Y-2665D01*
X142Y-2670D01*
X117D01*
X116Y-2663D01*
X103Y-2645D01*
X85Y-2633D01*
X76Y-2631D01*
Y-2728D01*
Y-2824D01*
X85Y-2822D01*
X103Y-2810D01*
X116Y-2792D01*
X117Y-2785D01*
X142D01*
X143Y-2790D01*
X154Y-2806D01*
X171Y-2817D01*
X191Y-2821D01*
X210Y-2817D01*
X227Y-2806D01*
X238Y-2790D01*
X241Y-2770D01*
Y-2685D01*
X238Y-2665D01*
X236Y-2664D01*
Y-2471D01*
X233Y-2453D01*
X223Y-2438D01*
X16Y-2231D01*
Y-180D01*
X12Y-162D01*
X2Y-148D01*
X-209Y64D01*
X-199Y89D01*
X167D01*
Y52D01*
X170Y36D01*
X179Y22D01*
X193Y12D01*
X210Y9D01*
X227Y12D01*
X233Y17D01*
X250Y20D01*
X267Y17D01*
X273Y12D01*
X290Y9D01*
X307Y12D01*
X321Y22D01*
X339D01*
X353Y12D01*
X370Y9D01*
X387Y12D01*
X393Y17D01*
X410Y20D01*
X427Y17D01*
X433Y12D01*
X450Y9D01*
X467Y12D01*
X481Y22D01*
X490Y36D01*
X493Y52D01*
Y108D01*
X491Y120D01*
Y167D01*
X497Y176D01*
X501Y196D01*
X497Y216D01*
X486Y232D01*
X470Y243D01*
X450Y247D01*
X443Y246D01*
X417Y250D01*
X414Y254D01*
X412Y283D01*
X422Y297D01*
X426Y315D01*
Y365D01*
X422Y383D01*
X412Y397D01*
X398Y407D01*
X380Y411D01*
X280D01*
X262Y407D01*
X248Y397D01*
X244Y392D01*
X216D01*
X212Y397D01*
X198Y407D01*
X180Y411D01*
X80D01*
X62Y407D01*
X48Y397D01*
X38Y383D01*
X37Y381D01*
X0D01*
X0Y381D01*
X-5Y380D01*
X-17Y403D01*
X49Y469D01*
X79D01*
X80Y469D01*
X180D01*
X198Y473D01*
X212Y482D01*
X212Y483D01*
X242Y481D01*
X244Y479D01*
X260Y468D01*
X280Y464D01*
X317D01*
Y540D01*
Y616D01*
X280D01*
X260Y612D01*
X244Y601D01*
X219Y601D01*
X202Y616D01*
X201Y618D01*
Y781D01*
X349Y929D01*
X809D01*
Y814D01*
X729Y734D01*
X645D01*
Y466D01*
X645D01*
Y394D01*
X645D01*
Y126D01*
X800D01*
X869Y57D01*
Y-20D01*
X870Y-25D01*
Y-31D01*
X847Y-41D01*
X835Y-29D01*
X821Y-20D01*
X810Y-18D01*
Y62D01*
X670D01*
Y-102D01*
X658Y-123D01*
X653Y-130D01*
X649Y-150D01*
X653Y-170D01*
X664Y-186D01*
X680Y-197D01*
X691Y-199D01*
X689Y-223D01*
X686Y-224D01*
X662D01*
X591Y-154D01*
X578Y-145D01*
X562Y-142D01*
X562Y-142D01*
X511D01*
X493Y-117D01*
Y-62D01*
X490Y-46D01*
X481Y-32D01*
X467Y-22D01*
X450Y-19D01*
X433Y-22D01*
X427Y-27D01*
X410Y-30D01*
X393Y-27D01*
X387Y-22D01*
X370Y-19D01*
X353Y-22D01*
X339Y-32D01*
X321D01*
X307Y-22D01*
X290Y-19D01*
X273Y-22D01*
X267Y-27D01*
X250Y-30D01*
X233Y-27D01*
X227Y-22D01*
X210Y-19D01*
X193Y-22D01*
X179Y-32D01*
X170Y-46D01*
X167Y-62D01*
Y-117D01*
X169Y-130D01*
Y-260D01*
X167Y-272D01*
Y-328D01*
X170Y-344D01*
X179Y-358D01*
X193Y-368D01*
X197Y-368D01*
X201Y-375D01*
X193Y-402D01*
X179Y-412D01*
X170Y-426D01*
X167Y-443D01*
Y-497D01*
X169Y-510D01*
Y-561D01*
X163Y-570D01*
X159Y-590D01*
X163Y-610D01*
X166Y-615D01*
X164Y-623D01*
X154Y-640D01*
X140Y-643D01*
X124Y-654D01*
X113Y-670D01*
X109Y-690D01*
X113Y-710D01*
X124Y-726D01*
X140Y-737D01*
X143Y-738D01*
X243Y-837D01*
X257Y-847D01*
X275Y-851D01*
X279D01*
Y-905D01*
X283Y-923D01*
X293Y-937D01*
X307Y-947D01*
X325Y-951D01*
X375D01*
X393Y-947D01*
X407Y-937D01*
X417Y-923D01*
X421Y-905D01*
Y-805D01*
X417Y-787D01*
X407Y-773D01*
X393Y-763D01*
X375Y-759D01*
X325D01*
X325Y-759D01*
X294D01*
X208Y-673D01*
X207Y-670D01*
X204Y-665D01*
X206Y-657D01*
X216Y-640D01*
X230Y-637D01*
X246Y-626D01*
X254D01*
X270Y-637D01*
X290Y-641D01*
X310Y-637D01*
X326Y-626D01*
X334D01*
X350Y-637D01*
X370Y-641D01*
X390Y-637D01*
X406Y-626D01*
X414D01*
X430Y-637D01*
X450Y-641D01*
X470Y-637D01*
X486Y-626D01*
X497Y-610D01*
X501Y-590D01*
X497Y-570D01*
X491Y-561D01*
Y-510D01*
X493Y-497D01*
Y-443D01*
X514Y-421D01*
X567D01*
X573Y-427D01*
X573Y-427D01*
X583Y-433D01*
X595Y-436D01*
X880D01*
Y-535D01*
X1020D01*
X1160D01*
Y-460D01*
X1164Y-436D01*
X1176Y-433D01*
X1186Y-427D01*
X1259Y-354D01*
X1264Y-353D01*
X1278Y-343D01*
X1288Y-329D01*
X1291Y-312D01*
Y-217D01*
X1288Y-201D01*
X1278Y-187D01*
X1264Y-177D01*
X1248Y-174D01*
X1231Y-177D01*
X1230Y-178D01*
X1216Y-171D01*
X1212Y-142D01*
X1251Y-103D01*
X1273D01*
X1277Y-102D01*
X1370D01*
Y62D01*
X1230D01*
Y-17D01*
X1216Y-20D01*
X1202Y-29D01*
X1198Y-33D01*
X1175Y-23D01*
Y68D01*
X1113D01*
Y-20D01*
X1087D01*
Y68D01*
X1025D01*
X1010Y87D01*
X1008Y104D01*
X1001Y121D01*
X990Y136D01*
X887Y238D01*
Y394D01*
X887D01*
Y466D01*
X888D01*
Y550D01*
X1016Y678D01*
X1035Y703D01*
X1047Y733D01*
X1051Y764D01*
Y1000D01*
Y1595D01*
Y2260D01*
Y3090D01*
Y3210D01*
X1047Y3241D01*
X1035Y3271D01*
X1016Y3296D01*
X717Y3595D01*
Y3758D01*
X716Y3766D01*
Y3804D01*
X850D01*
X855Y3805D01*
X905D01*
X909Y3799D01*
X923Y3785D01*
X912Y3760D01*
X906Y3760D01*
X863D01*
Y3698D01*
X925D01*
Y3741D01*
X925Y3747D01*
X936Y3752D01*
X950Y3758D01*
X1019Y3689D01*
Y3683D01*
X1020Y3679D01*
Y3615D01*
X1089D01*
Y3600D01*
X1092Y3586D01*
X1100Y3575D01*
X1134Y3540D01*
Y2016D01*
X1134Y2016D01*
X1123Y2000D01*
X1119Y1980D01*
X1123Y1960D01*
X1134Y1944D01*
X1150Y1933D01*
X1170Y1929D01*
X1190Y1933D01*
X1206Y1944D01*
X1217Y1960D01*
X1221Y1980D01*
X1217Y2000D01*
X1206Y2016D01*
X1206Y2016D01*
Y2075D01*
X1231Y2091D01*
X1240Y2089D01*
X1260Y2093D01*
X1276Y2104D01*
X1287Y2120D01*
X1291Y2140D01*
X1287Y2160D01*
X1276Y2176D01*
X1276Y2176D01*
Y3680D01*
X1273Y3694D01*
X1265Y3705D01*
X1161Y3810D01*
Y3840D01*
X1160Y3843D01*
Y3905D01*
X1067D01*
X1037Y3935D01*
X1037Y3960D01*
X1050Y3963D01*
X1066Y3974D01*
X1077Y3990D01*
X1081Y4010D01*
X1077Y4030D01*
X1066Y4046D01*
X1050Y4057D01*
X1030Y4061D01*
X1010Y4057D01*
X994Y4046D01*
X986Y4034D01*
X974Y4032D01*
X971D01*
X958Y4034D01*
X950Y4046D01*
X934Y4057D01*
X914Y4061D01*
X895Y4057D01*
X878Y4046D01*
X867Y4030D01*
X863Y4010D01*
X840Y4000D01*
X825Y3997D01*
X809Y3986D01*
X798Y3970D01*
X794Y3950D01*
Y3906D01*
X677D01*
X657Y3902D01*
X645Y3894D01*
X572D01*
X341Y4126D01*
Y4861D01*
X2410D01*
X2418Y4850D01*
X2432Y4840D01*
X2450Y4836D01*
X2550D01*
X2568Y4840D01*
X2582Y4850D01*
X2592Y4864D01*
X2596Y4882D01*
Y4932D01*
X2592Y4950D01*
X2582Y4964D01*
X2568Y4974D01*
X2550Y4978D01*
X2450D01*
X2432Y4974D01*
X2418Y4964D01*
X2410Y4953D01*
X341D01*
Y5030D01*
X338Y5048D01*
X331Y5065D01*
X320Y5080D01*
X196Y5204D01*
Y5225D01*
X192Y5243D01*
X182Y5257D01*
X168Y5267D01*
X150Y5271D01*
X50D01*
X32Y5267D01*
X18Y5257D01*
X13Y5251D01*
X-13D01*
X-18Y5257D01*
X-32Y5267D01*
X-50Y5271D01*
X-150D01*
X-168Y5267D01*
X-182Y5257D01*
X-187Y5251D01*
X-250D01*
X-270Y5247D01*
X-286Y5236D01*
X-297Y5220D01*
X-301Y5200D01*
X-297Y5180D01*
X-286Y5164D01*
X-270Y5153D01*
X-250Y5149D01*
X-187D01*
X-182Y5143D01*
X-168Y5133D01*
X-150Y5129D01*
X-50D01*
X-32Y5133D01*
X-18Y5143D01*
X-13Y5149D01*
X13D01*
X18Y5143D01*
X32Y5133D01*
X50Y5129D01*
X71D01*
X199Y5001D01*
Y4910D01*
Y4097D01*
X202Y4078D01*
X209Y4061D01*
X220Y4047D01*
X473Y3794D01*
Y3626D01*
X474D01*
Y3544D01*
X479Y3513D01*
X491Y3484D01*
X505Y3465D01*
X498Y3446D01*
X493Y3440D01*
X433D01*
Y3357D01*
X525D01*
Y3408D01*
X550Y3418D01*
X803Y3166D01*
X794Y3141D01*
X770D01*
X762Y3153D01*
X748Y3163D01*
X730Y3166D01*
X630D01*
X612Y3163D01*
X598Y3153D01*
X588Y3138D01*
X584Y3120D01*
Y3070D01*
X588Y3053D01*
X598Y3038D01*
X612Y3028D01*
X630Y3024D01*
X730D01*
X748Y3028D01*
X762Y3038D01*
X770Y3049D01*
X809D01*
Y2306D01*
X450D01*
Y2342D01*
X310D01*
Y2177D01*
X334D01*
Y2152D01*
X310D01*
Y2038D01*
X278Y2006D01*
X255Y2016D01*
Y2057D01*
X180D01*
X105D01*
Y2057D01*
X103Y2056D01*
X82Y2050D01*
X60Y2064D01*
Y2152D01*
X36D01*
Y2177D01*
X60D01*
Y2342D01*
X-80D01*
Y2177D01*
X-56D01*
Y2152D01*
X-80D01*
Y1997D01*
X-93Y1988D01*
X-104Y1971D01*
X-108Y1952D01*
X-104Y1932D01*
X-93Y1916D01*
X-87Y1912D01*
Y1909D01*
X-84Y1896D01*
X-76Y1884D01*
X-60Y1868D01*
X-71Y1843D01*
X-90D01*
Y1838D01*
X-185D01*
Y1723D01*
X-193D01*
Y1715D01*
X-237D01*
X-240Y1716D01*
X-447D01*
Y1750D01*
X-612D01*
Y1616D01*
X-774D01*
X-784Y1641D01*
X-630Y1795D01*
X-612Y1810D01*
Y1810D01*
X-612Y1810D01*
X-447D01*
Y1898D01*
X-388Y1958D01*
X-378Y1972D01*
X-374Y1990D01*
Y2805D01*
X-320D01*
Y2849D01*
X320D01*
Y2805D01*
X520D01*
Y2849D01*
X590D01*
X598Y2838D01*
X612Y2828D01*
X630Y2824D01*
X730D01*
X748Y2828D01*
X762Y2838D01*
X772Y2853D01*
X776Y2870D01*
Y2920D01*
X772Y2938D01*
X762Y2953D01*
X748Y2963D01*
X730Y2966D01*
X630D01*
X612Y2963D01*
X598Y2953D01*
X590Y2941D01*
X520D01*
Y2985D01*
X320D01*
Y2941D01*
X-320D01*
Y2985D01*
X-520D01*
Y2805D01*
X-466D01*
Y2009D01*
X-525Y1950D01*
X-612D01*
Y1907D01*
X-629D01*
X-647Y1903D01*
X-662Y1893D01*
X-1702Y852D01*
X-1712Y838D01*
X-1716Y820D01*
Y140D01*
X-1712Y122D01*
X-1702Y108D01*
X-1564Y-31D01*
X-1574Y-57D01*
X-1589Y-59D01*
X-1749Y101D01*
X-1749Y3854D01*
X-254Y5349D01*
X-187D01*
X-182Y5343D01*
X-168Y5333D01*
X-150Y5329D01*
X-50D01*
X-32Y5333D01*
X-18Y5343D01*
X-14Y5348D01*
X14D01*
X18Y5343D01*
X32Y5333D01*
X50Y5329D01*
X150D01*
X168Y5333D01*
X182Y5343D01*
X192Y5357D01*
X196Y5375D01*
Y5424D01*
X311Y5539D01*
X322Y5555D01*
X326Y5575D01*
Y5764D01*
X336Y5768D01*
X361Y5787D01*
X380Y5812D01*
X392Y5842D01*
X396Y5873D01*
X392Y5904D01*
X380Y5934D01*
X361Y5959D01*
X336Y5978D01*
X321Y5984D01*
X321Y6011D01*
X338Y6018D01*
X364Y6038D01*
X384Y6064D01*
X397Y6094D01*
X399Y6112D01*
X275D01*
Y6127D01*
X260D01*
Y6251D01*
X242Y6249D01*
X212Y6236D01*
X186Y6216D01*
X167Y6192D01*
X160Y6192D01*
X141Y6197D01*
X141Y6198D01*
X127Y6233D01*
X103Y6263D01*
X73Y6287D01*
X38Y6301D01*
X0Y6306D01*
D02*
G37*
G36*
X-1642Y6299D02*
X-1660Y6297D01*
X-1690Y6284D01*
X-1716Y6264D01*
X-1736Y6238D01*
X-1749Y6208D01*
X-1751Y6190D01*
X-1642D01*
Y6299D01*
D02*
G37*
G36*
X-2642D02*
X-2660Y6297D01*
X-2690Y6284D01*
X-2716Y6264D01*
X-2736Y6238D01*
X-2749Y6208D01*
X-2751Y6190D01*
X-2642D01*
Y6299D01*
D02*
G37*
G36*
X-465Y6316D02*
X-483Y6313D01*
X-500Y6306D01*
X-515Y6295D01*
X-526Y6280D01*
X-533Y6263D01*
X-536Y6245D01*
X-533Y6227D01*
X-526Y6210D01*
X-515Y6195D01*
X-500Y6184D01*
X-483Y6177D01*
X-465Y6174D01*
X-447Y6177D01*
X-430Y6184D01*
X-415Y6195D01*
X-404Y6210D01*
X-397Y6227D01*
X-394Y6245D01*
X-397Y6263D01*
X-404Y6280D01*
X-415Y6295D01*
X-430Y6306D01*
X-447Y6313D01*
X-465Y6316D01*
D02*
G37*
G36*
X290Y6251D02*
Y6142D01*
X399D01*
X397Y6160D01*
X384Y6190D01*
X364Y6216D01*
X338Y6236D01*
X308Y6249D01*
X290Y6251D01*
D02*
G37*
G36*
X-290D02*
X-308Y6249D01*
X-338Y6236D01*
X-364Y6216D01*
X-384Y6190D01*
X-397Y6160D01*
X-399Y6142D01*
X-290D01*
Y6251D01*
D02*
G37*
G36*
X-1642Y5610D02*
X-1751D01*
X-1749Y5592D01*
X-1736Y5562D01*
X-1716Y5536D01*
X-1690Y5516D01*
X-1660Y5503D01*
X-1642Y5501D01*
Y5610D01*
D02*
G37*
G36*
X-2642D02*
X-2751D01*
X-2749Y5592D01*
X-2736Y5562D01*
X-2716Y5536D01*
X-2690Y5516D01*
X-2660Y5503D01*
X-2642Y5501D01*
Y5610D01*
D02*
G37*
G36*
X-1745Y5506D02*
X-1763Y5503D01*
X-1780Y5496D01*
X-1795Y5485D01*
X-1806Y5470D01*
X-1813Y5453D01*
X-1816Y5435D01*
X-1813Y5417D01*
X-1806Y5400D01*
X-1795Y5385D01*
X-1780Y5374D01*
X-1763Y5367D01*
X-1745Y5364D01*
X-1727Y5367D01*
X-1710Y5374D01*
X-1695Y5385D01*
X-1684Y5400D01*
X-1677Y5417D01*
X-1674Y5435D01*
X-1677Y5453D01*
X-1684Y5470D01*
X-1695Y5485D01*
X-1710Y5496D01*
X-1727Y5503D01*
X-1745Y5506D01*
D02*
G37*
G36*
X-2745D02*
X-2763Y5503D01*
X-2780Y5496D01*
X-2795Y5485D01*
X-2806Y5470D01*
X-2813Y5453D01*
X-2816Y5435D01*
X-2813Y5417D01*
X-2806Y5400D01*
X-2795Y5385D01*
X-2780Y5374D01*
X-2763Y5367D01*
X-2745Y5364D01*
X-2727Y5367D01*
X-2710Y5374D01*
X-2695Y5385D01*
X-2684Y5400D01*
X-2677Y5417D01*
X-2674Y5435D01*
X-2677Y5453D01*
X-2684Y5470D01*
X-2695Y5485D01*
X-2710Y5496D01*
X-2727Y5503D01*
X-2745Y5506D01*
D02*
G37*
G36*
X-1875Y5246D02*
X-1925D01*
X-1943Y5242D01*
X-1957Y5232D01*
X-1967Y5218D01*
X-1971Y5200D01*
Y5100D01*
X-1967Y5082D01*
X-1957Y5068D01*
X-1951Y5063D01*
Y5037D01*
X-1957Y5032D01*
X-1967Y5018D01*
X-1971Y5000D01*
Y4900D01*
X-1967Y4882D01*
X-1957Y4868D01*
X-1943Y4858D01*
X-1925Y4854D01*
X-1875D01*
X-1857Y4858D01*
X-1843Y4868D01*
X-1833Y4882D01*
X-1829Y4900D01*
Y5000D01*
X-1833Y5018D01*
X-1843Y5032D01*
X-1849Y5037D01*
Y5063D01*
X-1843Y5068D01*
X-1833Y5082D01*
X-1829Y5099D01*
X-1775D01*
X-1775Y5099D01*
X-1755Y5103D01*
X-1739Y5114D01*
X-1728Y5130D01*
X-1724Y5150D01*
X-1728Y5170D01*
X-1739Y5186D01*
X-1739Y5186D01*
X-1755Y5197D01*
X-1775Y5201D01*
X-1829D01*
X-1833Y5218D01*
X-1843Y5232D01*
X-1857Y5242D01*
X-1875Y5246D01*
D02*
G37*
G36*
X895Y4641D02*
X875Y4637D01*
X859Y4626D01*
X848Y4610D01*
X844Y4590D01*
X845Y4587D01*
X784Y4526D01*
X777Y4515D01*
X774Y4503D01*
Y4471D01*
X720D01*
X702Y4467D01*
X699Y4465D01*
X685Y4468D01*
X671Y4474D01*
X664Y4492D01*
X649Y4511D01*
X630Y4526D01*
X608Y4535D01*
X585Y4538D01*
Y4447D01*
Y4356D01*
X608Y4359D01*
X630Y4368D01*
X649Y4383D01*
X673Y4376D01*
X674Y4374D01*
X678Y4357D01*
X688Y4343D01*
X702Y4333D01*
X720Y4329D01*
X820D01*
X838Y4333D01*
X852Y4343D01*
X862Y4357D01*
X866Y4375D01*
Y4425D01*
X862Y4443D01*
X852Y4457D01*
X842Y4464D01*
X841Y4489D01*
X892Y4540D01*
X895Y4539D01*
X915Y4543D01*
X931Y4554D01*
X942Y4570D01*
X946Y4590D01*
X942Y4610D01*
X931Y4626D01*
X915Y4637D01*
X895Y4641D01*
D02*
G37*
G36*
X2550Y4778D02*
X2450D01*
X2432Y4774D01*
X2418Y4764D01*
X2408Y4750D01*
X2404Y4732D01*
Y4682D01*
X2408Y4664D01*
X2418Y4650D01*
X2432Y4640D01*
X2449Y4636D01*
Y4582D01*
X2453Y4562D01*
X2464Y4546D01*
X2481Y4535D01*
X2500Y4531D01*
X2520Y4535D01*
X2536Y4546D01*
X2547Y4562D01*
X2551Y4582D01*
Y4636D01*
X2568Y4640D01*
X2582Y4650D01*
X2592Y4664D01*
X2596Y4682D01*
Y4732D01*
X2592Y4750D01*
X2582Y4764D01*
X2568Y4774D01*
X2550Y4778D01*
D02*
G37*
G36*
X1405Y4538D02*
Y4472D01*
X1492D01*
X1484Y4492D01*
X1469Y4511D01*
X1450Y4526D01*
X1428Y4535D01*
X1405Y4538D01*
D02*
G37*
G36*
X535D02*
X535D01*
X512Y4535D01*
X490Y4526D01*
X471Y4511D01*
X456Y4492D01*
X448Y4472D01*
X535D01*
Y4538D01*
D02*
G37*
G36*
X1355D02*
X1355D01*
X1332Y4535D01*
X1310Y4526D01*
X1291Y4511D01*
X1276Y4492D01*
X1271Y4480D01*
X1248Y4471D01*
X1242Y4471D01*
X1240Y4472D01*
X1220Y4476D01*
X1183D01*
Y4400D01*
Y4324D01*
X1220D01*
X1240Y4328D01*
X1256Y4339D01*
X1267Y4355D01*
X1270Y4369D01*
X1279Y4375D01*
X1285Y4377D01*
X1296Y4379D01*
X1310Y4368D01*
X1332Y4359D01*
X1355Y4356D01*
X1355D01*
Y4447D01*
Y4538D01*
D02*
G37*
G36*
X1157Y4476D02*
X1120D01*
X1100Y4472D01*
X1084Y4461D01*
X1073Y4445D01*
X1069Y4425D01*
Y4397D01*
X1055Y4390D01*
X1044Y4388D01*
X1030Y4397D01*
X1010Y4401D01*
X990Y4397D01*
X974Y4386D01*
X963Y4370D01*
X959Y4352D01*
X922Y4315D01*
X914Y4317D01*
X895Y4313D01*
X878Y4302D01*
X867Y4285D01*
X867Y4284D01*
X840Y4272D01*
X839Y4273D01*
X820Y4276D01*
X783D01*
Y4200D01*
Y4124D01*
X820D01*
X840Y4128D01*
X856Y4139D01*
X867Y4155D01*
X871Y4175D01*
Y4204D01*
X894Y4218D01*
X896Y4218D01*
X914Y4215D01*
X934Y4218D01*
X950Y4229D01*
X961Y4246D01*
X965Y4264D01*
X995Y4294D01*
X1003Y4292D01*
X1020Y4284D01*
X1023Y4270D01*
X1034Y4254D01*
X1050Y4243D01*
X1065Y4240D01*
X1075Y4230D01*
X1074Y4225D01*
Y4175D01*
X1078Y4157D01*
X1088Y4143D01*
X1102Y4133D01*
X1120Y4129D01*
X1220D01*
X1238Y4133D01*
X1241Y4135D01*
X1255Y4132D01*
X1269Y4126D01*
X1276Y4108D01*
X1291Y4089D01*
X1310Y4074D01*
X1332Y4065D01*
X1355Y4062D01*
X1355D01*
Y4153D01*
Y4244D01*
X1355D01*
X1332Y4241D01*
X1310Y4232D01*
X1291Y4217D01*
X1267Y4224D01*
X1266Y4226D01*
X1262Y4243D01*
X1252Y4257D01*
X1238Y4267D01*
X1220Y4271D01*
X1141D01*
X1121Y4290D01*
X1119Y4299D01*
X1134Y4321D01*
X1138Y4324D01*
X1157D01*
Y4400D01*
Y4476D01*
D02*
G37*
G36*
X1492Y4422D02*
X1405D01*
Y4356D01*
X1428Y4359D01*
X1450Y4368D01*
X1469Y4383D01*
X1484Y4402D01*
X1492Y4422D01*
D02*
G37*
G36*
X535D02*
X448D01*
X456Y4402D01*
X471Y4383D01*
X490Y4368D01*
X512Y4359D01*
X535Y4356D01*
X535D01*
Y4422D01*
D02*
G37*
G36*
X-2025Y4546D02*
X-2075D01*
X-2093Y4542D01*
X-2107Y4532D01*
X-2117Y4518D01*
X-2121Y4500D01*
Y4471D01*
X-2122Y4470D01*
X-2126Y4450D01*
X-2122Y4430D01*
X-2121Y4429D01*
Y4400D01*
X-2117Y4382D01*
X-2107Y4368D01*
X-2093Y4358D01*
X-2075Y4354D01*
X-2025D01*
X-2007Y4358D01*
X-1993Y4368D01*
X-1983Y4382D01*
X-1979Y4399D01*
X-1975D01*
X-1955Y4403D01*
X-1939Y4414D01*
X-1939Y4414D01*
X-1928Y4431D01*
X-1924Y4450D01*
X-1928Y4470D01*
X-1939Y4486D01*
X-1955Y4497D01*
X-1975Y4501D01*
X-1983Y4518D01*
X-1993Y4532D01*
X-2007Y4542D01*
X-2025Y4546D01*
D02*
G37*
G36*
X757Y4276D02*
X720D01*
X700Y4272D01*
X684Y4261D01*
X673Y4245D01*
X670Y4231D01*
X661Y4225D01*
X655Y4223D01*
X644Y4221D01*
X630Y4232D01*
X608Y4241D01*
X585Y4244D01*
Y4153D01*
Y4062D01*
X608Y4065D01*
X630Y4074D01*
X649Y4089D01*
X664Y4108D01*
X669Y4120D01*
X693Y4129D01*
X698Y4129D01*
X700Y4128D01*
X720Y4124D01*
X757D01*
Y4200D01*
Y4276D01*
D02*
G37*
G36*
X535Y4244D02*
X535D01*
X512Y4241D01*
X490Y4232D01*
X476Y4221D01*
X456Y4206D01*
X440Y4217D01*
X420Y4221D01*
X400Y4217D01*
X384Y4206D01*
X373Y4190D01*
X369Y4170D01*
X373Y4150D01*
X384Y4134D01*
X400Y4123D01*
X420Y4119D01*
X440Y4123D01*
X452Y4119D01*
X456Y4108D01*
X471Y4089D01*
X490Y4074D01*
X512Y4065D01*
X535Y4062D01*
X535D01*
Y4153D01*
Y4244D01*
D02*
G37*
G36*
X1405D02*
Y4153D01*
Y4062D01*
X1428Y4065D01*
X1450Y4074D01*
X1469Y4089D01*
X1484Y4108D01*
X1488Y4119D01*
X1500Y4123D01*
X1520Y4119D01*
X1540Y4123D01*
X1556Y4134D01*
X1567Y4150D01*
X1571Y4170D01*
X1567Y4190D01*
X1556Y4206D01*
X1540Y4217D01*
X1520Y4221D01*
X1500Y4217D01*
X1484Y4206D01*
X1464Y4221D01*
X1450Y4232D01*
X1428Y4241D01*
X1405Y4244D01*
D02*
G37*
G36*
X4465Y4156D02*
Y3821D01*
X4800D01*
X4797Y3861D01*
X4784Y3914D01*
X4763Y3965D01*
X4734Y4012D01*
X4698Y4054D01*
X4656Y4090D01*
X4609Y4118D01*
X4558Y4140D01*
X4505Y4152D01*
X4465Y4156D01*
D02*
G37*
G36*
X4435D02*
X4395Y4152D01*
X4342Y4140D01*
X4291Y4118D01*
X4244Y4090D01*
X4202Y4054D01*
X4166Y4012D01*
X4137Y3965D01*
X4116Y3914D01*
X4103Y3861D01*
X4100Y3821D01*
X4435D01*
Y4156D01*
D02*
G37*
G36*
X-4435D02*
Y3821D01*
X-4100D01*
X-4103Y3861D01*
X-4116Y3914D01*
X-4137Y3965D01*
X-4166Y4012D01*
X-4202Y4054D01*
X-4244Y4090D01*
X-4291Y4118D01*
X-4342Y4140D01*
X-4395Y4152D01*
X-4435Y4156D01*
D02*
G37*
G36*
X-4465D02*
X-4505Y4152D01*
X-4558Y4140D01*
X-4609Y4118D01*
X-4656Y4090D01*
X-4698Y4054D01*
X-4734Y4012D01*
X-4763Y3965D01*
X-4784Y3914D01*
X-4797Y3861D01*
X-4800Y3821D01*
X-4465D01*
Y4156D01*
D02*
G37*
G36*
X213Y3899D02*
X111D01*
Y3785D01*
X213D01*
Y3899D01*
D02*
G37*
G36*
X61D02*
X-40D01*
Y3785D01*
X61D01*
Y3899D01*
D02*
G37*
G36*
X-2955Y4226D02*
X-3000D01*
X-3020Y4222D01*
X-3036Y4211D01*
X-3047Y4195D01*
X-3051Y4175D01*
X-3047Y4156D01*
X-3036Y4139D01*
X-3020Y4128D01*
X-3000Y4124D01*
X-2976D01*
X-2770Y3918D01*
X-2749Y3894D01*
X-2740Y3883D01*
X-2734Y3873D01*
X-2730Y3866D01*
Y3801D01*
X-2730Y3797D01*
X-2724Y3772D01*
X-2732Y3760D01*
X-2736Y3740D01*
Y3703D01*
X-2584D01*
Y3740D01*
X-2588Y3760D01*
X-2596Y3772D01*
X-2590Y3797D01*
X-2590Y3801D01*
Y3962D01*
X-2665D01*
X-2666Y3963D01*
X-2674Y3969D01*
X-2693Y3985D01*
X-2919Y4211D01*
X-2936Y4222D01*
X-2955Y4226D01*
D02*
G37*
G36*
X837Y3760D02*
X775D01*
Y3698D01*
X837D01*
Y3760D01*
D02*
G37*
G36*
X213Y3735D02*
X111D01*
Y3621D01*
X213D01*
Y3735D01*
D02*
G37*
G36*
X61D02*
X-40D01*
Y3621D01*
X61D01*
Y3735D01*
D02*
G37*
G36*
X925Y3672D02*
X863D01*
Y3610D01*
X925D01*
Y3672D01*
D02*
G37*
G36*
X837D02*
X775D01*
Y3610D01*
X837D01*
Y3672D01*
D02*
G37*
G36*
X-2584Y3677D02*
X-2647D01*
Y3589D01*
X-2635D01*
X-2615Y3593D01*
X-2599Y3604D01*
X-2588Y3620D01*
X-2584Y3640D01*
Y3677D01*
D02*
G37*
G36*
X-2673D02*
X-2736D01*
Y3640D01*
X-2732Y3620D01*
X-2721Y3604D01*
X-2705Y3593D01*
X-2685Y3589D01*
X-2673D01*
Y3677D01*
D02*
G37*
G36*
X4800Y3791D02*
X4465D01*
Y3456D01*
X4505Y3459D01*
X4558Y3472D01*
X4609Y3493D01*
X4656Y3522D01*
X4698Y3557D01*
X4734Y3599D01*
X4763Y3646D01*
X4784Y3697D01*
X4797Y3751D01*
X4800Y3791D01*
D02*
G37*
G36*
X4435D02*
X4100D01*
X4103Y3751D01*
X4116Y3697D01*
X4137Y3646D01*
X4166Y3599D01*
X4202Y3557D01*
X4244Y3522D01*
X4291Y3493D01*
X4342Y3472D01*
X4395Y3459D01*
X4435Y3456D01*
Y3791D01*
D02*
G37*
G36*
X-4100D02*
X-4435D01*
Y3456D01*
X-4395Y3459D01*
X-4342Y3472D01*
X-4291Y3493D01*
X-4244Y3522D01*
X-4202Y3557D01*
X-4166Y3599D01*
X-4137Y3646D01*
X-4116Y3697D01*
X-4103Y3751D01*
X-4100Y3791D01*
D02*
G37*
G36*
X-4465D02*
X-4800D01*
X-4797Y3751D01*
X-4784Y3697D01*
X-4763Y3646D01*
X-4734Y3599D01*
X-4698Y3557D01*
X-4656Y3522D01*
X-4609Y3493D01*
X-4558Y3472D01*
X-4505Y3459D01*
X-4465Y3456D01*
Y3791D01*
D02*
G37*
G36*
X407Y3440D02*
X315D01*
Y3357D01*
X407D01*
Y3440D01*
D02*
G37*
G36*
X-315D02*
X-407D01*
Y3357D01*
X-315D01*
Y3440D01*
D02*
G37*
G36*
X-433D02*
X-525D01*
Y3357D01*
X-433D01*
Y3440D01*
D02*
G37*
G36*
X525Y3332D02*
X433D01*
Y3249D01*
X525D01*
Y3332D01*
D02*
G37*
G36*
X407D02*
X315D01*
Y3249D01*
X407D01*
Y3332D01*
D02*
G37*
G36*
X-315D02*
X-407D01*
Y3249D01*
X-315D01*
Y3332D01*
D02*
G37*
G36*
X-433D02*
X-525D01*
Y3249D01*
X-433D01*
Y3332D01*
D02*
G37*
G36*
X465Y3217D02*
X433D01*
Y3133D01*
X527D01*
Y3155D01*
X522Y3179D01*
X509Y3199D01*
X489Y3212D01*
X465Y3217D01*
D02*
G37*
G36*
X407D02*
X375D01*
X351Y3212D01*
X331Y3199D01*
X318Y3179D01*
X313Y3155D01*
Y3133D01*
X407D01*
Y3217D01*
D02*
G37*
G36*
X527Y3107D02*
X433D01*
Y3023D01*
X465D01*
X489Y3028D01*
X509Y3041D01*
X522Y3061D01*
X527Y3085D01*
Y3107D01*
D02*
G37*
G36*
X407D02*
X313D01*
Y3085D01*
X318Y3061D01*
X331Y3041D01*
X351Y3028D01*
X375Y3023D01*
X407D01*
Y3107D01*
D02*
G37*
G36*
X255Y2348D02*
X205D01*
Y2285D01*
X255D01*
Y2348D01*
D02*
G37*
G36*
X155D02*
X105D01*
Y2285D01*
X155D01*
Y2348D01*
D02*
G37*
G36*
X-135Y2348D02*
X-197D01*
Y2273D01*
X-135D01*
Y2348D01*
D02*
G37*
G36*
X-223D02*
X-285D01*
Y2273D01*
X-223D01*
Y2348D01*
D02*
G37*
G36*
X-135Y2247D02*
X-210D01*
X-285D01*
Y2182D01*
X-285Y2172D01*
X-285Y2147D01*
Y2095D01*
X-210D01*
X-135D01*
Y2147D01*
X-135Y2172D01*
X-135Y2182D01*
Y2247D01*
D02*
G37*
G36*
X255Y2235D02*
X180D01*
X105D01*
Y2183D01*
X105Y2158D01*
X105Y2148D01*
Y2083D01*
X180D01*
X255D01*
Y2148D01*
X255Y2158D01*
X255Y2183D01*
Y2235D01*
D02*
G37*
G36*
X-135Y2045D02*
X-185D01*
Y1983D01*
X-135D01*
Y2045D01*
D02*
G37*
G36*
X-235D02*
X-285D01*
Y1983D01*
X-235D01*
Y2045D01*
D02*
G37*
G36*
X717Y1891D02*
X705D01*
X685Y1887D01*
X669Y1876D01*
X658Y1860D01*
X654Y1840D01*
Y1803D01*
X717D01*
Y1891D01*
D02*
G37*
G36*
X4465Y2056D02*
Y1721D01*
X4800D01*
X4797Y1761D01*
X4784Y1814D01*
X4763Y1865D01*
X4734Y1912D01*
X4698Y1954D01*
X4656Y1990D01*
X4609Y2018D01*
X4558Y2040D01*
X4505Y2052D01*
X4465Y2056D01*
D02*
G37*
G36*
X4435D02*
X4395Y2052D01*
X4342Y2040D01*
X4291Y2018D01*
X4244Y1990D01*
X4202Y1954D01*
X4166Y1912D01*
X4137Y1865D01*
X4116Y1814D01*
X4103Y1761D01*
X4100Y1721D01*
X4435D01*
Y2056D01*
D02*
G37*
G36*
X-4435D02*
Y1721D01*
X-4100D01*
X-4103Y1761D01*
X-4116Y1814D01*
X-4137Y1865D01*
X-4166Y1912D01*
X-4202Y1954D01*
X-4244Y1990D01*
X-4291Y2018D01*
X-4342Y2040D01*
X-4395Y2052D01*
X-4435Y2056D01*
D02*
G37*
G36*
X-4465D02*
X-4505Y2052D01*
X-4558Y2040D01*
X-4609Y2018D01*
X-4656Y1990D01*
X-4698Y1954D01*
X-4734Y1912D01*
X-4763Y1865D01*
X-4784Y1814D01*
X-4797Y1761D01*
X-4800Y1721D01*
X-4465D01*
Y2056D01*
D02*
G37*
G36*
X4800Y1691D02*
X4465D01*
Y1356D01*
X4505Y1359D01*
X4558Y1372D01*
X4609Y1393D01*
X4656Y1422D01*
X4698Y1457D01*
X4734Y1499D01*
X4763Y1546D01*
X4784Y1597D01*
X4797Y1651D01*
X4800Y1691D01*
D02*
G37*
G36*
X4435D02*
X4100D01*
X4103Y1651D01*
X4116Y1597D01*
X4137Y1546D01*
X4166Y1499D01*
X4202Y1457D01*
X4244Y1422D01*
X4291Y1393D01*
X4342Y1372D01*
X4395Y1359D01*
X4435Y1356D01*
Y1691D01*
D02*
G37*
G36*
X-4100D02*
X-4435D01*
Y1356D01*
X-4395Y1359D01*
X-4342Y1372D01*
X-4291Y1393D01*
X-4244Y1422D01*
X-4202Y1457D01*
X-4166Y1499D01*
X-4137Y1546D01*
X-4116Y1597D01*
X-4103Y1651D01*
X-4100Y1691D01*
D02*
G37*
G36*
X-4465D02*
X-4800D01*
X-4797Y1651D01*
X-4784Y1597D01*
X-4763Y1546D01*
X-4734Y1499D01*
X-4698Y1457D01*
X-4656Y1422D01*
X-4609Y1393D01*
X-4558Y1372D01*
X-4505Y1359D01*
X-4465Y1356D01*
Y1691D01*
D02*
G37*
G36*
X-265Y1148D02*
X-327D01*
Y1073D01*
X-265D01*
Y1148D01*
D02*
G37*
G36*
X-353D02*
X-415D01*
Y1073D01*
X-353D01*
Y1148D01*
D02*
G37*
G36*
X-732Y955D02*
X-807D01*
Y893D01*
X-732D01*
Y955D01*
D02*
G37*
G36*
X-1008D02*
X-1083D01*
Y893D01*
X-1008D01*
Y955D01*
D02*
G37*
G36*
X-32Y955D02*
X-107D01*
Y893D01*
X-32D01*
Y955D01*
D02*
G37*
G36*
X-133D02*
X-208D01*
Y893D01*
X-133D01*
Y955D01*
D02*
G37*
G36*
X-265Y1047D02*
X-340D01*
X-415D01*
Y975D01*
X-415Y973D01*
X-420Y950D01*
X-420Y949D01*
Y883D01*
X-330D01*
X-240D01*
Y950D01*
X-257D01*
X-265Y972D01*
X-265Y975D01*
Y1047D01*
D02*
G37*
G36*
X-32Y867D02*
X-107D01*
Y805D01*
X-32D01*
Y867D01*
D02*
G37*
G36*
X-133D02*
X-208D01*
Y805D01*
X-133D01*
Y867D01*
D02*
G37*
G36*
X-1008Y867D02*
X-1083D01*
Y805D01*
X-1008D01*
Y867D01*
D02*
G37*
G36*
X1401Y739D02*
X1287D01*
Y613D01*
X1401D01*
Y739D01*
D02*
G37*
G36*
X1261D02*
X1147D01*
Y613D01*
X1261D01*
Y739D01*
D02*
G37*
G36*
X-2750Y896D02*
X-2788Y891D01*
X-2823Y877D01*
X-2853Y853D01*
X-2877Y823D01*
X-2891Y788D01*
X-2896Y750D01*
X-2891Y712D01*
X-2877Y677D01*
X-2853Y647D01*
X-2823Y623D01*
X-2788Y609D01*
X-2750Y604D01*
X-2712Y609D01*
X-2677Y623D01*
X-2647Y647D01*
X-2623Y677D01*
X-2609Y712D01*
X-2604Y750D01*
X-2609Y788D01*
X-2623Y823D01*
X-2647Y853D01*
X-2677Y877D01*
X-2712Y891D01*
X-2750Y896D01*
D02*
G37*
G36*
X380Y616D02*
X343D01*
Y553D01*
X431D01*
Y565D01*
X427Y585D01*
X416Y601D01*
X400Y612D01*
X380Y616D01*
D02*
G37*
G36*
X-3000Y4676D02*
X-3020Y4672D01*
X-3036Y4661D01*
X-3047Y4645D01*
X-3051Y4625D01*
X-3047Y4605D01*
X-3036Y4589D01*
X-2511Y4064D01*
Y3962D01*
X-2530D01*
Y3797D01*
X-2525D01*
X-2517Y3772D01*
X-2517Y3772D01*
X-2527Y3758D01*
X-2531Y3740D01*
Y3640D01*
X-2527Y3622D01*
X-2517Y3608D01*
X-2511Y3603D01*
Y1020D01*
X-2507Y1000D01*
X-2496Y984D01*
X-2480Y973D01*
X-2460Y969D01*
X-2440Y973D01*
X-2426Y983D01*
X-2416Y980D01*
X-2401Y973D01*
Y770D01*
X-2397Y750D01*
X-2386Y734D01*
X-2370Y722D01*
X-2350Y719D01*
X-2330Y722D01*
X-2326Y726D01*
X-2301Y712D01*
Y550D01*
X-2297Y530D01*
X-2286Y514D01*
X-2270Y503D01*
X-2250Y499D01*
X-2230Y503D01*
X-2214Y514D01*
X-2203Y530D01*
X-2199Y550D01*
X-2199Y550D01*
X-2199Y4063D01*
X-2193Y4068D01*
X-2183Y4082D01*
X-2179Y4100D01*
Y4200D01*
X-2183Y4218D01*
X-2193Y4232D01*
X-2207Y4242D01*
X-2225Y4246D01*
X-2275D01*
X-2299Y4266D01*
Y4324D01*
X-2269Y4354D01*
X-2225D01*
X-2207Y4358D01*
X-2193Y4368D01*
X-2183Y4382D01*
X-2179Y4400D01*
Y4500D01*
X-2183Y4518D01*
X-2193Y4532D01*
X-2207Y4542D01*
X-2225Y4546D01*
X-2275D01*
X-2293Y4542D01*
X-2307Y4532D01*
X-2317Y4518D01*
X-2321Y4500D01*
Y4445D01*
X-2326Y4441D01*
X-2386Y4381D01*
X-2397Y4365D01*
X-2401Y4345D01*
Y4132D01*
X-2417Y4124D01*
X-2426Y4123D01*
X-2964Y4661D01*
X-2980Y4672D01*
X-3000Y4676D01*
D02*
G37*
G36*
X431Y527D02*
X343D01*
Y464D01*
X380D01*
X400Y468D01*
X416Y479D01*
X427Y495D01*
X431Y515D01*
Y527D01*
D02*
G37*
G36*
X1401Y587D02*
X1287D01*
Y461D01*
X1401D01*
Y587D01*
D02*
G37*
G36*
X1261D02*
X1147D01*
Y461D01*
X1261D01*
Y587D01*
D02*
G37*
G36*
X1401Y399D02*
X1287D01*
Y273D01*
X1401D01*
Y399D01*
D02*
G37*
G36*
X1261D02*
X1147D01*
Y273D01*
X1261D01*
Y399D01*
D02*
G37*
G36*
X1401Y247D02*
X1287D01*
Y121D01*
X1401D01*
Y247D01*
D02*
G37*
G36*
X1261D02*
X1147D01*
Y121D01*
X1261D01*
Y247D01*
D02*
G37*
G36*
X2750Y396D02*
X2712Y391D01*
X2677Y377D01*
X2647Y353D01*
X2623Y323D01*
X2609Y288D01*
X2604Y250D01*
X2609Y212D01*
X2623Y177D01*
X2647Y147D01*
X2677Y123D01*
X2712Y109D01*
X2750Y104D01*
X2788Y109D01*
X2823Y123D01*
X2853Y147D01*
X2877Y177D01*
X2891Y212D01*
X2896Y250D01*
X2891Y288D01*
X2877Y323D01*
X2853Y353D01*
X2823Y377D01*
X2788Y391D01*
X2750Y396D01*
D02*
G37*
G36*
X-2750D02*
X-2788Y391D01*
X-2823Y377D01*
X-2853Y353D01*
X-2877Y323D01*
X-2891Y288D01*
X-2896Y250D01*
X-2895Y241D01*
X-3118Y18D01*
X-3133Y-2D01*
X-3143Y-25D01*
X-3146Y-50D01*
Y-450D01*
X-3143Y-475D01*
X-3133Y-498D01*
X-3118Y-518D01*
X-2895Y-741D01*
X-2896Y-750D01*
X-2891Y-788D01*
X-2877Y-823D01*
X-2853Y-853D01*
X-2823Y-877D01*
X-2788Y-891D01*
X-2750Y-896D01*
X-2712Y-891D01*
X-2677Y-877D01*
X-2647Y-853D01*
X-2623Y-823D01*
X-2609Y-788D01*
X-2604Y-750D01*
X-2609Y-712D01*
X-2623Y-677D01*
X-2647Y-647D01*
X-2677Y-623D01*
X-2712Y-609D01*
X-2750Y-604D01*
X-2759Y-605D01*
X-2954Y-410D01*
Y-90D01*
X-2759Y105D01*
X-2750Y104D01*
X-2712Y109D01*
X-2677Y123D01*
X-2647Y147D01*
X-2623Y177D01*
X-2609Y212D01*
X-2604Y250D01*
X-2609Y288D01*
X-2623Y323D01*
X-2647Y353D01*
X-2677Y377D01*
X-2712Y391D01*
X-2750Y396D01*
D02*
G37*
G36*
X2750Y896D02*
X2712Y891D01*
X2677Y877D01*
X2647Y853D01*
X2623Y823D01*
X2609Y788D01*
X2604Y750D01*
X2609Y712D01*
X2623Y677D01*
X2647Y647D01*
X2677Y623D01*
X2712Y609D01*
X2750Y604D01*
X2759Y605D01*
X2954Y410D01*
Y90D01*
X2759Y-105D01*
X2750Y-104D01*
X2712Y-109D01*
X2677Y-123D01*
X2647Y-147D01*
X2623Y-177D01*
X2609Y-212D01*
X2604Y-250D01*
X2609Y-288D01*
X2623Y-323D01*
X2647Y-353D01*
X2677Y-377D01*
X2712Y-391D01*
X2750Y-396D01*
X2788Y-391D01*
X2823Y-377D01*
X2853Y-353D01*
X2877Y-323D01*
X2891Y-288D01*
X2896Y-250D01*
X2895Y-241D01*
X3118Y-18D01*
X3133Y2D01*
X3143Y25D01*
X3146Y50D01*
Y450D01*
X3143Y475D01*
X3133Y498D01*
X3118Y518D01*
X2895Y741D01*
X2896Y750D01*
X2891Y788D01*
X2877Y823D01*
X2853Y853D01*
X2823Y877D01*
X2788Y891D01*
X2750Y896D01*
D02*
G37*
G36*
X-2750Y-104D02*
X-2788Y-109D01*
X-2823Y-123D01*
X-2853Y-147D01*
X-2877Y-177D01*
X-2891Y-212D01*
X-2896Y-250D01*
X-2891Y-288D01*
X-2877Y-323D01*
X-2853Y-353D01*
X-2823Y-377D01*
X-2788Y-391D01*
X-2750Y-396D01*
X-2712Y-391D01*
X-2677Y-377D01*
X-2647Y-353D01*
X-2623Y-323D01*
X-2609Y-288D01*
X-2604Y-250D01*
X-2609Y-212D01*
X-2623Y-177D01*
X-2647Y-147D01*
X-2677Y-123D01*
X-2712Y-109D01*
X-2750Y-104D01*
D02*
G37*
G36*
X1160Y-585D02*
X1045D01*
Y-708D01*
X1160D01*
Y-585D01*
D02*
G37*
G36*
X995D02*
X880D01*
Y-708D01*
X995D01*
Y-585D01*
D02*
G37*
G36*
X1530Y-584D02*
X1430D01*
X1412Y-588D01*
X1398Y-598D01*
X1388Y-612D01*
X1384Y-630D01*
Y-680D01*
X1388Y-698D01*
X1398Y-712D01*
X1412Y-722D01*
X1429Y-726D01*
Y-740D01*
X1433Y-760D01*
X1432Y-765D01*
X1421Y-786D01*
X1412Y-788D01*
X1398Y-798D01*
X1388Y-812D01*
X1387Y-814D01*
X1291D01*
Y-807D01*
X1288Y-791D01*
X1278Y-777D01*
X1264Y-767D01*
X1248Y-764D01*
X1231Y-767D01*
X1215Y-776D01*
X1199Y-767D01*
X1182Y-764D01*
X1166Y-767D01*
X1152Y-777D01*
X1148D01*
X1134Y-767D01*
X1118Y-764D01*
X1101Y-767D01*
X1085Y-776D01*
X1069Y-767D01*
X1052Y-764D01*
X1036Y-767D01*
X1022Y-777D01*
X1018D01*
X1004Y-767D01*
X988Y-764D01*
X971Y-767D01*
X955Y-776D01*
X939Y-767D01*
X923Y-764D01*
X906Y-767D01*
X892Y-777D01*
X888D01*
X874Y-767D01*
X857Y-764D01*
X841Y-767D01*
X825Y-776D01*
X809Y-767D01*
X793Y-764D01*
X776Y-767D01*
X762Y-777D01*
X752Y-791D01*
X749Y-807D01*
Y-814D01*
X621D01*
Y-805D01*
X617Y-787D01*
X607Y-773D01*
X593Y-763D01*
X575Y-759D01*
X525D01*
X507Y-763D01*
X493Y-773D01*
X483Y-787D01*
X479Y-805D01*
Y-905D01*
X483Y-923D01*
X493Y-937D01*
X507Y-947D01*
X525Y-951D01*
X575D01*
X593Y-947D01*
X607Y-937D01*
X617Y-923D01*
X621Y-905D01*
Y-896D01*
X749D01*
Y-902D01*
X752Y-919D01*
X762Y-933D01*
X762Y-942D01*
X741Y-962D01*
X737Y-963D01*
X648D01*
X625Y-968D01*
X605Y-981D01*
X591Y-1001D01*
X587Y-1024D01*
X591Y-1048D01*
X605Y-1067D01*
X625Y-1081D01*
X648Y-1085D01*
X738D01*
X742Y-1090D01*
X750Y-1109D01*
X708Y-1151D01*
X707Y-1151D01*
X687Y-1164D01*
X673Y-1184D01*
X669Y-1207D01*
Y-1275D01*
X280D01*
Y-1465D01*
X1010D01*
Y-1465D01*
X1030Y-1465D01*
Y-1465D01*
X1760D01*
Y-1275D01*
X1371D01*
Y-1182D01*
X1367Y-1159D01*
X1353Y-1139D01*
X1333Y-1126D01*
X1310Y-1121D01*
X1292Y-1103D01*
X1304Y-1080D01*
X1310Y-1081D01*
X1410D01*
X1433Y-1077D01*
X1453Y-1063D01*
X1467Y-1043D01*
X1471Y-1020D01*
X1467Y-997D01*
X1453Y-977D01*
X1433Y-963D01*
X1410Y-959D01*
X1310D01*
X1303Y-960D01*
X1278Y-941D01*
X1278Y-933D01*
X1288Y-919D01*
X1291Y-902D01*
Y-896D01*
X1387D01*
X1388Y-898D01*
X1398Y-912D01*
X1412Y-922D01*
X1430Y-926D01*
X1530D01*
X1548Y-922D01*
X1562Y-912D01*
X1572Y-898D01*
X1576Y-880D01*
Y-830D01*
X1572Y-812D01*
X1562Y-798D01*
X1548Y-788D01*
X1539Y-786D01*
X1528Y-765D01*
X1527Y-760D01*
X1531Y-740D01*
Y-726D01*
X1548Y-722D01*
X1562Y-712D01*
X1572Y-698D01*
X1576Y-680D01*
Y-630D01*
X1572Y-612D01*
X1562Y-598D01*
X1548Y-588D01*
X1530Y-584D01*
D02*
G37*
G36*
X2750Y-604D02*
X2712Y-609D01*
X2677Y-623D01*
X2647Y-647D01*
X2623Y-677D01*
X2609Y-712D01*
X2604Y-750D01*
X2609Y-788D01*
X2623Y-823D01*
X2647Y-853D01*
X2677Y-877D01*
X2712Y-891D01*
X2750Y-896D01*
X2788Y-891D01*
X2823Y-877D01*
X2853Y-853D01*
X2877Y-823D01*
X2891Y-788D01*
X2896Y-750D01*
X2891Y-712D01*
X2877Y-677D01*
X2853Y-647D01*
X2823Y-623D01*
X2788Y-609D01*
X2750Y-604D01*
D02*
G37*
G36*
X4465Y-1356D02*
Y-1691D01*
X4800D01*
X4797Y-1651D01*
X4784Y-1597D01*
X4763Y-1546D01*
X4734Y-1499D01*
X4698Y-1457D01*
X4656Y-1422D01*
X4609Y-1393D01*
X4558Y-1372D01*
X4505Y-1359D01*
X4465Y-1356D01*
D02*
G37*
G36*
X4435D02*
X4395Y-1359D01*
X4342Y-1372D01*
X4291Y-1393D01*
X4244Y-1422D01*
X4202Y-1457D01*
X4166Y-1499D01*
X4137Y-1546D01*
X4116Y-1597D01*
X4103Y-1651D01*
X4100Y-1691D01*
X4435D01*
Y-1356D01*
D02*
G37*
G36*
X-4435D02*
Y-1691D01*
X-4100D01*
X-4103Y-1651D01*
X-4116Y-1597D01*
X-4137Y-1546D01*
X-4166Y-1499D01*
X-4202Y-1457D01*
X-4244Y-1422D01*
X-4291Y-1393D01*
X-4342Y-1372D01*
X-4395Y-1359D01*
X-4435Y-1356D01*
D02*
G37*
G36*
X-4465D02*
X-4505Y-1359D01*
X-4558Y-1372D01*
X-4609Y-1393D01*
X-4656Y-1422D01*
X-4698Y-1457D01*
X-4734Y-1499D01*
X-4763Y-1546D01*
X-4784Y-1597D01*
X-4797Y-1651D01*
X-4800Y-1691D01*
X-4465D01*
Y-1356D01*
D02*
G37*
G36*
X457Y-1870D02*
X275D01*
Y-1957D01*
X457D01*
Y-1870D01*
D02*
G37*
G36*
X1583Y-1870D02*
Y-1957D01*
X1765D01*
Y-1870D01*
X1583D01*
D02*
G37*
G36*
X4800Y-1721D02*
X4465D01*
Y-2056D01*
X4505Y-2052D01*
X4558Y-2040D01*
X4609Y-2018D01*
X4656Y-1990D01*
X4698Y-1954D01*
X4734Y-1912D01*
X4763Y-1865D01*
X4784Y-1814D01*
X4797Y-1761D01*
X4800Y-1721D01*
D02*
G37*
G36*
X4435D02*
X4100D01*
X4103Y-1761D01*
X4116Y-1814D01*
X4137Y-1865D01*
X4166Y-1912D01*
X4202Y-1954D01*
X4244Y-1990D01*
X4291Y-2018D01*
X4342Y-2040D01*
X4395Y-2052D01*
X4435Y-2056D01*
Y-1721D01*
D02*
G37*
G36*
X-4100D02*
X-4435D01*
Y-2056D01*
X-4395Y-2052D01*
X-4342Y-2040D01*
X-4291Y-2018D01*
X-4244Y-1990D01*
X-4202Y-1954D01*
X-4166Y-1912D01*
X-4137Y-1865D01*
X-4116Y-1814D01*
X-4103Y-1761D01*
X-4100Y-1721D01*
D02*
G37*
G36*
X-4465D02*
X-4800D01*
X-4797Y-1761D01*
X-4784Y-1814D01*
X-4763Y-1865D01*
X-4734Y-1912D01*
X-4698Y-1954D01*
X-4656Y-1990D01*
X-4609Y-2018D01*
X-4558Y-2040D01*
X-4505Y-2052D01*
X-4465Y-2056D01*
Y-1721D01*
D02*
G37*
G36*
X457Y-1983D02*
X275D01*
Y-2070D01*
X457D01*
Y-1983D01*
D02*
G37*
G36*
X807Y-1870D02*
X483D01*
Y-1970D01*
Y-2070D01*
X807D01*
Y-1970D01*
Y-1870D01*
D02*
G37*
G36*
X1765Y-1983D02*
X1583D01*
Y-2070D01*
X1765D01*
Y-1983D01*
D02*
G37*
G36*
X1233Y-1870D02*
Y-1970D01*
Y-2070D01*
X1557D01*
Y-1970D01*
Y-1870D01*
X1233D01*
D02*
G37*
G36*
X1015Y-1870D02*
X1000Y-1870D01*
X833D01*
Y-1970D01*
Y-2070D01*
X1000D01*
X1025Y-2070D01*
X1040Y-2070D01*
X1207D01*
Y-1970D01*
Y-1870D01*
X1040D01*
X1031Y-1870D01*
X1015Y-1870D01*
D02*
G37*
G36*
X-444Y-2634D02*
X-464Y-2638D01*
X-481Y-2649D01*
X-492Y-2665D01*
X-495Y-2685D01*
Y-2770D01*
X-492Y-2790D01*
X-481Y-2806D01*
X-464Y-2817D01*
X-444Y-2821D01*
X-425Y-2817D01*
X-408Y-2806D01*
X-397Y-2790D01*
X-394Y-2770D01*
Y-2685D01*
X-397Y-2665D01*
X-408Y-2649D01*
X-425Y-2638D01*
X-444Y-2634D01*
D02*
G37*
G36*
X-457Y-3176D02*
X-466Y-3178D01*
X-484Y-3190D01*
X-497Y-3208D01*
X-501Y-3230D01*
Y-3260D01*
X-457D01*
Y-3176D01*
D02*
G37*
G36*
X-432D02*
Y-3272D01*
X-444D01*
Y-3285D01*
X-501D01*
Y-3315D01*
X-497Y-3337D01*
X-484Y-3355D01*
X-478Y-3359D01*
X-486Y-3384D01*
X-725D01*
X-725Y-3384D01*
X-735Y-3386D01*
X-741Y-3387D01*
X-754Y-3396D01*
X-754Y-3396D01*
X-949Y-3591D01*
X-949Y-3591D01*
X-958Y-3604D01*
X-961Y-3620D01*
X-961Y-3620D01*
Y-3722D01*
X-961Y-3725D01*
X-961Y-3726D01*
X-963Y-3738D01*
Y-3793D01*
X-960Y-3809D01*
X-951Y-3823D01*
X-937Y-3833D01*
X-920Y-3836D01*
X-903Y-3833D01*
X-897Y-3828D01*
X-880Y-3825D01*
X-863Y-3828D01*
X-857Y-3833D01*
X-840Y-3836D01*
X-823Y-3833D01*
X-817Y-3828D01*
X-800Y-3825D01*
X-783Y-3828D01*
X-777Y-3833D01*
X-760Y-3836D01*
X-743Y-3833D01*
X-737Y-3828D01*
X-720Y-3825D01*
X-703Y-3828D01*
X-697Y-3833D01*
X-680Y-3836D01*
X-663Y-3833D01*
X-649Y-3823D01*
X-640Y-3809D01*
X-637Y-3793D01*
Y-3738D01*
X-638Y-3729D01*
Y-3711D01*
X-618Y-3691D01*
X-87D01*
X-87Y-3691D01*
X-71Y-3688D01*
X-58Y-3679D01*
X92Y-3529D01*
X92Y-3529D01*
X101Y-3516D01*
X104Y-3500D01*
X104Y-3500D01*
Y-3361D01*
X104Y-3358D01*
X105Y-3348D01*
X106Y-3345D01*
X106Y-3342D01*
X107Y-3341D01*
X107Y-3341D01*
X107Y-3340D01*
X111Y-3335D01*
X114Y-3315D01*
Y-3230D01*
X111Y-3210D01*
X100Y-3194D01*
X83Y-3183D01*
X64Y-3179D01*
X44Y-3183D01*
X27Y-3194D01*
X16Y-3210D01*
X13Y-3230D01*
Y-3315D01*
X16Y-3335D01*
X20Y-3340D01*
X20Y-3341D01*
X20Y-3341D01*
X21Y-3342D01*
X21Y-3344D01*
X23Y-3366D01*
Y-3483D01*
X-95Y-3600D01*
X-107Y-3599D01*
X-116Y-3572D01*
X-35Y-3491D01*
X-35Y-3491D01*
X-26Y-3478D01*
X-23Y-3462D01*
Y-3361D01*
X-23Y-3358D01*
X-22Y-3348D01*
X-21Y-3345D01*
X-21Y-3342D01*
X-20Y-3341D01*
X-20Y-3341D01*
X-20Y-3340D01*
X-16Y-3335D01*
X-13Y-3315D01*
Y-3230D01*
X-16Y-3210D01*
X-27Y-3194D01*
X-44Y-3183D01*
X-63Y-3179D01*
X-83Y-3183D01*
X-100Y-3194D01*
X-111Y-3210D01*
X-114Y-3230D01*
Y-3315D01*
X-111Y-3335D01*
X-107Y-3340D01*
X-107Y-3341D01*
X-107Y-3341D01*
X-106Y-3342D01*
X-106Y-3344D01*
X-104Y-3366D01*
Y-3445D01*
X-138Y-3479D01*
X-157Y-3463D01*
X-153Y-3456D01*
X-150Y-3440D01*
X-150Y-3440D01*
Y-3361D01*
X-150Y-3358D01*
X-149Y-3348D01*
X-148Y-3345D01*
X-148Y-3342D01*
X-147Y-3341D01*
X-147Y-3341D01*
X-147Y-3340D01*
X-143Y-3335D01*
X-140Y-3315D01*
Y-3230D01*
X-143Y-3210D01*
X-154Y-3194D01*
X-171Y-3183D01*
X-190Y-3179D01*
X-210Y-3183D01*
X-227Y-3194D01*
X-238Y-3210D01*
X-241Y-3230D01*
Y-3315D01*
X-238Y-3335D01*
X-234Y-3340D01*
X-234Y-3341D01*
X-234Y-3341D01*
X-233Y-3342D01*
X-233Y-3344D01*
X-231Y-3366D01*
Y-3424D01*
X-267Y-3459D01*
X-291D01*
X-302Y-3434D01*
X-289Y-3421D01*
X-289Y-3421D01*
X-280Y-3408D01*
X-277Y-3392D01*
X-277Y-3392D01*
Y-3361D01*
X-277Y-3358D01*
X-276Y-3348D01*
X-275Y-3345D01*
X-275Y-3342D01*
X-274Y-3341D01*
X-274Y-3341D01*
X-274Y-3340D01*
X-270Y-3335D01*
X-267Y-3315D01*
Y-3230D01*
X-270Y-3210D01*
X-281Y-3194D01*
X-298Y-3183D01*
X-317Y-3179D01*
X-337Y-3183D01*
X-354Y-3194D01*
X-365Y-3210D01*
X-366Y-3215D01*
X-391D01*
X-392Y-3208D01*
X-405Y-3190D01*
X-423Y-3178D01*
X-432Y-3176D01*
D02*
G37*
G36*
X-317Y-2479D02*
X-337Y-2483D01*
X-354Y-2494D01*
X-365Y-2510D01*
X-368Y-2530D01*
Y-2685D01*
Y-2728D01*
Y-2850D01*
X-365Y-2870D01*
X-354Y-2886D01*
X-279Y-2961D01*
X-262Y-2972D01*
X-242Y-2976D01*
X375D01*
X375Y-2976D01*
X375Y-2976D01*
X384Y-2974D01*
X395Y-2972D01*
X395Y-2972D01*
X395Y-2972D01*
X403Y-2967D01*
X411Y-2961D01*
X411Y-2961D01*
X411Y-2961D01*
X481Y-2892D01*
X486Y-2884D01*
X492Y-2875D01*
X492Y-2875D01*
X492Y-2875D01*
X493Y-2870D01*
X495Y-2855D01*
Y-2728D01*
Y-2685D01*
X492Y-2665D01*
X486Y-2657D01*
X491Y-2633D01*
X494Y-2628D01*
X495Y-2628D01*
X534Y-2667D01*
Y-3225D01*
X534Y-3225D01*
X537Y-3241D01*
X546Y-3254D01*
X729Y-3436D01*
X716Y-3460D01*
X715Y-3459D01*
X715Y-3459D01*
X538D01*
X489Y-3410D01*
Y-3356D01*
X489Y-3353D01*
X490Y-3344D01*
X491Y-3336D01*
X491Y-3335D01*
X492Y-3335D01*
X492Y-3330D01*
X493Y-3330D01*
X493Y-3329D01*
X493Y-3328D01*
X493Y-3326D01*
X495Y-3315D01*
Y-3230D01*
X492Y-3210D01*
X481Y-3194D01*
X464Y-3183D01*
X445Y-3179D01*
X425Y-3183D01*
X408Y-3194D01*
X397Y-3210D01*
X394Y-3230D01*
Y-3315D01*
X397Y-3335D01*
X401Y-3339D01*
X401Y-3340D01*
X401Y-3341D01*
X402Y-3341D01*
X403Y-3343D01*
X403Y-3344D01*
X404Y-3346D01*
X405Y-3349D01*
X406Y-3353D01*
X407Y-3357D01*
X408Y-3370D01*
Y-3415D01*
X383Y-3425D01*
X358Y-3401D01*
Y-3361D01*
X358Y-3358D01*
X359Y-3348D01*
X360Y-3345D01*
X360Y-3342D01*
X361Y-3341D01*
X361Y-3341D01*
X361Y-3340D01*
X365Y-3335D01*
X368Y-3315D01*
Y-3230D01*
X365Y-3210D01*
X354Y-3194D01*
X337Y-3183D01*
X318Y-3179D01*
X298Y-3183D01*
X281Y-3194D01*
X270Y-3210D01*
X267Y-3230D01*
Y-3315D01*
X270Y-3335D01*
X274Y-3340D01*
X274Y-3341D01*
X274Y-3341D01*
X275Y-3342D01*
X275Y-3344D01*
X277Y-3366D01*
Y-3409D01*
X253Y-3420D01*
X253Y-3420D01*
X231Y-3399D01*
Y-3361D01*
X231Y-3358D01*
X232Y-3348D01*
X233Y-3345D01*
X233Y-3342D01*
X234Y-3341D01*
X234Y-3341D01*
X234Y-3340D01*
X238Y-3335D01*
X241Y-3315D01*
Y-3230D01*
X238Y-3210D01*
X227Y-3194D01*
X210Y-3183D01*
X191Y-3179D01*
X171Y-3183D01*
X154Y-3194D01*
X143Y-3210D01*
X140Y-3230D01*
Y-3315D01*
X143Y-3335D01*
X147Y-3340D01*
X147Y-3341D01*
X147Y-3341D01*
X148Y-3342D01*
X148Y-3344D01*
X150Y-3366D01*
Y-3415D01*
X150Y-3416D01*
X153Y-3431D01*
X162Y-3444D01*
X396Y-3679D01*
X396Y-3679D01*
X409Y-3688D01*
X425Y-3691D01*
X608D01*
X638Y-3721D01*
Y-3729D01*
X637Y-3738D01*
Y-3793D01*
X640Y-3809D01*
X649Y-3823D01*
X663Y-3833D01*
X680Y-3836D01*
X697Y-3833D01*
X703Y-3828D01*
X720Y-3825D01*
X737Y-3828D01*
X743Y-3833D01*
X760Y-3836D01*
X777Y-3833D01*
X783Y-3828D01*
X800Y-3825D01*
X817Y-3828D01*
X823Y-3833D01*
X840Y-3836D01*
X857Y-3833D01*
X863Y-3828D01*
X880Y-3825D01*
X897Y-3828D01*
X903Y-3833D01*
X920Y-3836D01*
X937Y-3833D01*
X951Y-3823D01*
X960Y-3809D01*
X963Y-3793D01*
Y-3738D01*
X961Y-3727D01*
X961Y-3705D01*
Y-3570D01*
X961Y-3570D01*
X958Y-3554D01*
X949Y-3541D01*
X949Y-3541D01*
X616Y-3208D01*
Y-2650D01*
X616Y-2650D01*
X613Y-2634D01*
X604Y-2621D01*
X529Y-2546D01*
X516Y-2537D01*
X500Y-2534D01*
X500Y-2534D01*
X375D01*
X375Y-2534D01*
X359Y-2537D01*
X346Y-2546D01*
X346Y-2546D01*
X289Y-2604D01*
X280Y-2617D01*
X277Y-2633D01*
X277Y-2633D01*
Y-2653D01*
X277Y-2656D01*
X270Y-2665D01*
X267Y-2685D01*
Y-2770D01*
X270Y-2790D01*
X281Y-2806D01*
X298Y-2817D01*
X318Y-2821D01*
X337Y-2817D01*
X354Y-2806D01*
X365Y-2790D01*
X368Y-2770D01*
Y-2685D01*
X365Y-2665D01*
X359Y-2657D01*
X359Y-2649D01*
X392Y-2616D01*
X417D01*
X418Y-2621D01*
X421Y-2641D01*
X408Y-2649D01*
X397Y-2665D01*
X394Y-2685D01*
Y-2728D01*
Y-2834D01*
X354Y-2874D01*
X-221D01*
X-267Y-2829D01*
Y-2728D01*
Y-2685D01*
Y-2530D01*
X-270Y-2510D01*
X-281Y-2494D01*
X-298Y-2483D01*
X-317Y-2479D01*
D02*
G37*
G36*
X4465Y-3456D02*
Y-3791D01*
X4800D01*
X4797Y-3751D01*
X4784Y-3697D01*
X4763Y-3646D01*
X4734Y-3599D01*
X4698Y-3557D01*
X4656Y-3522D01*
X4609Y-3493D01*
X4558Y-3472D01*
X4505Y-3459D01*
X4465Y-3456D01*
D02*
G37*
G36*
X4435D02*
X4395Y-3459D01*
X4342Y-3472D01*
X4291Y-3493D01*
X4244Y-3522D01*
X4202Y-3557D01*
X4166Y-3599D01*
X4137Y-3646D01*
X4116Y-3697D01*
X4103Y-3751D01*
X4100Y-3791D01*
X4435D01*
Y-3456D01*
D02*
G37*
G36*
X-4435D02*
Y-3791D01*
X-4100D01*
X-4103Y-3751D01*
X-4116Y-3697D01*
X-4137Y-3646D01*
X-4166Y-3599D01*
X-4202Y-3557D01*
X-4244Y-3522D01*
X-4291Y-3493D01*
X-4342Y-3472D01*
X-4395Y-3459D01*
X-4435Y-3456D01*
D02*
G37*
G36*
X-4465D02*
X-4505Y-3459D01*
X-4558Y-3472D01*
X-4609Y-3493D01*
X-4656Y-3522D01*
X-4698Y-3557D01*
X-4734Y-3599D01*
X-4763Y-3646D01*
X-4784Y-3697D01*
X-4797Y-3751D01*
X-4800Y-3791D01*
X-4465D01*
Y-3456D01*
D02*
G37*
G36*
X920Y-3864D02*
X903Y-3867D01*
X897Y-3872D01*
X880Y-3875D01*
X863Y-3872D01*
X857Y-3867D01*
X840Y-3864D01*
X823Y-3867D01*
X817Y-3872D01*
X800Y-3875D01*
X783Y-3872D01*
X777Y-3867D01*
X760Y-3864D01*
X743Y-3867D01*
X737Y-3872D01*
X720Y-3875D01*
X703Y-3872D01*
X697Y-3867D01*
X680Y-3864D01*
X663Y-3867D01*
X649Y-3877D01*
X640Y-3891D01*
X637Y-3907D01*
Y-3962D01*
X639Y-3973D01*
X639Y-3995D01*
Y-4003D01*
X583Y-4059D01*
X225D01*
X225Y-4059D01*
X209Y-4062D01*
X196Y-4071D01*
X196Y-4071D01*
X92Y-4176D01*
X80Y-4178D01*
X64Y-4189D01*
X53Y-4205D01*
X49Y-4225D01*
X53Y-4245D01*
X64Y-4261D01*
X80Y-4272D01*
X100Y-4276D01*
X120Y-4272D01*
X136Y-4261D01*
X147Y-4245D01*
X149Y-4234D01*
X153Y-4230D01*
X242Y-4141D01*
X591D01*
X602Y-4164D01*
X602Y-4165D01*
X583Y-4184D01*
X529D01*
X520Y-4178D01*
X500Y-4174D01*
X480Y-4178D01*
X464Y-4189D01*
X453Y-4205D01*
X449Y-4225D01*
X453Y-4245D01*
X464Y-4261D01*
X480Y-4272D01*
X500Y-4276D01*
X520Y-4272D01*
X529Y-4266D01*
X533Y-4266D01*
X600D01*
X600Y-4266D01*
X616Y-4263D01*
X629Y-4254D01*
X774Y-4108D01*
X799Y-4119D01*
Y-4165D01*
X799Y-4165D01*
X802Y-4181D01*
X811Y-4194D01*
X851Y-4233D01*
X853Y-4245D01*
X864Y-4261D01*
X880Y-4272D01*
X900Y-4276D01*
X920Y-4272D01*
X936Y-4261D01*
X947Y-4245D01*
X951Y-4225D01*
X947Y-4205D01*
X936Y-4189D01*
X920Y-4178D01*
X909Y-4176D01*
X905Y-4172D01*
X881Y-4148D01*
Y-4099D01*
X906Y-4088D01*
X1071Y-4254D01*
X1071Y-4254D01*
X1084Y-4263D01*
X1100Y-4266D01*
X1100Y-4266D01*
X1271D01*
X1280Y-4272D01*
X1300Y-4276D01*
X1320Y-4272D01*
X1336Y-4261D01*
X1347Y-4245D01*
X1351Y-4225D01*
X1347Y-4205D01*
X1336Y-4189D01*
X1320Y-4178D01*
X1300Y-4174D01*
X1280Y-4178D01*
X1271Y-4184D01*
X1267Y-4184D01*
X1117D01*
X961Y-4028D01*
Y-3978D01*
X961Y-3975D01*
X961Y-3974D01*
X963Y-3962D01*
Y-3907D01*
X960Y-3891D01*
X951Y-3877D01*
X937Y-3867D01*
X920Y-3864D01*
D02*
G37*
G36*
X4800Y-3821D02*
X4465D01*
Y-4156D01*
X4505Y-4152D01*
X4558Y-4140D01*
X4609Y-4118D01*
X4656Y-4090D01*
X4698Y-4054D01*
X4734Y-4012D01*
X4763Y-3965D01*
X4784Y-3914D01*
X4797Y-3861D01*
X4800Y-3821D01*
D02*
G37*
G36*
X4435D02*
X4100D01*
X4103Y-3861D01*
X4116Y-3914D01*
X4137Y-3965D01*
X4166Y-4012D01*
X4202Y-4054D01*
X4244Y-4090D01*
X4291Y-4118D01*
X4342Y-4140D01*
X4395Y-4152D01*
X4435Y-4156D01*
Y-3821D01*
D02*
G37*
G36*
X-4100D02*
X-4435D01*
Y-4156D01*
X-4395Y-4152D01*
X-4342Y-4140D01*
X-4291Y-4118D01*
X-4244Y-4090D01*
X-4202Y-4054D01*
X-4166Y-4012D01*
X-4137Y-3965D01*
X-4116Y-3914D01*
X-4103Y-3861D01*
X-4100Y-3821D01*
D02*
G37*
G36*
X-4465D02*
X-4800D01*
X-4797Y-3861D01*
X-4784Y-3914D01*
X-4763Y-3965D01*
X-4734Y-4012D01*
X-4698Y-4054D01*
X-4656Y-4090D01*
X-4609Y-4118D01*
X-4558Y-4140D01*
X-4505Y-4152D01*
X-4465Y-4156D01*
Y-3821D01*
D02*
G37*
G36*
X-2605Y-4199D02*
X-2617D01*
Y-4287D01*
X-2554D01*
Y-4250D01*
X-2558Y-4230D01*
X-2569Y-4214D01*
X-2585Y-4203D01*
X-2605Y-4199D01*
D02*
G37*
G36*
X-2643D02*
X-2655D01*
X-2675Y-4203D01*
X-2691Y-4214D01*
X-2702Y-4230D01*
X-2706Y-4250D01*
Y-4287D01*
X-2643D01*
Y-4199D01*
D02*
G37*
G36*
X1347Y-4549D02*
X1310D01*
X1290Y-4553D01*
X1274Y-4564D01*
X1263Y-4580D01*
X1259Y-4600D01*
Y-4612D01*
X1347D01*
Y-4549D01*
D02*
G37*
G36*
Y-4638D02*
X1259D01*
Y-4650D01*
X1263Y-4670D01*
X1274Y-4686D01*
X1290Y-4697D01*
X1310Y-4701D01*
X1347D01*
Y-4638D01*
D02*
G37*
G36*
X1410Y-4549D02*
X1373D01*
Y-4625D01*
Y-4701D01*
X1410D01*
X1424Y-4699D01*
X1439Y-4719D01*
X789Y-5369D01*
X320D01*
X300Y-5373D01*
X284Y-5384D01*
X273Y-5400D01*
X269Y-5420D01*
X273Y-5440D01*
X284Y-5456D01*
X300Y-5467D01*
X320Y-5471D01*
X810D01*
X830Y-5467D01*
X846Y-5456D01*
X1564Y-4739D01*
X1575Y-4722D01*
X1578Y-4703D01*
Y-4695D01*
X1642D01*
Y-4676D01*
X2000D01*
X2020Y-4672D01*
X2036Y-4661D01*
X2036Y-4661D01*
X2047Y-4645D01*
X2051Y-4625D01*
X2047Y-4605D01*
X2036Y-4589D01*
X2020Y-4578D01*
X2000Y-4574D01*
X2000Y-4574D01*
X1642D01*
Y-4555D01*
X1477D01*
Y-4565D01*
X1452Y-4573D01*
X1446Y-4564D01*
X1430Y-4553D01*
X1410Y-4549D01*
D02*
G37*
G36*
X-1255Y-5364D02*
X-1273Y-5367D01*
X-1290Y-5374D01*
X-1305Y-5385D01*
X-1316Y-5400D01*
X-1323Y-5417D01*
X-1326Y-5435D01*
X-1323Y-5453D01*
X-1316Y-5470D01*
X-1305Y-5485D01*
X-1290Y-5496D01*
X-1273Y-5503D01*
X-1255Y-5506D01*
X-1237Y-5503D01*
X-1220Y-5496D01*
X-1205Y-5485D01*
X-1194Y-5470D01*
X-1187Y-5453D01*
X-1184Y-5435D01*
X-1187Y-5417D01*
X-1194Y-5400D01*
X-1205Y-5385D01*
X-1220Y-5374D01*
X-1237Y-5367D01*
X-1255Y-5364D01*
D02*
G37*
G36*
X-2255D02*
X-2273Y-5367D01*
X-2290Y-5374D01*
X-2305Y-5385D01*
X-2316Y-5400D01*
X-2323Y-5417D01*
X-2326Y-5435D01*
X-2323Y-5453D01*
X-2316Y-5470D01*
X-2305Y-5485D01*
X-2290Y-5496D01*
X-2273Y-5503D01*
X-2255Y-5506D01*
X-2237Y-5503D01*
X-2220Y-5496D01*
X-2205Y-5485D01*
X-2194Y-5470D01*
X-2187Y-5453D01*
X-2184Y-5435D01*
X-2187Y-5417D01*
X-2194Y-5400D01*
X-2205Y-5385D01*
X-2220Y-5374D01*
X-2237Y-5367D01*
X-2255Y-5364D01*
D02*
G37*
G36*
X-1358Y-5501D02*
Y-5610D01*
X-1249D01*
X-1251Y-5592D01*
X-1264Y-5562D01*
X-1284Y-5536D01*
X-1310Y-5516D01*
X-1340Y-5503D01*
X-1358Y-5501D01*
D02*
G37*
G36*
X-2358D02*
Y-5610D01*
X-2249D01*
X-2251Y-5592D01*
X-2264Y-5562D01*
X-2284Y-5536D01*
X-2310Y-5516D01*
X-2340Y-5503D01*
X-2358Y-5501D01*
D02*
G37*
G36*
X399Y-6142D02*
X290D01*
Y-6251D01*
X308Y-6249D01*
X338Y-6236D01*
X364Y-6216D01*
X384Y-6190D01*
X397Y-6160D01*
X399Y-6142D01*
D02*
G37*
G36*
X-290D02*
X-399D01*
X-397Y-6160D01*
X-384Y-6190D01*
X-364Y-6216D01*
X-338Y-6236D01*
X-308Y-6249D01*
X-290Y-6251D01*
Y-6142D01*
D02*
G37*
G36*
X-1249Y-6190D02*
X-1358D01*
Y-6299D01*
X-1340Y-6297D01*
X-1310Y-6284D01*
X-1284Y-6264D01*
X-1264Y-6238D01*
X-1251Y-6208D01*
X-1249Y-6190D01*
D02*
G37*
G36*
X-2249D02*
X-2358D01*
Y-6299D01*
X-2340Y-6297D01*
X-2310Y-6284D01*
X-2284Y-6264D01*
X-2264Y-6238D01*
X-2251Y-6208D01*
X-2249Y-6190D01*
D02*
G37*
G36*
X465Y-6174D02*
X447Y-6177D01*
X430Y-6184D01*
X415Y-6195D01*
X404Y-6210D01*
X397Y-6227D01*
X394Y-6245D01*
X397Y-6263D01*
X404Y-6280D01*
X415Y-6295D01*
X430Y-6306D01*
X447Y-6313D01*
X465Y-6316D01*
X483Y-6313D01*
X500Y-6306D01*
X515Y-6295D01*
X526Y-6280D01*
X533Y-6263D01*
X536Y-6245D01*
X533Y-6227D01*
X526Y-6210D01*
X515Y-6195D01*
X500Y-6184D01*
X483Y-6177D01*
X465Y-6174D01*
D02*
G37*
%LPD*%
G36*
X-1276Y6150D02*
X-1275Y6145D01*
X-1275Y6139D01*
X-1273Y6134D01*
X-1270Y6128D01*
X-1267Y6122D01*
X-1263Y6116D01*
X-1258Y6109D01*
X-1253Y6103D01*
X-1247Y6096D01*
X-1289Y6054D01*
X-1295Y6060D01*
X-1302Y6065D01*
X-1308Y6069D01*
X-1314Y6073D01*
X-1319Y6076D01*
X-1325Y6078D01*
X-1331Y6079D01*
X-1336Y6080D01*
X-1341Y6080D01*
X-1347Y6079D01*
X-1275Y6156D01*
X-1276Y6150D01*
D02*
G37*
G36*
X170Y5812D02*
X189Y5787D01*
X214Y5768D01*
X224Y5764D01*
Y5596D01*
X99Y5471D01*
X50D01*
X32Y5467D01*
X18Y5457D01*
X14Y5452D01*
X-14D01*
X-18Y5457D01*
X-32Y5467D01*
X-50Y5471D01*
X-150D01*
X-168Y5467D01*
X-182Y5457D01*
X-187Y5451D01*
X-224D01*
Y5764D01*
X-214Y5768D01*
X-189Y5787D01*
X-170Y5812D01*
X-168Y5817D01*
X-143Y5813D01*
X-141Y5802D01*
X-127Y5767D01*
X-103Y5737D01*
X-73Y5713D01*
X-38Y5699D01*
X0Y5694D01*
X38Y5699D01*
X73Y5713D01*
X103Y5737D01*
X127Y5767D01*
X141Y5802D01*
X143Y5813D01*
X168Y5817D01*
X170Y5812D01*
D02*
G37*
G36*
X-1311Y5546D02*
X-1317Y5538D01*
X-1323Y5530D01*
X-1329Y5521D01*
X-1333Y5513D01*
X-1337Y5505D01*
X-1339Y5496D01*
X-1341Y5487D01*
X-1343Y5479D01*
X-1343Y5470D01*
X-1403D01*
X-1403Y5479D01*
X-1405Y5487D01*
X-1407Y5496D01*
X-1409Y5505D01*
X-1413Y5513D01*
X-1417Y5521D01*
X-1423Y5530D01*
X-1429Y5538D01*
X-1435Y5546D01*
X-1443Y5554D01*
X-1303D01*
X-1311Y5546D01*
D02*
G37*
G36*
X-2151Y5886D02*
Y5237D01*
X-2157Y5232D01*
X-2167Y5218D01*
X-2171Y5200D01*
Y5100D01*
X-2193Y5081D01*
X-2198Y5080D01*
X-2322Y5204D01*
Y5516D01*
X-2312Y5520D01*
X-2287Y5539D01*
X-2268Y5564D01*
X-2256Y5594D01*
X-2252Y5625D01*
X-2256Y5656D01*
X-2268Y5686D01*
X-2287Y5711D01*
X-2312Y5730D01*
X-2317Y5732D01*
X-2313Y5757D01*
X-2302Y5759D01*
X-2267Y5773D01*
X-2237Y5797D01*
X-2213Y5827D01*
X-2199Y5862D01*
X-2194Y5895D01*
X-2172Y5907D01*
X-2151Y5886D01*
D02*
G37*
G36*
X-2043Y4192D02*
X-2039Y4190D01*
X-2035Y4187D01*
X-2030Y4185D01*
X-2024Y4184D01*
X-2017Y4182D01*
X-2009Y4181D01*
X-1991Y4180D01*
X-1980Y4180D01*
Y4120D01*
X-1991Y4120D01*
X-2017Y4118D01*
X-2024Y4116D01*
X-2030Y4115D01*
X-2035Y4113D01*
X-2039Y4110D01*
X-2043Y4108D01*
X-2045Y4105D01*
Y4195D01*
X-2043Y4192D01*
D02*
G37*
G36*
X-820Y-945D02*
X-805Y-955D01*
X-790Y-958D01*
Y-1032D01*
X-650D01*
X-641Y-1054D01*
Y-2331D01*
X-1770Y-3460D01*
X-1781Y-3475D01*
X-1788Y-3492D01*
X-1791Y-3510D01*
Y-3991D01*
X-2024Y-4224D01*
X-2046Y-4217D01*
X-2049Y-4214D01*
Y-2701D01*
X-1004Y-1656D01*
X-993Y-1640D01*
X-989Y-1620D01*
Y-1038D01*
X-933D01*
Y-950D01*
X-907D01*
Y-1038D01*
X-845D01*
Y-953D01*
X-822Y-943D01*
X-820Y-945D01*
D02*
G37*
G36*
X-659Y-3972D02*
X-659Y-3973D01*
X-660Y-3978D01*
X-660Y-4013D01*
X-700D01*
X-701Y-3971D01*
X-659D01*
X-659Y-3972D01*
D02*
G37*
G36*
X-739D02*
X-739Y-3973D01*
X-740Y-3978D01*
X-740Y-4013D01*
X-780D01*
X-781Y-3971D01*
X-739D01*
X-739Y-3972D01*
D02*
G37*
G36*
X-819D02*
X-819Y-3973D01*
X-820Y-3978D01*
X-820Y-4013D01*
X-860D01*
X-861Y-3971D01*
X-819D01*
X-819Y-3972D01*
D02*
G37*
G36*
X-700Y-4195D02*
X-730Y-4225D01*
X-730Y-4224D01*
X-730Y-4224D01*
X-731Y-4223D01*
X-733Y-4220D01*
X-740Y-4213D01*
X-743Y-4211D01*
X-714Y-4182D01*
X-700Y-4195D01*
D02*
G37*
G36*
X-1457Y-4211D02*
X-1470Y-4225D01*
X-1500Y-4195D01*
X-1499Y-4195D01*
X-1499Y-4194D01*
X-1498Y-4194D01*
X-1495Y-4192D01*
X-1488Y-4185D01*
X-1486Y-4182D01*
X-1457Y-4211D01*
D02*
G37*
G36*
X-321Y-4246D02*
X-322Y-4246D01*
X-322Y-4246D01*
X-324Y-4245D01*
X-327Y-4245D01*
X-337Y-4245D01*
X-340Y-4245D01*
Y-4205D01*
X-321Y-4204D01*
Y-4246D01*
D02*
G37*
G36*
X-1078Y-4204D02*
X-1078Y-4204D01*
X-1076Y-4205D01*
X-1073Y-4205D01*
X-1063Y-4205D01*
X-1060Y-4205D01*
Y-4245D01*
X-1079Y-4246D01*
Y-4204D01*
X-1078Y-4204D01*
D02*
G37*
G36*
X-2492Y-5307D02*
X-2478Y-5317D01*
X-2461Y-5321D01*
Y-5387D01*
X-2586Y-5512D01*
X-2596Y-5508D01*
X-2627Y-5504D01*
X-2658Y-5508D01*
X-2688Y-5520D01*
X-2713Y-5539D01*
X-2732Y-5564D01*
X-2744Y-5594D01*
X-2748Y-5625D01*
X-2744Y-5656D01*
X-2732Y-5686D01*
X-2713Y-5711D01*
X-2688Y-5730D01*
X-2683Y-5732D01*
X-2687Y-5757D01*
X-2698Y-5759D01*
X-2733Y-5773D01*
X-2763Y-5797D01*
X-2774Y-5810D01*
X-2799Y-5802D01*
Y-5511D01*
X-2619Y-5331D01*
X-2612Y-5321D01*
X-2560D01*
X-2542Y-5317D01*
X-2528Y-5307D01*
X-2524Y-5302D01*
X-2496D01*
X-2492Y-5307D01*
D02*
G37*
G36*
X224Y-5656D02*
Y-5764D01*
X214Y-5768D01*
X189Y-5787D01*
X170Y-5812D01*
X168Y-5817D01*
X143Y-5813D01*
X141Y-5802D01*
X127Y-5767D01*
X103Y-5737D01*
X73Y-5713D01*
X38Y-5699D01*
X0Y-5694D01*
X-38Y-5699D01*
X-73Y-5713D01*
X-103Y-5737D01*
X-127Y-5767D01*
X-141Y-5802D01*
X-143Y-5813D01*
X-168Y-5817D01*
X-170Y-5812D01*
X-189Y-5787D01*
X-214Y-5768D01*
X-224Y-5764D01*
Y-5305D01*
X-228Y-5285D01*
X-239Y-5269D01*
X-259Y-5249D01*
Y-5208D01*
X-234Y-5198D01*
X224Y-5656D01*
D02*
G37*
G36*
X-1705Y-6060D02*
X-1698Y-6065D01*
X-1692Y-6069D01*
X-1686Y-6073D01*
X-1681Y-6076D01*
X-1675Y-6078D01*
X-1669Y-6079D01*
X-1664Y-6080D01*
X-1659Y-6080D01*
X-1653Y-6079D01*
X-1725Y-6156D01*
X-1724Y-6150D01*
X-1725Y-6145D01*
X-1725Y-6139D01*
X-1727Y-6134D01*
X-1730Y-6128D01*
X-1733Y-6122D01*
X-1737Y-6116D01*
X-1742Y-6109D01*
X-1747Y-6103D01*
X-1753Y-6096D01*
X-1711Y-6054D01*
X-1705Y-6060D01*
D02*
G37*
G36*
X-2705D02*
X-2698Y-6065D01*
X-2692Y-6069D01*
X-2686Y-6073D01*
X-2681Y-6076D01*
X-2675Y-6078D01*
X-2669Y-6079D01*
X-2664Y-6080D01*
X-2659Y-6080D01*
X-2653Y-6079D01*
X-2725Y-6156D01*
X-2724Y-6150D01*
X-2725Y-6145D01*
X-2725Y-6139D01*
X-2727Y-6134D01*
X-2730Y-6128D01*
X-2733Y-6122D01*
X-2737Y-6116D01*
X-2742Y-6109D01*
X-2747Y-6103D01*
X-2753Y-6096D01*
X-2711Y-6054D01*
X-2705Y-6060D01*
D02*
G37*
G36*
X-2043Y4492D02*
X-2039Y4490D01*
X-2035Y4487D01*
X-2030Y4485D01*
X-2024Y4484D01*
X-2017Y4482D01*
X-2009Y4481D01*
X-1991Y4480D01*
X-1980Y4480D01*
Y4420D01*
X-1991Y4420D01*
X-2017Y4418D01*
X-2024Y4416D01*
X-2030Y4415D01*
X-2035Y4413D01*
X-2039Y4410D01*
X-2043Y4408D01*
X-2045Y4405D01*
Y4495D01*
X-2043Y4492D01*
D02*
G37*
G36*
X-2709Y3972D02*
X-2686Y3953D01*
X-2677Y3946D01*
X-2668Y3940D01*
X-2660Y3937D01*
X-2653Y3936D01*
X-2646Y3936D01*
X-2641Y3938D01*
X-2637Y3942D01*
X-2709Y3845D01*
X-2707Y3850D01*
X-2706Y3857D01*
X-2708Y3865D01*
X-2711Y3873D01*
X-2716Y3883D01*
X-2724Y3895D01*
X-2733Y3907D01*
X-2758Y3935D01*
X-2773Y3951D01*
X-2722Y3985D01*
X-2709Y3972D01*
D02*
G37*
G36*
X88Y-3332D02*
X87Y-3334D01*
X86Y-3337D01*
X86Y-3341D01*
X85Y-3346D01*
X84Y-3356D01*
X84Y-3370D01*
X84Y-3377D01*
X44D01*
X43Y-3370D01*
X41Y-3341D01*
X41Y-3337D01*
X40Y-3334D01*
X39Y-3332D01*
X38Y-3330D01*
X89D01*
X88Y-3332D01*
D02*
G37*
G36*
X-39D02*
X-40Y-3334D01*
X-41Y-3337D01*
X-41Y-3341D01*
X-42Y-3346D01*
X-43Y-3356D01*
X-43Y-3370D01*
X-43Y-3377D01*
X-83D01*
X-84Y-3370D01*
X-86Y-3341D01*
X-86Y-3337D01*
X-87Y-3334D01*
X-88Y-3332D01*
X-89Y-3330D01*
X-38D01*
X-39Y-3332D01*
D02*
G37*
G36*
X-166D02*
X-167Y-3334D01*
X-168Y-3337D01*
X-168Y-3341D01*
X-169Y-3346D01*
X-170Y-3356D01*
X-170Y-3370D01*
X-170Y-3377D01*
X-210D01*
X-211Y-3370D01*
X-213Y-3341D01*
X-213Y-3337D01*
X-214Y-3334D01*
X-215Y-3332D01*
X-216Y-3330D01*
X-165D01*
X-166Y-3332D01*
D02*
G37*
G36*
X-293D02*
X-294Y-3334D01*
X-295Y-3337D01*
X-295Y-3341D01*
X-296Y-3346D01*
X-297Y-3356D01*
X-297Y-3370D01*
X-297Y-3377D01*
X-337D01*
X-338Y-3370D01*
X-340Y-3341D01*
X-340Y-3337D01*
X-341Y-3334D01*
X-342Y-3332D01*
X-343Y-3330D01*
X-292D01*
X-293Y-3332D01*
D02*
G37*
G36*
X-659Y-3729D02*
X-700Y-3728D01*
X-700Y-3727D01*
X-700Y-3726D01*
X-699Y-3725D01*
X-699Y-3700D01*
X-699Y-3694D01*
X-659D01*
X-659Y-3729D01*
D02*
G37*
G36*
X-739D02*
X-781D01*
X-781Y-3728D01*
X-781Y-3727D01*
X-780Y-3722D01*
X-780Y-3687D01*
X-740D01*
X-739Y-3729D01*
D02*
G37*
G36*
X-819D02*
X-861D01*
X-861Y-3728D01*
X-861Y-3727D01*
X-860Y-3722D01*
X-860Y-3687D01*
X-820D01*
X-819Y-3729D01*
D02*
G37*
G36*
X-899D02*
X-941D01*
X-941Y-3728D01*
X-941Y-3727D01*
X-940Y-3722D01*
X-940Y-3687D01*
X-900D01*
X-899Y-3729D01*
D02*
G37*
G36*
X338Y-2639D02*
X339Y-2664D01*
X339Y-2665D01*
X340Y-2666D01*
X295D01*
X296Y-2665D01*
X296Y-2664D01*
X296Y-2663D01*
X297Y-2660D01*
X297Y-2654D01*
X298Y-2633D01*
X338D01*
X338Y-2639D01*
D02*
G37*
G36*
X342Y-3332D02*
X341Y-3334D01*
X340Y-3337D01*
X340Y-3341D01*
X339Y-3346D01*
X338Y-3356D01*
X338Y-3370D01*
X338Y-3377D01*
X298D01*
X297Y-3370D01*
X295Y-3341D01*
X295Y-3337D01*
X294Y-3334D01*
X293Y-3332D01*
X292Y-3330D01*
X343D01*
X342Y-3332D01*
D02*
G37*
G36*
X215D02*
X214Y-3334D01*
X213Y-3337D01*
X213Y-3341D01*
X212Y-3346D01*
X211Y-3356D01*
X211Y-3370D01*
X211Y-3377D01*
X171D01*
X170Y-3370D01*
X168Y-3341D01*
X168Y-3337D01*
X167Y-3334D01*
X166Y-3332D01*
X165Y-3330D01*
X216D01*
X215Y-3332D01*
D02*
G37*
G36*
X472Y-3325D02*
X472Y-3329D01*
X471Y-3332D01*
X470Y-3341D01*
X469Y-3352D01*
X468Y-3373D01*
X428Y-3380D01*
X428Y-3373D01*
X427Y-3354D01*
X426Y-3349D01*
X425Y-3344D01*
X424Y-3340D01*
X422Y-3336D01*
X420Y-3333D01*
X419Y-3330D01*
X473Y-3323D01*
X472Y-3325D01*
D02*
G37*
G36*
X941Y-3729D02*
X899D01*
X899Y-3728D01*
X899Y-3727D01*
X900Y-3722D01*
X900Y-3687D01*
X940D01*
X941Y-3729D01*
D02*
G37*
G36*
X861D02*
X819D01*
X819Y-3728D01*
X819Y-3727D01*
X820Y-3722D01*
X820Y-3687D01*
X860D01*
X861Y-3729D01*
D02*
G37*
G36*
X781D02*
X739D01*
X739Y-3728D01*
X739Y-3727D01*
X740Y-3722D01*
X740Y-3687D01*
X780D01*
X781Y-3729D01*
D02*
G37*
G36*
X941Y-3972D02*
X941Y-3973D01*
X940Y-3978D01*
X940Y-4013D01*
X900D01*
X899Y-3971D01*
X941D01*
X941Y-3972D01*
D02*
G37*
G36*
X861D02*
X861Y-3973D01*
X860Y-3978D01*
X860Y-4013D01*
X820D01*
X819Y-3971D01*
X861D01*
X861Y-3972D01*
D02*
G37*
G36*
X781D02*
X781Y-3973D01*
X780Y-3978D01*
X780Y-4013D01*
X740D01*
X739Y-3971D01*
X781D01*
X781Y-3972D01*
D02*
G37*
G36*
X701D02*
X701Y-3973D01*
X700Y-3978D01*
X700Y-4013D01*
X660D01*
X659Y-3971D01*
X701D01*
X701Y-3972D01*
D02*
G37*
G36*
X900Y-4195D02*
X870Y-4225D01*
X870Y-4224D01*
X869Y-4224D01*
X869Y-4223D01*
X867Y-4220D01*
X860Y-4213D01*
X857Y-4211D01*
X886Y-4182D01*
X900Y-4195D01*
D02*
G37*
G36*
X143Y-4211D02*
X130Y-4225D01*
X100Y-4195D01*
X101Y-4195D01*
X101Y-4194D01*
X102Y-4194D01*
X105Y-4192D01*
X112Y-4185D01*
X114Y-4182D01*
X143Y-4211D01*
D02*
G37*
G36*
X1279Y-4246D02*
X1278Y-4246D01*
X1278Y-4246D01*
X1276Y-4245D01*
X1273Y-4245D01*
X1263Y-4245D01*
X1260Y-4245D01*
Y-4205D01*
X1279Y-4204D01*
Y-4246D01*
D02*
G37*
G36*
X522Y-4204D02*
X522Y-4204D01*
X524Y-4205D01*
X527Y-4205D01*
X537Y-4205D01*
X540Y-4205D01*
Y-4245D01*
X521Y-4246D01*
Y-4204D01*
X522Y-4204D01*
D02*
G37*
D10*
X570Y-320D02*
X615Y-365D01*
X280Y-390D02*
X580D01*
X270Y-380D02*
X280Y-390D01*
X268Y-380D02*
X270D01*
X210Y-322D02*
Y-300D01*
Y-322D02*
X268Y-380D01*
X580Y-390D02*
X595Y-405D01*
X1139Y-365D02*
X1170Y-334D01*
X615Y-365D02*
X1139D01*
X1237Y-329D02*
X1248Y-319D01*
Y-265D01*
X1164Y-405D02*
X1237Y-332D01*
Y-329D01*
X595Y-405D02*
X1164D01*
X1170Y-334D02*
Y-332D01*
X1182Y-319D01*
Y-265D01*
D22*
X-995Y680D02*
D03*
Y880D02*
D03*
X-820Y680D02*
D03*
Y880D02*
D03*
X-120Y880D02*
D03*
Y680D02*
D03*
X-530Y1680D02*
D03*
Y1880D02*
D03*
X1560Y-4625D02*
D03*
Y-4425D02*
D03*
D23*
X420Y3120D02*
D03*
D24*
Y2895D02*
D03*
X-420D02*
D03*
X420Y3345D02*
D03*
X-420D02*
D03*
D25*
X-720Y-950D02*
D03*
X-920D02*
D03*
X-720Y-760D02*
D03*
X-920D02*
D03*
X-340Y1060D02*
D03*
X-540D02*
D03*
X740Y-20D02*
D03*
X940D02*
D03*
X1300D02*
D03*
X1100D02*
D03*
X-10Y2260D02*
D03*
X-210D02*
D03*
X-10Y2070D02*
D03*
X-210D02*
D03*
X380Y2260D02*
D03*
X180D02*
D03*
X-2630Y-4500D02*
D03*
X-2430D02*
D03*
X180Y2070D02*
D03*
X380D02*
D03*
X-2460Y3880D02*
D03*
X-2660D02*
D03*
D26*
X-2350Y4345D02*
X-2290Y4405D01*
X-2350Y770D02*
Y4345D01*
X-2460Y1020D02*
Y3690D01*
X-2250Y4425D02*
Y4450D01*
X-2250Y550D02*
X-2250Y4150D01*
X-1475Y4995D02*
X-1388D01*
X-1900Y39D02*
X-1671Y-190D01*
X-2000Y-3D02*
X-1653Y-350D01*
X-1800Y80D02*
X-1610Y-110D01*
X-1800Y3875D02*
X-275Y5400D01*
X-1800Y80D02*
X-1800Y3875D01*
X-1900Y3920D02*
X-1740Y4080D01*
X-1900Y39D02*
X-1900Y3920D01*
X-1740Y4080D02*
Y4380D01*
X-2000Y3950D02*
X-1840Y4110D01*
Y4590D01*
X-2000Y-3D02*
X-2000Y3950D01*
X-2100Y5150D02*
Y5907D01*
X-2268Y6075D02*
X-2100Y5907D01*
X-100Y5200D02*
X100D01*
X-250D02*
X-100D01*
X-1185Y5165D02*
Y5315D01*
X-1120Y5380D01*
X-1200Y5150D02*
X-1185Y5165D01*
X-1740Y4380D02*
X-1400Y4720D01*
Y4950D01*
X-2091Y4841D02*
X-1840Y4590D01*
X-1200Y4950D02*
Y5150D01*
X-1400D02*
Y5250D01*
X-1510Y5030D02*
Y5290D01*
Y5030D02*
X-1475Y4995D01*
X-1510Y5290D02*
X-1373Y5427D01*
X-1388Y4995D02*
X-1383Y4990D01*
X-1900Y5150D02*
X-1775D01*
X-1775Y5150D01*
X-1900Y4950D02*
Y5150D01*
X-2373Y5183D02*
Y5625D01*
X-2120Y4989D02*
X-2100Y4969D01*
X-2373Y5183D02*
X-2179Y4989D01*
X-2100Y4950D02*
Y4969D01*
X-2179Y4989D02*
X-2120D01*
X-2100Y4950D02*
X-2091Y4941D01*
Y4841D02*
Y4941D01*
X1480Y-740D02*
Y-655D01*
X1560Y-4625D02*
X2000D01*
X2000Y-4625D01*
X1548Y-4625D02*
X1560D01*
X1527Y-4703D02*
Y-4645D01*
X320Y-5420D02*
X810D01*
X1527Y-4645D02*
X1548Y-4625D01*
X810Y-5420D02*
X1527Y-4703D01*
X-850Y700D02*
X-830Y680D01*
X-850Y700D02*
Y780D01*
X-830Y680D02*
X-820D01*
X-2280Y-2605D02*
Y-2605D01*
X-1200Y-1525D01*
X-2280Y-2605D02*
X-2280Y-4520D01*
X-1120Y-1573D02*
Y-700D01*
X-2190Y-2643D02*
X-1120Y-1573D01*
X-2100Y-4343D02*
Y-2680D01*
X-2190Y-4410D02*
Y-2643D01*
X-2100Y-2680D02*
X-1040Y-1620D01*
Y-700D01*
X-1200Y-1525D02*
Y-700D01*
X-2405Y-5270D02*
X-2365Y-5230D01*
X-2410Y-5270D02*
X-2405D01*
X-2518Y-4625D02*
X-2410D01*
X-2630Y-4512D02*
Y-4500D01*
Y-4512D02*
X-2518Y-4625D01*
X-2280Y-4520D02*
X-2240Y-4560D01*
Y-5100D02*
Y-4560D01*
X-2365Y-5225D02*
X-2240Y-5100D01*
X-2100Y-4343D02*
X-2018Y-4425D01*
X-1170Y-5225D02*
X-530D01*
X-1645Y-4750D02*
X-1170Y-5225D01*
X-1240Y-4880D02*
X-480D01*
X-2018Y-4425D02*
X-1695D01*
X-1240Y-4880D01*
X-1850Y-5030D02*
Y-4875D01*
X-2100Y-4625D02*
X-1850Y-4875D01*
X-530Y-5420D02*
Y-5225D01*
X-530Y-5225D01*
X-1669Y-5011D02*
X-1650Y-5030D01*
X-1669Y-5011D02*
Y-4931D01*
X-2190Y-4410D02*
X-1669Y-4931D01*
X-2410Y-5050D02*
Y-4625D01*
X-2610Y-5050D02*
X-2410D01*
Y-5408D02*
Y-5270D01*
X-2627Y-5625D02*
X-2410Y-5408D01*
X-2365Y-5230D02*
Y-5225D01*
X-2627Y-5625D02*
Y-5625D01*
X-2635Y-5250D02*
X-2610D01*
X-2850Y-5490D02*
X-2655Y-5295D01*
Y-5270D02*
X-2635Y-5250D01*
X-2850Y-5957D02*
Y-5490D01*
X-2655Y-5295D02*
Y-5270D01*
X-317Y-2728D02*
Y-2530D01*
Y-2850D02*
Y-2728D01*
X594Y3760D02*
Y3772D01*
X677Y3855D02*
X850D01*
X594Y3772D02*
X677Y3855D01*
X-275Y5400D02*
X-100D01*
X-275D02*
Y5873D01*
X100Y5400D02*
X275Y5575D01*
X845Y3860D02*
Y3950D01*
Y3860D02*
X850Y3855D01*
X-2270Y4405D02*
X-2250Y4425D01*
X-2290Y4405D02*
X-2270D01*
X-2460Y3690D02*
Y3880D01*
X-2460Y3880D02*
Y4085D01*
X2500Y4582D02*
Y4707D01*
X-1850Y-5225D02*
Y-5030D01*
X-530Y-5225D02*
Y-5030D01*
X-530Y-5030D02*
X-530Y-5030D01*
Y-5225D02*
X-530Y-5225D01*
X-480Y-4880D02*
X-330Y-5030D01*
X275Y-5635D01*
X-330Y-5250D02*
Y-5225D01*
X-275Y-5873D02*
Y-5305D01*
X-330Y-5250D02*
X-275Y-5305D01*
X-1650Y-5030D02*
X-1525Y-5155D01*
X-1525Y-5485D02*
X-1525Y-5155D01*
X-1650Y-5225D02*
X-1650Y-5325D01*
X275Y-5873D02*
Y-5635D01*
X-3000Y4625D02*
X-2460Y4085D01*
X-2660Y3880D02*
Y3892D01*
X-2680Y3912D02*
X-2660Y3892D01*
X-2692Y3912D02*
X-2680D01*
X-2955Y4175D02*
X-2692Y3912D01*
X-3000Y4175D02*
X-2955D01*
X-1850Y-5957D02*
Y-5525D01*
Y-5957D02*
X-1732Y-6075D01*
X-1732D01*
X-1632Y-6175D01*
X-1627D01*
X-1850Y-5525D02*
X-1650Y-5325D01*
X-2850Y-5957D02*
X-2732Y-6075D01*
X-2732D01*
X-2632Y-6175D01*
X-2627D01*
X275Y5575D02*
Y5873D01*
X-1268Y6075D02*
X-1150Y5957D01*
X-1268Y6075D02*
X-1268D01*
X-1368Y6175D02*
X-1268Y6075D01*
X-1373Y6175D02*
X-1368D01*
X-1150Y5500D02*
Y5957D01*
X-1400Y5250D02*
X-1150Y5500D01*
X-2268Y6075D02*
X-2268D01*
X-2368Y6175D02*
X-2268Y6075D01*
X-2373Y6175D02*
X-2368D01*
X-2075Y4450D02*
X-1975D01*
X-1975Y4450D01*
X-2075Y4150D02*
X-1975D01*
X-2075Y4150D02*
X-2075Y4150D01*
X-1975D02*
X-1975Y4150D01*
X-317Y-2850D02*
X-242Y-2925D01*
X445Y-2855D02*
Y-2728D01*
X375Y-2925D02*
X445Y-2855D01*
X-242Y-2925D02*
X375D01*
X-1627Y-5625D02*
Y-5587D01*
X-1525Y-5485D01*
X-1373Y5427D02*
Y5625D01*
D27*
X-1600Y-4300D02*
Y-3540D01*
X-470Y-2410D02*
Y-666D01*
X-1600Y-3540D02*
X-470Y-2410D01*
X-1600Y-4300D02*
X-1475Y-4425D01*
X-1121Y356D02*
Y431D01*
X-1220Y530D02*
X-1121Y431D01*
X-1288Y438D02*
X-1237D01*
X-1200Y401D01*
X-1290Y440D02*
X-1288Y438D01*
X-1121Y356D02*
X-1120Y355D01*
X-1200D02*
Y401D01*
X-1671Y-190D02*
X-1345D01*
X-1530Y-270D02*
X-1345D01*
X-1345Y-270D01*
X-1530Y-270D02*
X-1530Y-270D01*
X-1610Y-110D02*
X-1345D01*
X-1653Y-350D02*
X-1345D01*
X-1670Y820D02*
X-629Y1861D01*
X-549D02*
X-530Y1880D01*
X-1670Y140D02*
Y820D01*
X-629Y1861D02*
X-549D01*
X-530Y1880D02*
X-518D01*
X273Y4907D02*
X2500D01*
X270Y4910D02*
X273Y4907D01*
X275Y-805D02*
X325D01*
X162Y-692D02*
X275Y-805D01*
X325D02*
X350Y-830D01*
Y-855D02*
Y-830D01*
X-270Y-690D02*
Y-460D01*
X1700Y-4425D02*
X1950Y-4175D01*
X1560Y-4425D02*
X1700D01*
X1360D02*
X1560D01*
X-380Y-350D02*
X-270Y-460D01*
X-495Y-350D02*
X-380D01*
X-638Y-542D02*
Y-498D01*
X-594Y-542D02*
X-470Y-666D01*
X-638Y-542D02*
X-594D01*
X530Y1610D02*
Y1790D01*
X730Y1590D02*
X925D01*
X930Y1595D01*
X730Y1390D02*
Y1590D01*
X380Y2260D02*
X930D01*
X930Y2260D01*
X380Y2260D02*
X380Y2260D01*
Y2070D02*
X380Y2070D01*
X380Y2070D02*
Y2260D01*
X-10Y2070D02*
Y2260D01*
X-518Y1880D02*
X-493Y1905D01*
Y1917D01*
X-420Y1990D02*
Y2895D01*
X-493Y1917D02*
X-420Y1990D01*
X-1590Y171D02*
Y790D01*
X-820Y1560D01*
X-1510Y760D02*
X-760Y1510D01*
X-1510Y210D02*
Y760D01*
X-1670Y140D02*
X-1500Y-30D01*
X-1590Y171D02*
X-1469Y50D01*
X-1530Y-670D02*
Y-495D01*
X-1500Y-30D02*
X-1345D01*
X-1469Y50D02*
X-1345D01*
X-1346Y131D02*
X-1345Y130D01*
X-1510Y210D02*
X-1431Y131D01*
X-1346D01*
X-720Y-950D02*
Y-937D01*
X-820Y-880D02*
X-788Y-912D01*
X-820Y-880D02*
Y-650D01*
X-745Y-912D02*
X-720Y-937D01*
X-788Y-912D02*
X-745D01*
X-2430Y-1570D02*
X-1530Y-670D01*
X-2430Y-4180D02*
Y-1570D01*
X-1120Y-700D02*
Y-495D01*
X-1200Y-700D02*
Y-495D01*
X-2430Y-4500D02*
Y-4300D01*
Y-4180D01*
X-30Y-2250D02*
X191Y-2471D01*
X-30Y-2250D02*
Y-180D01*
X191Y-2728D02*
Y-2471D01*
X-110Y-2560D02*
Y-210D01*
Y-2560D02*
X-63Y-2607D01*
Y-2728D02*
Y-2607D01*
X-190Y-2728D02*
Y-244D01*
X-420Y2895D02*
X420D01*
X925Y3095D02*
X930Y3090D01*
X680Y3095D02*
X925D01*
X420Y2895D02*
X680D01*
X-260Y50D02*
X-30Y-180D01*
X-290Y-30D02*
X-110Y-210D01*
X-324Y-110D02*
X-190Y-244D01*
X-495Y-110D02*
X-324D01*
X-495Y50D02*
X-260D01*
X-495Y-30D02*
X-290D01*
X-495Y-190D02*
X-350D01*
X-350Y-190D01*
X-495Y-270D02*
X-290D01*
X-720Y-760D02*
Y-495D01*
X-880Y-590D02*
Y-495D01*
Y-590D02*
X-820Y-650D01*
X-985Y680D02*
X-960Y655D01*
X-1345Y210D02*
Y355D01*
X-820Y680D02*
X-800Y660D01*
X-995Y680D02*
X-985D01*
X-800Y355D02*
Y660D01*
X-880Y355D02*
Y520D01*
X-960Y355D02*
Y655D01*
X-1475Y-4425D02*
X1360D01*
D28*
X-1720Y-3510D02*
X-570Y-2360D01*
Y-760D01*
X-1720Y-4020D02*
Y-3510D01*
X-570Y-760D02*
X-570Y-760D01*
X270Y4910D02*
Y5030D01*
Y4097D02*
Y4910D01*
X100Y5200D02*
X270Y5030D01*
X-430Y390D02*
X-130D01*
X20Y540D01*
X130D01*
Y810D01*
X320Y1000D01*
X930D01*
X-1980Y-4280D02*
X-1980D01*
X-1720Y-4020D01*
X270Y4097D02*
X594Y3772D01*
X1275Y-1370D02*
X1570D01*
X940Y-20D02*
Y86D01*
X766Y247D02*
Y260D01*
Y247D02*
X818Y196D01*
X830D02*
X940Y86D01*
X818Y196D02*
X830D01*
X470Y-1370D02*
X730D01*
X785D01*
D29*
X450Y-590D02*
Y-470D01*
X370Y-590D02*
Y-470D01*
X290Y-590D02*
Y-470D01*
X210Y-590D02*
Y-470D01*
X210Y-590D02*
X210Y-590D01*
Y-470D02*
X210Y-470D01*
X290Y-210D02*
Y-90D01*
Y-300D02*
Y-210D01*
X370Y-175D02*
Y-90D01*
Y-300D02*
Y-175D01*
X290Y-90D02*
X290Y-90D01*
X290Y-300D02*
X290Y-300D01*
X562Y-183D02*
X645Y-265D01*
X793D01*
X450Y-183D02*
X562D01*
X450D02*
Y-90D01*
Y-300D02*
Y-183D01*
X210Y-300D02*
Y-90D01*
X-495Y130D02*
X186D01*
X210Y80D02*
Y106D01*
X186Y130D02*
X210Y106D01*
X290Y80D02*
Y150D01*
X230Y210D02*
X290Y150D01*
X-495Y210D02*
X230D01*
X370Y80D02*
Y230D01*
X450Y80D02*
Y196D01*
X130Y340D02*
X330D01*
X-560Y290D02*
X-50D01*
X0Y340D02*
X130D01*
X-50Y290D02*
X0Y340D01*
X-800Y50D02*
X-560Y290D01*
X-800Y-495D02*
Y50D01*
X-640Y355D02*
Y394D01*
X-375Y620D02*
Y655D01*
X-633Y401D02*
X-594D01*
X-640Y394D02*
X-633Y401D01*
X-594D02*
X-375Y620D01*
Y655D02*
X-340Y690D01*
X-330D01*
X-325Y685D02*
X-125D01*
X-330Y690D02*
X-325Y685D01*
X-125D02*
X-120Y680D01*
X-570Y870D02*
X-540Y900D01*
Y1060D01*
X-690Y750D02*
X-570Y870D01*
X-560D01*
X-690Y520D02*
Y750D01*
X-720Y355D02*
Y490D01*
X-690Y520D01*
X550Y-855D02*
X793D01*
X1248D02*
X1480D01*
X445Y-3272D02*
X448Y-3276D01*
X840Y-3765D02*
Y-3625D01*
X715Y-3500D02*
X840Y-3625D01*
X448Y-3427D02*
X521Y-3500D01*
X448Y-3427D02*
Y-3276D01*
X521Y-3500D02*
X715D01*
X318Y-3417D02*
Y-3272D01*
Y-3417D02*
X475Y-3575D01*
X675D01*
X760Y-3660D01*
Y-3765D02*
Y-3660D01*
X191Y-3416D02*
Y-3272D01*
X679Y-3764D02*
X680Y-3765D01*
X191Y-3416D02*
X425Y-3650D01*
X625D02*
X679Y-3704D01*
X425Y-3650D02*
X625D01*
X679Y-3764D02*
Y-3704D01*
X64Y-3500D02*
Y-3272D01*
X-87Y-3650D02*
X64Y-3500D01*
X-680Y-3765D02*
X-679Y-3764D01*
Y-3694D02*
X-635Y-3650D01*
X-87D01*
X-679Y-3764D02*
Y-3694D01*
X-63Y-3462D02*
Y-3272D01*
X-760Y-3765D02*
Y-3675D01*
X-660Y-3575D02*
X-176D01*
X-63Y-3462D01*
X-760Y-3675D02*
X-660Y-3575D01*
X-190Y-3440D02*
Y-3272D01*
X-250Y-3500D02*
X-190Y-3440D01*
X-700Y-3500D02*
X-250D01*
X-840Y-3765D02*
Y-3640D01*
X-700Y-3500D01*
X-350Y-3425D02*
X-317Y-3392D01*
Y-3272D01*
X-725Y-3425D02*
X-350D01*
X-920Y-3620D02*
X-725Y-3425D01*
X-920Y-3765D02*
Y-3620D01*
X920Y-3765D02*
Y-3570D01*
X575Y-3225D02*
X920Y-3570D01*
X575Y-3225D02*
Y-2650D01*
X500Y-2575D02*
X575Y-2650D01*
X375Y-2575D02*
X500D01*
X318Y-2633D02*
X375Y-2575D01*
X318Y-2728D02*
Y-2633D01*
X920Y-4045D02*
X1100Y-4225D01*
X920Y-4045D02*
Y-3935D01*
X1100Y-4225D02*
X1300D01*
X840Y-4165D02*
X900Y-4225D01*
X840Y-4165D02*
Y-3935D01*
X600Y-4225D02*
X760Y-4065D01*
Y-3935D01*
X500Y-4225D02*
X600D01*
Y-4100D02*
X680Y-4020D01*
Y-3935D01*
X225Y-4100D02*
X600D01*
X100Y-4225D02*
X225Y-4100D01*
X-680Y-4065D02*
Y-3935D01*
Y-4065D02*
X-520Y-4225D01*
X-300D01*
X-760Y-4165D02*
X-700Y-4225D01*
X-760Y-4165D02*
Y-3935D01*
X-1010Y-4225D02*
X-840Y-4055D01*
Y-3935D01*
X-1100Y-4225D02*
X-1010D01*
X-1500D02*
X-1375Y-4100D01*
X-1015D02*
X-920Y-4005D01*
Y-3935D01*
X-1375Y-4100D02*
X-1015D01*
D30*
X1240Y2140D02*
Y3680D01*
X1125Y3795D02*
Y3840D01*
Y3795D02*
X1240Y3680D01*
X1125Y3600D02*
X1170Y3555D01*
X1110Y3665D02*
X1125Y3650D01*
Y3600D02*
Y3650D01*
X1090Y3665D02*
X1110D01*
X1170Y1980D02*
Y3555D01*
X1110Y3855D02*
X1125Y3840D01*
X1090Y3855D02*
X1110D01*
X20Y1922D02*
Y1930D01*
X-51Y1909D02*
X0Y1858D01*
X-51Y1909D02*
Y1946D01*
X0Y1770D02*
Y1858D01*
X20Y1922D02*
X50Y1892D01*
X-57Y1952D02*
X-51Y1946D01*
X50Y1770D02*
Y1892D01*
X58Y2023D02*
X101Y1979D01*
Y1891D02*
Y1979D01*
X100Y1890D02*
X101Y1891D01*
X100Y1770D02*
Y1890D01*
X25Y2023D02*
X58D01*
X-10Y2058D02*
X25Y2023D01*
X-10Y2058D02*
Y2070D01*
X-102Y1852D02*
X-71D01*
X-50Y1832D01*
Y1770D02*
Y1832D01*
X240Y1680D02*
X350D01*
X413Y1617D01*
X503D02*
X520Y1600D01*
X413Y1617D02*
X503D01*
X488Y1444D02*
X496D01*
X530Y1410D01*
Y1390D02*
Y1410D01*
X240Y1630D02*
X302D01*
X488Y1444D01*
X530Y1590D02*
Y1610D01*
X150Y1770D02*
Y1827D01*
X380Y2057D02*
Y2070D01*
X150Y1827D02*
X380Y2057D01*
X-530Y1680D02*
X-240D01*
X-820Y1560D02*
X-800Y1580D01*
X-240D01*
X-740Y1530D02*
X-240D01*
X-760Y1510D02*
X-740Y1530D01*
X-920Y-950D02*
Y-760D01*
X-960Y-620D02*
X-920Y-660D01*
X-960Y-620D02*
Y-495D01*
X-920Y-760D02*
Y-660D01*
D31*
X1070Y3665D02*
X1090D01*
X771Y4400D02*
X808Y4437D01*
X770Y4400D02*
X771D01*
X808Y4437D02*
Y4503D01*
X895Y4590D01*
X1070Y4282D02*
X1152Y4200D01*
X1070Y4282D02*
Y4290D01*
X1152Y4200D02*
X1170D01*
X1030Y4001D02*
Y4010D01*
X1002Y3923D02*
Y3972D01*
X1030Y4001D01*
X920Y3911D02*
Y4004D01*
X914Y4010D02*
X920Y4004D01*
X1002Y3923D02*
X1070Y3855D01*
X914Y4266D02*
X920D01*
X1004Y4350D02*
X1010D01*
X920Y4266D02*
X1004Y4350D01*
X1070Y3855D02*
X1090D01*
X920Y3911D02*
X933Y3898D01*
Y3822D02*
X1052Y3703D01*
X933Y3822D02*
Y3898D01*
X1052Y3683D02*
X1070Y3665D01*
X1052Y3683D02*
Y3703D01*
D32*
X3050Y50D02*
Y450D01*
X2750Y750D02*
X3050Y450D01*
X2750Y-250D02*
X3050Y50D01*
X-3050Y-450D02*
X-2750Y-750D01*
X-3050Y-450D02*
Y-50D01*
X-2750Y250D01*
D33*
X560Y4447D02*
D03*
X1380D02*
D03*
Y4153D02*
D03*
X560D02*
D03*
D34*
X-2750Y-750D02*
D03*
Y-250D02*
D03*
X-2750Y250D02*
D03*
Y750D02*
D03*
X2750D02*
D03*
Y250D02*
D03*
Y-250D02*
D03*
Y-750D02*
D03*
D35*
X275Y-5873D02*
D03*
X-275Y-6127D02*
D03*
X275D02*
D03*
X-1627Y-5625D02*
D03*
X-1373Y-6175D02*
D03*
Y-5625D02*
D03*
X-2627D02*
D03*
X-2373Y-6175D02*
D03*
Y-5625D02*
D03*
X-275Y5873D02*
D03*
X275Y6127D02*
D03*
X-275D02*
D03*
X-1373Y5625D02*
D03*
X-1627Y6175D02*
D03*
Y5625D02*
D03*
X-2373D02*
D03*
X-2627Y6175D02*
D03*
Y5625D02*
D03*
X-275Y-5873D02*
D03*
X-1627Y-6175D02*
D03*
X-2627D02*
D03*
X275Y5873D02*
D03*
X-1373Y6175D02*
D03*
X-2373D02*
D03*
D36*
X4450Y3806D02*
D03*
Y1706D02*
D03*
Y-1706D02*
D03*
Y-3806D02*
D03*
X-4450D02*
D03*
Y-1706D02*
D03*
Y1706D02*
D03*
Y3806D02*
D03*
D37*
X-1810Y-4318D02*
D03*
X-1930Y-4520D02*
D03*
X1090Y2630D02*
D03*
X562Y0D02*
D03*
X64Y-3080D02*
D03*
X570Y-3380D02*
D03*
X1075Y-615D02*
D03*
Y-505D02*
D03*
X965Y-615D02*
D03*
Y-505D02*
D03*
X-1645Y-4750D02*
D03*
X-2460Y4266D02*
D03*
X-822Y-1400D02*
D03*
X662Y-590D02*
D03*
X-701Y-160D02*
D03*
X4600Y5250D02*
D03*
X4750Y4950D02*
D03*
X4600Y4650D02*
D03*
X4750Y4350D02*
D03*
Y3150D02*
D03*
X4600Y2850D02*
D03*
X4750Y2550D02*
D03*
X4600Y2250D02*
D03*
X4750Y1350D02*
D03*
X4600Y1050D02*
D03*
X4750Y750D02*
D03*
X4600Y450D02*
D03*
X4750Y150D02*
D03*
X4600Y-150D02*
D03*
X4750Y-450D02*
D03*
X4600Y-750D02*
D03*
X4750Y-1050D02*
D03*
Y-2250D02*
D03*
X4600Y-2550D02*
D03*
X4750Y-2850D02*
D03*
X4600Y-3150D02*
D03*
X4750Y-3450D02*
D03*
X4600Y-4350D02*
D03*
X4750Y-4650D02*
D03*
X4600Y-4950D02*
D03*
X4750Y-5250D02*
D03*
X4450Y5550D02*
D03*
X4300Y5250D02*
D03*
X4450Y4950D02*
D03*
X4300Y4650D02*
D03*
X4450Y4350D02*
D03*
Y3150D02*
D03*
X4300Y2850D02*
D03*
X4450Y2550D02*
D03*
X4300Y2250D02*
D03*
Y1050D02*
D03*
X4450Y750D02*
D03*
X4300Y450D02*
D03*
X4450Y150D02*
D03*
X4300Y-150D02*
D03*
X4450Y-450D02*
D03*
X4300Y-750D02*
D03*
X4450Y-1050D02*
D03*
Y-2250D02*
D03*
X4300Y-2550D02*
D03*
X4450Y-2850D02*
D03*
X4300Y-3150D02*
D03*
Y-4350D02*
D03*
X4450Y-4650D02*
D03*
X4300Y-4950D02*
D03*
X4450Y-5250D02*
D03*
X4300Y-5550D02*
D03*
X4000Y5850D02*
D03*
X4150Y5550D02*
D03*
X4000Y5250D02*
D03*
X4150Y4950D02*
D03*
X4000Y4650D02*
D03*
X4150Y4350D02*
D03*
X4000Y4050D02*
D03*
Y3450D02*
D03*
X4150Y3150D02*
D03*
X4000Y2850D02*
D03*
X4150Y2550D02*
D03*
X4000Y2250D02*
D03*
Y1650D02*
D03*
X4150Y1350D02*
D03*
X4000Y1050D02*
D03*
X4150Y750D02*
D03*
X4000Y450D02*
D03*
X4150Y150D02*
D03*
X4000Y-150D02*
D03*
X4150Y-450D02*
D03*
X4000Y-750D02*
D03*
X4150Y-1050D02*
D03*
X4000Y-1350D02*
D03*
Y-1950D02*
D03*
X4150Y-2250D02*
D03*
X4000Y-2550D02*
D03*
X4150Y-2850D02*
D03*
X4000Y-3150D02*
D03*
X4150Y-3450D02*
D03*
X4000Y-3750D02*
D03*
Y-4350D02*
D03*
X4150Y-4650D02*
D03*
X4000Y-4950D02*
D03*
X4150Y-5250D02*
D03*
X4000Y-5550D02*
D03*
X3700Y5850D02*
D03*
X3850Y5550D02*
D03*
X3700Y5250D02*
D03*
X3850Y4950D02*
D03*
X3700Y4650D02*
D03*
X3850Y4350D02*
D03*
X3700Y4050D02*
D03*
X3850Y3750D02*
D03*
X3700Y3450D02*
D03*
X3850Y3150D02*
D03*
X3700Y2850D02*
D03*
X3850Y2550D02*
D03*
X3700Y2250D02*
D03*
X3850Y1950D02*
D03*
X3700Y1650D02*
D03*
X3850Y1350D02*
D03*
X3700Y1050D02*
D03*
X3850Y750D02*
D03*
X3700Y450D02*
D03*
X3850Y150D02*
D03*
X3700Y-150D02*
D03*
X3850Y-450D02*
D03*
X3700Y-750D02*
D03*
X3850Y-1050D02*
D03*
X3700Y-1350D02*
D03*
X3850Y-1650D02*
D03*
X3700Y-1950D02*
D03*
X3850Y-2250D02*
D03*
X3700Y-2550D02*
D03*
X3850Y-2850D02*
D03*
X3700Y-3150D02*
D03*
X3850Y-3450D02*
D03*
X3700Y-3750D02*
D03*
X3850Y-4050D02*
D03*
X3700Y-4350D02*
D03*
X3850Y-4650D02*
D03*
X3700Y-4950D02*
D03*
X3850Y-5250D02*
D03*
X3700Y-5550D02*
D03*
X3850Y-5850D02*
D03*
X3550Y6150D02*
D03*
X3400Y5850D02*
D03*
X3550Y5550D02*
D03*
X3400Y5250D02*
D03*
X3550Y4950D02*
D03*
X3400Y4650D02*
D03*
X3550Y4350D02*
D03*
X3400Y4050D02*
D03*
X3550Y3750D02*
D03*
X3400Y3450D02*
D03*
X3550Y3150D02*
D03*
X3400Y2850D02*
D03*
X3550Y2550D02*
D03*
X3400Y2250D02*
D03*
X3550Y1950D02*
D03*
X3400Y1650D02*
D03*
X3550Y1350D02*
D03*
X3400Y1050D02*
D03*
X3550Y750D02*
D03*
X3400Y450D02*
D03*
X3550Y150D02*
D03*
X3400Y-150D02*
D03*
X3550Y-450D02*
D03*
X3400Y-750D02*
D03*
X3550Y-1050D02*
D03*
X3400Y-1350D02*
D03*
X3550Y-1650D02*
D03*
X3400Y-1950D02*
D03*
X3550Y-2250D02*
D03*
X3400Y-2550D02*
D03*
X3550Y-2850D02*
D03*
X3400Y-3150D02*
D03*
X3550Y-3450D02*
D03*
X3400Y-3750D02*
D03*
X3550Y-4050D02*
D03*
X3400Y-4350D02*
D03*
X3550Y-4650D02*
D03*
X3400Y-4950D02*
D03*
X3550Y-5250D02*
D03*
X3400Y-5550D02*
D03*
X3550Y-5850D02*
D03*
X3400Y-6150D02*
D03*
X3250Y6150D02*
D03*
X3100Y5850D02*
D03*
X3250Y5550D02*
D03*
X3100Y5250D02*
D03*
X3250Y4950D02*
D03*
X3100Y4650D02*
D03*
X3250Y4350D02*
D03*
X3100Y4050D02*
D03*
X3250Y3750D02*
D03*
X3100Y3450D02*
D03*
X3250Y3150D02*
D03*
X3100Y2850D02*
D03*
X3250Y2550D02*
D03*
X3100Y2250D02*
D03*
X3250Y1950D02*
D03*
X3100Y1650D02*
D03*
X3250Y1350D02*
D03*
X3100Y1050D02*
D03*
X3250Y750D02*
D03*
Y150D02*
D03*
Y-450D02*
D03*
X3100Y-750D02*
D03*
X3250Y-1050D02*
D03*
X3100Y-1350D02*
D03*
X3250Y-1650D02*
D03*
X3100Y-1950D02*
D03*
X3250Y-2250D02*
D03*
X3100Y-2550D02*
D03*
X3250Y-2850D02*
D03*
X3100Y-3150D02*
D03*
X3250Y-3450D02*
D03*
X3100Y-3750D02*
D03*
X3250Y-4050D02*
D03*
X3100Y-4350D02*
D03*
X3250Y-4650D02*
D03*
X3100Y-4950D02*
D03*
X3250Y-5250D02*
D03*
X3100Y-5550D02*
D03*
X3250Y-5850D02*
D03*
X3100Y-6150D02*
D03*
X2950Y6150D02*
D03*
X2800Y5850D02*
D03*
X2950Y5550D02*
D03*
X2800Y5250D02*
D03*
X2950Y4950D02*
D03*
X2800Y4650D02*
D03*
X2950Y4350D02*
D03*
X2800Y4050D02*
D03*
X2950Y3750D02*
D03*
X2800Y3450D02*
D03*
X2950Y3150D02*
D03*
X2800Y2850D02*
D03*
X2950Y2550D02*
D03*
X2800Y2250D02*
D03*
X2950Y1950D02*
D03*
X2800Y1650D02*
D03*
X2950Y1350D02*
D03*
X2800Y1050D02*
D03*
X2950Y-1050D02*
D03*
X2800Y-1350D02*
D03*
X2950Y-1650D02*
D03*
X2800Y-1950D02*
D03*
X2950Y-2250D02*
D03*
X2800Y-2550D02*
D03*
X2950Y-2850D02*
D03*
X2800Y-3150D02*
D03*
X2950Y-3450D02*
D03*
X2800Y-3750D02*
D03*
X2950Y-4050D02*
D03*
X2800Y-4350D02*
D03*
X2950Y-4650D02*
D03*
X2800Y-4950D02*
D03*
X2950Y-5250D02*
D03*
X2800Y-5550D02*
D03*
X2950Y-5850D02*
D03*
X2800Y-6150D02*
D03*
X2650Y6150D02*
D03*
X2500Y5850D02*
D03*
X2650Y5550D02*
D03*
X2500Y5250D02*
D03*
Y4050D02*
D03*
X2650Y3750D02*
D03*
X2500Y3450D02*
D03*
X2650Y3150D02*
D03*
X2500Y2850D02*
D03*
X2650Y2550D02*
D03*
X2500Y2250D02*
D03*
X2650Y1950D02*
D03*
X2500Y1650D02*
D03*
X2650Y1350D02*
D03*
X2500Y1050D02*
D03*
Y450D02*
D03*
Y-150D02*
D03*
Y-750D02*
D03*
Y-1350D02*
D03*
X2650Y-1650D02*
D03*
X2500Y-1950D02*
D03*
X2650Y-2250D02*
D03*
X2500Y-2550D02*
D03*
X2650Y-2850D02*
D03*
X2500Y-3150D02*
D03*
X2650Y-3450D02*
D03*
X2500Y-3750D02*
D03*
Y-4350D02*
D03*
Y-4950D02*
D03*
X2650Y-5250D02*
D03*
X2500Y-5550D02*
D03*
X2650Y-5850D02*
D03*
X2500Y-6150D02*
D03*
X2350Y6150D02*
D03*
X2200Y5850D02*
D03*
X2350Y5550D02*
D03*
X2200Y5250D02*
D03*
Y4650D02*
D03*
Y4050D02*
D03*
X2350Y3750D02*
D03*
X2200Y3450D02*
D03*
X2350Y3150D02*
D03*
X2200Y2850D02*
D03*
X2350Y2550D02*
D03*
X2200Y2250D02*
D03*
X2350Y1950D02*
D03*
X2200Y1650D02*
D03*
X2350Y1350D02*
D03*
X2200Y1050D02*
D03*
X2350Y750D02*
D03*
X2200Y450D02*
D03*
X2350Y150D02*
D03*
X2200Y-150D02*
D03*
X2350Y-1650D02*
D03*
X2200Y-1950D02*
D03*
X2350Y-2250D02*
D03*
X2200Y-2550D02*
D03*
X2350Y-2850D02*
D03*
X2200Y-3150D02*
D03*
X2350Y-3450D02*
D03*
X2200Y-3750D02*
D03*
X2350Y-4050D02*
D03*
X2200Y-4350D02*
D03*
Y-4950D02*
D03*
X2350Y-5250D02*
D03*
X2200Y-5550D02*
D03*
X2350Y-5850D02*
D03*
X2200Y-6150D02*
D03*
X2050Y6150D02*
D03*
X1900Y5850D02*
D03*
X2050Y5550D02*
D03*
X1900Y5250D02*
D03*
Y4650D02*
D03*
X2050Y4350D02*
D03*
X1900Y4050D02*
D03*
X2050Y3750D02*
D03*
X1900Y3450D02*
D03*
X2050Y3150D02*
D03*
X1900Y2850D02*
D03*
X2050Y2550D02*
D03*
X1900Y2250D02*
D03*
X2050Y1950D02*
D03*
X1900Y1650D02*
D03*
X2050Y1350D02*
D03*
X1900Y1050D02*
D03*
X2050Y750D02*
D03*
X1900Y450D02*
D03*
X2050Y150D02*
D03*
X1900Y-150D02*
D03*
X2050Y-450D02*
D03*
X1900Y-750D02*
D03*
X2050Y-1650D02*
D03*
X1900Y-1950D02*
D03*
X2050Y-2250D02*
D03*
X1900Y-2550D02*
D03*
X2050Y-2850D02*
D03*
X1900Y-3150D02*
D03*
X2050Y-3450D02*
D03*
X1900Y-3750D02*
D03*
X2050Y-4050D02*
D03*
X1900Y-4950D02*
D03*
X2050Y-5250D02*
D03*
X1900Y-5550D02*
D03*
X2050Y-5850D02*
D03*
X1900Y-6150D02*
D03*
X1750Y6150D02*
D03*
X1600Y5850D02*
D03*
X1750Y5550D02*
D03*
X1600Y5250D02*
D03*
Y4650D02*
D03*
X1750Y4350D02*
D03*
X1600Y4050D02*
D03*
X1750Y3750D02*
D03*
X1600Y3450D02*
D03*
X1750Y3150D02*
D03*
X1600Y2850D02*
D03*
X1750Y2550D02*
D03*
X1600Y2250D02*
D03*
X1750Y1950D02*
D03*
X1600Y1650D02*
D03*
X1750Y1350D02*
D03*
X1600Y1050D02*
D03*
X1750Y750D02*
D03*
X1600Y450D02*
D03*
X1750Y150D02*
D03*
X1600Y-150D02*
D03*
X1750Y-450D02*
D03*
Y-1650D02*
D03*
Y-2250D02*
D03*
X1600Y-2550D02*
D03*
X1750Y-2850D02*
D03*
X1600Y-3150D02*
D03*
X1750Y-3450D02*
D03*
X1600Y-3750D02*
D03*
Y-4950D02*
D03*
X1750Y-5250D02*
D03*
X1600Y-5550D02*
D03*
X1750Y-5850D02*
D03*
X1600Y-6150D02*
D03*
X1450Y6150D02*
D03*
X1300Y5850D02*
D03*
X1450Y5550D02*
D03*
X1300Y5250D02*
D03*
Y4650D02*
D03*
X1450Y3750D02*
D03*
Y3150D02*
D03*
Y2550D02*
D03*
Y1950D02*
D03*
X1300Y1650D02*
D03*
X1450Y1350D02*
D03*
X1300Y1050D02*
D03*
X1450Y-450D02*
D03*
Y-1650D02*
D03*
Y-2250D02*
D03*
X1300Y-2550D02*
D03*
X1450Y-2850D02*
D03*
X1300Y-3150D02*
D03*
X1450Y-3450D02*
D03*
X1300Y-3750D02*
D03*
X1450Y-4050D02*
D03*
Y-5250D02*
D03*
X1300Y-5550D02*
D03*
X1450Y-5850D02*
D03*
X1300Y-6150D02*
D03*
X1150Y6150D02*
D03*
X1000Y5850D02*
D03*
X1150Y5550D02*
D03*
X1000Y5250D02*
D03*
Y4650D02*
D03*
Y3450D02*
D03*
X1150Y1350D02*
D03*
X1000Y450D02*
D03*
X1150Y-1650D02*
D03*
Y-2250D02*
D03*
X1000Y-2550D02*
D03*
X1150Y-2850D02*
D03*
X1000Y-3150D02*
D03*
X1150Y-3450D02*
D03*
Y-4050D02*
D03*
Y-4650D02*
D03*
X1000Y-4950D02*
D03*
Y-5550D02*
D03*
X1150Y-5850D02*
D03*
X1000Y-6150D02*
D03*
X850Y6150D02*
D03*
X700Y5850D02*
D03*
X850Y5550D02*
D03*
X700Y5250D02*
D03*
Y4650D02*
D03*
X850Y-1650D02*
D03*
Y-2250D02*
D03*
X700Y-2550D02*
D03*
X850Y-2850D02*
D03*
X700Y-3150D02*
D03*
X850Y-4650D02*
D03*
X700Y-4950D02*
D03*
Y-5550D02*
D03*
X850Y-5850D02*
D03*
X700Y-6150D02*
D03*
X550Y6150D02*
D03*
Y5550D02*
D03*
X400Y5250D02*
D03*
X550Y2550D02*
D03*
Y750D02*
D03*
Y-1650D02*
D03*
Y-2250D02*
D03*
Y-4650D02*
D03*
X400Y-4950D02*
D03*
X550Y-5250D02*
D03*
X400Y-5550D02*
D03*
X550Y-5850D02*
D03*
X100Y4650D02*
D03*
Y4050D02*
D03*
Y3450D02*
D03*
X250Y2550D02*
D03*
X100Y1050D02*
D03*
X250Y-1650D02*
D03*
X100Y-1950D02*
D03*
X250Y-2250D02*
D03*
X100Y-3750D02*
D03*
X250Y-4650D02*
D03*
X100Y-4950D02*
D03*
X250Y-5250D02*
D03*
X-50Y5550D02*
D03*
Y4950D02*
D03*
X-200Y4650D02*
D03*
X-50Y4350D02*
D03*
X-200Y4050D02*
D03*
Y3450D02*
D03*
X-50Y3150D02*
D03*
Y2550D02*
D03*
Y-4050D02*
D03*
Y-4650D02*
D03*
X-500Y5850D02*
D03*
X-350Y4950D02*
D03*
X-500Y4650D02*
D03*
X-350Y4350D02*
D03*
X-500Y4050D02*
D03*
X-350Y3750D02*
D03*
Y3150D02*
D03*
Y-1650D02*
D03*
Y-2250D02*
D03*
Y-4050D02*
D03*
Y-4650D02*
D03*
X-500Y-5550D02*
D03*
Y-6150D02*
D03*
X-650Y6150D02*
D03*
X-800Y5850D02*
D03*
X-650Y5550D02*
D03*
X-800Y5250D02*
D03*
Y4650D02*
D03*
X-650Y4350D02*
D03*
X-800Y4050D02*
D03*
X-650Y3750D02*
D03*
X-800Y3450D02*
D03*
X-650Y3150D02*
D03*
X-800Y2850D02*
D03*
X-650Y2550D02*
D03*
X-800Y2250D02*
D03*
X-650Y1350D02*
D03*
X-800Y1050D02*
D03*
Y-1950D02*
D03*
X-650Y-2850D02*
D03*
X-800Y-3150D02*
D03*
X-650Y-4650D02*
D03*
X-800Y-5550D02*
D03*
X-650Y-5850D02*
D03*
X-800Y-6150D02*
D03*
X-950Y6150D02*
D03*
Y5550D02*
D03*
Y4950D02*
D03*
Y4350D02*
D03*
X-1100Y4050D02*
D03*
X-950Y3750D02*
D03*
X-1100Y3450D02*
D03*
X-950Y3150D02*
D03*
X-1100Y2850D02*
D03*
X-950Y2550D02*
D03*
X-1100Y2250D02*
D03*
X-950Y1950D02*
D03*
X-1100Y1650D02*
D03*
X-950Y150D02*
D03*
X-1100Y-150D02*
D03*
Y-1950D02*
D03*
X-950Y-2250D02*
D03*
X-1100Y-2550D02*
D03*
X-950Y-3450D02*
D03*
X-1100Y-3750D02*
D03*
X-950Y-4650D02*
D03*
X-1100Y-5550D02*
D03*
X-950Y-5850D02*
D03*
X-1100Y-6150D02*
D03*
X-1400Y4050D02*
D03*
X-1250Y3750D02*
D03*
X-1400Y3450D02*
D03*
X-1250Y3150D02*
D03*
X-1400Y2850D02*
D03*
X-1250Y2550D02*
D03*
X-1400Y2250D02*
D03*
X-1250Y1950D02*
D03*
X-1400Y1650D02*
D03*
X-1250Y750D02*
D03*
Y-2250D02*
D03*
X-1400Y-2550D02*
D03*
X-1250Y-3450D02*
D03*
X-1400Y-3750D02*
D03*
X-1250Y-4650D02*
D03*
X-1550Y4350D02*
D03*
Y3750D02*
D03*
Y3150D02*
D03*
Y2550D02*
D03*
Y1950D02*
D03*
Y1350D02*
D03*
Y-1650D02*
D03*
X-1700Y-2550D02*
D03*
X-1550Y-2850D02*
D03*
X-1700Y-3150D02*
D03*
X-1850Y6150D02*
D03*
Y5550D02*
D03*
Y-450D02*
D03*
X-2000Y-750D02*
D03*
X-1850Y-1650D02*
D03*
X-2000Y-1950D02*
D03*
X-1850Y-2850D02*
D03*
Y-3450D02*
D03*
X-2000Y-4950D02*
D03*
Y-5550D02*
D03*
Y-6150D02*
D03*
X-2150Y6150D02*
D03*
X-2300Y-150D02*
D03*
X-2150Y-450D02*
D03*
Y-1650D02*
D03*
X-2300Y-1950D02*
D03*
X-2150Y-2250D02*
D03*
Y-5250D02*
D03*
X-2600Y5250D02*
D03*
X-2450Y4950D02*
D03*
X-2600Y4650D02*
D03*
Y4050D02*
D03*
Y3450D02*
D03*
Y2850D02*
D03*
Y2250D02*
D03*
Y1650D02*
D03*
Y1050D02*
D03*
Y450D02*
D03*
X-2450Y150D02*
D03*
X-2600Y-1350D02*
D03*
Y-1950D02*
D03*
Y-2550D02*
D03*
Y-3150D02*
D03*
Y-3750D02*
D03*
X-2900Y5850D02*
D03*
Y5250D02*
D03*
X-2750Y4950D02*
D03*
X-2900Y3450D02*
D03*
X-2750Y3150D02*
D03*
X-2900Y2850D02*
D03*
X-2750Y2550D02*
D03*
X-2900Y2250D02*
D03*
X-2750Y1950D02*
D03*
X-2900Y1650D02*
D03*
X-2750Y1350D02*
D03*
X-2900Y1050D02*
D03*
X-2750Y-1050D02*
D03*
X-2900Y-1350D02*
D03*
X-2750Y-1650D02*
D03*
X-2900Y-1950D02*
D03*
X-2750Y-2250D02*
D03*
X-2900Y-2550D02*
D03*
X-2750Y-2850D02*
D03*
X-2900Y-3150D02*
D03*
X-2750Y-3450D02*
D03*
X-2900Y-3750D02*
D03*
Y-4350D02*
D03*
Y-4950D02*
D03*
Y-6150D02*
D03*
X-3050Y6150D02*
D03*
X-3200Y5850D02*
D03*
X-3050Y5550D02*
D03*
X-3200Y5250D02*
D03*
X-3050Y4950D02*
D03*
Y4350D02*
D03*
X-3200Y4050D02*
D03*
X-3050Y3750D02*
D03*
X-3200Y3450D02*
D03*
X-3050Y3150D02*
D03*
X-3200Y2850D02*
D03*
X-3050Y2550D02*
D03*
X-3200Y2250D02*
D03*
X-3050Y1950D02*
D03*
X-3200Y1650D02*
D03*
X-3050Y1350D02*
D03*
X-3200Y1050D02*
D03*
X-3050Y750D02*
D03*
X-3200Y-750D02*
D03*
X-3050Y-1050D02*
D03*
X-3200Y-1350D02*
D03*
X-3050Y-1650D02*
D03*
X-3200Y-1950D02*
D03*
X-3050Y-2250D02*
D03*
X-3200Y-2550D02*
D03*
X-3050Y-2850D02*
D03*
X-3200Y-3150D02*
D03*
X-3050Y-3450D02*
D03*
X-3200Y-3750D02*
D03*
X-3050Y-4050D02*
D03*
X-3200Y-4350D02*
D03*
X-3050Y-4650D02*
D03*
X-3200Y-4950D02*
D03*
X-3050Y-5250D02*
D03*
X-3200Y-5550D02*
D03*
X-3050Y-5850D02*
D03*
X-3200Y-6150D02*
D03*
X-3350Y6150D02*
D03*
X-3500Y5850D02*
D03*
X-3350Y5550D02*
D03*
X-3500Y5250D02*
D03*
X-3350Y4950D02*
D03*
Y4350D02*
D03*
Y3750D02*
D03*
X-3500Y3450D02*
D03*
X-3350Y3150D02*
D03*
X-3500Y2850D02*
D03*
X-3350Y2550D02*
D03*
X-3500Y2250D02*
D03*
X-3350Y1950D02*
D03*
X-3500Y1650D02*
D03*
X-3350Y1350D02*
D03*
X-3500Y1050D02*
D03*
X-3350Y750D02*
D03*
X-3500Y450D02*
D03*
X-3350Y150D02*
D03*
X-3500Y-150D02*
D03*
X-3350Y-450D02*
D03*
X-3500Y-750D02*
D03*
X-3350Y-1050D02*
D03*
X-3500Y-1350D02*
D03*
X-3350Y-1650D02*
D03*
X-3500Y-1950D02*
D03*
X-3350Y-2250D02*
D03*
X-3500Y-2550D02*
D03*
X-3350Y-2850D02*
D03*
X-3500Y-3150D02*
D03*
X-3350Y-3450D02*
D03*
X-3500Y-3750D02*
D03*
X-3350Y-4050D02*
D03*
X-3500Y-4350D02*
D03*
X-3350Y-4650D02*
D03*
X-3500Y-4950D02*
D03*
X-3350Y-5250D02*
D03*
X-3500Y-5550D02*
D03*
X-3350Y-5850D02*
D03*
X-3500Y-6150D02*
D03*
X-3650Y6150D02*
D03*
X-3800Y5850D02*
D03*
X-3650Y5550D02*
D03*
X-3800Y5250D02*
D03*
X-3650Y4950D02*
D03*
X-3800Y4650D02*
D03*
Y4050D02*
D03*
X-3650Y3750D02*
D03*
X-3800Y3450D02*
D03*
X-3650Y3150D02*
D03*
X-3800Y2850D02*
D03*
X-3650Y2550D02*
D03*
X-3800Y2250D02*
D03*
X-3650Y1950D02*
D03*
X-3800Y1650D02*
D03*
X-3650Y1350D02*
D03*
X-3800Y1050D02*
D03*
X-3650Y750D02*
D03*
X-3800Y450D02*
D03*
X-3650Y150D02*
D03*
X-3800Y-150D02*
D03*
X-3650Y-450D02*
D03*
X-3800Y-750D02*
D03*
X-3650Y-1050D02*
D03*
X-3800Y-1350D02*
D03*
X-3650Y-1650D02*
D03*
X-3800Y-1950D02*
D03*
X-3650Y-2250D02*
D03*
X-3800Y-2550D02*
D03*
X-3650Y-2850D02*
D03*
X-3800Y-3150D02*
D03*
X-3650Y-3450D02*
D03*
X-3800Y-3750D02*
D03*
X-3650Y-4050D02*
D03*
X-3800Y-4350D02*
D03*
X-3650Y-4650D02*
D03*
X-3800Y-4950D02*
D03*
X-3650Y-5250D02*
D03*
X-3800Y-5550D02*
D03*
X-3650Y-5850D02*
D03*
X-3950Y5550D02*
D03*
X-4100Y5250D02*
D03*
X-3950Y4950D02*
D03*
X-4100Y4650D02*
D03*
X-3950Y4350D02*
D03*
X-4100Y4050D02*
D03*
X-3950Y3750D02*
D03*
X-4100Y3450D02*
D03*
X-3950Y3150D02*
D03*
X-4100Y2850D02*
D03*
X-3950Y2550D02*
D03*
X-4100Y2250D02*
D03*
X-3950Y1950D02*
D03*
Y1350D02*
D03*
X-4100Y1050D02*
D03*
X-3950Y750D02*
D03*
X-4100Y450D02*
D03*
X-3950Y150D02*
D03*
X-4100Y-150D02*
D03*
X-3950Y-450D02*
D03*
X-4100Y-750D02*
D03*
X-3950Y-1050D02*
D03*
X-4100Y-1350D02*
D03*
X-3950Y-1650D02*
D03*
X-4100Y-1950D02*
D03*
X-3950Y-2250D02*
D03*
X-4100Y-2550D02*
D03*
X-3950Y-2850D02*
D03*
X-4100Y-3150D02*
D03*
X-3950Y-3450D02*
D03*
Y-4050D02*
D03*
X-4100Y-4350D02*
D03*
X-3950Y-4650D02*
D03*
X-4100Y-4950D02*
D03*
X-3950Y-5250D02*
D03*
X-4100Y-5550D02*
D03*
X-3950Y-5850D02*
D03*
X-4250Y5550D02*
D03*
X-4400Y5250D02*
D03*
X-4250Y4950D02*
D03*
X-4400Y4650D02*
D03*
X-4250Y4350D02*
D03*
Y3150D02*
D03*
X-4400Y2850D02*
D03*
X-4250Y2550D02*
D03*
X-4400Y2250D02*
D03*
Y1050D02*
D03*
X-4250Y750D02*
D03*
X-4400Y450D02*
D03*
X-4250Y150D02*
D03*
X-4400Y-150D02*
D03*
X-4250Y-450D02*
D03*
X-4400Y-750D02*
D03*
X-4250Y-1050D02*
D03*
Y-2250D02*
D03*
X-4400Y-2550D02*
D03*
X-4250Y-2850D02*
D03*
X-4400Y-3150D02*
D03*
Y-4350D02*
D03*
X-4250Y-4650D02*
D03*
X-4400Y-4950D02*
D03*
X-4250Y-5250D02*
D03*
X-4400Y-5550D02*
D03*
X-4700Y5250D02*
D03*
X-4550Y4950D02*
D03*
X-4700Y4650D02*
D03*
X-4550Y4350D02*
D03*
X-4700Y3450D02*
D03*
X-4550Y3150D02*
D03*
X-4700Y2850D02*
D03*
X-4550Y2550D02*
D03*
X-4700Y2250D02*
D03*
Y1050D02*
D03*
X-4550Y750D02*
D03*
X-4700Y450D02*
D03*
X-4550Y150D02*
D03*
X-4700Y-150D02*
D03*
X-4550Y-450D02*
D03*
X-4700Y-750D02*
D03*
X-4550Y-1050D02*
D03*
X-4700Y-1350D02*
D03*
X-4550Y-2250D02*
D03*
X-4700Y-2550D02*
D03*
X-4550Y-2850D02*
D03*
X-4700Y-3150D02*
D03*
Y-4350D02*
D03*
X-4550Y-4650D02*
D03*
X-4700Y-4950D02*
D03*
X-4550Y-5250D02*
D03*
X20Y670D02*
D03*
X280Y685D02*
D03*
X730Y1150D02*
D03*
X1147Y870D02*
D03*
X720Y860D02*
D03*
X-170Y1020D02*
D03*
X340Y1803D02*
D03*
X620Y2130D02*
D03*
X-2140Y210D02*
D03*
X-2130Y1810D02*
D03*
Y2800D02*
D03*
X-2140Y3840D02*
D03*
X-1420Y-820D02*
D03*
X110Y-847D02*
D03*
X90Y-433D02*
D03*
X410Y-708D02*
D03*
X971Y3665D02*
D03*
X1060Y180D02*
D03*
X-1064Y530D02*
D03*
X-340Y-820D02*
D03*
X-410Y-479D02*
D03*
X-17Y0D02*
D03*
X-2460Y1020D02*
D03*
X-2350Y770D02*
D03*
X-2250Y550D02*
D03*
X-1220Y530D02*
D03*
X-1290Y440D02*
D03*
X-1345Y355D02*
D03*
X-1530Y-270D02*
D03*
Y-495D02*
D03*
X-570Y-2340D02*
D03*
X-1120Y5380D02*
D03*
X-250Y5200D02*
D03*
X210Y-590D02*
D03*
X290D02*
D03*
X370D02*
D03*
X450D02*
D03*
X1480Y-740D02*
D03*
X-270Y-690D02*
D03*
X700Y-150D02*
D03*
X570Y-320D02*
D03*
X290Y-210D02*
D03*
X370Y-175D02*
D03*
X160Y-690D02*
D03*
X370Y230D02*
D03*
X450Y196D02*
D03*
X-850Y780D02*
D03*
X1170Y1980D02*
D03*
X1240Y2140D02*
D03*
X20Y1930D02*
D03*
X-57Y1952D02*
D03*
X-920Y-855D02*
D03*
X-2430Y-4180D02*
D03*
X-1980Y-4280D02*
D03*
X-530Y-5420D02*
D03*
X320D02*
D03*
X-2100Y-4625D02*
D03*
X-2410D02*
D03*
X-317Y-2530D02*
D03*
X-350Y-190D02*
D03*
X-290Y-270D02*
D03*
X895Y4590D02*
D03*
X1070Y4290D02*
D03*
X1030Y4010D02*
D03*
X914D02*
D03*
X1010Y4350D02*
D03*
X914Y4266D02*
D03*
X845Y3950D02*
D03*
X-880Y520D02*
D03*
X-570Y-760D02*
D03*
X-920Y-70D02*
D03*
X100Y1430D02*
D03*
X0Y1530D02*
D03*
X100Y1630D02*
D03*
X-100Y1430D02*
D03*
Y1630D02*
D03*
X-3000Y4175D02*
D03*
X1950Y-4175D02*
D03*
X20Y-2471D02*
D03*
X2500Y4582D02*
D03*
X-1975Y4450D02*
D03*
X-1975Y4150D02*
D03*
X1300Y-4225D02*
D03*
X900D02*
D03*
X500D02*
D03*
X100D02*
D03*
X-300D02*
D03*
X-700D02*
D03*
X-1100D02*
D03*
X-1500D02*
D03*
X-3000Y4625D02*
D03*
X2000Y-4625D02*
D03*
X-1775Y5150D02*
D03*
D38*
X-430Y390D02*
D03*
X1410Y-1020D02*
D03*
X1310D02*
D03*
X740Y-1024D02*
D03*
X648D02*
D03*
X1200Y-1200D02*
D03*
X1110D02*
D03*
X923D02*
D03*
X840D02*
D03*
D39*
X1248Y-855D02*
D03*
X1182D02*
D03*
X1118D02*
D03*
X1052D02*
D03*
X988D02*
D03*
X923D02*
D03*
X857D02*
D03*
X793D02*
D03*
X1248Y-265D02*
D03*
X1182D02*
D03*
X1118D02*
D03*
X1052D02*
D03*
X988D02*
D03*
X923D02*
D03*
X857D02*
D03*
X793D02*
D03*
D40*
X1020Y-560D02*
D03*
D41*
X450Y-90D02*
D03*
X370D02*
D03*
X290D02*
D03*
X210D02*
D03*
X450Y80D02*
D03*
X370D02*
D03*
X290D02*
D03*
X210D02*
D03*
X450Y-470D02*
D03*
X370D02*
D03*
X290D02*
D03*
X210D02*
D03*
X450Y-300D02*
D03*
X370D02*
D03*
X290D02*
D03*
X210D02*
D03*
X840Y-3765D02*
D03*
X760D02*
D03*
X680D02*
D03*
X-680D02*
D03*
X-760D02*
D03*
X-840D02*
D03*
X-920D02*
D03*
X920D02*
D03*
Y-3935D02*
D03*
X840D02*
D03*
X760D02*
D03*
X680D02*
D03*
X-680D02*
D03*
X-760D02*
D03*
X-840D02*
D03*
X-920D02*
D03*
D42*
X-640Y-495D02*
D03*
X-880D02*
D03*
X-800D02*
D03*
X-640Y355D02*
D03*
X-720D02*
D03*
X-1200Y-495D02*
D03*
X-1120D02*
D03*
X-1040D02*
D03*
X-960D02*
D03*
X-720D02*
D03*
X-800Y355D02*
D03*
X-880D02*
D03*
X-960D02*
D03*
X-1040D02*
D03*
X-1120D02*
D03*
X-1200D02*
D03*
D43*
X-495Y-350D02*
D03*
X-1345D02*
D03*
X-495Y-270D02*
D03*
Y-190D02*
D03*
Y130D02*
D03*
Y210D02*
D03*
X-1345D02*
D03*
Y130D02*
D03*
Y50D02*
D03*
Y-30D02*
D03*
Y-110D02*
D03*
Y-190D02*
D03*
Y-270D02*
D03*
X-495Y-110D02*
D03*
Y-30D02*
D03*
Y50D02*
D03*
D44*
X-330Y690D02*
D03*
Y870D02*
D03*
X-560D02*
D03*
Y690D02*
D03*
D45*
X1570Y-1970D02*
D03*
Y-1370D02*
D03*
X470Y-1970D02*
D03*
Y-1370D02*
D03*
X1220Y-1970D02*
D03*
Y-1370D02*
D03*
X820Y-1970D02*
D03*
Y-1370D02*
D03*
D46*
X1480Y-855D02*
D03*
Y-655D02*
D03*
X1170Y4400D02*
D03*
Y4200D02*
D03*
X770D02*
D03*
Y4400D02*
D03*
X-2410Y-5050D02*
D03*
Y-5250D02*
D03*
X-100Y5400D02*
D03*
Y5200D02*
D03*
X100Y5400D02*
D03*
Y5200D02*
D03*
X-2610Y-5250D02*
D03*
Y-5050D02*
D03*
X1360Y-4625D02*
D03*
Y-4425D02*
D03*
X2500Y4907D02*
D03*
Y4707D02*
D03*
X330Y540D02*
D03*
Y340D02*
D03*
X130D02*
D03*
Y540D02*
D03*
X680Y3095D02*
D03*
Y2895D02*
D03*
D47*
X550Y-855D02*
D03*
X350D02*
D03*
X-530Y-5225D02*
D03*
X-330D02*
D03*
X-530Y-5030D02*
D03*
X-330D02*
D03*
X-2100Y4950D02*
D03*
X-1900D02*
D03*
X-1400D02*
D03*
X-1200D02*
D03*
X-2100Y5150D02*
D03*
X-1900D02*
D03*
X-1400D02*
D03*
X-1200D02*
D03*
X-1650Y-5030D02*
D03*
X-1850D02*
D03*
X-1650Y-5225D02*
D03*
X-1850D02*
D03*
X-2630Y-4300D02*
D03*
X-2430D02*
D03*
X-2660Y3690D02*
D03*
X-2460D02*
D03*
X-2250Y4150D02*
D03*
X-2050D02*
D03*
X-2250Y4450D02*
D03*
X-2050D02*
D03*
X530Y1390D02*
D03*
X730D02*
D03*
Y1790D02*
D03*
X530D02*
D03*
Y1590D02*
D03*
X730D02*
D03*
D48*
X766Y600D02*
D03*
X1274D02*
D03*
X766Y260D02*
D03*
X1274D02*
D03*
X86Y3760D02*
D03*
X594D02*
D03*
D49*
X-150Y1770D02*
D03*
X-100D02*
D03*
X-50D02*
D03*
X0D02*
D03*
X50D02*
D03*
X100D02*
D03*
X150D02*
D03*
Y1290D02*
D03*
X100D02*
D03*
X50D02*
D03*
X0D02*
D03*
X-50D02*
D03*
X-100D02*
D03*
X-150D02*
D03*
D50*
X240Y1680D02*
D03*
Y1630D02*
D03*
Y1580D02*
D03*
Y1530D02*
D03*
Y1480D02*
D03*
Y1430D02*
D03*
Y1380D02*
D03*
X-240D02*
D03*
Y1430D02*
D03*
Y1480D02*
D03*
Y1530D02*
D03*
Y1580D02*
D03*
Y1630D02*
D03*
Y1680D02*
D03*
D51*
X0Y1530D02*
D03*
D52*
X850Y3685D02*
D03*
D53*
Y3855D02*
D03*
X1090D02*
D03*
Y3665D02*
D03*
D54*
X-444Y-3272D02*
D03*
X-317Y-2728D02*
D03*
X-190D02*
D03*
X-63D02*
D03*
X64D02*
D03*
X191D02*
D03*
X445D02*
D03*
Y-3272D02*
D03*
X318D02*
D03*
X191D02*
D03*
X64D02*
D03*
X-63D02*
D03*
X-190D02*
D03*
X-317D02*
D03*
X318Y-2728D02*
D03*
X-444D02*
D03*
D55*
X766Y260D02*
Y612D01*
X930Y1000D02*
Y1595D01*
Y764D02*
Y1000D01*
Y1595D02*
Y2260D01*
Y3090D01*
Y3210D01*
X768Y614D02*
X780D01*
X930Y764D01*
X596Y3544D02*
X930Y3210D01*
X766Y612D02*
X768Y614D01*
X766Y612D02*
X766Y612D01*
Y600D02*
Y612D01*
X594Y3760D02*
X596Y3758D01*
Y3544D02*
Y3758D01*
D56*
X768Y-60D02*
X805D01*
X923Y-178D01*
Y-265D02*
Y-178D01*
X740Y-32D02*
X768Y-60D01*
X1266Y-1013D02*
X1303D01*
X1310Y-1020D01*
X1182Y-929D02*
X1266Y-1013D01*
X769Y-1017D02*
X857Y-929D01*
Y-855D01*
X747Y-1017D02*
X769D01*
X740Y-1024D02*
X747Y-1017D01*
X1118Y-990D02*
X1310Y-1182D01*
X1118Y-990D02*
Y-855D01*
X1182Y-929D02*
Y-855D01*
X988Y-1135D02*
Y-855D01*
X923Y-1200D02*
X988Y-1135D01*
X1052Y-1142D02*
X1110Y-1200D01*
X730Y-1207D02*
Y-1190D01*
X923Y-998D01*
Y-855D01*
X1052Y-1142D02*
Y-855D01*
Y-265D02*
Y-80D01*
X1100Y-32D01*
Y-20D01*
X1233Y-60D02*
X1273D01*
X1300Y-32D01*
X1118Y-175D02*
X1233Y-60D01*
X1118Y-264D02*
Y-175D01*
X1300Y-32D02*
Y-20D01*
X740Y-32D02*
Y-20D01*
X940Y-32D02*
Y-20D01*
X988Y-265D02*
Y-80D01*
X940Y-32D02*
X988Y-80D01*
D57*
X700Y-150D02*
X810D01*
X856Y-196D01*
Y-263D02*
X857Y-265D01*
X856Y-263D02*
Y-196D01*
D58*
X-985Y680D02*
X-830D01*
X-720Y-760D02*
X-570D01*
X1310Y-1020D02*
X1410D01*
X648Y-1024D02*
X740D01*
X1110Y-1200D02*
X1200D01*
X1275Y-1370D02*
X1310Y-1335D01*
Y-1182D01*
X1220Y-1370D02*
X1275D01*
X840Y-1200D02*
X923D01*
X730Y-1335D02*
Y-1207D01*
Y-1335D02*
X765Y-1370D01*
X785D01*
X820D01*
D59*
X-1040Y-700D02*
Y-495D01*
M02*
