G04*
G04 #@! TF.GenerationSoftware,Altium Limited,Altium Designer,21.8.1 (53)*
G04*
G04 Layer_Color=16711935*
%FSLAX42Y42*%
%MOMM*%
G71*
G04*
G04 #@! TF.SameCoordinates,ECD59B7C-F3D5-4042-AA40-CB62378B2820*
G04*
G04*
G04 #@! TF.FilePolarity,Negative*
G04*
G01*
G75*
%ADD12R,1.35X1.10*%
G04:AMPARAMS|DCode=13|XSize=1.7mm|YSize=1.5mm|CornerRadius=0.4mm|HoleSize=0mm|Usage=FLASHONLY|Rotation=180.000|XOffset=0mm|YOffset=0mm|HoleType=Round|Shape=RoundedRectangle|*
%AMROUNDEDRECTD13*
21,1,1.70,0.70,0,0,180.0*
21,1,0.90,1.50,0,0,180.0*
1,1,0.80,-0.45,0.35*
1,1,0.80,0.45,0.35*
1,1,0.80,0.45,-0.35*
1,1,0.80,-0.45,-0.35*
%
%ADD13ROUNDEDRECTD13*%
%ADD14R,1.80X1.60*%
%ADD15R,1.10X1.35*%
G04:AMPARAMS|DCode=16|XSize=1.9mm|YSize=1.4mm|CornerRadius=0.7mm|HoleSize=0mm|Usage=FLASHONLY|Rotation=180.000|XOffset=0mm|YOffset=0mm|HoleType=Round|Shape=RoundedRectangle|*
%AMROUNDEDRECTD16*
21,1,1.90,0.00,0,0,180.0*
21,1,0.50,1.40,0,0,180.0*
1,1,1.40,-0.25,0.00*
1,1,1.40,0.25,0.00*
1,1,1.40,0.25,0.00*
1,1,1.40,-0.25,0.00*
%
%ADD16ROUNDEDRECTD16*%
%ADD17C,0.10*%
%ADD18C,2.60*%
%ADD19C,2.10*%
%ADD20C,6.60*%
%ADD42O,0.55X1.50*%
%ADD60R,2.41X2.56*%
%ADD61O,0.55X1.10*%
%ADD62O,0.65X1.60*%
%ADD63O,1.60X0.65*%
%ADD64R,1.40X1.20*%
%ADD65R,3.50X1.60*%
G04:AMPARAMS|DCode=66|XSize=1.1mm|YSize=1.6mm|CornerRadius=0.3mm|HoleSize=0mm|Usage=FLASHONLY|Rotation=90.000|XOffset=0mm|YOffset=0mm|HoleType=Round|Shape=RoundedRectangle|*
%AMROUNDEDRECTD66*
21,1,1.10,1.00,0,0,90.0*
21,1,0.50,1.60,0,0,90.0*
1,1,0.60,0.50,0.25*
1,1,0.60,0.50,-0.25*
1,1,0.60,-0.50,-0.25*
1,1,0.60,-0.50,0.25*
%
%ADD66ROUNDEDRECTD66*%
G04:AMPARAMS|DCode=67|XSize=1.1mm|YSize=1.6mm|CornerRadius=0.3mm|HoleSize=0mm|Usage=FLASHONLY|Rotation=180.000|XOffset=0mm|YOffset=0mm|HoleType=Round|Shape=RoundedRectangle|*
%AMROUNDEDRECTD67*
21,1,1.10,1.00,0,0,180.0*
21,1,0.50,1.60,0,0,180.0*
1,1,0.60,-0.25,0.50*
1,1,0.60,0.25,0.50*
1,1,0.60,0.25,-0.50*
1,1,0.60,-0.25,-0.50*
%
%ADD67ROUNDEDRECTD67*%
%ADD68R,2.13X2.38*%
%ADD69R,0.40X1.05*%
%ADD70R,1.05X0.40*%
%ADD71R,3.45X3.45*%
%ADD72R,1.10X1.10*%
%ADD73R,1.10X0.70*%
%ADD74O,0.70X1.55*%
%ADD75C,0.80*%
%ADD76C,0.70*%
D12*
X-995Y680D02*
D03*
Y880D02*
D03*
X-820Y680D02*
D03*
Y880D02*
D03*
X-120Y880D02*
D03*
Y680D02*
D03*
X-530Y1680D02*
D03*
Y1880D02*
D03*
X1560Y-4625D02*
D03*
Y-4425D02*
D03*
D13*
X420Y3120D02*
D03*
D14*
Y2895D02*
D03*
X-420D02*
D03*
X420Y3345D02*
D03*
X-420D02*
D03*
D15*
X-720Y-950D02*
D03*
X-920D02*
D03*
X-720Y-760D02*
D03*
X-920D02*
D03*
X-340Y1060D02*
D03*
X-540D02*
D03*
X740Y-20D02*
D03*
X940D02*
D03*
X1300D02*
D03*
X1100D02*
D03*
X-10Y2260D02*
D03*
X-210D02*
D03*
X-10Y2070D02*
D03*
X-210D02*
D03*
X380Y2260D02*
D03*
X180D02*
D03*
X-2630Y-4500D02*
D03*
X-2430D02*
D03*
X180Y2070D02*
D03*
X380D02*
D03*
X-2460Y3880D02*
D03*
X-2660D02*
D03*
D16*
X560Y4447D02*
D03*
X1380D02*
D03*
Y4153D02*
D03*
X560D02*
D03*
D17*
X1520Y4170D02*
D03*
X420D02*
D03*
X465Y-6245D02*
D03*
X0Y-6160D02*
D03*
Y-5840D02*
D03*
X-1255Y-5435D02*
D03*
X-1340Y-5900D02*
D03*
X-1660D02*
D03*
X-2255Y-5435D02*
D03*
X-2340Y-5900D02*
D03*
X-2660D02*
D03*
X-465Y6245D02*
D03*
X0Y6160D02*
D03*
Y5840D02*
D03*
X-1745Y5435D02*
D03*
X-1660Y5900D02*
D03*
X-1340D02*
D03*
X-2745Y5435D02*
D03*
X-2660Y5900D02*
D03*
X-2340D02*
D03*
D18*
X-2750Y-750D02*
D03*
Y-250D02*
D03*
X-2750Y250D02*
D03*
Y750D02*
D03*
X2750D02*
D03*
Y250D02*
D03*
Y-250D02*
D03*
Y-750D02*
D03*
D19*
X275Y-5873D02*
D03*
X-275Y-6127D02*
D03*
X275D02*
D03*
X-1627Y-5625D02*
D03*
X-1373Y-6175D02*
D03*
Y-5625D02*
D03*
X-2627D02*
D03*
X-2373Y-6175D02*
D03*
Y-5625D02*
D03*
X-275Y5873D02*
D03*
X275Y6127D02*
D03*
X-275D02*
D03*
X-1373Y5625D02*
D03*
X-1627Y6175D02*
D03*
Y5625D02*
D03*
X-2373D02*
D03*
X-2627Y6175D02*
D03*
Y5625D02*
D03*
X-275Y-5873D02*
D03*
X-1627Y-6175D02*
D03*
X-2627D02*
D03*
X275Y5873D02*
D03*
X-1373Y6175D02*
D03*
X-2373D02*
D03*
D20*
X4450Y3806D02*
D03*
Y1706D02*
D03*
Y-1706D02*
D03*
Y-3806D02*
D03*
X-4450D02*
D03*
Y-1706D02*
D03*
Y1706D02*
D03*
Y3806D02*
D03*
D42*
X1248Y-855D02*
D03*
X1182D02*
D03*
X1118D02*
D03*
X1052D02*
D03*
X988D02*
D03*
X923D02*
D03*
X857D02*
D03*
X793D02*
D03*
X1248Y-265D02*
D03*
X1182D02*
D03*
X1118D02*
D03*
X1052D02*
D03*
X988D02*
D03*
X923D02*
D03*
X857D02*
D03*
X793D02*
D03*
D60*
X1020Y-560D02*
D03*
D61*
X450Y-90D02*
D03*
X370D02*
D03*
X290D02*
D03*
X210D02*
D03*
X450Y80D02*
D03*
X370D02*
D03*
X290D02*
D03*
X210D02*
D03*
X450Y-470D02*
D03*
X370D02*
D03*
X290D02*
D03*
X210D02*
D03*
X450Y-300D02*
D03*
X370D02*
D03*
X290D02*
D03*
X210D02*
D03*
X840Y-3765D02*
D03*
X760D02*
D03*
X680D02*
D03*
X-680D02*
D03*
X-760D02*
D03*
X-840D02*
D03*
X-920D02*
D03*
X920D02*
D03*
Y-3935D02*
D03*
X840D02*
D03*
X760D02*
D03*
X680D02*
D03*
X-680D02*
D03*
X-760D02*
D03*
X-840D02*
D03*
X-920D02*
D03*
D62*
X-640Y-495D02*
D03*
X-880D02*
D03*
X-800D02*
D03*
X-640Y355D02*
D03*
X-720D02*
D03*
X-1200Y-495D02*
D03*
X-1120D02*
D03*
X-1040D02*
D03*
X-960D02*
D03*
X-720D02*
D03*
X-800Y355D02*
D03*
X-880D02*
D03*
X-960D02*
D03*
X-1040D02*
D03*
X-1120D02*
D03*
X-1200D02*
D03*
D63*
X-495Y-350D02*
D03*
X-1345D02*
D03*
X-495Y-270D02*
D03*
Y-190D02*
D03*
Y130D02*
D03*
Y210D02*
D03*
X-1345D02*
D03*
Y130D02*
D03*
Y50D02*
D03*
Y-30D02*
D03*
Y-110D02*
D03*
Y-190D02*
D03*
Y-270D02*
D03*
X-495Y-110D02*
D03*
Y-30D02*
D03*
Y50D02*
D03*
D64*
X-330Y690D02*
D03*
Y870D02*
D03*
X-560D02*
D03*
Y690D02*
D03*
D65*
X1570Y-1970D02*
D03*
Y-1370D02*
D03*
X470Y-1970D02*
D03*
Y-1370D02*
D03*
X1220Y-1970D02*
D03*
Y-1370D02*
D03*
X820Y-1970D02*
D03*
Y-1370D02*
D03*
D66*
X1480Y-855D02*
D03*
Y-655D02*
D03*
X1170Y4400D02*
D03*
Y4200D02*
D03*
X770D02*
D03*
Y4400D02*
D03*
X-2410Y-5050D02*
D03*
Y-5250D02*
D03*
X-100Y5400D02*
D03*
Y5200D02*
D03*
X100Y5400D02*
D03*
Y5200D02*
D03*
X-2610Y-5250D02*
D03*
Y-5050D02*
D03*
X1360Y-4625D02*
D03*
Y-4425D02*
D03*
X2500Y4907D02*
D03*
Y4707D02*
D03*
X330Y540D02*
D03*
Y340D02*
D03*
X130D02*
D03*
Y540D02*
D03*
X680Y3095D02*
D03*
Y2895D02*
D03*
D67*
X550Y-855D02*
D03*
X350D02*
D03*
X-530Y-5225D02*
D03*
X-330D02*
D03*
X-530Y-5030D02*
D03*
X-330D02*
D03*
X-2100Y4950D02*
D03*
X-1900D02*
D03*
X-1400D02*
D03*
X-1200D02*
D03*
X-2100Y5150D02*
D03*
X-1900D02*
D03*
X-1400D02*
D03*
X-1200D02*
D03*
X-1650Y-5030D02*
D03*
X-1850D02*
D03*
X-1650Y-5225D02*
D03*
X-1850D02*
D03*
X-2630Y-4300D02*
D03*
X-2430D02*
D03*
X-2660Y3690D02*
D03*
X-2460D02*
D03*
X-2250Y4150D02*
D03*
X-2050D02*
D03*
X-2250Y4450D02*
D03*
X-2050D02*
D03*
X530Y1390D02*
D03*
X730D02*
D03*
Y1790D02*
D03*
X530D02*
D03*
Y1590D02*
D03*
X730D02*
D03*
D68*
X766Y600D02*
D03*
X1274D02*
D03*
X766Y260D02*
D03*
X1274D02*
D03*
X86Y3760D02*
D03*
X594D02*
D03*
D69*
X-150Y1770D02*
D03*
X-100D02*
D03*
X-50D02*
D03*
X0D02*
D03*
X50D02*
D03*
X100D02*
D03*
X150D02*
D03*
Y1290D02*
D03*
X100D02*
D03*
X50D02*
D03*
X0D02*
D03*
X-50D02*
D03*
X-100D02*
D03*
X-150D02*
D03*
D70*
X240Y1680D02*
D03*
Y1630D02*
D03*
Y1580D02*
D03*
Y1530D02*
D03*
Y1480D02*
D03*
Y1430D02*
D03*
Y1380D02*
D03*
X-240D02*
D03*
Y1430D02*
D03*
Y1480D02*
D03*
Y1530D02*
D03*
Y1580D02*
D03*
Y1630D02*
D03*
Y1680D02*
D03*
D71*
X0Y1530D02*
D03*
D72*
X850Y3685D02*
D03*
D73*
Y3855D02*
D03*
X1090D02*
D03*
Y3665D02*
D03*
D74*
X-444Y-3272D02*
D03*
X-317Y-2728D02*
D03*
X-190D02*
D03*
X-63D02*
D03*
X64D02*
D03*
X191D02*
D03*
X445D02*
D03*
Y-3272D02*
D03*
X318D02*
D03*
X191D02*
D03*
X64D02*
D03*
X-63D02*
D03*
X-190D02*
D03*
X-317D02*
D03*
X318Y-2728D02*
D03*
X-444D02*
D03*
D75*
X1075Y-615D02*
D03*
Y-505D02*
D03*
X965Y-615D02*
D03*
Y-505D02*
D03*
D76*
X100Y1430D02*
D03*
X0Y1530D02*
D03*
X100Y1630D02*
D03*
X-100Y1430D02*
D03*
Y1630D02*
D03*
M02*
