G04*
G04 #@! TF.GenerationSoftware,Altium Limited,Altium Designer,20.2.7 (254)*
G04*
G04 Layer_Physical_Order=1*
G04 Layer_Color=255*
%FSLAX42Y42*%
%MOMM*%
G71*
G04*
G04 #@! TF.SameCoordinates,A3C6821A-A7B5-4D3C-B142-2EE2455FBD40*
G04*
G04*
G04 #@! TF.FilePolarity,Positive*
G04*
G01*
G75*
G04:AMPARAMS|DCode=20|XSize=1.6mm|YSize=1.4mm|CornerRadius=0.35mm|HoleSize=0mm|Usage=FLASHONLY|Rotation=180.000|XOffset=0mm|YOffset=0mm|HoleType=Round|Shape=RoundedRectangle|*
%AMROUNDEDRECTD20*
21,1,1.60,0.70,0,0,180.0*
21,1,0.90,1.40,0,0,180.0*
1,1,0.70,-0.45,0.35*
1,1,0.70,0.45,0.35*
1,1,0.70,0.45,-0.35*
1,1,0.70,-0.45,-0.35*
%
%ADD20ROUNDEDRECTD20*%
%ADD21R,1.60X1.40*%
%ADD22R,1.25X1.00*%
%ADD23R,1.00X1.25*%
%ADD24C,0.60*%
%ADD25C,1.50*%
%ADD26C,1.00*%
%ADD27C,0.50*%
%ADD28C,2.50*%
%ADD29C,2.00*%
%ADD30R,2.00X6.50*%
%ADD31C,6.50*%
%ADD32C,0.60*%
G36*
X3176Y6497D02*
X3211Y6492D01*
X3246Y6484D01*
X3280Y6473D01*
X3314Y6460D01*
X3346Y6444D01*
X3377Y6426D01*
X3391Y6416D01*
X3391Y6416D01*
X4694Y5519D01*
X4718Y5503D01*
X4761Y5465D01*
X4799Y5422D01*
X4832Y5375D01*
X4859Y5324D01*
X4879Y5270D01*
X4893Y5214D01*
X4900Y5157D01*
Y5128D01*
Y-5128D01*
Y-5157D01*
X4893Y-5214D01*
X4879Y-5270D01*
X4859Y-5324D01*
X4832Y-5375D01*
X4799Y-5422D01*
X4761Y-5465D01*
X4718Y-5503D01*
X4694Y-5519D01*
X4694Y-5519D01*
Y-5519D01*
X3391Y-6416D01*
X3377Y-6426D01*
X3346Y-6444D01*
X3314Y-6460D01*
X3280Y-6473D01*
X3246Y-6484D01*
X3211Y-6492D01*
X3176Y-6497D01*
X3140Y-6500D01*
X-3140D01*
X-3176Y-6497D01*
X-3211Y-6492D01*
X-3246Y-6484D01*
X-3280Y-6473D01*
X-3314Y-6460D01*
X-3346Y-6444D01*
X-3377Y-6426D01*
X-3391Y-6416D01*
X-4694Y-5519D01*
X-4718Y-5503D01*
X-4761Y-5465D01*
X-4799Y-5422D01*
X-4832Y-5375D01*
X-4859Y-5324D01*
X-4879Y-5270D01*
X-4893Y-5214D01*
X-4900Y-5157D01*
Y-5128D01*
Y5128D01*
Y5157D01*
X-4893Y5214D01*
X-4879Y5270D01*
X-4859Y5324D01*
X-4832Y5375D01*
X-4799Y5422D01*
X-4761Y5465D01*
X-4718Y5503D01*
X-4694Y5519D01*
X-4694D01*
X-3391Y6416D01*
X-3377Y6426D01*
X-3346Y6444D01*
X-3314Y6460D01*
X-3280Y6473D01*
X-3246Y6484D01*
X-3211Y6492D01*
X-3176Y6497D01*
X-3140Y6500D01*
X3140D01*
X3176Y6497D01*
D02*
G37*
%LPC*%
G36*
X0Y6306D02*
X-38Y6301D01*
X-73Y6287D01*
X-103Y6263D01*
X-127Y6233D01*
X-141Y6198D01*
X-141Y6197D01*
X-160Y6192D01*
X-167Y6192D01*
X-186Y6216D01*
X-212Y6236D01*
X-242Y6249D01*
X-260Y6251D01*
Y6127D01*
X-275D01*
Y6112D01*
X-399D01*
X-397Y6094D01*
X-384Y6064D01*
X-364Y6038D01*
X-338Y6018D01*
X-321Y6011D01*
X-321Y5984D01*
X-336Y5978D01*
X-361Y5959D01*
X-380Y5934D01*
X-392Y5904D01*
X-396Y5873D01*
X-392Y5842D01*
X-380Y5812D01*
X-361Y5787D01*
X-336Y5768D01*
X-306Y5756D01*
X-275Y5752D01*
X-244Y5756D01*
X-214Y5768D01*
X-189Y5787D01*
X-170Y5812D01*
X-168Y5817D01*
X-143Y5813D01*
X-141Y5802D01*
X-127Y5767D01*
X-103Y5737D01*
X-73Y5713D01*
X-38Y5699D01*
X0Y5694D01*
X38Y5699D01*
X73Y5713D01*
X103Y5737D01*
X127Y5767D01*
X141Y5802D01*
X143Y5813D01*
X168Y5817D01*
X170Y5812D01*
X189Y5787D01*
X214Y5768D01*
X244Y5756D01*
X275Y5752D01*
X306Y5756D01*
X336Y5768D01*
X361Y5787D01*
X380Y5812D01*
X392Y5842D01*
X396Y5873D01*
X392Y5904D01*
X380Y5934D01*
X361Y5959D01*
X336Y5978D01*
X321Y5984D01*
X321Y6011D01*
X338Y6018D01*
X364Y6038D01*
X384Y6064D01*
X397Y6094D01*
X399Y6112D01*
X275D01*
Y6127D01*
X260D01*
Y6251D01*
X242Y6249D01*
X212Y6236D01*
X186Y6216D01*
X167Y6192D01*
X160Y6192D01*
X141Y6197D01*
X141Y6198D01*
X127Y6233D01*
X103Y6263D01*
X73Y6287D01*
X38Y6301D01*
X0Y6306D01*
D02*
G37*
G36*
X-1642Y6299D02*
X-1660Y6297D01*
X-1690Y6284D01*
X-1716Y6264D01*
X-1736Y6238D01*
X-1749Y6208D01*
X-1751Y6190D01*
X-1642D01*
Y6299D01*
D02*
G37*
G36*
X-2642D02*
X-2660Y6297D01*
X-2690Y6284D01*
X-2716Y6264D01*
X-2736Y6238D01*
X-2749Y6208D01*
X-2751Y6190D01*
X-2642D01*
Y6299D01*
D02*
G37*
G36*
X-465Y6316D02*
X-483Y6313D01*
X-500Y6306D01*
X-515Y6295D01*
X-526Y6280D01*
X-533Y6263D01*
X-536Y6245D01*
X-533Y6227D01*
X-526Y6210D01*
X-515Y6195D01*
X-500Y6184D01*
X-483Y6177D01*
X-465Y6174D01*
X-447Y6177D01*
X-430Y6184D01*
X-415Y6195D01*
X-404Y6210D01*
X-397Y6227D01*
X-394Y6245D01*
X-397Y6263D01*
X-404Y6280D01*
X-415Y6295D01*
X-430Y6306D01*
X-447Y6313D01*
X-465Y6316D01*
D02*
G37*
G36*
X1025Y6475D02*
X925D01*
Y6150D01*
X1025D01*
Y6475D01*
D02*
G37*
G36*
X875D02*
X775D01*
Y6150D01*
X875D01*
Y6475D01*
D02*
G37*
G36*
X290Y6251D02*
Y6142D01*
X399D01*
X397Y6160D01*
X384Y6190D01*
X364Y6216D01*
X338Y6236D01*
X308Y6249D01*
X290Y6251D01*
D02*
G37*
G36*
X-290D02*
X-308Y6249D01*
X-338Y6236D01*
X-364Y6216D01*
X-384Y6190D01*
X-397Y6160D01*
X-399Y6142D01*
X-290D01*
Y6251D01*
D02*
G37*
G36*
X-780Y6470D02*
X-1020D01*
Y5780D01*
X-780D01*
Y6470D01*
D02*
G37*
G36*
X1025Y6100D02*
X925D01*
Y5775D01*
X1025D01*
Y6100D01*
D02*
G37*
G36*
X875D02*
X775D01*
Y5775D01*
X875D01*
Y6100D01*
D02*
G37*
G36*
X-1612Y6299D02*
Y6175D01*
X-1627D01*
Y6160D01*
X-1751D01*
X-1749Y6142D01*
X-1736Y6112D01*
X-1716Y6086D01*
X-1692Y6067D01*
X-1692Y6060D01*
X-1697Y6041D01*
X-1698Y6041D01*
X-1733Y6027D01*
X-1763Y6003D01*
X-1787Y5973D01*
X-1801Y5938D01*
X-1806Y5900D01*
X-1801Y5862D01*
X-1787Y5827D01*
X-1763Y5797D01*
X-1733Y5773D01*
X-1698Y5759D01*
X-1697Y5759D01*
X-1692Y5740D01*
X-1692Y5733D01*
X-1716Y5714D01*
X-1736Y5688D01*
X-1749Y5658D01*
X-1751Y5640D01*
X-1627D01*
Y5625D01*
X-1612D01*
Y5501D01*
X-1594Y5503D01*
X-1564Y5516D01*
X-1538Y5536D01*
X-1518Y5562D01*
X-1511Y5579D01*
X-1484Y5579D01*
X-1478Y5564D01*
X-1459Y5539D01*
X-1434Y5520D01*
X-1404Y5508D01*
X-1373Y5504D01*
X-1342Y5508D01*
X-1312Y5520D01*
X-1287Y5539D01*
X-1268Y5564D01*
X-1256Y5594D01*
X-1252Y5625D01*
X-1256Y5656D01*
X-1268Y5686D01*
X-1287Y5711D01*
X-1312Y5730D01*
X-1317Y5732D01*
X-1313Y5757D01*
X-1302Y5759D01*
X-1267Y5773D01*
X-1237Y5797D01*
X-1213Y5827D01*
X-1199Y5862D01*
X-1194Y5900D01*
X-1199Y5938D01*
X-1213Y5973D01*
X-1237Y6003D01*
X-1267Y6027D01*
X-1302Y6041D01*
X-1313Y6043D01*
X-1317Y6068D01*
X-1312Y6070D01*
X-1287Y6089D01*
X-1268Y6114D01*
X-1256Y6144D01*
X-1252Y6175D01*
X-1256Y6206D01*
X-1268Y6236D01*
X-1287Y6261D01*
X-1312Y6280D01*
X-1342Y6292D01*
X-1373Y6296D01*
X-1404Y6292D01*
X-1434Y6280D01*
X-1459Y6261D01*
X-1478Y6236D01*
X-1484Y6221D01*
X-1511Y6221D01*
X-1518Y6238D01*
X-1538Y6264D01*
X-1564Y6284D01*
X-1594Y6297D01*
X-1612Y6299D01*
D02*
G37*
G36*
X-2612D02*
Y6175D01*
X-2627D01*
Y6160D01*
X-2751D01*
X-2749Y6142D01*
X-2736Y6112D01*
X-2716Y6086D01*
X-2692Y6067D01*
X-2692Y6060D01*
X-2697Y6041D01*
X-2698Y6041D01*
X-2733Y6027D01*
X-2763Y6003D01*
X-2787Y5973D01*
X-2801Y5938D01*
X-2806Y5900D01*
X-2801Y5862D01*
X-2787Y5827D01*
X-2763Y5797D01*
X-2733Y5773D01*
X-2698Y5759D01*
X-2697Y5759D01*
X-2692Y5740D01*
X-2692Y5733D01*
X-2716Y5714D01*
X-2736Y5688D01*
X-2749Y5658D01*
X-2751Y5640D01*
X-2627D01*
Y5625D01*
X-2612D01*
Y5501D01*
X-2594Y5503D01*
X-2564Y5516D01*
X-2538Y5536D01*
X-2518Y5562D01*
X-2511Y5579D01*
X-2484Y5579D01*
X-2478Y5564D01*
X-2459Y5539D01*
X-2434Y5520D01*
X-2404Y5508D01*
X-2373Y5504D01*
X-2342Y5508D01*
X-2312Y5520D01*
X-2287Y5539D01*
X-2268Y5564D01*
X-2256Y5594D01*
X-2252Y5625D01*
X-2256Y5656D01*
X-2268Y5686D01*
X-2287Y5711D01*
X-2312Y5730D01*
X-2317Y5732D01*
X-2313Y5757D01*
X-2302Y5759D01*
X-2267Y5773D01*
X-2237Y5797D01*
X-2213Y5827D01*
X-2199Y5862D01*
X-2194Y5900D01*
X-2199Y5938D01*
X-2213Y5973D01*
X-2237Y6003D01*
X-2267Y6027D01*
X-2302Y6041D01*
X-2313Y6043D01*
X-2317Y6068D01*
X-2312Y6070D01*
X-2287Y6089D01*
X-2268Y6114D01*
X-2256Y6144D01*
X-2252Y6175D01*
X-2256Y6206D01*
X-2268Y6236D01*
X-2287Y6261D01*
X-2312Y6280D01*
X-2342Y6292D01*
X-2373Y6296D01*
X-2404Y6292D01*
X-2434Y6280D01*
X-2459Y6261D01*
X-2478Y6236D01*
X-2484Y6221D01*
X-2511Y6221D01*
X-2518Y6238D01*
X-2538Y6264D01*
X-2564Y6284D01*
X-2594Y6297D01*
X-2612Y6299D01*
D02*
G37*
G36*
X-1642Y5610D02*
X-1751D01*
X-1749Y5592D01*
X-1736Y5562D01*
X-1716Y5536D01*
X-1690Y5516D01*
X-1660Y5503D01*
X-1642Y5501D01*
Y5610D01*
D02*
G37*
G36*
X-2642D02*
X-2751D01*
X-2749Y5592D01*
X-2736Y5562D01*
X-2716Y5536D01*
X-2690Y5516D01*
X-2660Y5503D01*
X-2642Y5501D01*
Y5610D01*
D02*
G37*
G36*
X-550Y5426D02*
X-570Y5422D01*
X-586Y5411D01*
X-625Y5372D01*
X-631Y5373D01*
X-650Y5382D01*
X-653Y5395D01*
X-664Y5411D01*
X-680Y5422D01*
X-700Y5426D01*
X-1550D01*
X-1570Y5422D01*
X-1586Y5411D01*
X-1811Y5186D01*
X-1811Y5186D01*
X-2707Y4290D01*
X-2719Y4279D01*
X-2729Y4271D01*
X-2735Y4266D01*
X-2740D01*
X-2740Y4266D01*
X-2740Y4266D01*
X-2745Y4265D01*
X-2880D01*
Y4234D01*
X-2880Y4234D01*
X-2880Y4234D01*
X-2880Y4233D01*
X-2881Y4232D01*
X-2884Y4231D01*
X-2888Y4229D01*
X-2893Y4228D01*
X-2901Y4227D01*
X-2906Y4226D01*
X-3494D01*
X-3499Y4227D01*
X-3507Y4228D01*
X-3512Y4229D01*
X-3516Y4231D01*
X-3519Y4232D01*
X-3520Y4233D01*
X-3520Y4234D01*
X-3520Y4234D01*
X-3520Y4234D01*
Y4265D01*
X-3720D01*
Y4085D01*
X-3520D01*
Y4116D01*
X-3520Y4116D01*
X-3520Y4117D01*
X-3520Y4117D01*
X-3519Y4118D01*
X-3516Y4119D01*
X-3512Y4121D01*
X-3507Y4123D01*
X-3499Y4124D01*
X-3494Y4124D01*
X-2906D01*
X-2901Y4124D01*
X-2893Y4123D01*
X-2888Y4121D01*
X-2884Y4119D01*
X-2881Y4118D01*
X-2880Y4117D01*
X-2880Y4117D01*
X-2880Y4116D01*
X-2880Y4116D01*
Y4085D01*
X-2680D01*
Y4160D01*
X-2680Y4161D01*
X-2675Y4169D01*
X-2669Y4178D01*
X-2639Y4214D01*
X-1739Y5114D01*
X-1739Y5114D01*
X-1529Y5324D01*
X-708D01*
X-697Y5302D01*
X-697Y5300D01*
X-1186Y4811D01*
X-1197Y4795D01*
X-1201Y4775D01*
X-1197Y4755D01*
X-1186Y4739D01*
X-1170Y4728D01*
X-1150Y4724D01*
X-1130Y4728D01*
X-1114Y4739D01*
X-514Y5339D01*
X-503Y5355D01*
X-499Y5375D01*
X-503Y5395D01*
X-514Y5411D01*
X-530Y5422D01*
X-550Y5426D01*
D02*
G37*
G36*
X-1745Y5506D02*
X-1763Y5503D01*
X-1780Y5496D01*
X-1795Y5485D01*
X-1806Y5470D01*
X-1813Y5453D01*
X-1816Y5435D01*
X-1813Y5417D01*
X-1806Y5400D01*
X-1795Y5385D01*
X-1780Y5374D01*
X-1763Y5367D01*
X-1745Y5364D01*
X-1727Y5367D01*
X-1710Y5374D01*
X-1695Y5385D01*
X-1684Y5400D01*
X-1677Y5417D01*
X-1674Y5435D01*
X-1677Y5453D01*
X-1684Y5470D01*
X-1695Y5485D01*
X-1710Y5496D01*
X-1727Y5503D01*
X-1745Y5506D01*
D02*
G37*
G36*
X-2745D02*
X-2763Y5503D01*
X-2780Y5496D01*
X-2795Y5485D01*
X-2806Y5470D01*
X-2813Y5453D01*
X-2816Y5435D01*
X-2813Y5417D01*
X-2806Y5400D01*
X-2795Y5385D01*
X-2780Y5374D01*
X-2763Y5367D01*
X-2745Y5364D01*
X-2727Y5367D01*
X-2710Y5374D01*
X-2695Y5385D01*
X-2684Y5400D01*
X-2677Y5417D01*
X-2674Y5435D01*
X-2677Y5453D01*
X-2684Y5470D01*
X-2695Y5485D01*
X-2710Y5496D01*
X-2727Y5503D01*
X-2745Y5506D01*
D02*
G37*
G36*
X-2680Y4715D02*
X-2880D01*
Y4684D01*
X-2880Y4684D01*
X-2880Y4683D01*
X-2880Y4683D01*
X-2881Y4682D01*
X-2884Y4681D01*
X-2888Y4679D01*
X-2893Y4677D01*
X-2901Y4676D01*
X-2906Y4676D01*
X-2999D01*
X-3000Y4676D01*
X-3001Y4676D01*
X-3494D01*
X-3499Y4676D01*
X-3507Y4677D01*
X-3512Y4679D01*
X-3516Y4681D01*
X-3519Y4682D01*
X-3520Y4683D01*
X-3520Y4683D01*
X-3520Y4684D01*
X-3520Y4684D01*
Y4715D01*
X-3720D01*
Y4535D01*
X-3520D01*
Y4566D01*
X-3520Y4566D01*
X-3520Y4566D01*
X-3520Y4567D01*
X-3519Y4568D01*
X-3516Y4569D01*
X-3512Y4571D01*
X-3507Y4572D01*
X-3499Y4573D01*
X-3494Y4574D01*
X-2906D01*
X-2901Y4573D01*
X-2893Y4572D01*
X-2888Y4571D01*
X-2884Y4569D01*
X-2881Y4568D01*
X-2880Y4567D01*
X-2880Y4566D01*
X-2880Y4566D01*
X-2880Y4566D01*
Y4535D01*
X-2680D01*
Y4715D01*
D02*
G37*
G36*
X-1712Y4725D02*
X-1787D01*
Y4663D01*
X-1712D01*
Y4725D01*
D02*
G37*
G36*
X-1813D02*
X-1888D01*
Y4663D01*
X-1813D01*
Y4725D01*
D02*
G37*
G36*
X3725Y4720D02*
X3633D01*
Y4637D01*
X3725D01*
Y4720D01*
D02*
G37*
G36*
X2885D02*
X2793D01*
Y4637D01*
X2885D01*
Y4720D01*
D02*
G37*
G36*
X3607D02*
X3515D01*
Y4637D01*
X3607D01*
Y4720D01*
D02*
G37*
G36*
X2767D02*
X2675D01*
Y4637D01*
X2767D01*
Y4720D01*
D02*
G37*
G36*
X-1712Y4637D02*
X-1787D01*
Y4575D01*
X-1712D01*
Y4637D01*
D02*
G37*
G36*
X-1813D02*
X-1888D01*
Y4575D01*
X-1813D01*
Y4637D01*
D02*
G37*
G36*
X3725Y4612D02*
X3633D01*
Y4529D01*
X3725D01*
Y4612D01*
D02*
G37*
G36*
X3607D02*
X3515D01*
Y4529D01*
X3607D01*
Y4612D01*
D02*
G37*
G36*
X2885D02*
X2793D01*
Y4529D01*
X2885D01*
Y4612D01*
D02*
G37*
G36*
X2767D02*
X2675D01*
Y4529D01*
X2767D01*
Y4612D01*
D02*
G37*
G36*
X-1862Y4520D02*
X-1883Y4520D01*
X-1883Y4505D01*
X-1884Y4504D01*
X-1888Y4503D01*
X-1894Y4502D01*
X-1907Y4501D01*
X-1975D01*
X-1975Y4501D01*
X-1977Y4501D01*
X-1979Y4501D01*
X-1986Y4499D01*
X-1994Y4497D01*
X-1996Y4496D01*
X-1998Y4496D01*
X-2004Y4491D01*
X-2011Y4486D01*
X-2011Y4486D01*
X-2012Y4485D01*
X-2014Y4483D01*
X-2018Y4476D01*
X-2022Y4470D01*
X-2022Y4468D01*
X-2023Y4466D01*
X-2024Y4458D01*
X-2026Y4450D01*
X-2026Y4448D01*
X-2026Y4446D01*
X-2024Y4439D01*
X-2022Y4430D01*
X-2021Y4429D01*
X-2021Y4427D01*
X-2021Y4427D01*
X-2016Y4421D01*
X-2011Y4414D01*
X-2009Y4413D01*
X-2008Y4411D01*
X-2001Y4407D01*
X-1995Y4403D01*
X-1993Y4403D01*
X-1991Y4402D01*
X-1983Y4401D01*
X-1975Y4399D01*
X-1975Y4399D01*
X-1975Y4399D01*
X-1906D01*
X-1902Y4399D01*
X-1894Y4398D01*
X-1888Y4397D01*
X-1884Y4396D01*
X-1883Y4395D01*
X-1883Y4380D01*
X-1862Y4380D01*
X-1862Y4380D01*
X-1858Y4380D01*
X-1718D01*
Y4520D01*
X-1858D01*
X-1862Y4520D01*
X-1862Y4520D01*
D02*
G37*
G36*
X-3575Y4497D02*
X-3607D01*
Y4413D01*
X-3513D01*
Y4435D01*
X-3518Y4459D01*
X-3531Y4479D01*
X-3551Y4492D01*
X-3575Y4497D01*
D02*
G37*
G36*
X2825D02*
X2793D01*
Y4413D01*
X2887D01*
Y4435D01*
X2882Y4459D01*
X2869Y4479D01*
X2849Y4492D01*
X2825Y4497D01*
D02*
G37*
G36*
X-3633D02*
X-3665D01*
X-3689Y4492D01*
X-3709Y4479D01*
X-3722Y4459D01*
X-3727Y4435D01*
Y4413D01*
X-3633D01*
Y4497D01*
D02*
G37*
G36*
X2767D02*
X2735D01*
X2711Y4492D01*
X2691Y4479D01*
X2678Y4459D01*
X2673Y4435D01*
Y4413D01*
X2767D01*
Y4497D01*
D02*
G37*
G36*
X1800Y4626D02*
X1780Y4622D01*
X1764Y4611D01*
X1753Y4595D01*
X1749Y4575D01*
X1749Y4575D01*
Y4496D01*
X1749Y4491D01*
X1747Y4483D01*
X1746Y4478D01*
X1744Y4474D01*
X1743Y4472D01*
X1742Y4471D01*
X1742Y4470D01*
X1741Y4470D01*
X1738Y4470D01*
X1718D01*
Y4330D01*
X1883D01*
Y4470D01*
X1862D01*
X1859Y4470D01*
X1858Y4470D01*
X1858Y4471D01*
X1857Y4472D01*
X1856Y4474D01*
X1854Y4478D01*
X1853Y4483D01*
X1851Y4491D01*
X1851Y4496D01*
Y4575D01*
X1847Y4595D01*
X1836Y4611D01*
X1836Y4611D01*
X1820Y4622D01*
X1800Y4626D01*
D02*
G37*
G36*
X2887Y4387D02*
X2793D01*
Y4303D01*
X2825D01*
X2849Y4308D01*
X2869Y4321D01*
X2882Y4341D01*
X2887Y4365D01*
Y4387D01*
D02*
G37*
G36*
X2767D02*
X2673D01*
Y4365D01*
X2678Y4341D01*
X2691Y4321D01*
X2711Y4308D01*
X2735Y4303D01*
X2767D01*
Y4387D01*
D02*
G37*
G36*
X-3513D02*
X-3607D01*
Y4303D01*
X-3575D01*
X-3551Y4308D01*
X-3531Y4321D01*
X-3518Y4341D01*
X-3513Y4365D01*
Y4387D01*
D02*
G37*
G36*
X-3633D02*
X-3727D01*
Y4365D01*
X-3722Y4341D01*
X-3709Y4321D01*
X-3689Y4308D01*
X-3665Y4303D01*
X-3633D01*
Y4387D01*
D02*
G37*
G36*
X3720Y4265D02*
X3520D01*
Y4234D01*
X3520Y4234D01*
X3520Y4234D01*
X3520Y4233D01*
X3519Y4232D01*
X3516Y4231D01*
X3512Y4229D01*
X3507Y4228D01*
X3499Y4227D01*
X3494Y4226D01*
X2906D01*
X2901Y4227D01*
X2893Y4228D01*
X2888Y4229D01*
X2884Y4231D01*
X2881Y4232D01*
X2880Y4233D01*
X2880Y4234D01*
X2880Y4234D01*
X2880Y4234D01*
Y4265D01*
X2680D01*
Y4085D01*
X2880D01*
Y4116D01*
X2880Y4116D01*
X2880Y4117D01*
X2880Y4117D01*
X2881Y4118D01*
X2884Y4119D01*
X2888Y4121D01*
X2893Y4123D01*
X2901Y4124D01*
X2906Y4124D01*
X3494D01*
X3499Y4124D01*
X3507Y4123D01*
X3512Y4121D01*
X3516Y4119D01*
X3519Y4118D01*
X3520Y4117D01*
X3520Y4117D01*
X3520Y4116D01*
X3520Y4116D01*
Y4085D01*
X3720D01*
Y4265D01*
D02*
G37*
G36*
X1888Y4275D02*
X1813D01*
Y4213D01*
X1888D01*
Y4275D01*
D02*
G37*
G36*
X1787D02*
X1712D01*
Y4213D01*
X1787D01*
Y4275D01*
D02*
G37*
G36*
X-1862Y4220D02*
X-1882Y4220D01*
X-1882Y4205D01*
X-1884Y4204D01*
X-1888Y4203D01*
X-1894Y4202D01*
X-1907Y4201D01*
X-1975D01*
X-1975Y4201D01*
X-1975D01*
X-1983Y4199D01*
X-1991Y4198D01*
X-1993Y4197D01*
X-1995Y4197D01*
X-2001Y4193D01*
X-2008Y4189D01*
X-2010Y4187D01*
X-2011Y4186D01*
X-2016Y4179D01*
X-2021Y4173D01*
X-2021Y4171D01*
X-2022Y4169D01*
X-2024Y4161D01*
X-2026Y4154D01*
X-2026Y4152D01*
X-2026Y4150D01*
X-2024Y4142D01*
X-2023Y4134D01*
X-2022Y4132D01*
X-2022Y4130D01*
X-2017Y4124D01*
X-2014Y4117D01*
X-2012Y4115D01*
X-2011Y4114D01*
X-2004Y4109D01*
X-1998Y4104D01*
X-1998Y4104D01*
X-1996Y4104D01*
X-1995Y4103D01*
X-1994Y4103D01*
X-1994Y4103D01*
X-1986Y4101D01*
X-1979Y4099D01*
X-1977Y4099D01*
X-1975Y4099D01*
X-1906D01*
X-1902Y4099D01*
X-1894Y4098D01*
X-1888Y4097D01*
X-1884Y4096D01*
X-1882Y4095D01*
X-1882Y4080D01*
X-1862Y4080D01*
X-1862Y4080D01*
X-1857Y4080D01*
X-1717D01*
Y4220D01*
X-1857D01*
X-1862Y4220D01*
X-1862Y4220D01*
D02*
G37*
G36*
X1888Y4187D02*
X1813D01*
Y4125D01*
X1888D01*
Y4187D01*
D02*
G37*
G36*
X1787D02*
X1712D01*
Y4125D01*
X1787D01*
Y4187D01*
D02*
G37*
G36*
X-1712Y4025D02*
X-1787D01*
Y3963D01*
X-1712D01*
Y4025D01*
D02*
G37*
G36*
X-1813D02*
X-1888D01*
Y3963D01*
X-1813D01*
Y4025D01*
D02*
G37*
G36*
X-1712Y3937D02*
X-1787D01*
Y3875D01*
X-1712D01*
Y3937D01*
D02*
G37*
G36*
X-1813D02*
X-1888D01*
Y3875D01*
X-1813D01*
Y3937D01*
D02*
G37*
G36*
X4465Y4156D02*
Y3821D01*
X4800D01*
X4797Y3861D01*
X4784Y3914D01*
X4763Y3965D01*
X4734Y4012D01*
X4698Y4054D01*
X4656Y4090D01*
X4609Y4118D01*
X4558Y4140D01*
X4505Y4152D01*
X4465Y4156D01*
D02*
G37*
G36*
X4435D02*
X4395Y4152D01*
X4342Y4140D01*
X4291Y4118D01*
X4244Y4090D01*
X4202Y4054D01*
X4166Y4012D01*
X4137Y3965D01*
X4116Y3914D01*
X4103Y3861D01*
X4100Y3821D01*
X4435D01*
Y4156D01*
D02*
G37*
G36*
X-4435D02*
Y3821D01*
X-4100D01*
X-4103Y3861D01*
X-4116Y3914D01*
X-4137Y3965D01*
X-4166Y4012D01*
X-4202Y4054D01*
X-4244Y4090D01*
X-4291Y4118D01*
X-4342Y4140D01*
X-4395Y4152D01*
X-4435Y4156D01*
D02*
G37*
G36*
X-4465D02*
X-4505Y4152D01*
X-4558Y4140D01*
X-4609Y4118D01*
X-4656Y4090D01*
X-4698Y4054D01*
X-4734Y4012D01*
X-4763Y3965D01*
X-4784Y3914D01*
X-4797Y3861D01*
X-4800Y3821D01*
X-4465D01*
Y4156D01*
D02*
G37*
G36*
X4800Y3791D02*
X4465D01*
Y3456D01*
X4505Y3459D01*
X4558Y3472D01*
X4609Y3493D01*
X4656Y3522D01*
X4698Y3557D01*
X4734Y3599D01*
X4763Y3646D01*
X4784Y3697D01*
X4797Y3751D01*
X4800Y3791D01*
D02*
G37*
G36*
X4435D02*
X4100D01*
X4103Y3751D01*
X4116Y3697D01*
X4137Y3646D01*
X4166Y3599D01*
X4202Y3557D01*
X4244Y3522D01*
X4291Y3493D01*
X4342Y3472D01*
X4395Y3459D01*
X4435Y3456D01*
Y3791D01*
D02*
G37*
G36*
X-4100D02*
X-4435D01*
Y3456D01*
X-4395Y3459D01*
X-4342Y3472D01*
X-4291Y3493D01*
X-4244Y3522D01*
X-4202Y3557D01*
X-4166Y3599D01*
X-4137Y3646D01*
X-4116Y3697D01*
X-4103Y3751D01*
X-4100Y3791D01*
D02*
G37*
G36*
X-4465D02*
X-4800D01*
X-4797Y3751D01*
X-4784Y3697D01*
X-4763Y3646D01*
X-4734Y3599D01*
X-4698Y3557D01*
X-4656Y3522D01*
X-4609Y3493D01*
X-4558Y3472D01*
X-4505Y3459D01*
X-4465Y3456D01*
Y3791D01*
D02*
G37*
G36*
X-1150Y2851D02*
X-1170Y2847D01*
X-1186Y2836D01*
X-1197Y2820D01*
X-1200Y2806D01*
X-1217Y2796D01*
X-1225Y2794D01*
X-1230Y2797D01*
X-1250Y2801D01*
X-1270Y2797D01*
X-1286Y2786D01*
X-1297Y2770D01*
X-1300Y2756D01*
X-1317Y2746D01*
X-1325Y2744D01*
X-1330Y2747D01*
X-1350Y2751D01*
X-1370Y2747D01*
X-1386Y2736D01*
X-1397Y2720D01*
X-1401Y2700D01*
X-1397Y2680D01*
X-1386Y2664D01*
X-1201Y2479D01*
Y2050D01*
X-1197Y2030D01*
X-1186Y2014D01*
X-1170Y2003D01*
X-1150Y1999D01*
X-1130Y2003D01*
X-1114Y2014D01*
X-1103Y2030D01*
X-1099Y2050D01*
Y2093D01*
X-1074Y2106D01*
X-1070Y2103D01*
X-1050Y2099D01*
X-1030Y2103D01*
X-1014Y2114D01*
X-1003Y2130D01*
X-999Y2150D01*
Y2193D01*
X-974Y2206D01*
X-970Y2203D01*
X-950Y2199D01*
X-930Y2203D01*
X-914Y2214D01*
X-903Y2230D01*
X-899Y2250D01*
Y2600D01*
X-903Y2620D01*
X-914Y2636D01*
X-1114Y2836D01*
X-1130Y2847D01*
X-1150Y2851D01*
D02*
G37*
G36*
X4465Y2056D02*
Y1721D01*
X4800D01*
X4797Y1761D01*
X4784Y1814D01*
X4763Y1865D01*
X4734Y1912D01*
X4698Y1954D01*
X4656Y1990D01*
X4609Y2018D01*
X4558Y2040D01*
X4505Y2052D01*
X4465Y2056D01*
D02*
G37*
G36*
X4435D02*
X4395Y2052D01*
X4342Y2040D01*
X4291Y2018D01*
X4244Y1990D01*
X4202Y1954D01*
X4166Y1912D01*
X4137Y1865D01*
X4116Y1814D01*
X4103Y1761D01*
X4100Y1721D01*
X4435D01*
Y2056D01*
D02*
G37*
G36*
X-4435D02*
Y1721D01*
X-4100D01*
X-4103Y1761D01*
X-4116Y1814D01*
X-4137Y1865D01*
X-4166Y1912D01*
X-4202Y1954D01*
X-4244Y1990D01*
X-4291Y2018D01*
X-4342Y2040D01*
X-4395Y2052D01*
X-4435Y2056D01*
D02*
G37*
G36*
X-4465D02*
X-4505Y2052D01*
X-4558Y2040D01*
X-4609Y2018D01*
X-4656Y1990D01*
X-4698Y1954D01*
X-4734Y1912D01*
X-4763Y1865D01*
X-4784Y1814D01*
X-4797Y1761D01*
X-4800Y1721D01*
X-4465D01*
Y2056D01*
D02*
G37*
G36*
X1497Y1926D02*
X1478Y1922D01*
X1461Y1911D01*
X1450Y1895D01*
X1450Y1892D01*
X1083Y1525D01*
X1080Y1525D01*
X1064Y1514D01*
X1053Y1497D01*
X1049Y1477D01*
X1053Y1458D01*
X1064Y1441D01*
X1080Y1430D01*
X1100Y1427D01*
X1120Y1430D01*
X1136Y1441D01*
X1147Y1458D01*
X1148Y1460D01*
X1515Y1827D01*
X1517Y1828D01*
X1534Y1839D01*
X1545Y1855D01*
X1548Y1875D01*
X1545Y1895D01*
X1534Y1911D01*
X1517Y1922D01*
X1497Y1926D01*
D02*
G37*
G36*
X4800Y1691D02*
X4465D01*
Y1356D01*
X4505Y1359D01*
X4558Y1372D01*
X4609Y1393D01*
X4656Y1422D01*
X4698Y1457D01*
X4734Y1499D01*
X4763Y1546D01*
X4784Y1597D01*
X4797Y1651D01*
X4800Y1691D01*
D02*
G37*
G36*
X4435D02*
X4100D01*
X4103Y1651D01*
X4116Y1597D01*
X4137Y1546D01*
X4166Y1499D01*
X4202Y1457D01*
X4244Y1422D01*
X4291Y1393D01*
X4342Y1372D01*
X4395Y1359D01*
X4435Y1356D01*
Y1691D01*
D02*
G37*
G36*
X-4100D02*
X-4435D01*
Y1356D01*
X-4395Y1359D01*
X-4342Y1372D01*
X-4291Y1393D01*
X-4244Y1422D01*
X-4202Y1457D01*
X-4166Y1499D01*
X-4137Y1546D01*
X-4116Y1597D01*
X-4103Y1651D01*
X-4100Y1691D01*
D02*
G37*
G36*
X-4465D02*
X-4800D01*
X-4797Y1651D01*
X-4784Y1597D01*
X-4763Y1546D01*
X-4734Y1499D01*
X-4698Y1457D01*
X-4656Y1422D01*
X-4609Y1393D01*
X-4558Y1372D01*
X-4505Y1359D01*
X-4465Y1356D01*
Y1691D01*
D02*
G37*
G36*
X2160Y1846D02*
X1680D01*
X1655Y1843D01*
X1632Y1833D01*
X1612Y1818D01*
X565Y771D01*
X-1754D01*
Y775D01*
X-1757Y800D01*
X-1767Y823D01*
X-1782Y843D01*
X-1802Y858D01*
X-1825Y868D01*
X-1850Y871D01*
X-1875Y868D01*
X-1898Y858D01*
X-1918Y843D01*
X-1933Y823D01*
X-1943Y800D01*
X-1946Y775D01*
Y675D01*
X-1943Y650D01*
X-1933Y627D01*
X-1918Y607D01*
X-1898Y592D01*
X-1875Y582D01*
X-1850Y579D01*
X605D01*
X630Y582D01*
X653Y592D01*
X673Y607D01*
X1720Y1654D01*
X2160D01*
X2185Y1657D01*
X2208Y1667D01*
X2228Y1682D01*
X2243Y1702D01*
X2253Y1725D01*
X2256Y1750D01*
X2253Y1775D01*
X2243Y1798D01*
X2228Y1818D01*
X2208Y1833D01*
X2185Y1843D01*
X2160Y1846D01*
D02*
G37*
G36*
X2750Y896D02*
X2712Y891D01*
X2677Y877D01*
X2647Y853D01*
X2623Y823D01*
X2609Y788D01*
X2604Y750D01*
X2609Y712D01*
X2623Y677D01*
X2647Y647D01*
X2677Y623D01*
X2712Y609D01*
X2750Y604D01*
X2788Y609D01*
X2823Y623D01*
X2853Y647D01*
X2877Y677D01*
X2891Y712D01*
X2896Y750D01*
X2891Y788D01*
X2877Y823D01*
X2853Y853D01*
X2823Y877D01*
X2788Y891D01*
X2750Y896D01*
D02*
G37*
G36*
X-2750D02*
X-2788Y891D01*
X-2823Y877D01*
X-2853Y853D01*
X-2877Y823D01*
X-2891Y788D01*
X-2896Y750D01*
X-2896Y748D01*
X-2897Y745D01*
X-2900Y740D01*
X-2904Y735D01*
X-2929Y707D01*
X-3118Y518D01*
X-3133Y498D01*
X-3143Y475D01*
X-3146Y450D01*
Y50D01*
X-3143Y25D01*
X-3133Y2D01*
X-3118Y-18D01*
X-2927Y-209D01*
X-2916Y-221D01*
X-2904Y-235D01*
X-2900Y-240D01*
X-2897Y-245D01*
X-2896Y-248D01*
X-2896Y-250D01*
X-2891Y-288D01*
X-2877Y-323D01*
X-2853Y-353D01*
X-2823Y-377D01*
X-2788Y-391D01*
X-2750Y-396D01*
X-2712Y-391D01*
X-2677Y-377D01*
X-2647Y-353D01*
X-2623Y-323D01*
X-2609Y-288D01*
X-2604Y-250D01*
X-2609Y-212D01*
X-2623Y-177D01*
X-2647Y-147D01*
X-2677Y-123D01*
X-2712Y-109D01*
X-2750Y-104D01*
X-2752Y-104D01*
X-2755Y-103D01*
X-2760Y-100D01*
X-2765Y-96D01*
X-2793Y-71D01*
X-2954Y90D01*
Y410D01*
X-2791Y573D01*
X-2779Y584D01*
X-2765Y596D01*
X-2760Y600D01*
X-2755Y603D01*
X-2752Y604D01*
X-2750Y604D01*
X-2712Y609D01*
X-2677Y623D01*
X-2647Y647D01*
X-2623Y677D01*
X-2609Y712D01*
X-2604Y750D01*
X-2609Y788D01*
X-2623Y823D01*
X-2647Y853D01*
X-2677Y877D01*
X-2712Y891D01*
X-2750Y896D01*
D02*
G37*
G36*
X-2223Y751D02*
X-2225D01*
X-2245Y747D01*
X-2261Y736D01*
X-2272Y720D01*
X-2276Y700D01*
X-2272Y680D01*
X-2261Y664D01*
X-2254Y659D01*
X-2223Y628D01*
X-2225Y617D01*
X-2232Y602D01*
X-2247Y599D01*
X-2263Y588D01*
X-2274Y572D01*
X-2278Y552D01*
X-2274Y533D01*
X-2263Y516D01*
X-2231Y484D01*
Y484D01*
X-2236Y465D01*
X-2241Y458D01*
X-2250Y456D01*
X-2267Y445D01*
X-2278Y429D01*
X-2281Y409D01*
X-2278Y390D01*
X-2267Y373D01*
X-2032Y139D01*
X-2016Y128D01*
X-1996Y124D01*
X125D01*
X145Y128D01*
X161Y139D01*
X172Y155D01*
X176Y175D01*
X172Y195D01*
X166Y204D01*
X175Y227D01*
X177Y229D01*
X220D01*
X240Y233D01*
X256Y244D01*
X267Y260D01*
X271Y280D01*
X267Y300D01*
X256Y316D01*
X240Y327D01*
X220Y331D01*
X-1934D01*
X-1952Y350D01*
X-1951Y359D01*
X-1942Y374D01*
X425D01*
X445Y378D01*
X461Y389D01*
X472Y405D01*
X476Y425D01*
X472Y445D01*
X461Y461D01*
X445Y472D01*
X425Y476D01*
X-1927D01*
X-2187Y736D01*
X-2203Y747D01*
X-2223Y751D01*
D02*
G37*
G36*
X-2750Y396D02*
X-2788Y391D01*
X-2823Y377D01*
X-2853Y353D01*
X-2877Y323D01*
X-2891Y288D01*
X-2896Y250D01*
X-2891Y212D01*
X-2877Y177D01*
X-2853Y147D01*
X-2823Y123D01*
X-2788Y109D01*
X-2750Y104D01*
X-2712Y109D01*
X-2677Y123D01*
X-2647Y147D01*
X-2623Y177D01*
X-2609Y212D01*
X-2604Y250D01*
X-2609Y288D01*
X-2623Y323D01*
X-2647Y353D01*
X-2677Y377D01*
X-2712Y391D01*
X-2750Y396D01*
D02*
G37*
G36*
X2750Y-104D02*
X2712Y-109D01*
X2677Y-123D01*
X2647Y-147D01*
X2623Y-177D01*
X2609Y-212D01*
X2604Y-250D01*
X2609Y-288D01*
X2623Y-323D01*
X2647Y-353D01*
X2677Y-377D01*
X2712Y-391D01*
X2750Y-396D01*
X2788Y-391D01*
X2823Y-377D01*
X2853Y-353D01*
X2877Y-323D01*
X2891Y-288D01*
X2896Y-250D01*
X2891Y-212D01*
X2877Y-177D01*
X2853Y-147D01*
X2823Y-123D01*
X2788Y-109D01*
X2750Y-104D01*
D02*
G37*
G36*
X750Y371D02*
X732Y368D01*
X715Y361D01*
X700Y350D01*
X71Y-279D01*
X-690D01*
X-708Y-282D01*
X-725Y-289D01*
X-740Y-300D01*
X-751Y-315D01*
X-758Y-332D01*
X-761Y-350D01*
X-758Y-368D01*
X-751Y-385D01*
X-740Y-400D01*
X-725Y-411D01*
X-708Y-418D01*
X-690Y-421D01*
X100D01*
X118Y-418D01*
X135Y-411D01*
X150Y-400D01*
X800Y250D01*
X811Y265D01*
X818Y282D01*
X821Y300D01*
X818Y318D01*
X811Y335D01*
X800Y350D01*
X785Y361D01*
X768Y368D01*
X750Y371D01*
D02*
G37*
G36*
X2750Y396D02*
X2712Y391D01*
X2677Y377D01*
X2647Y353D01*
X2623Y323D01*
X2609Y288D01*
X2604Y250D01*
X2609Y212D01*
X2623Y177D01*
X2647Y147D01*
X2677Y123D01*
X2712Y109D01*
X2750Y104D01*
X2752Y104D01*
X2755Y103D01*
X2760Y100D01*
X2765Y96D01*
X2793Y71D01*
X2954Y-90D01*
Y-410D01*
X2791Y-573D01*
X2779Y-584D01*
X2765Y-596D01*
X2760Y-600D01*
X2755Y-603D01*
X2752Y-604D01*
X2750Y-604D01*
X2712Y-609D01*
X2677Y-623D01*
X2647Y-647D01*
X2623Y-677D01*
X2609Y-712D01*
X2604Y-750D01*
X2609Y-788D01*
X2623Y-823D01*
X2647Y-853D01*
X2677Y-877D01*
X2712Y-891D01*
X2750Y-896D01*
X2788Y-891D01*
X2823Y-877D01*
X2853Y-853D01*
X2877Y-823D01*
X2891Y-788D01*
X2896Y-750D01*
X2896Y-748D01*
X2897Y-745D01*
X2900Y-740D01*
X2904Y-735D01*
X2929Y-707D01*
X3118Y-518D01*
X3133Y-498D01*
X3143Y-475D01*
X3146Y-450D01*
Y-50D01*
X3143Y-25D01*
X3133Y-2D01*
X3118Y18D01*
X2927Y209D01*
X2916Y221D01*
X2904Y235D01*
X2900Y240D01*
X2897Y245D01*
X2896Y248D01*
X2896Y250D01*
X2891Y288D01*
X2877Y323D01*
X2853Y353D01*
X2823Y377D01*
X2788Y391D01*
X2750Y396D01*
D02*
G37*
G36*
X-2750Y-604D02*
X-2788Y-609D01*
X-2823Y-623D01*
X-2853Y-647D01*
X-2877Y-677D01*
X-2891Y-712D01*
X-2896Y-750D01*
X-2891Y-788D01*
X-2877Y-823D01*
X-2853Y-853D01*
X-2823Y-877D01*
X-2788Y-891D01*
X-2750Y-896D01*
X-2712Y-891D01*
X-2677Y-877D01*
X-2647Y-853D01*
X-2623Y-823D01*
X-2609Y-788D01*
X-2604Y-750D01*
X-2609Y-712D01*
X-2623Y-677D01*
X-2647Y-647D01*
X-2677Y-623D01*
X-2712Y-609D01*
X-2750Y-604D01*
D02*
G37*
G36*
X-400Y-1069D02*
X-420Y-1073D01*
X-436Y-1084D01*
X-538Y-1186D01*
X-1470D01*
X-1490Y-1189D01*
X-1506Y-1200D01*
X-1517Y-1217D01*
X-1521Y-1236D01*
X-1517Y-1256D01*
X-1506Y-1273D01*
X-1490Y-1284D01*
X-1470Y-1287D01*
X-516D01*
X-497Y-1284D01*
X-480Y-1273D01*
X-364Y-1156D01*
X-353Y-1140D01*
X-349Y-1120D01*
X-353Y-1100D01*
X-364Y-1084D01*
X-380Y-1073D01*
X-400Y-1069D01*
D02*
G37*
G36*
X-300Y-1159D02*
X-320Y-1163D01*
X-336Y-1174D01*
X-475Y-1313D01*
X-1470D01*
X-1490Y-1316D01*
X-1506Y-1327D01*
X-1517Y-1344D01*
X-1521Y-1364D01*
X-1517Y-1383D01*
X-1506Y-1400D01*
X-1490Y-1411D01*
X-1470Y-1414D01*
X-453D01*
X-434Y-1411D01*
X-417Y-1400D01*
X-264Y-1246D01*
X-253Y-1230D01*
X-249Y-1210D01*
X-253Y-1190D01*
X-264Y-1174D01*
X-280Y-1163D01*
X-300Y-1159D01*
D02*
G37*
G36*
X-825Y-1440D02*
X-1470D01*
X-1490Y-1443D01*
X-1506Y-1454D01*
X-1517Y-1471D01*
X-1521Y-1490D01*
X-1517Y-1510D01*
X-1506Y-1527D01*
X-1490Y-1538D01*
X-1470Y-1541D01*
X-825D01*
X-805Y-1538D01*
X-789Y-1527D01*
X-778Y-1510D01*
X-774Y-1490D01*
X-778Y-1471D01*
X-789Y-1454D01*
X-805Y-1443D01*
X-825Y-1440D01*
D02*
G37*
G36*
X4465Y-1356D02*
Y-1691D01*
X4800D01*
X4797Y-1651D01*
X4784Y-1597D01*
X4763Y-1546D01*
X4734Y-1499D01*
X4698Y-1457D01*
X4656Y-1422D01*
X4609Y-1393D01*
X4558Y-1372D01*
X4505Y-1359D01*
X4465Y-1356D01*
D02*
G37*
G36*
X4435D02*
X4395Y-1359D01*
X4342Y-1372D01*
X4291Y-1393D01*
X4244Y-1422D01*
X4202Y-1457D01*
X4166Y-1499D01*
X4137Y-1546D01*
X4116Y-1597D01*
X4103Y-1651D01*
X4100Y-1691D01*
X4435D01*
Y-1356D01*
D02*
G37*
G36*
X-4435D02*
Y-1691D01*
X-4100D01*
X-4103Y-1651D01*
X-4116Y-1597D01*
X-4137Y-1546D01*
X-4166Y-1499D01*
X-4202Y-1457D01*
X-4244Y-1422D01*
X-4291Y-1393D01*
X-4342Y-1372D01*
X-4395Y-1359D01*
X-4435Y-1356D01*
D02*
G37*
G36*
X-4465D02*
X-4505Y-1359D01*
X-4558Y-1372D01*
X-4609Y-1393D01*
X-4656Y-1422D01*
X-4698Y-1457D01*
X-4734Y-1499D01*
X-4763Y-1546D01*
X-4784Y-1597D01*
X-4797Y-1651D01*
X-4800Y-1691D01*
X-4465D01*
Y-1356D01*
D02*
G37*
G36*
X-1850Y-554D02*
X-1868Y-557D01*
X-1885Y-564D01*
X-1900Y-575D01*
X-1911Y-590D01*
X-1918Y-607D01*
X-1921Y-625D01*
X-1921Y-625D01*
Y-737D01*
X-2490Y-1306D01*
X-2501Y-1321D01*
X-2508Y-1338D01*
X-2511Y-1356D01*
Y-1577D01*
Y-1623D01*
X-2508Y-1642D01*
X-2501Y-1659D01*
X-2490Y-1673D01*
X-2475Y-1684D01*
X-2458Y-1691D01*
X-2440Y-1694D01*
X-2422Y-1691D01*
X-2405Y-1684D01*
X-2390Y-1673D01*
X-2379Y-1659D01*
X-2372Y-1642D01*
X-2369Y-1623D01*
Y-1577D01*
Y-1386D01*
X-1800Y-816D01*
X-1789Y-802D01*
X-1782Y-785D01*
X-1779Y-766D01*
Y-625D01*
X-1782Y-607D01*
X-1789Y-590D01*
X-1800Y-575D01*
X-1800Y-575D01*
X-1815Y-564D01*
X-1832Y-557D01*
X-1850Y-554D01*
D02*
G37*
G36*
X4800Y-1721D02*
X4465D01*
Y-2056D01*
X4505Y-2052D01*
X4558Y-2040D01*
X4609Y-2018D01*
X4656Y-1990D01*
X4698Y-1954D01*
X4734Y-1912D01*
X4763Y-1865D01*
X4784Y-1814D01*
X4797Y-1761D01*
X4800Y-1721D01*
D02*
G37*
G36*
X4435D02*
X4100D01*
X4103Y-1761D01*
X4116Y-1814D01*
X4137Y-1865D01*
X4166Y-1912D01*
X4202Y-1954D01*
X4244Y-1990D01*
X4291Y-2018D01*
X4342Y-2040D01*
X4395Y-2052D01*
X4435Y-2056D01*
Y-1721D01*
D02*
G37*
G36*
X-4100D02*
X-4435D01*
Y-2056D01*
X-4395Y-2052D01*
X-4342Y-2040D01*
X-4291Y-2018D01*
X-4244Y-1990D01*
X-4202Y-1954D01*
X-4166Y-1912D01*
X-4137Y-1865D01*
X-4116Y-1814D01*
X-4103Y-1761D01*
X-4100Y-1721D01*
D02*
G37*
G36*
X-4465D02*
X-4800D01*
X-4797Y-1761D01*
X-4784Y-1814D01*
X-4763Y-1865D01*
X-4734Y-1912D01*
X-4698Y-1954D01*
X-4656Y-1990D01*
X-4609Y-2018D01*
X-4558Y-2040D01*
X-4505Y-2052D01*
X-4465Y-2056D01*
Y-1721D01*
D02*
G37*
G36*
X-444Y-2374D02*
X-825D01*
X-845Y-2378D01*
X-861Y-2389D01*
X-872Y-2405D01*
X-876Y-2425D01*
X-872Y-2445D01*
X-861Y-2461D01*
X-845Y-2472D01*
X-825Y-2476D01*
X-444D01*
X-425Y-2472D01*
X-408Y-2461D01*
X-397Y-2445D01*
X-394Y-2425D01*
X-397Y-2405D01*
X-408Y-2389D01*
X-425Y-2378D01*
X-444Y-2374D01*
D02*
G37*
G36*
X4465Y-3456D02*
Y-3791D01*
X4800D01*
X4797Y-3751D01*
X4784Y-3697D01*
X4763Y-3646D01*
X4734Y-3599D01*
X4698Y-3557D01*
X4656Y-3522D01*
X4609Y-3493D01*
X4558Y-3472D01*
X4505Y-3459D01*
X4465Y-3456D01*
D02*
G37*
G36*
X4435D02*
X4395Y-3459D01*
X4342Y-3472D01*
X4291Y-3493D01*
X4244Y-3522D01*
X4202Y-3557D01*
X4166Y-3599D01*
X4137Y-3646D01*
X4116Y-3697D01*
X4103Y-3751D01*
X4100Y-3791D01*
X4435D01*
Y-3456D01*
D02*
G37*
G36*
X-4435D02*
Y-3791D01*
X-4100D01*
X-4103Y-3751D01*
X-4116Y-3697D01*
X-4137Y-3646D01*
X-4166Y-3599D01*
X-4202Y-3557D01*
X-4244Y-3522D01*
X-4291Y-3493D01*
X-4342Y-3472D01*
X-4395Y-3459D01*
X-4435Y-3456D01*
D02*
G37*
G36*
X-4465D02*
X-4505Y-3459D01*
X-4558Y-3472D01*
X-4609Y-3493D01*
X-4656Y-3522D01*
X-4698Y-3557D01*
X-4734Y-3599D01*
X-4763Y-3646D01*
X-4784Y-3697D01*
X-4797Y-3751D01*
X-4800Y-3791D01*
X-4465D01*
Y-3456D01*
D02*
G37*
G36*
X2720Y-4085D02*
X2520D01*
Y-4116D01*
X2520Y-4116D01*
X2520Y-4117D01*
X2520Y-4117D01*
X2519Y-4118D01*
X2516Y-4119D01*
X2512Y-4121D01*
X2507Y-4123D01*
X2499Y-4124D01*
X2494Y-4124D01*
X1906D01*
X1901Y-4124D01*
X1893Y-4123D01*
X1888Y-4121D01*
X1884Y-4119D01*
X1881Y-4118D01*
X1880Y-4117D01*
X1880Y-4117D01*
X1880Y-4116D01*
X1880Y-4116D01*
Y-4085D01*
X1680D01*
Y-4265D01*
X1880D01*
Y-4234D01*
X1880Y-4234D01*
X1880Y-4234D01*
X1880Y-4233D01*
X1881Y-4232D01*
X1884Y-4231D01*
X1888Y-4229D01*
X1893Y-4228D01*
X1901Y-4227D01*
X1906Y-4226D01*
X2494D01*
X2499Y-4227D01*
X2507Y-4228D01*
X2512Y-4229D01*
X2516Y-4231D01*
X2519Y-4232D01*
X2520Y-4233D01*
X2520Y-4234D01*
X2520Y-4234D01*
X2520Y-4234D01*
Y-4265D01*
X2720D01*
Y-4085D01*
D02*
G37*
G36*
X-1680D02*
X-1880D01*
Y-4125D01*
X-1881Y-4126D01*
X-1884Y-4127D01*
X-1888Y-4128D01*
X-1894Y-4129D01*
X-1898Y-4129D01*
X-1912D01*
X-1913Y-4128D01*
X-1933Y-4124D01*
X-1953Y-4128D01*
X-1954Y-4129D01*
X-2043D01*
X-2044Y-4129D01*
X-2106D01*
X-2107Y-4129D01*
X-2502D01*
X-2506Y-4129D01*
X-2512Y-4128D01*
X-2516Y-4127D01*
X-2519Y-4126D01*
X-2520Y-4125D01*
Y-4085D01*
X-2720D01*
Y-4265D01*
X-2520D01*
Y-4225D01*
X-2519Y-4225D01*
X-2516Y-4224D01*
X-2512Y-4222D01*
X-2506Y-4221D01*
X-2502Y-4221D01*
X-2128D01*
X-2122Y-4228D01*
X-2114Y-4246D01*
X-2118Y-4257D01*
X-2121Y-4275D01*
X-2118Y-4293D01*
X-2111Y-4310D01*
X-2100Y-4325D01*
X-2071Y-4354D01*
Y-4571D01*
X-2129Y-4574D01*
X-2494D01*
X-2499Y-4573D01*
X-2507Y-4572D01*
X-2512Y-4571D01*
X-2516Y-4569D01*
X-2519Y-4568D01*
X-2520Y-4567D01*
X-2520Y-4566D01*
X-2520Y-4566D01*
X-2520Y-4566D01*
Y-4535D01*
X-2720D01*
Y-4715D01*
X-2520D01*
Y-4684D01*
X-2520Y-4684D01*
X-2520Y-4683D01*
X-2520Y-4683D01*
X-2519Y-4682D01*
X-2516Y-4681D01*
X-2512Y-4679D01*
X-2507Y-4677D01*
X-2499Y-4676D01*
X-2494Y-4676D01*
X-2451D01*
X-2450Y-4676D01*
X-2449Y-4676D01*
X-2107D01*
X-2065Y-4676D01*
X-2049Y-4678D01*
X-2045Y-4678D01*
X-2035Y-4686D01*
X-2018Y-4693D01*
X-2000Y-4695D01*
X-1982Y-4693D01*
X-1965Y-4686D01*
X-1951Y-4676D01*
X-1906D01*
X-1901Y-4676D01*
X-1893Y-4677D01*
X-1888Y-4679D01*
X-1884Y-4681D01*
X-1881Y-4682D01*
X-1880Y-4683D01*
X-1880Y-4683D01*
X-1880Y-4684D01*
X-1880Y-4684D01*
Y-4715D01*
X-1680D01*
Y-4535D01*
X-1880D01*
Y-4566D01*
X-1880Y-4566D01*
X-1880Y-4566D01*
X-1880Y-4567D01*
X-1881Y-4568D01*
X-1884Y-4569D01*
X-1888Y-4571D01*
X-1893Y-4572D01*
X-1901Y-4573D01*
X-1904Y-4574D01*
X-1929Y-4572D01*
Y-4325D01*
X-1932Y-4307D01*
X-1939Y-4290D01*
X-1950Y-4275D01*
X-1969Y-4256D01*
X-1963Y-4228D01*
X-1953Y-4222D01*
X-1933Y-4226D01*
X-1913Y-4222D01*
X-1912Y-4221D01*
X-1898D01*
X-1894Y-4221D01*
X-1888Y-4222D01*
X-1884Y-4224D01*
X-1881Y-4225D01*
X-1880Y-4225D01*
Y-4265D01*
X-1680D01*
Y-4085D01*
D02*
G37*
G36*
X4800Y-3821D02*
X4465D01*
Y-4156D01*
X4505Y-4152D01*
X4558Y-4140D01*
X4609Y-4118D01*
X4656Y-4090D01*
X4698Y-4054D01*
X4734Y-4012D01*
X4763Y-3965D01*
X4784Y-3914D01*
X4797Y-3861D01*
X4800Y-3821D01*
D02*
G37*
G36*
X4435D02*
X4100D01*
X4103Y-3861D01*
X4116Y-3914D01*
X4137Y-3965D01*
X4166Y-4012D01*
X4202Y-4054D01*
X4244Y-4090D01*
X4291Y-4118D01*
X4342Y-4140D01*
X4395Y-4152D01*
X4435Y-4156D01*
Y-3821D01*
D02*
G37*
G36*
X-4100D02*
X-4435D01*
Y-4156D01*
X-4395Y-4152D01*
X-4342Y-4140D01*
X-4291Y-4118D01*
X-4244Y-4090D01*
X-4202Y-4054D01*
X-4166Y-4012D01*
X-4137Y-3965D01*
X-4116Y-3914D01*
X-4103Y-3861D01*
X-4100Y-3821D01*
D02*
G37*
G36*
X-4465D02*
X-4800D01*
X-4797Y-3861D01*
X-4784Y-3914D01*
X-4763Y-3965D01*
X-4734Y-4012D01*
X-4698Y-4054D01*
X-4656Y-4090D01*
X-4609Y-4118D01*
X-4558Y-4140D01*
X-4505Y-4152D01*
X-4465Y-4156D01*
Y-3821D01*
D02*
G37*
G36*
X775Y-4312D02*
X713D01*
Y-4387D01*
X775D01*
Y-4312D01*
D02*
G37*
G36*
X687D02*
X625D01*
Y-4387D01*
X687D01*
Y-4312D01*
D02*
G37*
G36*
X1575D02*
X1513D01*
Y-4387D01*
X1575D01*
Y-4312D01*
D02*
G37*
G36*
X1487D02*
X1425D01*
Y-4387D01*
X1487D01*
Y-4312D01*
D02*
G37*
G36*
X-25Y-4312D02*
X-87D01*
Y-4387D01*
X-25D01*
Y-4312D01*
D02*
G37*
G36*
X-425D02*
X-487D01*
Y-4387D01*
X-425D01*
Y-4312D01*
D02*
G37*
G36*
X-825D02*
X-887D01*
Y-4387D01*
X-825D01*
Y-4312D01*
D02*
G37*
G36*
X-1225D02*
X-1287D01*
Y-4387D01*
X-1225D01*
Y-4312D01*
D02*
G37*
G36*
X-113D02*
X-175D01*
Y-4387D01*
X-113D01*
Y-4312D01*
D02*
G37*
G36*
X-513D02*
X-575D01*
Y-4387D01*
X-513D01*
Y-4312D01*
D02*
G37*
G36*
X-913D02*
X-975D01*
Y-4387D01*
X-913D01*
Y-4312D01*
D02*
G37*
G36*
X-1313D02*
X-1375D01*
Y-4387D01*
X-1313D01*
Y-4312D01*
D02*
G37*
G36*
X1175D02*
X1113D01*
Y-4387D01*
X1175D01*
Y-4312D01*
D02*
G37*
G36*
X375D02*
X313D01*
Y-4387D01*
X375D01*
Y-4312D01*
D02*
G37*
G36*
X1087D02*
X1025D01*
Y-4387D01*
X1087D01*
Y-4312D01*
D02*
G37*
G36*
X287D02*
X225D01*
Y-4387D01*
X287D01*
Y-4312D01*
D02*
G37*
G36*
X-2575Y-4303D02*
X-2607D01*
Y-4387D01*
X-2513D01*
Y-4365D01*
X-2518Y-4341D01*
X-2531Y-4321D01*
X-2551Y-4308D01*
X-2575Y-4303D01*
D02*
G37*
G36*
X1825D02*
X1793D01*
Y-4387D01*
X1887D01*
Y-4365D01*
X1882Y-4341D01*
X1869Y-4321D01*
X1849Y-4308D01*
X1825Y-4303D01*
D02*
G37*
G36*
X1767D02*
X1735D01*
X1711Y-4308D01*
X1691Y-4321D01*
X1678Y-4341D01*
X1673Y-4365D01*
Y-4387D01*
X1767D01*
Y-4303D01*
D02*
G37*
G36*
X-2633D02*
X-2665D01*
X-2689Y-4308D01*
X-2709Y-4321D01*
X-2722Y-4341D01*
X-2727Y-4365D01*
Y-4387D01*
X-2633D01*
Y-4303D01*
D02*
G37*
G36*
X1300Y-4174D02*
X1280Y-4178D01*
X1264Y-4189D01*
X1253Y-4205D01*
X1249Y-4225D01*
X1253Y-4245D01*
X1254Y-4246D01*
Y-4295D01*
X1238Y-4317D01*
X1230Y-4317D01*
X1230Y-4338D01*
X1230Y-4338D01*
X1230Y-4342D01*
Y-4482D01*
X1370D01*
Y-4342D01*
X1370Y-4338D01*
X1370Y-4338D01*
X1370Y-4317D01*
X1362D01*
X1346Y-4295D01*
Y-4246D01*
X1347Y-4245D01*
X1351Y-4225D01*
X1347Y-4205D01*
X1336Y-4189D01*
X1320Y-4178D01*
X1300Y-4174D01*
D02*
G37*
G36*
X500D02*
X480Y-4178D01*
X464Y-4189D01*
X453Y-4205D01*
X449Y-4225D01*
X453Y-4245D01*
X454Y-4246D01*
Y-4295D01*
X438Y-4317D01*
X430Y-4317D01*
X430Y-4338D01*
X430Y-4338D01*
X430Y-4342D01*
Y-4482D01*
X570D01*
Y-4342D01*
X570Y-4338D01*
X570Y-4338D01*
X570Y-4317D01*
X562D01*
X546Y-4295D01*
Y-4246D01*
X547Y-4245D01*
X551Y-4225D01*
X547Y-4205D01*
X536Y-4189D01*
X520Y-4178D01*
X500Y-4174D01*
D02*
G37*
G36*
X900D02*
X880Y-4178D01*
X864Y-4189D01*
X853Y-4205D01*
X849Y-4225D01*
X853Y-4245D01*
X854Y-4246D01*
Y-4295D01*
X838Y-4317D01*
X830Y-4317D01*
X830Y-4338D01*
X830Y-4338D01*
X830Y-4342D01*
Y-4482D01*
X970D01*
Y-4342D01*
X970Y-4338D01*
X970Y-4338D01*
X970Y-4317D01*
X962D01*
X946Y-4295D01*
Y-4246D01*
X947Y-4245D01*
X951Y-4225D01*
X947Y-4205D01*
X936Y-4189D01*
X920Y-4178D01*
X900Y-4174D01*
D02*
G37*
G36*
X100D02*
X80Y-4178D01*
X64Y-4189D01*
X53Y-4205D01*
X49Y-4225D01*
X53Y-4245D01*
X54Y-4246D01*
Y-4295D01*
X38Y-4317D01*
X30Y-4317D01*
X30Y-4338D01*
X30Y-4338D01*
X30Y-4342D01*
Y-4482D01*
X170D01*
Y-4342D01*
X170Y-4338D01*
X170Y-4338D01*
X170Y-4317D01*
X162D01*
X146Y-4295D01*
Y-4246D01*
X147Y-4245D01*
X151Y-4225D01*
X147Y-4206D01*
X136Y-4189D01*
X136Y-4189D01*
X120Y-4178D01*
X100Y-4174D01*
D02*
G37*
G36*
X-300D02*
X-320Y-4178D01*
X-336Y-4189D01*
X-347Y-4205D01*
X-351Y-4225D01*
X-347Y-4245D01*
X-346Y-4246D01*
Y-4295D01*
X-362Y-4317D01*
X-370Y-4317D01*
X-370Y-4338D01*
X-370Y-4338D01*
X-370Y-4342D01*
Y-4482D01*
X-230D01*
Y-4342D01*
X-230Y-4338D01*
X-230Y-4338D01*
X-230Y-4317D01*
X-238D01*
X-254Y-4295D01*
Y-4246D01*
X-253Y-4245D01*
X-249Y-4225D01*
X-253Y-4205D01*
X-264Y-4189D01*
X-280Y-4178D01*
X-300Y-4174D01*
D02*
G37*
G36*
X-700D02*
X-720Y-4178D01*
X-736Y-4189D01*
X-747Y-4205D01*
X-751Y-4225D01*
X-747Y-4245D01*
X-746Y-4246D01*
Y-4295D01*
X-762Y-4317D01*
X-770Y-4317D01*
X-770Y-4338D01*
X-770Y-4338D01*
X-770Y-4342D01*
Y-4482D01*
X-630D01*
Y-4342D01*
X-630Y-4338D01*
X-630Y-4338D01*
X-630Y-4317D01*
X-638D01*
X-654Y-4295D01*
Y-4246D01*
X-653Y-4245D01*
X-649Y-4225D01*
X-653Y-4205D01*
X-664Y-4189D01*
X-680Y-4178D01*
X-700Y-4174D01*
D02*
G37*
G36*
X-1100D02*
X-1120Y-4178D01*
X-1136Y-4189D01*
X-1147Y-4205D01*
X-1151Y-4225D01*
X-1147Y-4245D01*
X-1146Y-4246D01*
Y-4295D01*
X-1162Y-4317D01*
X-1170Y-4317D01*
X-1170Y-4338D01*
X-1170Y-4338D01*
X-1170Y-4342D01*
Y-4482D01*
X-1030D01*
Y-4342D01*
X-1030Y-4338D01*
X-1030Y-4338D01*
X-1030Y-4317D01*
X-1038D01*
X-1054Y-4295D01*
Y-4246D01*
X-1053Y-4245D01*
X-1049Y-4225D01*
X-1053Y-4205D01*
X-1064Y-4189D01*
X-1080Y-4178D01*
X-1100Y-4174D01*
D02*
G37*
G36*
X-1500D02*
X-1520Y-4178D01*
X-1536Y-4189D01*
X-1547Y-4205D01*
X-1551Y-4225D01*
X-1547Y-4245D01*
X-1546Y-4246D01*
Y-4295D01*
X-1562Y-4317D01*
X-1570Y-4317D01*
X-1570Y-4338D01*
X-1570Y-4338D01*
X-1570Y-4342D01*
Y-4482D01*
X-1430D01*
Y-4342D01*
X-1430Y-4338D01*
X-1430Y-4338D01*
X-1430Y-4317D01*
X-1438D01*
X-1454Y-4295D01*
Y-4246D01*
X-1453Y-4245D01*
X-1449Y-4225D01*
X-1453Y-4205D01*
X-1464Y-4189D01*
X-1480Y-4178D01*
X-1500Y-4174D01*
D02*
G37*
G36*
X1575Y-4413D02*
X1513D01*
Y-4488D01*
X1575D01*
Y-4413D01*
D02*
G37*
G36*
X1487D02*
X1425D01*
Y-4488D01*
X1487D01*
Y-4413D01*
D02*
G37*
G36*
X775Y-4413D02*
X713D01*
Y-4488D01*
X775D01*
Y-4413D01*
D02*
G37*
G36*
X687D02*
X625D01*
Y-4488D01*
X687D01*
Y-4413D01*
D02*
G37*
G36*
X1175Y-4413D02*
X1113D01*
Y-4488D01*
X1175D01*
Y-4413D01*
D02*
G37*
G36*
X1087D02*
X1025D01*
Y-4488D01*
X1087D01*
Y-4413D01*
D02*
G37*
G36*
X375D02*
X313D01*
Y-4488D01*
X375D01*
Y-4413D01*
D02*
G37*
G36*
X287D02*
X225D01*
Y-4488D01*
X287D01*
Y-4413D01*
D02*
G37*
G36*
X-25Y-4413D02*
X-87D01*
Y-4488D01*
X-25D01*
Y-4413D01*
D02*
G37*
G36*
X-113D02*
X-175D01*
Y-4488D01*
X-113D01*
Y-4413D01*
D02*
G37*
G36*
X-425D02*
X-487D01*
Y-4488D01*
X-425D01*
Y-4413D01*
D02*
G37*
G36*
X-513D02*
X-575D01*
Y-4488D01*
X-513D01*
Y-4413D01*
D02*
G37*
G36*
X-825D02*
X-887D01*
Y-4488D01*
X-825D01*
Y-4413D01*
D02*
G37*
G36*
X-913D02*
X-975D01*
Y-4488D01*
X-913D01*
Y-4413D01*
D02*
G37*
G36*
X-1225D02*
X-1287D01*
Y-4488D01*
X-1225D01*
Y-4413D01*
D02*
G37*
G36*
X-1313D02*
X-1375D01*
Y-4488D01*
X-1313D01*
Y-4413D01*
D02*
G37*
G36*
X1887Y-4413D02*
X1793D01*
Y-4497D01*
X1825D01*
X1849Y-4492D01*
X1869Y-4479D01*
X1882Y-4459D01*
X1887Y-4435D01*
Y-4413D01*
D02*
G37*
G36*
X1767D02*
X1673D01*
Y-4435D01*
X1678Y-4459D01*
X1691Y-4479D01*
X1711Y-4492D01*
X1735Y-4497D01*
X1767D01*
Y-4413D01*
D02*
G37*
G36*
X-2513D02*
X-2607D01*
Y-4497D01*
X-2575D01*
X-2551Y-4492D01*
X-2531Y-4479D01*
X-2518Y-4459D01*
X-2513Y-4435D01*
Y-4413D01*
D02*
G37*
G36*
X-2633D02*
X-2727D01*
Y-4435D01*
X-2722Y-4459D01*
X-2709Y-4479D01*
X-2689Y-4492D01*
X-2665Y-4497D01*
X-2633D01*
Y-4413D01*
D02*
G37*
G36*
X2720Y-4535D02*
X2520D01*
Y-4566D01*
X2520Y-4566D01*
X2520Y-4566D01*
X2520Y-4567D01*
X2519Y-4568D01*
X2516Y-4569D01*
X2512Y-4571D01*
X2507Y-4572D01*
X2499Y-4573D01*
X2494Y-4574D01*
X1906D01*
X1901Y-4573D01*
X1893Y-4572D01*
X1888Y-4571D01*
X1884Y-4569D01*
X1881Y-4568D01*
X1880Y-4567D01*
X1880Y-4566D01*
X1880Y-4566D01*
X1880Y-4566D01*
Y-4535D01*
X1680D01*
Y-4715D01*
X1880D01*
Y-4684D01*
X1880Y-4684D01*
X1880Y-4683D01*
X1880Y-4683D01*
X1881Y-4682D01*
X1884Y-4681D01*
X1888Y-4679D01*
X1893Y-4677D01*
X1901Y-4676D01*
X1906Y-4676D01*
X1999D01*
X2000Y-4676D01*
X2001Y-4676D01*
X2494D01*
X2499Y-4676D01*
X2507Y-4677D01*
X2512Y-4679D01*
X2516Y-4681D01*
X2519Y-4682D01*
X2520Y-4683D01*
X2520Y-4683D01*
X2520Y-4684D01*
X2520Y-4684D01*
Y-4715D01*
X2720D01*
Y-4535D01*
D02*
G37*
G36*
X-1255Y-5364D02*
X-1273Y-5367D01*
X-1290Y-5374D01*
X-1305Y-5385D01*
X-1316Y-5400D01*
X-1323Y-5417D01*
X-1326Y-5435D01*
X-1323Y-5453D01*
X-1316Y-5470D01*
X-1305Y-5485D01*
X-1290Y-5496D01*
X-1273Y-5503D01*
X-1255Y-5506D01*
X-1237Y-5503D01*
X-1220Y-5496D01*
X-1205Y-5485D01*
X-1194Y-5470D01*
X-1187Y-5453D01*
X-1184Y-5435D01*
X-1187Y-5417D01*
X-1194Y-5400D01*
X-1205Y-5385D01*
X-1220Y-5374D01*
X-1237Y-5367D01*
X-1255Y-5364D01*
D02*
G37*
G36*
X-2255D02*
X-2273Y-5367D01*
X-2290Y-5374D01*
X-2305Y-5385D01*
X-2316Y-5400D01*
X-2323Y-5417D01*
X-2326Y-5435D01*
X-2323Y-5453D01*
X-2316Y-5470D01*
X-2305Y-5485D01*
X-2290Y-5496D01*
X-2273Y-5503D01*
X-2255Y-5506D01*
X-2237Y-5503D01*
X-2220Y-5496D01*
X-2205Y-5485D01*
X-2194Y-5470D01*
X-2187Y-5453D01*
X-2184Y-5435D01*
X-2187Y-5417D01*
X-2194Y-5400D01*
X-2205Y-5385D01*
X-2220Y-5374D01*
X-2237Y-5367D01*
X-2255Y-5364D01*
D02*
G37*
G36*
X-1388Y-5501D02*
X-1406Y-5503D01*
X-1436Y-5516D01*
X-1462Y-5536D01*
X-1482Y-5562D01*
X-1489Y-5579D01*
X-1516Y-5579D01*
X-1522Y-5564D01*
X-1541Y-5539D01*
X-1566Y-5520D01*
X-1596Y-5508D01*
X-1627Y-5504D01*
X-1658Y-5508D01*
X-1688Y-5520D01*
X-1713Y-5539D01*
X-1732Y-5564D01*
X-1744Y-5594D01*
X-1748Y-5625D01*
X-1744Y-5656D01*
X-1732Y-5686D01*
X-1713Y-5711D01*
X-1688Y-5730D01*
X-1683Y-5732D01*
X-1687Y-5757D01*
X-1698Y-5759D01*
X-1733Y-5773D01*
X-1763Y-5797D01*
X-1787Y-5827D01*
X-1801Y-5862D01*
X-1806Y-5900D01*
X-1801Y-5938D01*
X-1787Y-5973D01*
X-1763Y-6003D01*
X-1733Y-6027D01*
X-1698Y-6041D01*
X-1687Y-6043D01*
X-1683Y-6068D01*
X-1688Y-6070D01*
X-1713Y-6089D01*
X-1732Y-6114D01*
X-1744Y-6144D01*
X-1748Y-6175D01*
X-1744Y-6206D01*
X-1732Y-6236D01*
X-1713Y-6261D01*
X-1688Y-6280D01*
X-1658Y-6292D01*
X-1627Y-6296D01*
X-1596Y-6292D01*
X-1566Y-6280D01*
X-1541Y-6261D01*
X-1522Y-6236D01*
X-1516Y-6221D01*
X-1489Y-6221D01*
X-1482Y-6238D01*
X-1462Y-6264D01*
X-1436Y-6284D01*
X-1406Y-6297D01*
X-1388Y-6299D01*
Y-6175D01*
X-1373D01*
Y-6160D01*
X-1249D01*
X-1251Y-6142D01*
X-1264Y-6112D01*
X-1284Y-6086D01*
X-1308Y-6067D01*
X-1308Y-6060D01*
X-1303Y-6041D01*
X-1302Y-6041D01*
X-1267Y-6027D01*
X-1237Y-6003D01*
X-1213Y-5973D01*
X-1199Y-5938D01*
X-1194Y-5900D01*
X-1199Y-5862D01*
X-1213Y-5827D01*
X-1237Y-5797D01*
X-1267Y-5773D01*
X-1302Y-5759D01*
X-1303Y-5759D01*
X-1308Y-5740D01*
X-1308Y-5733D01*
X-1284Y-5714D01*
X-1264Y-5688D01*
X-1251Y-5658D01*
X-1249Y-5640D01*
X-1373D01*
Y-5625D01*
X-1388D01*
Y-5501D01*
D02*
G37*
G36*
X-2388D02*
X-2406Y-5503D01*
X-2436Y-5516D01*
X-2462Y-5536D01*
X-2482Y-5562D01*
X-2489Y-5579D01*
X-2516Y-5579D01*
X-2522Y-5564D01*
X-2541Y-5539D01*
X-2566Y-5520D01*
X-2596Y-5508D01*
X-2627Y-5504D01*
X-2658Y-5508D01*
X-2688Y-5520D01*
X-2713Y-5539D01*
X-2732Y-5564D01*
X-2744Y-5594D01*
X-2748Y-5625D01*
X-2744Y-5656D01*
X-2732Y-5686D01*
X-2713Y-5711D01*
X-2688Y-5730D01*
X-2683Y-5732D01*
X-2687Y-5757D01*
X-2698Y-5759D01*
X-2733Y-5773D01*
X-2763Y-5797D01*
X-2787Y-5827D01*
X-2801Y-5862D01*
X-2806Y-5900D01*
X-2801Y-5938D01*
X-2787Y-5973D01*
X-2763Y-6003D01*
X-2733Y-6027D01*
X-2698Y-6041D01*
X-2687Y-6043D01*
X-2683Y-6068D01*
X-2688Y-6070D01*
X-2713Y-6089D01*
X-2732Y-6114D01*
X-2744Y-6144D01*
X-2748Y-6175D01*
X-2744Y-6206D01*
X-2732Y-6236D01*
X-2713Y-6261D01*
X-2688Y-6280D01*
X-2658Y-6292D01*
X-2627Y-6296D01*
X-2596Y-6292D01*
X-2566Y-6280D01*
X-2541Y-6261D01*
X-2522Y-6236D01*
X-2516Y-6221D01*
X-2489Y-6221D01*
X-2482Y-6238D01*
X-2462Y-6264D01*
X-2436Y-6284D01*
X-2406Y-6297D01*
X-2388Y-6299D01*
Y-6175D01*
X-2373D01*
Y-6160D01*
X-2249D01*
X-2251Y-6142D01*
X-2264Y-6112D01*
X-2284Y-6086D01*
X-2308Y-6067D01*
X-2308Y-6060D01*
X-2303Y-6041D01*
X-2302Y-6041D01*
X-2267Y-6027D01*
X-2237Y-6003D01*
X-2213Y-5973D01*
X-2199Y-5938D01*
X-2194Y-5900D01*
X-2199Y-5862D01*
X-2213Y-5827D01*
X-2237Y-5797D01*
X-2267Y-5773D01*
X-2302Y-5759D01*
X-2303Y-5759D01*
X-2308Y-5740D01*
X-2308Y-5733D01*
X-2284Y-5714D01*
X-2264Y-5688D01*
X-2251Y-5658D01*
X-2249Y-5640D01*
X-2373D01*
Y-5625D01*
X-2388D01*
Y-5501D01*
D02*
G37*
G36*
X-1358D02*
Y-5610D01*
X-1249D01*
X-1251Y-5592D01*
X-1264Y-5562D01*
X-1284Y-5536D01*
X-1310Y-5516D01*
X-1340Y-5503D01*
X-1358Y-5501D01*
D02*
G37*
G36*
X-2358D02*
Y-5610D01*
X-2249D01*
X-2251Y-5592D01*
X-2264Y-5562D01*
X-2284Y-5536D01*
X-2310Y-5516D01*
X-2340Y-5503D01*
X-2358Y-5501D01*
D02*
G37*
G36*
X0Y-5694D02*
X-38Y-5699D01*
X-73Y-5713D01*
X-103Y-5737D01*
X-127Y-5767D01*
X-141Y-5802D01*
X-143Y-5813D01*
X-168Y-5817D01*
X-170Y-5812D01*
X-189Y-5787D01*
X-214Y-5768D01*
X-244Y-5756D01*
X-275Y-5752D01*
X-306Y-5756D01*
X-336Y-5768D01*
X-361Y-5787D01*
X-380Y-5812D01*
X-392Y-5842D01*
X-396Y-5873D01*
X-392Y-5904D01*
X-380Y-5934D01*
X-361Y-5959D01*
X-336Y-5978D01*
X-321Y-5984D01*
X-321Y-6011D01*
X-338Y-6018D01*
X-364Y-6038D01*
X-384Y-6064D01*
X-397Y-6094D01*
X-399Y-6112D01*
X-275D01*
Y-6127D01*
X-260D01*
Y-6251D01*
X-242Y-6249D01*
X-212Y-6236D01*
X-186Y-6216D01*
X-167Y-6192D01*
X-160Y-6192D01*
X-141Y-6197D01*
X-141Y-6198D01*
X-127Y-6233D01*
X-103Y-6263D01*
X-73Y-6287D01*
X-38Y-6301D01*
X0Y-6306D01*
X38Y-6301D01*
X73Y-6287D01*
X103Y-6263D01*
X127Y-6233D01*
X141Y-6198D01*
X141Y-6197D01*
X160Y-6192D01*
X167Y-6192D01*
X186Y-6216D01*
X212Y-6236D01*
X242Y-6249D01*
X260Y-6251D01*
Y-6127D01*
X275D01*
Y-6112D01*
X399D01*
X397Y-6094D01*
X384Y-6064D01*
X364Y-6038D01*
X338Y-6018D01*
X321Y-6011D01*
X321Y-5984D01*
X336Y-5978D01*
X361Y-5959D01*
X380Y-5934D01*
X392Y-5904D01*
X396Y-5873D01*
X392Y-5842D01*
X380Y-5812D01*
X361Y-5787D01*
X336Y-5768D01*
X306Y-5756D01*
X275Y-5752D01*
X244Y-5756D01*
X214Y-5768D01*
X189Y-5787D01*
X170Y-5812D01*
X168Y-5817D01*
X143Y-5813D01*
X141Y-5802D01*
X127Y-5767D01*
X103Y-5737D01*
X73Y-5713D01*
X38Y-5699D01*
X0Y-5694D01*
D02*
G37*
G36*
X399Y-6142D02*
X290D01*
Y-6251D01*
X308Y-6249D01*
X338Y-6236D01*
X364Y-6216D01*
X384Y-6190D01*
X397Y-6160D01*
X399Y-6142D01*
D02*
G37*
G36*
X-290D02*
X-399D01*
X-397Y-6160D01*
X-384Y-6190D01*
X-364Y-6216D01*
X-338Y-6236D01*
X-308Y-6249D01*
X-290Y-6251D01*
Y-6142D01*
D02*
G37*
G36*
X-1249Y-6190D02*
X-1358D01*
Y-6299D01*
X-1340Y-6297D01*
X-1310Y-6284D01*
X-1284Y-6264D01*
X-1264Y-6238D01*
X-1251Y-6208D01*
X-1249Y-6190D01*
D02*
G37*
G36*
X-2249D02*
X-2358D01*
Y-6299D01*
X-2340Y-6297D01*
X-2310Y-6284D01*
X-2284Y-6264D01*
X-2264Y-6238D01*
X-2251Y-6208D01*
X-2249Y-6190D01*
D02*
G37*
G36*
X465Y-6174D02*
X447Y-6177D01*
X430Y-6184D01*
X415Y-6195D01*
X404Y-6210D01*
X397Y-6227D01*
X394Y-6245D01*
X397Y-6263D01*
X404Y-6280D01*
X415Y-6295D01*
X430Y-6306D01*
X447Y-6313D01*
X465Y-6316D01*
X483Y-6313D01*
X500Y-6306D01*
X515Y-6295D01*
X526Y-6280D01*
X533Y-6263D01*
X536Y-6245D01*
X533Y-6227D01*
X526Y-6210D01*
X515Y-6195D01*
X500Y-6184D01*
X483Y-6177D01*
X465Y-6174D01*
D02*
G37*
%LPD*%
G36*
X-2637Y4246D02*
X-2652Y4230D01*
X-2685Y4191D01*
X-2693Y4179D01*
X-2698Y4169D01*
X-2702Y4160D01*
X-2703Y4152D01*
X-2703Y4146D01*
X-2701Y4140D01*
X-2765Y4245D01*
X-2761Y4240D01*
X-2756Y4238D01*
X-2751Y4238D01*
X-2744Y4239D01*
X-2736Y4242D01*
X-2727Y4247D01*
X-2717Y4255D01*
X-2705Y4264D01*
X-2680Y4287D01*
X-2637Y4246D01*
D02*
G37*
G36*
X-2859Y4115D02*
X-2860Y4121D01*
X-2862Y4126D01*
X-2865Y4131D01*
X-2869Y4134D01*
X-2874Y4138D01*
X-2881Y4140D01*
X-2889Y4143D01*
X-2898Y4144D01*
X-2908Y4145D01*
X-2920Y4145D01*
Y4205D01*
X-2908Y4206D01*
X-2898Y4206D01*
X-2889Y4208D01*
X-2881Y4210D01*
X-2874Y4213D01*
X-2869Y4216D01*
X-2865Y4220D01*
X-2862Y4224D01*
X-2860Y4230D01*
X-2859Y4235D01*
Y4115D01*
D02*
G37*
G36*
X-3540Y4230D02*
X-3538Y4224D01*
X-3535Y4220D01*
X-3531Y4216D01*
X-3526Y4213D01*
X-3519Y4210D01*
X-3511Y4208D01*
X-3502Y4206D01*
X-3492Y4206D01*
X-3480Y4205D01*
Y4145D01*
X-3492Y4145D01*
X-3502Y4144D01*
X-3511Y4143D01*
X-3519Y4140D01*
X-3526Y4138D01*
X-3531Y4134D01*
X-3535Y4131D01*
X-3538Y4126D01*
X-3540Y4121D01*
X-3541Y4115D01*
Y4235D01*
X-3540Y4230D01*
D02*
G37*
G36*
X-2859Y4565D02*
X-2860Y4570D01*
X-2862Y4576D01*
X-2865Y4580D01*
X-2869Y4584D01*
X-2874Y4587D01*
X-2881Y4590D01*
X-2889Y4592D01*
X-2898Y4594D01*
X-2908Y4594D01*
X-2920Y4595D01*
Y4655D01*
X-2908Y4655D01*
X-2898Y4656D01*
X-2889Y4657D01*
X-2881Y4660D01*
X-2874Y4662D01*
X-2869Y4666D01*
X-2865Y4669D01*
X-2862Y4674D01*
X-2860Y4679D01*
X-2859Y4685D01*
Y4565D01*
D02*
G37*
G36*
X-3540Y4679D02*
X-3538Y4674D01*
X-3535Y4669D01*
X-3531Y4666D01*
X-3526Y4662D01*
X-3519Y4660D01*
X-3511Y4657D01*
X-3502Y4656D01*
X-3492Y4655D01*
X-3480Y4655D01*
Y4595D01*
X-3492Y4594D01*
X-3502Y4594D01*
X-3511Y4592D01*
X-3519Y4590D01*
X-3526Y4587D01*
X-3531Y4584D01*
X-3535Y4580D01*
X-3538Y4576D01*
X-3540Y4570D01*
X-3541Y4565D01*
Y4685D01*
X-3540Y4679D01*
D02*
G37*
G36*
X-1862Y4400D02*
X-1863Y4404D01*
X-1865Y4407D01*
X-1868Y4410D01*
X-1872Y4413D01*
X-1877Y4415D01*
X-1884Y4417D01*
X-1892Y4418D01*
X-1901Y4419D01*
X-1922Y4420D01*
Y4480D01*
X-1911Y4480D01*
X-1892Y4482D01*
X-1884Y4483D01*
X-1877Y4485D01*
X-1872Y4487D01*
X-1868Y4490D01*
X-1865Y4493D01*
X-1863Y4496D01*
X-1862Y4500D01*
Y4400D01*
D02*
G37*
G36*
X1830Y4498D02*
X1831Y4488D01*
X1833Y4479D01*
X1835Y4471D01*
X1838Y4465D01*
X1841Y4459D01*
X1845Y4455D01*
X1849Y4452D01*
X1854Y4450D01*
X1860Y4450D01*
X1740D01*
X1746Y4450D01*
X1751Y4452D01*
X1755Y4455D01*
X1759Y4459D01*
X1763Y4465D01*
X1765Y4471D01*
X1767Y4479D01*
X1769Y4488D01*
X1770Y4498D01*
X1770Y4510D01*
X1830D01*
X1830Y4498D01*
D02*
G37*
G36*
X3541Y4115D02*
X3540Y4121D01*
X3538Y4126D01*
X3535Y4131D01*
X3531Y4134D01*
X3526Y4138D01*
X3519Y4140D01*
X3511Y4143D01*
X3502Y4144D01*
X3492Y4145D01*
X3480Y4145D01*
Y4205D01*
X3492Y4206D01*
X3502Y4206D01*
X3511Y4208D01*
X3519Y4210D01*
X3526Y4213D01*
X3531Y4216D01*
X3535Y4220D01*
X3538Y4224D01*
X3540Y4230D01*
X3541Y4235D01*
Y4115D01*
D02*
G37*
G36*
X2860Y4230D02*
X2862Y4224D01*
X2865Y4220D01*
X2869Y4216D01*
X2874Y4213D01*
X2881Y4210D01*
X2889Y4208D01*
X2898Y4206D01*
X2908Y4206D01*
X2920Y4205D01*
Y4145D01*
X2908Y4145D01*
X2898Y4144D01*
X2889Y4143D01*
X2881Y4140D01*
X2874Y4138D01*
X2869Y4134D01*
X2865Y4131D01*
X2862Y4126D01*
X2860Y4121D01*
X2859Y4115D01*
Y4235D01*
X2860Y4230D01*
D02*
G37*
G36*
X-1862Y4100D02*
X-1863Y4104D01*
X-1865Y4107D01*
X-1868Y4110D01*
X-1872Y4113D01*
X-1877Y4115D01*
X-1884Y4117D01*
X-1892Y4118D01*
X-1901Y4119D01*
X-1922Y4120D01*
Y4180D01*
X-1911Y4180D01*
X-1892Y4182D01*
X-1884Y4183D01*
X-1877Y4185D01*
X-1872Y4187D01*
X-1868Y4190D01*
X-1865Y4193D01*
X-1863Y4196D01*
X-1862Y4200D01*
Y4100D01*
D02*
G37*
G36*
X-2751Y625D02*
X-2755Y625D01*
X-2760Y623D01*
X-2765Y620D01*
X-2771Y617D01*
X-2777Y612D01*
X-2793Y600D01*
X-2811Y583D01*
X-2821Y573D01*
X-2927Y679D01*
X-2917Y689D01*
X-2888Y723D01*
X-2883Y729D01*
X-2880Y735D01*
X-2877Y740D01*
X-2875Y745D01*
X-2875Y749D01*
X-2751Y625D01*
D02*
G37*
G36*
X-2811Y-83D02*
X-2777Y-112D01*
X-2771Y-117D01*
X-2765Y-120D01*
X-2760Y-123D01*
X-2755Y-125D01*
X-2751Y-125D01*
X-2875Y-249D01*
X-2875Y-245D01*
X-2877Y-240D01*
X-2880Y-235D01*
X-2883Y-229D01*
X-2888Y-223D01*
X-2900Y-207D01*
X-2917Y-189D01*
X-2927Y-179D01*
X-2821Y-73D01*
X-2811Y-83D01*
D02*
G37*
G36*
X2875Y245D02*
X2877Y240D01*
X2880Y235D01*
X2883Y229D01*
X2888Y223D01*
X2900Y207D01*
X2917Y189D01*
X2927Y179D01*
X2821Y73D01*
X2811Y83D01*
X2777Y112D01*
X2771Y117D01*
X2765Y120D01*
X2760Y123D01*
X2755Y125D01*
X2751Y125D01*
X2875Y249D01*
X2875Y245D01*
D02*
G37*
G36*
X2927Y-679D02*
X2917Y-689D01*
X2888Y-723D01*
X2883Y-729D01*
X2880Y-735D01*
X2877Y-740D01*
X2875Y-745D01*
X2875Y-749D01*
X2751Y-625D01*
X2755Y-625D01*
X2760Y-623D01*
X2765Y-620D01*
X2771Y-617D01*
X2777Y-612D01*
X2793Y-600D01*
X2811Y-583D01*
X2821Y-573D01*
X2927Y-679D01*
D02*
G37*
G36*
X2541Y-4235D02*
X2540Y-4230D01*
X2538Y-4224D01*
X2535Y-4220D01*
X2531Y-4216D01*
X2526Y-4213D01*
X2519Y-4210D01*
X2511Y-4208D01*
X2502Y-4206D01*
X2492Y-4206D01*
X2480Y-4205D01*
Y-4145D01*
X2492Y-4145D01*
X2502Y-4144D01*
X2511Y-4143D01*
X2519Y-4140D01*
X2526Y-4138D01*
X2531Y-4134D01*
X2535Y-4131D01*
X2538Y-4126D01*
X2540Y-4121D01*
X2541Y-4115D01*
Y-4235D01*
D02*
G37*
G36*
X1860Y-4121D02*
X1862Y-4126D01*
X1865Y-4131D01*
X1869Y-4134D01*
X1874Y-4138D01*
X1881Y-4140D01*
X1889Y-4143D01*
X1898Y-4144D01*
X1908Y-4145D01*
X1920Y-4145D01*
Y-4205D01*
X1908Y-4206D01*
X1898Y-4206D01*
X1889Y-4208D01*
X1881Y-4210D01*
X1874Y-4213D01*
X1869Y-4216D01*
X1865Y-4220D01*
X1862Y-4224D01*
X1860Y-4230D01*
X1859Y-4235D01*
Y-4115D01*
X1860Y-4121D01*
D02*
G37*
G36*
X-1859Y-4225D02*
X-1860Y-4221D01*
X-1861Y-4216D01*
X-1864Y-4213D01*
X-1867Y-4209D01*
X-1872Y-4207D01*
X-1877Y-4204D01*
X-1884Y-4203D01*
X-1892Y-4201D01*
X-1900Y-4201D01*
X-1910Y-4200D01*
Y-4150D01*
X-1900Y-4150D01*
X-1892Y-4149D01*
X-1884Y-4148D01*
X-1877Y-4146D01*
X-1872Y-4144D01*
X-1867Y-4141D01*
X-1864Y-4138D01*
X-1861Y-4134D01*
X-1860Y-4130D01*
X-1859Y-4125D01*
Y-4225D01*
D02*
G37*
G36*
X-2540Y-4130D02*
X-2539Y-4134D01*
X-2536Y-4138D01*
X-2533Y-4141D01*
X-2528Y-4144D01*
X-2523Y-4146D01*
X-2516Y-4148D01*
X-2508Y-4149D01*
X-2500Y-4150D01*
X-2490Y-4150D01*
Y-4200D01*
X-2500Y-4201D01*
X-2508Y-4201D01*
X-2516Y-4203D01*
X-2523Y-4204D01*
X-2528Y-4207D01*
X-2533Y-4209D01*
X-2536Y-4213D01*
X-2539Y-4216D01*
X-2540Y-4221D01*
X-2541Y-4225D01*
Y-4125D01*
X-2540Y-4130D01*
D02*
G37*
G36*
X-2035Y-4660D02*
X-2037Y-4659D01*
X-2041Y-4658D01*
X-2047Y-4657D01*
X-2064Y-4656D01*
X-2140Y-4655D01*
Y-4595D01*
X-2035Y-4589D01*
Y-4660D01*
D02*
G37*
G36*
X-2540Y-4570D02*
X-2538Y-4576D01*
X-2535Y-4580D01*
X-2531Y-4584D01*
X-2526Y-4587D01*
X-2519Y-4590D01*
X-2511Y-4592D01*
X-2502Y-4594D01*
X-2492Y-4594D01*
X-2480Y-4595D01*
Y-4655D01*
X-2492Y-4655D01*
X-2502Y-4656D01*
X-2511Y-4657D01*
X-2519Y-4660D01*
X-2526Y-4662D01*
X-2531Y-4666D01*
X-2535Y-4669D01*
X-2538Y-4674D01*
X-2540Y-4679D01*
X-2541Y-4685D01*
Y-4565D01*
X-2540Y-4570D01*
D02*
G37*
G36*
X-1859Y-4685D02*
X-1860Y-4679D01*
X-1862Y-4674D01*
X-1865Y-4669D01*
X-1869Y-4666D01*
X-1874Y-4662D01*
X-1881Y-4660D01*
X-1889Y-4657D01*
X-1898Y-4656D01*
X-1908Y-4655D01*
X-1920Y-4655D01*
Y-4595D01*
X-1908Y-4594D01*
X-1898Y-4594D01*
X-1889Y-4592D01*
X-1881Y-4590D01*
X-1874Y-4587D01*
X-1869Y-4584D01*
X-1865Y-4580D01*
X-1862Y-4576D01*
X-1860Y-4570D01*
X-1859Y-4565D01*
Y-4685D01*
D02*
G37*
G36*
X1325Y-4297D02*
X1326Y-4306D01*
X1327Y-4313D01*
X1329Y-4320D01*
X1331Y-4325D01*
X1334Y-4330D01*
X1337Y-4333D01*
X1341Y-4336D01*
X1345Y-4337D01*
X1350Y-4338D01*
X1250D01*
X1255Y-4337D01*
X1259Y-4336D01*
X1263Y-4333D01*
X1266Y-4330D01*
X1269Y-4325D01*
X1271Y-4320D01*
X1273Y-4313D01*
X1274Y-4306D01*
X1275Y-4297D01*
X1275Y-4288D01*
X1325D01*
X1325Y-4297D01*
D02*
G37*
G36*
X525D02*
X526Y-4306D01*
X527Y-4313D01*
X529Y-4320D01*
X531Y-4325D01*
X534Y-4330D01*
X537Y-4333D01*
X541Y-4336D01*
X545Y-4337D01*
X550Y-4338D01*
X450D01*
X455Y-4337D01*
X459Y-4336D01*
X463Y-4333D01*
X466Y-4330D01*
X469Y-4325D01*
X471Y-4320D01*
X473Y-4313D01*
X474Y-4306D01*
X475Y-4297D01*
X475Y-4288D01*
X525D01*
X525Y-4297D01*
D02*
G37*
G36*
X925Y-4297D02*
X926Y-4306D01*
X927Y-4313D01*
X929Y-4320D01*
X931Y-4325D01*
X934Y-4330D01*
X937Y-4333D01*
X941Y-4336D01*
X945Y-4337D01*
X950Y-4338D01*
X850D01*
X855Y-4337D01*
X859Y-4336D01*
X863Y-4333D01*
X866Y-4330D01*
X869Y-4325D01*
X871Y-4320D01*
X873Y-4313D01*
X874Y-4306D01*
X875Y-4297D01*
X875Y-4288D01*
X925D01*
X925Y-4297D01*
D02*
G37*
G36*
X125D02*
X126Y-4306D01*
X127Y-4313D01*
X129Y-4320D01*
X131Y-4325D01*
X134Y-4330D01*
X137Y-4333D01*
X141Y-4336D01*
X145Y-4337D01*
X150Y-4338D01*
X50D01*
X55Y-4337D01*
X59Y-4336D01*
X63Y-4333D01*
X66Y-4330D01*
X69Y-4325D01*
X71Y-4320D01*
X73Y-4313D01*
X74Y-4306D01*
X75Y-4297D01*
X75Y-4288D01*
X125D01*
X125Y-4297D01*
D02*
G37*
G36*
X-275D02*
X-274Y-4306D01*
X-273Y-4313D01*
X-271Y-4320D01*
X-269Y-4325D01*
X-266Y-4330D01*
X-263Y-4333D01*
X-259Y-4336D01*
X-255Y-4337D01*
X-250Y-4338D01*
X-350D01*
X-345Y-4337D01*
X-341Y-4336D01*
X-337Y-4333D01*
X-334Y-4330D01*
X-331Y-4325D01*
X-329Y-4320D01*
X-327Y-4313D01*
X-326Y-4306D01*
X-325Y-4297D01*
X-325Y-4288D01*
X-275D01*
X-275Y-4297D01*
D02*
G37*
G36*
X-675D02*
X-674Y-4306D01*
X-673Y-4313D01*
X-671Y-4320D01*
X-669Y-4325D01*
X-666Y-4330D01*
X-663Y-4333D01*
X-659Y-4336D01*
X-655Y-4337D01*
X-650Y-4338D01*
X-750D01*
X-745Y-4337D01*
X-741Y-4336D01*
X-737Y-4333D01*
X-734Y-4330D01*
X-731Y-4325D01*
X-729Y-4320D01*
X-727Y-4313D01*
X-726Y-4306D01*
X-725Y-4297D01*
X-725Y-4288D01*
X-675D01*
X-675Y-4297D01*
D02*
G37*
G36*
X-1075D02*
X-1074Y-4306D01*
X-1073Y-4313D01*
X-1071Y-4320D01*
X-1069Y-4325D01*
X-1066Y-4330D01*
X-1063Y-4333D01*
X-1059Y-4336D01*
X-1055Y-4337D01*
X-1050Y-4338D01*
X-1150D01*
X-1145Y-4337D01*
X-1141Y-4336D01*
X-1137Y-4333D01*
X-1134Y-4330D01*
X-1131Y-4325D01*
X-1129Y-4320D01*
X-1127Y-4313D01*
X-1126Y-4306D01*
X-1125Y-4297D01*
X-1125Y-4288D01*
X-1075D01*
X-1075Y-4297D01*
D02*
G37*
G36*
X-1475D02*
X-1474Y-4306D01*
X-1473Y-4313D01*
X-1471Y-4320D01*
X-1469Y-4325D01*
X-1466Y-4330D01*
X-1463Y-4333D01*
X-1459Y-4336D01*
X-1455Y-4337D01*
X-1450Y-4338D01*
X-1550D01*
X-1545Y-4337D01*
X-1541Y-4336D01*
X-1537Y-4333D01*
X-1534Y-4330D01*
X-1531Y-4325D01*
X-1529Y-4320D01*
X-1527Y-4313D01*
X-1526Y-4306D01*
X-1525Y-4297D01*
X-1525Y-4288D01*
X-1475D01*
X-1475Y-4297D01*
D02*
G37*
G36*
X2541Y-4685D02*
X2540Y-4679D01*
X2538Y-4674D01*
X2535Y-4669D01*
X2531Y-4666D01*
X2526Y-4662D01*
X2519Y-4660D01*
X2511Y-4657D01*
X2502Y-4656D01*
X2492Y-4655D01*
X2480Y-4655D01*
Y-4595D01*
X2492Y-4594D01*
X2502Y-4594D01*
X2511Y-4592D01*
X2519Y-4590D01*
X2526Y-4587D01*
X2531Y-4584D01*
X2535Y-4580D01*
X2538Y-4576D01*
X2540Y-4570D01*
X2541Y-4565D01*
Y-4685D01*
D02*
G37*
G36*
X1860Y-4570D02*
X1862Y-4576D01*
X1865Y-4580D01*
X1869Y-4584D01*
X1874Y-4587D01*
X1881Y-4590D01*
X1889Y-4592D01*
X1898Y-4594D01*
X1908Y-4594D01*
X1920Y-4595D01*
Y-4655D01*
X1908Y-4655D01*
X1898Y-4656D01*
X1889Y-4657D01*
X1881Y-4660D01*
X1874Y-4662D01*
X1869Y-4666D01*
X1865Y-4669D01*
X1862Y-4674D01*
X1860Y-4679D01*
X1859Y-4685D01*
Y-4565D01*
X1860Y-4570D01*
D02*
G37*
D20*
X-2620Y-4400D02*
D03*
X1780D02*
D03*
X2780Y4400D02*
D03*
X-3620D02*
D03*
D21*
X-2620Y-4175D02*
D03*
Y-4625D02*
D03*
X-1780Y-4175D02*
D03*
Y-4625D02*
D03*
X1780Y-4175D02*
D03*
Y-4625D02*
D03*
X2620Y-4175D02*
D03*
Y-4625D02*
D03*
X3620Y4625D02*
D03*
X2780D02*
D03*
X3620Y4175D02*
D03*
X2780D02*
D03*
X-2780Y4625D02*
D03*
X-3620D02*
D03*
X-2780Y4175D02*
D03*
X-3620D02*
D03*
D22*
X1800Y4200D02*
D03*
X-1800Y4650D02*
D03*
X-1800Y3950D02*
D03*
X1800Y4400D02*
D03*
X-1800Y4450D02*
D03*
X-1800Y4150D02*
D03*
D23*
X300Y-4400D02*
D03*
X700Y-4400D02*
D03*
X1100Y-4400D02*
D03*
X1500Y-4400D02*
D03*
X-1300Y-4400D02*
D03*
X-900D02*
D03*
X-500D02*
D03*
X-100D02*
D03*
X1300Y-4400D02*
D03*
X900Y-4400D02*
D03*
X500Y-4400D02*
D03*
X100Y-4400D02*
D03*
X-300D02*
D03*
X-700D02*
D03*
X-1100D02*
D03*
X-1500D02*
D03*
D24*
X-1350Y2700D02*
X-1150Y2500D01*
Y2050D02*
Y2500D01*
X-1050Y2150D02*
Y2550D01*
X-1250Y2750D02*
X-1050Y2550D01*
X-3620Y4625D02*
X-2780D01*
X-3000Y4175D02*
X-2780D01*
X-3620D02*
X-3000D01*
X1780Y-4625D02*
X2620D01*
X-2620D02*
X-2000D01*
X1950Y-4175D02*
X2620D01*
X1780D02*
X1950D01*
X-2000Y-4625D02*
X-2000Y-4625D01*
X-1780D01*
X-975Y-1364D02*
X-453D01*
X-1470D02*
X-975D01*
Y-1236D02*
X-516D01*
X-1470D02*
X-975D01*
X-1470Y-1490D02*
X-825D01*
X-516Y-1236D02*
X-400Y-1120D01*
X-453Y-1364D02*
X-300Y-1210D01*
X1800Y4575D02*
X1800Y4575D01*
Y4400D02*
Y4575D01*
X-1975Y4450D02*
X-1975Y4450D01*
X-1800Y4450D02*
X-1800Y4450D01*
X-1975Y4450D02*
X-1800D01*
X-1975Y4450D02*
X-1975Y4450D01*
X-1975Y4150D02*
X-1975D01*
X-1975Y4150D02*
X-1800D01*
X-1975Y4150D02*
X-1975Y4150D01*
X-1800D02*
X-1800Y4150D01*
X100Y-4225D02*
X100Y-4225D01*
X2990Y4175D02*
X3620D01*
X2780D02*
X2990D01*
X-825Y-2425D02*
X-444D01*
X-2000Y-4625D02*
Y-4625D01*
X-1996Y175D02*
X125D01*
X-2225Y700D02*
X-2223D01*
X-1948Y425D01*
X425D01*
X-2227Y552D02*
X-1955Y280D01*
X220D01*
X-2230Y409D02*
X-1996Y175D01*
X-2780Y4175D02*
X-2740Y4215D01*
X-2710D01*
X-1775Y5150D01*
X-1125Y5375D02*
X-700D01*
X-1550D02*
X-1125D01*
X-1775Y5150D02*
X-1550Y5375D01*
X-950Y2250D02*
Y2600D01*
X-1150Y2800D02*
X-950Y2600D01*
X-1150Y4775D02*
X-550Y5375D01*
D25*
X3050Y-450D02*
Y-50D01*
X2750Y-750D02*
X3050Y-450D01*
X2750Y250D02*
X3050Y-50D01*
X-1850Y675D02*
X605D01*
X1680Y1750D01*
X2080D02*
X2160D01*
X1680D02*
X2080D01*
X-3050Y50D02*
X-2750Y-250D01*
X-3050Y50D02*
Y450D01*
X-2750Y750D01*
X-1850Y675D02*
Y775D01*
D26*
X-2440Y-1577D02*
Y-1356D01*
X-1850Y-766D01*
Y-625D01*
X-2440Y-1623D02*
Y-1577D01*
X-1850Y-625D02*
X-1850Y-625D01*
X-2050Y-4275D02*
X-2000Y-4325D01*
Y-4625D02*
Y-4325D01*
X100Y-350D02*
X750Y300D01*
X-690Y-350D02*
X100D01*
D27*
X-2620Y-4175D02*
X-2106D01*
X-2044D02*
X-1780D01*
X-2044Y-4175D02*
X-2044Y-4175D01*
X-2106Y-4175D02*
X-2044D01*
X-2106Y-4175D02*
X-2106Y-4175D01*
X1100Y1477D02*
X1497Y1875D01*
X1300Y-4400D02*
Y-4225D01*
X900D02*
X900Y-4225D01*
Y-4400D02*
Y-4225D01*
X500Y-4400D02*
Y-4230D01*
X100Y-4400D02*
Y-4225D01*
X-300Y-4400D02*
Y-4225D01*
X-300Y-4225D02*
X-300Y-4225D01*
X-700Y-4225D02*
X-700Y-4225D01*
Y-4400D02*
Y-4225D01*
X-1100Y-4225D02*
X-1100Y-4225D01*
Y-4400D02*
Y-4225D01*
X-1500Y-4225D02*
X-1500Y-4225D01*
Y-4400D02*
Y-4225D01*
D28*
X-2750Y-750D02*
D03*
Y-250D02*
D03*
X-2750Y250D02*
D03*
Y750D02*
D03*
X2750D02*
D03*
Y250D02*
D03*
Y-250D02*
D03*
Y-750D02*
D03*
D29*
X275Y-5873D02*
D03*
X-275Y-6127D02*
D03*
X275D02*
D03*
X-1627Y-5625D02*
D03*
X-1373Y-6175D02*
D03*
Y-5625D02*
D03*
X-2627D02*
D03*
X-2373Y-6175D02*
D03*
Y-5625D02*
D03*
X-275Y5873D02*
D03*
X275Y6127D02*
D03*
X-275D02*
D03*
X-1373Y5625D02*
D03*
X-1627Y6175D02*
D03*
Y5625D02*
D03*
X-2373D02*
D03*
X-2627Y6175D02*
D03*
Y5625D02*
D03*
X-275Y-5873D02*
D03*
X-1627Y-6175D02*
D03*
X-2627D02*
D03*
X275Y5873D02*
D03*
X-1373Y6175D02*
D03*
X-2373D02*
D03*
D30*
X-900Y6125D02*
D03*
X900D02*
D03*
D31*
X4450Y3806D02*
D03*
Y1706D02*
D03*
Y-1706D02*
D03*
Y-3806D02*
D03*
X-4450D02*
D03*
Y-1706D02*
D03*
Y1706D02*
D03*
Y3806D02*
D03*
D32*
X2025Y1190D02*
D03*
X2135D02*
D03*
X2025Y1300D02*
D03*
X2135D02*
D03*
X2025Y1410D02*
D03*
X2135D02*
D03*
X-1895Y-1190D02*
D03*
X-2005D02*
D03*
X-1895Y-1300D02*
D03*
X-2005D02*
D03*
X-1895Y-1410D02*
D03*
X-2005D02*
D03*
X-1933Y-4006D02*
D03*
X4700Y5400D02*
D03*
X4600Y5200D02*
D03*
X4700Y5000D02*
D03*
X4600Y4800D02*
D03*
X4700Y4600D02*
D03*
X4600Y4400D02*
D03*
X4700Y4200D02*
D03*
Y3400D02*
D03*
X4600Y3200D02*
D03*
X4700Y3000D02*
D03*
X4600Y2800D02*
D03*
X4700Y2600D02*
D03*
X4600Y2400D02*
D03*
X4700Y2200D02*
D03*
X4600Y1200D02*
D03*
X4700Y1000D02*
D03*
X4600Y800D02*
D03*
X4700Y600D02*
D03*
X4600Y400D02*
D03*
X4700Y200D02*
D03*
X4600Y0D02*
D03*
X4700Y-200D02*
D03*
X4600Y-400D02*
D03*
X4700Y-600D02*
D03*
X4600Y-800D02*
D03*
X4700Y-1000D02*
D03*
X4600Y-1200D02*
D03*
X4700Y-2200D02*
D03*
X4600Y-2400D02*
D03*
X4700Y-2600D02*
D03*
X4600Y-2800D02*
D03*
X4700Y-3000D02*
D03*
X4600Y-3200D02*
D03*
X4700Y-3400D02*
D03*
Y-4200D02*
D03*
X4600Y-4400D02*
D03*
X4700Y-4600D02*
D03*
X4600Y-4800D02*
D03*
X4700Y-5000D02*
D03*
X4600Y-5200D02*
D03*
X4700Y-5400D02*
D03*
X4400Y5600D02*
D03*
X4500Y5400D02*
D03*
X4400Y5200D02*
D03*
X4500Y5000D02*
D03*
X4400Y4800D02*
D03*
X4500Y4600D02*
D03*
X4400Y4400D02*
D03*
Y3200D02*
D03*
X4500Y3000D02*
D03*
X4400Y2800D02*
D03*
X4500Y2600D02*
D03*
X4400Y2400D02*
D03*
X4500Y2200D02*
D03*
X4400Y1200D02*
D03*
X4500Y1000D02*
D03*
X4400Y800D02*
D03*
X4500Y600D02*
D03*
X4400Y400D02*
D03*
X4500Y200D02*
D03*
X4400Y0D02*
D03*
X4500Y-200D02*
D03*
X4400Y-400D02*
D03*
X4500Y-600D02*
D03*
X4400Y-800D02*
D03*
X4500Y-1000D02*
D03*
X4400Y-1200D02*
D03*
X4500Y-2200D02*
D03*
X4400Y-2400D02*
D03*
X4500Y-2600D02*
D03*
X4400Y-2800D02*
D03*
X4500Y-3000D02*
D03*
X4400Y-3200D02*
D03*
Y-4400D02*
D03*
X4500Y-4600D02*
D03*
X4400Y-4800D02*
D03*
X4500Y-5000D02*
D03*
X4400Y-5200D02*
D03*
X4500Y-5400D02*
D03*
X4400Y-5600D02*
D03*
X4200Y5600D02*
D03*
X4300Y5400D02*
D03*
X4200Y5200D02*
D03*
X4300Y5000D02*
D03*
X4200Y4800D02*
D03*
X4300Y4600D02*
D03*
X4200Y4400D02*
D03*
X4300Y4200D02*
D03*
Y3400D02*
D03*
X4200Y3200D02*
D03*
X4300Y3000D02*
D03*
X4200Y2800D02*
D03*
X4300Y2600D02*
D03*
X4200Y2400D02*
D03*
X4300Y2200D02*
D03*
X4200Y1200D02*
D03*
X4300Y1000D02*
D03*
X4200Y800D02*
D03*
X4300Y600D02*
D03*
X4200Y400D02*
D03*
X4300Y200D02*
D03*
X4200Y0D02*
D03*
X4300Y-200D02*
D03*
X4200Y-400D02*
D03*
X4300Y-600D02*
D03*
X4200Y-800D02*
D03*
X4300Y-1000D02*
D03*
X4200Y-1200D02*
D03*
X4300Y-2200D02*
D03*
X4200Y-2400D02*
D03*
X4300Y-2600D02*
D03*
X4200Y-2800D02*
D03*
X4300Y-3000D02*
D03*
X4200Y-3200D02*
D03*
X4300Y-3400D02*
D03*
Y-4200D02*
D03*
X4200Y-4400D02*
D03*
X4300Y-4600D02*
D03*
X4200Y-4800D02*
D03*
X4300Y-5000D02*
D03*
X4200Y-5200D02*
D03*
X4300Y-5400D02*
D03*
X4200Y-5600D02*
D03*
X4100Y5800D02*
D03*
X4000Y5600D02*
D03*
X4100Y5400D02*
D03*
X4000Y5200D02*
D03*
X4100Y5000D02*
D03*
X4000Y4800D02*
D03*
X4100Y4600D02*
D03*
X4000Y4400D02*
D03*
X4100Y4200D02*
D03*
X4000Y4000D02*
D03*
Y3600D02*
D03*
X4100Y3400D02*
D03*
X4000Y3200D02*
D03*
X4100Y3000D02*
D03*
X4000Y2800D02*
D03*
X4100Y2600D02*
D03*
X4000Y2400D02*
D03*
X4100Y2200D02*
D03*
X4000Y2000D02*
D03*
Y1600D02*
D03*
X4100Y1400D02*
D03*
X4000Y1200D02*
D03*
X4100Y1000D02*
D03*
X4000Y800D02*
D03*
X4100Y600D02*
D03*
X4000Y400D02*
D03*
X4100Y200D02*
D03*
X4000Y0D02*
D03*
X4100Y-200D02*
D03*
X4000Y-400D02*
D03*
X4100Y-600D02*
D03*
X4000Y-800D02*
D03*
X4100Y-1000D02*
D03*
X4000Y-1200D02*
D03*
X4100Y-1400D02*
D03*
X4000Y-1600D02*
D03*
Y-2000D02*
D03*
X4100Y-2200D02*
D03*
X4000Y-2400D02*
D03*
X4100Y-2600D02*
D03*
X4000Y-2800D02*
D03*
X4100Y-3000D02*
D03*
X4000Y-3200D02*
D03*
X4100Y-3400D02*
D03*
X4000Y-3600D02*
D03*
Y-4000D02*
D03*
X4100Y-4200D02*
D03*
X4000Y-4400D02*
D03*
X4100Y-4600D02*
D03*
X4000Y-4800D02*
D03*
X4100Y-5000D02*
D03*
X4000Y-5200D02*
D03*
X4100Y-5400D02*
D03*
X4000Y-5600D02*
D03*
X4100Y-5800D02*
D03*
X3800Y6000D02*
D03*
X3900Y5800D02*
D03*
X3800Y5600D02*
D03*
X3900Y5400D02*
D03*
X3800Y5200D02*
D03*
X3900Y5000D02*
D03*
X3800Y4800D02*
D03*
X3900Y4600D02*
D03*
X3800Y4400D02*
D03*
X3900Y4200D02*
D03*
X3800Y4000D02*
D03*
X3900Y3800D02*
D03*
X3800Y3600D02*
D03*
X3900Y3400D02*
D03*
X3800Y3200D02*
D03*
X3900Y3000D02*
D03*
X3800Y2800D02*
D03*
X3900Y2600D02*
D03*
X3800Y2400D02*
D03*
X3900Y2200D02*
D03*
X3800Y2000D02*
D03*
X3900Y1800D02*
D03*
X3800Y1600D02*
D03*
X3900Y1400D02*
D03*
X3800Y1200D02*
D03*
X3900Y1000D02*
D03*
X3800Y800D02*
D03*
X3900Y600D02*
D03*
X3800Y400D02*
D03*
X3900Y200D02*
D03*
X3800Y0D02*
D03*
X3900Y-200D02*
D03*
X3800Y-400D02*
D03*
X3900Y-600D02*
D03*
X3800Y-800D02*
D03*
X3900Y-1000D02*
D03*
X3800Y-1200D02*
D03*
X3900Y-1400D02*
D03*
X3800Y-1600D02*
D03*
X3900Y-1800D02*
D03*
X3800Y-2000D02*
D03*
X3900Y-2200D02*
D03*
X3800Y-2400D02*
D03*
X3900Y-2600D02*
D03*
X3800Y-2800D02*
D03*
X3900Y-3000D02*
D03*
X3800Y-3200D02*
D03*
X3900Y-3400D02*
D03*
X3800Y-3600D02*
D03*
X3900Y-3800D02*
D03*
X3800Y-4000D02*
D03*
X3900Y-4200D02*
D03*
X3800Y-4400D02*
D03*
X3900Y-4600D02*
D03*
X3800Y-4800D02*
D03*
X3900Y-5000D02*
D03*
X3800Y-5200D02*
D03*
X3900Y-5400D02*
D03*
X3800Y-5600D02*
D03*
X3900Y-5800D02*
D03*
X3800Y-6000D02*
D03*
X3600Y6000D02*
D03*
X3700Y5800D02*
D03*
X3600Y5600D02*
D03*
X3700Y5400D02*
D03*
X3600Y5200D02*
D03*
X3700Y5000D02*
D03*
X3600Y4800D02*
D03*
Y4400D02*
D03*
Y4000D02*
D03*
X3700Y3800D02*
D03*
X3600Y3600D02*
D03*
X3700Y3400D02*
D03*
X3600Y3200D02*
D03*
X3700Y3000D02*
D03*
X3600Y2800D02*
D03*
X3700Y2600D02*
D03*
X3600Y2400D02*
D03*
X3700Y2200D02*
D03*
X3600Y2000D02*
D03*
X3700Y1800D02*
D03*
X3600Y1600D02*
D03*
X3700Y1400D02*
D03*
X3600Y1200D02*
D03*
X3700Y1000D02*
D03*
X3600Y800D02*
D03*
X3700Y600D02*
D03*
X3600Y400D02*
D03*
X3700Y200D02*
D03*
X3600Y0D02*
D03*
X3700Y-200D02*
D03*
X3600Y-400D02*
D03*
X3700Y-600D02*
D03*
X3600Y-800D02*
D03*
X3700Y-1000D02*
D03*
X3600Y-1200D02*
D03*
X3700Y-1400D02*
D03*
X3600Y-1600D02*
D03*
X3700Y-1800D02*
D03*
X3600Y-2000D02*
D03*
X3700Y-2200D02*
D03*
X3600Y-2400D02*
D03*
X3700Y-2600D02*
D03*
X3600Y-2800D02*
D03*
X3700Y-3000D02*
D03*
X3600Y-3200D02*
D03*
X3700Y-3400D02*
D03*
X3600Y-3600D02*
D03*
X3700Y-3800D02*
D03*
X3600Y-4000D02*
D03*
X3700Y-4200D02*
D03*
X3600Y-4400D02*
D03*
X3700Y-4600D02*
D03*
X3600Y-4800D02*
D03*
X3700Y-5000D02*
D03*
X3600Y-5200D02*
D03*
X3700Y-5400D02*
D03*
X3600Y-5600D02*
D03*
X3700Y-5800D02*
D03*
X3600Y-6000D02*
D03*
X3500Y6200D02*
D03*
X3400Y6000D02*
D03*
X3500Y5800D02*
D03*
X3400Y5600D02*
D03*
X3500Y5400D02*
D03*
X3400Y5200D02*
D03*
X3500Y5000D02*
D03*
X3400Y4800D02*
D03*
Y4400D02*
D03*
Y4000D02*
D03*
X3500Y3800D02*
D03*
X3400Y3600D02*
D03*
X3500Y3400D02*
D03*
X3400Y3200D02*
D03*
X3500Y3000D02*
D03*
X3400Y2800D02*
D03*
X3500Y2600D02*
D03*
X3400Y2400D02*
D03*
X3500Y2200D02*
D03*
X3400Y2000D02*
D03*
X3500Y1800D02*
D03*
X3400Y1600D02*
D03*
X3500Y1400D02*
D03*
X3400Y1200D02*
D03*
X3500Y1000D02*
D03*
X3400Y800D02*
D03*
X3500Y600D02*
D03*
X3400Y400D02*
D03*
X3500Y200D02*
D03*
X3400Y0D02*
D03*
X3500Y-200D02*
D03*
X3400Y-400D02*
D03*
X3500Y-600D02*
D03*
X3400Y-800D02*
D03*
X3500Y-1000D02*
D03*
X3400Y-1200D02*
D03*
X3500Y-1400D02*
D03*
X3400Y-1600D02*
D03*
X3500Y-1800D02*
D03*
X3400Y-2000D02*
D03*
X3500Y-2200D02*
D03*
X3400Y-2400D02*
D03*
X3500Y-2600D02*
D03*
X3400Y-2800D02*
D03*
X3500Y-3000D02*
D03*
X3400Y-3200D02*
D03*
X3500Y-3400D02*
D03*
X3400Y-3600D02*
D03*
X3500Y-3800D02*
D03*
X3400Y-4000D02*
D03*
X3500Y-4200D02*
D03*
X3400Y-4400D02*
D03*
X3500Y-4600D02*
D03*
X3400Y-4800D02*
D03*
X3500Y-5000D02*
D03*
X3400Y-5200D02*
D03*
X3500Y-5400D02*
D03*
X3400Y-5600D02*
D03*
X3500Y-5800D02*
D03*
X3400Y-6000D02*
D03*
X3500Y-6200D02*
D03*
X3300Y6200D02*
D03*
X3200Y6000D02*
D03*
X3300Y5800D02*
D03*
X3200Y5600D02*
D03*
X3300Y5400D02*
D03*
X3200Y5200D02*
D03*
X3300Y5000D02*
D03*
X3200Y4800D02*
D03*
X3300Y4600D02*
D03*
X3200Y4400D02*
D03*
Y4000D02*
D03*
X3300Y3800D02*
D03*
X3200Y3600D02*
D03*
X3300Y3400D02*
D03*
X3200Y3200D02*
D03*
X3300Y3000D02*
D03*
X3200Y2800D02*
D03*
X3300Y2600D02*
D03*
X3200Y2400D02*
D03*
X3300Y2200D02*
D03*
X3200Y2000D02*
D03*
X3300Y1800D02*
D03*
X3200Y1600D02*
D03*
X3300Y1400D02*
D03*
X3200Y1200D02*
D03*
X3300Y1000D02*
D03*
X3200Y800D02*
D03*
X3300Y600D02*
D03*
Y200D02*
D03*
X3200Y0D02*
D03*
X3300Y-200D02*
D03*
Y-600D02*
D03*
X3200Y-800D02*
D03*
X3300Y-1000D02*
D03*
X3200Y-1200D02*
D03*
X3300Y-1400D02*
D03*
X3200Y-1600D02*
D03*
X3300Y-1800D02*
D03*
X3200Y-2000D02*
D03*
X3300Y-2200D02*
D03*
X3200Y-2400D02*
D03*
X3300Y-2600D02*
D03*
X3200Y-2800D02*
D03*
X3300Y-3000D02*
D03*
X3200Y-3200D02*
D03*
X3300Y-3400D02*
D03*
X3200Y-3600D02*
D03*
X3300Y-3800D02*
D03*
X3200Y-4000D02*
D03*
X3300Y-4200D02*
D03*
X3200Y-4400D02*
D03*
X3300Y-4600D02*
D03*
X3200Y-4800D02*
D03*
X3300Y-5000D02*
D03*
X3200Y-5200D02*
D03*
X3300Y-5400D02*
D03*
X3200Y-5600D02*
D03*
X3300Y-5800D02*
D03*
X3200Y-6000D02*
D03*
X3300Y-6200D02*
D03*
X3200Y-6400D02*
D03*
X3100Y6200D02*
D03*
X3000Y6000D02*
D03*
X3100Y5800D02*
D03*
X3000Y5600D02*
D03*
X3100Y5400D02*
D03*
X3000Y5200D02*
D03*
X3100Y5000D02*
D03*
X3000Y4800D02*
D03*
X3100Y4600D02*
D03*
X3000Y4400D02*
D03*
Y4000D02*
D03*
X3100Y3800D02*
D03*
X3000Y3600D02*
D03*
X3100Y3400D02*
D03*
X3000Y3200D02*
D03*
X3100Y3000D02*
D03*
X3000Y2800D02*
D03*
X3100Y2600D02*
D03*
X3000Y2400D02*
D03*
X3100Y2200D02*
D03*
X3000Y2000D02*
D03*
X3100Y1800D02*
D03*
X3000Y1600D02*
D03*
X3100Y1400D02*
D03*
X3000Y1200D02*
D03*
X3100Y1000D02*
D03*
X3000Y800D02*
D03*
Y-800D02*
D03*
X3100Y-1000D02*
D03*
X3000Y-1200D02*
D03*
X3100Y-1400D02*
D03*
X3000Y-1600D02*
D03*
X3100Y-1800D02*
D03*
X3000Y-2000D02*
D03*
X3100Y-2200D02*
D03*
X3000Y-2400D02*
D03*
X3100Y-2600D02*
D03*
X3000Y-2800D02*
D03*
X3100Y-3000D02*
D03*
X3000Y-3200D02*
D03*
X3100Y-3400D02*
D03*
X3000Y-3600D02*
D03*
X3100Y-3800D02*
D03*
X3000Y-4000D02*
D03*
X3100Y-4200D02*
D03*
X3000Y-4400D02*
D03*
X3100Y-4600D02*
D03*
X3000Y-4800D02*
D03*
X3100Y-5000D02*
D03*
X3000Y-5200D02*
D03*
X3100Y-5400D02*
D03*
X3000Y-5600D02*
D03*
X3100Y-5800D02*
D03*
X3000Y-6000D02*
D03*
X3100Y-6200D02*
D03*
X3000Y-6400D02*
D03*
X2900Y6200D02*
D03*
X2800Y6000D02*
D03*
X2900Y5800D02*
D03*
X2800Y5600D02*
D03*
X2900Y5400D02*
D03*
X2800Y5200D02*
D03*
X2900Y5000D02*
D03*
X2800Y4800D02*
D03*
Y4000D02*
D03*
X2900Y3800D02*
D03*
X2800Y3600D02*
D03*
X2900Y3400D02*
D03*
X2800Y3200D02*
D03*
X2900Y3000D02*
D03*
X2800Y2800D02*
D03*
X2900Y2600D02*
D03*
X2800Y2400D02*
D03*
X2900Y2200D02*
D03*
X2800Y2000D02*
D03*
X2900Y1800D02*
D03*
X2800Y1600D02*
D03*
X2900Y1400D02*
D03*
Y1000D02*
D03*
Y-1000D02*
D03*
X2800Y-1200D02*
D03*
X2900Y-1400D02*
D03*
X2800Y-1600D02*
D03*
X2900Y-1800D02*
D03*
X2800Y-2000D02*
D03*
X2900Y-2200D02*
D03*
X2800Y-2400D02*
D03*
X2900Y-2600D02*
D03*
X2800Y-2800D02*
D03*
X2900Y-3000D02*
D03*
X2800Y-3200D02*
D03*
X2900Y-3400D02*
D03*
X2800Y-3600D02*
D03*
X2900Y-3800D02*
D03*
X2800Y-4000D02*
D03*
X2900Y-4200D02*
D03*
X2800Y-4400D02*
D03*
X2900Y-4600D02*
D03*
X2800Y-4800D02*
D03*
X2900Y-5000D02*
D03*
X2800Y-5200D02*
D03*
X2900Y-5400D02*
D03*
X2800Y-5600D02*
D03*
X2900Y-5800D02*
D03*
X2800Y-6000D02*
D03*
X2900Y-6200D02*
D03*
X2800Y-6400D02*
D03*
X2700Y6200D02*
D03*
X2600Y6000D02*
D03*
X2700Y5800D02*
D03*
X2600Y5600D02*
D03*
X2700Y5400D02*
D03*
X2600Y5200D02*
D03*
X2700Y5000D02*
D03*
X2600Y4800D02*
D03*
Y4400D02*
D03*
Y4000D02*
D03*
X2700Y3800D02*
D03*
X2600Y3600D02*
D03*
X2700Y3400D02*
D03*
X2600Y3200D02*
D03*
X2700Y3000D02*
D03*
X2600Y2800D02*
D03*
X2700Y2600D02*
D03*
X2600Y2400D02*
D03*
X2700Y2200D02*
D03*
X2600Y2000D02*
D03*
X2700Y1800D02*
D03*
X2600Y1600D02*
D03*
X2700Y1400D02*
D03*
X2600Y0D02*
D03*
Y-400D02*
D03*
X2700Y-1000D02*
D03*
X2600Y-1200D02*
D03*
X2700Y-1400D02*
D03*
X2600Y-1600D02*
D03*
X2700Y-1800D02*
D03*
X2600Y-2000D02*
D03*
X2700Y-2200D02*
D03*
X2600Y-2400D02*
D03*
X2700Y-2600D02*
D03*
X2600Y-2800D02*
D03*
X2700Y-3000D02*
D03*
X2600Y-3200D02*
D03*
X2700Y-3400D02*
D03*
X2600Y-3600D02*
D03*
X2700Y-3800D02*
D03*
X2600Y-4000D02*
D03*
Y-4400D02*
D03*
Y-4800D02*
D03*
X2700Y-5000D02*
D03*
X2600Y-5200D02*
D03*
X2700Y-5400D02*
D03*
X2600Y-5600D02*
D03*
X2700Y-5800D02*
D03*
X2600Y-6000D02*
D03*
X2700Y-6200D02*
D03*
X2600Y-6400D02*
D03*
X2500Y6200D02*
D03*
X2400Y6000D02*
D03*
X2500Y5800D02*
D03*
X2400Y5600D02*
D03*
X2500Y5400D02*
D03*
X2400Y5200D02*
D03*
X2500Y5000D02*
D03*
X2400Y4800D02*
D03*
X2500Y4600D02*
D03*
X2400Y4000D02*
D03*
X2500Y3800D02*
D03*
X2400Y3600D02*
D03*
X2500Y3400D02*
D03*
X2400Y3200D02*
D03*
X2500Y3000D02*
D03*
X2400Y2800D02*
D03*
X2500Y2600D02*
D03*
X2400Y2400D02*
D03*
X2500Y2200D02*
D03*
X2400Y2000D02*
D03*
X2500Y1000D02*
D03*
X2400Y400D02*
D03*
X2500Y200D02*
D03*
X2400Y0D02*
D03*
X2500Y-200D02*
D03*
X2400Y-400D02*
D03*
X2500Y-600D02*
D03*
X2400Y-800D02*
D03*
X2500Y-1000D02*
D03*
X2400Y-1200D02*
D03*
X2500Y-1400D02*
D03*
X2400Y-1600D02*
D03*
X2500Y-1800D02*
D03*
X2400Y-2000D02*
D03*
X2500Y-2200D02*
D03*
X2400Y-2400D02*
D03*
X2500Y-2600D02*
D03*
X2400Y-2800D02*
D03*
X2500Y-3000D02*
D03*
X2400Y-3200D02*
D03*
X2500Y-3400D02*
D03*
X2400Y-3600D02*
D03*
X2500Y-3800D02*
D03*
X2400Y-4000D02*
D03*
Y-4400D02*
D03*
Y-4800D02*
D03*
X2500Y-5000D02*
D03*
X2400Y-5200D02*
D03*
X2500Y-5400D02*
D03*
X2400Y-5600D02*
D03*
X2500Y-5800D02*
D03*
X2400Y-6000D02*
D03*
X2500Y-6200D02*
D03*
X2400Y-6400D02*
D03*
X2300Y6200D02*
D03*
X2200Y6000D02*
D03*
X2300Y5800D02*
D03*
X2200Y5600D02*
D03*
X2300Y5400D02*
D03*
X2200Y5200D02*
D03*
X2300Y5000D02*
D03*
X2200Y4800D02*
D03*
X2300Y4600D02*
D03*
Y2600D02*
D03*
X2200Y2400D02*
D03*
X2300Y2200D02*
D03*
X2200Y2000D02*
D03*
Y800D02*
D03*
Y400D02*
D03*
X2300Y200D02*
D03*
X2200Y0D02*
D03*
X2300Y-200D02*
D03*
X2200Y-400D02*
D03*
X2300Y-600D02*
D03*
X2200Y-800D02*
D03*
X2300Y-1000D02*
D03*
X2200Y-1200D02*
D03*
X2300Y-1400D02*
D03*
X2200Y-1600D02*
D03*
X2300Y-1800D02*
D03*
X2200Y-2000D02*
D03*
X2300Y-2200D02*
D03*
X2200Y-2400D02*
D03*
X2300Y-2600D02*
D03*
X2200Y-2800D02*
D03*
X2300Y-3000D02*
D03*
X2200Y-3200D02*
D03*
X2300Y-3400D02*
D03*
X2200Y-3600D02*
D03*
X2300Y-3800D02*
D03*
X2200Y-4800D02*
D03*
X2300Y-5000D02*
D03*
X2200Y-5200D02*
D03*
X2300Y-5400D02*
D03*
X2200Y-5600D02*
D03*
X2300Y-5800D02*
D03*
X2200Y-6000D02*
D03*
X2300Y-6200D02*
D03*
X2200Y-6400D02*
D03*
X2100Y6200D02*
D03*
X2000Y6000D02*
D03*
X2100Y5800D02*
D03*
X2000Y5600D02*
D03*
X2100Y5400D02*
D03*
X2000Y5200D02*
D03*
X2100Y5000D02*
D03*
X2000Y4400D02*
D03*
X2100Y4200D02*
D03*
X2000Y4000D02*
D03*
X2100Y3800D02*
D03*
X2000Y3600D02*
D03*
X2100Y3400D02*
D03*
X2000Y3200D02*
D03*
X2100Y3000D02*
D03*
X2000Y2800D02*
D03*
X2100Y2200D02*
D03*
X2000Y2000D02*
D03*
X2100Y1000D02*
D03*
X2000Y800D02*
D03*
X2100Y600D02*
D03*
X2000Y400D02*
D03*
X2100Y200D02*
D03*
X2000Y0D02*
D03*
X2100Y-200D02*
D03*
X2000Y-400D02*
D03*
X2100Y-600D02*
D03*
X2000Y-800D02*
D03*
X2100Y-1000D02*
D03*
X2000Y-1200D02*
D03*
X2100Y-1400D02*
D03*
X2000Y-1600D02*
D03*
X2100Y-1800D02*
D03*
X2000Y-2000D02*
D03*
X2100Y-2200D02*
D03*
X2000Y-2400D02*
D03*
X2100Y-2600D02*
D03*
X2000Y-2800D02*
D03*
X2100Y-3000D02*
D03*
X2000Y-3200D02*
D03*
X2100Y-3400D02*
D03*
X2000Y-4400D02*
D03*
Y-4800D02*
D03*
X2100Y-5000D02*
D03*
X2000Y-5200D02*
D03*
X2100Y-5400D02*
D03*
X2000Y-5600D02*
D03*
X2100Y-5800D02*
D03*
X2000Y-6000D02*
D03*
X2100Y-6200D02*
D03*
X2000Y-6400D02*
D03*
X1900Y6200D02*
D03*
X1800Y6000D02*
D03*
X1900Y5800D02*
D03*
X1800Y5600D02*
D03*
X1900Y5400D02*
D03*
X1800Y5200D02*
D03*
X1900Y5000D02*
D03*
X1800Y4000D02*
D03*
X1900Y3800D02*
D03*
X1800Y3600D02*
D03*
X1900Y3400D02*
D03*
X1800Y3200D02*
D03*
X1900Y3000D02*
D03*
X1800Y2800D02*
D03*
X1900Y2200D02*
D03*
X1800Y2000D02*
D03*
X1900Y1000D02*
D03*
X1800Y800D02*
D03*
X1900Y600D02*
D03*
X1800Y400D02*
D03*
X1900Y200D02*
D03*
X1800Y0D02*
D03*
X1900Y-200D02*
D03*
X1800Y-400D02*
D03*
X1900Y-600D02*
D03*
X1800Y-800D02*
D03*
X1900Y-1000D02*
D03*
X1800Y-1200D02*
D03*
X1900Y-1400D02*
D03*
X1800Y-1600D02*
D03*
X1900Y-1800D02*
D03*
X1800Y-2000D02*
D03*
X1900Y-2200D02*
D03*
X1800Y-2400D02*
D03*
X1900Y-2600D02*
D03*
X1800Y-2800D02*
D03*
X1900Y-3000D02*
D03*
X1800Y-3200D02*
D03*
X1900Y-3400D02*
D03*
X1800Y-3600D02*
D03*
Y-4000D02*
D03*
X1900Y-5000D02*
D03*
X1800Y-5200D02*
D03*
X1900Y-5400D02*
D03*
X1800Y-5600D02*
D03*
X1900Y-5800D02*
D03*
X1800Y-6000D02*
D03*
X1900Y-6200D02*
D03*
X1800Y-6400D02*
D03*
X1700Y6200D02*
D03*
X1600Y6000D02*
D03*
X1700Y5800D02*
D03*
X1600Y5600D02*
D03*
X1700Y5400D02*
D03*
X1600Y5200D02*
D03*
X1700Y5000D02*
D03*
X1600Y4400D02*
D03*
Y4000D02*
D03*
X1700Y3800D02*
D03*
X1600Y3600D02*
D03*
X1700Y3400D02*
D03*
X1600Y3200D02*
D03*
X1700Y3000D02*
D03*
X1600Y2800D02*
D03*
X1700Y2600D02*
D03*
X1600Y2400D02*
D03*
Y-800D02*
D03*
X1700Y-1000D02*
D03*
X1600Y-1200D02*
D03*
X1700Y-1400D02*
D03*
X1600Y-1600D02*
D03*
X1700Y-1800D02*
D03*
X1600Y-2000D02*
D03*
X1700Y-2200D02*
D03*
X1600Y-2400D02*
D03*
X1700Y-2600D02*
D03*
X1600Y-2800D02*
D03*
X1700Y-3000D02*
D03*
X1600Y-3200D02*
D03*
X1700Y-3400D02*
D03*
X1600Y-3600D02*
D03*
X1700Y-3800D02*
D03*
X1600Y-4000D02*
D03*
Y-4800D02*
D03*
X1700Y-5400D02*
D03*
X1600Y-5600D02*
D03*
X1700Y-5800D02*
D03*
X1600Y-6000D02*
D03*
X1700Y-6200D02*
D03*
X1600Y-6400D02*
D03*
X1500Y6200D02*
D03*
X1400Y6000D02*
D03*
X1500Y5800D02*
D03*
X1400Y5600D02*
D03*
X1500Y5400D02*
D03*
X1400Y5200D02*
D03*
X1500Y5000D02*
D03*
Y4600D02*
D03*
Y4200D02*
D03*
Y3800D02*
D03*
Y3400D02*
D03*
Y3000D02*
D03*
Y2600D02*
D03*
X1400Y400D02*
D03*
Y0D02*
D03*
Y-400D02*
D03*
X1500Y-1000D02*
D03*
X1400Y-1200D02*
D03*
X1500Y-1400D02*
D03*
X1400Y-1600D02*
D03*
X1500Y-1800D02*
D03*
X1400Y-2000D02*
D03*
X1500Y-2200D02*
D03*
X1400Y-2400D02*
D03*
X1500Y-2600D02*
D03*
X1400Y-2800D02*
D03*
X1500Y-3000D02*
D03*
X1400Y-3200D02*
D03*
X1500Y-3400D02*
D03*
X1400Y-3600D02*
D03*
X1500Y-3800D02*
D03*
X1400Y-4000D02*
D03*
X1500Y-4200D02*
D03*
Y-4600D02*
D03*
X1400Y-4800D02*
D03*
X1500Y-5000D02*
D03*
X1400Y-5200D02*
D03*
X1500Y-5800D02*
D03*
X1400Y-6000D02*
D03*
X1500Y-6200D02*
D03*
X1400Y-6400D02*
D03*
X1300Y6200D02*
D03*
X1200Y6000D02*
D03*
X1300Y5800D02*
D03*
X1200Y5600D02*
D03*
X1300Y5400D02*
D03*
X1200Y5200D02*
D03*
X1300Y5000D02*
D03*
Y600D02*
D03*
X1200Y400D02*
D03*
X1300Y200D02*
D03*
X1200Y0D02*
D03*
X1300Y-200D02*
D03*
Y-600D02*
D03*
X1200Y-1200D02*
D03*
X1300Y-1400D02*
D03*
X1200Y-1600D02*
D03*
X1300Y-1800D02*
D03*
X1200Y-2000D02*
D03*
X1300Y-2200D02*
D03*
X1200Y-2400D02*
D03*
X1300Y-2600D02*
D03*
X1200Y-2800D02*
D03*
X1300Y-3000D02*
D03*
X1200Y-3200D02*
D03*
X1300Y-3400D02*
D03*
X1200Y-3600D02*
D03*
X1300Y-3800D02*
D03*
X1200Y-4000D02*
D03*
X1300Y-4600D02*
D03*
X1200Y-4800D02*
D03*
X1300Y-5000D02*
D03*
X1200Y-5200D02*
D03*
X1300Y-5400D02*
D03*
Y-5800D02*
D03*
X1200Y-6000D02*
D03*
X1300Y-6200D02*
D03*
X1200Y-6400D02*
D03*
X1100Y6200D02*
D03*
Y5800D02*
D03*
X1000Y5600D02*
D03*
X1100Y5400D02*
D03*
X1000Y5200D02*
D03*
X1100Y5000D02*
D03*
X1000Y4400D02*
D03*
X1100Y4200D02*
D03*
X1000Y4000D02*
D03*
X1100Y3800D02*
D03*
X1000Y3600D02*
D03*
X1100Y3400D02*
D03*
X1000Y3200D02*
D03*
X1100Y3000D02*
D03*
X1000Y2800D02*
D03*
X1100Y2600D02*
D03*
X1000Y2400D02*
D03*
X1100Y2200D02*
D03*
X1000Y2000D02*
D03*
X1100Y1800D02*
D03*
X1000Y800D02*
D03*
X1100Y200D02*
D03*
Y-200D02*
D03*
X1000Y-1200D02*
D03*
X1100Y-1400D02*
D03*
X1000Y-1600D02*
D03*
X1100Y-1800D02*
D03*
X1000Y-2000D02*
D03*
X1100Y-2200D02*
D03*
X1000Y-2400D02*
D03*
X1100Y-2600D02*
D03*
X1000Y-2800D02*
D03*
X1100Y-3000D02*
D03*
X1000Y-3200D02*
D03*
X1100Y-3400D02*
D03*
Y-3800D02*
D03*
Y-4600D02*
D03*
X1000Y-4800D02*
D03*
X1100Y-5000D02*
D03*
X1000Y-5200D02*
D03*
X1100Y-5400D02*
D03*
X1000Y-5600D02*
D03*
X1100Y-6200D02*
D03*
X1000Y-6400D02*
D03*
X800Y5600D02*
D03*
X900Y5400D02*
D03*
X800Y5200D02*
D03*
X900Y4600D02*
D03*
X800Y4400D02*
D03*
X900Y4200D02*
D03*
X800Y4000D02*
D03*
X900Y3800D02*
D03*
X800Y3600D02*
D03*
X900Y3400D02*
D03*
X800Y3200D02*
D03*
X900Y3000D02*
D03*
X800Y2800D02*
D03*
X900Y2600D02*
D03*
X800Y2400D02*
D03*
X900Y2200D02*
D03*
X800Y2000D02*
D03*
X900Y1800D02*
D03*
X800Y-1200D02*
D03*
X900Y-1400D02*
D03*
X800Y-1600D02*
D03*
X900Y-1800D02*
D03*
X800Y-2000D02*
D03*
X900Y-2200D02*
D03*
X800Y-2400D02*
D03*
X900Y-2600D02*
D03*
X800Y-2800D02*
D03*
X900Y-3000D02*
D03*
X800Y-3200D02*
D03*
X900Y-3400D02*
D03*
Y-4600D02*
D03*
X800Y-4800D02*
D03*
X900Y-5000D02*
D03*
X800Y-5200D02*
D03*
X900Y-5400D02*
D03*
X800Y-5600D02*
D03*
X900Y-5800D02*
D03*
Y-6200D02*
D03*
X800Y-6400D02*
D03*
X700Y6200D02*
D03*
X600Y6000D02*
D03*
X700Y5800D02*
D03*
X600Y5600D02*
D03*
X700Y5400D02*
D03*
Y4600D02*
D03*
Y4200D02*
D03*
X600Y4000D02*
D03*
X700Y3800D02*
D03*
X600Y3600D02*
D03*
X700Y3400D02*
D03*
X600Y3200D02*
D03*
X700Y3000D02*
D03*
X600Y2800D02*
D03*
X700Y2600D02*
D03*
X600Y2400D02*
D03*
X700Y2200D02*
D03*
X600Y2000D02*
D03*
X700Y1800D02*
D03*
X600Y1600D02*
D03*
X700Y1000D02*
D03*
X600Y400D02*
D03*
Y-800D02*
D03*
Y-1200D02*
D03*
X700Y-1400D02*
D03*
X600Y-1600D02*
D03*
X700Y-1800D02*
D03*
X600Y-2000D02*
D03*
X700Y-2200D02*
D03*
X600Y-2400D02*
D03*
X700Y-2600D02*
D03*
Y-3000D02*
D03*
Y-4600D02*
D03*
X600Y-4800D02*
D03*
X700Y-5000D02*
D03*
X600Y-5200D02*
D03*
X700Y-5400D02*
D03*
X600Y-5600D02*
D03*
X700Y-5800D02*
D03*
X600Y-6000D02*
D03*
X500Y6200D02*
D03*
Y5800D02*
D03*
X400Y5600D02*
D03*
X500Y5400D02*
D03*
Y4600D02*
D03*
X400Y4400D02*
D03*
X500Y4200D02*
D03*
X400Y4000D02*
D03*
X500Y3800D02*
D03*
X400Y3600D02*
D03*
X500Y3400D02*
D03*
X400Y3200D02*
D03*
X500Y3000D02*
D03*
X400Y2800D02*
D03*
X500Y2600D02*
D03*
X400Y2400D02*
D03*
X500Y2200D02*
D03*
X400Y2000D02*
D03*
X500Y1800D02*
D03*
X400Y1600D02*
D03*
X500Y1000D02*
D03*
Y-600D02*
D03*
X400Y-1200D02*
D03*
X500Y-1400D02*
D03*
X400Y-1600D02*
D03*
X500Y-1800D02*
D03*
X400Y-2000D02*
D03*
X500Y-2200D02*
D03*
X400Y-2400D02*
D03*
X500Y-4600D02*
D03*
X400Y-4800D02*
D03*
X500Y-5000D02*
D03*
X400Y-5200D02*
D03*
X500Y-5400D02*
D03*
X400Y-5600D02*
D03*
X500Y-5800D02*
D03*
X300Y5400D02*
D03*
Y3800D02*
D03*
X200Y3600D02*
D03*
X300Y3400D02*
D03*
X200Y3200D02*
D03*
X300Y3000D02*
D03*
X200Y2800D02*
D03*
X300Y2600D02*
D03*
X200Y2400D02*
D03*
X300Y2200D02*
D03*
X200Y2000D02*
D03*
X300Y1800D02*
D03*
X200Y1600D02*
D03*
Y0D02*
D03*
X300Y-1400D02*
D03*
Y-1800D02*
D03*
Y-2200D02*
D03*
Y-4600D02*
D03*
X200Y-4800D02*
D03*
X300Y-5000D02*
D03*
X200Y-5200D02*
D03*
X300Y-5400D02*
D03*
X0Y5600D02*
D03*
Y4800D02*
D03*
X100Y3800D02*
D03*
X0Y3600D02*
D03*
X100Y3400D02*
D03*
X0Y3200D02*
D03*
X100Y3000D02*
D03*
X0Y2800D02*
D03*
X100Y2600D02*
D03*
X0Y2400D02*
D03*
X100Y2200D02*
D03*
X0Y2000D02*
D03*
X100Y1800D02*
D03*
X0Y1600D02*
D03*
X100Y-4600D02*
D03*
X0Y-4800D02*
D03*
X100Y-5000D02*
D03*
X0Y-5600D02*
D03*
X-100Y3800D02*
D03*
X-200Y3600D02*
D03*
X-100Y3400D02*
D03*
X-200Y3200D02*
D03*
X-100Y3000D02*
D03*
X-200Y2800D02*
D03*
X-100Y2600D02*
D03*
X-200Y2400D02*
D03*
X-100Y2200D02*
D03*
X-200Y2000D02*
D03*
X-100Y1800D02*
D03*
X-200Y1600D02*
D03*
Y0D02*
D03*
X-100Y-200D02*
D03*
X-200Y-1600D02*
D03*
Y-2000D02*
D03*
X-100Y-4200D02*
D03*
Y-4600D02*
D03*
X-200Y-4800D02*
D03*
X-100Y-5000D02*
D03*
Y-5400D02*
D03*
X-200Y-5600D02*
D03*
X-400Y5600D02*
D03*
Y4400D02*
D03*
Y4000D02*
D03*
X-300Y3800D02*
D03*
X-400Y3600D02*
D03*
X-300Y3400D02*
D03*
X-400Y3200D02*
D03*
X-300Y3000D02*
D03*
X-400Y2800D02*
D03*
X-300Y2600D02*
D03*
X-400Y2400D02*
D03*
X-300Y2200D02*
D03*
X-400Y2000D02*
D03*
X-300Y1800D02*
D03*
X-400Y1600D02*
D03*
X-300Y-1400D02*
D03*
X-400Y-1600D02*
D03*
X-300Y-1800D02*
D03*
X-400Y-2000D02*
D03*
X-300Y-2200D02*
D03*
Y-4600D02*
D03*
X-400Y-4800D02*
D03*
X-600Y6000D02*
D03*
X-500Y5800D02*
D03*
X-600Y5600D02*
D03*
X-500Y4600D02*
D03*
Y4200D02*
D03*
X-600Y4000D02*
D03*
X-500Y3800D02*
D03*
X-600Y3600D02*
D03*
X-500Y3400D02*
D03*
X-600Y3200D02*
D03*
X-500Y3000D02*
D03*
X-600Y2800D02*
D03*
X-500Y2600D02*
D03*
X-600Y2400D02*
D03*
X-500Y2200D02*
D03*
X-600Y2000D02*
D03*
X-500Y1800D02*
D03*
X-600Y1600D02*
D03*
Y-2800D02*
D03*
X-500Y-3000D02*
D03*
X-600Y-3200D02*
D03*
X-500Y-4600D02*
D03*
X-600Y-4800D02*
D03*
X-500Y-5400D02*
D03*
Y-5800D02*
D03*
Y-6200D02*
D03*
X-700Y6200D02*
D03*
Y5800D02*
D03*
Y4600D02*
D03*
Y4200D02*
D03*
Y3800D02*
D03*
Y3400D02*
D03*
Y3000D02*
D03*
Y2600D02*
D03*
X-800Y2400D02*
D03*
X-700Y2200D02*
D03*
X-800Y2000D02*
D03*
X-700Y1800D02*
D03*
X-800Y1600D02*
D03*
X-700Y1400D02*
D03*
Y-3000D02*
D03*
X-800Y-3200D02*
D03*
X-700Y-4600D02*
D03*
X-800Y-4800D02*
D03*
Y-5200D02*
D03*
X-1000Y-400D02*
D03*
Y-800D02*
D03*
Y-2000D02*
D03*
Y-2400D02*
D03*
X-900Y-3000D02*
D03*
X-1000Y-3200D02*
D03*
X-900Y-3400D02*
D03*
Y-4600D02*
D03*
X-1000Y-4800D02*
D03*
Y-5200D02*
D03*
X-900Y-5400D02*
D03*
X-1000Y-5600D02*
D03*
X-900Y-5800D02*
D03*
X-1000Y-6000D02*
D03*
X-900Y-6200D02*
D03*
X-1100Y6200D02*
D03*
Y5000D02*
D03*
Y1000D02*
D03*
Y-3400D02*
D03*
X-1200Y-3600D02*
D03*
X-1100Y-3800D02*
D03*
Y-4600D02*
D03*
X-1200Y-4800D02*
D03*
Y-5200D02*
D03*
X-1100Y-5400D02*
D03*
Y-5800D02*
D03*
Y-6200D02*
D03*
X-1300Y1800D02*
D03*
X-1400Y1600D02*
D03*
X-1300Y1000D02*
D03*
X-1400Y-2800D02*
D03*
X-1300Y-3400D02*
D03*
X-1400Y-3600D02*
D03*
X-1300Y-3800D02*
D03*
X-1400Y-4000D02*
D03*
X-1300Y-4600D02*
D03*
X-1400Y-5200D02*
D03*
X-1600Y4800D02*
D03*
X-1500Y4600D02*
D03*
Y4200D02*
D03*
X-1600Y4000D02*
D03*
X-1500Y3800D02*
D03*
X-1600Y3600D02*
D03*
X-1500Y3400D02*
D03*
X-1600Y3200D02*
D03*
X-1500Y3000D02*
D03*
X-1600Y2800D02*
D03*
X-1500Y2600D02*
D03*
X-1600Y2400D02*
D03*
X-1500Y1800D02*
D03*
X-1600Y1600D02*
D03*
X-1500Y1000D02*
D03*
X-1600Y0D02*
D03*
X-1500Y-200D02*
D03*
X-1600Y-400D02*
D03*
X-1500Y-600D02*
D03*
X-1600Y-800D02*
D03*
X-1500Y-1000D02*
D03*
Y-1800D02*
D03*
X-1600Y-2000D02*
D03*
X-1500Y-2200D02*
D03*
Y-4600D02*
D03*
Y-5000D02*
D03*
X-1700Y5000D02*
D03*
Y3800D02*
D03*
X-1800Y3600D02*
D03*
X-1700Y3400D02*
D03*
X-1800Y3200D02*
D03*
X-1700Y3000D02*
D03*
X-1800Y2800D02*
D03*
X-1700Y2600D02*
D03*
X-1800Y2400D02*
D03*
X-1700Y2200D02*
D03*
X-1800Y-2000D02*
D03*
X-1700Y-2200D02*
D03*
X-1800Y-2400D02*
D03*
Y-3200D02*
D03*
X-1900Y6200D02*
D03*
X-2000Y6000D02*
D03*
X-1900Y5800D02*
D03*
Y5400D02*
D03*
X-2000Y4000D02*
D03*
X-1900Y3800D02*
D03*
X-2000Y3600D02*
D03*
X-1900Y3400D02*
D03*
X-2000Y3200D02*
D03*
X-1900Y3000D02*
D03*
X-2000Y2800D02*
D03*
X-1900Y2600D02*
D03*
X-2000Y2400D02*
D03*
X-1900Y2200D02*
D03*
X-2000Y2000D02*
D03*
Y-1600D02*
D03*
X-1900Y-1800D02*
D03*
X-2000Y-2000D02*
D03*
X-1900Y-2200D02*
D03*
X-2000Y-2400D02*
D03*
X-1900Y-2600D02*
D03*
X-2000Y-6400D02*
D03*
X-2100Y6200D02*
D03*
X-2200Y5200D02*
D03*
X-2100Y4600D02*
D03*
Y3800D02*
D03*
Y3400D02*
D03*
Y3000D02*
D03*
Y2600D02*
D03*
Y2200D02*
D03*
Y1800D02*
D03*
Y1400D02*
D03*
Y1000D02*
D03*
X-2200Y0D02*
D03*
X-2100Y-200D02*
D03*
X-2200Y-400D02*
D03*
X-2100Y-600D02*
D03*
X-2200Y-2000D02*
D03*
X-2100Y-2200D02*
D03*
X-2200Y-2400D02*
D03*
X-2100Y-2600D02*
D03*
X-2200Y-2800D02*
D03*
Y-4800D02*
D03*
Y-5200D02*
D03*
X-2100Y-6200D02*
D03*
X-2200Y-6400D02*
D03*
X-2400Y4800D02*
D03*
Y400D02*
D03*
X-2300Y200D02*
D03*
X-2400Y0D02*
D03*
X-2300Y-200D02*
D03*
X-2400Y-400D02*
D03*
Y-800D02*
D03*
Y-2000D02*
D03*
X-2300Y-2200D02*
D03*
X-2400Y-2400D02*
D03*
X-2300Y-2600D02*
D03*
X-2400Y-2800D02*
D03*
X-2300Y-3000D02*
D03*
X-2400Y-6400D02*
D03*
X-2500Y5400D02*
D03*
X-2600Y5200D02*
D03*
X-2500Y5000D02*
D03*
X-2600Y4800D02*
D03*
X-2500Y4600D02*
D03*
X-2600Y3200D02*
D03*
Y2800D02*
D03*
Y2400D02*
D03*
Y2000D02*
D03*
Y1600D02*
D03*
Y1200D02*
D03*
Y400D02*
D03*
X-2500Y200D02*
D03*
X-2600Y0D02*
D03*
X-2500Y-200D02*
D03*
X-2600Y-1200D02*
D03*
Y-1600D02*
D03*
X-2500Y-1800D02*
D03*
X-2600Y-2000D02*
D03*
X-2500Y-2200D02*
D03*
X-2600Y-2400D02*
D03*
X-2500Y-2600D02*
D03*
X-2600Y-2800D02*
D03*
X-2500Y-3000D02*
D03*
X-2600Y-3200D02*
D03*
Y-3600D02*
D03*
Y-4000D02*
D03*
Y-4800D02*
D03*
Y-6400D02*
D03*
X-2800Y5200D02*
D03*
X-2700Y5000D02*
D03*
X-2800Y4800D02*
D03*
Y3600D02*
D03*
X-2700Y3400D02*
D03*
X-2800Y3200D02*
D03*
X-2700Y3000D02*
D03*
X-2800Y2800D02*
D03*
X-2700Y2600D02*
D03*
X-2800Y2400D02*
D03*
X-2700Y2200D02*
D03*
X-2800Y2000D02*
D03*
X-2700Y1800D02*
D03*
X-2800Y1600D02*
D03*
X-2700Y1400D02*
D03*
X-2800Y1200D02*
D03*
X-2700Y1000D02*
D03*
Y-1000D02*
D03*
X-2800Y-1200D02*
D03*
X-2700Y-1400D02*
D03*
X-2800Y-1600D02*
D03*
X-2700Y-1800D02*
D03*
X-2800Y-2000D02*
D03*
X-2700Y-2200D02*
D03*
X-2800Y-2400D02*
D03*
X-2700Y-2600D02*
D03*
X-2800Y-2800D02*
D03*
X-2700Y-3000D02*
D03*
X-2800Y-3200D02*
D03*
X-2700Y-3400D02*
D03*
X-2800Y-3600D02*
D03*
X-2700Y-3800D02*
D03*
X-2800Y-4000D02*
D03*
Y-4400D02*
D03*
Y-4800D02*
D03*
X-2700Y-5000D02*
D03*
X-2800Y-5200D02*
D03*
Y-6400D02*
D03*
X-2900Y6200D02*
D03*
X-3000Y6000D02*
D03*
X-2900Y5800D02*
D03*
X-3000Y5600D02*
D03*
X-2900Y5400D02*
D03*
X-3000Y5200D02*
D03*
X-2900Y5000D02*
D03*
X-3000Y4800D02*
D03*
Y4400D02*
D03*
Y4000D02*
D03*
X-2900Y3800D02*
D03*
X-3000Y3600D02*
D03*
X-2900Y3400D02*
D03*
X-3000Y3200D02*
D03*
X-2900Y3000D02*
D03*
X-3000Y2800D02*
D03*
X-2900Y2600D02*
D03*
X-3000Y2400D02*
D03*
X-2900Y2200D02*
D03*
X-3000Y2000D02*
D03*
X-2900Y1800D02*
D03*
X-3000Y1600D02*
D03*
X-2900Y1400D02*
D03*
X-3000Y1200D02*
D03*
X-2900Y1000D02*
D03*
X-3000Y800D02*
D03*
Y-800D02*
D03*
X-2900Y-1000D02*
D03*
X-3000Y-1200D02*
D03*
X-2900Y-1400D02*
D03*
X-3000Y-1600D02*
D03*
X-2900Y-1800D02*
D03*
X-3000Y-2000D02*
D03*
X-2900Y-2200D02*
D03*
X-3000Y-2400D02*
D03*
X-2900Y-2600D02*
D03*
X-3000Y-2800D02*
D03*
X-2900Y-3000D02*
D03*
X-3000Y-3200D02*
D03*
X-2900Y-3400D02*
D03*
X-3000Y-3600D02*
D03*
X-2900Y-3800D02*
D03*
X-3000Y-4000D02*
D03*
X-2900Y-4200D02*
D03*
X-3000Y-4400D02*
D03*
X-2900Y-4600D02*
D03*
X-3000Y-4800D02*
D03*
X-2900Y-5000D02*
D03*
X-3000Y-5200D02*
D03*
X-2900Y-5400D02*
D03*
X-3000Y-5600D02*
D03*
Y-6000D02*
D03*
X-2900Y-6200D02*
D03*
X-3000Y-6400D02*
D03*
X-3100Y6200D02*
D03*
X-3200Y6000D02*
D03*
X-3100Y5800D02*
D03*
X-3200Y5600D02*
D03*
X-3100Y5400D02*
D03*
X-3200Y5200D02*
D03*
X-3100Y5000D02*
D03*
X-3200Y4800D02*
D03*
Y4400D02*
D03*
Y4000D02*
D03*
X-3100Y3800D02*
D03*
X-3200Y3600D02*
D03*
X-3100Y3400D02*
D03*
X-3200Y3200D02*
D03*
X-3100Y3000D02*
D03*
X-3200Y2800D02*
D03*
X-3100Y2600D02*
D03*
X-3200Y2400D02*
D03*
X-3100Y2200D02*
D03*
X-3200Y2000D02*
D03*
X-3100Y1800D02*
D03*
X-3200Y1600D02*
D03*
X-3100Y1400D02*
D03*
X-3200Y1200D02*
D03*
X-3100Y1000D02*
D03*
X-3200Y800D02*
D03*
Y0D02*
D03*
Y-800D02*
D03*
X-3100Y-1000D02*
D03*
X-3200Y-1200D02*
D03*
X-3100Y-1400D02*
D03*
X-3200Y-1600D02*
D03*
X-3100Y-1800D02*
D03*
X-3200Y-2000D02*
D03*
X-3100Y-2200D02*
D03*
X-3200Y-2400D02*
D03*
X-3100Y-2600D02*
D03*
X-3200Y-2800D02*
D03*
X-3100Y-3000D02*
D03*
X-3200Y-3200D02*
D03*
X-3100Y-3400D02*
D03*
X-3200Y-3600D02*
D03*
X-3100Y-3800D02*
D03*
X-3200Y-4000D02*
D03*
X-3100Y-4200D02*
D03*
X-3200Y-4400D02*
D03*
X-3100Y-4600D02*
D03*
X-3200Y-4800D02*
D03*
X-3100Y-5000D02*
D03*
X-3200Y-5200D02*
D03*
X-3100Y-5400D02*
D03*
X-3200Y-5600D02*
D03*
X-3100Y-5800D02*
D03*
X-3200Y-6000D02*
D03*
X-3100Y-6200D02*
D03*
X-3200Y-6400D02*
D03*
X-3300Y6200D02*
D03*
X-3400Y6000D02*
D03*
X-3300Y5800D02*
D03*
X-3400Y5600D02*
D03*
X-3300Y5400D02*
D03*
X-3400Y5200D02*
D03*
X-3300Y5000D02*
D03*
X-3400Y4800D02*
D03*
Y4400D02*
D03*
Y4000D02*
D03*
X-3300Y3800D02*
D03*
X-3400Y3600D02*
D03*
X-3300Y3400D02*
D03*
X-3400Y3200D02*
D03*
X-3300Y3000D02*
D03*
X-3400Y2800D02*
D03*
X-3300Y2600D02*
D03*
X-3400Y2400D02*
D03*
X-3300Y2200D02*
D03*
X-3400Y2000D02*
D03*
X-3300Y1800D02*
D03*
X-3400Y1600D02*
D03*
X-3300Y1400D02*
D03*
X-3400Y1200D02*
D03*
X-3300Y1000D02*
D03*
X-3400Y800D02*
D03*
X-3300Y600D02*
D03*
X-3400Y400D02*
D03*
X-3300Y200D02*
D03*
X-3400Y0D02*
D03*
X-3300Y-200D02*
D03*
X-3400Y-400D02*
D03*
X-3300Y-600D02*
D03*
X-3400Y-800D02*
D03*
X-3300Y-1000D02*
D03*
X-3400Y-1200D02*
D03*
X-3300Y-1400D02*
D03*
X-3400Y-1600D02*
D03*
X-3300Y-1800D02*
D03*
X-3400Y-2000D02*
D03*
X-3300Y-2200D02*
D03*
X-3400Y-2400D02*
D03*
X-3300Y-2600D02*
D03*
X-3400Y-2800D02*
D03*
X-3300Y-3000D02*
D03*
X-3400Y-3200D02*
D03*
X-3300Y-3400D02*
D03*
X-3400Y-3600D02*
D03*
X-3300Y-3800D02*
D03*
X-3400Y-4000D02*
D03*
X-3300Y-4200D02*
D03*
X-3400Y-4400D02*
D03*
X-3300Y-4600D02*
D03*
X-3400Y-4800D02*
D03*
X-3300Y-5000D02*
D03*
X-3400Y-5200D02*
D03*
X-3300Y-5400D02*
D03*
X-3400Y-5600D02*
D03*
X-3300Y-5800D02*
D03*
X-3400Y-6000D02*
D03*
X-3300Y-6200D02*
D03*
X-3500Y6200D02*
D03*
X-3600Y6000D02*
D03*
X-3500Y5800D02*
D03*
X-3600Y5600D02*
D03*
X-3500Y5400D02*
D03*
X-3600Y5200D02*
D03*
X-3500Y5000D02*
D03*
X-3600Y4800D02*
D03*
Y4000D02*
D03*
X-3500Y3800D02*
D03*
X-3600Y3600D02*
D03*
X-3500Y3400D02*
D03*
X-3600Y3200D02*
D03*
X-3500Y3000D02*
D03*
X-3600Y2800D02*
D03*
X-3500Y2600D02*
D03*
X-3600Y2400D02*
D03*
X-3500Y2200D02*
D03*
X-3600Y2000D02*
D03*
X-3500Y1800D02*
D03*
X-3600Y1600D02*
D03*
X-3500Y1400D02*
D03*
X-3600Y1200D02*
D03*
X-3500Y1000D02*
D03*
X-3600Y800D02*
D03*
X-3500Y600D02*
D03*
X-3600Y400D02*
D03*
X-3500Y200D02*
D03*
X-3600Y0D02*
D03*
X-3500Y-200D02*
D03*
X-3600Y-400D02*
D03*
X-3500Y-600D02*
D03*
X-3600Y-800D02*
D03*
X-3500Y-1000D02*
D03*
X-3600Y-1200D02*
D03*
X-3500Y-1400D02*
D03*
X-3600Y-1600D02*
D03*
X-3500Y-1800D02*
D03*
X-3600Y-2000D02*
D03*
X-3500Y-2200D02*
D03*
X-3600Y-2400D02*
D03*
X-3500Y-2600D02*
D03*
X-3600Y-2800D02*
D03*
X-3500Y-3000D02*
D03*
X-3600Y-3200D02*
D03*
X-3500Y-3400D02*
D03*
X-3600Y-3600D02*
D03*
X-3500Y-3800D02*
D03*
X-3600Y-4000D02*
D03*
X-3500Y-4200D02*
D03*
X-3600Y-4400D02*
D03*
X-3500Y-4600D02*
D03*
X-3600Y-4800D02*
D03*
X-3500Y-5000D02*
D03*
X-3600Y-5200D02*
D03*
X-3500Y-5400D02*
D03*
X-3600Y-5600D02*
D03*
X-3500Y-5800D02*
D03*
X-3600Y-6000D02*
D03*
X-3500Y-6200D02*
D03*
X-3800Y6000D02*
D03*
X-3700Y5800D02*
D03*
X-3800Y5600D02*
D03*
X-3700Y5400D02*
D03*
X-3800Y5200D02*
D03*
X-3700Y5000D02*
D03*
X-3800Y4800D02*
D03*
Y4400D02*
D03*
Y4000D02*
D03*
X-3700Y3800D02*
D03*
X-3800Y3600D02*
D03*
X-3700Y3400D02*
D03*
X-3800Y3200D02*
D03*
X-3700Y3000D02*
D03*
X-3800Y2800D02*
D03*
X-3700Y2600D02*
D03*
X-3800Y2400D02*
D03*
X-3700Y2200D02*
D03*
X-3800Y2000D02*
D03*
X-3700Y1800D02*
D03*
X-3800Y1600D02*
D03*
X-3700Y1400D02*
D03*
X-3800Y1200D02*
D03*
X-3700Y1000D02*
D03*
X-3800Y800D02*
D03*
X-3700Y600D02*
D03*
X-3800Y400D02*
D03*
X-3700Y200D02*
D03*
X-3800Y0D02*
D03*
X-3700Y-200D02*
D03*
X-3800Y-400D02*
D03*
X-3700Y-600D02*
D03*
X-3800Y-800D02*
D03*
X-3700Y-1000D02*
D03*
X-3800Y-1200D02*
D03*
X-3700Y-1400D02*
D03*
X-3800Y-1600D02*
D03*
X-3700Y-1800D02*
D03*
X-3800Y-2000D02*
D03*
X-3700Y-2200D02*
D03*
X-3800Y-2400D02*
D03*
X-3700Y-2600D02*
D03*
X-3800Y-2800D02*
D03*
X-3700Y-3000D02*
D03*
X-3800Y-3200D02*
D03*
X-3700Y-3400D02*
D03*
X-3800Y-3600D02*
D03*
X-3700Y-3800D02*
D03*
X-3800Y-4000D02*
D03*
X-3700Y-4200D02*
D03*
X-3800Y-4400D02*
D03*
X-3700Y-4600D02*
D03*
X-3800Y-4800D02*
D03*
X-3700Y-5000D02*
D03*
X-3800Y-5200D02*
D03*
X-3700Y-5400D02*
D03*
X-3800Y-5600D02*
D03*
X-3700Y-5800D02*
D03*
X-3800Y-6000D02*
D03*
X-3900Y5800D02*
D03*
X-4000Y5600D02*
D03*
X-3900Y5400D02*
D03*
X-4000Y5200D02*
D03*
X-3900Y5000D02*
D03*
X-4000Y4800D02*
D03*
X-3900Y4600D02*
D03*
X-4000Y4400D02*
D03*
X-3900Y4200D02*
D03*
X-4000Y4000D02*
D03*
X-3900Y3800D02*
D03*
X-4000Y3600D02*
D03*
X-3900Y3400D02*
D03*
X-4000Y3200D02*
D03*
X-3900Y3000D02*
D03*
X-4000Y2800D02*
D03*
X-3900Y2600D02*
D03*
X-4000Y2400D02*
D03*
X-3900Y2200D02*
D03*
X-4000Y2000D02*
D03*
X-3900Y1800D02*
D03*
X-4000Y1600D02*
D03*
X-3900Y1400D02*
D03*
X-4000Y1200D02*
D03*
X-3900Y1000D02*
D03*
X-4000Y800D02*
D03*
X-3900Y600D02*
D03*
X-4000Y400D02*
D03*
X-3900Y200D02*
D03*
X-4000Y0D02*
D03*
X-3900Y-200D02*
D03*
X-4000Y-400D02*
D03*
X-3900Y-600D02*
D03*
X-4000Y-800D02*
D03*
X-3900Y-1000D02*
D03*
X-4000Y-1200D02*
D03*
X-3900Y-1400D02*
D03*
X-4000Y-1600D02*
D03*
X-3900Y-1800D02*
D03*
X-4000Y-2000D02*
D03*
X-3900Y-2200D02*
D03*
X-4000Y-2400D02*
D03*
X-3900Y-2600D02*
D03*
X-4000Y-2800D02*
D03*
X-3900Y-3000D02*
D03*
X-4000Y-3200D02*
D03*
X-3900Y-3400D02*
D03*
X-4000Y-3600D02*
D03*
X-3900Y-3800D02*
D03*
X-4000Y-4000D02*
D03*
X-3900Y-4200D02*
D03*
X-4000Y-4400D02*
D03*
X-3900Y-4600D02*
D03*
X-4000Y-4800D02*
D03*
X-3900Y-5000D02*
D03*
X-4000Y-5200D02*
D03*
X-3900Y-5400D02*
D03*
X-4000Y-5600D02*
D03*
X-3900Y-5800D02*
D03*
X-4100Y5800D02*
D03*
X-4200Y5600D02*
D03*
X-4100Y5400D02*
D03*
X-4200Y5200D02*
D03*
X-4100Y5000D02*
D03*
X-4200Y4800D02*
D03*
X-4100Y4600D02*
D03*
X-4200Y4400D02*
D03*
X-4100Y4200D02*
D03*
Y3400D02*
D03*
X-4200Y3200D02*
D03*
X-4100Y3000D02*
D03*
X-4200Y2800D02*
D03*
X-4100Y2600D02*
D03*
X-4200Y2400D02*
D03*
X-4100Y2200D02*
D03*
Y1400D02*
D03*
X-4200Y1200D02*
D03*
X-4100Y1000D02*
D03*
X-4200Y800D02*
D03*
X-4100Y600D02*
D03*
X-4200Y400D02*
D03*
X-4100Y200D02*
D03*
X-4200Y0D02*
D03*
X-4100Y-200D02*
D03*
X-4200Y-400D02*
D03*
X-4100Y-600D02*
D03*
X-4200Y-800D02*
D03*
X-4100Y-1000D02*
D03*
X-4200Y-1200D02*
D03*
X-4100Y-1400D02*
D03*
Y-2200D02*
D03*
X-4200Y-2400D02*
D03*
X-4100Y-2600D02*
D03*
X-4200Y-2800D02*
D03*
X-4100Y-3000D02*
D03*
X-4200Y-3200D02*
D03*
X-4100Y-3400D02*
D03*
Y-4200D02*
D03*
X-4200Y-4400D02*
D03*
X-4100Y-4600D02*
D03*
X-4200Y-4800D02*
D03*
X-4100Y-5000D02*
D03*
X-4200Y-5200D02*
D03*
X-4100Y-5400D02*
D03*
X-4200Y-5600D02*
D03*
X-4100Y-5800D02*
D03*
X-4400Y5600D02*
D03*
X-4300Y5400D02*
D03*
X-4400Y5200D02*
D03*
X-4300Y5000D02*
D03*
X-4400Y4800D02*
D03*
X-4300Y4600D02*
D03*
X-4400Y4400D02*
D03*
X-4300Y4200D02*
D03*
Y3400D02*
D03*
X-4400Y3200D02*
D03*
X-4300Y3000D02*
D03*
X-4400Y2800D02*
D03*
X-4300Y2600D02*
D03*
X-4400Y2400D02*
D03*
X-4300Y2200D02*
D03*
X-4400Y1200D02*
D03*
X-4300Y1000D02*
D03*
X-4400Y800D02*
D03*
X-4300Y600D02*
D03*
X-4400Y400D02*
D03*
X-4300Y200D02*
D03*
X-4400Y0D02*
D03*
X-4300Y-200D02*
D03*
X-4400Y-400D02*
D03*
X-4300Y-600D02*
D03*
X-4400Y-800D02*
D03*
X-4300Y-1000D02*
D03*
X-4400Y-1200D02*
D03*
X-4300Y-2200D02*
D03*
X-4400Y-2400D02*
D03*
X-4300Y-2600D02*
D03*
X-4400Y-2800D02*
D03*
X-4300Y-3000D02*
D03*
X-4400Y-3200D02*
D03*
X-4300Y-3400D02*
D03*
Y-4200D02*
D03*
X-4400Y-4400D02*
D03*
X-4300Y-4600D02*
D03*
X-4400Y-4800D02*
D03*
X-4300Y-5000D02*
D03*
X-4400Y-5200D02*
D03*
X-4300Y-5400D02*
D03*
X-4400Y-5600D02*
D03*
X-4500Y5400D02*
D03*
X-4600Y5200D02*
D03*
X-4500Y5000D02*
D03*
X-4600Y4800D02*
D03*
X-4500Y4600D02*
D03*
X-4600Y4400D02*
D03*
Y3200D02*
D03*
X-4500Y3000D02*
D03*
X-4600Y2800D02*
D03*
X-4500Y2600D02*
D03*
X-4600Y2400D02*
D03*
X-4500Y2200D02*
D03*
X-4600Y1200D02*
D03*
X-4500Y1000D02*
D03*
X-4600Y800D02*
D03*
X-4500Y600D02*
D03*
X-4600Y400D02*
D03*
X-4500Y200D02*
D03*
X-4600Y0D02*
D03*
X-4500Y-200D02*
D03*
X-4600Y-400D02*
D03*
X-4500Y-600D02*
D03*
X-4600Y-800D02*
D03*
X-4500Y-1000D02*
D03*
X-4600Y-1200D02*
D03*
X-4500Y-2200D02*
D03*
X-4600Y-2400D02*
D03*
X-4500Y-2600D02*
D03*
X-4600Y-2800D02*
D03*
X-4500Y-3000D02*
D03*
X-4600Y-3200D02*
D03*
Y-4400D02*
D03*
X-4500Y-4600D02*
D03*
X-4600Y-4800D02*
D03*
X-4500Y-5000D02*
D03*
X-4600Y-5200D02*
D03*
X-4500Y-5400D02*
D03*
X-4700Y5400D02*
D03*
X-4800Y5200D02*
D03*
X-4700Y5000D02*
D03*
X-4800Y4800D02*
D03*
X-4700Y4600D02*
D03*
X-4800Y4400D02*
D03*
X-4700Y4200D02*
D03*
Y3400D02*
D03*
X-4800Y3200D02*
D03*
X-4700Y3000D02*
D03*
X-4800Y2800D02*
D03*
X-4700Y2600D02*
D03*
X-4800Y2400D02*
D03*
X-4700Y2200D02*
D03*
X-4800Y2000D02*
D03*
Y1200D02*
D03*
X-4700Y1000D02*
D03*
X-4800Y800D02*
D03*
X-4700Y600D02*
D03*
X-4800Y400D02*
D03*
X-4700Y200D02*
D03*
X-4800Y0D02*
D03*
X-4700Y-200D02*
D03*
X-4800Y-400D02*
D03*
X-4700Y-600D02*
D03*
X-4800Y-800D02*
D03*
X-4700Y-1000D02*
D03*
X-4800Y-1200D02*
D03*
Y-2000D02*
D03*
X-4700Y-2200D02*
D03*
X-4800Y-2400D02*
D03*
X-4700Y-2600D02*
D03*
X-4800Y-2800D02*
D03*
X-4700Y-3000D02*
D03*
X-4800Y-3200D02*
D03*
X-4700Y-3400D02*
D03*
Y-4200D02*
D03*
X-4800Y-4400D02*
D03*
X-4700Y-4600D02*
D03*
X-4800Y-4800D02*
D03*
X-4700Y-5000D02*
D03*
X-4800Y-5200D02*
D03*
X-4700Y-5400D02*
D03*
X-925Y522D02*
D03*
X-1450Y525D02*
D03*
X-380Y-650D02*
D03*
X-1350Y2700D02*
D03*
X-1250Y2750D02*
D03*
X0Y0D02*
D03*
X-3000Y4175D02*
D03*
X-825Y-1490D02*
D03*
X-2440Y-1538D02*
D03*
Y-1623D02*
D03*
X-300Y-1210D02*
D03*
X-400Y-1120D02*
D03*
X1950Y-4175D02*
D03*
X-1933D02*
D03*
X64Y-2500D02*
D03*
X2080Y1750D02*
D03*
X2160D02*
D03*
X1497Y1875D02*
D03*
X-1470Y-1490D02*
D03*
X-975Y-1364D02*
D03*
Y-1236D02*
D03*
X-1470Y-1364D02*
D03*
Y-1236D02*
D03*
X-1850Y-725D02*
D03*
Y-625D02*
D03*
X1800Y4575D02*
D03*
X-1975Y4450D02*
D03*
X-1975Y4150D02*
D03*
X1300Y-4225D02*
D03*
X900D02*
D03*
X500D02*
D03*
X100D02*
D03*
X-300D02*
D03*
X-700D02*
D03*
X-1100D02*
D03*
X-1500D02*
D03*
X900Y5900D02*
D03*
Y6100D02*
D03*
Y6300D02*
D03*
Y6000D02*
D03*
Y6200D02*
D03*
X590Y-40D02*
D03*
X2990Y4175D02*
D03*
X1100Y1477D02*
D03*
X-2050Y-4275D02*
D03*
X-825Y-2425D02*
D03*
X-444D02*
D03*
X125Y175D02*
D03*
X750Y300D02*
D03*
X-1850Y775D02*
D03*
Y675D02*
D03*
X-2225Y700D02*
D03*
X-2227Y552D02*
D03*
X-2230Y409D02*
D03*
X-690Y-350D02*
D03*
X220Y280D02*
D03*
X425Y425D02*
D03*
X-3000Y4625D02*
D03*
X-2000Y-4625D02*
D03*
X2000D02*
D03*
X-2450D02*
D03*
X-1125Y5375D02*
D03*
X-1775Y5150D02*
D03*
X-700Y5375D02*
D03*
X-1150Y2050D02*
D03*
X-950Y2250D02*
D03*
X-1050Y2150D02*
D03*
X-1150Y2800D02*
D03*
Y4775D02*
D03*
X-550Y5375D02*
D03*
X610Y-340D02*
D03*
X-900Y6100D02*
D03*
Y6200D02*
D03*
Y6000D02*
D03*
Y6300D02*
D03*
Y5900D02*
D03*
X-1025Y0D02*
D03*
M02*
