M48
;Layer_Color=9474304
;FILE_FORMAT=4:2
METRIC,LZ
;TYPE=PLATED
T1F00S00C0.30
T2F00S00C1.00
T3F00S00C1.30
T4F00S00C3.20
;TYPE=NON_PLATED
T5F00S00C1.00
T6F00S00C2.50
%
T01
X0039Y-0058
X0041
X0042Y-0056
X0044
X0045Y-0054
X0047
X0046Y-0052
X0044
X0042
X004
X0041Y-005
X0043
X0045
X0047
X0046Y-0048
X0044
X0042
X004
X0041Y-0046
X0043
X0045
X0047
X0046Y-0044
X0044
X0042
X004
X0041Y-0042
X0043
X0047
X0039
Y-0046
Y-005
Y-0054
X0041
X0043
X004Y-0056
X0038
X0036
X0034
X0032
X003
X0028
X0026
X0024
X0022
X002
X0018
X0016
X0017Y-0054
X0019
X0021
X0023
X0025
X0027
X0029
X0031
X0033
X0035
X0037
X0038Y-0052
X0036
X0034
X0032
X003
X0028
X0026
X0024
X0022
X002
X0018
X0019Y-005
X0021
X0023
X0025
X0027
X0029
X0031
X0033
X0035
X0037
X0038Y-0048
X0036
X0034
X0032
X003
X0028
X0026
X0024
X0022
X002
X002Y-004625
X002Y-0044
X00195Y-004175
X0015Y-0042
X0013Y-004225
X0013Y-0046
X0015
X0016Y-0048
X0014
X0012
X001
X0008
X0006
X0004
X0002
X0
X0001Y-0046
X0003
X0005
X0007
X0009
X0011
Y-005
X0013
X0015
X0014Y-0052
X0012
X001
X0008
X0006
X0004
X0002
X0003Y-005
X0005
X0007
X0009
Y-0054
X0011
X0013
Y-0058
X0015
X0017
X0019
X0021
X0023
X0025
X0027
X0029
X0031
X0033
X0035
X0037
X0038Y-006
X0036
X0034
X0032
X003
X0028
X0026
X0024
X0022
X002
X0018
X0016
X0014
X0012
X0013Y-0062
X0015
X0017
X0019
X0021
X0023
X0025
X0027
X0029
X0031
X0033
X0035
X0032Y-0064
X003
X0028
X0026
X0024
X0022
X002
X0018
X0016
X0014
X0012
X001
X0008
X0009Y-0062
X0011
X0009Y-0058
X0007
X0005
X0006Y-0056
X0008
X001
X0007Y-0054
X0005
X0003
X0004Y-0056
X0
X-0001Y-0054
Y-005
X0001
X-0001Y-0046
Y-0042
X0001Y-004225
X0005
X0009
X0024Y-0044
X0026
X0028
X003
X0032
X0034
X0036
X0038
X0037Y-0042
X0035
X0033
X0031
X0029
Y-0046
X0031
X0033
X0035
X0037
X0006Y-006
X-0002Y-0056
X-0005Y-0054
Y-0058
Y-0062
X-0009
X-0011
X-001Y-006
X-0009Y-0058
X-0011
X-001Y-0056
X-0009Y-0054
X-0011
X-001Y-0052
X-0008
Y-0048
X-0006
X-0004
X-0002
X-0003Y-0046
X-0005
X-0007
X-0009
X-0011
X-0013
X-0015
X-0015Y-004225
X-0011
X-0007
X-0003
X-001Y-0048
X-0012
Y-0052
X-0014
X-0015Y-005
X-002Y-004625
X-0022Y-0048
Y-0052
X-0028
X-003
X-0032
X-0034
X-0036
X-0038
X-004
X-0039Y-005
X-0037
X-0035
X-0033
X-0031
X-0029
X-0027
X-0026Y-0048
X-0028
X-003
X-0032
X-0034
X-0036
X-0038
X-004
X-0039Y-0046
X-0037
X-0035
X-0033
X-0031
X-0029
X-0028Y-0044
X-003
X-0032
X-0034
X-0036
X-0038
X-004
X-0039Y-0042
X-0037
X-0035
X-0033
X-0031
X-0029
X-00245Y-004625
X-00205Y-004275
X-001933Y-004175
X-0021Y-0062
X-002Y-0064
X-0022
X-0024
X-0026
X-0028
X-003
X-0032
X-0031Y-0062
X-0029
X-003Y-006
X-0032
X-0034
X-0036
X-0038
X-0037Y-0058
X-0035
X-0033
X-0031
X-003Y-0056
X-0032
X-0034
X-0036
X-0038
X-004
X-0039Y-0054
X-0037
X-0035
X-0033
X-0031
X-0029
X-0033Y-0062
X-0035
X-0039Y-0058
X-0041
Y-0054
Y-005
Y-0046
Y-0042
X-0043
X-0042Y-0044
X-0044
X-0046
X-0048
X-0047Y-0042
Y-0046
X-0045
X-0043
X-0042Y-0048
X-0044
X-0046
X-0048
X-0047Y-005
X-0045
X-0043
X-0042Y-0052
X-0044
X-0046
X-0048
X-0047Y-0054
X-0045
X-0043
X-0042Y-0056
X-0044
X-0043Y-0034
X-0042Y-0032
X-0044
X-0046
X-0048
X-0047Y-003
X-0045
X-0043
X-0042Y-0028
X-0044
X-0046
X-0048
X-0047Y-0026
X-0045
X-0043
X-0042Y-0024
X-0044
X-0046
X-0048
X-0047Y-0022
X-0045
X-0043
X-0048Y-002
Y-0012
X-0046
X-0044
X-0042
X-0043Y-001
X-0045
X-0047
X-0046Y-0008
X-0044
X-0042
X-0043Y-0006
X-0045
X-0047
X-0046Y-0004
X-0044
X-0042
X-0043Y-0002
X-0045
X-0047
X-0048Y-0004
Y-0008
X-0047Y-0034
X-0041
X-0039
X-0037
X-0035
X-0033
X-0031
X-0029
X-0027
X-0026Y-0032
X-0028
X-003
X-0032
X-0034
X-0036
X-0038
X-004
X-0039Y-003
X-0037
X-0035
X-0033
X-0031
X-0029
X-0027
X-0025
X-0023
X-0022Y-0028
X-0024
X-0026
X-0028
X-003
X-0032
X-0034
X-0036
X-0038
X-004
X-0039Y-0026
X-0037
X-0035
X-0033
X-0031
X-0029
X-0027
X-0025
X-0023
X-0021
X-0019
X-0018Y-0024
X-002
X-0022
X-0024
X-0026
X-0028
X-003
X-0032
X-0034
X-0036
X-0038
X-004
X-0039Y-0022
X-0037
X-0035
X-0033
X-0031
X-0029
X-0027
X-0025
X-0023
X-0021
X-0019
X-0017
X-0015
X-0016Y-002
X-0018
X-002
X-0022
X-0024
X-0026
X-0028
X-003
X-0032
X-0034
X-0036
X-0038
X-004
X-0039Y-0018
X-0037
X-0035
X-0033
X-0031
X-0029
X-0027
X-0025
X-00244Y-001623
Y-001538
X-0026Y-0016
X-0028
X-003
X-0032
X-0034
X-0036
X-0038
X-004
X-0039Y-0014
X-0037
X-0035
X-0033
X-0031
X-0029
X-0027
X-0026Y-0012
X-0028
X-003
X-0032
X-0034
X-0036
X-0038
X-004
X-0039Y-001
X-0037
X-0035
X-0033
X-0031
X-0029
X-0027
X-0024Y-0008
Y-0004
X-0022
X-0021Y-0002
X-0023
X-0025
X-0021Y-0006
X-00185Y-000625
Y-000725
X-0016Y-0008
X-0015Y-0006
X-0016Y-0004
X-0015Y-0002
X-001Y-0004
X-00069Y-00035
X-00038Y-00065
X-0004Y-00112
X-0003Y-00121
X-0003Y-0014
X-0002Y-0016
X-0004
X-0003Y-0018
X-0002Y-002
X-0004
X-0003Y-0022
X-000444Y-002425
X-000825
X-001Y-0024
Y-002
X-000975Y-001364
Y-001236
X-000825Y-00149
X-00147
Y-001364
Y-001236
X-0015Y-001
X-001895Y-00119
X-002005
Y-0013
X-001895
Y-00141
X-002005
X-002Y-0016
X-0019Y-0018
X-0015
X-0014Y-0028
X-0009Y-003
X-0007
X-0005
X-0006Y-0028
Y-0032
X-0008
X-001
X-0009Y-0034
X-0011
X-0013
X-0012Y-0036
X-0014
X-0013Y-0038
X-0011
X-0014Y-004
X-001933Y-004006
X-0026Y-004
X-0028
X-003
X-0032
X-0034
X-0036
X-0038
X-004
X-0039Y-0038
X-0037
X-0035
X-0033
X-0031
X-0029
X-0027
X-0026Y-0036
X-0028
X-003
X-0032
X-0034
X-0036
X-0038
X-004
X-0041Y-003
Y-0026
Y-0022
Y-0014
Y-001
X-004Y-0008
X-0038
X-0036
X-0034
X-0032
X-003
X-0033Y-0006
X-0035
X-0037
X-0039
X-0041
X-004Y-0004
X-0038
X-0036
X-0034
X-0033Y-0002
X-0035
X-0037
X-0039
X-0041
X-001Y-0008
X-0018Y-0032
X000064Y-0025
X0004Y-0024
X0006
X0008
X001
X0012
X0014
X0016
X0018
X002
X0022
X0024
X0026
X0028
X003
X0032
X0034
X0036
X0038
X0037Y-0022
X0035
X0033
X0031
X0029
X0027
X0025
X0023
X0021
X0019
X0017
X0015
X0013
X0011
X0009
X0007
X0005
X0003
X0004Y-002
X0006
X0008
X001
X0012
X0014
X0016
X0018
X002
X0022
X0024
X0026
X0028
X003
X0032
X0034
X0036
X0038
X0037Y-0018
X0035
X0033
X0031
X0029
X0027
X0025
X0023
X0021
X0019
X0017
X0015
X0013
X0011
X0009
X0007
X0005
X0003
X0004Y-0016
X0006
X0008
X001
X0012
X0014
X0016
X0018
X002
X0022
X0024
X0026
X0028
X003
X0032
X0034
X0036
X0038
X0037Y-0014
X0035
X0033
X0031
X0029
X0027
X0025
X0023
X0021
X0019
X0017
X0015
X0013
X0011
X0009
X0007
X0005
X0003
X0004Y-0012
X0006
X0008
X001
X0012
X0014
X0016
X0018
X002
X0022
X0024
X0026
X0028
X003
X0032
X0034
X0036
X0038
X0037Y-001
X0035
X0033
X0031
X0029
X0027
X0025
X0023
X0021
X0019
X0017
X0015
X0016Y-0008
X0018
X002
X0022
X0024
X0025Y-0006
X0023
X0021
X0019
X002Y-0004
X0022
X0024
X0026
X0025Y-0002
X0023
X0021
X0019
X0018Y-0004
X0014
X0013Y-0002
X0011
X0013Y-0006
X0005
X0006Y-0008
X00061Y-00034
X-0001Y-0002
X0007Y-0026
X0009
X0011
X0013
X0015
X0017
X0019
X0021
X0023
X0025
X0027
X0029
X0031
X0033
X0035
X0037
X0038Y-0028
X0036
X0034
X0032
X003
X0028
X0026
X0024
X0022
X002
X0018
X0016
X0014
X0012
X001
X0008
X0009Y-003
X0011
X0013
X0015
X0017
X0019
X0021
X0023
X0025
X0027
X0029
X0031
X0033
X0035
X0037
X0038Y-0032
X0036
X0034
X0032
X003
X0028
X0026
X0024
X0022
X002
X0018
X0016
X0014
X0012
X001
X0008
X0009Y-0034
X0011
X0013
X0015
X0017
X0019
X0021
X0023
X0025
X0027
X0029
X0031
X0033
X0035
X0037
X0038Y-0036
X0036
X0034
X0032
X003
X0028
X0026
X0024
X0022
X0023Y-0038
X0025
X0027
X0029
X0031
X0033
X0035
X0037
X0038Y-004
X0036
X0034
X0032
X003
X0028
X0026
X0024
X0018
X0016
X0014
X0012
X0013Y-0038
X0015
X0017
X0018Y-0036
X0016
X0014
X0012
X0011Y-0038
X0007Y-003
X003Y-0008
X0032
X0034
X0036
X0038
X0037Y-0006
X0035
X0033
X0034Y-0004
X0036
X0038
X0037Y-0002
X0035
X0033
X0039
X0041
X0043
X0045
X0047
X0046Y-0004
X0044
X0042
X004
X0041Y-0006
X0043
X0045
X0047
X0046Y-0008
X0044
X0042
X004
X0041Y-001
X0043
X0045
X0047
X0046Y-0012
X0044
X0042
X004
X0041Y-0014
X0039
X004Y-0016
X0039Y-0018
X004Y-002
X0041Y-0022
X0043
X0045
X0047
X0046Y-0024
X0044
X0042
X004
X0041Y-0026
X0043
X0045
X0047
X0046Y-0028
X0044
X0042
X004
X0041Y-003
X0043
X0045
X0047
X0046Y-0032
X0044
X0042
X004
X0041Y-0034
X0043
X0047
X0039
X004Y-0036
X0039Y-0038
X004Y-004
X0039Y-003
Y-0026
Y-0022
Y-001
Y-0006
X004Y0
X0042
X0044
X0046
X0047Y0002
X0045
X0043
X0041
X0039
X004Y0004
X0042
X0044
X0046
X0047Y0006
X0045
X0043
X0041
X0039
X004Y0008
X0042
X0044
X0046
X0047Y001
X0045
X0043
X0041
X0039
X004Y0012
X0042
X0044
X0046
X0041Y0014
X0039
X004Y0016
X0039Y0018
X004Y002
X0041Y0022
X0043
X0045
X0047
X0046Y0024
X0044
X0042
X004
X0041Y0026
X0043
X0045
X0047
X0046Y0028
X0044
X0042
X004
X0041Y003
X0043
X0045
X0047
X0046Y0032
X0044
X0042
X004
X0041Y0034
X0043
X0047
X0039
X004Y0036
X0039Y0038
Y003
Y0026
Y0022
X0037
X0035
X0033
X0031
X0029
X0027
X0025
X0023
X0021
X0019
X002Y002
X0022
X0024
X0026
X0028
X003
X0032
X0034
X0036
X0038
X0037Y0018
X0035
X0033
X0031
X0029
X0027
X0028Y0016
X003
X0032
X0034
X0036
X0038
X0037Y0014
X0035
X0033
X0031
X0029
X0027
X0026Y0016
X00216Y00175
X00208
X002135Y00141
Y0013
Y00119
X002025
Y0013
Y00141
X0021Y001
X0019
X002Y0008
X0022
X0021Y0006
X0019
X002Y0004
X0022
X0024
X0025Y0002
X0023
X0021
X0019
X002Y0
X0022
X0024
X0026
X0032
X0034
X0036
X0038
X0037Y0002
X0035
X0033
X0034Y0004
X0036
X0038
X0037Y0006
X0035
X0033
X0034Y0008
X0036
X0038
X0037Y001
X0035
X0033
X0031
X0029
X003Y0012
X0032
X0034
X0036
X0038
X0032Y0008
X003
X0025Y001
X0018Y0008
Y0004
Y0
X0014
X0012
X0013Y0002
X0011
X0012Y0004
X0014
X0013Y0006
X001Y0008
X0007Y001
X0005
X000425Y000425
X0006Y0004
X00075Y0003
X00059Y-00004
X0002Y0
X0Y0
X000125Y000175
X00022Y00028
X0002Y0016
X0004
X0006
X0007Y0018
X0009
X0011
X001Y002
X0008
X0006
X0004
X0002
X0
X0001Y0022
X0003
X0005
X0007
X0009
X0011
X001Y0024
X0008
X0006
X0004
X0002
X0
X0001Y0026
X0003
X0005
X0007
X0009
X0011
X001Y0028
X0008
X0006
X0004
X0002
X0
X0001Y003
X0003
X0005
X0007
X0009
X0011
X001Y0032
X0008
X0006
X0004
X0002
X0
X0001Y0034
X0003
X0005
X0007
X0009
X0011
X001Y0036
X0008
X0006
X0004
X0002
X0
X0001Y0038
X0003
X0005
X0007
X0009
X0011
X0015
X0017
X0019
X0021
X002Y0036
X0018
X0016
X0017Y0034
X0019
X0021
X002Y0032
X0018
X0016
X0017Y003
X0019
X0021
X002Y0028
X0018
X0016
X0017Y0026
X0015
X0016Y0024
X0022
X0024
X0026
X0028
X003
X0032
X0034
X0036
X0038
X0037Y0026
X0035
X0033
X0031
X0029
X0027
X0025
X0023
X0024Y0028
X0026
X0028
X003
X0032
X0034
X0036
X0038
X0037Y003
X0035
X0033
X0031
X0029
X0027
X0025
X0026Y0032
X0028
X003
X0032
X0034
X0036
X0038
X0037Y0034
X0035
X0033
X0031
X0029
X0027
X0025
X0026Y0036
X0028
X003
X0032
X0034
X0036
X0038
X0037Y0038
X0035
X0033
X0031
X0029
X0027
X0025
X0024Y0036
Y0032
X0015Y0034
Y003
X001497Y001875
X0018Y002
X0011Y001477
X0005Y0018
X0003
X0001
X-0001
X0Y0016
X-0001Y0022
Y0026
Y003
Y0034
Y0038
X-0003
X-0005
X-0007
X-0006Y0036
X-0004
X-0002
X-0003Y0034
X-0005
X-0007
X-0006Y0032
X-0004
X-0002
X-0003Y003
X-0005
X-0007
X-0006Y0028
X-0004
X-0002
X-0003Y0026
X-0005
X-0007
X-0006Y0024
X-0004
X-0002
X-0003Y0022
X-0005
X-0007
X-00095Y00225
X-00105Y00215
X-00115Y00205
X-0013Y0018
X-0015
X-0014Y0016
X-0016
X-0015Y001
X-0013
X-0011
X-000925Y000522
X-00145Y000525
X-00185Y000675
Y000775
X-002225Y0007
X-002227Y000552
X-00223Y000409
X-0024Y0004
X-0026
X-0025Y0002
X-0023
X-0022Y0
X-0024
X-0026
X-0032
X-0034
X-0036
X-0038
X-004
X-0039Y0002
X-0037
X-0035
X-0033
X-0034Y0004
X-0036
X-0038
X-004
X-0039Y0006
X-0037
X-0035
X-0033
X-0032Y0008
X-003
X-0029Y001
X-0027
X-0026Y0012
X-0028
X-003
X-0032
X-0034
X-0036
X-0038
X-004
X-0039Y0014
X-0037
X-0035
X-0033
X-0031
X-0029
X-0027
X-0026Y0016
X-0028
X-003
X-0032
X-0034
X-0036
X-0038
X-004
X-0039Y0018
X-0037
X-0035
X-0033
X-0031
X-0029
X-0027
X-0026Y002
X-0028
X-003
X-0032
X-0034
X-0036
X-0038
X-004
X-0039Y0022
X-0037
X-0035
X-0033
X-0031
X-0029
X-0027
X-0026Y0024
X-0028
X-003
X-0032
X-0034
X-0036
X-0038
X-004
X-0039Y0026
X-0037
X-0035
X-0033
X-0031
X-0029
X-0027
X-0026Y0028
X-0028
X-003
X-0032
X-0034
X-0036
X-0038
X-004
X-0039Y003
X-0037
X-0035
X-0033
X-0031
X-0029
X-0027
X-0026Y0032
X-0028
X-003
X-0032
X-0034
X-0036
X-0038
X-004
X-0039Y0034
X-0037
X-0035
X-0033
X-0031
X-0029
X-0027
X-0028Y0036
X-003
X-0032
X-0034
X-0036
X-0038
X-004
X-0039Y0038
X-0037
X-0035
X-0033
X-0031
X-0029
X-0021
X-0019
X-0017
X-0015
X-0016Y0036
X-0018
X-002
X-0019Y0034
X-0017
X-0015
X-0016Y0032
X-0018
X-002
X-0019Y003
X-0017
X-0015
X-0016Y0028
X-0018
X-002
X-0019Y0026
X-0017
X-0015
X-00135Y0027
X-00125Y00275
X-00115Y0028
X-0008Y0024
Y002
X-0006
X-0004
X-0002
X-0003Y0018
X-0005
X-0007
X-0006Y0016
X-0004
X-0002
X-0008
X-0007Y0014
X-0021
Y0018
X-002Y002
X-0019Y0022
X-0017
X-0016Y0024
X-0018
X-002
X-0021Y0026
Y003
Y0034
Y0022
Y001
X-0031
X-0033
X-0035
X-0037
X-0039
X-0041
X-004Y0008
X-0038
X-0036
X-0034
X-0041Y0006
Y0002
Y0014
Y0022
Y0026
Y003
Y0034
X-0016Y0
X-001025Y0
X-0002Y0
X-0042
X-0044
X-0046
X-0048
X-0047Y0002
X-0045
X-0043
X-0042Y0004
X-0044
X-0046
X-0048
X-0047Y0006
X-0045
X-0043
X-0042Y0008
X-0044
X-0046
X-0048
X-0047Y001
X-0045
X-0043
X-0042Y0012
X-0044
X-0046
X-0048
Y002
X-0047Y0022
X-0045
X-0043
X-0042Y0024
X-0044
X-0046
X-0048
X-0047Y0026
X-0045
X-0043
X-0042Y0028
X-0044
X-0046
X-0048
X-0047Y003
X-0045
X-0043
X-0042Y0032
X-0044
X-0046
X-0048
X-0047Y0034
X-0043
Y0042
X-0042Y0044
X-0044
X-0046
X-0048
X-0047Y0046
X-0045
X-0043
X-0042Y0048
X-0044
X-0046
X-0048
X-0047Y005
X-0045
X-0043
X-0042Y0052
X-0044
X-0046
X-0048
X-0047Y0054
X-0045
X-0043
X-0042Y0056
X-0044
X-0047Y0042
X-0041
X-0039
X-0038Y0044
X-004
X-0039Y0046
X-0041
X-004Y0048
X-0038
X-0036
X-0034
X-0032
X-003
X-003Y004625
X-003Y0044
X-0032
X-0034
Y004
X-0032
X-003
X-003Y004175
X-0036Y004
X-0038
X-004
X-0039Y005
X-0037
X-0035
X-0033
X-0031
X-0029
X-0027
X-0025
X-0024Y0048
X-0026
X-0028
Y0052
X-0026
X-0025Y0054
X-0029
X-0031
X-0033
X-0035
X-0037
X-0039
X-0041
X-004Y0056
X-0038
X-0036
X-0034
X-0032
X-003
X-0029Y0058
X-0031
X-0033
X-0035
X-0037
X-0039
X-0041
X-0038Y006
X-0036
X-0034
X-0032
X-003
X-0029Y0062
X-0031
X-0033
X-0035
X-0034Y0052
X-0032
X-003
X-0036
X-0038
X-004
X-0041Y005
X-0025Y0046
X-0021
X-001975Y00445
X-001975Y00415
X-002Y004
X-0016
X-0015Y0042
Y0046
X-0016Y0048
X-0017Y005
X-001775Y00515
X-0019Y0054
Y0058
X-002Y006
X-0019Y0062
X-0021
X-0011
X-0009Y0062
Y0061
Y006
Y0059
X-0007Y0058
X-0005
X-0004Y0056
X-0006
X-00055Y005375
X-0007
X-001125
X-0011Y005
X-00115Y004775
X-0007Y0046
X-0005
X-0004Y0044
X-0005Y0042
X-0007
X-0006Y004
X-0004
X-0006Y006
X-0007Y0062
X-0009Y0063
X-0022Y0052
X0Y0056
X0004
X0006
X0008
X001
X0012
X0014
X0016
X0018
X002
X0022
X0024
X0026
X0028
X003
X0032
X0034
X0036
X0038
X0037Y0058
X0035
X0033
X0031
X0029
X0027
X0025
X0023
X0021
X0019
X0017
X0015
X0013
X0011
X0009Y0059
Y006
Y0061
Y0062
Y0063
X0007Y0062
X0005
X0006Y006
X0007Y0058
X0005
Y0054
X0007
X0009
X0011
X0013
X0015
X0017
X0019
X0021
X0023
X0025
X0027
X0029
X0031
X0033
X0035
X0037
X0038Y0052
X0036
X0034
X0032
X003
X0028
X0026
X0024
X0022
X002
X0018
X0016
X0014
X0012
X001
X0008
X0011Y005
X0013
X0015
X0017
X0019
X0021
X0023
X0025
X0027
X0029
X0031
X0033
X0035
X0037
X0038Y0048
X0036
X0034
X0032
X003
X0028
X0026
X0024
X0022
X0023Y0046
X0025
X0026Y0044
X003
X0032
X0034
X0036
X0038
Y004
X0036
X0034
X0032
X003
X00299Y004175
X0028Y004
X0026
X0024
X002
X0018
X0016
X0015Y0042
X0016Y0044
X0015Y0046
X0018Y004575
X002Y0044
X0021Y0042
X0011
X0009
X0007
X0005
X0006Y004
X0008
X001
Y0044
X0008
X0009Y0046
X0007
X0005
X0004Y0044
Y004
X0Y0048
X0003Y0054
X0012Y006
X0014
X0016
X0018
X002
X0022
X0024
X0026
X0028
X003
X0032
X0034
X0036
X0038
X0035Y0062
X0033
X0031
X0029
X0027
X0025
X0023
X0021
X0019
X0017
X0015
X0013
X0011
X0031Y0046
X0033
X0039
X0041
X0043
X0045
X0047
X0046Y0048
X0044
X0042
X004
X0041Y005
X0043
X0045
X0047
X0046Y0052
X0044
X0042
X004
X0041Y0054
X0043
X0045
X0047
X0044Y0056
X0042
X004
X0041Y0058
X0039
Y0054
Y005
X004Y0044
X0042
X0044
X0046
X0047Y0042
X0043
X0041
X0039
X004Y004
T02
X000275Y-006127
Y-005873
X-000275
Y-006127
X-001373Y-006175
X-001627
Y-005625
X-001373
X-002373
X-002627
Y-006175
X-002373
Y005625
X-002627
Y006175
X-002373
X-001627
X-001373
Y005625
X-001627
X-000275Y005873
Y006127
X000275
Y005873
T03
X-00275Y-00075
Y-00025
X00275
Y-00075
Y00025
Y00075
X-00275
Y00025
T04
X-00445Y-003806
Y-001706
X00445
Y-003806
Y001706
Y003806
X-00445
Y001706
T05
X000465Y-006245
X-001255Y-005435
X-002255
X-002745Y005435
X-001745
X-000465Y006245
T06
X0Y-00616
Y-00584
X-00134Y-0059
X-00166
X-00234
X-00266
Y0059
X-00234
X-00166
X-00134
X0Y00584
Y00616
M30
