M48
;Layer_Color=9474304
;FILE_FORMAT=4:2
METRIC,LZ
;TYPE=PLATED
T1F00S00C0.30
T2F00S00C0.50
T4F00S00C1.00
T5F00S00C1.30
T6F00S00C3.20
;TYPE=NON_PLATED
T7F00S00C0.60
T8F00S00C1.00
T9F00S00C2.50
%
T01
X00385Y-00585
X004Y-00555
X0043
X00445Y-00525
X00475
X0046Y-00495
X0043
X004
X00415Y-00465
X00445
X00475
X0046Y-00435
X0043
X004
X00385Y-00465
Y-00525
X00415
X00355
X00325
X00295
X00265
X00235
X00205
X00175
X00145
X0016Y-00495
X0019
X0022
X0025
X0028
X0031
X0034
X0037
X00355Y-00465
X00325
X00295
X0031Y-00435
X0034
X0037
X0028
X0025
X0022
X00195Y-004175
X002Y-004625
X00115Y-00465
X00085
X00055
X00025
X-00005
X0001Y-00495
X0004
X0007
X001
Y-00555
X0013
X0016
X0019
X0022
X0025
X0028
X0031
X0034
X0037
X00355Y-00585
X00325
X00295
X00265
X00235
X00205
X00175
X00145
X00115
X00085
X00055
X0007Y-00555
X0004
X00032Y-00542
X00025Y-00525
X00055
X0007Y-00615
X001
X0013
X0016
X0019
X0022
X0025
X0028
X0031
X0034
X0013Y-004225
X0009
X0005
X0001
X-0003
X-0007
X-0011
X-0015
X-00181Y-004318
X-00198Y-00428
X-00193Y-00452
X-0021Y-004625
X-00241
X-00243Y-00418
X-0029Y-00435
X-0032
X-0035
X-0038
X-0041
X-00395Y-00465
X-00365
X-00335
X-00305
X-0029Y-00495
X-0032
X-0035
X-0038
X-0041
X-00395Y-00525
X-00365
X-00335
X-00305
X-0032Y-00555
X-0035
X-0038
X-0041
X-00395Y-00585
X-00365
X-00335
X-00305
X-0029Y-00615
X-0032
X-0035
X-002
Y-00555
X-00215Y-00525
X-002Y-00495
X-001645Y-00475
X-00125Y-00465
X-00095
X-00065
X-00035
X-00053Y-00542
X-0005Y-00555
X-0008
X-0011
X-00095Y-00585
X-00065
X-0005Y-00615
X-0008
X-0011
X-0044Y-00555
X-00425Y-00525
X-00455
X-0044Y-00495
X-0047
X-00455Y-00465
X-00425
X-0044Y-00435
X-0047
Y-00315
X-0044
X-00425Y-00285
X-00455
X-0044Y-00255
X-0047
X-00455Y-00225
X-00425
Y-00105
X-00455
X-0044Y-00075
X-0047
X-00455Y-00045
X-00425
X-0047Y-00135
X-0041
X-0038
X-0035
X-0032
X-0029
X-0026
X-00275Y-00105
X-00305
X-00335
X-00365
X-00395
X-0038Y-00075
X-0035
X-0032
X-00335Y-00045
X-00365
X-00395
X-0041Y-00075
X-00395Y-00165
X-00365
X-00335
X-00305
X-00275
X-0026Y-00195
X-0023
X-002
X-00185Y-00165
X-00155
X-00215
Y-00225
X-00275
X-00305
X-00335
X-00365
X-00395
X-0038Y-00195
X-0035
X-0032
X-0029
Y-00255
X-0026
X-00275Y-00285
X-00305
X-00335
X-00365
X-00395
X-0038Y-00255
X-0035
X-0032
Y-00315
X-0029
X-0026
X-00275Y-00345
X-00305
X-00335
X-00365
X-00395
X-0038Y-00315
X-0035
Y-00375
X-0032
X-0029
X-0026
X-00305Y-00405
X-00335
X-00365
X-00395
X-0038Y-00375
X-0041Y-00315
Y-00255
Y-00195
X-0011
X-0008
X-00095Y-00225
X-00125
X-0011Y-00255
X-0014
X-0017
X-00155Y-00285
X-00185
X-0017Y-00315
X-00185Y-00345
X-00125
X-00095
X-0008Y-00315
X-00065Y-00285
X-00057Y-00234
X-00035Y-00225
X-000317Y-00253
X-00035Y-00165
X-000822Y-0014
X-00092Y-000855
X-00057Y-00076
X-00034Y-00082
X-00027Y-00069
X-00041Y-000479
X-00029Y-00027
X-00035Y-00019
X-000701Y-00016
X-00153Y-00027
Y-000495
X-00185Y-00045
X-00215
X-002Y-00075
X-00142Y-00082
X-0014Y-00375
X-0011
X-00035Y-00405
X-00005
X0001Y-00375
X000064Y-00308
X00002Y-002471
X00025Y-00225
X00055
X00085
X00115
X00145
X00175
X00205
X00235
X00265
X00295
X00325
X00355
X0037Y-00195
X0034
X0031
X0028
X0025
X0022
X0019
X00205Y-00165
X00235
X00265
X00295
X00325
X00355
X0037Y-00135
X0034
X0031
X0028
X0025
Y-00075
X0031
X0034
X0037
X00355Y-00045
X00325
Y-00105
X00355
X00295
X0019Y-00075
X00148Y-00074
X00145Y-00045
X00175
X00205
X001075Y-000505
Y-000615
X000965
Y-000505
X000662Y-00059
X00045
X00037
X00029
X00021
X00016Y-00069
X00011Y-000847
X00009Y-000433
X00029Y-00021
X00037Y-000175
X00057Y-00032
X00041Y-000708
X00055Y-00165
X00085
X00115
X00145
X00175
X0019Y-00255
X0022
X0025
X0028
X0031
X0034
X0037
X00355Y-00285
X00325
X00295
X00265
X00235
X00205
X00175
X00145
X00115
X00085
X001Y-00255
X0013
X0016
Y-00315
X0019
X0022
X0025
X0028
X0031
X0034
X0037
X00355Y-00345
X00325
X00295
X00265
X00235
X00205
X00175
X00145
X00115
X0013Y-00315
X001
X0007
X00057Y-00338
X0007Y-00255
X0001Y-00195
X00025Y-00165
X0013Y-00375
X0016
X0019
X0022
X0025
X0028
X0031
X0034
X0037
X00355Y-00405
X00325
X00295
X00235
X00205
X00145
X00115
X00385
X004Y-00375
X00415Y-00345
X00385
X004Y-00315
X0043
X0046
X00475Y-00285
X00445
X00415
X00385
X004Y-00255
X0043
X0046
X00475Y-00225
X00445
X00415
X00385
X004Y-00195
X00385Y-00165
X004Y-00135
X00415Y-00105
X00445
X00475
X0046Y-00075
X0043
X004
X00415Y-00045
X00445
X00475
X00385
Y-00105
X00475Y-00345
X0046Y-00015
X0043
X004
X00415Y00015
X00445
X00475
X0046Y00045
X0043
X004
X00415Y00075
X00445
X00475
X0046Y00105
X0043
X004
X00415Y00135
X00385
X004Y00165
X00385Y00195
X004Y00225
X0043
X0046
X00475Y00255
X00445
X00415
X00385
X004Y00285
X0043
X0046
X00475Y00315
X00445
X00415
X00385
X004Y00345
X00385Y00375
Y00075
Y00015
X00475Y00135
X00355
X00325
X00295
X00265
X00235
X00205
X00175
X00145
X00115
X0013Y00165
X0016
X0019
X0022
X0025
X0028
X0031
X0034
X0037
X00355Y00195
X00325
X00295
X00265
X00235
X00205
X00175
X00145
X00117Y00198
X00124Y00214
X0016Y00225
X0019
X0022
X0025
X0028
X0031
X0034
X0037
X00355Y00255
X00325
X00295
X00265
X00235
X00205
X00175
X00145
X00109Y00263
X00055Y00255
X00025
X-00005
Y00315
X0001Y00345
X001
X000971Y003665
X00145Y00375
X00175
X00205
X00235
X00265
X00295
X00325
X00355
X0037Y00345
X0034
X0031
X0028
X0025
X0022
X0019
X0016
X00175Y00315
X00205
X00235
X00265
X00295
X00325
X00355
X0037Y00285
X0034
X0031
X0028
X0025
X0022
X0019
X0016
X00145Y00315
X00062Y00213
X00034Y001803
X0001Y00163
Y00143
X0Y00153
X-0001Y00143
Y00163
X-000057Y001952
X00002Y00193
X0001Y00105
X00002Y00067
X00028Y000685
X00055Y00075
X00072Y00086
X00073Y00115
X0013Y00105
X0016
X0019
X0022
X0025
X0028
X0031
X0034
X0037
X00355Y00075
X00325
X0034Y00045
X0037
X00355Y00015
X00325
X0034Y-00015
X0037
X0025
X0022
X0019
X0016
X00175Y00015
X00205
X00235
X0025Y00045
X0022
X0019
X0016
X00175Y00075
X00205
X00235
X001147Y00087
X001Y00045
X00106Y00018
X00045Y000196
X00037Y00023
X000562Y0
X0007Y-00015
X-000017Y0
X-00092Y-00007
X-00095Y00015
X-00088Y00052
X-001064Y00053
X-00122
X-00129Y00044
X-001345Y000355
X-00125Y00075
X-00085Y00078
X-0008Y00105
X-00065Y00135
X-0011Y00165
X-0014
X-00125Y00195
X-00095
X-0008Y00225
X-0011
X-0014
X-00125Y00255
X-00095
X-00065
X-0008Y00285
X-0011
X-0014
X-00125Y00315
X-00095
X-00065
X-00035
X-0002Y00345
X-00035Y00375
X-00065
X-00095
X-00125
X-00155
X-0014Y00345
X-0011
X-0008
X-00155Y00315
Y00255
Y00195
Y00135
X-00213Y00181
X-0026Y00165
X-0029
X-0032
X-0035
X-0038
X-00365Y00195
X-00335
X-00305
X-00275
X-0026Y00225
X-0029
X-0032
X-0035
X-0038
X-0041
X-00395Y00255
X-00365
X-00335
X-00305
X-00275
X-0026Y00285
X-0029
X-0032
X-0035
X-0038
X-0041
X-00395Y00315
X-00365
X-00335
X-00305
X-00275
X-0026Y00345
X-0029
X-0032
X-0035
X-0038
X-0041
X-00395Y00375
X-00365
X-00335
X-00305
X-00213Y0028
X-00275Y00135
X-00305
X-00335
X-00365
X-00395
X-0038Y00105
X-0035
X-0032
X-0029
X-0026
X-00246Y00102
X-00235Y00077
X-00225Y00055
X-00214Y00021
X-00245Y00015
X-0023Y-00015
X-0026Y00045
X-00305Y00075
X-00335
X-00365
X-00395
X-0038Y00045
X-0035
X-00335Y00015
X-00365
X-00395
X-0038Y-00015
X-0035
X-0041
Y00045
Y00105
X-00395Y00195
X-00017Y00102
X-0011Y-00015
X-0044
X-0047
X-00455Y00015
X-00425
X-0044Y00045
X-0047
X-00455Y00075
X-00425
X-0044Y00105
X-0047
Y00225
X-0044
X-00425Y00255
X-00455
X-0044Y00285
X-0047
X-00455Y00315
X-00425
X-0047Y00345
X-00455Y00435
X-00425
X-0044Y00465
X-0047
X-00455Y00495
X-00425
X-0044Y00525
X-0047
X-00425Y00555
X-00395
X-00365
X-00335
X-00305
X-0029Y00585
X-0032
X-0035
X-0038
X-00365Y00615
X-00335
X-00305
X-00215
X-00185
Y00555
X-001775Y00515
X-00245Y00495
X-00275
X-00305
X-00335
X-00365
X-00395
X-0038Y00525
X-0035
X-0032
X-0029
X-0026
Y00465
X-003Y004625
X-00305Y00435
X-003Y004175
X-0032Y00405
X-00335Y00435
X-00395
X-0038Y00465
X-0041
Y00525
Y00405
X-0038
X-0026
X-00246Y004266
X-001975Y00415
X-001975Y00445
X-00155Y00435
X-0014Y00405
X-0011
X-0008
X-0005
X-0002
X-00035Y00435
X-00065
X-00095
X-0008Y00465
X-0005
X-0002
X-00035Y00495
X-00025Y0052
X-0008Y00525
X-00065Y00555
X-00095
X-00112Y00538
X-00095Y00495
X-0008Y00585
X-0005
X-00065Y00615
X-00095
X-00214Y00384
X0001Y00405
X-00005Y00435
X0001Y00465
X-00005Y00495
Y00555
X00055
X00085
X00115
X00145
X00175
X00205
X00235
X00265
X00295
X00325
X00355
X0037Y00585
X0034
X0031
X0028
X0025
X0022
X0019
X0016
X0013
X001
X0007
X00085Y00615
X00115
X00145
X00175
X00205
X00235
X00265
X00295
X00325
X00355
X0037Y00525
X0034
X0031
X0028
X0025
X0022
X0019
X0016
X0013
X001
X0007
X0004
X0007Y00465
X000895Y00459
X001Y00465
X0013
X0016
X0019
X0022
X0025Y004582
X0028Y00465
X0031
X0034
X0037
X00355Y00495
X00325
X00295
Y00435
X00325
X00355
X0037Y00405
X0034
X0031
X0028
X0025
X0022
X0019
X0016
X00175Y00435
X00205
X00107Y00429
X00101Y00435
X000914Y004266
Y00401
X00103
X000845Y00395
X00055Y00615
X004Y00585
X00415Y00555
X00445
X0046Y00525
X0043
X004
X00415Y00495
X00445
X00475
X0046Y00465
X0043
X004
X00415Y00435
X00445
X00475
X00385
X004Y00405
X00385Y00495
Y00555
T02
X000648Y-001024
X00074
X00084Y-0012
X000923
X00111
X0012
X00131Y-00102
X00141
X-00043Y00039
T04
X000275Y-006127
Y-005873
X-000275
Y-006127
X-001373Y-006175
X-001627
Y-005625
X-001373
X-002373
X-002627
Y-006175
X-002373
Y005625
X-002627
Y006175
X-002373
X-001627
X-001373
Y005625
X-001627
X-000275Y005873
Y006127
X000275
Y005873
T05
X-00275Y-00075
Y-00025
X00275
Y-00075
Y00025
Y00075
X-00275
Y00025
T06
X-00445Y-003806
Y-001706
X00445
Y-003806
Y001706
Y003806
X-00445
Y001706
T07
X00042Y00417
X00152
T08
X000465Y-006245
X-001255Y-005435
X-002255
X-002745Y005435
X-001745
X-000465Y006245
T09
X0Y-00616
Y-00584
X-00134Y-0059
X-00166
X-00234
X-00266
Y0059
X-00234
X-00166
X-00134
X0Y00584
Y00616
M30
